<svg xmlns="http://www.w3.org/2000/svg" viewBox="0 0 322.49 246.18"><title>Aarakocra_2</title><g id="fd986f20-909f-4846-a4f7-51d3ab880269" data-name="Layer 2"><g id="fe4e4e97-fe98-4bee-817e-a3f54a659f3a" data-name="Layer 1"><path d="M109.32,53.75c20.21,62.67,4.59,138.2-50.69,189.19,10.92-35.66,18.5-72.62,19.77-102.2C70.26,153.81,56.46,176.69,37,188.12c13.29-29.45,28.63-63.66,27.37-78.93C53,124.47,35.56,143.1,19,147.19,36.64,126.08,57.94,96.74,57,88.5c-10.76,10.81-37.23,19.43-48.62,19C28.48,92.66,39.52,83.88,48.88,68.9c-17,13.08-34.62,10-45.64,8,18.13-8.6,30.21-15.58,36.33-21.6-11.83.25-19.59-2.44-30-6C41.47,33.06,104.1,37.56,109.32,53.75Z" style="fill:#a8917c"/><path d="M56.59,246.18l1.08-3.53c11-35.9,17.88-70.53,19.53-98.09C68.91,157.87,55.62,178.34,37.49,189l-2.71,1.59,1.3-2.87c12-26.54,26.72-59.19,27.34-75.61C55,123,37.12,143.74,19.28,148.16l-3,.73,1.95-2.34C36,125.33,53.48,100.69,55.75,91c-12.12,10.39-36.61,17.93-47.44,17.48l-2.84-.12,2.29-1.69c18.44-13.55,28.92-22,37.41-34-16,9.89-32.15,7-42.1,5.22L0,77.34,2.82,76c17-8,27.94-14.38,34.17-19.7-10.49-.16-18-2.73-27.36-5.91L7,49.5l2.11-1.07c25.41-13,69.29-13,90.08-4.34,6.15,2.55,9.86,5.7,11,9.35,21.62,67.05,1.62,141.73-51,190.23Zm23-109.2-.16,3.8c-1.18,27.42-7.81,62.4-18.73,98.86,50-48,68.7-120.44,47.69-185.59h0c-1-3-4.39-5.83-9.89-8.12-19.41-8.06-61.36-8.24-86.24,3.23,9.32,3.16,16.54,5.39,27.32,5.14l2.52-.06L40.27,56c-5.63,5.54-16.4,12.06-33.78,20.45,10.67,1.79,26.58,3.33,41.78-8.36l4.39-3.37-2.94,4.7c-8.84,14.14-19.11,22.82-38.23,37,12.13-.92,35-8.75,44.77-18.6l1.46-1.47L58,88.38c1.07,9-21.22,38.86-36,56.89,17.53-6.21,34.78-27.44,41.64-36.67l1.58-2.13.22,2.64c1.25,15.18-13.56,48.6-26.11,76.42,17.21-11.38,29.8-31.64,37.49-44Z" style="fill:#fff"/><path d="M318.59,62c-10.87,1.42-19,2.53-30.56,0,4.82,7.11,15.29,16.33,31.37,28.33-11.19-.23-29-.65-43.17-16.83,6.23,16.53,15.32,27.31,32.15,45.78-11.27-1.77-35.51-15.44-43.94-28.15C261.86,99,277,132,290.08,156.1c-15.39-7.26-28.83-28.95-37-46.17-4.23,14.72,4.07,51.28,11.31,82.78-16.85-15.05-25.87-40.19-31.28-54.61-4.58,29.26-4.42,67-.73,104.09-44.16-60.87-44.61-138-12.46-195.46C228.25,31.88,290.55,39.79,318.59,62Z" style="fill:#a8917c"/><path d="M233.79,245.77l-2.18-3c-42-57.91-46.92-135-12.53-196.54,1.88-3.35,6.13-5.71,12.66-7,22.09-4.38,65.11,4.27,87.47,22l1.85,1.47-2.7.35c-9.79,1.29-17.68,2.32-28,.42,5.05,6.45,14.57,14.8,29.62,26l2.5,1.86-3.11-.06c-10.11-.21-26.46-.54-40.26-13.4,6,13.46,14.59,23.76,30,40.68l1.92,2.1-2.81-.44c-10.72-1.69-33.24-13.9-43.08-26.47.33,10,12.65,37.57,25.82,61.85l1.45,2.69-2.76-1.3c-16.61-7.84-30.1-31.7-36.17-44-2.63,16.21,5.4,51.13,11.92,79.51l.71,3.07-2.35-2.1c-15.68-14-24.67-36.69-30.19-51.37-3.8,27.35-3.87,62.66-.15,100ZM244.46,40.15a64.15,64.15,0,0,0-12.33,1.05c-5.84,1.16-9.75,3.24-11.3,6C187.41,107,191.52,181.64,231.07,238.56c-3.53-37.9-3.15-73.5,1.09-100.61l.59-3.76,1.88,5c5.09,13.63,13.46,36,28.09,50.52C255.89,160,248,124.29,252.16,109.66l.73-2.55L254,109.5c4.92,10.41,17.65,34.62,33.61,44.16-11-20.6-27-54.24-24.14-62.88l.64-2,1.15,1.72c7.66,11.58,28.52,23.76,40.23,27-16-17.62-24.33-28.15-30.21-43.76l-2-5.18L277,72.81c12.6,14.45,28.5,16.08,39.31,16.41-15.39-11.64-24.67-20.15-29.1-26.69l-1.41-2.09,2.46.55c10.53,2.35,18,1.61,27.79.34C297.74,48,266.41,40.15,244.46,40.15Z" style="fill:#fff"/><path d="M197.36,14.92S173.08-9.36,133.15,8.66l-11,73.8L159,123c22.72-12.14,22.39-12.18,38.38-36.81ZM137.21,27.64c.48-3.42,2.49-7.95,5.76-7.69,5,.4,6.54,7.2,7.94,8.92s2.83,1.77,3.13,1.74a15,15,0,0,0-4.89,2c-2.61,1.72-5.22,2.45-8.12,1.34A5.73,5.73,0,0,1,137.21,27.64Zm49.13,32.12a1.18,1.18,0,0,1-1.68.26c-3.58-2.68-7.14-3.61-10.6-2.81-6.25,1.46-10.22,8.24-10.26,8.29a1.2,1.2,0,0,1-2.16,0s-4-6.83-10.26-8.29c-3.46-.82-7,.13-10.6,2.81a1.18,1.18,0,0,1-1.68-.26,1.61,1.61,0,0,1,0-1.95L155.22,38l.12-.13a6.49,6.49,0,0,1,.84-.67,7.32,7.32,0,0,1,1.35-.81,13.32,13.32,0,0,1,10.27,0,7.78,7.78,0,0,1,1.49.86,7.59,7.59,0,0,1,.81.66l.12.13L186.3,57.81A1.61,1.61,0,0,1,186.34,59.76ZM187.4,37c-3,.93-5.66,0-8.22-1.95a15.55,15.55,0,0,0-4.94-2.38c.21,0,1.67.27,3.32-1.56,1.51-1.64,3.43-8.48,8.55-8.53,3.35,0,5.17,4.74,5.49,8.26A5.68,5.68,0,0,1,187.4,37Z" style="fill:#a8917c"/><path d="M162,2c22.48,0,35.4,12.92,35.4,12.92V86.18c-16,24.63-15.66,24.67-38.38,36.81L122.18,82.46l11-73.8C144,3.78,153.62,2,162,2m0-2V0h0a72.07,72.07,0,0,0-29.63,6.83l-1,.45-.16,1.08-11,73.8-.14.94.64.7,36.81,40.53,1.05,1.15,1.37-.73c22.64-12.1,22.93-12.54,38-35.8l1.1-1.69.32-.49V14.09l-.59-.59C198.22,13,185,0,162,0Z" style="fill:#fff"/><path d="M186.14,22.55v2c1.7,0,3.19,3.39,3.47,6.44a3.73,3.73,0,0,1-2.8,4.06,5.59,5.59,0,0,1-1.73.28,7.88,7.88,0,0,1-4.69-1.91,15,15,0,0,0-1.41-.94l.05,0a13.06,13.06,0,0,0,1.59-2.51c1.58-2.93,3.09-5.35,5.51-5.37v-2m0,0h0c-5.12.05-7.05,6.89-8.56,8.53a4,4,0,0,1-2.94,1.58,1.71,1.71,0,0,1-.4,0,15.94,15.94,0,0,1,5,2.39,9.73,9.73,0,0,0,5.9,2.32A7.69,7.69,0,0,0,187.4,37a5.67,5.67,0,0,0,4.2-6.16c-.32-3.5-2.13-8.25-5.46-8.25Z" style="fill:#fff"/><path d="M142.71,21.93h.1c2.34.19,3.7,2.66,5.11,5.62a13.06,13.06,0,0,0,1.44,2.57v0a14,14,0,0,0-1.33.78,7.81,7.81,0,0,1-4.25,1.53,5.81,5.81,0,0,1-2-.39,3.79,3.79,0,0,1-2.55-4.16c.39-2.83,1.94-6,3.52-6m0-2c-3.12,0-5,4.38-5.5,7.71a5.74,5.74,0,0,0,3.82,6.3,7.69,7.69,0,0,0,2.76.52,9.76,9.76,0,0,0,5.36-1.86,15.13,15.13,0,0,1,4.89-2h-.18a3.94,3.94,0,0,1-3-1.74c-1.4-1.72-3-8.52-7.94-8.93Z" style="fill:#fff"/><path d="M162.68,37.36a14.49,14.49,0,0,1,4.37.86,5.55,5.55,0,0,1,1.1.65,4.56,4.56,0,0,1,.53.43l0,0L182.58,56.4a14,14,0,0,0-6.11-1.47,12.7,12.7,0,0,0-2.87.33c-5.48,1.28-9.34,6-10.88,8.24-1.53-2.2-5.39-7-10.88-8.24a12.27,12.27,0,0,0-2.89-.34,13.81,13.81,0,0,0-6.09,1.48l13.87-17.07,0,0a4.81,4.81,0,0,1,.52-.41l.06,0,.06,0a4.74,4.74,0,0,1,.91-.56,14.3,14.3,0,0,1,4.38-.89m0-2a16.59,16.59,0,0,0-5.15,1,7.32,7.32,0,0,0-1.35.81,6.49,6.49,0,0,0-.84.67l-.12.13L139.14,57.81a1.61,1.61,0,0,0,0,1.95,1.25,1.25,0,0,0,1,.5,1.19,1.19,0,0,0,.71-.24,13.66,13.66,0,0,1,8.17-3.1,10.49,10.49,0,0,1,2.43.29c6.26,1.46,10.22,8.24,10.26,8.29a1.2,1.2,0,0,0,2.16,0s4-6.83,10.26-8.29a10.37,10.37,0,0,1,2.41-.28A13.64,13.64,0,0,1,184.66,60a1.19,1.19,0,0,0,.71.24,1.25,1.25,0,0,0,1-.5,1.61,1.61,0,0,0,0-1.95L170.22,38l-.12-.13a7.59,7.59,0,0,0-.81-.66,7.78,7.78,0,0,0-1.49-.86,16.45,16.45,0,0,0-5.12-1Z" style="fill:#fff"/></g></g></svg>