<svg xmlns="http://www.w3.org/2000/svg" viewBox="0 0 265.2 347.59"><defs><style>.cls-1{fill:#b996c2;}.cls-2{fill:#fff;}</style></defs><g id="Layer_2" data-name="Layer 2"><g id="Layer_1-2" data-name="Layer 1"><path class="cls-1" d="M132.61,1.5A130.69,130.69,0,0,0,39.74,40L77,82.14a92,92,0,0,1,55.67-18.68c2.27,0,4.51.09,6.74.25l9-61.28a134,134,0,0,0-15.74-.93Zm28.86,3.2-8.92,60.94A92.25,92.25,0,0,1,191.91,85L231,45.9A130.85,130.85,0,0,0,161.47,4.7ZM30.8,50A130.4,130.4,0,0,0,1.9,122.21l41.84,8.11A92.61,92.61,0,0,1,67,90.88L30.8,50Zm208.53,6.42L201.47,94.26A92.1,92.1,0,0,1,225.15,156a93.29,93.29,0,0,1-.49,9.51l33.06,6.43A131.64,131.64,0,0,0,239.33,56.39ZM132.63,76.76A79.22,79.22,0,1,0,211.85,156a79.12,79.12,0,0,0-79.22-79.22ZM127,98.5a26,26,0,1,0,48.76,17A51.95,51.95,0,1,1,127,98.5ZM1.54,135.68A130.72,130.72,0,0,0,45.92,231l15.74-15.74A92.28,92.28,0,0,1,41,143.35L1.54,135.68ZM133.92,147a16.89,16.89,0,1,0,16.88,16.87A16.89,16.89,0,0,0,133.92,147Zm88.42,31.57a92.32,92.32,0,0,1-23.28,41.69l14,15.87A131.34,131.34,0,0,0,253,184.55l-30.69-6ZM70.91,224.81,56.39,239.33a130.4,130.4,0,0,0,53.92,22.48l2.27-15.52a92.23,92.23,0,0,1-41.67-21.48Zm118.26,4.34a92,92,0,0,1-56.54,19.34q-3.47,0-6.87-.24l-2.22,15.14c3,.2,6,.31,9.07.31a130.61,130.61,0,0,0,69.5-19.9l-12.94-14.65Zm44.8,6.22a145.18,145.18,0,0,1-22.63,18.24c6.82,22.11,3.81,41.61-.4,60.76,18.74-24.08,32.61-49.07,23-79Zm-202.68.07c-9.54,29.89,4.33,54.87,23.06,78.93-4.21-19.13-7.21-38.61-.41-60.7a145.17,145.17,0,0,1-22.65-18.23Zm169.06,24.68a143.72,143.72,0,0,1-23.63,10c5.17,22,4.16,41.41,1.73,59.14,15.34-19.78,24.34-42.56,21.9-69.12Zm-135.42,0c-2.43,26.55,6.57,49.33,21.9,69.1-2.43-17.73-3.44-37.14,1.73-59.12a142.86,142.86,0,0,1-23.63-10Zm99.43,13.34a143.37,143.37,0,0,1-22.48,3.2,303.48,303.48,0,0,1,3.76,62.57c8.74-21.21,15.79-42.91,18.72-65.77Zm-63.41,0c2.92,22.86,10,44.55,18.69,65.75a302.55,302.55,0,0,1,3.79-62.54,145.59,145.59,0,0,1-22.48-3.2Z"/><path class="cls-2" d="M121.46,347.59l-3.2-7.77C108,315,102.06,294,99.46,273.7l-.27-2.13,2.09.47a142.85,142.85,0,0,0,22.24,3.17l1.66.1L124.9,277a300.89,300.89,0,0,0-3.76,62.23Zm-18.74-72.17c2.4,17.25,7.29,35.11,15.2,55.5a298.47,298.47,0,0,1,3.75-52.83A145,145,0,0,1,102.72,275.42Zm41.1,72.17.32-8.4a300.74,300.74,0,0,0-3.74-62.26l-.28-1.64,1.66-.1A143.66,143.66,0,0,0,164,272l2.09-.47-.27,2.12C163.25,294,157.27,315,147,339.82Zm-.19-69.52a298.18,298.18,0,0,1,3.73,52.85c7.94-20.44,12.83-38.3,15.23-55.52A146.9,146.9,0,0,1,143.63,278.07Zm32.58,56.52L177,329c2.07-15.11,3.74-35.42-1.71-58.59l-.32-1.35,1.32-.43a141.87,141.87,0,0,0,23.39-9.87l2-1.07.21,2.25c2.26,24.65-5.22,48.26-22.21,70.18Zm2.28-63.49c4.56,20.3,3.82,38.35,2.17,52.65,13.83-19.5,19.85-39.61,18.38-61.25A145.41,145.41,0,0,1,178.49,271.1ZM89.07,334.59l-3.43-4.43c-17-21.92-24.46-45.52-22.21-70.16l.21-2.24,2,1.06A143.1,143.1,0,0,0,89,268.7l1.32.42L90,270.47c-5.45,23.17-3.77,43.47-1.71,58.57ZM66.24,262.52c-1.47,21.63,4.56,41.73,18.38,61.23-1.65-14.3-2.39-32.33,2.17-52.62A147.25,147.25,0,0,1,66.24,262.52Zm141.81,58,1.42-6.48c4-18.14,7.31-37.71.43-60l-.33-1.08,1-.62a144.94,144.94,0,0,0,22.4-18l1.74-1.72.74,2.33c10.06,31.42-5.24,57.2-23.28,80.37Zm5-66.29c5.87,19.87,4,37.52.69,53.91,15.22-20.55,27-43.24,19.46-70A148.13,148.13,0,0,1,213.1,254.24ZM57.23,320.53l-4.07-5.24c-18-23.15-33.32-48.91-23.3-80.31l.74-2.32,1.74,1.71a144.12,144.12,0,0,0,22.42,18l1,.61-.33,1.08c-6.87,22.3-3.55,41.84.43,59.94ZM32,238.24C24.55,265,36.29,287.62,51.5,308.15c-3.28-16.36-5.17-34,.69-53.84A147.23,147.23,0,0,1,32,238.24Zm100.59,27c-3,0-6.11-.11-9.18-.32l-1.61-.11,2.66-18.12,1.39.1c2.17.16,4.45.24,6.76.24a90,90,0,0,0,55.62-19l1.12-.86,15,17-1.5.94A132.38,132.38,0,0,1,132.61,265.2ZM125.26,262c2.46.14,4.93.21,7.35.21a129.39,129.39,0,0,0,67.2-18.74L189,231.19A93,93,0,0,1,132.63,250c-1.9,0-3.77-.05-5.59-.16Zm-13.69,1.56-1.52-.26a132.85,132.85,0,0,1-54.53-22.74l-1.44-1,16.77-16.77,1.06.95a91.1,91.1,0,0,0,41,21.13l1.36.3ZM58.71,239.13a128,128,0,0,0,50.34,20.94l1.84-12.63A94,94,0,0,1,71,226.87Zm154.19-.93-15.88-18,1-1a91,91,0,0,0,22.9-41l.35-1.37,33.9,6.58-.74,1.71A133,133,0,0,1,214,237.33Zm-11.8-17.88,12.18,13.78a130.27,130.27,0,0,0,37.62-48.44l-27.46-5.33A94.15,94.15,0,0,1,201.1,220.32ZM132.63,236.7a80.72,80.72,0,0,1,0-161.44h0a80.72,80.72,0,0,1,0,161.44Zm0-158.44A77.72,77.72,0,1,0,210.35,156a77.81,77.81,0,0,0-77.72-77.72ZM46,233.05l-1-.93A133,133,0,0,1,0,135.71l0-1.86,42.67,8.3-.2,1.4A92.6,92.6,0,0,0,41.62,156a91.05,91.05,0,0,0,21.19,58.31l.88,1.05ZM3.1,137.51a130,130,0,0,0,42.76,91.42l13.78-13.78a93.77,93.77,0,0,1-20.32-70.6ZM136.52,203a53.46,53.46,0,0,1-9.83-106l2.9-.54-1.28,2.66a24.23,24.23,0,0,0-2.4,10.58,24.48,24.48,0,0,0,48.35,5.43l.65-2.89,1.94,2.23A53.44,53.44,0,0,1,136.52,203Zm-12-102.46a50.48,50.48,0,1,0,51.9,18.08,27.48,27.48,0,0,1-53.47-8.92A27,27,0,0,1,124.48,100.57Zm9.44,81.72a18.39,18.39,0,1,1,18.37-18.4A18.42,18.42,0,0,1,133.92,182.29Zm0-33.77a15.39,15.39,0,1,0,15.37,15.37,15.41,15.41,0,0,0-15.37-15.37Zm124.83,25.13L223,166.71l.14-1.37a92.15,92.15,0,0,0,.49-9.36,90.8,90.8,0,0,0-23.3-60.72l-.95-1.06,40.12-40.12,1,1.44a133.13,133.13,0,0,1,18.6,116.85Zm-32.47-9.37,30.4,5.91A130.15,130.15,0,0,0,239.13,58.71L203.52,94.32A93.73,93.73,0,0,1,226.65,156C226.65,158.72,226.52,161.51,226.28,164.28ZM44.8,132.05.3,123.42l.1-1.33A131.69,131.69,0,0,1,29.64,49l1.11-1.37L69,90.94l-1,1a91.4,91.4,0,0,0-22.84,38.81ZM3.5,121l39.19,7.6A94.29,94.29,0,0,1,64.91,90.83l-34-38.53A128.69,128.69,0,0,0,3.5,121ZM192,87l-1.06-.88a91,91,0,0,0-38.71-19l-1.36-.3,9.35-63.93,1.58.36a131.5,131.5,0,0,1,70.34,41.67l.93,1.05ZM154.24,64.49A94.32,94.32,0,0,1,191.81,83L229,45.84A128.44,128.44,0,0,0,162.72,6.53ZM76.75,84.18,37.68,40l1-1A131.72,131.72,0,0,1,132.61,0h0a135.84,135.84,0,0,1,15.9.94l1.53.19-9.41,64.18-1.39-.1c-2.2-.16-4.43-.25-6.63-.25A90.13,90.13,0,0,0,77.86,83.34ZM41.8,40.08l35.37,40A93.12,93.12,0,0,1,132.63,62c1.81,0,3.64.06,5.45.16l8.56-58.37a131.32,131.32,0,0,0-14-.75h0A128.76,128.76,0,0,0,41.8,40.08Z"/></g></g></svg>