<svg xmlns="http://www.w3.org/2000/svg" viewBox="0 0 407.2 273.2"><defs><style>.cls-1{fill:#485542;}.cls-2{fill:#fff;}</style></defs><title>Aboleth_1</title><g id="Layer_2" data-name="Layer 2"><g id="Layer_1-2" data-name="Layer 1"><path class="cls-1" d="M366.13,83.67a229.06,229.06,0,0,0-88.08-53.1c.35.88.7,1.72,1,2.56.28.66.52,1.36.77,2.06.1.42.24.8.38,1.22.21.63.39,1.26.6,1.89.1.42.24.84.35,1.3.17.7.38,1.4.52,2.1s.32,1.36.46,2c.17.84.35,1.67.45,2.48.11.49.18,1,.25,1.47.14,1.08.27,2.13.38,3.15.11.8.17,1.57.21,2.34,0,.21,0,.42,0,.63,0,.52.07,1,.07,1.47a55.52,55.52,0,0,1-1,14.38L232.44,48.8A28.45,28.45,0,0,0,240.62,44a20.18,20.18,0,0,0,1.58-1.47,9.37,9.37,0,0,0,1.12-1.26,2.85,2.85,0,0,0,.42-.49A15.33,15.33,0,0,0,245,39.07a1.7,1.7,0,0,0,.1-.14c.28-.42.53-.84.77-1.26s.63-1.15.91-1.75c0,0,0-.1.07-.13.24-.56.49-1.12.7-1.68s.31-.88.45-1.33a18.53,18.53,0,0,0,.53-1.86c.14-.56.24-1.15.35-1.71.07-.28.1-.56.14-.81a17.58,17.58,0,0,0,.24-1.88c.07-.6.14-1.19.18-1.79s0-.94,0-1.4c-2.17-.38-4.37-.77-6.61-1.12a201.2,201.2,0,0,0-41.28-2c.74.8,1.44,1.57,2.07,2.38s1.15,1.4,1.68,2.13,1,1.4,1.5,2.1.95,1.47,1.37,2.17.66,1.12,1,1.68.66,1.22,1,1.85.59,1.19.87,1.79A44.21,44.21,0,0,1,213.27,40c.1.28.21.56.28.84a36.7,36.7,0,0,1,1.4,5.84l-41.66-1.4A20.4,20.4,0,0,0,175,43.52a13.6,13.6,0,0,0,1.44-1.79,18.45,18.45,0,0,0,2.59-4.79,7.11,7.11,0,0,0,.45-1.4,9.7,9.7,0,0,0,.32-1.29,9.68,9.68,0,0,0,.24-1.75,17.11,17.11,0,0,0,.11-1.89,20.19,20.19,0,0,0-.11-2,8,8,0,0,0-.1-.84c0-.28-.11-.56-.14-.84a1.73,1.73,0,0,0-.11-.56c-.1-.56-.24-1.15-.38-1.71s-.35-1.33-.56-2h0A220.67,220.67,0,0,0,144.88,31,48.54,48.54,0,0,1,148.69,35a15.15,15.15,0,0,1,1.05,1.32,43.82,43.82,0,0,1,4.38,6.86q.36.73.63,1.26c.35.84.52,1.29.52,1.29L120.92,52.3a16.18,16.18,0,0,0,3.18-11.58,8.63,8.63,0,0,0-.28-1.65c-3.46,1.51-6.89,3.12-10.25,4.83q-7.29,3.68-14.69,7.77a36,36,0,0,1,7.24,6.75,3,3,0,0,0,.35.45l.11.18L80.1,71.64a13.93,13.93,0,0,0,.49-9.06C48.65,83.08,19.4,110.22,6.92,145.66,1.49,161.05-1.72,177.77,1,194.07c3.64,22.15,19.69,41.28,40.47,49.5,29.88,11.79,62.51,13.22,93.82,7.1a2.86,2.86,0,0,0,1.61-.73,2.71,2.71,0,0,0,.32-2c-.95-7.84-2.14-16.16,1.67-23.47,3.43-6.58,10.29-10.81,17.35-13.09,12.6-4,26.24-2.93,39.29-.84-8.57-8.39-18.23-17.28-30.19-18-10.88-.63-20.92,5.74-28.89,13.19-6.09,5.66-12.6,10.88-18.75,16.44-8.85,8-14.94,15.81-28.3,13.33-16.86-3.12-30.05-15.19-28.62-33C61.91,188.41,70,174,80.87,165.11c17.21-14.1,41-10.5,60.34-3.5a186.32,186.32,0,0,1,31.87,15.46c4.86,2.87,9.58,6,14.23,9.13,2.24,1.54,11.13,6.05,11.83,8.61a104.8,104.8,0,0,0,14.51,31.76,99.4,99.4,0,0,0,11.41,14.1,105.48,105.48,0,0,0,76.33,32.53,108.81,108.81,0,0,0,14.3-.94,2.53,2.53,0,0,0,1.19-4.52c-13-10.11-21.3-25.43-21.3-42.57,0-30.43,26.16-55.13,58.49-55.13a60,60,0,0,1,44.84,19.73,3.63,3.63,0,0,0,6.26-1.75,105.86,105.86,0,0,0-39-104.35ZM278.3,92c-1.82-6.33,9.34-15,24.87-19.42s29.56-2.83,31.38,3.5-10.22-2.69-26.1,15.18C287.39,87.66,280.08,98.37,278.3,92ZM309,113.37c-1.4-5.73,8.85-13.15,22.87-16.61s26.59-1.58,28,4.12-9.06-2.72-23.82,12.77C317.27,109.77,310.38,119.11,309,113.37Zm43.27,22.57c-15.74-6-23,1.15-23.41-4s9.48-10.22,22.15-11.23,23.26,2.31,23.68,7.45S367.22,124.53,352.25,135.94Z"/><path class="cls-2" d="M366.13,83.67a229.14,229.14,0,0,0-88.08-53.1c.35.88.7,1.72,1,2.56.28.66.53,1.36.77,2.06.11.42.25.81.39,1.22.21.63.38,1.26.59,1.89.11.42.25.84.35,1.3.18.7.39,1.4.53,2.1s.31,1.36.45,2c.18.84.35,1.67.46,2.48.1.49.17,1,.24,1.47.14,1.08.28,2.13.39,3.15.1.8.17,1.57.21,2.34,0,.21,0,.42,0,.63,0,.52.07,1,.07,1.47a55.52,55.52,0,0,1-1,14.38L232.43,48.8A28.64,28.64,0,0,0,240.62,44a20,20,0,0,0,1.57-1.47,8.73,8.73,0,0,0,1.12-1.26,2.47,2.47,0,0,0,.42-.49A13.15,13.15,0,0,0,245,39.07s.07-.1.11-.14c.28-.42.52-.84.77-1.26s.63-1.15.91-1.74c0,0,0-.11.07-.14.24-.56.49-1.12.69-1.68s.32-.88.46-1.33a18.45,18.45,0,0,0,.52-1.86c.14-.56.25-1.15.35-1.71a6.56,6.56,0,0,0,.14-.81,17.63,17.63,0,0,0,.25-1.88c.07-.6.14-1.19.17-1.79s0-.94,0-1.4c-2.17-.38-4.37-.77-6.61-1.12a200.19,200.19,0,0,0-30.29-2.29q-5.5,0-11,.3c.73.8,1.43,1.57,2.06,2.38s1.16,1.4,1.68,2.13,1.05,1.4,1.51,2.1.94,1.47,1.36,2.17.67,1.12,1,1.68.67,1.22,1,1.85.6,1.19.87,1.79A42.78,42.78,0,0,1,213.26,40a6.89,6.89,0,0,1,.28.84,36.7,36.7,0,0,1,1.4,5.84l-41.66-1.4A20.55,20.55,0,0,0,175,43.52a14.39,14.39,0,0,0,1.43-1.79,18.16,18.16,0,0,0,2.59-4.79,7.64,7.64,0,0,0,.46-1.4,9.62,9.62,0,0,0,.31-1.29,10.69,10.69,0,0,0,.25-1.75,17.09,17.09,0,0,0,.1-1.89,20.13,20.13,0,0,0-.1-2,6,6,0,0,0-.11-.84c0-.28-.1-.56-.14-.84a1.75,1.75,0,0,0-.1-.56c-.11-.56-.25-1.15-.39-1.71s-.35-1.33-.56-2h0A220.39,220.39,0,0,0,144.88,31,50.27,50.27,0,0,1,148.69,35c.38.45.73.87,1.05,1.32a42.89,42.89,0,0,1,4.37,6.86q.38.73.63,1.26c.35.84.53,1.29.53,1.29L120.91,52.3a16.2,16.2,0,0,0,3.19-11.58,9.49,9.49,0,0,0-.28-1.65q-5.2,2.26-10.25,4.83-7.29,3.68-14.69,7.77a36.34,36.34,0,0,1,7.24,6.75,2.43,2.43,0,0,0,.35.45,1.41,1.41,0,0,1,.1.18L80.09,71.64a13.87,13.87,0,0,0,.49-9.06C48.64,83.08,19.4,110.22,6.91,145.66,1.49,161.05-1.73,177.77,1,194.07c3.63,22.15,19.69,41.28,40.47,49.5a157.2,157.2,0,0,0,57.91,10.65,187.24,187.24,0,0,0,35.91-3.55,2.92,2.92,0,0,0,1.61-.73,2.7,2.7,0,0,0,.31-2c-.94-7.84-2.13-16.16,1.68-23.47,3.43-6.58,10.28-10.81,17.35-13.09a61.79,61.79,0,0,1,19-2.73,128.63,128.63,0,0,1,20.26,1.89c-8.57-8.39-18.22-17.28-30.19-18-.49,0-1,0-1.49,0-10.3,0-19.79,6.12-27.4,13.23-6.09,5.66-12.59,10.88-18.75,16.44-7.7,7-13.32,13.8-23.46,13.8a26.62,26.62,0,0,1-4.84-.47c-16.86-3.12-30-15.19-28.61-33C61.9,188.41,70,174,80.86,165.11c8.58-7,18.81-9.66,29.29-9.66s21.36,2.65,31,6.16a185.6,185.6,0,0,1,31.87,15.46c4.86,2.87,9.59,6,14.24,9.13,2.24,1.54,11.12,6.05,11.82,8.61a104.82,104.82,0,0,0,14.52,31.76,100,100,0,0,0,11.4,14.1,105.5,105.5,0,0,0,76.33,32.53,107.27,107.27,0,0,0,14.31-.94,2.53,2.53,0,0,0,1.19-4.52c-13-10.11-21.31-25.43-21.31-42.57,0-30.43,26.17-55.13,58.49-55.13a60,60,0,0,1,44.85,19.73,3.45,3.45,0,0,0,2.64,1.21,3.69,3.69,0,0,0,3.62-3,105.86,105.86,0,0,0-39-104.35Zm35.61,103.66a.16.16,0,0,1-.15.13l-.07,0a63.52,63.52,0,0,0-47.46-20.9c-34.18,0-62,26.3-62,58.63A57.12,57.12,0,0,0,313,269.07a105.56,105.56,0,0,1-11.57.63,101.41,101.41,0,0,1-73.81-31.47,97,97,0,0,1-11-13.62,101,101,0,0,1-14-30.73c-.78-2.82-4-5.09-10.8-9.1-1-.61-1.92-1.11-2.43-1.46-5.28-3.62-10-6.65-14.42-9.25a188.37,188.37,0,0,0-32.47-15.75c-11.68-4.22-22.53-6.37-32.24-6.37-12.44,0-23,3.52-31.5,10.45-11.8,9.63-20.2,25.25-21.39,39.79-1.47,18.21,11.18,33,31.46,36.7a29.43,29.43,0,0,0,5.48.53c10.14,0,16.28-5.77,22.79-11.89,1-.92,2-1.87,3-2.81,2.69-2.43,5.52-4.86,8.26-7.2,3.48-3,7.09-6.07,10.53-9.28,8.73-8.15,17.14-12.29,25-12.29.43,0,.86,0,1.28,0,7.28.45,13.74,4.37,20,9.63-3.52-.33-6.75-.49-9.82-.49A64.69,64.69,0,0,0,155.14,208c-9,2.91-15.93,8.17-19.38,14.8-4.17,8-3.11,16.82-2.16,24.61a183.68,183.68,0,0,1-34.25,3.3,153.77,153.77,0,0,1-56.63-10.41C22.83,232.45,7.8,214.07,4.42,193.5c-2.29-13.84-.4-29.11,5.79-46.68,10.06-28.53,32.61-54.71,67.06-77.88a13.3,13.3,0,0,1-.46,1.49l-3,8,7.74-3.68,26.48-12.59,3.11-1.58-1.48-3.15a4.37,4.37,0,0,0-.32-.55l-.19-.29-.18-.18-.06-.1-.09-.12a37.34,37.34,0,0,0-3.74-4c3.36-1.81,6.72-3.56,10-5.23,1.76-.9,3.57-1.79,5.42-2.65a14.19,14.19,0,0,1-2.53,5.92l-4.92,7.05,8.44-1.61,34.35-6.54,4.11-.78-1.5-3.91s-.19-.49-.56-1.38l-.05-.12,0-.11-.64-1.28a46.23,46.23,0,0,0-4.68-7.34,17.86,17.86,0,0,0-1.19-1.51l-.12-.14a218.64,218.64,0,0,1,25-6c0,.12,0,.23.07.34l0,.24,0,.07v0c0,.21.06.42.1.63l0,.21.08.41v.17l0,.18c0,.58.08,1.13.08,1.68a12.56,12.56,0,0,1-.08,1.5v.18a6.41,6.41,0,0,1-.15,1.16l0,.11,0,.11a4.69,4.69,0,0,1-.21.84l0,.12,0,.12a4,4,0,0,1-.22.72l-.08.16-.05.16a15.35,15.35,0,0,1-2.2,4,10.68,10.68,0,0,1-1.14,1.41A16.53,16.53,0,0,1,171,42.65l-6.55,5.82,8.75.29,41.67,1.4,4.08.14-.5-4.06a38.72,38.72,0,0,0-1.5-6.38,9.22,9.22,0,0,0-.34-1,46.37,46.37,0,0,0-2.38-6c-.3-.65-.61-1.29-.91-1.86s-.68-1.32-1.07-2-.68-1.21-1-1.75c-.45-.75-.93-1.53-1.43-2.28-.32-.49-.67-1-1-1.46,1.28,0,2.56,0,3.83,0a197.38,197.38,0,0,1,29.75,2.25q1.74.27,3.45.57v.08a13,13,0,0,1-.21,1.51l0,.13V28c0,.11,0,.23-.06.35l0,.1,0,.1-.05.23c-.08.43-.16.87-.28,1.37a15.7,15.7,0,0,1-.45,1.59c-.12.38-.24.72-.39,1.13s-.25.64-.39,1l-.13.13-.19.56c-.23.49-.48,1-.72,1.38s-.35.6-.54.91l0,0-.21.31a12.43,12.43,0,0,1-1.05,1.4l-.09.11-.13.11-.27.35a5.87,5.87,0,0,1-.79.89,16,16,0,0,1-1.38,1.28,25,25,0,0,1-7.19,4.23l-8,3.17,8,3.32,50.09,20.85,3.76,1.56,1-4A58.35,58.35,0,0,0,287,55.27c0-.49,0-1-.07-1.62l0-.46V53c0-.86-.12-1.73-.23-2.54s-.21-1.85-.34-2.82l-.06-.47c-.07-.52-.15-1-.25-1.56-.12-.85-.3-1.73-.49-2.61-.14-.71-.29-1.42-.44-2s-.25-1.08-.4-1.62l-.15-.58c-.07-.32-.16-.62-.24-.92l-.12-.44,0-.13,0-.12c-.1-.29-.18-.58-.27-.86l0-.09A225.93,225.93,0,0,1,363.7,86.19l.14.13.15.12a101.56,101.56,0,0,1,39.71,80.91A102.62,102.62,0,0,1,401.74,187.33Z"/><path class="cls-2" d="M337.9,75.12c-1.55-5.42-8.16-8.53-18.14-8.53a65.68,65.68,0,0,0-17.55,2.63c-12.56,3.56-22.58,9.77-26.15,16.19a9.7,9.7,0,0,0-1.14,7.53c1.17,4.17,4.38,4.63,5.71,4.63a18.57,18.57,0,0,0,5.27-1.16A43.11,43.11,0,0,1,299.83,94a48,48,0,0,1,8,.71l1.91.33,1.29-1.45c8.82-9.93,16-10.68,20.28-11.13,2.4-.25,4.67-.48,6.05-2.53A5.53,5.53,0,0,0,337.9,75.12Zm-23,10.06a7.74,7.74,0,1,0-14.09,5.33h-1c-10.44,0-16.21,3.57-19.2,3.57-1.17,0-1.91-.55-2.34-2.07-1.82-6.33,9.34-15,24.87-19.42a62.15,62.15,0,0,1,16.6-2.5c7.9,0,13.66,2.1,14.78,6C336.08,81.52,327.45,75.63,314.92,85.18Z"/><path class="cls-2" d="M378.15,127.88c-.54-6.59-9.4-10.85-22.58-10.85-1.6,0-3.24.07-4.87.2a47.9,47.9,0,0,0-17.28,4.42c-7.46,3.79-8.25,8.26-8.07,10.58.27,3.27,2.46,5.21,5.85,5.21a27.1,27.1,0,0,0,2.9-.22,42.37,42.37,0,0,1,5-.34A33,33,0,0,1,351,139.21l1.82.69,1.54-1.18c4.88-3.71,9.47-5.52,14-5.52a27.44,27.44,0,0,1,2.76.16c.74.07,1.37.12,1.9.12A5.12,5.12,0,0,0,377,132,5.18,5.18,0,0,0,378.15,127.88Zm-5.09,2.1c-1.05,0-2.61-.28-4.66-.28a22.79,22.79,0,0,0-10.55,2.67,5.07,5.07,0,0,0,0-.68,6,6,0,0,0-11.91,0,5.76,5.76,0,0,0,.57,2.53,34.41,34.41,0,0,0-7.47-.84c-3.6,0-6.2.57-7.88.57-1.46,0-2.23-.43-2.36-2-.42-5.18,9.48-10.22,22.14-11.23,1.57-.13,3.1-.19,4.59-.19,10.54,0,18.73,3.13,19.1,7.64C374.78,129.63,374.24,130,373.06,130Z"/><path class="cls-2" d="M363.23,100.05c-1.33-5.41-7.87-8.51-17.94-8.51A61.63,61.63,0,0,0,331,93.36c-14.3,3.53-27.64,11.83-25.44,20.84a5.49,5.49,0,0,0,5.55,4.59,17.81,17.81,0,0,0,4.62-.89,39.29,39.29,0,0,1,11.15-1.73,41.57,41.57,0,0,1,8.41.91l1.9.39,1.34-1.4c8.1-8.5,14.45-8.94,18.24-9.2,2.15-.15,4.37-.31,5.78-2.23A5.32,5.32,0,0,0,363.23,100.05Zm-21.93,8.86a7.06,7.06,0,1,0-13.2,3.79l-1.21,0c-8.33,0-13.2,2.61-15.77,2.61-1.12,0-1.8-.49-2.15-1.92-1.4-5.73,8.85-13.15,22.88-16.61A57.38,57.38,0,0,1,345.29,95c7.85,0,13.62,2.08,14.54,5.84C361.06,105.91,353.19,100,341.3,108.91Z"/><path class="cls-1" d="M276.3,61.22,244.09,48.41a27.14,27.14,0,0,0,10.32-13.36,35.49,35.49,0,0,0,2-11c.31-8.68-2-17.42-4.3-24,9.57,6.92,15.66,17.41,19.56,28.37C272.62,31.08,277.6,61.73,276.3,61.22Z"/><path class="cls-1" d="M184,38.51a21.57,21.57,0,0,0,3.15-11.68,28.35,28.35,0,0,0-1.4-8.22,49.62,49.62,0,0,0-8.25-14.8c8.14,2.52,13.75,9.66,18.56,16.26,1.43,2,10.77,19.45,11,19.46Z"/><path class="cls-1" d="M128.2,45.14a15.14,15.14,0,0,0,.11-7.74c0-.09-.05-.2-.08-.29-1.33-5.25-5.17-9.64-8.83-12.85a36.46,36.46,0,0,1,20.23,8.45A33.34,33.34,0,0,1,147,41.57Z"/><path class="cls-1" d="M96.28,57.53l-11.1,5.29a10.4,10.4,0,0,0-.69-3.39A9.09,9.09,0,0,0,83.85,58a18.19,18.19,0,0,0-7.48-7,25.58,25.58,0,0,1,3-.16A24.09,24.09,0,0,1,92.59,54.6,23.24,23.24,0,0,1,96.28,57.53Z"/><polygon class="cls-1" points="319.23 263.81 333.08 249.07 310.82 255.33 319.23 263.81"/><polygon class="cls-1" points="309.1 247.91 326.75 238.05 303.64 237.28 309.1 247.91"/><polygon class="cls-1" points="304.38 230.17 324.13 225.84 302.24 218.42 304.38 230.17"/><polygon class="cls-1" points="307.47 209.7 326.96 215.06 311.05 198.3 307.47 209.7"/><polygon class="cls-1" points="318 192.56 333.56 205.47 325.95 183.64 318 192.56"/><polygon class="cls-1" points="336.96 180.8 346.03 198.87 347.82 175.82 336.96 180.8"/><polygon class="cls-1" points="359.11 177.3 359.02 197.52 371.05 177.78 359.11 177.3"/><polygon class="cls-1" points="382.19 184.33 372.34 201.98 392.41 190.52 382.19 184.33"/></g></g></svg>