<svg xmlns="http://www.w3.org/2000/svg" viewBox="0 0 279.59 316.67"><title>Animated-Armor</title><g id="f643a25a-ad22-4f89-aa8b-2fa38b42abbe" data-name="Layer 2"><g id="fd5982c5-04ea-4903-9c4d-9cd342421159" data-name="Layer 1"><path d="M144,1.58A94.29,94.29,0,0,0,95.61,38.74c11.74,32.05,11.74,38.32,0,70.37,13.33,10.34,27,16.57,40.68,18.38-1.38-17.11-2.43-34.21.75-51.32-9.12-1-15.64-4-24.76-9.28V45.33c24,12.78,41.38,12.56,66.12,0V66.89c-8.94,4.35-14.64,7.47-23.59,8.84,2.42,17.11,2.33,34.23.93,51.34,12.47-2.18,24.91-8.1,37.13-18-9.6-32-9.6-38.32,0-70.37C181.51,20,161.12,7.54,144,1.58ZM57.33,7.08C40,81,39,151.17,39,228.52A164.2,164.2,0,0,1,1.5,221.08v19.11H47.72c5.83,23.43,4.33,46.87-.7,70.31H65.85c-4.82-23.44-5.52-46.88-.59-70.31h46.11V221.08a238.7,238.7,0,0,1-37.54,7c.06-76.91,1.67-149.27-16.5-221ZM117.2,142.5c0,78.47,17.07,156.15,80.4,172.63,69.71-14.08,80.49-93.94,80.49-172.63H117.2Z" style="fill:#efefef;fill-rule:evenodd"/><path d="M197.56,316.67l-.34-.09c-29.58-7.7-51.43-29.22-65-64-11-28.21-16.55-65.26-16.55-110.11V141H279.59v1.5c0,30.82-1.47,75.86-14.19,111.05-13,35.87-35,56.49-67.5,63.05ZM118.7,144c.12,43.81,5.62,80,16.35,107.52,13.11,33.67,34.17,54.55,62.59,62.07,31.16-6.41,52.4-26.38,64.94-61.06,12.35-34.18,14-78,14-108.53Zm-51,168H45.17l.39-1.81c5.59-26.08,5.9-47.89,1-68.5H0V219l2,.64a162.58,162.58,0,0,0,35.53,7.24C37.55,146.17,39,78.55,55.87,6.74l1.4-6,1.51,6c16.89,66.64,16.74,133.6,16.58,204.48q0,7.59,0,15.22A239,239,0,0,0,111,219.63l1.89-.5v22.56H66.48c-4.42,21.85-4.14,44.28.84,68.51Zm-18.82-3H64c-4.79-24.39-4.86-47-.22-69.12l.26-1.19h45.82V223A241.07,241.07,0,0,1,74,229.57l-1.65.17v-1.66q0-8.49,0-16.89c.15-68.52.3-133.35-15-197.61C41.82,83.3,40.52,149.6,40.49,228.52v1.63L38.87,230A166.92,166.92,0,0,1,3,223.13v15.56H48.89l.28,1.14C54.38,260.75,54.29,282.78,48.87,309Zm89.06-179.78-1.84-.24c-13.86-1.84-27.79-8.12-41.4-18.69l-.86-.67.38-1c11.63-31.75,11.63-37.58,0-69.33l-.27-.72.43-.63C106.16,20.23,124.1,6.47,143.58.16l.48-.16.48.17c21.2,7.39,39.75,21.52,49.62,37.79l.34.57-.19.64c-9.54,31.83-9.54,37.68,0,69.51l.29,1-.78.64c-12.25,9.87-25,16-37.83,18.27l-1.91.33.16-1.93c1.56-19,1.26-35.64-.91-51l-.21-1.46,1.47-.23c7.84-1.21,13.2-3.83,20.62-7.47L176.9,66V47.75c-23.57,11.48-40.59,11.5-63.12,0V66c8.73,5,14.87,7.73,23.42,8.66l1.61.18-.3,1.59c-3.11,16.76-2.12,33.65-.73,50.92ZM97.4,108.59c12.3,9.37,24.81,15.13,37.24,17.14-1.28-16.29-2.09-32.27.65-48.26-8.49-1.19-15-4.23-23.76-9.28l-.75-.44V42.83L113,44c23.32,12.42,40.26,12.42,64.73,0l2.18-1.11V67.83l-3.37,1.64c-7.2,3.53-12.52,6.14-20,7.5a231.45,231.45,0,0,1,.89,48.26c11.42-2.36,22.77-8,33.76-16.66-9.33-31.25-9.29-38.21.09-69.61C181.72,23.62,164.15,10.29,144,3.17c-18.44,6.1-35.41,19.09-46.74,35.77C108.75,70.35,108.79,77.35,97.4,108.59Z" style="fill:#fff"/></g></g></svg>