<svg xmlns="http://www.w3.org/2000/svg" viewBox="0 0 238.61 374.81"><title>Ankheg</title><g id="b172847b-ada7-4adb-ae45-93a5b827b970" data-name="Layer 2"><g id="b691dd81-6e5f-4293-8069-1497f23e2df1" data-name="Layer 1"><path d="M229.75,270.72c-20.8-6.33-47.31-48.43-61.62-73.68a213.44,213.44,0,0,0,16.71-16.55C204.19,158.33,225,87.91,226.9,81.36,221.8,97,181.09,117.21,166.66,120c-15.45,2.92-20.39-37.56-21.35-46.81-1.44-13.65-3.93-25.81-9.55-38.46-2.93-6.61-6.32-13-9.79-19.35C124.05,11.81,117.39,3.6,117.38,0c0,3.61-6.53,11.17-8.4,14.7-3.4,6.37-6.7,12.82-9.55,19.47C94,46.88,91.62,59.08,90.37,72.74c-.85,9.26-5.28,49.8-20.77,47.07C55.13,117.26,14.19,97.52,8.89,82c2,6.52,23.67,76.67,43.3,98.58a211.21,211.21,0,0,0,16.92,16.34c-14,25.43-40,67.86-60.69,74.45,0,0-29.34,58.59,28.69,101.09,0,0-3.84-18.43-7.46-38.43-7.91-44,25.92-33.19,25.92-33.19C54.28,267.12,74.09,234.13,89,214.27c13,11.55,25.63,24.23,30,34.65,4.22-10.47,16.62-22.58,29.49-34.28,15.15,19.67,35.37,52.4,34.51,86.14,0,0,33.7-11.21,26.33,32.87-3.36,20-7,38.52-7,38.52C259.82,328.93,229.75,270.72,229.75,270.72Zm-131-79.62c-10.44,7-16.71-2.91-20.1-12.28A77.14,77.14,0,0,1,75.3,166s13.13,3.47,16.43,16a15,15,0,0,0,3.06,6.41l2,1.36h0a5.32,5.32,0,0,0,4.73-.93A25.23,25.23,0,0,1,98.72,191.1Zm13-9.48a4.51,4.51,0,1,1,4.51-4.51A4.51,4.51,0,0,1,111.73,181.62Zm14.66,0a4.51,4.51,0,1,1,4.5-4.51A4.5,4.5,0,0,1,126.39,181.62Zm32-2.56c-3.26,9.41-9.41,19.45-19.94,12.54a25.59,25.59,0,0,1-2.94-2.28,5.35,5.35,0,0,0,4.84.94h0l2-1.39a14.78,14.78,0,0,0,3-6.45c3.15-12.57,16.24-16.21,16.24-16.21A77.83,77.83,0,0,1,158.38,179.06Z" style="fill:#be6b35"/><path d="M38.62,374.81l-2.1-1.54C6.2,351.07-.07,324.42,0,306a87.45,87.45,0,0,1,7.52-35.06l.19-.37.4-.13c20.26-6.44,46-48.35,59.74-73.28a209.64,209.64,0,0,1-16.41-15.89C31.13,158.58,8.87,85.4,7.93,82.29l1.9-.61C15.11,97.12,56,116.4,69.77,118.83a7.23,7.23,0,0,0,5.87-1.54c9.62-7.35,12.94-36,13.73-44.64,1.44-15.68,4.17-27.3,9.14-38.87,3-7.1,6.55-13.86,9.59-19.55a51.15,51.15,0,0,1,3-4.59c2.22-3.18,5.27-7.53,5.27-9.64h2c0,2.19,3.26,7,5.65,10.49,1.18,1.74,2.2,3.24,2.82,4.36,3.3,6,6.77,12.55,9.82,19.43,5.09,11.46,8,23,9.63,38.76.89,8.6,4.56,37.21,14.28,44.46a7.22,7.22,0,0,0,5.89,1.47c13.75-2.61,54.41-22.43,59.48-37.92l1.91.59c-2.28,7.83-22.77,77.18-42.27,99.51a213.33,213.33,0,0,1-16.2,16.09C183.47,222,209.68,263.57,230,269.77l.4.12.2.37a87.63,87.63,0,0,1,8,35c.3,18.44-5.64,45.16-35.67,67.75l-2.08,1.57.5-2.56c0-.18,3.64-18.7,7-38.49,2.41-14.4.66-24.23-5.19-29.24-7.59-6.49-19.72-2.56-19.84-2.52l-1.35.45,0-1.42c.82-32.33-17.68-63.72-33.64-84.65-12.47,11.38-24.41,23.22-28.43,33.18l-.91,2.26-.94-2.25c-3.5-8.41-12.7-19.09-28.9-33.56-15.71,21.12-33.82,52.74-32.58,85.06l0,1.43-1.36-.43c-.12,0-12.32-3.81-19.8,2.77-5.79,5.08-7.41,14.94-4.83,29.29,3.58,19.75,7.42,38.21,7.46,38.4ZM9.14,272.19A86,86,0,0,0,2,306.07c-.05,17.52,5.8,42.66,33.6,64-1.19-5.78-4.14-20.43-6.94-35.87-2.71-15.09-.87-25.57,5.49-31.15,6.87-6,16.79-4.4,20.38-3.53-.73-32.88,17.84-64.78,33.67-85.86l.65-.87.81.72c15.67,13.91,25.06,24.47,29.3,33,5.16-10.56,17.51-22.31,28.82-32.59l.81-.73.66.86c16.09,20.89,35.05,52.55,34.74,85.42,3.58-.9,13.48-2.66,20.43,3.28,6.42,5.5,8.39,15.95,5.86,31.09-2.59,15.47-5.36,30.16-6.47,35.95,27.55-21.73,33.08-47,32.79-64.52a86.13,86.13,0,0,0-7.56-33.7c-21.15-6.89-47.75-49.26-61.78-74l-.4-.7.59-.54a216.3,216.3,0,0,0,16.63-16.47c16.09-18.42,33.44-71.31,39.58-91.18-12.23,14.53-44.72,30-56.82,32.28a9.15,9.15,0,0,1-7.45-1.83c-10.09-7.52-13.91-34.57-15.08-45.85-1.63-15.49-4.46-26.9-9.47-38.16-3-6.81-6.47-13.29-9.75-19.28-.56-1-1.61-2.57-2.72-4.2a64.77,64.77,0,0,1-5-8.14,58.5,58.5,0,0,1-4.62,7.31,51.42,51.42,0,0,0-2.89,4.39c-3,5.65-6.5,12.37-9.51,19.4-4.89,11.36-7.57,22.81-9,38.26-1,11.31-4.52,38.42-14.51,46.05a9.2,9.2,0,0,1-7.43,1.92C57.3,118.66,24.6,103.61,12.2,89.23c6.34,19.74,24.26,72.3,40.73,90.69a213.73,213.73,0,0,0,16.84,16.25l.6.54-.39.7C56.26,222.34,30.18,265.05,9.14,272.19Zm135.93-77.3a13.22,13.22,0,0,1-7.18-2.45,26.58,26.58,0,0,1-3.06-2.37l1.26-1.55a4.42,4.42,0,0,0,3.73.86l.13-.12H140l1.64-1.15a14.34,14.34,0,0,0,2.67-5.94c3.25-13,16.38-16.78,16.94-16.93l1.47-.41-.21,1.51a78.26,78.26,0,0,1-3.22,13h0c-2.91,8.41-6.69,13.46-11.24,15A9.31,9.31,0,0,1,145.07,194.89Zm-5-3.49c2.68,1.5,5.17,1.87,7.42,1.1,4.89-1.67,8.13-8.4,10-13.76h0a79,79,0,0,0,2.85-11c-3.45,1.39-11.67,5.61-14,14.94a16,16,0,0,1-3.21,6.88l-.16.14-2.24,1.57h-.13Zm-48,3.08a9.2,9.2,0,0,1-2.89-.46c-4.56-1.49-8.4-6.49-11.43-14.86a76.88,76.88,0,0,1-3.37-13l-.23-1.5,1.47.39c.56.14,13.73,3.76,17.14,16.71a14.42,14.42,0,0,0,2.76,5.9l1.64,1.12h.11l.14.13a4.44,4.44,0,0,0,3.61-.86l1.26,1.55a26,26,0,0,1-2.93,2.33h0A13.09,13.09,0,0,1,92,194.48Zm-15.42-27a76.68,76.68,0,0,0,3,11c2.77,7.65,6.28,12.37,10.17,13.64,2.26.73,4.74.33,7.39-1.2a4.84,4.84,0,0,1-.51-.14h-.13l-2.42-1.67a16.09,16.09,0,0,1-3.3-6.84C88.31,173,80,168.84,76.58,167.51Zm49.81,15.11a5.51,5.51,0,1,1,5.5-5.51A5.51,5.51,0,0,1,126.39,182.62Zm0-9a3.51,3.51,0,1,0,3.5,3.51A3.51,3.51,0,0,0,126.39,173.6Zm-14.66,9a5.51,5.51,0,1,1,5.51-5.51A5.51,5.51,0,0,1,111.73,182.62Zm0-9a3.51,3.51,0,1,0,3.51,3.51A3.51,3.51,0,0,0,111.73,173.6Z" style="fill:#fff"/><path d="M98.72,191.11c-10.45,7-16.72-2.91-20.1-12.29A77.79,77.79,0,0,1,75.29,166s13.14,3.47,16.44,16a15,15,0,0,0,3.06,6.42l2,1.35h0a5.34,5.34,0,0,0,4.82-1A27,27,0,0,1,98.72,191.11Z" style="fill:none;stroke:#fff;stroke-miterlimit:10;stroke-width:2px"/><path d="M111.72,181.62a4.51,4.51,0,1,1,4.52-4.5A4.51,4.51,0,0,1,111.72,181.62Z" style="fill:none;stroke:#fff;stroke-miterlimit:10;stroke-width:2px"/><path d="M126.38,181.62a4.51,4.51,0,1,1,4.51-4.5A4.5,4.5,0,0,1,126.38,181.62Z" style="fill:none;stroke:#fff;stroke-miterlimit:10;stroke-width:2px"/><path d="M158.38,179.06c-3.26,9.42-9.41,19.45-19.94,12.54a26.48,26.48,0,0,1-3-2.33,5.45,5.45,0,0,0,4.91,1s0,0,0,0l2-1.38a14.88,14.88,0,0,0,3-6.46c3.15-12.56,16.24-16.2,16.24-16.2A77.59,77.59,0,0,1,158.38,179.06Z" style="fill:none;stroke:#fff;stroke-miterlimit:10;stroke-width:2px"/></g></g></svg>