<svg xmlns="http://www.w3.org/2000/svg" viewBox="0 0 318.27 395.64"><title>Azer</title><g id="b4023b29-5c37-490f-9fb4-0984d6143826" data-name="Layer 2"><g id="aad560df-73fa-4581-b5aa-8e985d6994eb" data-name="Layer 1"><path d="M137.14,299c-7.4,0-13.4,2.92-13.4,6.51s6,6.52,13.4,6.52,13.41-2.92,13.41-6.52S144.55,299,137.14,299Zm51.7,0c-7.4,0-13.4,2.92-13.4,6.51s6,6.52,13.4,6.52,13.41-2.92,13.41-6.52S196.25,299,188.84,299Zm0,0c-7.4,0-13.4,2.92-13.4,6.51s6,6.52,13.4,6.52,13.41-2.92,13.41-6.52S196.25,299,188.84,299Zm-51.7,0c-7.4,0-13.4,2.92-13.4,6.51s6,6.52,13.4,6.52,13.41-2.92,13.41-6.52S144.55,299,137.14,299ZM302.53,178.76C272.59,295,207,267.27,267.43,119.38c-107.32,93.23-121-19.5-77.53-118.15-86.21,11.86-115,114.22-96.15,182.15,24,86.61-81,94.44-58.08-43.11C5.27,189.85-3.24,233.93,2.89,271.09a3,3,0,0,0,.06.32c12.17,68,74.41,112.26,139.69,121.31a198.53,198.53,0,0,0,69.91-2.63c40.78-9.12,77.37-32.37,94.5-73.19a137.72,137.72,0,0,0,9.89-41.22C318.55,248.3,314.32,216.11,302.53,178.76ZM216.86,347.61c0,1.44-48.94,35.77-54.84,40h0c-5.91-4.22-53.43-38.55-53.43-40s-6.33-74.08-6.33-74.08L162,243.07l61.18,30.46S216.86,346.08,216.86,347.61Zm-28-35.61c7.41,0,13.41-2.92,13.41-6.52s-6-6.51-13.41-6.51-13.4,2.92-13.4,6.51S181.44,312,188.84,312Zm-51.7-13c-7.4,0-13.4,2.92-13.4,6.51s6,6.52,13.4,6.52,13.41-2.92,13.41-6.52S144.55,299,137.14,299Z" style="fill:#db913a"/><path d="M170.47,395.64a202.93,202.93,0,0,1-28-1.93c-33.36-4.62-65.42-18.39-90.26-38.76C25.14,332.72,7.75,303.9,2,271.59a2.7,2.7,0,0,1-.07-.41c-6.71-40.62,4.37-84.86,32.92-131.43l2.68-4.37-.84,5.06c-9.9,59.41,4.32,91.3,20.93,101.34,8.5,5.13,18.07,4.79,25.59-.92,10.18-7.72,18-26.8,9.61-57.21-12.05-43.43-4-97.21,20.11-133.81,18.46-28.07,45-45.22,76.87-49.6L191.54,0l-.72,1.64C162.67,65.52,159.94,129.8,184.59,148c17.13,12.63,45.55,2.48,82.19-29.34l3.17-2.75-1.59,3.88c-28.1,68.77-29.3,112.93-18,126.19a9.81,9.81,0,0,0,10.29,3.57c11.11-2.56,28.49-22.69,40.93-71l.88-3.39,1.05,3.33c11.28,35.75,16.15,68.48,14.45,97.28a138.57,138.57,0,0,1-10,41.55c-15.68,37.35-49.49,63.56-95.21,73.78A194.42,194.42,0,0,1,170.47,395.64ZM33.89,145.17C7.55,189.71-2.54,232,3.88,270.93a.76.76,0,0,0,0,.18l0,.11c12.84,71.74,79,112.21,138.85,120.51a197.55,197.55,0,0,0,69.56-2.61c45.06-10.08,78.38-35.86,93.79-72.6A136.65,136.65,0,0,0,316,275.6c1.62-27.64-2.86-59-13.34-93.21-12.61,46.75-30.15,66.46-41.53,69.08a11.86,11.86,0,0,1-12.27-4.22c-11.45-13.48-10.75-57.06,16.16-124.44-45.26,38.3-69.31,35.81-81.57,26.77-12.64-9.32-18.81-30.2-17.37-58.79,1.36-27.06,9.25-58.35,22.24-88.31-30.46,4.69-55.91,21.41-73.7,48.46C90.79,87.09,82.82,140.21,94.72,183.12c8.7,31.37.37,51.21-10.33,59.33-8.2,6.22-18.61,6.61-27.83,1C39.87,233.41,25.46,202.33,33.89,145.17ZM162,389l-.6-.61c-2.69-1.92-16-11.49-28.91-21-24.91-18.33-24.91-19-24.91-19.76,0-1.43-4.14-49-6.32-74l-.06-.67L162,242l.45.23,61.79,30.76-.06.68c-2.17,24.95-6.29,72.5-6.32,74,0,1,0,1.74-49.68,36.85l-5.57,3.95Zm-52.43-41.7c2.75,3.06,40.22,30.33,52.46,39.09l5-3.56c11.51-8.13,46.14-32.62,48.85-35.54.32-5.06,5.4-63.45,6.25-73.16L162,244.19l-58.73,29.93C104.12,283.82,109.22,342.29,109.54,347.3Zm0,.28v0Zm106.31,0v0Zm-27-34.58c-8.07,0-14.4-3.3-14.4-7.52s6.33-7.51,14.4-7.51,14.41,3.3,14.41,7.51S196.92,313,188.84,313Zm-12.4-7.52c0,2.61,5.1,5.52,12.4,5.52s12.41-2.91,12.41-5.52S196.16,300,188.84,300,176.44,302.88,176.44,305.48ZM137.14,313c-8.07,0-14.4-3.3-14.4-7.52s6.33-7.51,14.4-7.51,14.41,3.3,14.41,7.51S145.22,313,137.14,313Zm-12.4-7.52c0,2.61,5.1,5.52,12.4,5.52s12.41-2.91,12.41-5.52S144.46,300,137.14,300,124.74,302.88,124.74,305.48Z" style="fill:#fff"/><path d="M202.25,305.48c0,3.6-6,6.52-13.41,6.52s-13.4-2.92-13.4-6.52,6-6.51,13.4-6.51S202.25,301.89,202.25,305.48Z" style="fill:#db913a"/><path d="M188.84,313c-8.07,0-14.4-3.3-14.4-7.52s6.33-7.51,14.4-7.51,14.41,3.3,14.41,7.51S196.92,313,188.84,313Zm0-13c-7.3,0-12.4,2.91-12.4,5.51s5.1,5.52,12.4,5.52,12.41-2.91,12.41-5.52S196.16,300,188.84,300Z" style="fill:#fff"/><path d="M150.55,305.48c0,3.6-6,6.52-13.41,6.52s-13.4-2.92-13.4-6.52,6-6.51,13.4-6.51S150.55,301.89,150.55,305.48Z" style="fill:#db913a"/><path d="M137.14,313c-8.07,0-14.4-3.3-14.4-7.52s6.33-7.51,14.4-7.51,14.41,3.3,14.41,7.51S145.22,313,137.14,313Zm0-13c-7.3,0-12.4,2.91-12.4,5.51s5.1,5.52,12.4,5.52,12.41-2.91,12.41-5.52S144.46,300,137.14,300Z" style="fill:#fff"/></g></g></svg>