<svg xmlns="http://www.w3.org/2000/svg" viewBox="0 0 549.25 402.54"><title>Balor</title><g id="a3d0f536-4c6c-4f5b-8747-3e15825d5670" data-name="Layer 2"><g id="b2e74d6a-1cba-4f4b-ae9c-a4c5a1401dab" data-name="Layer 1"><path d="M268.47,104.94l1.3.16h0l.67.09,1.17.17c.73.12,1.54.25,2.38.41l.68.13.81.16.49.11.87.2.48.12.46.12.11,0,.44.13.43.13.41.13.39.14.36.15.33.15.31.15a5.71,5.71,0,0,1,.51.31l.2.17a1.29,1.29,0,0,1,.16.17,1.05,1.05,0,0,1,.19.34.62.62,0,0,1,0,.19.66.66,0,0,1-.06.27,1.43,1.43,0,0,1-.19.29,26.66,26.66,0,0,0-3.17,1.26,5,5,0,0,1-1.76.59c-5.46.86-8-.6-14.68-1.52l-.15,0h0a147.18,147.18,0,0,1-19.95-4.45c-6.9-2-12.64-3.93-16.11-4.71-10.55-2.38-19.06,6.81-19.06,6.81L202,104.11c.35-2.19,1.26-5.64,3.54-6.32,3.4-1,4.08-7.15,4.08-7.15l.34,3.4s8.86-3.4,11.92-7.15l-1.36,3.75S232,88.26,233.4,85.87L230.34,91s16.34,0,20.43-3.4l-2.05,4.08s6.13,2.38,11.58,0l-.1.17-1.94,3.23Z" style="fill:#966e5a"/><path d="M273.3,112.47a30.55,30.55,0,0,1-6.33-.84c-1.5-.31-3.21-.66-5.32-.95h-.16a145.41,145.41,0,0,1-20.08-4.48c-2.88-.82-5.57-1.64-7.94-2.37-3.29-1-6.13-1.88-8.12-2.32-9.88-2.23-18,6.42-18.1,6.51l-.6.64-5.78-4.07L201,104c.45-2.8,1.55-6.31,4.25-7.12,2.26-.68,3.2-4.78,3.37-6.3l1-9.43,1.15,11.51c2.49-1.06,8.08-3.65,10.29-6.35l3.72-4.56L222,89.28c4.82-1.12,9.77-2.77,10.48-3.87l0,0,1.73,1,0,.06L232.12,90c5.31-.13,15.24-.84,18-3.15l3.69-3.06-3.68,7.31c1.91.52,6.05,1.31,9.76-.31l2.84-1.24-3.21,5.39,9.4,9.09,1.65.21.85.13.6.09,2.16.37.7.13c.26,0,.54.1.82.17l.21,0,.3.07.79.18,1,.27-.15,1,.26-1a4.44,4.44,0,0,1,.52.15,3.67,3.67,0,0,1,.43.13,4.2,4.2,0,0,1,.43.14l.91.36.26.12.31.15c.24.13.44.25.62.37l.09.07.23.19a3.33,3.33,0,0,1,.25.28,2,2,0,0,1,.37.66,1.5,1.5,0,0,1,.07.5,1.75,1.75,0,0,1-.14.67,2.61,2.61,0,0,1-.33.52l-.18.23-.28.09a28.05,28.05,0,0,0-3,1.16,5.58,5.58,0,0,1-2.12.72A20.18,20.18,0,0,1,273.3,112.47Zm-11.44-3.78.12,0c2.12.29,3.86.65,5.39,1,3.15.64,5.42,1.1,8.94.55a3.78,3.78,0,0,0,1.4-.46,19.87,19.87,0,0,1,2.66-1.1l-.27-.15-.25-.13-1-.41-.34-.1a3.18,3.18,0,0,0-.43-.13,3.25,3.25,0,0,0-.44-.13l-1-.27-.83-.19-.52-.11q-.36-.09-.75-.15c-.26-.06-.46-.1-.68-.13-.75-.15-1.47-.26-2.12-.37l-.55-.08-.87-.13-2.27-.29L257,95.23l1.09-1.83a19,19,0,0,1-9.73-.81l-1-.39,1.19-2.36c-6,2.07-16.75,2.14-18.18,2.14h-1.76l1.87-3.12a62.6,62.6,0,0,1-9.78,2.76l-1.75.36.65-1.79a49.78,49.78,0,0,1-9.3,4.78l-1,.4a6,6,0,0,1-3.46,3.38c-1.22.36-2.2,2.14-2.73,4.91L206.4,106c2.21-2.11,9.94-8.62,19.39-6.48,2.07.46,4.94,1.34,8.27,2.36,2.36.72,5,1.54,7.9,2.36a144.66,144.66,0,0,0,19.74,4.41l.15,0Z" style="fill:#fff"/><path d="M196.67,116.81s-95-43.92-51.58-83.24c0,0-167,55.15-141.45,176.17,0,0,18.39,12.26,5.11,40.85,0,0,55.15-21.44,80.17,5.62,0,0,37.28-33.7,92.94,4.09,0,0,33.7-59.75,64.34-56.17S271.73,116.3,196.67,116.81Z" style="fill:#7d3d24"/><path d="M182.19,261.73l-.89-.61c-28.46-19.32-51.9-19.4-66.56-16.06C98.9,248.66,89.68,256.87,89.59,257l-.73.67-.67-.73c-24.28-26.26-78.53-5.58-79.08-5.37l-2.31.91,1-2.26c12.74-27.43-4-39.11-4.75-39.6l-.34-.22-.08-.4c-5.88-27.85-2-54.51,11.43-79.27,10.74-19.76,27.59-38.33,50.09-55.21,38.24-28.68,80.17-42.71,80.59-42.85l4.49-1.48-3.51,3.17c-8.49,7.7-12.11,16.12-10.74,25,4.38,28.72,58.14,54.68,61.87,56.44h.41c36.42,0,53.1,21.08,59.82,33.7,9.05,17,10.23,38.05,2.74,49-3.39,5-8.15,7.27-13.78,6.6-29.61-3.43-63,55.08-63.35,55.67ZM129.7,241.4c13.92,0,31.64,4,51.82,17.47,4.61-7.91,35.59-59.13,64.79-55.74,4.84.56,9-1.42,11.9-5.74,6-8.84,7.09-28.3-2.85-46.95-6.51-12.22-22.69-32.64-58.06-32.64h-.85l-.2-.1c-2.39-1.1-58.53-27.38-63.21-58-1.28-8.4,1.46-16.33,8.15-23.64C129.64,40.34,96.28,53.9,65.35,77.1,30.5,103.25-8.3,147.38,4.54,209.17c2.46,1.89,16.75,14.32,6.08,39.68,10.64-3.73,55.54-17.52,78.38,6a63.27,63.27,0,0,1,25.29-11.73A69.52,69.52,0,0,1,129.7,241.4Z" style="fill:#fff"/><path d="M309,204.13s90.89-28.6,128.17,41.36c0,0,16.34-92.17,104.42-63.83,0,0-63.57-221.11-205-174.13,0,0,103.15-12.77-46,107.23S309,204.13,309,204.13Z" style="fill:#7d3d24"/><path d="M437.65,248.51,436.29,246c-19-35.71-52.47-44.94-77.18-46.39a155.68,155.68,0,0,0-49.8,5.51l-.13,0c-2.83.52-69.52,12.43-80-10.46-7-15.38,13.42-42.52,60.82-80.67,74-59.53,84-85,79.38-95.9C364,5.3,337,8.49,336.7,8.52l-.43-1.94c31.9-10.59,62.46-8.39,90.82,6.56,40.89,21.55,70.11,66.17,87.43,99.8a425.35,425.35,0,0,1,28,68.44l.52,1.8-1.78-.57c-25.51-8.21-47.39-7-65,3.63-30.49,18.36-38,59-38.1,59.42Zm-86.54-51.17c2.63,0,5.32.07,8.06.23,24.69,1.44,57.93,10.49,77.6,45.1,2.26-9.48,11.77-42.07,38.45-58.13,17.74-10.69,39.56-12.17,64.88-4.4a431.28,431.28,0,0,0-27.38-66.32c-17.18-33.37-46.15-77.61-86.56-98.91C400.63,1.46,373.3-1.49,344.78,6.12c9,.06,22.47,1.78,26.44,11.18,7.1,16.77-19.81,49.82-80,98.24C244.66,153,224.38,179.37,231,193.82c9.72,21.22,75.48,9.74,77.78,9.33A158.65,158.65,0,0,1,351.11,197.34Z" style="fill:#fff"/><ellipse cx="212.28" cy="143.21" rx="18.72" ry="21.79" style="fill:#f7b594"/><path d="M212.28,166c-10.87,0-19.72-10.23-19.72-22.79s8.85-22.79,19.72-22.79S232,130.65,232,143.21,223.16,166,212.28,166Zm0-43.58c-9.77,0-17.72,9.33-17.72,20.79S202.51,164,212.28,164,230,154.67,230,143.21,222.06,122.42,212.28,122.42Z" style="fill:#fff"/><path d="M425.74,195.8a7,7,0,0,0-1.33,1.68c-14.12-2-34.27,8.74-42.85,13.8a5.62,5.62,0,0,1-6.26-9.3c10.57-8,35.33-14.46,45.32-16.81C415.91,190.94,420.7,194.12,425.74,195.8Z" style="fill:#6b99b6"/><path d="M378.7,213.07a6.64,6.64,0,0,1-6.56-7.45,6.51,6.51,0,0,1,2.55-4.43c10.7-8.15,35.52-14.6,45.7-17l2.86-.67-1.86,2.28c-1.42,1.74-2,3.28-1.58,4.58.5,1.72,2.66,3.27,6.24,4.47l1.57.52-1.19,1.14a6.09,6.09,0,0,0-1.13,1.42l-.33.62-.7-.09c-13.9-1.92-34.15,8.92-42.21,13.67A6.51,6.51,0,0,1,378.7,213.07Zm39.7-26.34c-11.14,2.73-32.87,8.72-42.5,16.05a4.53,4.53,0,0,0-1.77,3.08,4.62,4.62,0,0,0,6.92,4.56c8.12-4.79,28.36-15.61,42.85-14l.12-.17c-3.45-1.37-5.51-3.15-6.13-5.3A5.78,5.78,0,0,1,418.4,186.73Z" style="fill:#fff"/><path d="M189.24,254a190.89,190.89,0,0,0-26.48-24.12c-9.53-7-20-12.75-31.13-15.81a49.71,49.71,0,0,0-33,2.08,71.84,71.84,0,0,0-7.67,3.67,80.9,80.9,0,0,0-7.24,4.59,100.06,100.06,0,0,0-13.15,11.23A131.7,131.7,0,0,0,59,248.69a154.93,154.93,0,0,0-9.95,14.41c-1.52,2.49-3,5-4.36,7.58s-2.73,5.22-4,7.86a155.61,155.61,0,0,0-6.82,16.14,99,99,0,0,0-4.45,16.7,61,61,0,0,0-.68,16.87A43.56,43.56,0,0,0,33.48,344a51.16,51.16,0,0,0,10.36,13.17,65.44,65.44,0,0,0,6.64,5.4c1.16.83,2.36,1.62,3.58,2.38.6.38,1.22.75,1.84,1.11l1.85,1a47.44,47.44,0,0,0,7.76,3.2c1.36.36,2.71.76,4.09,1l2.09.39,1,.19,1,.12a57.19,57.19,0,0,0,17-.46,61.66,61.66,0,0,0,16.27-5.41,69.7,69.7,0,0,0,14.35-9.71,164.89,164.89,0,0,0,12.78-12.35c4.13-4.33,8.21-8.79,12.54-13.08,1.09-1.07,2.17-2.14,3.3-3.18s2.24-2.08,3.41-3.09a77,77,0,0,1,7.35-5.69,74.39,74.39,0,0,1,16.56-8.35,94.48,94.48,0,0,1,17.88-4.38,152.65,152.65,0,0,1,18.19-1.53c6-.18,12.12-.18,18.19.17,12.08.74,24.33,2.82,35.43,8,1.4.61,2.72,1.39,4.08,2.09s2.64,1.53,3.88,2.43c2.48,1.71,5.16,3.49,6.74,6.42a6.51,6.51,0,0,1,.72,2.4,5.11,5.11,0,0,1-.42,2.51,8.52,8.52,0,0,1-3.25,3.54,24.46,24.46,0,0,1-8.6,3.21l-.18-.88a23.58,23.58,0,0,0,8.13-3.28,7.48,7.48,0,0,0,2.72-3.08,4.25,4.25,0,0,0-.36-3.77,11.43,11.43,0,0,0-2.79-3.16,39.36,39.36,0,0,0-3.61-2.53c-1.23-.83-2.57-1.5-3.84-2.25s-2.64-1.36-4-1.92c-10.9-4.79-22.89-6.55-34.77-7-6-.2-12-.06-17.92.26a151.92,151.92,0,0,0-17.75,1.92c-11.66,2-23,6-32.46,12.84a95.19,95.19,0,0,0-13.18,11.66c-4.15,4.26-8.11,8.77-12.21,13.22a170.34,170.34,0,0,1-12.94,13,75.16,75.16,0,0,1-15.3,10.75A67.84,67.84,0,0,1,92,377.66a63.54,63.54,0,0,1-18.93.86l-1.19-.11-1.18-.19-2.37-.4c-1.56-.3-3.12-.72-4.67-1.11a54.17,54.17,0,0,1-9-3.51l-2.16-1.1c-.69-.38-1.37-.77-2-1.18-1.35-.81-2.68-1.65-4-2.55A73.38,73.38,0,0,1,39,362.53a58.4,58.4,0,0,1-12.16-14.86,51.24,51.24,0,0,1-6-18.46,70.3,70.3,0,0,1,.26-19.12,108.13,108.13,0,0,1,4.35-18.28,160.6,160.6,0,0,1,6.92-17.24q2-4.19,4.12-8.26c1.46-2.75,3-5.46,4.6-8.1a145.61,145.61,0,0,1,23.17-29.06,107.51,107.51,0,0,1,14.62-11.78,76.86,76.86,0,0,1,16.89-8.69,65.28,65.28,0,0,1,9.24-2.6c1.6-.24,3.16-.6,4.77-.72l2.41-.24,2.41-.09c1.61-.1,3.22,0,4.83.08.8,0,1.6.15,2.4.22s1.6.14,2.39.31c1.58.31,3.17.53,4.71,1l2.31.6,2.24.74c12,3.95,22.56,10.75,31.86,18.65a164,164,0,0,1,24.61,26.77Z" style="fill:#da9f46"/><path d="M79.57,379.87a64.3,64.3,0,0,1-6.66-.35l-1.18-.12-3.61-.59c-1.34-.26-2.65-.6-3.92-.92l-.83-.21a54,54,0,0,1-9.19-3.59L52,373c-.74-.41-1.42-.81-2.11-1.22-1.5-.9-2.82-1.75-4-2.58a73.39,73.39,0,0,1-7.57-5.93,58.9,58.9,0,0,1-12.38-15.11,52.32,52.32,0,0,1-6.11-18.83A71,71,0,0,1,20.09,310a109,109,0,0,1,4.39-18.45,161.23,161.23,0,0,1,7-17.36c1.31-2.78,2.7-5.57,4.13-8.3,1.78-3.33,3.21-5.85,4.64-8.15a147,147,0,0,1,23.33-29.26,109.34,109.34,0,0,1,14.76-11.9,78,78,0,0,1,17.1-8.8,67.36,67.36,0,0,1,9.37-2.63c.58-.08,1.09-.17,1.6-.27,1.07-.18,2.18-.38,3.31-.46l2.37-.24,2.48-.1a33,33,0,0,1,3.45,0l1.44.05c.57,0,1.12.08,1.66.14l.81.09.81.09a13,13,0,0,1,1.7.23l1.25.23a33.39,33.39,0,0,1,3.53.77l2.29.6,2.3.75c11,3.63,21.53,9.79,32.18,18.84a165.57,165.57,0,0,1,24.78,26.93l.56.76-2.15,1.79-.64-.69c-9.52-10.19-17.89-17.82-26.34-24-10.31-7.6-20.68-12.87-30.81-15.65A49,49,0,0,0,99,217a73.6,73.6,0,0,0-7.58,3.63,79.85,79.85,0,0,0-7.12,4.52,98.67,98.67,0,0,0-13,11.13,129.66,129.66,0,0,0-11.43,13,151.73,151.73,0,0,0-9.88,14.32c-1.55,2.54-3,5.07-4.34,7.54s-2.72,5.19-4,7.82a153.89,153.89,0,0,0-6.78,16,97.71,97.71,0,0,0-4.41,16.52,60.43,60.43,0,0,0-.66,16.6,42.22,42.22,0,0,0,4.62,15.44,50,50,0,0,0,10.16,12.9,64.88,64.88,0,0,0,6.53,5.31c1.07.76,2.22,1.53,3.54,2.36.59.37,1.21.74,1.81,1.09l1.82,1a45.69,45.69,0,0,0,7.61,3.14l.94.26c1,.27,2,.55,3,.77l3.1.57,1,.11a56.06,56.06,0,0,0,16.73-.45,60.65,60.65,0,0,0,16-5.32,68.37,68.37,0,0,0,14.15-9.58,166.8,166.8,0,0,0,12.7-12.27l3.78-4c2.83-3,5.76-6.12,8.79-9.11l.73-.72c.85-.84,1.71-1.68,2.59-2.49,1-1,2.16-2,3.43-3.11a76.09,76.09,0,0,1,7.46-5.76A75,75,0,0,1,177,309.78a93.41,93.41,0,0,1,18.06-4.43,155,155,0,0,1,18.31-1.54c6.95-.2,12.75-.15,18.27.17,14.31.87,26,3.53,35.81,8.12.92.41,1.83.9,2.71,1.37.46.25.92.5,1.39.74l1.44.87c.86.5,1.74,1,2.58,1.63l.28.2c2.4,1.66,5.12,3.54,6.75,6.56a7.53,7.53,0,0,1,.84,2.8,6.11,6.11,0,0,1-.51,3,9.64,9.64,0,0,1-3.6,4,26.06,26.06,0,0,1-9,3.36l-1,.19-.58-2.81,1-.22a22.34,22.34,0,0,0,7.79-3.12,6.47,6.47,0,0,0,2.36-2.63,3.29,3.29,0,0,0-.3-2.91,10.35,10.35,0,0,0-2.56-2.88,25.64,25.64,0,0,0-2.71-1.93l-.82-.54c-.76-.51-1.55-.95-2.39-1.42l-1.4-.8-1.35-.66c-.86-.44-1.68-.85-2.53-1.19-9.44-4.15-20.69-6.41-34.43-6.92-5.3-.18-11.14-.1-17.83.26A147.87,147.87,0,0,0,196,310.92c-12.49,2.11-23.28,6.38-32.06,12.66a94.33,94.33,0,0,0-13,11.55c-2.87,2.95-5.72,6.08-8.47,9.11-1.23,1.36-2.47,2.73-3.72,4.09a172.07,172.07,0,0,1-13,13.05,75.87,75.87,0,0,1-15.5,10.89,68.6,68.6,0,0,1-18,6.37A65.64,65.64,0,0,1,79.57,379.87ZM115.83,206c-.4,0-.79,0-1.19,0l-2.44.09-2.34.24c-1.06.08-2.07.26-3.13.44q-.8.15-1.59.27a64,64,0,0,0-9,2.54,75.5,75.5,0,0,0-16.68,8.59,106.73,106.73,0,0,0-14.49,11.68,144.92,144.92,0,0,0-23,28.85c-1.41,2.28-2.82,4.76-4.57,8-1.42,2.69-2.79,5.46-4.09,8.22a159,159,0,0,0-6.88,17.13,106.38,106.38,0,0,0-4.31,18.1,69.13,69.13,0,0,0-.26,18.85,50.49,50.49,0,0,0,5.88,18.11,57,57,0,0,0,12,14.59A71.92,71.92,0,0,0,47,367.55c1.18.81,2.47,1.63,3.93,2.52.67.4,1.34.78,2,1.16l2.12,1.08a53.28,53.28,0,0,0,8.82,3.45l.79.19c1.24.32,2.52.64,3.77.89l3.52.58,1.13.11a62.67,62.67,0,0,0,18.64-.85,66.78,66.78,0,0,0,17.51-6.19,74.48,74.48,0,0,0,15.1-10.61A171.92,171.92,0,0,0,137.24,347q1.86-2,3.71-4.07c2.76-3,5.62-6.19,8.51-9.16A96.27,96.27,0,0,1,162.79,322c9-6.46,20.08-10.84,32.87-13A153.75,153.75,0,0,1,213.51,307c6.76-.36,12.64-.44,18-.26,12.31.45,22.68,2.3,31.57,5.62-8.83-3.54-19.19-5.64-31.54-6.4-5.45-.31-11.2-.36-18.09-.16a150.92,150.92,0,0,0-18.07,1.52,92,92,0,0,0-17.69,4.33,73.65,73.65,0,0,0-16.34,8.24,75.06,75.06,0,0,0-7.26,5.62c-1.25,1.08-2.35,2.08-3.37,3.05-.89.81-1.72,1.64-2.56,2.46l-.73.72c-3,3-5.91,6.06-8.74,9.05-1.26,1.34-2.52,2.68-3.78,4a167.16,167.16,0,0,1-12.85,12.43,71,71,0,0,1-14.56,9.84A63,63,0,0,1,91,372.57a58.35,58.35,0,0,1-17.32.47l-1-.12-3.2-.59c-1.09-.24-2.15-.53-3.17-.8l-1-.27a49.66,49.66,0,0,1-8-3.29l-1.84-1c-.66-.39-1.29-.76-1.9-1.15-1.36-.85-2.54-1.64-3.64-2.42a67.31,67.31,0,0,1-6.73-5.48A51.62,51.62,0,0,1,32.6,344.51a44.11,44.11,0,0,1-4.85-16.16,62.39,62.39,0,0,1,.68-17.14,101,101,0,0,1,4.49-16.86,158.91,158.91,0,0,1,6.87-16.25c1.28-2.65,2.64-5.31,4-7.89s2.82-5.06,4.39-7.63a155.49,155.49,0,0,1,10-14.5,132.48,132.48,0,0,1,11.61-13.19A98.9,98.9,0,0,1,83.1,223.55a82.9,82.9,0,0,1,7.31-4.65,74.87,74.87,0,0,1,7.8-3.73,50.91,50.91,0,0,1,33.69-2.11c10.36,2.85,20.95,8.22,31.45,16a167.75,167.75,0,0,1,19.16,16.55,155.73,155.73,0,0,0-17.84-18.21c-10.46-8.87-20.77-14.91-31.52-18.46l-2.24-.74-2.26-.58a30.16,30.16,0,0,0-3.35-.73l-1.29-.24a12.14,12.14,0,0,0-1.49-.2l-.84-.09-.81-.09c-.5-.06-1-.11-1.51-.13l-1.45-.06C117.2,206,116.51,206,115.83,206Z" style="fill:#fff"/><path d="M409.59,186.08c-.83-3.31-10.37-10.65-15.41-13.31a133.64,133.64,0,0,1-9.24,20.82l.82.66c-1.7,3.74,2.39,8.17,2.39,8.17L389,208a5.94,5.94,0,0,0,6.21,5l.75,0,4.76-4.76s5.11.34,6.13.34,5.45-6.47,5.45-6.47S410.62,190.16,409.59,186.08ZM252.11,340.56c-5.77,4.4-14,8.09-25.73,9.07A16.56,16.56,0,0,1,208.74,359l-7.83,11.23,5.45-1.36c5.45,6.81,10.55,1.36,10.55,1.36,6.81,5.45,16-1.36,16-1.36s0-3.41,17.37-9.87C263.05,354.26,256.47,345.08,252.11,340.56Zm121.74,38.2c-5.08-4.54-5.75-19.58-5.8-25.83-7.18-2.27-16.6-1.8-28.07,6.09,2,4.4,6.48,16.1-1.19,20.76-9.54,5.79-8.17,19.41-8.17,19.41l9.19-7.15.68,7.83,6.47-8.51,2,8.51,4.42-6.13,1.71,5.79,4.76-5.79,2.73,5.1,4.08-4.08C379.3,390.33,373.85,378.76,373.85,378.76ZM218.51,228.2c-21.11,19.18-31.31,52-33.49,59.7a62.49,62.49,0,0,1,36.34,1.86l.32-.87A44.71,44.71,0,0,0,238,278.28C238.75,249,225.39,234,218.51,228.2Zm103.94-9.1.7-1.69c-11.32,11.27-22.88,37.85-30.87,59.06a65.2,65.2,0,0,0,15.28,19.79c.86-10.66,5.43-27.95,27-18.1,3.12,1.43,5.65,1.91,7.69,1.62,0-.69,0-1.11,0-1.11C347.3,263.36,322.45,219.1,322.45,219.1Zm46.27-65-2,1.69c-7.15-6.13-7.83-3.06-7.83-3.06-3.06-4.77-20.77-11.58-20.77-11.58-5.78-11.23-17.7-12.25-17.7-12.25-4.64-17.72-29.61-19.58-36.84-19.75h0c-6.76,1.52-14.23,1.34-21.57.33-3.44,2.34-14.22,2.37-14.22,2.37s.26.1.33.14-.64-.23-3.39-1.29q-.33-.12-.66-.27c-.13,0-.25-.1-.37-.15l-.12-.06-.47-.22c-.37-.19-.72-.38-1-.58a5.72,5.72,0,0,1-.84-.62l-.33-.33a3.92,3.92,0,0,1-.27-.33,2.08,2.08,0,0,1-.2-.35.83.83,0,0,1-.07-.32,1.46,1.46,0,0,1,.08-.43l.06-.15.09-.19a2.38,2.38,0,0,1,.18-.3c.06-.1.14-.21.22-.32l.26-.34.31-.36c.1-.12.22-.24.34-.37-6.9-2-12.64-3.93-16.11-4.71-10.55-2.38-19.06,6.81-19.06,6.81l-4.56-3.21c-.17,1.08-.21,1.85-.21,1.85-7.14-2.72-6.8,9.53-6.8,9.53-.34.06-.71.14-1.1.24l-1.59,15.61,1.32.83-1.55,1.42a14.9,14.9,0,0,0-9.27,8.11,26.37,26.37,0,0,0-2.45,11.24l-1.36,2.72,7.15,16.34L181.17,182l-1.9-.76c2.86,9.84,8.34,21.44,18.75,26.72l3.23-1.45-2.72-4.08c3.4-.68,9.53-15.66,9.53-15.66l7.15,6.13c10.89-2.39,12.94,9.53,12.94,9.53l-1.28,7.79c50.75,15.17,75.44-3.75,85.7-16.47l-1.7.85c-6.13-7.15-5.45-40.85-5.45-40.85,1.37,16.68,28.54,19,29.28,19.74a54,54,0,0,0,17.43,12.45h0C367.34,177.06,369.31,163.09,368.72,154.09ZM200.49,114.25l-2.3.79C197.93,107.38,200.49,114.25,200.49,114.25Zm13,40.51s7.15,12.6-7.83,1l2.72,7.15L203,155.78l3.06-8.17-9.19-16.34,4.76,6.47v-8.17l4.77,9.87,2.38-10.55s10.9,1.36,12.94,10.55l-4.77,6.81,7.49-4.43-2,7.83S224.4,160.89,213.51,154.76Zm1.7-43.92s2-4.42,6.47-5.1S228.15,113.57,215.21,110.84Zm-61.84,92.38a8.67,8.67,0,0,1-3.52-.12L140,207.87l-5.45,11.91,4.09,14.3,3.4-1.36,4.43,5.1,3.06-1.7s4.77.68,6.81,2.38c1.72,1.44,10.47-9.47,13-14.15A42.35,42.35,0,0,1,153.37,203.22Z" style="fill:#9b2718"/><path d="M339.72,402.54,339,394l-9.16,7.13-.18-1.8c-.06-.58-1.32-14.32,8.64-20.36,6.91-4.2,2.86-15,.8-19.49l-.35-.77.7-.47c10.15-7,19.89-9.09,28.93-6.22l.7.22v.72c0,4.78.55,20.7,5.47,25.09l.15.14.09.18c.1.22,2.51,5.46.41,10.49-1.29,3.07-3.95,5.36-7.92,6.81l-4.87,4.87-2.66-5-5,6.09L353,396l-4.5,6.24-2.06-8.58Zm7.72-13.46,2,8.44,4.33-6,1.76,5.94,4.51-5.49,2.8,5.23,3.29-3.29.21-.07c3.53-1.24,5.86-3.18,6.95-5.76,1.57-3.75.06-7.84-.3-8.71-4.89-4.64-5.85-17.73-6-25.67-8-2.29-16.71-.38-25.82,5.7,2.34,5.33,5.95,16.47-1.93,21.25-6.84,4.15-7.72,12.75-7.75,16.56l9.09-7.07.61,7.08Zm-124.36-15.7a10.61,10.61,0,0,1-6.11-1.84,7.67,7.67,0,0,1-5,1.77,8.38,8.38,0,0,1-6-3.3l-7.43,1.85,9.73-13.95.64.13a15.45,15.45,0,0,0,16.55-8.86l.25-.5.56-.05c10.12-.84,18.6-3.83,25.21-8.87l.7-.54.62.65c3.19,3.3,6.77,8.22,5.72,12.85-.7,3.11-3.37,5.54-7.92,7.24-14.75,5.48-16.55,8.67-16.72,9v.39l-.4.3C233.23,369.9,228.44,373.38,223.08,373.38Zm-6.27-4.49.73.58c5.51,4.41,13-.19,14.51-1.2.61-1.5,3.69-4.91,17.88-10.19,3.88-1.44,6.13-3.4,6.67-5.8.83-3.64-2.29-7.85-4.61-10.39-6.68,4.86-15.07,7.78-25,8.69a17.56,17.56,0,0,1-17.81,9.51l-6,8.54,3.48-.87.4.5c1.57,2,3.22,3,4.91,3.05a6.05,6.05,0,0,0,4.13-1.74Zm91.59-70.57L306.9,297a66,66,0,0,1-15.51-20.09l-.2-.39.16-.41c7.82-20.77,19.57-47.94,31.1-59.42l3.54-3.53L323.56,219c2.69,4.85,24.4,44.74,19.63,59.78,0,.18,0,.49,0,.92l0,.9-.9.13c-2.33.33-5-.23-8.24-1.7-7.22-3.3-13-3.72-17.23-1.25-5.93,3.48-7.8,12-8.33,18.52Zm-15-21.91a64.2,64.2,0,0,0,13.39,17.78c.79-6.66,3.06-14.54,9.12-18.09,4.81-2.83,11.22-2.44,19.07,1.15a14.57,14.57,0,0,0,6.24,1.61v-.35l.05-.16c4.6-13.76-16.38-52.8-19.32-58.15C311.34,232.32,300.68,257.07,293.37,276.41ZM222,291l-.93-.33a61.53,61.53,0,0,0-35.76-1.83l-1.68.43.47-1.67c2.62-9.3,12.81-41.12,33.78-60.17l.64-.59.67.56c7.74,6.48,20.6,21.7,19.85,50.87v.41l-.28.28a46.34,46.34,0,0,1-16.25,10.68Zm-22-6a65.09,65.09,0,0,1,20.79,3.45l.15-.4.44-.15A43.85,43.85,0,0,0,237,277.85c.58-27.25-11-41.8-18.47-48.31-19.28,18-29.34,47.82-32.08,57A61.93,61.93,0,0,1,200,285.05Zm-43.26-45.42a1.61,1.61,0,0,1-1-.36c-1.38-1.15-4.52-1.87-6-2.11l-3.47,1.93-4.5-5.18L138,235.42l-4.5-15.72,5.75-12.57L149.78,202l.39.13a8.11,8.11,0,0,0,3.08.08l.81-.1.26.78a41,41,0,0,0,15.53,20.63l.71.51-.4.77c-2,3.84-9.81,14.14-13,14.77A1.94,1.94,0,0,1,156.71,239.63Zm.25-1.9Zm-7.64-2.65.33,0c.2,0,4.87.71,7.16,2.48,1.77-.43,8.33-8.1,11.16-13a42.83,42.83,0,0,1-15.29-20.35,10.38,10.38,0,0,1-2.72-.13l-9.22,4.45-5.14,11.25,3.68,12.88,3-1.21,4.37,5Zm112.45-18.25c-10.06,0-21.72-1.64-35.18-5.66l-.85-.25,1.4-8.48c-.19-.88-1.28-5.31-4.62-7.54a8.86,8.86,0,0,0-7.09-1l-.49.1-6.48-5.56c-1.71,4-5.39,12-8.48,14.37l2.76,4.15-1.08.48-3.23,1.45-.43.2-.43-.22c-11-5.56-16.53-17.93-19.26-27.33l-.57-2,2.95,1.18,4.49-9L178,155.41l1.46-2.92A27.2,27.2,0,0,1,182.05,141a15.75,15.75,0,0,1,9.65-8.56l.42-.38-.74-.46,1.73-16.92.67-.18.35-.08c.05-2.11.45-7.28,3.3-9.3a4.49,4.49,0,0,1,3.62-.71c0-.22.06-.46.1-.72l.25-1.58,5.19,3.65c2.2-2.11,9.94-8.62,19.39-6.49,2.06.47,4.93,1.35,8.25,2.36,2.37.73,5.05,1.55,7.92,2.37l1.56.44-1.22,1.32-.19.21-.53.65-.17.24a2.42,2.42,0,0,0-.15.24l-.09.19,0,.07a.56.56,0,0,1,0,.07s.06,0,.1.1l.18.21a2.29,2.29,0,0,0,.27.27,4.57,4.57,0,0,0,.69.51c.3.19.63.36,1,.54a3.75,3.75,0,0,0,.41.19l.23.11a.76.76,0,0,0,.16.06l.12.05c.19.09.39.17.58.24l2.85,1.09c3,0,11-.45,13.53-2.2l.32-.21.38,0c8.15,1.12,15.29,1,21.21-.32l.22,0c7.59.18,32.42,2.14,37.64,19.84a24.35,24.35,0,0,1,17.62,12.36c2.43,1,15.9,6.37,20.13,10.87l.31-.13c1.6-.53,4,.58,7.45,3.39l2.89-2.41.13,2c.54,8.21-1,23.37-17.07,32.77l-.24.14h-.48l-.2-.09a54.84,54.84,0,0,1-17.62-12.54c-.32-.09-1.11-.25-1.87-.4-5.49-1.11-20.34-4.12-25.81-13.61.14,9.68.93,27.34,4.74,33l5.07-2.53-2.89,3.58C305.7,203.85,290.05,216.83,261.77,216.83ZM228,209.5c47,13.76,71.11-2.08,82.05-14.33-6.24-7.5-5.66-40.06-5.63-41.45l2-.06c1.08,13.19,20,17,26.22,18.28,2,.4,2.45.49,2.79.85a53.33,53.33,0,0,0,16.64,12c13.06-7.84,15.9-19.52,15.74-28.65l-1.12.93-.64-.55c-4.17-3.58-5.72-3.64-6.09-3.58-.09,0-.13,0-.13,0l-.52,2.35-1.28-2.1c-2.36-3.69-15.45-9.33-20.29-11.19l-.35-.13-.18-.34c-5.44-10.59-16.78-11.7-16.89-11.71l-.71-.07-.18-.68c-4.41-16.86-28.35-18.81-35.78-19-6,1.34-13.25,1.47-21.44.37-2.5,1.45-7.39,2-10.81,2.21l.47.26h-3.78c-.23,0-.23,0-3.75-1.36-.21-.07-.43-.17-.66-.27a2.08,2.08,0,0,1-.3-.12l-.16-.07-.15-.06-.62-.25h.13c-.37-.19-.73-.38-1.07-.59a6.7,6.7,0,0,1-1-.74,4.78,4.78,0,0,1-.39-.39,4.35,4.35,0,0,1-.34-.41,2.92,2.92,0,0,1-.31-.56,1.74,1.74,0,0,1-.15-.7,2.33,2.33,0,0,1,.13-.73l.08-.22.1-.21a3.53,3.53,0,0,1,.29-.49,2,2,0,0,1,.19-.28c-2.33-.68-4.51-1.34-6.48-2-3.28-1-6.11-1.87-8.1-2.32-9.87-2.22-18,6.43-18.1,6.52l-.6.64-3.9-2.75a1.09,1.09,0,0,0,0,.12l-.07,1.37-1.28-.49a3.06,3.06,0,0,0-3,.12c-2.16,1.53-2.5,6.62-2.45,8.45l0,.87-.85.15c-.12,0-.24,0-.35.06L193.5,130.6l1.9,1.2-2.68,2.46-.22.07a13.87,13.87,0,0,0-8.66,7.59,25.52,25.52,0,0,0-2.35,10.76v.26l-1.26,2.53,7.15,16.34-5.74,11.45-.81-.33c2.76,8.58,7.89,18.95,17.21,23.91l1.71-.77-2.89-4.34,1.47-.29c1.77-.36,5.95-8.09,8.8-15.06l.52-1.28,7.83,6.71a10.64,10.64,0,0,1,8.16,1.44c4.4,3,5.45,8.75,5.49,9l0,.17ZM394.89,214a6.94,6.94,0,0,1-6.86-5.88l-.82-5.28c-.82-1-3.68-4.69-2.63-8.28l-.91-.73.39-.73a129.29,129.29,0,0,0,9.17-20.66l.37-1.13,1,.56c5,2.65,15,10.18,15.91,13.94h0c1,4.09,2.68,15.62,2.75,16.11l.06.38-.22.32c-4.73,6.91-5.81,6.91-6.28,6.91-.87,0-4.46-.23-5.74-.31L396.42,214l-1.13.06Zm-8.68-20.69.78.63-.32.7c-1.4,3.09,2.18,7,2.22,7.08l.2.23.92,5.87a4.93,4.93,0,0,0,5.17,4.17l.37,0,4.81-4.81.45,0c1.65.11,4.87.31,5.9.34a37.56,37.56,0,0,0,4.57-5.72c-.3-2.07-1.76-11.93-2.66-15.51h0c-.63-2.51-8.31-8.89-13.87-12.09A132.7,132.7,0,0,1,386.21,193.33ZM211.8,169.05l-10-13.1,3.09-8.26-9-15.93,1.68-1.08,3,4V125.2L206,136.43l1.95-8.64.9.11c.47.06,11.62,1.56,13.79,11.32l.09.43L220.39,143l5.59-3.31-2.6,10c.17,1.11.62,5.32-1.92,7.13-1.4,1-3.35,1-5.83,0,.61,1.63.94,3.43-.09,4.33s-2.58,1-7.71-2.6Zm-7-15.24,1.52,1.18c5.92,4.57,7.57,4.73,7.92,4.69.15-.59-.58-2.68-1.57-4.43l-1.77-3.12,3.13,1.76c3,1.67,5.15,2.12,6.29,1.31,1.49-1.06,1.29-4.24,1.09-5.37l0-.22,1.48-5.69-9.38,5.55,7.16-10.23c-1.72-6.57-8.62-8.65-11.09-9.19l-2.8,12.4-4.12-8.51v5.53l4.53,8.05Zm-.68,1.8.92,1.2-.69-1.8Zm-6.85-39.19-.05-1.35c-.09-2.81.09-4.39,1.32-4.63.46-.09,1.52-.3,2.92,3.46l.36,1Zm22.52-4a23.07,23.07,0,0,1-4.75-.56l-1.23-.26.52-1.14c.1-.2,2.33-4.92,7.23-5.67a4,4,0,0,1,4,1.78,3.32,3.32,0,0,1-.07,3.72C224.83,111.15,223.32,112.38,219.76,112.38Zm-2.95-2.26c4.15.66,6.34-.05,7-1a1.35,1.35,0,0,0,0-1.52,2,2,0,0,0-2-.86A7.78,7.78,0,0,0,216.81,110.12Z" style="fill:#fff"/><path d="M195,115.51l-1.59,15.61-1.4-.87-24.85.68S186.25,117.81,195,115.51Z" style="fill:#736152"/><path d="M194.28,132.82l-2.51-1.56-27.92.77,2.78-1.92c.78-.54,19.3-13.25,28.15-15.56l1.4-.37Zm-.39-15.91c-6.77,2.33-18,9.47-23.26,12.93l21.69-.59.29.18Z" style="fill:#fff"/><path d="M394.19,172.77A133.64,133.64,0,0,1,385,193.59l-4.28-3.43a53,53,0,0,1-28.52-4.23c15.2-8.87,17.17-22.84,16.58-31.84h0s20.09,17.7,22.81,17.7A7.26,7.26,0,0,1,394.19,172.77Z" style="fill:#3c3e3f"/><path d="M385.26,195.13l-4.87-3.91a54.16,54.16,0,0,1-28.65-4.37l-1.78-.8,1.68-1c14.42-8.41,16.71-21.45,16.09-30.91l0-.65,1.18-.62.54.44c9.53,8.4,20.43,17.22,22.17,17.45h0a7,7,0,0,1,3.06,1.11l.75.39-.26.8a131.93,131.93,0,0,1-9.31,21Zm-4.33-6,3.7,3A129.85,129.85,0,0,0,393,173.28a4.34,4.34,0,0,0-1.41-.5c-2.56,0-15-10.51-21.75-16.43.07,8.17-2.27,20.83-15.49,29.42a52.21,52.21,0,0,0,26.16,3.41Z" style="fill:#fff"/><path d="M198,208c-8.05,3.61-28.36,12.91-28.09,14.55a4,4,0,0,1-.66,1.85,42.35,42.35,0,0,1-15.9-21.13,17.91,17.91,0,0,0,2.27-.46c3.74-1,22.12-22.13,22.12-22.13l1.5.6h0C182.14,191.07,187.62,202.67,198,208Z" style="fill:#3c3e3f"/><path d="M169.62,225.83l-.93-.66a42.92,42.92,0,0,1-16.26-21.63l-.38-1.15,1.19-.16a17.78,17.78,0,0,0,2.15-.43C157.9,201.11,170,188.05,177,180l.47-.54,2,.79H180l.22.72c2.62,9,7.91,20.87,18.24,26.11l1.87.95-1.91.86c-17.49,7.84-26.32,12.53-27.5,13.81a5.31,5.31,0,0,1-.78,2.15ZM154.71,204a40.73,40.73,0,0,0,14.17,18.81.77.77,0,0,0,.06-.23c-.16-.93-.4-2.44,26.86-14.73C186.17,202,181.08,190.8,178.46,182l-.41-.16c-4,4.52-18.47,20.9-22.14,21.9C155.51,203.84,155.11,203.93,154.71,204Zm16.21,18.33v0Z" style="fill:#fff"/><path d="M267.67,105.72l1.3.16a64,64,0,0,0-6.51,3.63c-.53.34-1.07.65-1.62.94h0a21,21,0,0,1-17.12,1.24q-.33-.12-.66-.27l-.49-.21-.47-.22c-.37-.19-.72-.38-1-.58a6.54,6.54,0,0,1-.84-.62q-.18-.17-.33-.33a3.92,3.92,0,0,1-.27-.33,2.08,2.08,0,0,1-.2-.35.83.83,0,0,1-.07-.32,1.46,1.46,0,0,1,.08-.43l.06-.15.09-.19a2.38,2.38,0,0,1,.18-.3c.06-.1.14-.21.22-.32l.26-.34.31-.36c.1-.12.22-.24.34-.37,3.37-3.51,11.68-9.08,18.52-13.39l-1.94,3.23s34-3.06,37.44,0C294.9,95.84,270.05,102.31,267.67,105.72Z" style="fill:#736152"/><path d="M250.77,114a21.17,21.17,0,0,1-7.42-1.34l-.72-.3-.48-.2-.53-.25c-.39-.2-.76-.4-1.1-.62a8.08,8.08,0,0,1-1-.71,5.3,5.3,0,0,1-.41-.42,3.21,3.21,0,0,1-.34-.41,4.23,4.23,0,0,1-.32-.55,2,2,0,0,1-.14-.71,2.55,2.55,0,0,1,.12-.72l.18-.43a4,4,0,0,1,.29-.49,2.69,2.69,0,0,1,.22-.32l.28-.36c.08-.11.15-.19.22-.27l.13-.14a3.15,3.15,0,0,1,.25-.28l.11-.12c3.54-3.69,12.14-9.41,18.72-13.56l3.55-2.24-3.09,5.15c8.57-.72,33-2.5,36.25.42L297,96.34l-1.8.47c-7.95,2.07-20.24,5.76-24.91,8.23l2.2.27-3,1.47a65.4,65.4,0,0,0-6.41,3.58c-.52.33-1.07.65-1.69,1l-.23.11A22.63,22.63,0,0,1,250.77,114Zm-10.43-5.5s.06,0,.1.11a1.36,1.36,0,0,0,.18.21,3.19,3.19,0,0,0,.26.26,5.79,5.79,0,0,0,.7.52c.29.18.62.36,1,.53.14.08.28.14.41.2l.48.2c.23.1.42.18.62.25a20,20,0,0,0,16.31-1.18l.23-.12c.47-.25.91-.51,1.33-.78,1.35-.86,2.75-1.68,4.18-2.45l.75-1.07c2-2.93,17-7.33,24.38-9.36-6.65-.75-22.36,0-33.68,1l-2,.18.76-1.27c-7.29,4.73-12.47,8.57-14.75,11l-.12.12-.17.19-.53.65c-.07.1-.13.17-.17.24a1.74,1.74,0,0,0-.15.25l-.08.17,0,.08a.26.26,0,0,0,0,.07Z" style="fill:#fff"/><path d="M368.06,352.93c-7.18-2.27-16.6-1.8-28.07,6.09-.5-1.07-.85-1.71-.85-1.71S342.2,343,322.8,330.08c0,0-6.81-8.17-6.47-11.58,0,0-7.49-5.1-3.75-18.38a44.14,44.14,0,0,1-5-3.86c.86-10.66,5.43-27.95,27-18.1,3.12,1.43,5.65,1.91,7.69,1.62.1,2.46.56,8.34,2.69,10.47L348.67,278l2.38,15.66,2.72-12.25s3.75,41.19,6.47,44.59a37.86,37.86,0,0,0,7.83,24.17S368,351.21,368.06,352.93Z" style="fill:#3c3e3f"/><path d="M339.58,360.52l-.5-1.07c-.48-1-.81-1.64-.82-1.66l-.18-.32.08-.37c.11-.55,2.62-13.82-15.92-26.18l-.21-.2c-.69-.82-6.45-7.84-6.7-11.73-1.62-1.36-6.9-6.84-3.91-18.43a54.14,54.14,0,0,1-4.51-3.54l-.38-.33,0-.51c.57-7,2.64-16.16,9.31-20.08,4.81-2.82,11.23-2.43,19.07,1.15,2.82,1.3,5.22,1.81,7.14,1.54l1.09-.15.05,1.1a26,26,0,0,0,1.37,8.12L349,273.5l2.23,14.71,2.95-13.29.58,6.39c1.44,15.81,4.41,41.75,6.26,44.06l.25.31,0,.39a37.16,37.16,0,0,0,7.62,23.47l.23.29v.36s0,1,0,2.73v1.38l-1.31-.41c-8.43-2.67-17.58-.66-27.21,6Zm.6-3.37.21.4c9.32-6.14,18.28-8.14,26.66-5.95,0-.48,0-.85,0-1.1a38.69,38.69,0,0,1-7.84-24.25c-2.2-4.08-4.67-26.5-5.85-38.45l-2.51,11.3-2.52-16.61-2.95,9.65L344.21,291c-2.06-2.06-2.72-6.84-2.93-10.1a16.51,16.51,0,0,1-7.16-1.79c-7.22-3.3-13-3.72-17.23-1.24-5.78,3.39-7.7,11.56-8.28,18a44.49,44.49,0,0,0,4.5,3.44l.63.39-.2.72c-3.5,12.45,3.28,17.24,3.35,17.29l.49.33-.06.59c-.21,2.16,3.62,7.67,6.15,10.73C341.58,341.47,340.55,354.72,340.18,357.15Z" style="fill:#fff"/><path d="M226.39,349.63l.07-.15-2.39-6.12s4.09-6.81-8.17-9.88l-18-13.61-1,3.06-7.49-6.13s-16.34-12.25-4.77-27.23c0,0,.15-.59.45-1.67a62.49,62.49,0,0,1,36.34,1.86l-1.72,4.57s9.87,4.77,13.27,20.09,15,19.06,15,19.06l1.36,4.43a32,32,0,0,1,2.86,2.65C246.35,345,238.1,348.65,226.39,349.63Z" style="fill:#3c3e3f"/><path d="M224.85,350.77l.53-1.3-2.42-6.2.25-.42a4.32,4.32,0,0,0,.2-3.64c-.87-2.06-3.55-3.7-7.76-4.76l-.19-.05-.17-.12-16.92-12.77-1,3.12-8.62-7.05c-.29-.22-7.94-6.05-9.12-14.76-.64-4.69.73-9.3,4.07-13.69.07-.26.2-.77.4-1.49l.16-.56.56-.15a63.59,63.59,0,0,1,36.92,1.89l1,.34-1.77,4.72c2.5,1.52,10.07,7.1,13,20.33,3.24,14.53,13.87,18.18,14.32,18.32l.49.16,1.42,4.64a33.31,33.31,0,0,1,2.72,2.54l.78.81-.9.68c-6.91,5.27-15.75,8.39-26.25,9.27Zm.31-7.36,2,5.15c9.28-.9,17.15-3.62,23.42-8.11-1.12-1.09-1.94-1.74-2-1.75l-.25-.2-1.3-4.25c-2.35-.93-12-5.56-15.15-19.61-3.24-14.61-12.64-19.36-12.73-19.41l-.82-.4,1.68-4.45a61.51,61.51,0,0,0-34.23-1.65c-.2.7-.29,1.08-.29,1.09l-.05.2-.13.16c-3.09,4-4.37,8.17-3.8,12.37,1.07,7.89,8.3,13.4,8.38,13.45l6.4,5.24,1-3,19,14.32c4.81,1.24,7.82,3.23,8.93,5.91A6.35,6.35,0,0,1,225.16,343.41Z" style="fill:#fff"/><path d="M548,139.78c-7.15,43.41-110.3,53.11-110.3,53.11-6.61-1-10.23,1.23-11.95,2.91-5-1.68-9.83-4.86-5.12-10.63,2.68-.62,4.3-1,4.3-1Z" style="fill:#dfedf3"/><path d="M426,197l-.58-.2c-4.29-1.43-6.83-3.38-7.53-5.81-.57-2,.09-4.11,1.95-6.4l.22-.26.33-.08c2.37-.55,3.92-.88,4.25-.95l124.61-45L549,140c-3,18.41-22.72,33.09-58.53,43.63a317.69,317.69,0,0,1-52.66,10.31h-.12l-.12,0c-6.35-.95-9.68,1.25-11.1,2.64Zm-4.82-10.88c-1.26,1.64-1.73,3.09-1.37,4.32.47,1.63,2.44,3.11,5.69,4.27,1.88-1.62,5.68-3.72,12.21-2.77,4-.4,99.75-10.48,109-50.57L425.19,185.18h-.07S423.64,185.5,421.18,186.07Z" style="fill:#fff"/><path d="M323.15,217.41h0c-11.32,11.27-22.88,37.85-30.87,59.06a61.56,61.56,0,0,1-4.22-11.07V277L284,271.19l-4.09,6.8-2-5.78-5.11,14.63-.68-13.95s-7.83,22.13-17,26.55c0,0-3.4-26.89-7.15-6.13,0,0-6.77-16.92-4.44-21.4a47.38,47.38,0,0,1-5.45,6.37c.75-29.29-12.61-44.32-19.49-50.08a63.52,63.52,0,0,1,6.23-5l2.13-13c45.11,9,53.54,2.09,82.7-16.47l3.34.83,10,18.15A5.51,5.51,0,0,1,323.15,217.41Z" style="fill:#000001"/><path d="M254.22,300.94l-.17-1.37c-.78-6.21-2.19-11.95-3.16-13-.31.39-1.09,1.84-2,6.94l-.62,3.42-1.3-3.23c-.57-1.42-4.62-11.76-5-18.27-.87,1-2,2.26-3.3,3.58l-1.77,1.76.06-2.5c.73-28.34-11.67-43-19.13-49.28l-.88-.74.85-.77a66.89,66.89,0,0,1,6-4.85L226.05,209l1,.2c43,8.55,52,2.81,78.68-14.24l3.65-2.32,4.18,1,10.24,18.54a6.49,6.49,0,0,1,.26,5.56L324,218l-.14.14c-11.28,11.23-22.89,38.12-30.64,58.7l-.81,2.15-1-2.06c-.86-1.72-1.64-3.49-2.33-5.28v8.49l-5-7.1-4.39,7.3-1.8-5.09L272,292l-.7-14.41c-2.83,6.8-8.86,19.39-15.81,22.73Zm-3.35-16.5h0c2,.06,3.69,4.56,4.92,13.39,8.2-5.48,15.21-25.07,15.28-25.27l1.69-4.79.68,13.89,4.36-12.47,2.28,6.47,3.78-6.3,3.15,4.46V258l2,7.17a60.36,60.36,0,0,0,3.15,8.77c7.78-20.35,19-45.9,30.12-57.06a4.5,4.5,0,0,0-.24-3.66l-9.81-17.76-2.5-.62-2.92,1.87c-26.27,16.77-36.22,23.12-79.14,14.71l-2,12.38-.34.24a61.43,61.43,0,0,0-5.29,4.17c7.55,6.66,19,21.1,19,47.58a44.43,44.43,0,0,0,3.6-4.41l1.71,1c-1.31,2.52,1,11,3.27,17.37C248.66,285.46,249.69,284.44,250.87,284.44Z" style="fill:#fff"/></g></g></svg>