<svg xmlns="http://www.w3.org/2000/svg" viewBox="0 0 243.97 306.06"><defs><style>.cls-1{fill:#df0b13;fill-rule:evenodd;}.cls-2{fill:#fff;}</style></defs><title>Bandit</title><g id="Layer_2" data-name="Layer 2"><g id="Layer_1-2" data-name="Layer 1"><path class="cls-1" d="M120.83,2C68.71,2-27.41,101.16,10.88,193.35c5.11,16.08,17.85,32,31.52,49.05,15.66,19.5,33.05,40.25,44,61.66H99.56C88,278.73,68.46,255.78,51.75,235c-17.56-21.86-31.26-41.54-31.26-56a38.82,38.82,0,0,1,.69-7.08l-.07,0c.18-.78.38-1.56.59-2.34a53,53,0,0,1,2.36-7.28c14.78-39.07,60.3-67.65,93.86-85.92l2.3-1.26,2.5.86c39,13.3,84.1,42.48,99.89,86.41a58.63,58.63,0,0,1,1.87,5.72c.26.9.52,1.8.76,2.72l-.1,0a46.32,46.32,0,0,1,1.07,9.66h0c0,14.2-15.66,34-35.25,55.69-18.61,20.57-39.91,43-51.24,67.87h13.19c10.73-20.45,29.59-40.73,47-59.91,14.82-16.38,29-31.82,35.14-47.7C268.85,117.52,171.45,2,120.83,2Zm.51,86.12c-24.77,13.68-54.46,33.23-72.77,56.14,6.22,52.82,37.78,93,75.77,93s69.33-39.92,75.7-92.49c-18.53-26.79-50-46.4-78.7-56.67ZM84,141c.52,0,1,0,1.56,0a74.85,74.85,0,0,1,25,4.74c-10.79,25.83-37.77,26.7-50,0A66.5,66.5,0,0,1,84,141Zm80,0a66.27,66.27,0,0,1,25,4.74c-12.26,26.7-39.25,25.83-50,0A74.85,74.85,0,0,1,164,141Z"/><path class="cls-2" d="M154.12,306.06h-17.5l1.28-2.82c10.61-23.3,30.12-44.77,47.34-63.72l4.24-4.67c18-19.93,34.73-40.32,34.73-54.35a43.88,43.88,0,0,0-1-9.24l-.37-1.74c-.08-.29-.17-.57-.25-.86q-.74-2.73-1.82-5.58c-19.62-54.56-80.48-79-98.66-85.22l-1.68-.57-1.53.83C86,96,40.55,124.33,25.93,163a53,53,0,0,0-2.29,7.05c-.13.48-.25,1-.37,1.43l-.12.82a36.2,36.2,0,0,0-.66,6.71c0,14.37,14.81,34.8,30.82,54.72,1.6,2,3.24,4,4.88,6.05,15.28,18.9,32.59,40.33,43.19,63.45l1.3,2.83H85.15L84.59,305c-9.81-19.23-24.82-37.84-39.33-55.83l-4.42-5.48C27.19,226.67,14.3,210.62,9,194c-22.31-53.83,1.88-103.11,18.3-127.7C53,27.9,92.29,0,120.83,0h0C147.07,0,186,30.11,213.32,71.6c29.8,45.2,38.37,91,23.52,125.64-6.1,15.77-19.86,31-34.42,47.06l-4,4.47C181.81,267,164.69,285.93,154.68,305Zm-11.24-4h8.83c10.3-19.14,27.27-37.86,43.7-56l4-4.46c14.31-15.81,27.83-30.74,33.69-45.89C247.48,162.28,239,117.86,210,73.8,183.32,33.35,145.82,4,120.83,4h0C93.53,4,55.6,31.15,30.63,68.56c-16,23.94-39.56,71.88-17.9,124l.06.17c5.05,15.89,17.74,31.68,31.17,48.4,1.45,1.82,2.93,3.64,4.41,5.48,14.37,17.81,29.22,36.22,39.23,55.43h8.8c-10.48-21.6-26.83-41.83-41.32-59.76l-4.89-6.06c-16.46-20.5-31.7-41.62-31.7-57.23a39.57,39.57,0,0,1,.41-5.55l-.12,0,.38-2c.19-.8.39-1.6.61-2.4a56.75,56.75,0,0,1,2.43-7.5C37.28,121.67,83.51,92.83,117,74.61L120,72.94l3.33,1.14a199.38,199.38,0,0,1,59.25,32.05c20.36,16.23,34.45,34.93,41.88,55.57a61.68,61.68,0,0,1,1.91,5.88c.26.88.52,1.8.76,2.73l.51,1.95-.22.05a46.81,46.81,0,0,1,.75,8.19c0,15.39-17.19,36.51-35.77,57l-4.24,4.67C171.09,261,153.43,280.48,142.88,302.06Zm-18.54-62.78c-38.58,0-71.28-39.86-77.76-94.79l-.1-.83L47,143c19.06-23.85,50.42-44,73.36-56.64l.79-.44.85.31c33.26,11.9,63,33.36,79.67,57.42l.44.62-.1.75C195.4,199.64,162.73,239.28,124.34,239.28ZM50.65,144.86c3.09,25,12.11,47.91,25.45,64.46,13.49,16.74,30.62,26,48.24,26,36.16,0,67-37.79,73.62-90-16.12-22.94-44.58-43.42-76.45-55C99.17,102.71,69.14,122.07,50.65,144.86ZM163.72,167.4h-.41c-11-.19-20.75-8-26.14-20.93l-.81-1.94,2-.71A77.24,77.24,0,0,1,164,139h0a69.44,69.44,0,0,1,25.76,4.87l2,.78-.88,1.92C184.85,159.63,174.73,167.4,163.72,167.4Zm-22-20.53c4.87,10.24,12.85,16.37,21.65,16.53h.34c8.87,0,17.17-6.14,22.57-16.6A65.27,65.27,0,0,0,164.05,143h0A72.19,72.19,0,0,0,141.73,146.87ZM85.9,167.4c-11,0-21.13-7.77-27.14-20.87l-.88-1.92,2-.78A68.84,68.84,0,0,1,84,139h1.61a77.19,77.19,0,0,1,25.68,4.86l2,.71-.81,1.94c-5.4,12.91-15.17,20.74-26.15,20.93ZM63.34,146.8c5.39,10.46,13.7,16.6,22.57,16.6h.33c8.8-.15,16.78-6.29,21.66-16.53A72.19,72.19,0,0,0,85.58,143H84.06A64.13,64.13,0,0,0,63.34,146.8Z"/></g></g></svg>