<svg xmlns="http://www.w3.org/2000/svg" viewBox="0 0 243.89 306.06"><defs><style>.cls-1{fill:#df0b13;stroke:#fff;stroke-miterlimit:10;stroke-width:4px;fill-rule:evenodd;}</style></defs><title>Bandit</title><g id="Layer_2" data-name="Layer 2"><g id="Layer_1-2" data-name="Layer 1"><path class="cls-1" d="M120.73,2C68.62,2-27.5,101.16,10.79,193.35c5.11,16.08,17.84,32,31.51,49.05,15.66,19.5,33.06,40.25,44,61.66H99.46c-11.61-25.33-31.1-48.28-47.8-69.07-17.56-21.86-31.27-41.54-31.27-56a38,38,0,0,1,.7-7.08l-.08,0c.19-.78.39-1.56.59-2.34A55.92,55.92,0,0,1,24,162.29c14.78-39.07,60.31-67.65,93.86-85.92l2.3-1.26,2.51.86c39,13.3,84.09,42.48,99.89,86.41.72,1.91,1.35,3.82,1.86,5.72.27.9.52,1.8.76,2.72l-.1,0a45.68,45.68,0,0,1,1.08,9.66h0c0,14.2-15.66,34-35.26,55.69-18.61,20.57-39.9,43-51.23,67.87h13.19c10.73-20.45,29.59-40.73,46.94-59.91,14.82-16.38,29-31.82,35.14-47.7C268.75,117.52,171.35,2,120.73,2Zm.51,86.12c-24.77,13.68-54.46,33.23-72.77,56.14,6.23,52.82,37.79,93,75.78,93s69.32-39.92,75.69-92.49c-18.52-26.79-50-46.4-78.7-56.67ZM83.94,141c.52,0,1,0,1.56,0a74.85,74.85,0,0,1,25,4.74c-10.79,25.83-37.78,26.7-50,0A66.56,66.56,0,0,1,83.94,141Zm80,0a66.22,66.22,0,0,1,25,4.74c-12.26,26.7-39.24,25.83-50,0a74.84,74.84,0,0,1,25-4.74Z"/></g></g></svg>