<svg xmlns="http://www.w3.org/2000/svg" viewBox="0 0 320.89 300.21"><title>Banshee</title><g id="fed10a66-fbe7-482e-9b50-443df2c05490" data-name="Layer 2"><g id="b15dfb19-7096-4448-b322-bca8be19abff" data-name="Layer 1"><path d="M120.75,132.47s-41.17,94.82-65.22,97.6-17.11,59.2-17.11,59.2,3.23-37.47,10.63-41.63,51.35,2.78,68-12.95,56.43-15.26,56.43-15.26-63.37,44.4-92,38.85-26.82,33.77-26.82,33.77,10.63-31,23.58-28.68,101.3-16.65,97.6-24.52,24.46-26.51,24.46-26.51l-37.1-75.55,2.47-87Z" style="fill:#414b4f"/><path d="M38.61,300.21l-1.32-10.8c-.2-1.59-4.64-39,7.34-54.22a15.71,15.71,0,0,1,10.77-6.26c23.13-2.67,63.89-96,64.3-96.92l0-.09,47.14-86.83-2.59,91.45,37.42,76.19-.84.56c-10.57,7-26.45,20-24.06,25.08a2.53,2.53,0,0,1-.45,2.74c-7.24,9.46-86.95,25.43-98.38,23.38-9.82-1.74-19.43,19.56-22.31,27.93l-1.93,5.63-.28-5.95c0-.88-.89-21.58,10-31,4.67-4,10.79-5.37,18.18-3.94,24.28,4.7,74.9-27.75,88-36.52-10.27.35-38.7,2.47-51.84,14.88-11.34,10.71-34.37,11.19-51.19,11.54-7.93.17-14.77.31-17,1.57-5,2.84-8.78,25.92-10.06,40.74Zm37.57-41.32A16.59,16.59,0,0,0,65,262.82c-6.46,5.59-8.43,15.94-9,22.69,4-9.16,12.39-25,22.45-23.26,11.71,2.1,86.66-13.88,95.72-22.05.63-.58.64-.85.64-.85-3.75-8,18.72-23.81,24-27.41L162,137v-.29l2.33-82.19L121.77,133c-2,4.51-41.77,95.42-66.11,98.23a13.47,13.47,0,0,0-9.24,5.4c-7.24,9.2-8.07,27.75-7.71,40.16,1.64-11.58,4.74-27.27,9.79-30.11,2.75-1.55,9.18-1.68,18.09-1.87,16.45-.34,39-.81,49.68-10.92,16.79-15.86,55.58-15.59,57.22-15.57l3.54,0-2.9,2c-2.44,1.71-56.8,39.54-87.28,39.54a29.71,29.71,0,0,1-5.63-.5A26.75,26.75,0,0,0,76.18,258.89Z" style="fill:#fff"/><path d="M170.87,192s12.45,45.2-11,63.14c0,0,59,46.59,75.07,20.29S255.44,234,255.44,234l-45.3-6.8Z" style="fill:#22353a"/><path d="M219.13,284.59c-23.51,0-58.43-27.35-60-28.59l-1.16-.91,1.17-.89c22.61-17.26,10.75-61.48,10.63-61.92l-1-3.74,41.91,37.56L256.91,233l-.38,1.26c-.18.62-4.71,15.59-20.66,41.71a17.2,17.2,0,0,1-12.19,8.2A25.86,25.86,0,0,1,219.13,284.59Zm-57.45-29.5c6.72,5.09,41.48,30.47,61.6,26.87a15.05,15.05,0,0,0,10.65-7.15c13.22-21.65,18.58-35.79,20-39.92l-44.3-6.64-.26-.23-36.55-32.76C175.23,206.26,180.5,239.27,161.68,255.09Z" style="fill:#fff"/><path d="M303.41,70.79,293.15,107c-1-11-2.36-12-3.59-22-2.13-17.4-1.56-35-9.82-52.47H153.54c7.69,17.5,8.27,35.07,6.13,52.47-1.23,10-2.61,21.16-3.59,32.21L137.86,70.79s1.23,61.05,1.85,76.49c.31,7.61,3.61,14.56,7.68,20.86,11,17,27.79,39,40.94,54.38,2.95,2.19,38.4,33.5,38.4,33.5a.76.76,0,0,0,.28,0c9.89-6.68,40.13-34.85,45.7-43.59,6.56-10.22,12.58-20.76,19.53-30.72,7.33-10.47,16.75-20.9,17.29-34.38C310.14,131.84,303.41,70.79,303.41,70.79ZM178.73,144.55c-6-6.05-7.29-14.52-2.82-19s12.93-3.19,19,2.83,7.28,14.52,2.86,19S184.74,150.57,178.73,144.55ZM227,215.62h-2c-13.35-.17-19.69-2.7-25.6-12.79C210.61,188.74,211.72,190,226.19,190c14.11-.07,15.29-1.18,26.42,12.79C241.75,215.63,240.36,215.45,227,215.62Zm43.49-71.07c-6,6-14.53,7.3-19,2.83s-3.16-12.93,2.86-19,14.49-7.28,19-2.83S276.52,138.5,270.5,144.55Z" style="fill:#2f4a51"/><path d="M226.73,257.16h-.44l-.32-.29c-.35-.31-35.44-31.3-38.32-33.43l-.19-.18c-14.24-16.66-30.73-38.56-41-54.5-5.09-7.89-7.59-14.7-7.86-21.44-.61-15.27-1.83-75.9-1.85-76.51l-.12-6.37,18.79,47.92c.93-9.4,2.08-18.78,3.12-27.19l0-.28c2.5-20.32.58-36.8-6-51.87l-.7-1.6H280.46l.31.66c6.41,13.57,7.59,27.29,8.72,40.56.35,4,.71,8.18,1.2,12.25a91.77,91.77,0,0,0,1.69,9.61c.44,2,.86,3.94,1.25,6.62L303.9,64.87l.64,5.79c.28,2.5,6.74,61.31,6.12,76.66-.46,11.67-7.27,21-13.86,30-1.23,1.69-2.46,3.35-3.63,5-4.39,6.29-8.48,12.94-12.44,19.37-2.29,3.72-4.66,7.56-7.06,11.31-5.85,9.18-36.59,37.54-46,43.92l-.14.08A1.87,1.87,0,0,1,226.73,257.16Zm-37.62-35.47c3.38,2.6,33.12,28.84,37.8,33,10.7-7.49,39.55-34.59,44.84-42.89,2.4-3.73,4.76-7.56,7-11.27,4-6.46,8.09-13.14,12.52-19.49,1.18-1.68,2.41-3.37,3.65-5.06,6.39-8.73,13-17.75,13.43-28.72.49-12.37-3.83-54.84-5.49-70.48l-10.34,36.5-.54-6.16A82.31,82.31,0,0,0,290.15,95a94.24,94.24,0,0,1-1.72-9.82c-.5-4.11-.86-8.29-1.21-12.34C286.12,60,285,46.7,279,33.7H155.27c6.24,15,8,31.44,5.53,51.47l0,.27c-1.21,9.83-2.58,21-3.55,31.9l-.43,4.83-17.66-45c.34,16.07,1.23,57.79,1.72,70.08.25,6.31,2.64,12.76,7.5,20.29A569.51,569.51,0,0,0,189.11,221.69Z" style="fill:#fff"/><path d="M178.73,144.55c-6-6.05-7.29-14.52-2.82-19s12.93-3.19,19,2.83,7.28,14.52,2.86,19S184.74,150.57,178.73,144.55Z" style="fill:none;stroke:#fff;stroke-miterlimit:10;stroke-width:2px"/><path d="M227,215.62h-2c-13.35-.17-19.69-2.7-25.6-12.79C210.61,188.74,211.72,190,226.19,190c14.11-.07,15.29-1.18,26.42,12.79C241.75,215.63,240.36,215.45,227,215.62Z" style="fill:none;stroke:#fff;stroke-miterlimit:10;stroke-width:2px"/><path d="M270.5,144.55c-6,6-14.53,7.3-19,2.83s-3.16-12.93,2.86-19,14.49-7.28,19-2.83S276.52,138.5,270.5,144.55Z" style="fill:none;stroke:#fff;stroke-miterlimit:10;stroke-width:2px"/><path d="M293.15,117.24s-14.67-71.73-65.55-31c-83.71,67-80.49,107.31-96.21,122.12s-74.93,9.25-58.28,71.23c0,0-37.93-39.78,29.6-78.64,0,0,32.38-1.85,32.38-20.35s71.23-136,103.61-115.63c0,0,8.32-8.33-9.25-9.25-56.55-3-121.19,69.38-112.86,110.08,0,0-1.85,28.68-59.21,45.33,0,0-18.5-1.85-27.75,32.38,0,0-2.31-49.49,23.59-52.27,6.29-.68,17.45-20.86,7.54-23.26a12.72,12.72,0,0,0-4.84,0c-9.37,1.41-17.93,5.29-26.57,9-4.45,1.89-16.79,5.9-17.3,11.94,0,0,5.55-62.91,50-53.66,0,0-5.09-42.09,33.3-71.23,0,0-32.38-22.2-50.88,5.55s-40.7,0-40.7,0,19.42,8.33,30.52,0S64.78,22.38,87,34.41c0,0,68.46-54.58,107.31-24,0,0,90.08-7.4,100.26,27.75.12.41,4.6,2.2,5.13,2.54A31.53,31.53,0,0,1,309.91,52.4c7.2,13.47,7.21,29.64,6.6,44.5-.64,15.22,7,31,.86,45.24-9.17,21.29-21.57,41.32-35.19,60,0,0-12.34,18.5-30.22,40.09,0,0,16.34-37.62,39.47-70C291.43,172.25,316.15,138.09,293.15,117.24Z" style="fill:#4f5b61"/><path d="M75.37,283.58l-3.09-3.24c-.54-.57-13.34-14.24-10.53-33.66,2.46-17,16-32.74,40.39-46.74l.24-.14h.26c.32,0,31.31-2,31.31-19.22,0-15.62,46.54-95.18,82-114.77,8.86-4.89,16.42-5.67,22.5-2.33.6-.81,1.41-2.2,1-3.36s-2.25-2.88-10-3.29C196.05,55.06,163,79.06,143.14,102.1c-19.15,22.24-28.89,46.55-25.44,63.44l0,.15v.16c-.08,1.2-2.56,29.66-60,46.34l-.21.07-.22,0c-.16,0-17.69-1.21-26.54,31.55l-1.9,7-.34-7.27c-.1-2.06-2.06-50.59,24.61-53.45,3.51-.39,10-9.53,10.44-16,.28-4.23-2.22-4.83-3-5a11.68,11.68,0,0,0-4.41.06c-8.51,1.28-16.54,4.71-24.31,8l-2,.85c-.59.25-1.32.54-2.14.86-4.9,1.94-14,5.55-14.47,10.07V189h0l-2.27-.2v-.09c.22-2.32,3.64-34.94,22.76-49.11C41.3,134,50.4,132,60.76,133.84A84.5,84.5,0,0,1,93.32,64.11c-4.11-2.46-17-9.28-29.66-6.84C56.29,58.7,50.14,63,45.38,70.19,39.91,78.4,33.55,82.71,26.46,83c-12.84.51-23.19-12.2-23.62-12.75L0,66.73l4.17,1.79c.19.08,19,8,29.4.13C36.46,66.48,40,62.08,44.11,57c11-13.66,26-32.3,42.75-23.92A207.91,207.91,0,0,1,125.6,9.9c29-12.95,52.81-13.2,69-.71,7.65-.59,90.41-6.09,100.91,28.26.56.34,2.05,1,2.9,1.37a16.35,16.35,0,0,1,1.85.88,32.63,32.63,0,0,1,10.61,12.16c7.37,13.79,7.34,30.51,6.73,45.09-.23,5.62.71,11.46,1.61,17.11,1.53,9.53,3.11,19.38-.84,28.53-8.34,19.37-19.89,39.07-35.31,60.24-.1.15-12.55,18.76-30.27,40.14l-5.12,6.18,3.2-7.36c.17-.38,16.66-38.1,39.59-70.2.24-.34,23.86-33.59,1.89-53.51l-.28-.25-.07-.36c-.07-.34-7.16-33.83-27.5-41.18-10.38-3.76-22.57-.11-36.23,10.81-59.13,47.31-74.93,81.7-84.36,102.26-4.09,8.9-7,15.33-11.78,19.8-4.48,4.21-11.95,6.71-20.6,9.61-21.92,7.34-49.19,16.47-37.36,60.49Zm27.68-81.53c-23.56,13.6-36.7,28.73-39,45-1.77,12.25,3.21,22.25,6.74,27.58-8.8-41.6,19.34-51,40.11-58,8-2.7,15.64-5.24,19.76-9.11,4.41-4.16,7.29-10.43,11.27-19.1,9.52-20.73,25.45-55.43,85-103.08,14.33-11.45,27.26-15.22,38.44-11.17,20.6,7.45,28,38.55,28.87,42.49,23,21.31-1.59,55.93-1.84,56.28-16.38,22.93-29.46,48.76-35.58,61.61,14.56-18.2,24.35-32.84,24.46-33,15.34-21.07,26.81-40.63,35.09-59.84,3.68-8.54,2.22-17.64.68-27.27-.92-5.76-1.88-11.72-1.63-17.56.59-14.29.63-30.64-6.47-43.92a30.31,30.31,0,0,0-9.85-11.33c-.15-.09-.91-.43-1.52-.7-3.42-1.52-3.87-1.8-4.07-2.48-9.81-33.86-98.18-27-99.07-26.94l-.45,0-.35-.28c-37.7-29.61-105.22,23.51-105.9,24l-.59.47-.66-.36c-15.35-8.31-29.33,9.05-40.55,23-4.2,5.22-7.83,9.72-11,12.06-8.24,6.18-20.51,3.76-27.1,1.76,3.88,3.63,10.84,8.89,18.53,8.51,6.31-.28,12.07-4.25,17.11-11.81S55.25,56.57,63.24,55c16.19-3.13,32.05,7.59,32.71,8l1.3.9-1.25,1c-37.4,28.39-32.91,69.77-32.86,70.19l.19,1.57-1.56-.32c-10.3-2.14-19.3-.44-26.73,5.07C20.78,152,15.61,173.51,13.92,183.59c3.43-3.09,9-5.31,12.9-6.84.8-.31,1.51-.6,2.09-.84l2-.85c7.9-3.38,16.07-6.87,24.86-8.2a13.76,13.76,0,0,1,5.28,0c3.34.81,5,3.44,4.79,7.4-.48,7.41-7.48,17.56-12.48,18.1-18.52,2-22,29.79-22.52,43.52,9.34-25.8,24.27-26,26.44-25.91,53.58-15.62,57.92-42,58.17-44.12-3.55-17.82,6.15-42.18,26-65.21,20.19-23.45,53.91-47.86,88.1-46.07,7,.37,10.93,1.92,12,4.75,1.21,3.16-1.89,6.31-2,6.44l-.64.65-.77-.49c-5.47-3.44-12.55-2.8-21.05,1.9-34.6,19.12-80.81,98.6-80.81,112.77C136.23,199.21,106.46,201.81,103.05,202.05Z" style="fill:#fff"/></g></g></svg>