<svg xmlns="http://www.w3.org/2000/svg" viewBox="0 0 170.3 316.6"><defs><style>.cls-1{fill:#df0b13;}.cls-2{fill:#fff;}</style></defs><title>Barbarian</title><g id="Layer_2" data-name="Layer 2"><g id="Layer_1-2" data-name="Layer 1"><path class="cls-1" d="M38.38,4c.74,9.91,1,17.92,2,25.81,1.34,10.12,8.27,15.52,17.39,18.69,4.07,1.41,9.09,1.64,9.68,7.6,0,.39,1.25.67,1.49.79,3.84-7.62,7.38-15.08,11.39-22.28.78-1.39,3.37-2.4,5.15-2.43,1.45,0,3.39,1.34,4.33,2.65A80.24,80.24,0,0,1,97.44,46.9c1.43,3,1.63,6.54,2.49,10.36,1.28-.68,3-1.13,3-1.67.26-5,4.18-5.34,7.68-6.54,19.05-6.52,20.12-14.38,21.21-34.61.16-3-.36-6.08-.61-9.88,21.92,20.46,35.67,44,37.3,73.74.19,3.46-1,5-4.18,5.82a26.64,26.64,0,0,0-9.51,4.63l13.95,3.08c-.35,32.37-13.81,58.24-36.74,79.57,0-6,.11-12.14,0-18.23a37.77,37.77,0,0,0-10.94-25.95c-2.35-2.42-6.79-2.93-10.36-4-2.56-.78-5.26-1.07-8.86-1.77C98,129.17,91.4,136.85,93,148.2c1.22,8.88.5,18,.6,27.07,0,4.07-.74,8.34,3.4,11.24.55.39.71,1.72.63,2.58-1,10.43-2.75,20.84-2.94,31.29-.51,26.91-.35,53.82-.38,80.74,0,2.85.47,5.7.74,8.79-10.21,6.95-10.21,6.95-20.26-.35,2.81-10.34.59-115-1.29-118.68,1.28-7.17,2.66-12,2.92-16.93.56-10.58,1.65-21.32.39-31.75-.9-7.52-5.23-14.63-7.88-21.53-3.47,1.16-5.66,2.67-7.63,2.42-10.16-1.26-14.49,5.53-18,12.93-5,10.35-6.59,21.29-3.93,32.67a24.52,24.52,0,0,1,0,4c-9.5-10.79-19.34-19.83-24.83-32.25-.65-1.46-.17-3.81.56-5.39,1.92-4.18,4.26-8.17,7.2-13.68L8.37,128c-1.85-7-4.07-13.43-5.23-20.07-3-17-1.71-33.92,2.61-50.68,1.21-4.68,2.9-7.37,8.07-7.08,2.08.12,4.19-.44,7.36-.82-1.82-2.81-2.9-5.09-4.53-6.86-3.42-3.73-3.18-7.15-.12-10.94C23.63,22.7,30.6,13.79,38.38,4Z"/><path class="cls-2" d="M84.91,316.6c-2.87,0-5.67-1.93-11-5.82l-.84-.61.27-1C76.07,299,74,196.86,72.09,191.49l-.23-.45.12-.43c.44-2.43.89-4.64,1.29-6.58a69.07,69.07,0,0,0,1.61-10.15c.1-1.94.22-3.88.34-5.82.53-8.5,1.07-17.29.06-25.68-.6-5-2.84-9.94-5-14.72-.76-1.67-1.54-3.38-2.24-5.08-.63.24-1.22.49-1.77.72-1.88.8-3.51,1.49-5.18,1.28-8.45-1-12.45,3.64-16.51,12.09-5,10.42-6.3,21.08-3.82,31.68a9.12,9.12,0,0,1,.11,2.4c0,.52,0,1.16,0,2v4l-2.62-3c-1.95-2.21-3.94-4.37-5.86-6.47-7.59-8.27-14.76-16.08-19.22-26.17-.9-2-.26-4.83.57-6.62,1.36-3,2.92-5.83,4.74-9.14.1-.2.21-.4.32-.6L7.38,130.08l-.46-1.74c-.58-2.19-1.21-4.36-1.82-6.46a132.49,132.49,0,0,1-3.44-13.73c-2.88-16.46-2-33.24,2.64-51.31,1.08-4.17,2.79-8.57,9.6-8.21a20,20,0,0,0,4.15-.39l.64-.1c-.14-.23-.28-.46-.41-.69a24.49,24.49,0,0,0-2.74-4c-3.78-4.13-3.84-8.35-.18-12.89,5-6.21,9.93-12.45,15.15-19.07,2.18-2.76,4.4-5.58,6.7-8.48l2.38-3,.29,3.84c.24,3.19.42,6.19.59,9.06.38,6.1.7,11.36,1.41,16.67C43,38,48.2,43.54,58.27,47c.67.23,1.37.43,2.07.63,3.19.91,7.07,2,8.29,6.47.65-1.3,1.29-2.58,1.92-3.87,2.83-5.69,5.5-11.07,8.48-16.43,1.08-1.93,4.17-3.16,6.43-3.2,2.08,0,4.41,1.66,5.58,3.28A81.18,81.18,0,0,1,98.8,46.26a27.32,27.32,0,0,1,1.93,7.18c.09.55.19,1.12.3,1.68l.47-.21c.52-4.83,4.17-5.92,7.12-6.8.51-.15,1-.31,1.52-.48,17.9-6.12,19.1-12.87,20.2-33.27a42.42,42.42,0,0,0-.3-6.1c-.11-1.13-.23-2.32-.31-3.6L129.47.88l2.78,2.58c23.89,22.3,36.24,46.75,37.78,74.76.22,4.06-1.36,6.26-5.28,7.35A27.06,27.06,0,0,0,158.6,88l11.7,2.59v1.22c-.34,31.29-12.52,57.67-37.22,80.65l-2.52,2.34V171.4c0-1.87,0-3.75,0-5.63,0-4.12.05-8.38,0-12.57A36,36,0,0,0,120,128.26c-1.46-1.51-4.21-2.2-6.87-2.86-.95-.24-1.93-.48-2.85-.76a42.59,42.59,0,0,0-5.39-1.14l-2.21-.39c-.69,1.32-1.44,2.62-2.23,4-3.52,6.13-7.17,12.46-6,20.91a127,127,0,0,1,.67,19.18c0,2.65-.08,5.39,0,8.07,0,.61,0,1.21,0,1.82-.07,3.84,0,6.29,2.77,8.21,1.49,1.05,1.29,3.65,1.26,3.95-.32,3.5-.75,7-1.16,10.47a207,207,0,0,0-1.77,20.71c-.4,20.84-.39,42-.38,62.55q0,9.07,0,18.16a49.7,49.7,0,0,0,.44,5.7c.11,1,.22,1.95.31,3l.08.87-.73.5C90.54,314.77,87.7,316.6,84.91,316.6Zm-8.49-7.68c4.25,3.08,6.49,4.62,8.43,4.66s4.23-1.45,8.59-4.41c-.07-.68-.15-1.35-.22-2a51.81,51.81,0,0,1-.46-6q0-9.08,0-18.16c0-20.52,0-41.74.38-62.61.13-7,1-14.14,1.79-21,.41-3.41.83-6.93,1.16-10.39a3.33,3.33,0,0,0-.13-1.3c-4.06-2.94-4-7-3.92-10.63,0-.58,0-1.16,0-1.73,0-2.72,0-5.49.06-8.16a125.77,125.77,0,0,0-.65-18.73c-1.3-9.46,2.78-16.55,6.38-22.8,1-1.67,1.87-3.25,2.67-4.85l.51-1,1.12.22c1.17.22,2.25.41,3.25.58a45.59,45.59,0,0,1,5.75,1.23c.85.26,1.75.48,2.7.72,3.07.76,6.25,1.56,8.31,3.69a39.43,39.43,0,0,1,11.36,26.95c.1,4.23.07,8.51,0,12.66,0,.7,0,1.4,0,2.1,22.06-21.51,33.1-46,33.71-74.86l-15.88-3.51,2.53-2a28.12,28.12,0,0,1,10-4.89c2.56-.7,3.23-1.63,3.08-4.29-1.42-26.06-12.54-49-34-70a40,40,0,0,1,.27,6.13c-1.1,20.54-2.34,29.15-22.22,36-.54.18-1.09.35-1.63.51-3.2,1-4.88,1.6-5,4.68-.07,1.3-1.28,1.81-2.57,2.36-.41.17-.85.36-1.24.57l-1.74.92-.43-1.92c-.28-1.25-.5-2.46-.7-3.63a25.13,25.13,0,0,0-1.68-6.41,79.56,79.56,0,0,0-7.48-11.89,5.19,5.19,0,0,0-3.08-2h0c-1.44,0-3.42.88-3.86,1.66-3,5.3-5.6,10.64-8.41,16.3q-1.45,3-2.95,5.92l-.67,1.34-1.46-.7c-.77-.26-2.07-.68-2.19-1.95-.37-3.73-2.69-4.58-6.45-5.65-.76-.22-1.51-.44-2.23-.69C46.18,46,40.17,39.5,38.9,30c-.72-5.41-1-10.72-1.42-16.88-.1-1.67-.21-3.39-.32-5.16l-4.3,5.44C27.64,20,22.71,26.24,17.7,32.45c-2.72,3.37-2.7,6,.06,9a26.94,26.94,0,0,1,3.09,4.48c.48.8,1,1.66,1.59,2.58l1.31,2-2.39.28c-1.05.13-2,.28-2.85.41a22.54,22.54,0,0,1-4.77.43c-3.83-.22-5.29,1.12-6.53,6-4.55,17.64-5.4,34-2.6,50A127.7,127.7,0,0,0,8,121c.45,1.56.92,3.17,1.37,4.79L25.7,118.1l-2.13,4c-.9,1.68-1.74,3.21-2.52,4.65-1.79,3.26-3.33,6.08-4.65,8.95a6.21,6.21,0,0,0-.55,4.16c4.26,9.64,11.27,17.27,18.69,25.36,1.06,1.15,2.14,2.32,3.22,3.51-2.54-11.18-1.16-22.4,4.1-33.36,3.56-7.4,8.29-15.17,19.59-13.77a8.5,8.5,0,0,0,3.64-1.06c1-.41,2-.87,3.32-1.29l1.36-.46.52,1.34c.79,2.06,1.72,4.12,2.71,6.29,2.27,5,4.61,10.14,5.26,15.6,1,8.66.49,17.59,0,26.22-.12,1.93-.24,3.87-.34,5.79a72,72,0,0,1-1.67,10.6c-.38,1.84-.81,3.92-1.22,6.19,1.57,6.76,2.34,54.76,2.38,56.88C77.56,260,78,299.57,76.42,308.92Z"/></g></g></svg>