<svg xmlns="http://www.w3.org/2000/svg" viewBox="0 0 341.5 433.78"><title>Barbed-Devil</title><g id="ac9c246d-e057-4587-a37d-ed8b0dd0ad1b" data-name="Layer 2"><g id="bcd7971e-bb30-4a88-b213-b80232589f9d" data-name="Layer 1"><path d="M107.72,376.84c2.18-1.13,3.47-1.93,3.47-1.93C110.31,374.91,109.05,375.71,107.72,376.84Zm0,0c2.18-1.13,3.47-1.93,3.47-1.93C110.31,374.91,109.05,375.71,107.72,376.84Zm0,0c2.18-1.13,3.47-1.93,3.47-1.93C110.31,374.91,109.05,375.71,107.72,376.84Zm0,0c2.18-1.13,3.47-1.93,3.47-1.93C110.31,374.91,109.05,375.71,107.72,376.84Zm209.8,22.07c2.18-4.91-19.1-18-19.1-18-4.9-2.72-6.54-9.27-6.54-9.27-16.37-10.37-18.55-22.92-18.55-22.92,18-18.54-2.72-36.53-2.72-36.53l9.82-2.74-15.27-7.08-31.65-35.46,12-8.19-19.62,2.2c-13.66-8.73-10.37-13.09-10.37-13.09l7.08-19.65-12,10.37-10.91-24,4.37-5.45s39.27-19.1,53.46-22.37,39.81,4.36,39.81,4.36c-12-12.55-33.82-8.19-37.09-12.55s27.27-2.18,27.27-2.18c-11.46-7.09-30.54-3.81-30.54-3.81l-7.64-15.83c10.91-4.36,7.64-29.45,7.64-29.45,0,13.09-14.18,21.82-14.18,21.82C231.33,124.55,204.61,94,200.25,84.73c-4.26-9,4.44-35.19,4.89-36.5l-12.53,24c-6.56-8.73-25.1-9.82-25.1-9.82,8.19-8.73,8.19-55.63,8.19-55.63-5.46,42-20.19,47.44-20.19,47.44,1.48-3-3.71-21.48-4.72-25C151.86,34.4,147.33,52,147.33,52,142,27.13,116.77,7.31,107.59.82c4.66,4.8,7.9,15.41,9.69,22.88a22.89,22.89,0,0,1-1.5,15l-2.79,6a22.59,22.59,0,0,0-1.83,6.25,15.78,15.78,0,0,1-7.47,11.49C95.75,67.12,72.39,23.07,71,20.49c7.45,17.82,7,37,7,37C89.51,73.27,98.25,83.64,98.25,85.82c0,47-21.83-13.24-21.83-13.24v16c13.09,32.74,11.46,36.55,4.91,35.46S69.87,98.36,69.87,98.36c-4.36,15.27,8.73,34.37,8.73,34.37,0,8.18-8.19,13.64-8.19,13.64-12.54,2.72-19.62,22.35-19.62,22.35l-13.64-16.9c9.28,11.45,5.45,22.37,5.45,22.37C31.14,179.63,35,196,35,196l-26.72,7.1,28.9-.54L29,222.19,42.6,211.28c13.09,0,31.1-24,38.18-37.09s30-24.55,30-24.55c-3.83,11.45,7.63,20.72,7.63,20.72-14.18,32.19,2.72,55.64,2.72,55.64s-8.17,7.63-12,17.45S89,269.63,89,269.63C80.78,270.18,63.88,304,63.88,304c-12.55,1.64-26.73-16.36-26.73-16.36,1.64,12,19.08,22.9,19.08,22.9l-3.81,4.38c7.6,0,26.79,13.18,37.77,21.23a5.48,5.48,0,0,1-1,9.42c-9,4.05-18.3,9.71-19.91,9.71-2.18,0-28.91-3.82-28.91-3.82l15.81,7.09c-15.81,6-24.54,21.82-24.54,21.82-13.64.54-22.9,12-22.9,12l21.26-6.55s-10.36,10.36-10.36,13.09,9.82-3.82,9.82-3.82c22.06,20.47,84.49-1,86.15-1.61a126.21,126.21,0,0,0-15.23,10.89l-22.92,4.36c-12.54-1.63-10.36,8.19-10.36,8.19l6.55-1.64,1.09,5.45c2.72-3.27,10.37-2.72,10.37-2.72l1.09,5.44L96.6,419.1l-.55,12,7.1-7.65c15.81-.54,12-7.62,12-7.62A224.73,224.73,0,0,1,149.52,406c19.08-3.82,2.18-18.56,2.18-18.56,33.26-8.72,58.9,0,58.9,0-12.34-13.94-53.68-6.26-55.06-6l7.62-7.62-17.47,6c-3.24-2.88-9.81-13.13-13.89-19.77a5.32,5.32,0,0,1,3-7.87l13.11-4-4.9,9.28,16.9-8.19,12-1.09-9.8,8.73,18.53-6.54,60,4.36c20.72-1.63,33.81,26.73,33.81,26.73l-2.72,4.36,6.55,5.46,2.82,12.88a7.29,7.29,0,0,0,5.54,5.58l5.27,1.17c.55,5.46,8.18,8.73,8.18,8.73l2.74-7.1,13.63,8.19v-7.64L330.07,418s1.09-6,.54-8.19,9.26,0,9.26,0C337.69,404.37,317.52,398.91,317.52,398.91ZM189.34,156.45l13.09-18.81-15.56,11.85c-2.84-14.9,1-21.93,5.19-25.25a6.54,6.54,0,0,1,9.89,2.49c2.77,5.83,7.56,14.51,12.34,16.63,7.37,3.28,18.82,25,18.82,25-5.32,10.64-8.6-2-8.6-2l-3.67,13.51-7.77,3.27-2.47-10.64-4.5,16.36-11.44,6.95c-7,6.55-9-18.39-9-18.39l20-27ZM161.06,75.77s2.18,12.08-9.49,9.6C151.57,85.37,151.31,81.68,161.06,75.77ZM119,80.35l20,6.56C128.37,99.18,119,80.35,119,80.35Zm-.4,302.34-17.19.82a60.38,60.38,0,0,1,6.35-6.67c-5.28,2.76-15.74,7.49-25.58,7.49-1.63,0-69.95,4.08,29.05-26.6C111.19,357.73,120.6,360.6,118.56,382.69Zm82.23-63-19.22-21.28,9,22.1-5.73.4L163.56,302.1l10.64,20L149.25,325l-29.47-10.64,18.41,13.49-16.77,4.92c.57-5.19-11.44-12.85-18.57-16.9a8,8,0,0,1-3.32-10.19c6.54-14.6,28.44-35.91,28.44-35.91-2,16.36,6.95,33.53,6.95,33.53l2.87-14.72c-3.68-14.31,8.59-26.58,8.59-26.58l-1.63,28.63,2,16,6.14-18.41c4.5-2.05,8.59-23.73,8.59-23.73l25.58,11.94a16.94,16.94,0,0,1,7.79,7.32l19.82,36.37Zm-93.07,57.15c2.18-1.13,3.47-1.93,3.47-1.93C110.31,374.91,109.05,375.71,107.72,376.84Zm0,0c2.18-1.13,3.47-1.93,3.47-1.93C110.31,374.91,109.05,375.71,107.72,376.84Zm0,0c2.18-1.13,3.47-1.93,3.47-1.93C110.31,374.91,109.05,375.71,107.72,376.84Z" style="fill:#5c4e2a"/><path d="M94.93,433.78l.6-13.15-10,4.22L84.33,419c-2.38,0-7,.3-8.77,2.4L74.22,423l-1.3-6.47-6.53,1.63-.22-1c0-.17-.9-4.24,1.69-7.07,1.92-2.11,5.16-2.89,9.62-2.34l22.5-4.28c.85-.72,4.28-3.55,9-6.8-17.22,5.09-61,15.81-79.53-.29-3.72,2.43-8.22,4.91-9.91,4a1.59,1.59,0,0,1-.82-1.45c0-2.18,4.58-7.44,7.92-11L6,394.29,8,391.74c.39-.47,9.46-11.51,23.08-12.34,1.56-2.65,9.35-14.91,22.62-20.89l-20.19-9,7,1c7.42,1.06,27,3.81,28.77,3.81.72-.06,4.15-1.86,7.47-3.61,3.48-1.83,7.82-4.11,12-6A4.49,4.49,0,0,0,89.6,337c-18.25-13.37-31.8-21-37.18-21h-2.2l4.51-5.17c-3.8-2.55-17.1-12.19-18.57-23l-.49-3.63L37.94,287c.13.18,13.55,17,25.29,16.05,2.6-5.15,17-33,25.27-34.39,2-2.06,16.27-16.72,19.71-25.59,3.3-8.47,9.65-15.23,11.64-17.23-2.65-4.22-15-26.35-2.64-55.23-2.21-2-9.7-9.53-7.95-19-5.68,3.1-21.94,12.65-27.6,23.08C75.08,186.83,57,211.85,43,212.27L26.54,225.41l9.1-21.84L0,204.25l33.82-9c-.61-3.64-2-16.69,8-21.78.56-2,2.54-11.14-5.31-20.92l-.09-.11,1.56-1.26.09.11,12.47,15.46c2-4.84,8.72-18.83,19.51-21.32,1-.75,7.42-5.61,7.6-12.41-1.64-2.47-12.9-20.2-8.69-34.94l1.13-4,.81,4C72.7,107.4,77.23,122.3,81.49,123c2.24.37,2.91-.05,3.24-.46,2.5-3.1-3.62-19.61-9.23-33.64l-.08-.18V66.89l1.94,5.35C83,87.7,90.79,103.35,94.2,102.72c.72-.12,3-1.71,3-16.9-.08-1.18-4.27-6.73-9.13-13.16-3-4-6.82-9-10.87-14.62l-.2-.27v-.33c0-.19.32-19.16-7-36.56L71.91,20c7.66,14.5,22.53,39.57,29.72,41.58a1.88,1.88,0,0,0,1.55-.11,14.68,14.68,0,0,0,7-10.78,23.85,23.85,0,0,1,1.91-6.52l2.79-6a22,22,0,0,0,1.44-14.31c-2.61-10.88-6-18.84-9.44-22.42L108.17,0c9.74,6.89,32.24,24.83,39.12,47.85,1.25-5.43,3.23-15,2.52-18.52l1.94-.47c2.38,8.4,4.94,18.52,5,23.4,3.86-2.85,13.73-13.15,18-45.66l2,.13c0,1.84-.08,43.14-7.31,54.79,4.66.5,17,2.39,23,8.88l11.84-22.64,1.83.79C203.54,56,197.69,77,201.15,84.3c1.62,3.43,6.4,9.9,12.47,18.08,9.45,12.77,22.32,30.15,29.58,45.23,3.08-2.18,12.77-9.89,12.77-20.34l2-.13c.14,1,3.06,24.49-7.29,30.06l6.88,14.25c3.72-.54,20-2.43,30.49,4.06l3.45,2.14-4.05-.29c-11.47-.82-24.56-.8-26.37.62,1,1.25,5,1.68,9.23,2.14,8.44.91,20,2.16,27.75,10.28l2.61,2.72-3.61-1.07c-.26-.08-25.55-7.51-39.31-4.34-13.39,3.08-50,20.71-53,22.19l-3.85,4.79L211,236.92l13.88-12-8.52,23.5s-2.15,3.73,9.81,11.45l23.27-2.6L235,267.09l30.75,34.46,17.54,8.14-10.75,3c2.72,2.78,8.72,9.9,9.11,18.94.26,6.18-2.18,12-7.25,17.41.61,2.34,4,12.9,18,21.76l.34.21.09.39c0,.07,1.6,6.17,6.06,8.65,4.86,3,19.71,12.58,19.75,18.15,4.29,1.21,20,6,22.14,11.26l.7,1.76-1.84-.41c-3.41-.76-6.93-1.13-8-.87.41,2.49-.5,7.65-.61,8.26l-.21,1.16-13.41-4.84v8L303.3,414l-2.68,7-1-.41c-.32-.14-7.54-3.29-8.66-8.82l-4.6-1a8.32,8.32,0,0,1-6.31-6.34l-2.74-12.55-7-5.8,2.9-4.63c-1.83-3.68-14.26-27.11-32.59-25.67h-.15l-59.8-4.34-23.13,8.15,11.33-10.09-8.8.8-19.48,9.44,5.2-9.85-10.81,3.3a4.33,4.33,0,0,0-2.4,6.39c6.1,9.9,10.78,16.65,13.29,19.15l21-7.22-8.46,8.47c10.58-1.66,42-5.38,52.89,6.86l2.49,2.82-3.56-1.21c-.25-.09-24.86-8.21-56.58-.42,2.37,2.42,6.94,7.82,5.69,12.53-.85,3.18-4.1,5.36-9.67,6.48a229.59,229.59,0,0,0-33.31,9.43,4.8,4.8,0,0,1-.49,3.56c-1.53,2.68-5.68,4.18-12.32,4.46Zm2.74-16.22-.5,10.86,5.53-5.95h.42c8-.28,10.37-2.28,11-3.45a3,3,0,0,0,.1-2.72l-.51-1,1-.41A227.26,227.26,0,0,1,149.33,405c4.76-1,7.49-2.65,8.13-5,1.09-4.13-4.26-9.91-6.42-11.79L149.62,387l1.83-.48a117.4,117.4,0,0,1,55.1-1.15c-14.68-9.46-49.24-3.2-50.82-2.9l-3.16.58,6.83-6.84L145.46,381l-.43-.39c-3.23-2.88-9.44-12.46-14.08-20a6.31,6.31,0,0,1,3.52-9.35l15.41-4.71-4.6,8.71,14.32-6.94,15.2-1.38-8.27,7.37,13.94-4.92.21,0,59.93,4.35c21.13-1.6,34.17,26.13,34.72,27.31l.22.49L273,385.61l6.14,5.12,2.9,13.22a6.29,6.29,0,0,0,4.78,4.81l6,1.33.07.72c.37,3.75,4.69,6.43,6.64,7.45l2.77-7.19L315.43,419v-7.3l13.85,5c.31-2,.69-5.28.36-6.6a1.55,1.55,0,0,1,.39-1.47c1-1.07,4.41-.78,7.37-.28-4.27-3.56-15.49-7.18-20.14-8.44l-1.13-.3.48-1.07c1.12-2.53-8.84-10.66-18.71-16.73-4.53-2.52-6.42-8-6.88-9.5-16.26-10.44-18.58-22.85-18.68-23.38l-.08-.5.35-.36c4.93-5.07,7.3-10.57,7.06-16.33C279.22,321.11,270,313,270,313l-1.4-1.22,9-2.51-13-6L232,266.73l9.62-6.57-16,1.79-.3-.19c-6.75-4.31-10.48-8.23-11.09-11.64a4,4,0,0,1,.35-2.73l5.76-15.95-10.13,8.74L198.52,214.4l4.9-6.1.21-.1c1.6-.78,39.53-19.19,53.66-22.44,10.94-2.52,28.17,1.2,36.11,3.22-7.07-5.12-16.31-6.11-23.31-6.87-5.32-.57-9.17-1-10.65-3a1.81,1.81,0,0,1-.24-2c1.47-2.69,14.28-2.52,23.22-2.07-10.93-3.91-25.12-1.54-25.28-1.51l-.74.12L248,156.19l1-.4c6.42-2.57,7.52-13.31,7.47-20.82-3.67,9.06-12.64,14.68-13.12,15l-.95.59-.48-1c-7.06-15.15-20.25-33-29.87-45.94-6.13-8.28-11-14.82-12.67-18.43-2.8-6-.39-18.48,1.93-27.37l-8.51,16.27-.95-1.27c-6.21-8.26-24.17-9.41-24.35-9.42l-2.14-.13,1.46-1.55c5.07-5.4,6.89-26.6,7.55-41-6.48,29.67-17.92,34.26-18.47,34.46l-2.37.88,1.13-2.26c.56-1.14-.22-7-3-17.86a157.64,157.64,0,0,1-3.3,16.37l-1.06,4.11-.88-4.15c-4.49-21-23.78-38.58-34.44-46.91,2.86,5.33,5,12.42,6.34,18.17a23.87,23.87,0,0,1-1.57,15.62l-2.79,6a21.93,21.93,0,0,0-1.74,6,16.88,16.88,0,0,1-7.94,12.2,3.91,3.91,0,0,1-3.12.32c-7-1.95-18.53-20.49-25.56-32.79a109.29,109.29,0,0,1,3.53,26.39c4,5.47,7.67,10.37,10.65,14.32,6.79,9,9.54,12.68,9.54,14.36,0,12.48-1.45,18.3-4.7,18.87a2.09,2.09,0,0,1-.43,0c-5.45,0-13-17.21-16.7-26.68v10.3c10.33,25.85,11,32.74,8.87,35.46-1.28,1.59-3.41,1.46-5.13,1.18-5.27-.88-9.26-13.92-11.13-21.43-.76,13.6,9.28,28.44,9.4,28.61l.17.25v.31c0,8.61-8.28,14.24-8.63,14.47l-.16.11-.18,0c-11.86,2.57-18.83,21.52-18.9,21.71l-.61,1.67L43.27,161a23,23,0,0,1,.27,13.52l-.14.39-.37.18c-10.59,5-7.12,20.52-7.08,20.67l.22,1-19.68,5.23,22.17-.42L31.39,219l10.86-8.69h.35c11.95,0,29.32-21.82,37.3-36.57,7.17-13.22,29.5-24.49,30.45-25l2.16-1.08-.77,2.3c-3.56,10.65,7.2,19.53,7.31,19.62l.59.48-.31.7c-13.79,31.3,2.46,54.43,2.63,54.66l.51.71-.64.6c-.08.08-8.06,7.6-11.76,17.09-3.84,9.9-19.72,25.85-20.39,26.52l-.27.27-.37,0c-5.59.37-17.58,20.43-24.27,33.82l-.24.48L64,305c-9.54,1.23-19.71-8-24.64-13.29,4.27,9.69,17.25,17.89,17.39,18l1,.62-3.34,3.83c8.86,1.78,26.27,13.81,36.36,21.2a6.49,6.49,0,0,1-1.12,11.14c-4.16,1.88-8.47,4.15-11.93,6-5.06,2.66-7.34,3.84-8.4,3.84-1.54,0-13.87-1.69-22-2.84l11.56,5.18-2.26.86c-15.27,5.8-23.94,21.22-24,21.37l-.27.5-.56,0c-8.86.35-15.89,5.57-19.5,8.89l21.38-6.59-2.85,2.85c-4.52,4.53-9.38,10.15-10,12,1.31-.22,4.81-2,8.2-4.3l.66-.44.58.54c21.46,19.91,82.56-.93,85.15-1.83l9-3.11-8.13,4.91a125.39,125.39,0,0,0-15.1,10.8l-.2.17-23.34,4.44-.16,0c-3.85-.5-6.55.07-8,1.68A6,6,0,0,0,68,415.67l6.46-1.61,1,4.81C79,416.6,84.94,417,85.23,417l.76.05,1,5ZM74.24,385.51c-16.81,0-17.33-3-17.55-4.27-.58-3.39,5.05-9.23,54.21-24.47l.29-.09.3.09c.41.13,10.16,3.37,8.07,26l-.08.87-20.29,1,1.4-1.73c.07-.08.79-1,1.84-2.15l-2,1.07,1.1-.94c-5.53,2.29-12.57,4.47-19.35,4.47l-.61,0C78.81,385.46,76.39,385.51,74.24,385.51Zm36.9-26.72c-49.57,15.38-52.7,20.81-52.48,22.11,0,.14.83,3.34,22.79,2.45l.69,0c9.52,0,19.72-4.56,25-7.32,1.67-1.41,3-2.1,4-2.1l4.1-2.15-2.54,2.15h2l-3,1.85s-1.32.8-3.44,1.92a48.84,48.84,0,0,0-4.65,4.72l14-.66C119.09,363.67,112.53,359.47,111.14,358.79Zm9.12-24.63.16-1.49c.37-3.33-6.38-9.28-18.07-15.92a8.93,8.93,0,0,1-3.73-11.47c6.54-14.61,27.75-35.34,28.65-36.22l2-2L129,269.9c-1.51,12.07,3.2,24.76,5.57,30.21l2.24-11.49c-3.61-14.6,8.39-26.81,8.9-27.32l1.86-1.86-1.78,31.17,1.47,11.52,4.89-14.67.39-.18c2.94-1.34,6.48-14.82,8-23l.24-1.26,26.76,12.48a17.88,17.88,0,0,1,8.24,7.75l20.65,37.9-16.07-.46L184.63,303.3,192,321.41l-7.51.52L167,306.5,175.77,323,149.13,326,126,317.67l14.44,10.58Zm6.47-61.73c-5.49,5.57-21,21.94-26.29,33.66a7,7,0,0,0,2.9,8.92c8.27,4.7,17.89,11.2,19,16.46l13.64-4-22.38-16.4L149.37,324l23.26-2.67L160.09,297.7l25.09,22.18,3.93-.27L178.5,293.53l22.75,25.17L213,319,194,284.2a15.86,15.86,0,0,0-7.33-6.9l-24.43-11.39c-1.06,5.33-4.36,20.22-8.49,23l-7.41,22.2-2.6-20.39v-.1l1.46-25.68c-3.18,4.06-9.06,13.29-6.45,23.44l.06.22-3.46,17.74L134,303.78C133.69,303.11,125.87,288,126.73,272.43Zm65.69-74.61a3,3,0,0,1-1.1-.21c-4.92-1.89-6.41-17.16-6.66-20.2l0-.38,18.24-24.59-16.19,6.07L198,142.29l-11.78,9-.3-1.59c-3-15.67,1.37-22.91,5.55-26.22a7.21,7.21,0,0,1,6.19-1.37,7.63,7.63,0,0,1,5.22,4.21q1.86,3.9,3.68,7l.35-.27-.27.4c2.91,4.86,5.69,8,8.08,9.06,7.6,3.39,18.83,24.52,19.31,25.41l.24.46-.23.46c-1.71,3.42-3.46,5-5.35,4.78s-3.18-2.13-4-4l-3,10.91-9.32,3.92-1.84-8L207,189.42l-11.7,7.1A4.18,4.18,0,0,1,192.42,197.82Zm-5.74-20.2c.58,6.59,2.5,17,5.36,18.12.2.08.81.31,1.93-.75l.17-.12,11.1-6.75,5.44-19.78,3.09,13.32L220,179l4.53-16.66.95,3.64c.56,2.15,2,5.4,3.39,5.55.42,0,1.51-.2,3.11-3.24-1.69-3.12-11.7-21.21-18.1-24.06-3-1.33-6-5-8.52-9.09L192,154.38l16.53-6.2Zm9.26-53.73a5.2,5.2,0,0,0-3.25,1.13c-5.13,4.07-6.89,11.89-5.12,22.68l17.36-13.23c-1.46-2.42-2.77-5-3.89-7.31a5.64,5.64,0,0,0-5.1-3.27ZM131.52,92.06a9.42,9.42,0,0,1-1.06-.06c-7.17-.91-12.18-10.78-12.39-11.2L117,78.66l23.75,7.77-1,1.13C137.17,90.55,134.4,92.06,131.52,92.06Zm-10.36-9.94c1.81,2.82,5.34,7.36,9.55,7.89,2.19.28,4.37-.61,6.49-2.64Zm33.33,4.59a15.12,15.12,0,0,1-3.13-.36l-.73-.16-.06-.75c0-.44,0-4.47,10-10.52l1.24-.76.26,1.43c0,.25,1,6-2.21,9.2A7.4,7.4,0,0,1,154.49,86.71Zm-1.7-2.13c2.52.36,4.42,0,5.64-1.23,1.62-1.56,1.83-4.2,1.78-5.87C154.93,80.91,153.3,83.39,152.79,84.58Z" style="fill:#fff"/></g></g></svg>