<svg xmlns="http://www.w3.org/2000/svg" viewBox="0 0 103.28 326.5"><defs><style>.bard-1{fill:#fff;}.bard-2{fill:#df0b13;}</style></defs><title>Bard_1</title><g id="Layer_2" data-name="Layer 2"><g id="Layer_1-2" data-name="Layer 1"><path class="bard-1" d="M51.06,326.5c-15.58,0-32.26-4.4-41-17.69-8-12.2-11.5-29.57-9.51-47.63,2.89-26.17,14.5-54.42,32.7-79.55a11.93,11.93,0,0,0,2.14-6c1.51-39.46,2.71-75.54,3.7-110.3.07-2.53-1.05-5.6-2.21-8.53a64.74,64.74,0,0,0-3.27-6.66l-4.33,3.41L23.75,32.14l4,1.61c0-.8,0-1.6,0-2.38l-1.22.15-1.27-3.63c-.36-1-.94-2.69-1.63-4.72L21.39,16.6,27,17.7,23.67,6.24,31.33,9.4l3.12,1.28C40.28,3.44,46.32-.17,52.41,0c5.86.14,11.4,3.71,16.52,10.62L79.1,6.49,76.43,17.71l4.14-.79L77.5,32.07l-1.17-.21c-.26.77-.49,1.46-.7,2.1l3.06-1.11L74.78,53.92l-5.2-4.09h0Q69,51,68.44,52.07c-2.08,4-4,7.87-4,11.22.45,32.23,1.71,65,2.94,96.72L68,176.54a9.25,9.25,0,0,0,1.92,4.74A161.16,161.16,0,0,1,98.3,239h0a156.49,156.49,0,0,1,4.75,29.71c1.84,30-7.26,47.74-27.82,54.23A82.84,82.84,0,0,1,51.06,326.5ZM39.59,44.37l.68,1.27a73.44,73.44,0,0,1,4,8.2c1.47,3.7,2.89,7.65,2.77,11.7-1,34.79-2.19,70.89-3.69,110.37a19.82,19.82,0,0,1-3.66,10.41c-17.4,24-28.49,50.93-31.23,75.73-1.79,16.25,1.21,31.69,8.24,42.37C27.5,320.77,56,320.65,72.82,315.34s23.85-19.95,22.25-46.11A148.74,148.74,0,0,0,90.56,241h0a153.28,153.28,0,0,0-26.94-54.86A16.88,16.88,0,0,1,60,176.84q-.31-8.26-.64-16.53c-1.22-31.75-2.49-64.57-2.94-96.9-.08-5.35,2.44-10.25,4.87-15,.76-1.49,1.49-2.91,2.12-4.31l-.18-2.59c-.1-1.44-.18-2.65-.27-3.82l-2.45.88,1.68-7.17c.09-.37.16-.75.23-1.13l0-.53.12,0,.12-.76c0-.18.05-.36.08-.53L60.31,29l3.06-12.34C60.56,12.52,56.54,8.11,52.21,8s-8.77,4.15-12,8.31l2.16,12.58-1.67-.33c0,.28,0,.55.07.81s0,.36,0,.54l.84-.31-.45,3.22L42,37.89l-1.46-.46Z"/><path class="bard-2" d="M99.06,269a152.3,152.3,0,0,0-4.63-29,156.33,156.33,0,0,0-27.65-56.3,13.2,13.2,0,0,1-2.76-7c-1.43-37.78-3-75.55-3.57-113.34C60.36,57,65.17,50.6,67.74,44.23c.05-.12.33-.15.79-.34l3.52,2.79L73.48,39l-6.23,2.26c-.16-2.24-.27-3.91-.41-5.78l3.65,1.23c.63-1.89,1.27-3.78,2.26-6.77l-6.64,2.4c.63-2.68.65-5.55,1.51-5.84,1.63-.53,3.75.43,6.74,1,.28-1.4.69-3.45,1.11-5.48L65.7,23.85c.66-2.65,1-4,1.34-5.43l4.63,2c.51-2.13,1-4.27,1.74-7.32l-6,2.41C57.5.14,46.84.16,35.78,15.54c-1.47-.6-3-1.22-6-2.45.91,3.18,1.52,5.29,2.07,7.2l4.65-1.8c.25,1.42.49,2.85.93,5.36l-10-2c.85,2.48,1.53,4.41,1.83,5.28,3-.37,5.14-1.2,6.75-.61.8.31.64,3.21,1,5.59-2.43-.76-3.76-1.19-5.22-1.66-.3,6.09.46,6.91,4.94,5.23L36,41.36c-2.14-.88-3.67-1.49-6.37-2.57.8,3.07,1.34,5.14,2,7.8L34.88,44c2,3.93,4.2,7.48,5.71,11.29,1.28,3.21,2.59,6.75,2.49,10.1q-1.56,55.2-3.69,110.35a15.94,15.94,0,0,1-2.9,8.21c-16.24,22.42-28.91,49.95-32,77.64-1.65,14.92.46,32.23,8.87,45,12,18.21,41.93,18.45,60.62,12.54C96.71,312,100.35,290,99.06,269ZM51.79,230.54c9.59,0,16.85,7.52,16.78,17.31a16.87,16.87,0,1,1-33.73-.16C34.83,237.93,42.17,230.51,51.79,230.54ZM27.33,295.75l.17-.42a9.59,9.59,0,0,1-6.38-2.84,1.51,1.51,0,0,1-.49-.79c-.14-1.17,1.55-1.79,2.42-1.46s1.84.72,2.73,1.12a8.47,8.47,0,0,0,3,.79,4.36,4.36,0,0,0,4.76-3.55c.05-.2.1-.4.13-.6a18.91,18.91,0,0,0-.22-8.09L20.69,264.78l.57-.37c-2.12-3.05-2-5.31-1.57-11.54.8,6.2,4.25,12.43,11,17.82,4.35,3.45,6.76,7.7,6.72,13.34l.47,4.49-2.29,5.11L31,296.27ZM68.08,310.5a2.62,2.62,0,0,1-1.86.76H37.69a2.62,2.62,0,0,1-2.63-2.62A2.61,2.61,0,0,1,37.69,306H66.22a2.62,2.62,0,0,1,1.86,4.49Zm18.14-46.83L73,281.12v6.63l3.22,4.39a7.85,7.85,0,0,0,3.84-.78c.89-.4,1.81-.76,2.73-1.12s2.57.29,2.42,1.46a1.51,1.51,0,0,1-.49.79,9.16,9.16,0,0,1-12.67.58,11.68,11.68,0,0,1-3.6-8.43c-.23-5.94,2.19-10.38,6.7-13.95,6.76-5.39,10.21-11.62,11-17.82.35,5.35.5,7.77-.8,10.28Z"/><path class="bard-1" d="M66.22,312.27H37.69a3.63,3.63,0,0,1,0-7.26H66.22a3.63,3.63,0,1,1,0,7.26ZM37.69,307a1.6,1.6,0,0,0-1.62,1.63,1.63,1.63,0,0,0,1.62,1.63H66.22a1.63,1.63,0,1,0,0-3.26Z"/><path class="bard-1" d="M51.7,265.68h-.4a17.58,17.58,0,0,1-17.46-18,18.18,18.18,0,0,1,5.24-13,17.75,17.75,0,0,1,12.65-5.12h.06a17.68,17.68,0,0,1,12.61,5.17,18.36,18.36,0,0,1,5.18,13.15A17.62,17.62,0,0,1,51.7,265.68Zm0-34.14a15.74,15.74,0,0,0-11.24,4.54,16.24,16.24,0,0,0-4.65,11.61,15.6,15.6,0,0,0,15.5,16,15.64,15.64,0,0,0,16.24-15.82A16.38,16.38,0,0,0,63,236.12a15.7,15.7,0,0,0-11.19-4.58Z"/><path class="bard-1" d="M77.56,297.37A9.94,9.94,0,0,1,71,294.85a12.58,12.58,0,0,1-4-9.14c-.23-6,2.09-10.81,7.08-14.77,6.15-4.9,9.82-10.83,10.63-17.16l2,.06c.11,1.68.26,3.06.39,4.27.67,6.14.56,7.7-6.49,15-.4.42-.82.84-1.24,1.26-2.72,2.73-5.53,5.56-5.87,9.18a8.33,8.33,0,0,0,2.21,6.4c1.74,1.56,4.41.52,6.77-.39l.52-.21a1.67,1.67,0,0,1,1.65.28,3.81,3.81,0,0,1,1.12,3.23,2.38,2.38,0,0,1-.78,1.38A10.53,10.53,0,0,1,77.56,297.37Zm7.69-37.69a31.17,31.17,0,0,1-9.92,12.82c-4.52,3.59-6.53,7.76-6.33,13.13a10.59,10.59,0,0,0,3.27,7.72,8.19,8.19,0,0,0,11.3-.54,1,1,0,0,0,.21-.24,2.21,2.21,0,0,0-.29-1.28l-.3.12c-2.6,1-6.17,2.4-8.82,0a10.15,10.15,0,0,1-2.87-8.07c.41-4.33,3.61-7.56,6.44-10.4.42-.42.83-.83,1.22-1.24h0C85.23,265.44,85.67,264.06,85.25,259.68Z"/><path class="bard-1" d="M28.8,297.37a10.52,10.52,0,0,1-7.42-3.14,2.38,2.38,0,0,1-.78-1.38,3.81,3.81,0,0,1,1.12-3.23,1.66,1.66,0,0,1,1.65-.28l.52.21c2.36.91,5,1.95,6.76.39a8.3,8.3,0,0,0,2.22-6.4c-.35-3.62-3.16-6.45-5.87-9.18-.43-.42-.84-.84-1.25-1.26-7-7.29-7.15-8.85-6.49-15,.13-1.21.28-2.59.39-4.27l2-.06c.81,6.33,4.49,12.26,10.63,17.16,5,4,7.31,8.79,7.09,14.77a12.62,12.62,0,0,1-4,9.14A9.94,9.94,0,0,1,28.8,297.37Zm-6.21-4.77a2.09,2.09,0,0,0,.2.22,8.2,8.2,0,0,0,11.3.53,10.59,10.59,0,0,0,3.27-7.72c.2-5.37-1.81-9.54-6.33-13.13a31.17,31.17,0,0,1-9.92-12.82c-.42,4.38,0,5.76,6.08,12L28.42,273c2.82,2.84,6,6.06,6.44,10.4A10.15,10.15,0,0,1,32,291.42c-2.65,2.39-6.22,1-8.82,0l-.3-.12a2.26,2.26,0,0,0-.29,1.31Z"/></g></g></svg>
