<svg xmlns="http://www.w3.org/2000/svg" viewBox="0 0 468.28 386.41"><title>Barlgura</title><g id="fb4ea1f9-45d1-43f3-a0c9-f8b66cb56621" data-name="Layer 2"><g id="bb142ff1-0f9c-4f0e-8b54-46459915655b" data-name="Layer 1"><path d="M119.42,226.81a127.61,127.61,0,0,1,1.2,21.61c-.44,11.64-3,24.41-11.65,28.38a15.54,15.54,0,0,1-9.08,1s-7.6,15.74-19,14.66c0,0-28.75,12.48-36.35,9.76,0,0-11.17-7.34-21.51-11a20.83,20.83,0,0,1-12.45-12c-2.56-6.53-6-13.85-8.36-13.85,0,0-3.8-27.68,2.17-32.56,0,0-.54-3-.9-7.93,16.26-21.65,62.89-70.19,118.17-6.55Z" style="fill:#a51414"/><path d="M47.27,303.6a9.38,9.38,0,0,1-3.07-.43l-.21-.1c-.11-.08-11.19-7.32-21.3-10.9a21.81,21.81,0,0,1-13-12.61c-5-12.85-7.2-13.22-7.43-13.22H1.34l-.11-.87c-.39-2.81-3.54-27.14,2.08-33.05-.17-1.09-.54-3.74-.82-7.5l0-.37.22-.3c10.48-14,32.32-37.52,60.76-38.53,20.1-.69,39.94,10,59,31.92l.35.4-2.32,8.83a130.45,130.45,0,0,1,1.18,21.59c-.6,16-4.72,25.8-12.23,29.25a16.28,16.28,0,0,1-8.93,1.19c-1.62,3.05-8.81,15.4-19.4,14.58C78.42,294.62,57.21,303.6,47.27,303.6ZM45,301.32c6.08,2,27.66-6.36,35.51-9.77l.24-.1.26,0c10.58,1,17.93-13.94,18-14.09l.32-.67.73.11a14.59,14.59,0,0,0,8.51-.93c8.44-3.87,10.68-17.1,11.07-27.51A128.46,128.46,0,0,0,118.43,227l0-.21,2.16-8.21c-18.5-21.14-37.69-31.52-57-30.83-27.41,1-48.65,23.72-59,37.43.35,4.56.85,7.43.85,7.46l.1.57-.45.37c-4.41,3.61-2.94,22.93-1.91,31,1.7.66,4.19,3.56,8.4,14.32a19.82,19.82,0,0,0,11.85,11.46C33.16,293.75,43.8,300.56,45,301.32Z" style="fill:#fff"/><path d="M198.64,342.93c-3.26,5.43-4.34,14.1-4.34,14.1s8.14,28.77-13,24.42c0,0-4.33.55-6-2.17,0,0-13.56,6-21.16-1.09,0,0-13.57,2.72-17.91-3.79,0,0-7.05,4.88-16.28-1.63,0,0-23.33,2.18-4.88-14.1A15.82,15.82,0,0,1,130.81,357s21.71-8.67,21.16-15.73c0,0-13.56-16.82-20.61-18.45,0,0-6.51-16.82-10.31-17.9,0,0-2.72-11.4,1.09-14.66,0,0,0-.24,0-.7-.09-5.42.16-40.76,21.18-56.27l-1.74-1.27c5.3-1.76,13.27-3.69,21.66-2.46,9,1.31,18.48,6.25,25.66,18.92l8.67-1.62a116.29,116.29,0,0,1,11.8,30.21c-6.29,5.46-21.3,17.72-28.08,16.45-8.67-1.63,3.26,10.31,3.26,10.31s5.43,11.39,4.35,19S201.9,337.5,198.64,342.93Z" style="fill:#062762"/><path d="M185.31,382.9a21,21,0,0,1-4.08-.44c-.83.08-4.32.24-6.26-2-3,1.16-14.07,4.82-21.12-1.23-2.49.42-13.27,1.89-17.87-3.56-2.21,1.13-8.49,3.42-16.29-1.91-2.1.15-10.59.52-12.38-3.64-1.26-2.91,1.07-6.91,7.11-12.24a16.59,16.59,0,0,1,16.39-2c8-3.24,20-9.76,20.17-14.29-1.74-2.12-13.67-16.42-19.84-17.84l-.52-.12-.19-.5c-2.63-6.79-7.37-16.65-9.65-17.3l-.57-.16-.13-.57c-.29-1.19-2.6-11.44,1-15.3v-.27c-.11-6.67.38-40.27,20.51-56.27l-2.22-1.62,1.84-.61c7.94-2.65,15.38-3.5,22.11-2.51,10.92,1.58,19.67,7.91,26,18.8l8.67-1.62.35.6a118,118,0,0,1,11.92,30.5l.13.59-.45.39c-7.82,6.78-22,18-28.92,16.68-1.59-.31-2,0-2,0-.4.76,2.18,4.69,6.11,8.63l.12.12.07.15c.23.48,5.55,11.75,4.44,19.56-.48,3.31,2.5,6.69,5.38,10,3.22,3.67,6.27,7.13,4.25,10.49h0c-2.86,4.75-4,12.24-4.18,13.53.53,2,4.1,16.27-1.95,22.78A10.48,10.48,0,0,1,185.31,382.9Zm-4-2.46.17,0c4.73,1,8.24.27,10.43-2.08,5.61-6,1.48-20.93,1.43-21.08l-.05-.2,0-.2c.05-.36,1.14-9,4.47-14.5h0c1.27-2.11-1.31-5-4-8.13-3-3.45-6.47-7.35-5.86-11.57,1-6.76-3.57-16.91-4.19-18.27-2.47-2.48-7.72-8.23-6.34-10.85.86-1.63,3.3-1.17,4.1-1,4.35.8,14.34-5.1,26.79-15.83A117,117,0,0,0,197,248l-8.68,1.63L188,249c-6.07-10.7-14.46-16.9-24.93-18.42a44.66,44.66,0,0,0-19.33,1.83l1.24.9-1.1.81c-20.83,15.38-20.84,51.4-20.77,55.46,0,.44,0,.67,0,.68v.48l-.36.31c-2.61,2.24-1.6,9.86-.88,13.19,3.83,2.14,8.81,14.24,10.2,17.78,7.4,2.3,20.09,18,20.64,18.65l.2.25,0,.31c.59,7.56-19.49,15.82-21.79,16.73l-.37.15-.38-.15a14.9,14.9,0,0,0-14.71,1.47c-6.84,6-7.06,8.82-6.58,9.93,1.16,2.68,8.32,2.65,10.73,2.42l.37,0,.3.22c8.56,6,15.07,1.66,15.13,1.62l.84-.58.57.84c3.91,5.9,16.74,3.4,16.87,3.37l.5-.1.38.35c7,6.52,19.94,1,20.07.91l.81-.36.45.76c1.28,2.12,5,1.69,5,1.69Z" style="fill:#fff"/><path d="M371.74,375.48s-7.06,12.49-11.4,8.14c0,0-15.74,5.43-20.62-2.71,0,0-16.82,10.85-24.42-4.88,0,0-7.59,11.94-20.07.54,0,0-1.63-11.94,13.56-17.9l3.26-6.52s-3.8-4.34,1.08-7c0,0-17.9-16.28-11.39-25,0,0-9.22-9.22-5.43-12.48,0,0-19-16.83-19-23.88,0-.21,0-.4,0-.57h0c15.43-30,39.67-74.31,52.49-83.1a41.31,41.31,0,0,0,5.58,8.79H331s1.23,1.92,2.68,4.76c2.39,4.69,5.39,11.88,4.37,17l6.51,4.88-2.71,4.34s2.85,17.9,3.19,30.92c.14,5.81-.22,10.65-1.56,12.49l2.17,4.88L344.6,306s4.89,15.74-1.08,26.05c0,0,0,10.31,3.25,11.39l-.54,4.34,11.4,10.86S373.36,360.83,371.74,375.48Z" style="fill:#062762"/><path d="M349.9,386.41c-3.95,0-8-.94-10.48-4.16-2.34,1.32-9.13,4.6-15.64,2.77a14.37,14.37,0,0,1-8.64-7.15,13.14,13.14,0,0,1-8,4.53c-4.08.54-8.32-1.17-12.62-5.09l-.27-.25,0-.35c0-.13-1.52-12.6,13.84-18.83l2.81-5.62a6.23,6.23,0,0,1-1.17-4.37,4.77,4.77,0,0,1,1.82-2.93c-3.6-3.5-16-16.46-11.07-24.7-1.7-1.81-6.2-6.94-6.06-10.67a3.73,3.73,0,0,1,.53-1.83c-3.84-3.47-18.61-17.25-18.61-24,0-.19,0-.36,0-.51V283l.12-.25c17.13-33.3,40.19-74.81,52.82-83.47l1-.66.5,1.06a39.65,39.65,0,0,0,5.45,8.58l1.35,1.64h-4.7c.48.83,1.12,2,1.8,3.3,2.51,4.93,5.29,11.78,4.57,17l6.75,5.07-3,4.81c.4,2.64,2.83,18.77,3.14,30.67.15,6.39-.31,10.53-1.43,12.6l2.05,4.62-1.09,18c.55,1.86,4.56,16.35-1.09,26.43,0,3.87.86,9.62,2.57,10.19l.78.26-.58,4.64,10.81,10.3c2.35.44,16.21,3.65,14.63,17.86l0,.21-.1.18c-.52.91-5.16,8.91-9.63,9.52a3.78,3.78,0,0,1-2.87-.75A36.78,36.78,0,0,1,349.9,386.41Zm-9.85-6.9.53.89c4.41,7.36,19.28,2.33,19.44,2.28l.59-.21.44.45a1.83,1.83,0,0,0,1.65.6c2.9-.39,6.71-6,8.07-8.35,1.33-13.31-12.68-15.43-13.28-15.51l-.31-.05-12-11.42.52-4.16c-3-2.16-3.18-10.24-3.18-11.95v-.27l.14-.23c5.67-9.81,1-25.1,1-25.26l-.06-.17,1.08-17.85-2.29-5.18.34-.47c.59-.82,1.56-3.46,1.36-11.88-.33-12.8-3.15-30.6-3.18-30.78l-.06-.37,2.43-3.88L337,231l.12-.62c.74-3.66-.79-9.45-4.29-16.3-1.4-2.75-2.61-4.65-2.62-4.67l-1-1.54h4.11a42,42,0,0,1-3.9-6.27c-9.81,7.74-27.87,36.64-51.11,81.8v.35c0,5.42,13.47,18.53,18.66,23.13l.85.76-.87.75a1.62,1.62,0,0,0-.56,1.25c-.11,2.93,4.33,8,6.05,9.76l.61.62-.52.69c-5.9,7.86,11.09,23.46,11.26,23.62l1,.94-1.22.67a3.4,3.4,0,0,0-1.93,2.26,4.71,4.71,0,0,0,1.12,3.26l.45.51-3.73,7.46-.36.14c-12.88,5.06-13.07,14.57-13,16.49,3.74,3.32,7.34,4.79,10.72,4.33,4.77-.63,7.52-4.88,7.55-4.92l1-1.52.78,1.62c1.94,4,4.67,6.53,8.12,7.5,7,2,14.78-3,14.86-3Z" style="fill:#fff"/><path d="M467.24,311.45l-4.89,3.26s-3.25,11.4-1.08,14.65-23.88,39.07-36.9,41.24c0,0-15.19,6-23.88-1.08,0,0-13.56,6-24.42,0s-4.88-13-4.88-13-8.68,2.17-13-3.26l-2.71-14.66-3.8-9.22,3.25-6-2.71-7.59,7.22-7.65h0c49-24.65,85.4-14.33,103.56-5.31C465.09,305.87,467.55,309.87,467.24,311.45Z" style="fill:#a51414"/><path d="M411.77,374a18.9,18.9,0,0,1-11.44-3.32c-2.73,1.09-14.71,5.25-24.74-.27-4-2.21-6.35-4.86-6.91-7.87a8.09,8.09,0,0,1,.58-4.7c-3,.32-8.54.21-11.87-4l-.16-.19-2.74-14.8-3.93-9.57,3.26-6-2.77-7.75,7.76-8.22.17-.09c49.77-25,86.81-14.08,104.46-5.31l.23.11.15.21c4.86,7.05,4.53,8.75,4.4,9.39l-.08.41-4.93,3.28c-1.18,4.29-2.46,11.43-1.11,13.46.52.78.37,1.94-.48,3.9-4.18,9.63-25.08,36.75-37,38.87A39.38,39.38,0,0,1,411.77,374Zm-11.12-5.62.47.38c8.14,6.61,22.74,1,22.88.93l.21-.05c8.32-1.39,23-18.09,30.75-29.5,4.67-6.87,5.5-9.7,5.44-10.27-2.29-3.59.64-14.21,1-15.41l.1-.36,4.75-3.16c-.1-.72-.74-2.67-3.92-7.31C444.93,295,408.73,284.51,360,309L353.35,316l2.65,7.44-3.23,5.94,3.67,9,2.66,14.4c3.95,4.62,11.77,2.74,11.85,2.72l3-.74-2,2.36a6.71,6.71,0,0,0-1.3,5c.45,2.38,2.44,4.55,5.9,6.46,10.31,5.66,23.41,0,23.54,0Z" style="fill:#fff"/><path d="M122.14,216.5l-.48,1.8C66.38,154.66,19.75,203.2,3.49,224.85A107.39,107.39,0,0,1,4.68,198.7c39.21-53,87.23-28.46,111.13-10.47C119.41,197.22,124.26,211.17,122.14,216.5Z" style="fill:#a1700a"/><path d="M2.69,227.58l-.2-2.66a108.79,108.79,0,0,1,1.21-26.4l0-.23.14-.19c13.72-18.56,29.76-29.29,47.68-31.89,25.39-3.68,49.28,9.5,64.85,21.22l.22.17.11.26c4.07,10.18,8.47,23.45,6.35,28.95l-1,3.57L120.9,219C102.3,197.54,83,187,63.52,187.72c-27.61,1-49,24.06-59.23,37.73ZM5.63,199.1a104.05,104.05,0,0,0-1.3,23c11-14.09,32.08-35.43,59.12-36.39,19.7-.67,39.08,9.56,57.72,30.51l0-.1c1.5-3.76-.71-13.44-6.23-27.27-15.26-11.44-38.53-24.25-63.13-20.67C34.54,170.71,19,181.11,5.63,199.1Z" style="fill:#fff"/><path d="M463,302.83c-18.16-9-54.57-19.34-103.56,5.31l2-2.11s1.62-23.34-3.26-26.59l1.08-8.68-.23-1.1c13.61-5.14,58.48-19.68,96.23-4.27l0,.49,4.9,2.17s-3.26,23.87,1.62,28.21L460.19,299S461.5,300.66,463,302.83Z" style="fill:#a1700a"/><path d="M354.79,311.6l5.66-6c.58-8.83.32-23.22-2.84-25.32l-.51-.35,1.14-9.13-.38-1.77.81-.3c13.08-5,58.73-19.87,97-4.26l.56.23.05.5,5,2.24-.1.74c-.89,6.5-2.38,24.06,1.29,27.33l.62.56-1.7,2.83c.51.68,1.42,1.91,2.43,3.36l2.19,3.19-3.46-1.72c-17.32-8.6-53.68-19.35-102.68,5.31ZM359.23,279c4.36,4.25,3.48,22.53,3.23,26.53,45-21.38,79.15-13.39,97.47-5.26l-.54-.71L459,299l1.59-2.66c-4-5.27-2-23.31-1.47-27.72l-4.75-2.11,0-.46c-36.69-14.66-80.32-.92-94.13,4.21l.09.41Z" style="fill:#fff"/><path d="M360.39,212.27c-.61-1.43-2.76-1.74-2.76-1.74s3.25-4.34-6-6-25.5-21.16-25.5-21.16a23.72,23.72,0,0,0,.12,4,35.84,35.84,0,0,0,.67,4.28c-82.34,66.92-125.6,45.65-167.84,18.33.44-.73.64-1.31.46-1.64s-.49-1.13-.78-1.92c-1.11-3.06-2.47-7.85-2.47-7.85l1.62-5.42S136.78,166,134.07,159c0,0-14.11,19-21.71,21.17,0,0,.29.61.76,1.68-47.43-28.91-28.25-53.66-25.18-51.6,3.26,2.17,25.51-1.09,25.51-1.09,25,15.19,33.64,7.59,33.64,7.59,25.51,12.48,40.15,13.57,40.15,13.57,3.26,10.85,26.59,23.87,26.59,23.87l36.35-41.23c6.52,3.25,22.8-1.63,22.8-1.63,8.14,14.11,66.74,31.47,90.07,15.73s31.47,15.74,33.11,21.71C397.26,172.8,374.89,197.07,360.39,212.27Z" style="fill:#062762"/><path d="M229.18,237.18H228c-27.06-.37-49.13-13.21-69.42-26.33l-.81-.52.5-.83a3.47,3.47,0,0,0,.38-.79,20.19,20.19,0,0,1-.78-1.92c-1.11-3.06-2.44-7.72-2.5-7.92l-.08-.28,1.57-5.2c-2.58-3.32-18.73-24.23-23-32.47-3.24,4.2-13.38,16.87-20.14,19.81.09.21.2.45.31.72l1.26,2.89-2.69-1.64C84,165.27,80.24,149.61,80.54,141.83c.26-7,3.66-11.33,5.74-12.39a2.09,2.09,0,0,1,2.22-.05c2.14,1.43,16.35,0,24.8-1.24l.36-.05.31.19c23.85,14.51,32.39,7.75,32.47,7.68l.5-.42.59.28c25,12.23,39.64,13.46,39.79,13.47l.68,0,.2.66c2.79,9.31,21.55,20.63,25.42,22.89l36.32-41.2.69.34c6.09,3.05,21.9-1.64,22.06-1.69l.76-.22.4.68c3.72,6.45,19.56,14.17,37.65,18.35,21.75,5,40.81,3.92,51-2.95,6.47-4.36,12.42-5.58,17.69-3.62,7.3,2.71,13,11.33,16.86,25.6l.08.3c.39,1.43,1.42,5.22-36,44.47l-1.05,1.1-.59-1.39c-.33-.76-1.66-1.1-2-1.15l-1.67-.23,1-1.36a1.92,1.92,0,0,0,.24-1.71c-.28-.68-1.37-1.93-5.58-2.68-7.73-1.36-19.78-14.28-24.31-19.43,0,.36.05.76.09,1.18a34.35,34.35,0,0,0,.66,4.17l.13.6-.48.39C290.56,222.54,258.35,237.18,229.18,237.18Zm-68.77-27.53c43.58,28.08,86.32,45.72,165.44-18.37a36.57,36.57,0,0,1-.57-3.79,26.18,26.18,0,0,1-.12-4.18l.21-2.43,1.56,1.88c.16.19,16.15,19.27,24.91,20.81,4,.7,6.34,2,7.1,3.93a3.7,3.7,0,0,1,.09,2.38,5.13,5.13,0,0,1,1.45.86c34-35.7,34.88-41,34.71-41.73l-.08-.29c-3.71-13.62-9-21.78-15.63-24.25-4.63-1.72-10-.58-15.87,3.4-10.63,7.17-30.28,8.38-52.56,3.24-18.29-4.23-33.88-11.8-38.52-18.63-3.19.89-15.74,4.12-22.08,1.66l-36.4,41.3-.71-.4c-.94-.53-22.85-12.85-26.84-23.81-3.15-.36-17-2.47-39.32-13.34-2.33,1.45-12,5.53-33.94-7.71-4.45.64-22.26,3-25.77.93-.64.09-3,2-4.23,6.33-1.8,6.23-2.55,22.57,27.94,42l.91-.26c7.19-2.06,21-20.62,21.18-20.81l1.08-1.46.65,1.7c2.63,6.84,23.52,33.66,23.73,33.93l.32.41-1.69,5.63c.31,1.07,1.44,4.94,2.37,7.51.32.86.56,1.45.74,1.81A2,2,0,0,1,160.41,209.65Zm-1.73-.84h0ZM87.39,131.06Z" style="fill:#fff"/><path d="M329.8,200.1h0C317,208.9,292.74,253.2,277.31,283.2c-.25-5.65-4.33,7.63-4.33,7.63l-2.17-8.68S252.9,297.35,254,303.86c0,0-6,4.88-3.26,11.94,0,0-8.14-1.64-9.76-12.48,0,0-8.14,1.08-8.14-10.85l-4.89-2.18L229,303.86,217.09,280,216,285.41l-3.79-10.86s-1.08,1-2.86,2.55a116.29,116.29,0,0,0-11.8-30.21l-8.68,1.62c-7.17-12.67-16.65-17.61-25.65-18.92-8.39-1.23-16.36.7-21.66,2.46L137.33,229l6-2.71L139,222.47l7.6.54,1.48-1.33c2.89-2.64,9.22-8.58,11.08-11.68,42.24,27.32,85.5,48.59,167.84-18.33A39.89,39.89,0,0,0,329.8,200.1Z" style="fill:#231707"/><path d="M252.32,317.14l-1.78-.36c-.36-.07-8.42-1.81-10.41-12.45a7.86,7.86,0,0,1-4.85-1.91c-2.18-1.91-3.34-5-3.44-9.3l-2.77-1.23,1.36,17L217.5,283l-1.23,6.16-4.51-12.89L210,277.86l-1.27,1.1-.36-1.64A116.78,116.78,0,0,0,197,248l-8.68,1.63L188,249c-6.06-10.7-14.45-16.9-24.93-18.43-6.42-.94-13.55-.12-21.19,2.43l-.49.16-6-4.39,6.12-2.77-5.42-4.74,10.15.72,1.15-1c2.08-1.9,9-8.32,10.9-11.45l.53-.89.87.56c43.93,28.42,86.8,46.65,166.67-18.27l1.26-1,.35,1.59a37.85,37.85,0,0,0,2.78,8.21l.09.2v.76l-.43.3c-9.59,6.57-28.11,36-52.17,82.73L276.48,287l-.12-2.66c-.74,1.7-1.69,4.38-2.43,6.78l-1.05,3.43L270.23,284c-5.44,4.8-16,15.2-15.25,19.72l.09.57-.45.37c-.22.18-5.36,4.53-3,10.8Zm-10.51-14.95.15,1c1,7,5,9.9,7.27,11-1.07-5.5,2.48-9.52,3.72-10.73-.23-7,15.38-20.52,17.21-22.07l1.23-1,1.71,6.86c2.28-6.6,3.25-6.49,3.92-6.4a1.2,1.2,0,0,1,.35.1c16.71-32.37,38.66-71.68,51.19-81.14a40.19,40.19,0,0,1-2.22-6.32c-36.5,29.41-68.32,43.73-97.16,43.73H228c-26.7-.37-48.53-12.86-68.59-25.79-2.44,3.39-8.18,8.75-10.69,11-.91.83-1.48,1.33-1.48,1.33l-.32.28-5.05-.35,3.27,2.85-5.81,2.64,2.43,1.77c7.76-2.52,15-3.31,21.62-2.34,10.92,1.58,19.67,7.91,26,18.8l8.67-1.62.35.6A119.28,119.28,0,0,1,210,275.25c1-.89,1.57-1.43,1.58-1.43l1.12-1,3.09,8.85.94-4.7,10.94,21.88-.81-10.11,7,3.12v.65c0,4,.93,6.84,2.77,8.45a5.83,5.83,0,0,0,4.24,1.4Z" style="fill:#fff"/><path d="M459.1,262.62l-3.25-28.75c2.17-36.37-37.44-89.54-41.25-89.54s-10.3-8.14-10.3-8.14l6-.55s-4.88-4.88-6.52-10.3S393.44,114,393.44,114c-2.71-7.61-8.68-19-8.68-19-7.6-17.36-20.07-21.7-20.07-21.7l2.17-4.34c-6-1.09-16.83-15.2-16.83-15.2-11.66-9.55-19.7-7.17-20.06-7.06l3.25-3.79c-17.92-10.31-37.44-8.14-37.44-8.14C286,28.21,251.27,19,251.27,19c-4.33-3.79-11.38-3.25-20.07-3.25s-6.51-10.85-6.51-10.85l-3.8,4.88L219.8,2.7c-3.25,4.9-13,4.9-19.52,6S178,21.7,178,21.7c-35.28,2.16-55.35,21.16-55.35,21.16-21.16-.54-47.75,32-47.75,32,3.25,1.64-14.65,25-14.65,25,5.42-2.72,0,9.76,0,9.76-7.6,1.09-15.74,26.59-15.74,26.59C32.61,143.25,25,162.78,25,162.78,12.61,171.73,7,185.63,4.69,198.7c39.21-53,87.22-28.46,111.12-10.47-1.08-2.71-2-5-2.69-6.4C65.69,152.92,84.87,128.17,88,130.22c3.26,2.18,25.5-1.08,25.5-1.08,25,15.19,33.65,7.59,33.65,7.59,25.5,12.48,40.15,13.57,40.15,13.57,3.25,10.85,26.59,23.87,26.59,23.87l36.35-41.24c6.51,3.26,22.79-1.62,22.79-1.62,8.14,14.11,66.74,31.47,90.07,15.73s31.48,15.74,33.11,21.71c1.1,4.05-21.27,28.32-35.76,43.52.55,1.26-.08,3.39-4.4,6.94-9.22,7.6-2.17,43.41-2.17,43.41l3.8.55,1.4,6.49c13.6-5.14,58.48-19.68,96.22-4.27l-.49-4.94Zm-223-195.34s11.4,26.59-17.9,17.37ZM182.9,72.16l16.28,13.57C179.65,97.67,182.9,72.16,182.9,72.16Zm53.86,62.78-9.9-6.89V142l-.78.46-8.45-8.94-2.71,14.11-8.68-9.77-6.32,9.47-.23-.18-1.05-12.55-8.91,1.79c-1.41-1.94-2.79-4-4.11-6.13-.21-.34-.4-.68-.58-1-3.65-7-1-14.39,1.47-18.95a29.45,29.45,0,0,1,2.91-4.44c-1.64,3.79,4.88,17.9,4.88,17.9l2.71-6,4.89,4.88,1.62-4.88,5.43,4.35,2.18-5.43,3.79,3.79,1.63-6,4.34,3.26,2.71-9.22,6.35,13.2.7,1.45a2.9,2.9,0,0,0,1-2c1-4.34-.49-13.76-.49-13.76,4-1.44,8.67,5.53,11.37,10.36a.28.28,0,0,1,0,.07c1.32,2.39,2.15,4.23,2.15,4.23C244.44,126.69,241.19,131.06,236.76,134.94Z" style="fill:#a51414"/><path d="M358.29,271l-1.49-6.95-3.81-.55-.14-.7c-.29-1.48-7.06-36.48,2.52-44.37,4.53-3.73,4.29-5.35,4.11-5.76l-.27-.61.47-.49c34.75-36.45,35.68-41.86,35.51-42.57l-.08-.29c-3.71-13.62-9-21.78-15.63-24.25-4.62-1.72-10-.58-15.87,3.4-10.63,7.17-30.28,8.38-52.56,3.24-18.28-4.23-33.88-11.8-38.51-18.63-3.2.89-15.74,4.12-22.08,1.66l-36.41,41.3-.7-.4c-.95-.53-22.86-12.86-26.85-23.81-3.15-.36-17-2.47-39.31-13.34-2.34,1.45-12,5.53-33.95-7.71-4.45.64-22.25,3-25.76.93-.65.08-3,2-4.24,6.33-1.85,6.39-2.58,23.43,30.4,43.54l.27.16.12.29c.38.85,1.41,3.18,2.71,6.43l1.33,3.33L115.21,189C100,177.54,76.56,164.6,51.85,168.19c-17.37,2.52-33,13-46.36,31.1L3,202.72l.74-4.2C6.61,182.2,13.5,170,24.18,162.14c1-2.49,8.25-19.7,19.52-26.61,1.25-3.85,8.36-24.74,15.86-26.8,1.58-3.76,2.52-7.62,2-8.3a3.18,3.18,0,0,0-.85.3l-3.89,2,2.65-3.46c7.44-9.7,15.13-21.32,14.84-23.54l-1-.48.79-1c1.09-1.33,26.7-32.38,48-32.38h.16c2.69-2.38,22.67-19,55.37-21.14,2.09-1.57,16.13-12,22.44-13,1.36-.23,2.83-.4,4.39-.59,5.69-.68,12.14-1.45,14.47-4.95L220.4,0l1.12,7.32,5-6.38-.82,4.13s-1,5.18,1.26,7.93a5.19,5.19,0,0,0,4.27,1.73l2.87,0c7.56-.06,13.56-.1,17.68,3.37,3.22.86,34.43,9.3,44.28,15.61,2.85-.25,20.82-1.4,37.69,8.31l1,.6-2.33,2.72c3.51-.1,10,.9,18.24,7.62l.16.16c2.95,3.84,11.62,14,16.21,14.82l1.31.24-2.29,4.58c3.24,1.46,13.12,7,19.62,21.81a196.53,196.53,0,0,1,8.59,18.76c1.53,1.09,8.88,6.53,10.44,11.75s6.22,9.83,6.26,9.88l1.51,1.51-6.18.56c2.54,2.88,6.25,6.32,8.3,6.32.61,0,1.48.33,3.74,2.73,8.7,9.24,40.43,54.65,38.51,87.78l3.45,30.5-4.37-2.19.48,4.79-1.53-.62c-37.55-15.33-82.59-.6-95.5,4.28Zm-3.61-9.28,3.79.54,1.29,6.05c14.17-5.22,57.43-18.68,94.34-4.46l-.51-5.12,4.31,2.16-3.06-27v-.08c1.19-19.92-10.65-44.3-17.81-57.06-10.23-18.24-20.59-30.69-22.52-31.42-4.15-.09-10.31-7.65-11-8.51l-1.16-1.45,5.82-.54a27.84,27.84,0,0,1-5.39-9.2c-1.5-5-9.83-10.8-9.92-10.86l-.26-.18-.11-.31c-2.66-7.45-8.56-18.75-8.62-18.87-7.35-16.77-19.4-21.17-19.52-21.22l-1.07-.37,2.14-4.3c-6.14-2.4-15.14-13.85-16.12-15.11-11.1-9-18.73-6.9-19.05-6.8l-3.27,1,4.67-5.45c-17.14-9.36-35.58-7.45-35.77-7.42l-.37,0-.3-.2C285.7,29.21,251.36,20,251,20l-.23-.06-.17-.15c-3.56-3.12-9.29-3.09-16.53-3l-2.89,0a7.09,7.09,0,0,1-5.81-2.47,10.1,10.1,0,0,1-1.93-6.17l-3.21,4.11-1.12-7.27c-3.35,2.84-9.17,3.53-14.4,4.15-1.53.19-3,.36-4.29.58-6.2,1-21.65,12.72-21.81,12.84l-.24.18-.3,0c-34.51,2.12-54.53,20.7-54.72,20.89l-.3.28h-.92c-18.8,0-42.27,26.72-45.95,31.06a1.55,1.55,0,0,1,.06.23c.82,3.53-9.05,17.18-13.8,23.48A2.27,2.27,0,0,1,63,99c1.94,1.84-.58,8.33-1.75,11l-.22.51-.56.08c-5.72.82-12.71,19-14.93,25.91l-.11.36-.33.19c-11.5,6.8-19,25.9-19.11,26.09l-.11.28-.24.17c-9.45,6.82-15.84,17.26-19,31.06,13.12-16.44,28.25-26,45-28.44,23.88-3.48,46.43,8,62,19.11-.53-1.26-1-2.22-1.21-2.8C84,165.17,80.25,149.59,80.54,141.83c.27-7,3.66-11.33,5.74-12.39a2.09,2.09,0,0,1,2.22-.05c2.14,1.43,16.35,0,24.81-1.24l.35-.05.31.18c23.85,14.52,32.39,7.76,32.48,7.69l.49-.42.6.28c25,12.23,39.64,13.46,39.78,13.47l.69,0,.19.66c2.8,9.31,21.55,20.63,25.43,22.89L250,131.7l.69.34c6.09,3.05,21.9-1.64,22.06-1.69l.75-.22.4.68c3.72,6.45,19.56,14.17,37.65,18.35,21.75,5,40.82,3.92,51-2.95,6.47-4.36,12.41-5.57,17.68-3.62,7.3,2.71,13,11.33,16.86,25.6l.08.3c.39,1.42,1.42,5.19-35.6,44,.38,2-1.23,4.44-4.88,7.44C348.66,226.56,353.77,256.75,354.68,261.73Zm59.92-116.4Zm-199.08,4.44-9.17-10.32-6.19,9.28-1.43-1.1-1-11.87-8.44,1.69-.38-.51c-1.4-1.93-2.8-4-4.15-6.19-.22-.35-.43-.72-.62-1.08-3.79-7.25-1.29-14.82,1.48-19.9a30.37,30.37,0,0,1,3-4.6l4.41-5.31-2.72,6.34c-.94,2.18,1.66,9.69,4,15.07l2.38-5.25,4.77,4.75,1.57-4.7,5.5,4.39,2.23-5.58,3.65,3.65L216,112.8l4.37,3.28,3-10.34L230.71,121h0c.91-4.11-.49-13.3-.51-13.4l-.12-.81.77-.28c3.6-1.31,7.84,2.33,12.58,10.81l.06.11c1.31,2.38,2.14,4.19,2.17,4.26l.1.23v.25c-.31,4.41-3.11,9-8.34,13.54l-.59.52-9-6.24v12.56l-2,1.15-7.64-8.1Zm-9.4-13.58,8.2,9.22,2.7-14,8.84,9.36V126.14l10.82,7.53c4.35-3.94,6.72-7.78,7.06-11.4-.26-.56-1-2.09-2-3.93l0-.1c-3.56-6.34-7-9.94-9.35-10,.34,2.55,1.15,9.48.34,13.15a3.73,3.73,0,0,1-1.51,2.63l-.94.55-6.39-13.29-2.39,8.12-4.32-3.24-1.69,6.21-3.94-3.94-2.11,5.27L204,119.42l-1.68,5-5-5-3,6.64-.92-2c-.54-1.17-4.31-9.48-5.08-15-.29.47-.61,1-.92,1.58-2.54,4.66-4.85,11.56-1.47,18,.17.31.35.63.55.95,1.21,1.95,2.44,3.81,3.69,5.55l9.38-1.88.94,11.29ZM190.33,89.91a7.23,7.23,0,0,1-4-1.13c-6-3.86-4.48-16.22-4.41-16.74l.23-1.81,18.75,15.63-1.19.72Q194.27,89.91,190.33,89.91Zm-6.58-15.74c-.18,3.42-.05,10.54,3.65,12.94,2.26,1.45,5.63.94,10-1.52Zm44.92,13.41a37,37,0,0,1-10.79-2l-1.6-.5,20.15-19.55.57,1.34c.21.49,5.06,12-.11,17.7C235.09,86.58,232.34,87.58,228.67,87.58Zm-8.57-3.4c7.64,2.17,12.79,1.86,15.31-.93,3.38-3.73,1.34-11.12.27-14.19Z" style="fill:#fff"/><path d="M250.19,57s3.26-19.54-6-19.54c0,0-23.33,23.88-34.73,23.88,0,0-33.09-24.41-41.23-22.24,0,0-7.06,17.9,4.88,26,0,0,8.68,13,0,23.87,0,0,5.43,17.36,13,20.08l.35,1.19a29.45,29.45,0,0,1,2.91-4.44c-1.64,3.79,4.88,17.9,4.88,17.9l2.71-6,4.89,4.88,1.62-4.88,5.43,4.34,2.18-5.42,3.79,3.79,1.63-6,4.34,3.26,2.71-9.22,6.35,13.2,1.74-.53c1-4.34-.49-13.76-.49-13.76,4-1.44,8.67,5.53,11.37,10.36-.52-1.12-7.21-16.11,2.19-24.47,9.77-8.67-3.25-16.28-.54-20.62C244.22,72.7,239.88,60.77,250.19,57ZM182.9,72.16l16.28,13.57C179.65,97.67,182.9,72.16,182.9,72.16Zm35.28,12.49,17.9-17.37S247.48,93.87,218.18,84.65Z" style="fill:#062762"/><path d="M194.31,126.11l-.92-2c-.54-1.17-4.31-9.48-5.08-15-.29.47-.61,1-.92,1.58l-1.15,2.13-.9-3c-7.71-3.35-12.93-19.82-13.16-20.53l-.15-.51.33-.41c7.64-9.55.95-21.09,0-22.54-12.21-8.55-5.15-26.93-5.07-27.12l.18-.47.49-.13c8.19-2.18,37.3,18.89,41.81,22.21,11-.45,33.47-23.34,33.7-23.58l.29-.3h.42A6,6,0,0,1,249,38.62c4.36,5.15,2.29,18,2.2,18.51l-.1.58-.55.2c-9.24,3.4-5.53,14-5.37,14.45l.17.46-.26.41c-.69,1.11.34,3,1.55,5.07,2.34,4.13,5.54,9.79-1.2,15.77-8.93,8-2.23,22.67-1.94,23.3l-1.78.91c-3.55-6.35-7-10-9.37-10,.34,2.55,1.15,9.48.34,13.15l-.13.57-3.12,1-5.59-11.63-2.39,8.12-4.32-3.24-1.69,6.21-3.94-3.94-2.11,5.27L204,119.42l-1.68,5-5-5Zm-1.25-26.25-2.72,6.34c-.94,2.18,1.66,9.69,4,15.07l2.38-5.25,4.77,4.75,1.57-4.7,5.5,4.39,2.23-5.58,3.65,3.65L216,112.8l4.37,3.28,3-10.34,7.11,14.77.34-.1c.69-4.32-.59-12.74-.61-12.83l-.12-.81.77-.28c2.55-.93,5.42.62,8.56,4.62-1.14-5.59-1.22-13.29,4.68-18.53,5.52-4.91,3.11-9.17.78-13.29-1.36-2.4-2.65-4.67-1.74-6.69-.67-2.24-3.14-12.5,6.14-16.35.35-2.46,1.48-12.44-1.82-16.34a4,4,0,0,0-2.84-1.46c-2.94,3-24,23.86-35.13,23.86h-.33l-.26-.19C200,55.57,176,39.16,169,39.94c-1,2.92-5.34,17.5,4.7,24.34l.16.11.11.16c.09.14,8.76,13.42.29,24.62.94,2.81,5.89,16.68,12.24,19l.07,0a25.48,25.48,0,0,1,2.08-3Zm-2.72-10a7.24,7.24,0,0,1-4-1.13c-6-3.86-4.48-16.22-4.41-16.74l.23-1.81,18.75,15.63-1.19.72C196.08,88.8,193,89.91,190.34,89.91Zm-6.59-15.74c-.17,3.42-.05,10.54,3.65,12.94,2.26,1.45,5.63.94,10-1.52Zm44.92,13.41a37,37,0,0,1-10.79-2l-1.6-.5,20.15-19.55.57,1.34c.21.49,5.06,12-.11,17.7C235.09,86.58,232.34,87.58,228.67,87.58Zm-8.57-3.4c7.64,2.17,12.79,1.86,15.31-.93,3.38-3.72,1.33-11.12.27-14.19Z" style="fill:#fff"/></g></g></svg>