<svg xmlns="http://www.w3.org/2000/svg" viewBox="0 0 369.7 300.88"><title>Basilisk_1</title><g id="a76301e6-4b98-4b39-8ffe-5d41fb07eaa5" data-name="Layer 2"><g id="b804cddb-1fac-4c3e-b6b5-830a5aa9e693" data-name="Layer 1"><path d="M368.11,171.44l-15.94-21.08s-17.48-1.55-23.13-5.15-25.19-57.06-102.3-49.35a166.94,166.94,0,0,1-48.32-9.76c-25.19-9.24-46.72-13.87-67.27-9.24S69.51,89.7,65.91,94.33C63.8,97.05,93.58,257.18,93.58,257.18s92.84,41.51,98.79,42.15c0,0,37.84-25.46,59.44-5.4,0,0,32.51-23.79,54.62-16.61s33.4-1.55,33.4-1.55,6.18-25.69,9.78-26.21c0,0-68.37-20.56-112.58-44.19-11.54-6.18-19.78-10.79-25.63-14.2a3.69,3.69,0,0,1,2.21-6.86c21,2,56.56,5.53,63,7.69,9.26,3.08,69.4,1,69.4,1s18.5,10.26,20.55,8.21S368.11,171.44,368.11,171.44Zm-83.27-24L276.61,144c28.79-8.58,36.32,10.61,36.32,10.61C290.66,174.18,284.84,147.44,284.84,147.44Z" style="fill:#2d6772"/><path d="M314.32,154.08c-.08-.2-8.37-20.36-38.14-11.5l-4,1.21,11.43,4.75c.74,2.73,3.7,11.73,11.05,14.15a11.88,11.88,0,0,0,3.76.59c4.63,0,9.83-2.51,15.54-7.52l.79-.7Zm-18.75,5.76c-6.89-2.26-9.24-12.61-9.26-12.72l-.17-.76-4.83-2c20.45-4.44,28,6.5,29.77,9.89C305,159.34,299.79,161.23,295.57,159.84Zm18.75-5.76c-.08-.2-8.37-20.36-38.14-11.5l-4,1.21,11.43,4.75c.74,2.73,3.7,11.73,11.05,14.15a11.88,11.88,0,0,0,3.76.59c4.63,0,9.83-2.51,15.54-7.52l.79-.7Zm-18.75,5.76c-6.89-2.26-9.24-12.61-9.26-12.72l-.17-.76-4.83-2c20.45-4.44,28,6.5,29.77,9.89C305,159.34,299.79,161.23,295.57,159.84Zm18.75-5.76c-.08-.2-8.37-20.36-38.14-11.5l-4,1.21,11.43,4.75c.74,2.73,3.7,11.73,11.05,14.15a11.88,11.88,0,0,0,3.76.59c4.63,0,9.83-2.51,15.54-7.52l.79-.7Zm-18.75,5.76c-6.89-2.26-9.24-12.61-9.26-12.72l-.17-.76-4.83-2c20.45-4.44,28,6.5,29.77,9.89C305,159.34,299.79,161.23,295.57,159.84Z" style="fill:#fff"/><path d="M369.61,171.42v-.49l-16.64-22-.66-.06c-4.76-.42-18.08-2.13-22.46-4.93-.67-.42-2.15-2.63-3.72-5-9.38-14-34.29-51.09-99.44-44.62a167.49,167.49,0,0,1-47.75-9.67c-29.17-10.7-49.54-13.48-68.11-9.3-18.77,4.21-41.77,12.46-46.1,18C64,94.35,63,95.64,77.48,177c7.1,39.91,14.55,80,14.63,80.41l.14.78.72.32c9.52,4.26,93.22,41.62,99.23,42.27l.55.06.45-.31c.37-.24,37.1-24.57,57.59-5.54l.91.84,1-.73c.32-.24,32.13-23.25,53.26-16.39,22.6,7.37,34.3-1.41,34.78-1.79l.42-.32.12-.51c2.48-10.29,6.13-21.9,8.19-24.62a2.52,2.52,0,0,0,.5-1.42,2.45,2.45,0,0,0-.19-1.05c2.6-4-.34-17.53-1.21-21.25.17,4.13-7.2,13.48-9.89,16.75l-3.61-1.18c4.19-2.22-1-18.2-2.38-22.13.7,4.4-6.88,15.89-8.62,18.45l-4.44-1.53c3.72-2.72-.87-18.29-2.05-22.06.66,4.3-7.12,15.41-9.07,18.13-1.78-.64-3.6-1.3-5.44-2,2.34-3.52-.73-15.85-1.59-19.09.33,3.69-6.17,12.41-8.44,15.34l-5.4-2.09c1.49-3.34-.83-12.69-1.52-15.28.23,2.85-4.42,9.3-6.55,12.08l-3.88-1.58c.59-3.19-1-9.56-1.49-11.34.23,2-2.67,6.29-4.54,8.81l-3.72-1.59c1-2.88-.82-10.08-1.33-12,.24,2.11-3.05,6.82-4.87,9.25q-2.46-1.09-4.86-2.2c.63-2.62-.8-8.3-1.21-9.84.21,1.67-2.25,5.31-3.83,7.45-4.19-2-8.25-4-12.11-6.12-10.18-5.46-18.79-10.23-25.59-14.18a2.09,2.09,0,0,1-1-2.53,2.13,2.13,0,0,1,2.31-1.54c19.12,1.8,34.37,3.41,45.13,4.75.68,2.43,2.09,8,1.18,9.87,1-1.4,4.49-6.22,5-9.06l3.45.51c.63,2.16,2.61,9.38,1.49,11.62,1.19-1.6,5.19-7.18,5.61-10.3l.77.23a23.58,23.58,0,0,0,4.31.81c.87,3.22,2.26,9.2,1.24,11.28,1.24-1.67,5.22-7.24,6.05-10.72,1.76.1,3.65.17,5.63.22,1.06,3.89,2.78,11.24,1.52,13.8,1.6-2.14,6.85-9.48,7.48-13.63l7.54,0c1,4.21,2.77,13.08,1.2,16,2.08-2.56,9.32-11.85,9.09-16.11l4-.06c.8,3.78,2.7,13.92.87,17,2.33-2.71,11.58-13.85,9.23-17.18l4.8-.12c.76,2.3,4.58,14.18,2.9,17.79,1.7-2.44,7.48-11,7.94-15.68,15.22,8,17.07,6.1,17.71,5.46C369.69,200.23,369.85,184.36,369.61,171.42ZM365.53,200c-2.3,0-11.35-4.18-18.8-8.31l-.36-.21-.41,0c-20.71.7-61.76,1.42-68.88-.95-6.2-2.08-37.86-5.37-63.33-7.77a5.14,5.14,0,0,0-5.45,3.62,5.08,5.08,0,0,0,2.34,6c6.83,4,15.46,8.75,25.68,14.22,39.13,20.92,97.8,39.64,110.42,43.56-1.21,1.89-2.74,5.45-4.81,12.17-1.64,5.35-3,10.72-3.42,12.44-2.16,1.37-12.88,7.15-31.62,1-20.65-6.71-49.21,12.09-55,16.11-21.16-18.14-55.07,2.63-59.87,5.73-6.86-1.74-61-25.44-97.14-41.61C83.46,194.5,66.9,102.12,67.29,95c3.64-4,23.32-12,44.18-16.69,18-4,37.84-1.3,66.43,9.19a169.93,169.93,0,0,0,48.8,9.85h.19c63.43-6.34,87.63,29.73,96.74,43.3,2.12,3.16,3.4,5.06,4.6,5.83,5.32,3.38,19.81,5,23.14,5.31L366.62,172C366.83,184.11,366.48,197.46,365.53,200Z" style="fill:#f7f7f5"/><path d="M352.17,150.36s9.43-36.5-34.44-68c0,0,15.08,28.79,7.54,26.73,0,0-28.1-34.27-44.55-35.64,0,0,36.33,32.73,25.36,44.38L328.7,157Z" style="fill:#79141d"/><path d="M328.22,158.22l-23.38-40.56.51-.55a6.89,6.89,0,0,0,1.79-5.28c-.56-13.61-26.82-37.43-27.09-37.66l-2.2-2,2.95.25c16.09,1.34,42.14,32.25,45,35.73a.49.49,0,0,0,.37,0c1.46-1.83-3.71-14.56-9.34-25.31l-2-3.74,3.43,2.46c43.91,31.56,34.92,68.72,34.82,69.09l-.14.55Zm-20.92-40.3,21.88,37.94,22.14-6.3c.88-4.51,5.41-35.83-30.75-63.86,3.74,7.53,9.63,20.61,7.17,23.66A2.43,2.43,0,0,1,325,110l-.31-.09-.2-.24c-.26-.32-24.41-29.59-40.51-34.6,6.83,6.55,24.65,24.72,25.14,36.64A9.06,9.06,0,0,1,307.3,117.92Z" style="fill:#fff"/><path d="M295.07,108.42s-4.75-11.69-10.92-15.12l-2.06,10.16s-4-10.84-26-38.95c0,0,11.65,32.94-6.17,32.26L278,124.83Z" style="fill:#79141d"/><path d="M278,126.23l-30.6-30.56,2.55.1c3,.11,5.25-.79,6.71-2.79,5.63-7.64-1.45-27.93-1.53-28.14l-2-5.73,3.75,4.78c15.91,20.26,22.44,31.54,24.89,36.37l1.72-8.5,1.19.66C291,96,295.8,107.55,296,108l.25.63ZM252.19,97.66,278,123.43l15.89-15.25c-1-2.23-4.58-9.87-9-13.24l-2.46,12.17-1.23-3.3c0-.1-3.81-10-22.59-34.43,1.83,6.89,4.07,18.83-.32,24.79A8.61,8.61,0,0,1,252.19,97.66Z" style="fill:#fff"/><path d="M237.54,94.84S206.7,56.46,199.85,53.71l8.22,39.76Z" style="fill:#79141d"/><path d="M239.71,95.94l-32.46-1.51-8.76-42.34,1.73.7c7,2.8,36.84,39.85,38.1,41.42ZM208.89,92.5l26.48,1.24c-8.57-10.57-26.91-32.46-34.08-38Z" style="fill:#fff"/><polygon points="160.15 84.76 91.26 5.29 124.63 86.36 160.15 84.76" style="fill:#79141d"/><path d="M124,87.39,88,0l74.25,85.67ZM94.51,10.57l30.78,74.76L158,83.86Z" style="fill:#fff"/><path d="M197.53,92.86s-13.81-52.75-22.14-60c0,0,13.94,48.17,2.49,45.58,0,0,2.46-6-35.49-67.4l9.52,74.6,19.57,22.15Z" style="fill:#79141d"/><path d="M171.27,109,151,86,140.82,6.54l2.42,3.92c30.5,49.33,35.17,63.2,35.62,67A1.54,1.54,0,0,0,180,77c4-4.26-1.1-28.57-5.53-43.87l-1-3.29,2.57,2.26c8.46,7.41,21.88,58.38,22.44,60.55l.2.74ZM152.86,85.16l18.83,21.31,24.67-14.1c-1.49-5.59-11.14-41.18-18.55-54.54,2.93,11.15,8.53,35.28,3.61,40.5a3.74,3.74,0,0,1-3.76,1l-1.14-.26.4-1c0-.77-.42-9.68-32.95-62.66Z" style="fill:#fff"/><polygon points="113.03 58.34 47.23 22.7 97.27 93.98 124.31 86.65 113.03 58.34" style="fill:#79141d"/><path d="M96.85,95.13,44,19.8l69.85,37.84,11.83,29.68ZM50.49,25.61,97.68,92.83,123,86,112.24,59.05Z" style="fill:#fff"/><polygon points="85.62 67.25 4.05 5.57 74.74 112.49 111.66 119.34 85.62 67.25" style="fill:#79141d"/><path d="M113.45,120.69l-39.31-7.3L0,1.25,86.41,66.6Zm-38.11-9.11L109.87,118l-25-50.08L8.11,9.89Z" style="fill:#fff"/></g></g></svg>