<svg xmlns="http://www.w3.org/2000/svg" viewBox="0 0 369.7 300.88"><title>Basilisk</title><g id="f100fb5f-2d29-4764-b18c-14b10c0fbbf4" data-name="Layer 2"><g id="e693222e-3d4b-400e-8921-fe8b7d647d5d" data-name="Layer 1"><path d="M368.11,171.44l-15.94-21.08s-17.48-1.55-23.13-5.15-25.19-57.06-102.3-49.35a166.94,166.94,0,0,1-48.32-9.76c-25.19-9.24-46.72-13.87-67.27-9.24S69.51,89.7,65.91,94.33C63.8,97.05,93.58,257.18,93.58,257.18s92.84,41.51,98.79,42.15c0,0,37.84-25.46,59.44-5.4,0,0,32.51-23.79,54.62-16.61s33.4-1.55,33.4-1.55,6.18-25.69,9.78-26.21c0,0-68.37-20.56-112.58-44.19-11.54-6.18-19.78-10.79-25.63-14.2a3.69,3.69,0,0,1,2.21-6.86c21,2,56.56,5.53,63,7.69,9.26,3.08,69.4,1,69.4,1s18.5,10.26,20.55,8.21S368.11,171.44,368.11,171.44Zm-83.27-24L276.61,144c28.79-8.58,36.32,10.61,36.32,10.61C290.66,174.18,284.84,147.44,284.84,147.44Z" style="fill:#2d6772"/><path d="M350,250.08a2.53,2.53,0,0,1-.5,1.43c-2.06,2.72-5.71,14.33-8.18,24.61l-.13.52-.41.32c-.49.38-12.19,9.16-34.79,1.79-21.13-6.87-52.94,16.15-53.26,16.39l-1,.73-.91-.84c-20.49-19-57.22,5.3-57.59,5.54l-.45.31-.54-.06c-6-.65-89.72-38-99.24-42.27l-.72-.33-.14-.77C92,257.05,84.58,217,77.48,177,63,95.64,64,94.35,64.72,93.41c4.33-5.56,27.33-13.81,46.1-18,18.57-4.19,39-1.4,68.11,9.3a167.49,167.49,0,0,0,47.75,9.67C291.83,87.89,316.74,125,326.12,139c1.57,2.33,3.05,4.54,3.72,5,4.39,2.8,17.7,4.51,22.46,4.93l.66.06,16.65,22v.49c.24,12.94.08,28.81-2,30.88-.71.7-2.83,2.83-22-7.76-5.78.19-60.4,1.91-69.5-1.12-4.64-1.55-26.89-4.25-62.67-7.62a2.13,2.13,0,0,0-2.31,1.54,2.08,2.08,0,0,0,1,2.53c6.8,3.95,15.4,8.72,25.58,14.18,39.53,21.13,99.19,40,110.45,43.5a2.55,2.55,0,0,1,1.79,2.53Zm-255.06,6c36.19,16.17,90.28,39.87,97.14,41.61,4.8-3.1,38.71-23.87,59.87-5.73,5.76-4,34.32-22.82,55-16.11,18.74,6.11,29.46.32,31.62-1,.42-1.72,1.78-7.09,3.42-12.44,2.07-6.72,3.6-10.28,4.81-12.17-12.62-3.92-71.28-22.64-110.42-43.56-10.21-5.47-18.85-10.25-25.68-14.22a5.08,5.08,0,0,1-2.34-6,5.14,5.14,0,0,1,5.45-3.62c25.47,2.4,57.13,5.69,63.33,7.77,7.12,2.37,48.17,1.65,68.88.95l.41,0,.37.2c7.45,4.14,16.49,8.34,18.79,8.32,1-2.57,1.3-15.92,1.09-28.07l-15.25-20.17c-3.33-.33-17.82-1.93-23.14-5.31-1.2-.77-2.48-2.67-4.6-5.83-9.11-13.58-33.31-49.64-96.74-43.3h-.18a169.91,169.91,0,0,1-48.81-9.85C149.32,77,129.45,74.27,111.48,78.32,90.61,83,70.94,91,67.29,95,66.9,102.12,83.46,194.5,94.91,256.13Zm203.47-92.85a11.88,11.88,0,0,1-3.76-.59c-7.35-2.42-10.31-11.42-11.05-14.15l-11.43-4.75,4-1.21c29.77-8.86,38.07,11.3,38.15,11.5l.38,1-.79.7C308.22,160.77,303,163.28,298.38,163.28Zm-17.07-18.93,4.83,2,.17.76c0,.11,2.37,10.46,9.26,12.72,4.23,1.39,9.44-.5,15.51-5.6C309.28,150.85,301.76,139.91,281.31,144.35Z" style="fill:#fff"/><path d="M341.72,241.69S354.4,227,352.35,222.84c0,0,5.82,23-.35,23.3Z" style="fill:#f7f7f5"/><path d="M311.07,230.83s11.59-15.61,9.25-19.56c0,0,7.45,22.49,1.32,23.27Z" style="fill:#f7f7f5"/><path d="M295.27,225.47s10.94-13.49,9-17.11c0,0,5.8,20.35.3,20.82Z" style="fill:#f7f7f5"/><path d="M281.53,220.53s9-11.1,7.41-14.08c0,0,4.77,16.75.25,17.14Z" style="fill:#f7f7f5"/><path d="M271.17,217s7.18-8.85,5.91-11.23c0,0,3.8,13.37.19,13.67Z" style="fill:#f7f7f5"/><path d="M261.57,213.27s7.19-8.86,5.91-11.24c0,0,3.81,13.37.2,13.67Z" style="fill:#f7f7f5"/><path d="M251.57,208.83s6.07-7.49,5-9.5c0,0,3.22,11.3.17,11.55Z" style="fill:#f7f7f5"/><path d="M326.72,236.19s11.12-15.95,8.66-19.83c0,0,8.12,22.26,2,23.22Z" style="fill:#f7f7f5"/><path d="M338.93,198.34s5.58,16.15,2.57,18.84c0,0,12.2-16.87,7.27-19.15Z" style="fill:#f7f7f5"/><path d="M309.34,196.93s4.42,16.5,1.22,19c0,0,13.37-16,8.62-18.58Z" style="fill:#f7f7f5"/><path d="M292.65,196.52s4.56,14.56,1.8,16.89c0,0,11.33-14.74,7-16.9Z" style="fill:#f7f7f5"/><path d="M279.83,196.1s3.75,12,1.48,13.9c0,0,9.33-12.13,5.76-13.91Z" style="fill:#f7f7f5"/><path d="M258.26,193.39s3.09,9.85,1.22,11.43c0,0,7.67-10,4.73-11.44Z" style="fill:#f7f7f5"/><path d="M270.07,195.25s3.42,10.94,1.35,12.68c0,0,8.51-11.06,5.25-12.69Z" style="fill:#f7f7f5"/><path d="M323.87,197.62s3.91,16.63.65,19c0,0,13.84-15.55,9.17-18.32Z" style="fill:#f7f7f5"/><path d="M352.17,150.36s9.43-36.5-34.44-68c0,0,15.08,28.79,7.54,26.73,0,0-28.1-34.27-44.55-35.64,0,0,36.33,32.73,25.36,44.38L328.7,157Z" style="fill:#79141d"/><path d="M328.22,158.22l-23.38-40.56.51-.55a6.89,6.89,0,0,0,1.79-5.28c-.56-13.61-26.82-37.43-27.09-37.66l-2.2-2,2.95.25c16.09,1.34,42.14,32.25,45,35.73a.49.49,0,0,0,.37,0c1.46-1.83-3.71-14.56-9.34-25.31l-2-3.74,3.43,2.46c43.91,31.56,34.92,68.72,34.82,69.09l-.14.55Zm-20.92-40.3,21.88,37.94,22.14-6.3c.88-4.51,5.41-35.83-30.75-63.86,3.74,7.53,9.63,20.61,7.17,23.66A2.43,2.43,0,0,1,325,110l-.31-.09-.2-.24c-.26-.32-24.41-29.59-40.51-34.6,6.83,6.55,24.65,24.72,25.14,36.64A9.06,9.06,0,0,1,307.3,117.92Z" style="fill:#fff"/><path d="M295.07,108.42s-4.75-11.69-10.92-15.12l-2.06,10.16s-4-10.84-26-38.95c0,0,11.65,32.94-6.17,32.26L278,124.83Z" style="fill:#79141d"/><path d="M278,126.23l-30.6-30.56,2.55.1c3,.11,5.25-.79,6.71-2.79,5.63-7.64-1.45-27.93-1.53-28.14l-2-5.73,3.75,4.78c15.91,20.26,22.44,31.54,24.89,36.37l1.72-8.5,1.19.66C291,96,295.8,107.55,296,108l.25.63ZM252.19,97.66,278,123.43l15.89-15.25c-1-2.23-4.58-9.87-9-13.24l-2.46,12.17-1.23-3.3c0-.1-3.81-10-22.59-34.43,1.83,6.89,4.07,18.83-.32,24.79A8.61,8.61,0,0,1,252.19,97.66Z" style="fill:#fff"/><path d="M237.54,94.84S206.7,56.46,199.85,53.71l8.22,39.76Z" style="fill:#79141d"/><path d="M239.71,95.94l-32.46-1.51-8.76-42.34,1.73.7c7,2.8,36.84,39.85,38.1,41.42ZM208.89,92.5l26.48,1.24c-8.57-10.57-26.91-32.46-34.08-38Z" style="fill:#fff"/><polygon points="160.15 84.76 91.26 5.29 124.63 86.36 160.15 84.76" style="fill:#79141d"/><path d="M124,87.39,88,0l74.25,85.67ZM94.51,10.57l30.78,74.76L158,83.86Z" style="fill:#fff"/><path d="M197.53,92.86s-13.81-52.75-22.14-60c0,0,13.94,48.17,2.49,45.58,0,0,2.46-6-35.49-67.4l9.52,74.6,19.57,22.15Z" style="fill:#79141d"/><path d="M171.27,109,151,86,140.82,6.54l2.42,3.92c30.5,49.33,35.17,63.2,35.62,67A1.54,1.54,0,0,0,180,77c4-4.26-1.1-28.57-5.53-43.87l-1-3.29,2.57,2.26c8.46,7.41,21.88,58.38,22.44,60.55l.2.74ZM152.86,85.16l18.83,21.31,24.67-14.1c-1.49-5.59-11.14-41.18-18.55-54.54,2.93,11.15,8.53,35.28,3.61,40.5a3.74,3.74,0,0,1-3.76,1l-1.14-.26.4-1c0-.77-.42-9.68-32.95-62.66Z" style="fill:#fff"/><polygon points="113.03 58.34 47.23 22.7 97.27 93.98 124.31 86.65 113.03 58.34" style="fill:#79141d"/><path d="M96.85,95.13,44,19.8l69.85,37.84,11.83,29.68ZM50.49,25.61,97.68,92.83,123,86,112.24,59.05Z" style="fill:#fff"/><polygon points="85.62 67.25 4.05 5.57 74.74 112.49 111.66 119.34 85.62 67.25" style="fill:#79141d"/><path d="M113.45,120.69l-39.31-7.3L0,1.25,86.41,66.6Zm-38.11-9.11L109.87,118l-25-50.08L8.11,9.89Z" style="fill:#fff"/></g></g></svg>