<svg xmlns="http://www.w3.org/2000/svg" viewBox="0 0 364.69 408.37"><title>Bearded-Devil</title><g id="aae6c7ed-0144-42d0-b58d-03bb025df7c8" data-name="Layer 2"><g id="e2b6e46f-629f-4723-ad6b-e6c812809a74" data-name="Layer 1"><path d="M149.09,207l-2.3-3.2c-4.57,0-7.31,6.87-11,13.27-2.25,3.92-9.28,4.59-14.41,4.5.12-4.79-.12-12.71-2.52-18.69l-14.79,4.14,1.07-1.4L102.4,197c1.37,1.82,11-6.86,14.2-10.07a6.11,6.11,0,0,1,3.92-1.66h.1c.86.06,1.8.08,2.81.1h0a15.2,15.2,0,0,1,2.76.64l.59-.66c4.08-.09,9.14-.45,15.42-1.17Z" style="fill:#6e4d7c"/><path d="M213.7,258.86a83.78,83.78,0,0,1-9.68,1.72c-12.36,1.37-13.27,22.88-13.27,22.88-41.66,38-44.41.46-44.41.46-6.32-12.24,8-43.9,10.23-48.79,12.18-7.52,16.78-2,16.78-2,12.35-11.9,20.59,11.44,20.59,11.44,1.83-11.44,9.16-1.37,9.16-1.37q3.19,5.2,6.21,9.58l-4.38,6,8.07-.81Z" style="fill:#6e4d7c"/><path d="M240.63,333.81l-2.29,10.53-5-12.36c-2.88-1.05-3.52-5.38-3.53-8.9-1.16,8.11-5.17,8.45-5.17,8.45l-4.12,4.11-2.75-13.73-4.11,1.37-1.83-7.78c-2.39-2.38-.63-11.35,1.26-18.49l7.43.65c13-3.47,19.32-8.42,21.72-13.74.57.19,1.08.35,1.53.47.46,5.38,1,14.53.09,18.3-1.38,5.49,1.84,22.42,1.84,22.42C248.87,334.27,240.63,333.81,240.63,333.81Z" style="fill:#6e4d7c"/><path d="M339,198.78s11,16.94,9.15,47.16c-1.41,23.16-21.66,27.76-31,28.65h0c-7.72-2.44-17.59-3.28-25.33-3.54l-23.29-26.49,13.27,1.83c-18.77-23.34-9.61-30.67-2.74-33.41s15.55,29.76,15.55,29.76c.89-2.45,5.61-6,10.28-9.13,2.32.22,23.31,2,18.56-10.56-5-13.27-.45-38-.45-38,21.51-36.16,31.58-12.82,31.58-12.82C339.94,170.87,339,198.78,339,198.78Z" style="fill:#6e4d7c"/><path d="M255.74,158.52c-1.41,3.28-1.83,5.36-1.67,6.64h0l-1.09.2,4.13,10.07L242,177.74c-11.9-1.38-27.46,12.36-27.46,12.36l-13.74-6.87L193,188.9c-1.62-9.34-10.67-30.11-11-30.83l2.73,3.19,5.5-2.74c-5.5-3.67,3.65-22.89,3.65-22.89-.77,0-3.21,2.06-6.46,5.19l1-4.59,3.62-4.4c4.48-3.19,12.62-8.19,17.41-6.27,6.87,2.75,17.86-3.21,17.86-3.21l11-1.83c14-6,15.27-15.33,11.78-24.45,4.65,1.85,9.89,10.75,14.16,19.68-1.66-1.24-2.6-2.09-2.6-2.09A80.21,80.21,0,0,1,255.74,158.52Z" style="fill:#6e4d7c"/><path d="M270.15,75.78s-.23,1.26-8.47-2.4C240.37,63.91,236.51,62.86,231,68.8a4.54,4.54,0,0,0-.91,1.56c-1.14-1-1.83-1.56-1.83-1.56-3.2-1.37-7.33,7.33-7.33,7.33-3.65-.92-7.31,4.58-7.31,4.58C209.5,78,204,83.45,204,83.45a8.6,8.6,0,0,0-9.62-1.37s0-2.3-4.58-6.41c-2-1.79-1.9-7.37-1.17-13.11a.06.06,0,0,1,0,0c1.87-9.26,7.11-11.11,7.11-11.11l-.45-7.32,4.57-3.2,2.3-21.51,2.48,6.34A51.1,51.1,0,0,0,209,41.8c4.13-4.58,22.43-2.74,22.43-2.74l.46,16.47a34.12,34.12,0,0,0,17.88-13.76l9.58-2.25L256.26,50.3l-1.91,4.77C269.46,56.56,270.15,75.78,270.15,75.78Z" style="fill:#6e4d7c"/><path d="M362.84,394.69c-2.3,6.86-13.28,4.57-13.28,4.57l-3.2,3.66-2.75-2.75-4.12,1.38-3.66,5.5-4.57-5.5c-3.67-3.66,5.48-15.56,5.48-15.56-1.37-1.83,1.83-20.14,1.83-20.14l-.78-.78a37.64,37.64,0,0,1,23.68-6.88C362.66,369.78,364.44,389.88,362.84,394.69Z" style="fill:#6e4d7c"/><path d="M269,48.2l5.48,3.67c-6.4,2.29-17.38-3.67-17.38-3.67l-.85,2.1,3.13-10.78-9.58,2.25a34.12,34.12,0,0,1-17.88,13.76l-.46-16.47S213.17,37.22,209,41.8a51.1,51.1,0,0,1-4.37-16.08l1.63,4.18c4.11-6.41,14.19-6.87,14.19-6.87s-3.2-14.18,8.69-18.77c36.49-14,36.63,27,39.37,24.27s4.57-8.24,10.53-3.67c5.79,4.46,2.46-10.2,2.3-11,.27.43,4.57,7.37,5,9.59s3.67-6.4,3.67-6.4C298.3,47.74,269,48.2,269,48.2Z" style="fill:#2b291b"/><path d="M357.34,56l-6-.46c-1.37,7.33-16.47,7.33-16.47,7.33-.91,14.18-15.55,21-15.55,21,2.28,3.66,1.37,15.1,1.37,15.1,3.66,2.29,10.07-7.78,10.07-7.78,0,12.36-15.11,29.29-15.11,29.29L302,122.35c-14.2,9.1-31.27-1.76-37.68-6.6-4.27-8.93-9.51-17.83-14.16-19.68-4.24-11.07-15.57-21.8-20-25.71A4.54,4.54,0,0,1,231,68.8c5.5-5.94,9.36-4.89,30.67,4.58,8.24,3.66,12.81,1.83,12.81,1.83h0C285,63.31,291,66.06,291,66.06c12.81-12.82,28.84-5.49,28.84-5.49C345.44,26.23,357.34,56,357.34,56Z" style="fill:#847b6c"/><path d="M250.12,96.07c-4.24-11.07-15.57-21.8-20-25.71-1.14-1-1.83-1.56-1.83-1.56-3.2-1.37-7.33,7.33-7.33,7.33-3.65-.92-7.31,4.58-7.31,4.58C209.5,78,204,83.45,204,83.45a8.6,8.6,0,0,0-9.62-1.37s0-2.3-4.58-6.41c-2-1.79-1.9-7.37-1.17-13.11a35.68,35.68,0,0,0-.66,7.15s-9.61,4.13-10.53-3.2-8.23-13.27-10.07-11,7.33-12.81,7.33-12.81l-3.66-1.83,4.12-10.07-5,.45L161,17.09l-1.83,7.77s-6.87-.91-10.52,2.76L156,29.9,155,33.56s8.24,0,8.24,5l-3.2,1.83,1.83,11-16.49-3.67-4.11-8.22L138.57,45,128,35.85l.91,5.49s-8.7-.45-6.87,3.66c0,0,6.42-1.83,12.36,6.41,0,0-14.19,0-15.1,3.2v8.7S129,56,132.15,56.9l5.5,3.21,5-3.67s5,17.86,10.07,24.73c0,0-18.77-13.74-22.88-11v-6l-7.79,6.41h-8.24l3.67,3.2-7.33,5.94,13.27-.45L120.71,83l5,4.57-3.21,3.2,5.5,1.84-.46,5-4.13,2.28,4.59,4.59s4.57,10.53,14.18,11l-10.07,3.66L118,122.81l3.65,3.21s-5.48,6.86-3.19,10.53l8.24-6.42,1.37,5.5,9.15-9.61-.92,5.94,4.23-2.82h0l2.62-1.75,4.58,5.49-5.95,6-5.5-1.37-1.37,4.12L132.43,143l-9.89,5.5h8.24l.46,6.4s6.41-8.23,9.61-6.4l3.2,5,4.13-8.22,4.57,6.4s1.37-12.82,6-12.36c0,0,8.68-3.66,9.6-6.87h5.49l2,19.15.13,1,.13,1.32,2.68-4.27v0c2-2.08,3.94-4.1,5.75-5.91l2.09,1.05.86-4,1-4.59,3.62-4.4c4.48-3.19,12.62-8.19,17.41-6.27,6.87,2.75,17.86-3.21,17.86-3.21l11-1.83C252.3,114.54,253.61,105.19,250.12,96.07Zm-118.42-14s8.24-7.78,11,1.37S161,95.35,161,95.35C140.85,98.55,131.7,82.08,131.7,82.08Zm7.78,17.39s14.16,7.31,23.77,3.68C162.46,103.59,141.27,115.18,139.48,99.47Zm30.67,14.65-11.9,4.57,14.64-10.52Zm-1.84-27c-11.9-8.7-16.47-29.3-16.47-29.3l7.32,2.76c.92,11.9,14.64,22,14.64,23.34S168.31,87.11,168.31,87.11Z" style="fill:#67643d"/><path d="M121.4,221.6a51.47,51.47,0,0,1-5.72-.38s-14.2,11.32-12.37,13.27c14.66,15.56,5.5,30.21,5.5,30.21-22-11.44-43.94,22.89-43.94,22.89-9.15,3.65-6,4.11-6,4.11L2.62,331.53,30.09,279.8l5,.92-1.83-6,13.27-19.68c7.33,16.47,4.59-16.48,4.59-16.48,13.72-11.9,36.61-10.07,36.61-10.07l16.33-21.49,14.79-4.14C121.28,208.89,121.52,216.81,121.4,221.6Z" style="fill:#c6c6c6"/><path d="M176,152.61c-3,3.2-6,6.44-8.64,9.28l-.08.1-5.5,6.68h0l-.7.86-6,7.28a15.68,15.68,0,0,0-12.64,7c-.12.18-.18.29-.18.29-6.28.72-11.34,1.08-15.42,1.17l20.57-23.15,26.42-29.71a.08.08,0,0,0,0,0l2,19.15Z" style="fill:#c6c6c6"/><path d="M192.57,193.3c-1.17.51-5.15,1.84-10.27,3.47l-.25.19c-.43.69-1.91,1.5-4,2.33-8.59,3.43-27.71,7.48-28.9,7.72l-.06,0-6.87-22.89s.06-.11.18-.29a17.15,17.15,0,0,1,12.64-7l6-7.28.7-.86h0A61.35,61.35,0,0,1,174.23,161c3.42-1.92,6.43-3.25,7.82-2.94h0c.31.72,9.36,21.49,11,30.83C193.47,191.3,193.39,192.94,192.57,193.3Z" style="fill:#947029"/><path d="M242.21,283.92c-2.4,5.32-8.74,10.27-21.72,13.74l-7.43-.65c.94-3.51,1.91-6.57,2.44-8.2-1.83,3.73-8.28,3.35-8.28,3.35-.46,4.58-7.33,3.67-7.33,3.67,0,8.23-8.69,8.68-8.69,8.68-19.68,19.23-33.42,8.7-33.42,8.7L143.14,310c-9.16-11.44,3.2-26.09,3.2-26.09s2.75,37.54,44.41-.46c0,0,.91-21.51,13.27-22.88a83.78,83.78,0,0,0,9.68-1.72C226.83,276.29,236.85,282,242.21,283.92Z" style="fill:#947029"/><path d="M361.47,358.19a37.64,37.64,0,0,0-23.68,6.88l-1.5-1.51-11.45-22.42c-9.15-1.37-12.35-11.44-12.35-11.44-10.07-.46-9.61-8.24-9.61-8.24-10.07-.92-10.53-11-10.53-11-6.87-.46-10.53-9.16-10.53-9.16a19.44,19.44,0,0,1-10,1.46c27-10.87,23.3,1.74,23.3,1.74,7.33-4.11,1.83-8.68,1.83-8.68-14.2-13.35-18.08-20.44-18.18-24.17l.34-.56s23.08-1.25,38.09,3.49c-1.59.14-2.85.18-3.67.2,3.33.74,4.47,9.13,4.47,9.13,6,0,7.33,6.87,7.33,6.87,7.79-.92,10.53,14.64,10.53,14.64,10.53,6.41,11,24.27,11,24.27,4.12-2.3,3.66,6.85,3.66,6.85l6.87,13.29h3.2S360.94,353.24,361.47,358.19Z" style="fill:#947029"/><path d="M316.6,213.37s0,0,0,0a43.22,43.22,0,0,1-4.7,11.37s0,0,0,0a79.18,79.18,0,0,1-7.18,8.81l.21,0c-4.67,3.09-9.39,6.68-10.28,9.13,0,0-8.7-32.5-15.55-29.76s-16,10.07,2.74,33.41l-13.27-1.83,23.29,26.49c-7.32-.24-12.76.05-12.76.05l-.34.56c.1,3.73,4,10.82,18.18,24.17,0,0,5.5,4.57-1.83,8.68,0,0,3.72-12.61-23.3-1.74h0a13,13,0,0,1-8.53-5.07,20.49,20.49,0,0,1-2.94-5.54c-6-16.47-16.94-11.9-16.94-11.9s.17,1.67.37,4.13c-.45-.12-1-.28-1.53-.47-5.36-1.89-15.38-7.63-28.51-25.06l-.7-.92,1.09-.11L210,251.88l-.65.89q-3-4.38-6.21-9.58s-7.33-10.07-9.16,1.37c0,0-8.24-23.34-20.59-11.44,0,0-4.6-5.51-16.78,2l.29-.64c-11.89-6.41,16-23.34,16-23.34,9.61-.45,6.87-6,6.87-6l2.29-8.24.25-.19c5.12-1.63,9.1-3,10.27-3.47.82-.36.9-2,.47-4.4l7.76-5.67,13.74,6.87S230.1,176.36,242,177.74l15.11-2.3L253,165.37l1.09-.2c.48,3.69,5.78.66,5.78.66,4.57,7.33,11,.93,11,.93,3.1,7.55-8.06,13.83-8.68,14.17l5.48-1.36v12.36c10.07-.46,8.7,7.78,8.7,7.78,2.74,1.83,11.44,10.07,11.44,10.07,2.28-6.87,7.77-4.58,7.77-4.58-2.74-8.7,15.11-14.64,15.11-14.64C306.09,199.68,316.08,206.07,316.6,213.37Z" style="fill:#5f321e"/><path d="M336.15,408.37l-5.44-6.52c-3.8-3.8,3.31-13.92,5.15-16.39-.75-3.22.77-13.23,1.87-19.61l-2.1-2.18-11.22-22c-8-1.49-11.52-9.07-12.41-11.38-3.37-.27-5.95-1.38-7.68-3.3a8.84,8.84,0,0,1-2.18-5c-8.26-1.21-10.08-8.45-10.46-11-5.6-.87-9-6.53-10.13-8.77-2.16.81-7.71,2.44-13.05.23-4-1.67-7-5.15-8.9-10.33-2.06-5.69-4.91-9.37-8.49-11a10,10,0,0,0-6.43-.56c.35,3.51,1.59,17,.35,22s1.61,20.72,1.83,21.92c1.13,3.26,1,5.81-.32,7.59a6.74,6.74,0,0,1-4.87,2.35l-2.81,12.91-6.1-15a6.55,6.55,0,0,1-3.17-4.46c-1.45,3.1-3.41,3.94-4.26,4.16l-5.23,5.23-2.89-14.46-4.08,1.37-2-8.6c-3-3.71.25-16.48,2.53-23.93a14,14,0,0,1-5.37,1.12,4.38,4.38,0,0,1-1.54,2.27c-1.69,1.34-4.22,1.5-5.66,1.45-.56,6.17-6,8.29-9.21,8.6-18.65,18-32.44,9.87-34.25,8.66l-14.8-3.24-.22-.28c-8.57-10.7.7-24.07,2.81-26.84-5.8-12.95,7.83-43.38,10.41-48.91a5.38,5.38,0,0,1-2.66-4.45c-.21-8,17.44-18.92,19.45-20.14l.22-.13h.25c4-.19,5.47-1.27,6-2.14a2.81,2.81,0,0,0,0-2.37l-.18-.36,1.87-5.93c-7.54,1.93-30.93,8.56-31.19,8.64l-.68.19-2.37-3.32c-2.95.44-5.3,4.78-7.78,9.37-.6,1.11-1.21,2.24-1.85,3.36-3.64,6.38-18,5-20.71,4.67-5.61,4.51-11.5,10.11-11.8,11.67,14.83,15.89,5.58,31.14,5.49,31.3l-.49.78-.82-.43c-20.9-10.88-42.42,22.2-42.64,22.54l-.17.27-.3.12a36.15,36.15,0,0,0-5.06,2.36l1.37.19L0,334.42l29.78-56.07,4.13.75-1.49-4.84L47,252.69l.74,1.65c1.26,2.84,2,3.69,2.3,3.93,1.08-1.62,1.07-11.39.36-19.92l0-.51.38-.33C63.58,226.36,83.84,227,87.52,227.16l16.75-22-2.91-9.22,1-.26c2-.49,10.37-6.45,13.72-9.8,3-3,8.18-1.88,10-1.36l27.36-30.77-4.92-6.88-4.16,8.33-4-6.28c-1.77-.58-5.85,3.31-8.13,6.24l-1.6,2.06-.58-8.08H118.91l15.39-8.55,1.55-4.63,5.84,1.46,4.9-4.9-3.42-4.1-8,5.33.77-5-8.21,8.62-1.44-5.77-7.9,6.15-.59-.94c-2.18-3.49,1.22-8.87,2.7-10.92L116.11,122l16-4.13,6.53-2.38c-7-2.28-10.64-9.45-11.23-10.72L122,99.35l4.82-2.67L127.2,93l-6.28-2.09,3.61-3.61-4.94-4.48,2-2.72-14.16.49,8.72-7.08-4.78-4.18H122l9.13-7.53v6.77c4.46-.27,13.28,5.15,18.63,8.77-3.37-6.59-6.32-16-7.37-19.55L137.94,61,132,57.5c-2-.38-8.07,3.4-11.83,6.26L118.57,65l0-11c.88-3.1,9.35-3.77,14-3.9-5-5.75-9.83-4.53-10-4.48l-.83.23-.35-.78a2.92,2.92,0,0,1,.13-3C122.75,40.32,126.08,40,128,40l-1.18-7,11.65,10.13,3.07-6.13,4.8,9.6,14.56,3.24-1.7-10.21,3.26-1.86c-.63-3.43-7.12-3.48-7.19-3.48H154l1-4-8-2.5,1.17-1.17c3.18-3.18,8.37-3.24,10.46-3.11l2.17-9.23,10.1,15.66,6.08-.55-4.4,10.73,3.81,1.9-.57.93c-2,3.29-4.9,8.15-6.43,10.86a2.73,2.73,0,0,1,.44.1c3.18.9,8.1,6,8.88,12.2A3.62,3.62,0,0,0,180.36,69c1.93,1.1,5.19.31,6.87-.29.19-12.95,5.72-17.14,7.73-18.23l-.45-7.21L199.18,40l2.67-25.13,5,12.69c3.83-4.31,10.18-5.46,12.75-5.75-.48-3.58-1-14.75,9.49-18.8,9.59-3.69,17.69-4,24-.83,9.6,4.73,12.92,15.93,14.7,22,.29,1,.6,2,.86,2.72.31-.36.61-.76.93-1.17,2-2.61,4.79-6.18,10.32-1.93.85.65,1.24.66,1.29.62.87-.55.59-5.6-.58-10.58l-1.39-5.9L282.44,13a79,79,0,0,1,4.71,8.57,55.33,55.33,0,0,0,2.2-5.18l1.09-3,.81,3c2.63,9.79,1.79,17.62-2.48,23.29C284,46.08,276.32,48,272.14,48.6l4.8,3.2-1.88.67c-5.65,2-14.28-1.78-17.2-3.22l-1.62,4a7.41,7.41,0,0,1,4.51,1c6.45,3.6,9.62,16.2,10.34,19.45a12.94,12.94,0,0,1,2.43,1l.25.12c6.65-9.47,15-10.1,17-10.11,11.5-11.17,25.52-6.94,28.9-5.69,8.91-11.75,17.24-17.21,24.78-16.22,9.42,1.24,13.84,12,14,12.48l.6,1.5-6.72-.52c-2.1,6.21-13,7.11-16.32,7.24-1.27,12.1-11.91,18.76-15.14,20.51,1.57,3.87,1.25,11.44,1.08,14h.16c2.14,0,5.9-4.31,8-7.65L332,87.46v3.43c0,12.59-14.73,29.25-15.35,30l-.25.27L302.54,123c-15.27,9.6-33.25-2.52-39.26-7.22a82.41,82.41,0,0,1-6.42,42.87c-2.35,5.47-1.46,6.65-1.26,6.83.65.58,2.73-.11,4-.83l.84-.47.51.81c1.14,1.83,2.48,2.84,4,3,2.82.31,5.41-2.25,5.44-2.28l1.06-1.06L272,166c2.09,5.08-1.38,9.49-4.63,12.29l1.5-.38v12.62c3.09,0,5.42.92,6.94,2.63a8,8,0,0,1,1.81,5.69c2.5,1.85,7.74,6.7,10,8.82a7.23,7.23,0,0,1,3.47-3.66,6.41,6.41,0,0,1,3.42-.5c-.67-8.6,15.34-14,16.06-14.28l2.29-.76-1.08,2.16c-2.57,5.14-.11,9.29,2.51,13.68,1.65,2.77,3.35,5.64,3.54,8.69.39,6.21-7.47,15.69-10.77,19.37,4.65.25,12.74-.06,15.41-3.5,1.14-1.45,1.23-3.37.3-5.84-5.08-13.38-.7-37.51-.51-38.52l0-.18.09-.15c8.44-14.19,16.27-21.13,23.24-20.7,6.79.44,10,7.69,10.12,8l.67,1.55-1.68-.15a8.47,8.47,0,0,0-6.73,2.19c-6.58,5.8-7.6,20.78-7.72,23.09,1.46,2.4,10.86,19,9.13,47.47-1.5,24.89-24.3,29-33.21,29.66,1.81,2.18,2.59,5.66,2.88,7.31,4.25.46,6.45,4.21,7.22,6.79,7.27.11,10.14,12.49,10.66,15.07,9,5.78,10.68,19.22,11,23.52a2.39,2.39,0,0,1,1.6.36c2.18,1.35,2.19,6.13,2.14,7.63l6.47,12.5h3.48l.11.88c.18,1.56,4.57,38.29,2.24,45.29-2.24,6.73-11.4,5.73-13.84,5.34l-3.54,4L343.57,401l-3.21,1.07Zm1.18-45.75,2.55,2.55-.09.51c-1.46,8.33-2.63,18.11-2,19.4l.45.61-.48.56c-3.58,4.66-7.68,12.16-5.58,14.25L336,405l3.11-4.66,5-1.68,2.43,2.43,2.88-3.3.57.12c.1,0,10.15,2,12.12-3.91,1.72-5.15-.65-30.22-2.22-43.54H357l-7.27-14.06,0-.27c.1-2.1-.21-5.49-1.2-6.11-.08-.05-.32-.19-1,.17l-1.44.8,0-1.65c0-.17-.57-17.38-10.5-23.42l-.39-.24-.08-.45c-.72-4.07-3.82-14.49-9.42-13.82l-.92.1-.18-.9c-.05-.25-1.3-6.06-6.34-6.06h-.88l-.11-.88c-.27-2.09-1.67-8.12-4.56-8.28l.1-2c1.34,0,32.91,1,34.66-27.9,1.79-29.48-8.89-46.37-9-46.54l-.17-.26v-.32c0-.73.68-18,8.42-24.82a10.46,10.46,0,0,1,6.45-2.72c-1.2-1.92-3.76-5.12-7.65-5.37-4.21-.26-11.35,2.92-21.29,19.57-.39,2.22-4.21,25,.44,37.28,1.2,3.14,1,5.76-.58,7.78-4.46,5.73-18.63,4.16-19.23,4.1l-2-.24,1.4-1.45c.12-.13,12.05-12.58,11.63-19.38-.16-2.58-1.67-5.11-3.27-7.8-2.32-3.9-4.92-8.26-3.44-13.41-4.43,1.81-14.29,6.6-12.4,12.6l.65,2.06-2-.83a4.88,4.88,0,0,0-3.51.09,6.1,6.1,0,0,0-2.94,3.88l-.5,1.49-1.14-1.08c-.08-.08-8.66-8.2-11.31-10l-.54-.35.11-.64a6.26,6.26,0,0,0-1.28-4.69c-1.26-1.42-3.41-2.06-6.38-1.93l-1.05,0V180.5l-12,3,7-3.78c.11-.06,9.66-5.3,8.64-11.58a8.62,8.62,0,0,1-5.84,1.82,7.07,7.07,0,0,1-4.94-3.17c-1.38.64-3.94,1.53-5.48.15s-1.31-4.3.77-9.16c.13-.26,9.9-20.21,5.88-44.3l-.46-2.81,2.12,1.9c.22.2,22.07,19.49,39.07,8.6l.19-.12,13.57-1.81c1.71-2,12-14.22,14.19-24.64-2.43,3.06-6.21,6.77-9.18,4.92l-.51-.32,0-.61c.24-3.09.5-11.72-1.23-14.49l-.59-1,1-.48c.14-.07,14.12-6.8,15-20.21l.07-.94h.93c4,0,14.5-1.18,15.5-6.51l.16-.88,5.12.4c-1.51-2.87-5.41-8.92-11.71-9.74-6.88-.91-14.75,4.5-23.37,16l-.48.65-.74-.34c-.62-.28-15.55-6.86-27.71,5.29l-.32.32-.46,0c-.37,0-9.26-.47-16.14,9.86-.54.8-1.33.41-2.34-.08a8,8,0,0,0-2.2-.87l-1,.26-.15-1c0-.15-3-15.23-9.51-18.84a5.43,5.43,0,0,0-4.83-.32l-2.12.79,4-10,1,.54c.09,0,8.38,4.48,14.36,4L266,46.92l3.21-.05c.12,0,11.92-.3,18-8.31,3.43-4.56,4.39-10.76,2.87-18.46-1.91,4.54-2.71,4.47-3.25,4.43a1.29,1.29,0,0,1-1.15-1.18,22.6,22.6,0,0,0-2.1-4.51c.34,3.07.26,6.21-1.26,7.2-1,.62-2.17.37-3.6-.72-3.95-3-5.45-1.11-7.52,1.57a19.2,19.2,0,0,1-1.69,2,1.33,1.33,0,0,1-1.27.39c-1-.27-1.42-1.54-2.33-4.6C264.19,19,261,8.3,252.22,4c-5.85-2.89-13.4-2.58-22.45.9-11,4.22-8.11,17.48-8.08,17.61l.27,1.16-1.2.06c-.09,0-9.6.52-13.39,6.41l-1.06,1.64L203,23.21l-1.9,17.89-4.49,3.14.47,7.52-.71.25c-.07,0-7.12,2.82-7.12,17.37V70l-.6.26c-.24.1-5.75,2.42-9.26.41a5.56,5.56,0,0,1-2.66-4.41c-.65-5.25-4.91-9.81-7.44-10.53-.2-.05-.69-.16-.85,0-.69.86-1.29.64-1.59.43-1-.66-1-.7,6.71-13.46L170,41l3.85-9.4-4,.36-8.21-12.72-1.5,6.37-.89-.12c-.06,0-4.87-.6-8.27,1.38l6.39,2-.85,3.41c2.54.24,8,1.29,8,6v.58l-3.11,1.78,2,11.76L145,48.28l-3.43-6.88-2.43,4.86-9.4-8.17.66,4L129.13,42c-2-.11-5.26.21-5.95,1.22a.57.57,0,0,0-.12.31c2.19-.22,7.48.12,12.42,6.95l1.15,1.59h-2c-7,0-13.44,1.1-14.1,2.38V61c3.11-2.22,9.26-6.21,12.09-5.39l.23.1,4.92,2.87,5.67-4.12.39,1.38c0,.18,5,17.76,9.92,24.4l3.82,5.22-5.22-3.82c-7.56-5.53-19.31-12.6-21.74-11l-1.56,1V66l-6.42,5.29h-5.93l2.55,2.23-5.93,4.82,12.38-.42-3.45,4.6,5.13,4.67-2.8,2.8,4.71,1.57-.58,6.35-3.42,1.91,3.77,3.77.08.17c0,.1,4.46,10,13.32,10.39l5,.23-14.75,5.37L120.28,123l3,2.59-.59.75c-1.22,1.53-3.88,5.59-3.52,8.27l8.37-6.51,1.3,5.22,10.1-10.6-1.06,6.85,5.73-3.81,5.74,6.88-7,7-5.14-1.29-1.2,3.61-9.33,5.18h5.31l.35,4.88c2.34-2.59,6.44-6.37,9.29-4.75l.21.13,2.39,3.75,4.07-8.15,4.09,5.73c.68-4,2.42-10.76,6.34-10.76h.07c3.21-1.38,8.27-4.17,8.83-6.12l.21-.73h8.47L126.73,186.8l-.63-.23c-.06,0-5.86-2-8.57.68s-10.19,8.39-13.66,10l2.62,8.28-18,23.74-.54-.05c-.23,0-22.21-1.62-35.5,9.51.77,9.56,1,20.85-1.92,21.61-1.26.33-2.42-.72-3.85-3.55l-12,17.83,2.17,7.06-5.93-1.08L5.71,327.94l51.93-36.73a.5.5,0,0,1,0-.12c-.12-1,.32-2,6.81-4.66C66.69,283,87.22,253,108.63,263c1.61-3.18,6.38-15.25-5.81-28.21a1.6,1.6,0,0,1-.43-1.28c.22-3.11,9.92-11.09,12.89-13.46l.34-.26.42,0c4.4.61,16.41,1.15,19.14-3.62.63-1.11,1.23-2.23,1.82-3.32,2.91-5.38,5.65-10.46,10-10.46h.51l2.18,3.05c4.44-1.25,28.12-7.95,32.33-8.89l1.7-.38L181,204.82a4.6,4.6,0,0,1-.27,3.87c-1.07,1.84-3.55,2.88-7.35,3.1-5.34,3.27-18.42,12.54-18.27,18.25,0,1.31.82,2.37,2.42,3.23l.84.45-.41.86c-.17.36-17.1,35.86-10.54,48.54l.31.59-.43.51c-.12.14-11.52,13.92-3.41,24.55l14.52,3.17.17.14c.54.4,13.34,9.71,32.11-8.62l.27-.26.37,0c.32,0,7.75-.53,7.75-7.7v-1.14l1.13.15c1,.12,3.79.2,5.25-1a2.53,2.53,0,0,0,.95-1.81l.1-1,.95.06c.06,0,5.66.28,7.28-2.69l.42-1.22,1.93.51a6.16,6.16,0,0,1-.52,1.57c-3,9.07-6.42,22.92-3.88,25.46l.2.2,1.65,7,4.15-1.39,2.6,13,3.06-3.06.36,0s3.17-.5,4.23-7.3a34,34,0,0,1,.36-5.13l2,.16a34.83,34.83,0,0,1-.33,5c0,3.33.66,7,2.88,7.78l.41.15,4,9.78,1.78-8.21.85.05s2.77.12,4-1.58c.91-1.23.91-3.17,0-5.79l0-.14c-.13-.7-3.23-17.22-1.82-22.86,1.32-5.26-.46-21.91-.48-22.07l-.08-.75.69-.28a11.67,11.67,0,0,1,8.66.35c4.12,1.81,7.35,5.89,9.6,12.13,1.67,4.63,4.28,7.71,7.77,9.15,5.84,2.43,12.31-.53,12.38-.56l.94-.44.4.95c0,.08,3.51,8.14,9.67,8.55l.9.06,0,.89c0,.37.56,9.21,9.61,10l1,.09-.06,1a6.9,6.9,0,0,0,1.72,4.52c1.48,1.62,3.81,2.52,6.94,2.66l.7,0,.21.66c0,.1,3.14,9.5,11.55,10.76l.51.08ZM158.7,139.93c-2.41,0-4.21,6.66-4.73,11.48l-.21,2,18.05-20.3H169.2c-1.8,3.31-9,6.42-9.88,6.79l-.24.1-.25,0Z" style="fill:#fff"/></g></g></svg>