<svg xmlns="http://www.w3.org/2000/svg" viewBox="0 0 291.17 300.42"><defs><style>.cls-1{fill:#cb9e43;}.cls-2{fill:#fff;}</style></defs><g id="Layer_2" data-name="Layer 2"><g id="Layer_1-2" data-name="Layer 1"><path class="cls-1" d="M269.87,1.65C233.27,5.91,218.22,26.73,207,50.49c47.37,1.32,68.79-14.65,62.89-48.84ZM14.13,2.7C8.23,36.89,29.65,52.84,77,51.52,65.78,27.76,50.73,7,14.13,2.7ZM275.69,100c-2.74.12-5.94,1.56-9.64,4.55a159.86,159.86,0,0,1-16.55,11.7c18.18,20.75,29,46.91,35.83,75,6.72-44,7-92-9.64-91.27Zm-258,3.58c-16.14-.17-19.35,48.52-13.41,92.9,9.14-26.73,22.1-52.61,39.42-75.8a122.48,122.48,0,0,1-16.53-12.43c-3.55-3.18-6.71-4.64-9.48-4.67ZM234,124.78a199.22,199.22,0,0,1-31,12c17.69,45,25.58,92.39,30.52,139.54,13.13-50.22,11.45-101.11.44-151.52Zm-174,4.83c-10.7,41.43-18.22,81.46-13.23,123C55.24,212.3,67.9,174,88.74,139.69a167.4,167.4,0,0,1-28.68-10.08Zm187.82,3.86c9.11,47.73,9.86,96.32-2.42,144.39,10.56-6.39,18.75-14.28,23.54-23.79,3.6-7.16,7.16-18.33,10.29-31.44-5.09-33.35-14.14-64.79-31.41-89.16ZM45.74,138.32C28.6,164.08,16.51,192.88,8.87,222.21c3,13,6.93,24.43,11.58,32.59,3.78,6.64,9.84,12.6,17.63,17.83-9.61-46.42-3.06-90.34,7.66-134.31Zm141.58,2.46a227.77,227.77,0,0,1-37.51,4.87c14.27,42.18,21.65,85.28,27.79,128.33,6.56-44.84,8.74-89,9.72-133.2Zm-81.56,2.45c-6.57,46.29-8,97.82,4.12,140.47,4.42-45.56,13.06-94.68,25.83-137.86a210.45,210.45,0,0,1-29.95-2.61ZM92,157.84c-20,37.14-31.28,78.9-38.5,123.27,13.5,6.11,29.76,10.73,47.27,13.73-13.92-41.86-14-91.28-8.77-137Zm106.54,1.4C197.2,204.42,194.25,250,186,296.57a194.11,194.11,0,0,0,36.89-8.42c-4.22-43.78-10.59-87.41-24.34-128.91Zm-55.51,4.26c-11.44,42.8-19.06,90.59-22.57,134a295.23,295.23,0,0,0,48.58.79c-6.25-45.61-12.79-90.88-26-134.77Z"/><path class="cls-2" d="M149.7,300.42c-9.74,0-19.55-.48-29.36-1.45l-1.46-.14.12-1.47c3.71-45.9,11.74-93.57,22.61-134.25L143,158l1.53,5.06c12.82,42.56,19.38,86.32,26.06,135l.21,1.59-1.6.11C162.74,300.2,156.23,300.42,149.7,300.42Zm-27.59-4.29a292.89,292.89,0,0,0,45.25.75c-6.31-45.95-12.58-87.52-24.22-127.79C133.12,208,125.69,252.81,122.11,296.13Zm62.07,2.2.36-2c9-50.61,11.4-99.85,12.53-137.1l.25-8.47,2.67,8c14.94,45.08,20.9,92.75,24.42,129.24l.11,1.18-1.12.38a195.36,195.36,0,0,1-37.18,8.48ZM199.78,168c-1.24,35.62-3.9,80.56-11.93,126.79a192.77,192.77,0,0,0,33.46-7.69C218,253.19,212.56,209.82,199.78,168ZM103,296.75l-2.47-.43c-17.94-3.08-34.42-7.87-47.63-13.85l-1-.47.18-1.14c8.27-50.73,20.55-90.05,38.66-123.73l3.71-6.88L93.52,158c-6.23,54.39-3.3,100.26,8.7,136.36ZM55.19,280.21c12.2,5.39,27.13,9.76,43.41,12.72-10.92-34.34-13.91-77.13-8.91-127.34C73.85,197.15,62.82,233.85,55.19,280.21Zm55.42,11.54-2.17-7.64c-13.33-47-9.62-102.66-4.16-141.09l.21-1.51,1.51.24a210.54,210.54,0,0,0,29.74,2.59l2,0-.56,1.89c-11.92,40.29-21.08,89.15-25.77,137.57ZM107,145c-5,35.89-8.32,86.26,2.2,130.32,4.84-45.11,13.45-90.17,24.48-128A214.75,214.75,0,0,1,107,145ZM233,284.65l-.86-8.2c-4.1-39.17-11.27-90.39-30.43-139.14l-.59-1.53,1.56-.46a198.29,198.29,0,0,0,30.73-11.89l1.72-.83.41,1.86c12,55.16,11.9,105-.46,152.21Zm-27.9-146.92c17.5,45.18,24.87,92.25,29.11,129.94,10.05-43.81,9.65-90-1.2-140.71A203.39,203.39,0,0,1,205.05,137.73ZM177.58,284.47l-1.46-10.28c-5.92-41.41-13.37-85.58-27.73-128.06l-.64-1.89,2-.09A225.12,225.12,0,0,0,187,139.31l1.86-.4,0,1.9c-.86,38.95-2.7,85.26-9.73,133.39ZM151.86,147c12.85,38.57,20.09,78.41,25.71,116.28,5.72-43.44,7.39-85.06,8.21-120.68A227.31,227.31,0,0,1,151.86,147ZM243.1,281l.91-3.55c11.33-44.35,12.13-92.71,2.39-143.74L245.11,127l4,5.63c15.4,21.72,25.76,51.1,31.67,89.79l.05.29-.07.29c-3.3,13.81-6.9,24.79-10.41,31.76-4.72,9.37-12.83,17.58-24.1,24.4Zm7.55-140.71c8.18,47.45,7.24,92.56-2.83,134.26,9.16-6.11,15.82-13.23,19.84-21.2,3.38-6.72,6.88-17.37,10.1-30.82C272.45,188,263.56,161,250.65,140.33ZM40.3,275.93l-3-2.05c-8.24-5.53-14.33-11.7-18.11-18.34-4.46-7.84-8.52-19.25-11.74-33l-.08-.36.09-.36C15.55,190.6,28,162.22,44.5,137.49l4.72-7.1-2,8.29c-9.45,38.73-17.74,84.9-7.65,133.65Zm-29.89-53.7c3.13,13.3,7.05,24.3,11.34,31.83,3.07,5.39,7.82,10.49,14.13,15.18-8.39-44.4-2-86.45,6.36-122.66A278.28,278.28,0,0,0,10.41,222.23Zm36,39.61-1.1-9.08c-5.2-43.3,3.3-85,13.26-123.52l.45-1.74,1.63.75a166,166,0,0,0,28.43,10l2,.5-1,1.74C71.29,171.35,57.64,208.12,48.3,252.89ZM61.06,131.72c-9,35-16.58,72.43-13.66,111.22,9.14-40.11,21.95-73.68,39-102.31A170.72,170.72,0,0,1,61.06,131.72ZM3.59,203l-.84-6.31C-2,161-1.12,118.37,9.89,105.92a10,10,0,0,1,7.66-3.8h.1c3.25,0,6.77,1.74,10.47,5.06a123.49,123.49,0,0,0,16.33,12.28l1.37.86-1,1.3A273.51,273.51,0,0,0,5.65,197Zm14-97.91a7.11,7.11,0,0,0-5.42,2.79C3.42,117.76.54,151.71,4.94,190a274.82,274.82,0,0,1,36.54-68.91,125.17,125.17,0,0,1-15.36-11.71c-3.15-2.82-6-4.26-8.5-4.29Zm268.11,94-1.79-7.41c-7.6-31.48-19.22-55.81-35.5-74.39L247.2,116l1.51-.94a157.71,157.71,0,0,0,16.4-11.59c3.83-3.09,7.36-4.74,10.51-4.88h0a9.42,9.42,0,0,1,7.71,3.41c10.82,12,8.89,54.16,3.48,89.59Zm-33.88-82.45c14.74,17.29,25.62,39.29,33.14,67,5.44-40.08,4-71-3.82-79.7a6.48,6.48,0,0,0-5.34-2.42h0c-2.5.11-5.45,1.53-8.77,4.22A161.23,161.23,0,0,1,251.78,116.63ZM71.8,53.09C46.51,53.09,29,47.68,19.73,37,12.52,28.64,10.14,17,12.65,2.45l.25-1.4,1.4.16C52,5.6,67.39,27.67,78.38,50.88l1,2.07-2.3.07C75.28,53.07,73.52,53.09,71.8,53.09ZM15.38,4.37c-2,13,.25,23.28,6.62,30.63,9,10.42,26.72,15.46,52.66,15.07C62.74,25.63,47.72,8.56,15.38,4.37ZM212.2,52.06c-1.72,0-3.47,0-5.26-.07l-2.3-.07,1-2.07C216.61,26.63,232,4.55,269.7.16L271.11,0l.24,1.4c2.52,14.58.13,26.2-7.08,34.53C255,46.65,237.48,52.06,212.2,52.06Zm-2.86-3C235.26,49.45,253,44.39,262,34c6.37-7.36,8.59-17.66,6.62-30.65C236.29,7.51,221.27,24.59,209.34,49Z"/></g></g></svg>