<svg xmlns="http://www.w3.org/2000/svg" viewBox="0 0 411.19 240.44"><title>Behir</title><g id="bbcc89a8-5baf-4af2-9ab3-9ab7f70fb583" data-name="Layer 2"><g id="ade84399-fe26-4f64-b583-e0c2657bb376" data-name="Layer 1"><path d="M243.76,73.72c6.36,5.66-30.45,31.87-30.45,31.87s-19.84,35.39-32.6,44.6c-12.12,8.77-17.2,34.21-29.24,42.72a12,12,0,0,1-1.91,1.2,24.78,24.78,0,0,1-.28-2.58c-.39-5.94,0-21.5,11.6-39.2,0,0,11.34-58.78-4.94-61.64-11.9-2-57.73,3.8-76.12-4.19-6.29-2.69-9.37-7-6.82-13.81a.49.49,0,0,0,0-.19c.09-.17.14-.34.25-.53s.06-.14.09-.22a3.94,3.94,0,0,1,.28-.59.65.65,0,0,1-.06.23,12.35,12.35,0,0,0-.36,5A10.4,10.4,0,0,0,78,83.67C82.82,87,92.36,89,110.61,86.45c45.33-6.35,27.61-17.7,51.68-13.45s41.09-10.63,41.09-10.63,20.55,3.55,34-2.11a185.37,185.37,0,0,0,22.67-11.34S237.38,68,243.76,73.72Z" style="fill:#3b6872"/><path d="M406.39,79.08a101.29,101.29,0,0,0-34.68-51.76c-32.16-25.66-81.25-37.55-117.2-12.47C233,12.69,213,19.14,190.11,32s-20,9.31-44.36,12.16S103.54,63.5,103.54,63.5c-2.33,0-4.68.11-7,.25-7.65.49-19.71,1.18-24.06,8.67a12.55,12.55,0,0,0-.24,4.51A10.59,10.59,0,0,0,77,84.3c4.9,3.36,14.54,5.41,33,2.8,45.79-6.42,27.88-17.88,52.21-13.59s41.5-10.74,41.5-10.74,20.77,3.59,34.36-2.13a191.93,191.93,0,0,0,22.85-11.42c-1.18,1-22.67,19.43-16.4,25s-30.77,32.2-30.77,32.2-20,35.76-32.93,45.06c-12.25,8.86-17.38,34.56-29.54,43.16a6.32,6.32,0,0,0,6.41-.45c28.11-17.71,80.61-67.26,109-50.58,18.08,10.65-113.28,79.14-115.2,80.14,140.24-44.35,182.45-5,182.46-5,7.93,3.16,35.52-24.16,40.68-29.5a134.49,134.49,0,0,0,26.59-39.76C411.28,126.33,412.78,101.6,406.39,79.08ZM146,64.2c-2.64,2.33-6,2.92-8.55.06a6.7,6.7,0,0,1-1.21-6.62c2.3-5.43,12.9-2,17.07-1.48,3.45.45,6.92,1,10.32,1.6C163.63,57.76,153.62,57.53,146,64.2Z" style="fill:#4f89a1"/><path d="M295.75,48.28A5.46,5.46,0,0,1,288,44.94c-1.28-4.76-1.56-9.81.32-14,10.94-24.65,39.78-10.81,55.43.66,17.68,13,42.77,40.18,16.91,59.45A31.22,31.22,0,0,1,334,96c-4.13-1.13-9.2-3.06-11.71-6.71-2.63-3.83-3.13-8.72-5.91-12.47,2.75,3.7,9.62,7.69,14.1,9,8.37,2.46,15.51-4.72,14.06-13.16-2.52-14.61-19.68-29.57-34.66-29A52.26,52.26,0,0,0,295.75,48.28Z" style="fill:#89665a"/><path d="M342.1,98.11A32,32,0,0,1,333.7,97c-6.12-1.67-10.14-4-12.28-7.11a27.49,27.49,0,0,1-2.92-6.25,24.34,24.34,0,0,0-3-6.18h0l1.6-1.19c2.61,3.51,9.25,7.37,13.58,8.63a9.82,9.82,0,0,0,9.47-2,10.85,10.85,0,0,0,3.32-10C341,58.35,324,44.17,309.88,44.72a51.4,51.4,0,0,0-13.67,4.45h0a6.42,6.42,0,0,1-5.58.16A6.29,6.29,0,0,1,287,45.2c-1.52-5.65-1.4-10.73.36-14.7,3.21-7.22,8.16-11.76,14.7-13.51,15.95-4.24,36.37,9.46,42.24,13.77C351,35.63,372.68,53,372.76,71.49c0,7.78-3.84,14.62-11.51,20.33A32.12,32.12,0,0,1,342.1,98.11ZM319.84,81.5l.54,1.44a26,26,0,0,0,2.69,5.81c1.86,2.71,5.51,4.77,11.15,6.31a30.24,30.24,0,0,0,25.84-4.85c7.13-5.31,10.73-11.6,10.7-18.71-.06-14-14.29-29.38-27.6-39.13-5.69-4.17-25.44-17.47-40.54-13.44-5.94,1.58-10.44,5.75-13.39,12.39-2,4.47-1.24,9.73-.26,13.36a4.32,4.32,0,0,0,2.46,2.82,4.43,4.43,0,0,0,3.86-.1c5.14-2.67,12.79-4.61,14.51-4.68,15-.59,33,14.44,35.68,29.8a12.81,12.81,0,0,1-4,11.86,11.74,11.74,0,0,1-11.36,2.43A36,36,0,0,1,319.84,81.5Z" style="fill:#fff"/><polygon points="134.42 199.92 125.68 202.36 140.31 154.46 104.61 209.21 113.35 206.78 105.33 236.07 134.42 199.92" style="fill:#7bcaff"/><path d="M103.09,240.44l8.83-32.23-9.59,2.68,41-62.9-16.16,52.92,10-2.79Zm11.7-35.1-7.23,26.36,24.13-30-7.5,2.09,13.1-42.89L106.9,207.54Z" style="fill:#fff"/><polygon points="141.31 133.31 39.1 168.37 54.88 172.45 5.83 203.59 93.92 181.12 71.81 176.59 141.31 133.31" style="fill:#7bcaff"/><path d="M0,206.11l52.39-33.27L35.63,168.5l113.67-39L74.47,176.12,98.38,181Zm42.57-37.88,14.79,3.83-45.69,29,77.79-19.84-20.3-4.16,64.16-40Z" style="fill:#fff"/><polygon points="129.82 111.95 68.34 108.84 75.32 115.03 46.59 123.58 92.86 129.42 85.89 123.23 129.82 111.95 129.82 111.95" style="fill:#7bcaff"/><path d="M96,130.81,41.75,124l31.56-9.39-7.76-6.88,70.89,3.58L88,123.73Zm-44.52-7.63L89.78,128l-6-5.29,39.39-10.11L71.14,110l6.19,5.49Z" style="fill:#fff"/><path d="M407.35,78.81a102.16,102.16,0,0,0-35-52.27c-30.55-24.37-80.47-38.7-118.09-12.72-20-1.92-39.9,3.43-64.62,17.31-17.4,9.79-19.7,10-30.76,10.8-3.38.26-7.57.57-13.23,1.24-22.68,2.69-40,17.21-42.48,19.34-2.29,0-4.53.11-6.68.24l-.26,0c-8,.51-20,1.28-24.6,9.15l-.11.27a13.41,13.41,0,0,0-.26,4.88,11.7,11.7,0,0,0,5.19,8.06c5.12,3.5,13.72,4.8,25.64,3.86L114,101.51l2.64-14.44c3.58-.62,6.69-1.27,9.4-1.94l12.84,9.34V80.69a40.57,40.57,0,0,0,6.51-4.07l.35-.26,10.89,7.92V73.72c1.51.15,3.3.4,5.41.77a50.84,50.84,0,0,0,11.23.72l11.43,8.3V73.38A55.63,55.63,0,0,0,204,63.83c3.21.51,21.71,3.1,34.46-2.27,6.24-2.63,11.59-5.27,15.59-7.37-5.24,5.16-11.62,12.45-11.67,17.31A4.39,4.39,0,0,0,243.85,75a1.25,1.25,0,0,1,.4,1.1c-.34,6.3-22.56,23.46-31.09,29.54l-.18.13-.11.19c0,.07-.85,1.52-2.23,3.86l-10.81-2.71,5,12.33c-2.27,3.61-4.87,7.62-7.61,11.56l-10.33-4,3.29,13.53a72,72,0,0,1-7.51,8.23l-10.83-6.58,2.25,14.94q-1.43,1.92-2.71,4.07l-10.88-2.78,5.24,13.18-.57,1.14a112.38,112.38,0,0,1-6.73,11.77l-11.05-6.23,2,16.41c2.51,1.16,6.46,1.92,8.84.42,6.28-4,13.85-9.55,21.86-15.48,28.78-21.26,64.59-47.73,86.1-35.09a2.07,2.07,0,0,1,1.22,1.95c-.33,12.7-76.27,55.55-116.37,76.44l.76,1.84c137.12-43.36,179.74-6.8,181.48-5.22l.3.26h.2a4.89,4.89,0,0,0,1.52.23c10.91,0,38.81-28.74,40.06-30a135,135,0,0,0,26.79-40.06,108.48,108.48,0,0,0,9.06-43.2A102.08,102.08,0,0,0,407.35,78.81Zm-7.06,70.29a132.48,132.48,0,0,1-26.39,39.46c-12,12.48-33.29,31.33-39.44,29.33-3.21-2.78-45.44-36.19-173.11,1.8,28.93-15.42,107.66-58.71,108-73.2a4,4,0,0,0-2.2-3.72,26.84,26.84,0,0,0-13.84-3.55c-22,0-50.63,21.13-74.47,38.76-8,5.9-15.52,11.47-21.73,15.38a5.44,5.44,0,0,1-3.77.92c5.5-4.73,9.58-12.83,13.54-20.69,4.2-8.36,8.56-17,14.48-21.28,12.56-9.06,31.32-42,33.1-45.19,4-2.84,31.3-22.66,31.75-30.92a3.27,3.27,0,0,0-1.07-2.71,2.42,2.42,0,0,1-.81-2c0-5.43,10.83-16.1,17.19-21.54l-1.18-1.61a191.78,191.78,0,0,1-22.71,11.35c-13.16,5.54-33.59,2.1-33.8,2.06l-.47-.08L203,62a52.5,52.5,0,0,1-18.35,9.29c-.4.12-.8.23-1.22.33a49.34,49.34,0,0,1-21.1.89c-2.23-.4-4.12-.66-5.75-.81l-.63,0c-6.59-.51-8.63,1-11.79,3.34-4.19,3.09-10.52,7.76-34.35,11.1-15.65,2.21-26.51,1.33-32.28-2.63a9.6,9.6,0,0,1-4.35-6.68,11.49,11.49,0,0,1,.19-4c4.1-6.83,15.42-7.55,22.92-8l.26,0c2.23-.14,4.57-.22,7-.25h.39l.28-.26c.17-.17,17.91-16.27,41.65-19.09,5.61-.65,9.78-1,13.14-1.22,11.42-.87,13.8-1,31.59-11.06,24.49-13.75,44.17-19,63.81-17l.37,0,.3-.21C291.89-10,341,4.11,371.09,28.1A102.74,102.74,0,0,1,392.4,51.17a98.68,98.68,0,0,1,13,28.18A104.2,104.2,0,0,1,400.29,149.1Z" style="fill:#fff"/><path d="M141.44,67.18a6.25,6.25,0,0,1-4.73-2.26,7.7,7.7,0,0,1-1.39-7.68c2.2-5.18,10.11-3.61,15.34-2.57,1.1.22,2.05.4,2.78.5,2.87.37,6.64.89,10.38,1.61l-.21,2c-.08,0-9.72-.13-17,6.19A8,8,0,0,1,141.44,67.18ZM142.6,55.6c-2.52,0-4.65.58-5.43,2.43a5.71,5.71,0,0,0,1,5.56c2.85,3.2,6.19.7,7.14-.14h0a27.3,27.3,0,0,1,11.45-5.8l-3.61-.49c-.8-.1-1.78-.3-2.92-.52A42.2,42.2,0,0,0,142.6,55.6Z" style="fill:#fff"/></g></g></svg>