<svg xmlns="http://www.w3.org/2000/svg" viewBox="0 0 425.12 356.05"><title>Beholder_2</title><g id="f6bf2de7-6baf-453a-b037-19f33227fbf3" data-name="Layer 2"><g id="f2119beb-2813-452e-89ed-8a974e489d85" data-name="Layer 1"><path d="M240,204.29a26.68,26.68,0,1,0,3.05,12.37A26.66,26.66,0,0,0,240,204.29Zm-23.65,31.49a9.66,9.66,0,1,1,9.67-9.65A9.65,9.65,0,0,1,216.35,235.78Z" style="fill:#804490"/><path d="M216.36,244.36a27.7,27.7,0,1,1,24.53-40.53,27.26,27.26,0,0,1,3.16,12.84A27.72,27.72,0,0,1,216.36,244.36Zm0-53.4a25.7,25.7,0,1,0,25.69,25.71,25.35,25.35,0,0,0-2.93-11.91h0A25.61,25.61,0,0,0,216.36,191Z" style="fill:#fff"/><path d="M409.8,234.13c-15.4-7.69-15.77-28-12.74-42.2s-2.36-28.46-17.29-33.06a87.63,87.63,0,0,0-28.7-3v0s-14.7-18.65-9.68-23.31,63.49-8.25,63.49-8.25,17.57-6.1,12.91-11.48,1.43-6.82-30.85-6.1c-30.87.69-85-21.26-89.7-23.18,4.48-3.26,16.37-11.47,21.55-10.88,6.47.71,7.54,7.53,17.93,9.68l.22,0A12.21,12.21,0,1,1,355,66.53s13.26,1.78,16.14-1.08,6.1-10.4-.36-12.55-52-2.87-63.12.35C298.24,56,269,66,261.37,70.88a113,113,0,0,0-36.75-8.61c-13.19-4.44-44.9-17.19-41.76-36.28,0,0,7.17-15.42,25.46-1.43l1.26.94a12.16,12.16,0,0,1,11.14-7.26,12,12,0,0,1,3.71.58C215.58,13,207.29,6.73,197.08,3.39a43.15,43.15,0,0,0-20.72-1.85c-7,1.19-15.51,3.49-19.57,9.84-5.07,8-3.27,22.4-1.1,31a41.69,41.69,0,0,0,5.74,13.1,37.46,37.46,0,0,0,4.73,5.71c.92.9,6.15,4.09,6.29,5a35.89,35.89,0,0,1-.35,8.32,111.34,111.34,0,0,0-18.52,12,172.85,172.85,0,0,0-53.94-7.75C66.29,79.44,59.12,63.3,59.12,63.3s-2.87-7.18,17.93-2.87c.74.15,1.43.27,2.08.35A12.21,12.21,0,0,1,80.81,42c-3.4,1.3-22,8.18-31.37,6.23C39,46.08,10.7,59.71,33.29,75.13S75.62,92.34,75.62,92.34s-16.5,12.2,3.23,22.25S94.63,125,94.63,125l.28.61a10.8,10.8,0,0,1,1.52-.09,12.21,12.21,0,0,1,10.64,18.2c3.31-4.71,8.53-13.59,5.49-19.43-4.3-8.25-29.06-16.86-17.93-18.65,9.15-1.49,27.83,3.14,28.27,17.85a130.48,130.48,0,0,0-12.76,35c-6,4.11-20.76,9.54-34.89-22,0,0-9.68-24-27.25-7.89,0,0-17.71,48.84-37.18,57.24A12.19,12.19,0,0,1,23,198a10.39,10.39,0,0,1-.08,1.37c1.44-3.84,4.17-8.83,9.28-12,9.33-5.73,21.16-46.26,29.78-41.24,0,0,15.78,34.42,36.22,38.37,0,0,5.38,30.13-29.77,67.79-9.61,10.29-19,26.47-2.75,35.21,16.61,9,33.51,3,50.84.36,9-1.35,19.52-4.08,28.67-2.93h.11c4.31,7.06,8.4,14.32,12.52,22.09q1.84,3.48,3.72,7.12c6.11,11.89,18.43,7,38.25,11.55,0,0,10.66,7.29,20.79,2.68,10.12,4.61,20.77-2.68,20.77-2.68,19.82-4.58,32.14.34,38.25-11.55,1.26-2.43,2.49-4.8,3.73-7.12a357.78,357.78,0,0,1,34.5-54c7.3-8.32,11.45-18,13.72-29.93l.5-.24c11-5.8,5.92,37.3,3.41,42.44a14.11,14.11,0,0,1-1.64,2.42c-11.48,14.63-22.56,29.86-30.11,46.95-8.51,19.27-31.55,18.42-40.82,17.23a12.19,12.19,0,0,1,.69,22.8c.33.07.69.11,1,.15,18.47,2.12,36.57-16.72,47.57-29.35,5.7-6.55,5.29-15.59,8.48-23.23A34.38,34.38,0,0,1,336,285.64c7.3-4,11.6-10,15.32-17.46a94.65,94.65,0,0,0,8.42-25.11c1.05-5.6,2.52-13.41-.4-18.74-5.56-10.13-6.05-36.32-6.1-40.92,8-5.2,15.93-8.72,19.3-5.2,1.51,1.58,1.29,8.39,1.48,10.58.69,8.6-1.44,18.07.82,26.74,2.12,8.18,9.5,12.19,14.63,18.6,4.38,5.52,8.11,13,12.88,18.19a12.2,12.2,0,0,1,21.91-7.38C423.26,243,420.06,239.27,409.8,234.13ZM270.18,289.79c-7.53,9-36.73,21.1-48.19,25.61a12,12,0,0,1-8.73,0c-11.46-4.51-33.66-14.62-41.2-23.61-6.41-7.65-15.88-14.47-21.31-18.05a4.44,4.44,0,0,1,.35-7.63c2.7-1.39,6.94-2.4,13.59-1.94,16.58,1.15,28,8.35,39.95,7.89,6.33-.24,9.7-.55,11.46-.79a11.13,11.13,0,0,1,3.05,0c1.75.24,5.13.55,11.44.79,12,.46,30.39-8.74,47-9.89,6.65-.46,10.9.55,13.59,1.94a4.45,4.45,0,0,1,.37,7.63C286.06,275.32,276.58,282.14,270.18,289.79ZM93.55,273.12c-8.93-1.79-10-8.16-6.72-15.52,3.92-8.81,11.14-12,19.47-15.88l7.69-3.58a54.57,54.57,0,0,0,9.33,14.93c4.87,6.31,9.28,12.4,13.37,18.47C124.24,273.48,105.7,275.54,93.55,273.12ZM217.27,207h1.21A78.16,78.16,0,0,0,240,204.29c24.64-6.79,35.27-24,35.27-24-.84,62.68-48.57,68.85-56.79,69.45l-.57,0h-.07l-.57,0c-8.22-.6-56-6.77-56.79-69.45,0,0,9.86,16,32.63,23.23A76.79,76.79,0,0,0,217.27,207Z" style="fill:#6d3b52"/><path d="M421.09,239.92a58.41,58.41,0,0,0-10.84-6.68c-17.57-8.78-13.79-33.68-12.21-41.1,3.4-16.11-3.82-29.87-18-34.23a89.76,89.76,0,0,0-28.52-3.09c-5.43-7-12.58-18.69-9.48-21.57,3.5-3.25,39.51-6.55,62.87-8l.26-.06c1.32-.46,12.93-4.61,14.25-9.54a3.75,3.75,0,0,0-.91-3.54,15.62,15.62,0,0,1-1.62-2.33c-2.35-4-3.63-4.7-30-4.11h-1.44c-28.66,0-75.49-18.13-86.19-22.43,7.23-5.12,15.74-10.06,19.39-9.65,2.65.29,4.28,1.73,6.35,3.54a23,23,0,0,0,11.49,6.13l4.13.77-3.08-2.49A11.21,11.21,0,1,1,354.15,67l.25.41.48.07c1.4.19,13.84,1.76,17-1.37,1.83-1.83,4.4-6.13,3.51-9.88A5.92,5.92,0,0,0,371.11,52c-6.68-2.23-52.39-2.94-63.72.34-9.94,2.89-37.9,12.45-46.11,17.47a114.16,114.16,0,0,0-36.47-8.48c-13.38-4.52-43.79-16.86-41-35A12.82,12.82,0,0,1,191.6,20c4.59-1.12,10,.68,16.12,5.35l.51.38.76.57,1,.73.5-1.13a11.18,11.18,0,0,1,13.63-6.14l7.06,2.28L225,18q-2.28-1.5-4.53-3c-7.11-4.78-14.47-9.72-23-12.53A43.86,43.86,0,0,0,176.19.56C169.6,1.68,160.34,4,155.94,10.85c-4.89,7.69-3.84,21.43-1.22,31.73A42.48,42.48,0,0,0,160.6,56a38.66,38.66,0,0,0,4.86,5.86,22.45,22.45,0,0,0,2.37,1.77,29,29,0,0,1,3.63,2.79,35.16,35.16,0,0,1-.27,7.4,112.58,112.58,0,0,0-17.81,11.54,173.4,173.4,0,0,0-53.76-7.63l-2.08,0C67.12,77.75,60.1,63,60.05,62.94a1.49,1.49,0,0,1,.31-1.45c.78-.89,3.93-2.69,16.49-.08.86.17,1.55.29,2.16.36l2.92.37-2.1-2.07a11.23,11.23,0,0,1,1.54-17.25l6.92-4.75-7.84,3c-3.56,1.36-21.77,8-30.81,6.18-6.9-1.42-21.47,3.66-25.06,12.14C22.92,63.28,23,69.32,32.73,76,50.91,88.37,67.46,92.05,73.3,93c-2.15,2.08-5.51,6.13-5.11,10.91.36,4.4,3.8,8.28,10.2,11.55,10,5.07,13.57,7.52,14.87,8.62h-.14l1.2,2.57.73-.1a11.41,11.41,0,0,1,1.38-.08,11.21,11.21,0,0,1,9.77,16.71l1.69,1.06c3.48-4.94,8.83-14.18,5.55-20.46-2-3.89-8-7.63-13.19-10.93-3-1.86-7.41-4.66-7.49-5.6,0,0,.27-.39,2-.67,5.89-1,15.42.7,21.45,5.68a14.64,14.64,0,0,1,5.65,10.95,131.9,131.9,0,0,0-12.65,34.66,15,15,0,0,1-12.48,2.24c-7.46-2.1-14.39-10.2-20.58-24-.2-.48-4.84-11.78-13.75-13.79-4.84-1.09-9.92.77-15.1,5.53l-.18.17-.09.23c-.17.48-17.79,48.53-36.64,56.66L6,186.81h4.85A11.2,11.2,0,0,1,22,198a10.36,10.36,0,0,1-.07,1.25l-1,8.32,2.93-7.85c1.33-3.57,3.95-8.45,8.86-11.48,4.28-2.63,8.72-11.48,13.42-20.86,4.55-9.09,9.71-19.39,13.65-20.56a1.93,1.93,0,0,1,1.42.06c1.73,3.67,16.55,34,36.09,38.48.5,4.57,2,32.43-29.61,66.27-5,5.37-13.19,15.81-11.62,25.36.78,4.72,3.85,8.56,9.14,11.41,13.77,7.43,28,4.76,41.7,2.18,3.2-.6,6.5-1.22,9.76-1.71,2.12-.31,4.28-.7,6.56-1.11,7.23-1.29,14.71-2.63,21.47-1.86,4,6.52,8,13.6,12.24,21.61,1.22,2.33,2.47,4.69,3.71,7.12,4.29,8.34,11.46,8.9,21.38,9.67a114.25,114.25,0,0,1,17.36,2.35c1.44.94,11.37,7,21.19,2.84,9.81,4.17,19.73-1.9,21.17-2.84a114.3,114.3,0,0,1,17.35-2.35c9.93-.77,17.1-1.33,21.39-9.67,1.25-2.43,2.48-4.79,3.73-7.12a358.68,358.68,0,0,1,34.36-53.78c7-8,11.43-17.51,13.86-29.91l.08,0c1.46-.77,2.19-.33,2.67.13,5.32,5.17,1.42,36.82-.63,41a12.6,12.6,0,0,1-1.43,2.13l-.09.12c-11.19,14.25-22.6,29.84-30.25,47.16C294.61,332.88,272.25,332.13,263,331l-9.84-1.26,9.39,3.2a11.18,11.18,0,0,1,.64,20.92l-3.06,1.26,3.24.65c.37.07.75.12,1.12.16a27.42,27.42,0,0,0,3,.17c17.36,0,34.12-16.84,45.44-29.85,3.76-4.32,5-9.65,6.15-14.81a52.72,52.72,0,0,1,2.5-8.69,33.25,33.25,0,0,1,14.85-16.18c8.2-4.45,12.55-11.54,15.73-17.89a96.6,96.6,0,0,0,8.53-25.47c1.08-5.78,2.55-13.7-.52-19.31-5.18-9.43-5.88-33.76-6-39.9,8.95-5.74,15.18-7.54,17.56-5,.91.95,1.06,5.62,1.12,7.87,0,.87.05,1.61.1,2.1a81.64,81.64,0,0,1-.06,10.24c-.25,5.52-.52,11.24.9,16.67,1.49,5.75,5.48,9.57,9.34,13.26a58.11,58.11,0,0,1,5.47,5.72c1.87,2.34,3.58,5,5.4,7.83A77.47,77.47,0,0,0,401.59,253l1.73,1.89v-2.57a11.19,11.19,0,0,1,20.11-6.77l1.69-1.06A14.72,14.72,0,0,0,421.09,239.92Zm-25.36,1.58c-1.76-2.73-3.59-5.56-5.51-8a62.41,62.41,0,0,0-5.65-5.92c-3.83-3.66-7.45-7.12-8.8-12.31s-1.08-10.7-.83-16.08a83.49,83.49,0,0,0,.05-10.49c0-.48-.06-1.18-.09-2-.12-4.21-.34-7.8-1.67-9.19-3.31-3.45-10-1.8-20.56,5l-.47.3v.55c.09,7.21.79,31.49,6.22,41.39,2.74,5,1.34,12.5.3,18.08a94.73,94.73,0,0,1-8.33,24.85c-3,6.07-7.19,12.84-14.91,17a35.38,35.38,0,0,0-15.74,17.17,54.52,54.52,0,0,0-2.6,9c-1.17,5.14-2.28,10-5.71,13.94-11.21,12.87-27.82,29.61-44.6,29.15a13.21,13.21,0,0,0,.58-20.68c11.15.63,29.67-1.14,37.21-18.24s18.88-32.58,30-46.75l.09-.12a14.56,14.56,0,0,0,1.65-2.47c2-4.11,6.51-37.2.22-43.31-.94-.91-2.57-1.73-5-.45l-.42.2-.49.21-.1.52c-2.34,12.27-6.62,21.63-13.54,29.5a361.29,361.29,0,0,0-34.58,54.12c-1.25,2.33-2.48,4.7-3.74,7.14-3.78,7.35-10.14,7.85-19.76,8.6a115,115,0,0,0-17.83,2.43l-.18.05-.16.1c-.1.07-10.29,6.93-19.79,2.6l-.41-.19-.42.19c-9.48,4.31-19.7-2.53-19.8-2.6l-.16-.1-.18-.05a115,115,0,0,0-17.83-2.43c-9.63-.75-16-1.25-19.76-8.59-1.25-2.44-2.49-4.81-3.73-7.14-4.37-8.23-8.47-15.47-12.55-22.14l-.29-.48h-.61c-7.15-.88-14.89.5-22.37,1.84-2.27.41-4.41.79-6.51,1.11-3.29.49-6.62,1.11-9.83,1.72-14,2.63-27.23,5.11-40.39-2-4.71-2.54-7.43-5.9-8.11-10-1.48-9,7.28-19.56,11.12-23.67,35.09-37.59,30.25-67.39,30-68.64l-.12-.68-.67-.13c-19.7-3.8-35.35-37.47-35.51-37.81l-.13-.29-.27-.16a4,4,0,0,0-3.26-.38c-4.77,1.42-9.67,11.21-14.87,21.58-4.37,8.72-8.88,17.73-12.67,20.06a22.78,22.78,0,0,0-8,8.68,13.24,13.24,0,0,0-9.64-10C32,174,47.43,133,48.86,129.14c4.61-4.17,9-5.82,13.12-4.89,7.89,1.78,12.3,12.48,12.36,12.62,6.46,14.45,13.82,22.93,21.88,25.19a17,17,0,0,0,14.48-2.73l.33-.23.09-.39a129.5,129.5,0,0,1,12.66-34.77l.13-.23v-.27a16.54,16.54,0,0,0-6.39-12.69c-6.48-5.35-16.71-7.15-23-6.12-1.42.23-3.35.71-3.65,2.21-.43,2.09,2.57,4.09,8.36,7.73,4.77,3,10.71,6.75,12.49,10.16,1.88,3.6.23,8.62-2,12.91A13.23,13.23,0,0,0,96.43,124.5H96c-.08-1.07-1.83-3.26-16.66-10.82-5.74-2.92-8.81-6.26-9.12-9.92-.48-5.72,6-10.58,6-10.62l2.1-1.57-2.6-.23c-.2,0-19.76-2-41.85-17C29.1,71.06,24,66,26.42,60.17c3.15-7.43,16.52-12.25,22.81-11,7.52,1.56,20.3-2.19,27.67-4.73a13.22,13.22,0,0,0-.25,14.85c-9.7-2-15.7-1.65-17.84.9a3.51,3.51,0,0,0-.61,3.47c.3.67,7.5,16,39.29,16l2.18,0a170.56,170.56,0,0,1,53.61,7.7l.51.16.42-.34a110.23,110.23,0,0,1,18.34-11.88l.44-.23.09-.49a37,37,0,0,0,.36-8.63c-.13-.88-1.18-1.73-4.47-4-.9-.63-1.84-1.29-2.11-1.55a36.89,36.89,0,0,1-4.6-5.56,40.39,40.39,0,0,1-5.6-12.79c-2.51-9.9-3.58-23,1-30.17,4-6.21,12.68-8.33,18.89-9.39a41.9,41.9,0,0,1,20.25,1.81c8.32,2.72,15.23,7.37,22.55,12.29l.93.62a13.18,13.18,0,0,0-11,6.73l-.29-.22c-6.62-5.05-12.61-7-17.83-5.68A14.62,14.62,0,0,0,182,25.57l-.08.26c-3.25,19.77,28.59,32.73,42.43,37.39l.25.05A112,112,0,0,1,261,71.8l.49.21.44-.29c7.5-4.87,37.14-14.92,46-17.51,10.91-3.16,56.36-2.42,62.52-.36a4,4,0,0,1,3,2.88c.59,2.51-1.09,6.11-3,8s-9.85,1.48-14.84.86a13.2,13.2,0,1,0-21.83,14.84,22.35,22.35,0,0,1-7.45-4.79c-2.14-1.88-4.17-3.66-7.43-4-5.52-.62-17.4,7.54-22.26,11.07l-1.45,1.06,1.66.68c5.88,2.41,57.61,23.27,88.63,23.26H387c26-.58,26.54.28,28.23,3.13a17.3,17.3,0,0,0,1.83,2.62,1.7,1.7,0,0,1,.48,1.71c-.78,2.92-8.23,6.51-12.83,8.13-6.65.41-58.86,3.77-64,8.5-5.46,5.08,7.64,22.19,9.5,24.57l.26.55.69-.05a87.34,87.34,0,0,1,28.32,3c13.32,4.1,19.84,16.62,16.61,31.89-1.65,7.78-5.58,33.89,13.27,43.31a71,71,0,0,1,7.58,4.31,13.76,13.76,0,0,0-2.41-.22,13.21,13.21,0,0,0-13,10.77A96.43,96.43,0,0,1,395.73,241.5Z" style="fill:#fff"/><path d="M218,250.77h-.11l-.63,0a64.65,64.65,0,0,1-31.69-11.63c-16.92-12.24-25.68-32-26-58.81l0-3.61,1.9,3.07c.1.16,10,15.78,32.08,22.81h0A76.32,76.32,0,0,0,217.27,206h1.21a76.91,76.91,0,0,0,21.26-2.67c24-6.61,34.58-23.41,34.68-23.58l1.9-3.08-.05,3.62c-.36,26.78-9.12,46.57-26,58.81a64.47,64.47,0,0,1-31.68,11.62l-.55,0ZM161.57,183.5c2.36,58.37,46.76,64.58,55.78,65.23l.58,0,.49,0c9-.65,53.4-6.86,55.76-65.23-4.09,5.2-14.8,16.49-33.91,21.76a79,79,0,0,1-21.8,2.74h-1.19a78.06,78.06,0,0,1-24.47-3.54C175.36,198.92,165.46,188.45,161.57,183.5Z" style="fill:#fff"/><path d="M238.85,272.1l-.06.17.11,0Zm-5.85.12-.34.83.62,0Zm-6.43,0-.23.63.46,0Zm-17.59,0-.22.63.44,0Zm-6.42,0-.29.81q.31,0,.63,0Zm-5.86-.12-.07.21.16,0Zm42.15,0-.06.17.11,0Zm-5.85.12-.34.83.62,0Zm-6.43,0-.23.63.46,0Zm-17.59,0-.22.63.44,0Zm-6.42,0-.29.81q.31,0,.63,0Zm-5.86-.12-.07.21.16,0Z" style="fill:#fff"/><circle cx="8.52" cy="199.85" r="8.52" style="fill:#cdbcde;opacity:0.46"/><circle cx="415.91" cy="254.79" r="8.52" style="fill:#cdbcde;opacity:0.46"/><circle cx="94.18" cy="139.76" r="8.52" style="fill:#cdbcde;opacity:0.46"/><circle cx="92.15" cy="51.63" r="8.52" style="fill:#cdbcde;opacity:0.46"/><circle cx="222.65" cy="32.99" r="8.52" style="fill:#cdbcde;opacity:0.46"/><circle cx="347.55" cy="74.8" r="8.52" style="fill:#cdbcde;opacity:0.46"/><circle cx="254.85" cy="343.93" r="8.52" style="fill:#cdbcde;opacity:0.46"/><path d="M291.59,263.23c-3.43-1.78-8.17-2.47-14.11-2.06-8.25.57-16.76,3.06-25,5.47s-15.92,4.65-21.86,4.43c-6.48-.25-9.74-.57-11.34-.79a12.38,12.38,0,0,0-3.33,0c-1.61.22-4.89.54-11.35.79-5.91.24-13.66-2-21.84-4.43s-9.75-2.9-18-3.47c-5.94-.41-10.69.28-14.12,2.05a5.31,5.31,0,0,0-2.89,4.5,5.4,5.4,0,0,0,2.45,4.85c5.13,3.4,14.7,10.23,21.09,17.86,7.61,9.08,29.52,19.14,41.6,23.9a12.88,12.88,0,0,0,9.46,0c12.08-4.76,41-16.82,48.6-25.9a79.43,79.43,0,0,1,11-10.53c3.83-3.08,7.5-5.64,10.07-7.33a5.4,5.4,0,0,0,2.43-4.85A5.28,5.28,0,0,0,291.59,263.23Zm.9,4.77a3.46,3.46,0,0,1-1.54,2.91c-5.23,3.44-15,10.39-21.53,18.24-3.2,3.83-10.47,8.25-18.63,12.42l-5.4-7,.35,8.56-4.65-6,.69,7.85-6.24-7,1.09,9.71-6.76-8.37,1.33,10.06-5.32-8.81.3,11.41-4.61-10.26-.88,11.27-.4-1.44-2.46-9.29-2.26,8.58-.59,2.1-.87-11.15L209.5,312l.3-11.41-5.32,8.81,1.32-10.06L199,307.67l1.09-9.71L193.91,305l.67-7.86-4.65,6,.35-8.56-4.83,6.29c-5.34-3.2-9.94-6.56-12.62-9.77-6.55-7.83-16.29-14.79-21.52-18.25a3.41,3.41,0,0,1-1.55-3.08,3.33,3.33,0,0,1,1.81-2.82,21.92,21.92,0,0,1,10-1.95c1,0,2,0,3.08.11a53,53,0,0,1,11.79,1.74l1.56,7.8,2.57-4.67,1.26,7,3.34-6.07,1.51,8.34,4.18-7.58,3,8.42,2.75-7.87.07-.21.09.24,2.9,8,2.58-7.35.29-.81.34.84,3.12,7.71,2.74-7.9.22-.63.22.61,3,8.12,2.68-7.7,2.85,7.9.1-.27.09.27,2.86-7.9,2.67,7.7,2.94-8.1.23-.63.23.65,2.73,7.88,3.13-7.72.34-.83.28.79,2.58,7.37,2.93-8.11.06-.17.05.15,2.77,7.93,3.05-8.42,4.18,7.58,1.51-8.34,3.33,6.07,1.27-7,2.57,4.67,1.57-7.9a94.74,94.74,0,0,1,18.46-3.64c5.57-.38,10,.24,13.07,1.84a3.37,3.37,0,0,1,1.81,2.82Z" style="fill:#f4ebe2"/><path d="M216.36,236.79A10.67,10.67,0,1,1,227,226.13,10.67,10.67,0,0,1,216.36,236.79Zm0-19.33a8.67,8.67,0,1,0,8.66,8.67A8.68,8.68,0,0,0,216.36,217.46Z" style="fill:#fff"/><path d="M107,275.23a71.55,71.55,0,0,1-13.65-1.13h0c-4.07-.81-6.84-2.59-8.23-5.27-1.54-3-1.27-7,.79-11.64,4-9,11.17-12.29,19.46-16.14l.51-.23,3.8-1.77,3.89-1.82.94-.43.4.95a53.41,53.41,0,0,0,9.17,14.66c5,6.43,9.34,12.49,13.45,18.57l.88,1.3-1.56.25A203.35,203.35,0,0,1,107,275.23Zm-13.26-3.09c11.4,2.27,28.42.58,41.24-1.35-3.82-5.61-7.91-11.22-12.45-17.11a55.09,55.09,0,0,1-9-14.2l-3,1.38-3.8,1.77-.5.23c-7.94,3.68-14.79,6.86-18.48,15.14-1.8,4.07-2.09,7.49-.84,9.91,1.1,2.12,3.4,3.54,6.84,4.23Z" style="fill:#fff"/></g></g></svg>