<svg xmlns="http://www.w3.org/2000/svg" viewBox="0 0 405.31 358.39"><title>Black-Dragon</title><g id="a903b78f-53ea-46bb-8cf8-6875931e1259" data-name="Layer 2"><g id="b9de3278-852e-4898-a68c-b01314a5afaf" data-name="Layer 1"><circle cx="130.58" cy="155.61" r="5.42" style="fill:#d8c93d"/><path d="M103.06,224.2s-61.57,27.25-95.9,31.61c0,0,69.2-1.64,105.16-28.88Z" style="fill:#a5a49d"/><path d="M396.72,193.7S382.8,195,370,212.3c-6.24,8.52-12.22,20.94-16.13,39-10.88-39.24-35.88-99.2-88.38-109l-9.35,22h36.49S258.88,186.6,254,189.32c-2.18,1.22-2.53,3.55-2.24,5.73,25.19,6.24,71.83,25.13,91.61,81l-70.68-51.8-43-31.49-15.33-11.21-.74-.57L183,158.56l-10.79-7.91-22.31-16.36,2.46-5.25,41.23-88c-2.24,5.7-12.06,32.55,7,26.21l-4.35,18,14.69-18,8.2-1.08L308.85.81c-5.76,4.48-43.92,36.07-22.73,64.85L284.49,85.8l12-8.71s9.18,26.06,108.35-17.16c-6.82,3.52-71.09,38.89-47.34,106C357.51,165.92,373.87,194.25,396.72,193.7Z" style="fill:#2f5f43"/><path d="M350.63,306.13c-18.6,23.78-54.68,51-54.68,51s-57.23-40.88-63.22-83.36C228.06,240.54,178.38,247,157,251.36c-6,1.21-9.76,2.27-9.76,2.27L191.6,206l0,0L202,194.79l10.69-11.43,1.67-1.79,38-40.72a76.64,76.64,0,0,1,13.16,1.41l-9.35,22h36.49S258.88,186.6,254,189.32c-2.18,1.22-2.53,3.55-2.24,5.73,25.19,6.24,71.83,25.13,91.61,81v0A154,154,0,0,1,350.63,306.13Z" style="fill:#c59749"/><path d="M251.74,195.05c-.28-2.18.07-4.51,2.24-5.73,4.9-2.72,38.67-25.06,38.67-25.06H256.16l9.35-22,7.55-17.76-25.61,12L248,125H234.36s.29-.86.83-2.33c2.47-6.41,9.93-24,19.24-28.14-1.92.22-33.22,4.42-52.75,24.49l-2.18-13.64-23.43,18-10.92-3.26-8.7,8.7-4.07.19-6.82.36,1.09-7.08L133,136.47s-4.36-3.81-14.7,9.83S98.7,159.36,98.7,159.36s2.72,25.61-19.08,19.08L66,200.78v16.36l6-10.92,2.72,9.83L84,201.87,88.87,210l13.1-13.6,5.44,6,4.9-10.34s19.07-7.1,21.25.55a49.75,49.75,0,0,1,1.41,6.21c1.28,7.52.8,17.06-7.94,23.75l-4.42,7.62L121,232.92l-9.34-.48h0l-1.54-.07-.13.39-3.68,10L98.16,240l-1.64,11.46-16.35-2.17,1.09,7.61-15.79,1.64,12.52,6s9.25,15.27,6,24l-10.89,16.9,14.15-9.79-6.53,19,17.45-19s0,6.53,30.5-20.17c12.55-11,21.8-18.76,28.3-24.07,9.35-7.62,13.12-10.28,13.12-10.28h18l28.33,2.75-1.09-4.38,23.44,2.21-1.64-10.37,35.6-7,5.82-1.16-25.06-22.88A17.5,17.5,0,0,1,251.74,195.05ZM117.24,159.9s6.53-13.06,13.06-13.6S145.56,143,145.56,143,136.83,169.19,117.24,159.9Z" style="fill:#1e242b"/><path d="M78.21,318.85l7.1-20.7L69.53,309.07l13.55-21c2.74-7.59-4.64-20.77-5.8-22.76L61.84,257.9,80.12,256,79,248.11l16.68,2.22,1.67-11.67,8.38,2.83,3.7-10.15,2.29.1,8.77.45,5.78-10,.16-.12c6.72-5.15,9.26-12.81,7.56-22.79a48.76,48.76,0,0,0-1.38-6.11,3.17,3.17,0,0,0-1.76-2c-4.16-2.11-13.91.63-17.81,2l-5.36,11.32-5.72-6.3L88.69,211.67l-4.75-7.92-9.59,14.7-2.65-9.59L65,221V200.5l.14-.24,14-23,.74.22c5.63,1.68,10,1.28,13-1.2,6-5,4.82-16.7,4.81-16.82l-.13-1.17,1.18.07c.09,0,8.89.28,18.77-12.67,5.09-6.71,9.52-10.31,13.15-10.68a4.81,4.81,0,0,1,2.13.23l15.31-15.88-1.38,9,9.27-.46,8.86-8.85,11,3.29,24.35-18.71L202.36,117c20.17-19.48,50.64-23.24,52-23.39l6.61-.78-6.1,2.68c-8.78,3.87-16,20.58-18.7,27.59-.14.36-.26.69-.36,1h13.28l-.52,10.82L275,122.49l-17.33,40.77H296l-2.77,1.83c-1.38.91-33.86,22.4-38.74,25.1-1.46.82-2,2.41-1.74,4.73h0a16,16,0,0,0,1.52,4.7l26.39,24.1-42.42,8.36,1.68,10.69-23.31-2.19,1.09,4.39L188,242.08H170.41c-1,.72-4.94,3.63-12.82,10s-17.46,14.6-28.27,24.05c-17.5,15.32-28,22.34-31.14,20.91h0Zm11-25.81-6,17.39,16-17.41v2.29c.92.11,6-.61,28.84-20.63,10.83-9.47,20.35-17.58,28.33-24.1,9.27-7.55,13-10.21,13.18-10.32l.26-.18H188l27,2.62L214,238.32l23.56,2.22-1.58-10,40.42-8-23.73-21.67-.08-.15a18,18,0,0,1-1.81-5.53c-.42-3.17.53-5.5,2.75-6.73,4-2.22,27.65-17.8,35.83-23.19H254.65l16.47-38.75-24.74,11.57.57-12H233l.44-1.31s.29-.88.85-2.37c2.37-6.16,8.14-19.57,15.64-26-9.68,1.91-32.34,7.82-47.5,23.41L201,121.18l-2.23-13.94-22.51,17.27-10.83-3.24-8.56,8.56-12.49.63.79-5.17-12.1,12.56-.72-.63s-3.88-2.67-13.24,9.68c-8.59,11.27-16.48,13.13-19.35,13.41.17,3.21.14,12.75-5.59,17.51-3.4,2.82-8.14,3.42-14.1,1.79L67,201.06v12.17l5.29-9.65,2.79,10.07L84,200l5,8.42L102,195l5.15,5.67,4.44-9.35.38-.14c.56-.21,13.83-5.09,19.79-2.08a5.18,5.18,0,0,1,2.77,3.28,50.65,50.65,0,0,1,1.44,6.34c1.81,10.67-.93,18.95-8.16,24.57L121.6,234l-10.77-.55L106.92,244,99,241.32l-1.6,11.25-16-2.13,1,7.34-13.28,1.38,9.58,4.58.16.25c.38.64,9.46,15.79,6.06,24.85l-.09.19-8.17,12.68ZM125.36,162.9a20,20,0,0,1-8.55-2.09l-.93-.44.46-.91c.28-.56,6.86-13.58,13.87-14.16,6.34-.53,15-3.19,15.06-3.22l1.86-.58-.62,1.85c-.19.57-4.76,14-14.84,18.25A16.06,16.06,0,0,1,125.36,162.9Zm-6.75-3.48c4.37,1.84,8.49,2,12.27.34,7.14-3,11.41-11.44,13-15.19a79.8,79.8,0,0,1-13.51,2.72C125.87,147.67,120.76,155.47,118.61,159.42Z" style="fill:#fff"/><path d="M163.54,171.35s8.17,1.64-.55,10.9c-11.06,11.75-32.69,18.05-47.13,24-20.44,8.38-41.66,14.63-63.06,20-16.88,4.27-37.7,6.55-50,20.29,0,0,30-6.5,52.85-7.15,36-1,124.78-16.28,149.3-44.06,22.07-25,6.61-52.69-13-61.53a23.27,23.27,0,0,0-11.33-1.87l-10,.74s5.45,18.52-1.09,21.79S163.54,171.35,163.54,171.35Z" style="fill:#c6c5ba"/><path d="M0,248.17l2.06-2.29c10.34-11.56,26.79-15.23,41.3-18.46,3.2-.71,6.23-1.39,9.19-2.14,25.18-6.36,45.17-12.71,62.93-20,2.88-1.17,6-2.36,9.32-3.61,13.48-5.09,28.75-10.86,37.46-20.11,2.86-3,4.15-5.61,3.64-7.23s-2.54-2-2.56-2l-.77-.16,0-.78c0-.58-.49-14.31,6.54-17.82,4.75-2.38,2-15.69.58-20.62l-.35-1.19,11.23-.83a24.21,24.21,0,0,1,11.82,2c11.71,5.28,21,16.58,23.6,28.78,1.79,8.32,1.46,21-10.26,34.32-25.53,28.93-117.66,43.48-150,44.4C33.14,241,3.31,247.46,3,247.52Zm164.53-77.56a5.17,5.17,0,0,1,3.27,3.11c.77,2.42-.6,5.52-4.08,9.22-9,9.59-24.53,15.45-38.21,20.61-3.3,1.25-6.42,2.43-9.27,3.6-17.85,7.31-37.93,13.69-63.2,20.07-3,.76-6,1.44-9.25,2.15-13.82,3.08-28.08,6.26-38,15.53,8.37-1.67,31.47-6,49.83-6.51C95,237.27,180.72,221.27,204.2,194.67,215.37,182,215.7,170,214,162.09c-2.49-11.6-11.31-22.35-22.46-27.38a22.45,22.45,0,0,0-10.85-1.79l-8.78.66c1.19,4.48,4.36,18.63-1.93,21.78C164.89,157.9,164.53,167.86,164.53,170.61Z" style="fill:#fff"/><path d="M361.32,285.77c-.77,5.82-4.9,12.93-10.69,20.36a154,154,0,0,0-7.27-30v0c-19.78-55.89-66.42-74.78-91.61-81-.29-2.18.06-4.51,2.24-5.73,4.89-2.72,38.66-25.07,38.66-25.07H256.16l9.35-22c52.5,9.83,77.5,69.79,88.38,109A274.48,274.48,0,0,1,361.32,285.77Z" style="fill:#0e1319"/><path d="M296,358.39l-.6-.43c-.58-.41-57.65-41.61-63.63-84a25.23,25.23,0,0,0-10.6-17.87c-16.08-11.35-45.73-7.53-62.14-4.19-1.8,1.47-3.93,3.16-6.33,5.06-6.4,5.07-14.37,11.4-23.35,19.25-17.5,15.32-28,22.35-31.14,20.91h0L78.21,318.85l7.1-20.7L69.53,309.07l13.55-21c2.73-7.58-4.64-20.77-5.8-22.76L61.84,257.9,80.12,256,79,248.11l16.68,2.22,1.67-11.67,8.38,2.83,2.74-7.44c-2.64.49-5.22.95-7.72,1.37-37.2,19.82-93,21.37-93.56,21.39l-.15-2c12.55-1.59,30.78-6.62,53-14.6-1.52.08-3,.14-4.36.18C33.13,241,3.31,247.46,3,247.52l-3,.65,2.06-2.29c10.34-11.56,26.79-15.23,41.3-18.46,3.2-.71,6.23-1.39,9.19-2.14,25.19-6.36,45.18-12.71,62.93-20,2.88-1.17,6-2.35,9.31-3.61,2.95-1.11,6-2.26,9.06-3.49a53.24,53.24,0,0,0-1.25-5.3,3.21,3.21,0,0,0-1.76-2c-4.16-2.1-13.91.64-17.81,2l-5.36,11.32-5.72-6.3L88.69,211.67l-4.75-7.92-9.59,14.7-2.65-9.59L65,221V200.5l.14-.24,14-23,.74.22c5.63,1.68,10,1.28,13-1.2,6-5,4.82-16.7,4.81-16.82l-.13-1.17,1.18.07c.08,0,8.89.29,18.77-12.67,5.09-6.71,9.52-10.31,13.15-10.68a4.67,4.67,0,0,1,2.13.23l15.31-15.88-1.38,9,5-.25,41-87.43,1.83.79c-3.67,9.35-6.33,20.68-2.76,24.44,1.57,1.66,4.43,1.82,8.5.46l1.71-.56-3.74,15.44,12.16-14.87,8.33-1.1L308.26,0l1.21,1.6C305,5.1,266,36.68,286.93,65.07l.22.3-1.48,18.34L297,75.49l.45,1.27s1.08,2.71,6,4.76c9.38,4,35,6.28,101.05-22.51l.86,1.81c-7.26,3.75-70.24,38.53-46.89,104.67,1,1.62,16.84,27.76,38.28,27.21l.11,2c-.13,0-13.66,1.49-26,18.2-7.13,9.72-12.48,22.62-15.91,38.36a279,279,0,0,1,7.39,34.38l0,.13,0,.13c-.73,5.49-4.39,12.5-10.89,20.84C333,330.36,296.92,357.67,296.55,358ZM189.7,246.47c12,0,24.07,1.93,32.6,8a27.17,27.17,0,0,1,11.42,19.22c5.53,39.26,56.13,77.75,62.22,82.25,4.75-3.64,36.89-28.64,53.9-50.39,6.23-8,9.75-14.63,10.47-19.74a279.92,279.92,0,0,0-7.38-34.21l-.07-.24.05-.24c3.49-16.12,9-29.37,16.31-39.37,7.92-10.74,16.24-15.44,21.61-17.47-20-3.62-33.57-26.75-34.19-27.82l-.07-.17C337.78,113.17,373.17,79.84,393,66c-55.08,22.55-79.66,22-90.62,17.23a14.06,14.06,0,0,1-6.2-4.7l-12.85,9.32L285.1,66c-14.62-20.24-.88-41.71,10.91-54.54l-76.5,55.75-8,1.07-17.23,21,5-20.54c-4,1-7,.52-8.89-1.48-2.64-2.8-2.59-8.09-1.58-13.42L153,130l-8.65.45.79-5.17-12.11,12.56-.71-.63s-3.88-2.66-13.24,9.68c-8.59,11.27-16.48,13.13-19.35,13.41.17,3.21.14,12.75-5.59,17.51-3.4,2.82-8.14,3.42-14.1,1.79L67,201.06v12.17l5.29-9.65,2.79,10.07L84,200l5,8.42L102,195l5.15,5.67,4.44-9.35.38-.14c.56-.21,13.83-5.09,19.79-2.08a5.18,5.18,0,0,1,2.77,3.28,52.32,52.32,0,0,1,1.44,6.33l.12.78-.74.3c-3.33,1.34-6.64,2.59-9.84,3.8s-6.41,2.43-9.26,3.6C98.4,214.46,78.32,220.84,53,227.22c-3,.76-6,1.44-9.25,2.15-13.82,3.08-28.08,6.26-38,15.54,8.37-1.68,31.47-6,49.83-6.52,3.34-.09,7.14-.31,11.28-.65l7.22-.59-6.79,2.52a408.07,408.07,0,0,1-43.69,14c19.38-1.95,51.93-7,76.29-20l.15-.08.16,0c3.07-.51,6.29-1.09,9.57-1.71l1.71-.32h0c3.62-.7,7.28-1.45,10.88-2.23l2.12-.47-1,2L121.6,234l-10.77-.55L106.92,244,99,241.33l-1.61,11.24-16-2.13,1,7.34-13.28,1.38,9.58,4.58.16.25c.38.64,9.46,15.79,6.06,24.85l-.09.19-8.17,12.68L89.17,293l-6,17.39,16-17.41v2.29c.91.13,6-.62,28.84-20.63,9-7.89,17-14.23,23.43-19.32,2.48-2,4.66-3.69,6.5-5.2l.19-.15.24,0A161.37,161.37,0,0,1,189.7,246.47Zm-70.06-14.62.84,0,.15-.25Zm5.72-68.95a20,20,0,0,1-8.55-2.09l-.93-.44.46-.91c.28-.56,6.86-13.58,13.87-14.16,6.34-.53,15-3.2,15.06-3.22l1.86-.58-.62,1.85c-.19.57-4.76,14-14.84,18.25A16.06,16.06,0,0,1,125.36,162.9Zm-6.75-3.48c4.36,1.84,8.48,2,12.27.34,7.13-3,11.4-11.44,13-15.19a79.8,79.8,0,0,1-13.51,2.72C125.87,147.67,120.76,155.47,118.61,159.42Z" style="fill:#fff"/></g></g></svg>