<svg xmlns="http://www.w3.org/2000/svg" viewBox="0 0 372.64 338.44"><title>Blue-Dragon</title><g id="ac947745-91a6-413e-9fc7-c868b074dc1f" data-name="Layer 2"><g id="a7280a64-1c75-4ebb-96f7-3be8e03fab98" data-name="Layer 1"><path d="M367.93,142.11c-2-15-38-40-38-40s-22-10-32-31c-9.87-20.74,70,13.2,72,14-18-26-66-33-66-33,10-8,40-5,40-5-13-10-39-7-39-7-38,11-29,2-29,2-3-24,44-41,44-41s-42-2-61,15-52,16-52,16l14-23c-29,1-39,19-39,19s-11,24-25,23-36,19-36,19c-12.69-22.45,7-56.33,8-57.94-1.35,1.41-46.8,49.42-36,80.94,3.29,9.61,5,15.87,5.7,20,20.86,23.65,7.28,29.06,7.28,29.06s12,18,1,21-8,17-8,17c-6.61-6.61-22.24-9.6-36-11a115.06,115.06,0,0,0,13,7c20,22,9,25,9,25,10,0,15,22,15,22s5,7,11,8-1-16-1-16l14,6,1-13c13-4,19-23,19-23l18-16s1,34-11,34-16,30-16,30l-8-3-2,14-10-7v9l-14-12,6,19,13.49,10.43,21.74,16.86,4.79,3.71c10,0,12-24,12-24-.94-2.58-1.77-5-2.47-7.14a78.91,78.91,0,0,1-3.23-12.42c-1.65-10.4,2.79-9.67,7.72-5.44,0,0,34-61,59-30l1,21h-12s15,14,5,26c0,0,5,13-11,21a32.14,32.14,0,0,1,5.78,19.57c27.62-19.16,54.5-40,61.23-52.56,14.57-27.18,44.16,4,45.95,5.9-1.14-2.2-21.8-41.31-16.95-54.94,5-14,33,27,33,27,4.6-20-14.37-43.49-23.42-53.33-3.67-4-4.38-10.09-1.19-14.46C319.21,134,351,195.14,351,195.14c7-26-45-81-45-81C307.94,90.1,367.93,142.11,367.93,142.11Zm-217,4c-11-6-17,14-17,14s-14-8-11-12,6-23,6-23C157.9,105.12,150.9,146.13,150.9,146.13Z" style="fill:#204c86"/><path d="M213.92,252.13s5,13-11,21a32.14,32.14,0,0,1,5.78,19.57c-33.84,23.5-68.77,44.45-68.77,44.45l-19-21s10.75-17.16,21.21-35.73l4.79,3.71c10,0,12-24,12-24-.94-2.58-1.77-5-2.47-7.14,4.23-9.22,6.43-16.18,4.49-17.86,0,0,34-61,59-30l1,21h-12S223.91,240.15,213.92,252.13Z" style="fill:#a99e4e"/><path d="M139.73,338.44l-20.07-22.18.4-.64c.11-.17,10.86-17.35,21.19-35.69l.57-1,5.42,4.19c7.11-.48,10.06-16.39,10.64-22.86-.91-2.5-1.71-4.84-2.4-7l-.12-.37.16-.35c6.5-14.18,5.1-16.39,4.75-16.69l-.62-.53.4-.71c.85-1.53,21.08-37.42,42.28-39.23,6.84-.58,13,2.47,18.37,9.09l.2.25L222,227.13H211.24c3.64,4.2,11.58,15.3,3.8,25.22.74,2.63,2.91,13.8-10.66,21.15a33,33,0,0,1,5.31,19.26l0,.49-.41.28c-33.48,23.25-68.48,44.28-68.83,44.48ZM122.16,316l18,19.84c5.09-3.08,36.93-22.43,67.61-43.71a31.4,31.4,0,0,0-5.61-18.42l-.73-1,1.08-.55c15-7.47,10.72-19.25,10.53-19.75l-.21-.55.38-.45c9.27-11.13-4.77-24.49-4.91-24.63l-1.85-1.73h13.47l-.94-19.63c-4.84-5.89-10.37-8.6-16.43-8.1-18.73,1.6-37.63,32.92-40.37,37.62,1,1.72.92,5.84-4.63,18,.67,2.06,1.46,4.32,2.33,6.73l.08.21,0,.22c-.08,1-2.2,24.92-13,24.92h-.34l-4.15-3.21C133.38,297.92,124.16,312.81,122.16,316Z" style="fill:#fff"/><path d="M106.89,163.11c-11,3-8,17-8,17-6.61-6.61-22.24-9.6-36-11-9-5.52-20.09-14-24-24.06-7-18-35-24-35-24s22-7,61,6c0,0,10,3-3-18l35,11s3.44,2.47,1.71-7c20.86,23.65,7.28,29.06,7.28,29.06S117.91,160.12,106.89,163.11Z" style="fill:#cfd4b0"/><path d="M139.73,338.44l-20.07-22.18.4-.64c.11-.17,10.57-16.88,20.77-34.93l-34.8-27-7.14-22.64,15,12.87v-8.77l10.23,7.19,2-13.63,8,3c.92-5.83,5.41-29.62,16.81-29.62a5.24,5.24,0,0,0,3.87-1.77c5.56-5.73,6.14-22.91,6.17-29l-16.16,14.35c-.8,2.4-6.71,18.91-18.93,23.17l-1.06,13.75L111.69,217c1.49,4,3.87,11.62,1.82,14.2a2.74,2.74,0,0,1-2.78.93c-6.33-1.05-11.43-8.09-11.64-8.39l-.12-.17,0-.19c-.05-.22-4.93-21.23-14-21.23H77.4l7.23-2a3.34,3.34,0,0,0,2.1-2.36c.66-2.36,0-8.19-11.43-20.85A117.51,117.51,0,0,1,62.36,170C53.46,164.57,42,155.88,38,145.46c-6.72-17.27-34-23.32-34.27-23.38L0,121.29l3.59-1.14c.91-.3,22.76-7,61.61,6h0s1.45.38,2-.37,1.51-3.75-6.19-16.16l-1.41-2.29,37.74,11.84.13.1a.48.48,0,0,0,.28.1s.84-.74-.14-6.16C96.86,108.78,95,102.31,92,93.42,80.9,61.26,126.21,13.49,128.15,11.47l5.79-6.05-4.21,7.24c-2,3.53-19.4,34.55-8.54,55.85,4.45-3.88,23-19.35,35.78-18.42,13.16,1,23.91-22.16,24-22.39.46-.83,10.67-18.59,39.89-19.6L222.73,8l-14,23.07c7-.09,33.57-1.43,49.59-15.76C277.33-1.74,318.24,0,320,.08l5,.24L320.27,2C319.8,2.19,274,19,276.91,42l.06.49-.35.34c-.38.39-.71,1-.62,1.18s2.5,2.72,28.67-4.84l.16,0c1.08-.13,26.55-2.93,39.71,7.19l2.77,2.13-3.48-.34c-.28,0-26.06-2.52-37.2,3.46,10.29,1.85,48.25,10.08,64.09,33l1.92,2.77-3.53-1.45c-29.3-12.25-65.36-24.63-70.53-19.21-.74.79-.66,2.15.24,4,9.75,20.45,31.32,30.45,31.54,30.55l.15.09c1.49,1,36.38,25.43,38.41,40.67l.35,2.62-2-1.73c-12.45-10.79-47-37.87-57.42-33.65-1.65.67-2.59,2.16-2.88,4.54,4.75,5.08,51.78,56.18,44.94,81.65l-.67,2.48-1.19-2.28c-.23-.46-24-46-37.39-47a4.93,4.93,0,0,0-4.53,2.34,10.49,10.49,0,0,0,1.11,13.21c8.7,9.44,28.41,33.62,23.67,54.23l-.52,2.22-1.28-1.89c-5.8-8.49-22.28-30.31-29.06-29.47-.36,0-1.47.18-2.2,2.22-4.38,12.33,13.23,47.12,16.81,54l3.43,6.6-5-5.28c-1.76-1.88-17.63-18.31-31.27-16.53-5.34.7-9.74,4.2-13.07,10.41-5.79,10.8-26.5,28.6-61.54,52.91-33.48,23.25-68.48,44.28-68.83,44.48ZM122.16,316l18,19.84c5.11-3.1,37.21-22.6,68-44,34.29-23.78,55.36-41.83,60.92-52.21,3.65-6.8,8.55-10.65,14.57-11.44,10.69-1.41,22.43,7.37,28.66,13-6.54-13.21-18.22-39.35-14.29-50.4.94-2.64,2.6-3.38,3.83-3.54,8.15-1,24.45,21.08,29.58,28.36,2.62-19.17-15.46-41.26-23.61-50.11a12.47,12.47,0,0,1-1.26-15.73,6.83,6.83,0,0,1,6.3-3.16c12.66,1,32.32,35.66,37.67,45.54,2.76-26.16-44.78-76.82-45.28-77.35l-.3-.32,0-.45c.28-3.41,1.68-5.65,4.15-6.66,12-4.87,47.33,23.75,57,31.92C360.66,125,331.08,104.14,329.44,103c-1.55-.73-22.69-11-32.42-31.46-1.3-2.73-1.26-4.84.11-6.29,6.83-7.16,48.9,8.91,69.74,17.5-19-22.95-62.61-29.57-63.07-29.64l-2.27-.33,1.79-1.43c8.08-6.49,28.15-6.07,36.75-5.55-12.8-6.88-33.47-4.86-34.93-4.71C276.8,49.27,275,46.17,274.28,45s.08-2.58.59-3.23c-2-19.9,28-34.68,40-39.75-11.65.1-40.65,1.73-55.26,14.82-19.09,17.08-51.36,16.3-52.73,16.27l-1.72,0,13.93-22.87c-26.68,1.65-36.21,18.24-36.31,18.41-.42.93-11.39,24.54-26,23.48-13.37-.93-35,18.56-35.24,18.76l-.93.84L120,70.59c-9.59-17-1.22-40.08,4.27-51.8-11.85,13.94-38.9,49.42-30.46,74,3.08,9,5,15.56,5.74,20.1.87,4.78.63,7.31-.78,8.21a2.23,2.23,0,0,1-2.33-.08L64.11,110.86c5,8.47,6.53,13.77,4.7,16.16-1.14,1.49-3.19,1.37-4.22,1.06-28.84-9.63-48.45-8.19-56.41-6.88,8.16,2.44,26.09,9.28,31.63,23.54,3.85,9.9,15,18.28,23.6,23.57a115.14,115.14,0,0,0,12.89,6.9l.19.09.15.15c9.39,10.33,13.43,18.05,12,23a5.53,5.53,0,0,1-1.18,2.17c8.55,3,12.84,19.92,13.37,22.13.75,1,5.19,6.6,10.22,7.44.65.11.82-.11.89-.2,1.36-1.71-.92-9.47-3-14.44l-.94-2.27,15,6.44.95-12.3.65-.2C137,203.37,142.9,185,143,184.82l.08-.27L162.86,167l.06,2.14c0,1,.65,25.06-6.72,32.64a7.2,7.2,0,0,1-5.3,2.38c-9.11,0-13.93,21-15,29.13l-.16,1.24-8-3-2.06,14.4L115.91,239v9.27l-13-11.15,4.84,15.37,35.67,27.63-.43.76C133.77,297.29,124.21,312.74,122.16,316Zm34.12-60.32-.8-2.42a81.36,81.36,0,0,1-3.27-12.59c-.8-5.06-.26-8.05,1.65-9.11s4.4-.08,7.71,2.76c1.5,1.3,2.38,4.63-4.23,19Zm-.86-22.51a1.26,1.26,0,0,0-.59.13c-.38.21-1.55,1.35-.65,7.06a72.2,72.2,0,0,0,2.4,9.79c5.28-12.05,4-14,3.69-14.31C158,233.91,156.35,233.21,155.42,233.21Zm-20.93-71.6L133.4,161c-1.12-.63-10.9-6.34-11.84-10.85a3.13,3.13,0,0,1,.55-2.6c2.33-3.14,5-17.35,5.8-22.56l.07-.43.35-.24c8.1-5.58,14.34-7,18.56-4.36,8.47,5.4,5.15,25.51,5,26.36l-.24,1.38-1.23-.67a6.54,6.54,0,0,0-5.93-.53c-6.13,2.5-9.6,13.81-9.64,13.92Zm-4.67-35.9c-.48,2.92-3.23,19.14-6.11,23a1.13,1.13,0,0,0-.19,1c.52,2.5,5.91,6.53,9.82,8.9,1.13-3.17,4.61-11.63,10.39-14a8.26,8.26,0,0,1,6.38,0c.58-4.47,1.93-19.05-4.3-23C142.39,119.44,137,120.82,129.82,125.71Z" style="fill:#fff"/><circle cx="136.34" cy="136.87" r="5.99" style="fill:#00d4f7"/></g></g></svg>