<svg xmlns="http://www.w3.org/2000/svg" viewBox="0 0 450.13 541.2"><title>Bone-Devil_1</title><g id="ee76e283-5004-4b03-9302-b1f02abde2b7" data-name="Layer 2"><g id="e60399f2-82d9-4593-bece-4ea46d02db32" data-name="Layer 1"><path d="M220.78,222s-25.28,39.06-31.4-26a238.58,238.58,0,0,1-.6-24.93l1-26.79c2-35.47,6.27-81.18,11.12-126,.22-.26.45-.51.69-.76,0,0,50.87-16.72,52.1,73C239.49,124.1,218.21,181.87,220.78,222Z" style="fill:#ccc0c3"/><path d="M205.43,234.62a8.36,8.36,0,0,1-2-.24c-7.74-1.9-12.79-14.79-15-38.32a238,238,0,0,1-.61-25l1-26.82c1.73-31.38,5.47-73.78,11.13-126l0-.31.2-.23c.23-.28.48-.54.73-.81l.17-.18.24-.08a35.35,35.35,0,0,1,29.88,5.13c15.14,10.8,23.05,34,23.53,68.83v.21l-.08.19c-13.39,31.59-35.46,90.6-32.87,131l0,.33-.18.28C221.28,223.08,213.7,234.62,205.43,234.62ZM201.9,18.67c-5.63,52.09-9.36,94.36-11.08,125.63l-1,26.77a239.29,239.29,0,0,0,.6,24.8c2.64,28.14,8.79,35.42,13.48,36.57,7,1.72,14.65-8.88,15.9-10.71C217.29,181,239.3,122,252.73,90.32c-.5-34.06-8.12-56.61-22.67-67-12.42-8.89-26-5.49-27.89-4.95Z" style="fill:#fff"/><path d="M257.55,278.27h0l-.06,0h.14Zm-2.28-.7,2.27.7h0l.21-.12Z" style="fill:#ccc0c3"/><path d="M257.48,279.3h-4.3l1.84-.9.47-1.8,5,1.15-.79.45,1,.51-2.88.56A1.27,1.27,0,0,1,257.48,279.3Z" style="fill:#fff"/><path d="M322.42,232.53l115.13-38.87A43.49,43.49,0,0,1,413,224.3s-6.13,39.06-78.13,61.28c-23.39,7.22-33,10.63-35.21,11.95-1.56.09-2.38,0-1.95-.44l.1-.09a1.36,1.36,0,0,1,.28-.18l.4-.22q-1.75-1.31-3.77-2.55l-.67-.42-.46-.27c-.91-.55-1.84-1.08-2.8-1.61l-1.31-.7c-.47-.26-.95-.5-1.43-.74l-1.44-.73h0l-1.46-.7-1.48-.7-1.49-.68-1.49-.66-1.49-.65c-1.54-.65-3.07-1.28-4.57-1.88l-1.3-.51-.71-.27-1.41-.54c-2.32-.88-4.52-1.67-6.51-2.35l-1.17-.4c-1.39-.48-2.66-.89-3.76-1.25h0l-.42-.14-.24-.08h0l-.37-.11-1.12-.36-.07,0,.21-.12,41.92-22.45L249.12,271l43.66-33.7-59,25.28,32.89-65.79c-1.37,2.21-27.61,44.65-30.59,27.49l-9.18,14.53c.55-1.72,38.19-118.4,78.84-212.21a73.66,73.66,0,0,1,24.55-13.73c56.68-18.38,62.81-10,62.81-10s9.19,65.1-13.79,80.42c-22.74,15.17-48.49,57.36-49,58.21C331.56,141.11,411,111.33,449,65c0,0-1.54,49-20.68,62.81S413,124.72,403.85,145.4c0,0,.76,3.83-17.62,15.32,0,0,7.66,10.73-7.66,16.09s-4.6,25.28-52.85,42.13C325.72,218.94,326.18,226.35,322.42,232.53Z" style="fill:#ccc0c3"/><path d="M298.8,298.56c-1.14,0-1.79-.19-2.07-.82a1.13,1.13,0,0,1,.11-1.12c-.82-.57-1.69-1.15-2.61-1.72l-.67-.41-.42-.25c-.93-.57-1.85-1.09-2.8-1.61l-.44-.24-.85-.45c-.48-.27-.94-.5-1.41-.73l-1.23-.63h-.76v-.37l-.18-.09-.71-.34c-.4-.2-.79-.38-1.18-.56l-.3-.14-.84-.39-2.12-.94-.89-.39-.6-.26c-1.52-.64-3-1.27-4.54-1.87l-1.29-.51-.7-.26-.92-.36-.49-.18c-2.22-.85-4.4-1.63-6.48-2.34l-.14-.05c-.35-.12-.68-.24-1-.34-1.19-.41-2.27-.77-3.23-1.08l-1-.33-.16,0-.16,0-.22-.07-1.37-.44-1.73-.82,1.87-1.08,33-17.69-46.11,14,41.74-32.21L231.68,264.6l26.86-53.73c-6.75,9.42-15.14,19.37-19.94,18.44a3.93,3.93,0,0,1-2.85-2.58L223.59,246l2.37-7.44c.37-1.15,37.83-117.57,78.88-212.3l.09-.22.19-.15A74.52,74.52,0,0,1,330,11.94c55.76-18.08,63.25-10.51,63.92-9.58l.15.2,0,.24c.37,2.69,9,65.9-14.23,81.4-19.3,12.87-41.09,45.87-47.12,55.35,14.5-5.76,81.71-34,115.5-75.2l1.87-2.28L450,65c-.07,2-1.78,49.68-21.1,63.59-8.86,6.39-13,6.4-15.74,6.4s-3.63,0-8.35,10.61c-.1,1.52-2.13,5.87-17.26,15.43a11.12,11.12,0,0,1,1.13,8.5c-1.14,3.57-4.44,6.33-9.82,8.22-5.17,1.8-7.14,5.32-9.86,10.18-4.93,8.82-11.67,20.86-42.31,31.7a27.72,27.72,0,0,1-2.27,11.15l114.31-38.6-.24,1.62A44.89,44.89,0,0,1,413.92,225c-.48,2.24-2.85,11.15-12.18,22.26C392,258.8,372.63,275,335.2,286.54c-25.77,7.95-33.25,10.84-35,11.86l-.21.12h-.24ZM287.63,289l.92.47c.48.23,1,.48,1.45.75l.85.45.45.24c1,.54,1.92,1.08,2.84,1.64l.46.26.62.39c1.45.9,2.74,1.77,3.9,2.64l.71.53c3.62-1.77,15-5.61,34.78-11.7,70.46-21.75,77.38-60.1,77.44-60.48l.08-.53.48-.22a43.11,43.11,0,0,0,23.59-28.23L320.13,234.36l1.43-2.35c3.56-5.84,3.16-12.93,3.16-13l-.05-.76.71-.25c30.51-10.65,37.1-22.43,41.92-31,2.71-4.85,5.06-9.05,10.94-11.1,4.75-1.67,7.64-4,8.57-6.93,1.23-3.89-1.37-7.6-1.4-7.64l-.62-.86.91-.57c15.9-9.94,17.07-14,17.14-14.37l0-.21.13-.29c5.1-11.47,6.43-12,10.26-12,2.49,0,6.24,0,14.58-6,15.84-11.41,19.4-48.3,20.11-59.06-38.87,45.23-116.43,74.3-117.22,74.59l-2.71,1,1.51-2.46c1.1-1.79,26.77-43.48,49.31-58.52,21.35-14.23,14.07-74,13.4-79.1-1.21-.83-11.26-5.9-61.56,10.41a72.84,72.84,0,0,0-24,13.4c-34.92,80.62-67.21,176.87-76.23,204.28l6.29-10,.44,2.56c.34,2,1,3,1.9,3.22,4.68.88,17.19-15.45,26.84-31l1.76.95-31.67,63.35,63.72-27.31L254,268.49l45.35-13.74.76,1.83L260.1,278l.54.18c1,.31,2.07.67,3.24,1.08.33.1.68.22,1,.35l.14.05c2.09.71,4.29,1.51,6.53,2.36l.49.18.94.37.69.26,1.31.51c1.51.61,3.05,1.24,4.59,1.89l.6.26.92.4,2.12.95.87.4.29.13,1.21.57Z" style="fill:#fff"/><path d="M258.74,278.65l-2,0,.7-.38.06,0h0l.08,0Z" style="fill:#eae5e6"/><path d="M252.74,279.74l4.57-2.47.63.07,6.75,2.19Zm5.12-2.42Z" style="fill:#fff"/><path d="M421.46,503.88c-17.61-11.49-39.06-107.23-39.06-107.23v17.62l-10-23.75c-1.53,18.38-20.68,23.75-20.68,23.75-11.49-6.13-19.15,4.59-19.15,4.59l-19.15-26,8.43.77c-16.09-30.64,10-3.83,10-3.83-7.66-24.52,16.08-3.83,16.08-3.83-5.36-21.45,17.62-3.07,17.62-3.07L364,370.61c22.21,1.53,59-13,59-13l-34.46,1.53,27.57-6.9-3.83-7.66c21.45-3.83,25.28-36,25.28-36-13,18.39-28.34,14.56-28.34,14.56-25.43,29.16-23.11,13.06-23,12.28-11.48,28.29-13,3.8-13,3.8-14.56,29.87-13-.76-13-.76-10,15.32-15.32,16.08-15.32,16.08l-2.3-13L331.85,353l2.29-17.62L315.76,353l-1.53-18.38-10,14.55-3.83-.77-.76-16.08c-23.75,10.72-46-3.07-46-3.07,14.55-.76,23-6.89,23-6.89-21.45-.76-3.07-10-3.07-10,15.28,1.36,25.8-.58,33-3.64,13-5.54,15.25-14.74,15.25-14.74s-14.7,3.54-20.58,3.9l-1.61-.37-1.17-.93q-1.75-1.31-3.77-2.55l-.68-.41-.45-.28c-.91-.55-1.84-1.08-2.8-1.61l-1.31-.7-1.43-.74-1.44-.73h0l-1.46-.7-1.48-.7-1.49-.68-1.49-.66-1.49-.65c-1.54-.65-3.07-1.28-4.57-1.88l-1.3-.51-.71-.27-1.41-.54c-2.32-.88-4.52-1.67-6.51-2.35l-1.17-.4c-1.39-.48-2.66-.89-3.76-1.25h0l-.42-.14-.24-.08h0l-.37-.11-1.12-.36-.07,0h0l-.06,0a252.64,252.64,0,0,0-26,2.68c-9.19-9.19-21.44-7.66-21.44-7.66l-1.53-10.72a8.66,8.66,0,0,1-2,.57C190.64,265.56,178.65,220,178.65,220l-2.41.94-.32.13c-3.48,11.77-5.69,47.67-5.69,47.67l-3.07-19.14-8.42,25.27,1.53-21.45s-11.49,26-12.25,29.11-2.3-13-2.3-13c-21.45,19.91-19.15-3.83-19.15-3.83l-8.43,3.06-1.53-7.66c-15.32,23-14.55,13.79-14.55,13.79-13,3.07-19.15,26-19.15,26-.77,30.64-3.83,21.45-6.13,23s-4.59-8.42-4.59-8.42l2.29,16.85C88.27,343,76,375.2,76,375.2c6.89-13,12.25-.76,12.25-.76,6-27.15,46.21-40.19,47.46-40.59-14.51,3-6.1-6.14-6.1-6.14,9.19-7.66,23.75,23.75,23.75,23.75l-52.85,55.15c0-15.32,22.21-43.66,22.21-43.66-19.15,10.72-39.06,63.57-39.06,63.57C62.23,451.8,44.61,435,44.61,435c-33.17,1.51-43.34,34.93-43.65,36a35.87,35.87,0,0,1,24.5-20.66c-23,19.91-12.25,25.27-12.25,25.27,17.61-34.47,41.36-28.34,41.36-28.34L43.08,458.69V480.9l7.66-17.61,13-10.73L60.7,467.88,74.48,484l-7.66-19.92,6.9-9.95C95.16,454.1,89,489.33,89,489.33c9.95-11.49,8.42-53.62,8.42-53.62l9.19-18.38c7.66-2.3,58.22-52.85,58.22-52.85l10.72,2.3L161,394.35,141.89,415C115.08,457.93,132.7,484,132.7,484c-11.49-33.7,23.74-65.87,23.74-65.87-19.91,47.49-3.06,61.27-3.06,61.27-7.66-23.74,6.12-52.85,11.49-57.44s3.83,50.55,3.83,50.55l7.66-49,6.12,9.19-6.89,31.4,13.79-28.34L181,417.33l.77-12.26,11.49,18.39a97.44,97.44,0,0,1,32.93,21.44c15.32,15.32-52.08,56.69-52.08,56.69-9.19,13-25.28,9.19-25.28,9.19-30.64-4.6-39.06,20.68-39.06,20.68L133.46,520l13.79,4.59-7.66,10,16.09-5.36c27.57-.77,32.17-9.19,32.17-9.19,22.21-24.51,11.48,0,11.48,0s13-10.73,10-18.38,5.36-10.73,5.36-10.73c49-29.1,61.28-52.08,61.28-52.08-16.08,10-38.3,1.53-38.3,1.53L226.91,418.1c-19.92-11.49-7.66-13.79-7.66-13.79,17.62-1.53,38.3-16.09,38.3-16.09,7.66-7.66,9.95-1.53,9.95-1.53l7.66,2.3,2.3-7.66c8.43,13.79,48.26,60.51,48.26,60.51l-16.09,3.06c38.3,7.66,49-19.91,49-19.91,23.75-10.72,32.94,71.23,35.24,72C402.67,499.92,377,516.9,377,516.9c-19.92-1.53-24.51,14.56-24.51,14.56l10.72-6.9,13,1.54V533c3.83-8.43,16.85-5.36,16.85-5.36,10-8.43,7.66,10,7.66,10l6.9-9.2c8.42,1.54,9.95-5.36,9.95-5.36l3.07,8.43,3.83-7.66S439.08,515.37,421.46,503.88Z" style="fill:#ccc"/><path d="M399.32,541.2l.47-3.74c.48-3.89.31-9.85-1.6-10.88-.9-.49-2.47.16-4.42,1.81l-.39.32-.49-.11c-.12,0-12.27-2.78-15.71,4.8l-1.91,4.21V527l-11.78-1.4-12.65,8.14.73-2.55c0-.17,5-16.67,25.2-15.31,7.8-5.2,18.36-13.77,17.94-16.95,0-.17-.08-.63-1.14-1s-1.25-1.29-3.32-11.48c-3.56-17.53-11-54-23.57-60.48a8.25,8.25,0,0,0-7.27-.23c-1.55,3.42-13.85,27.36-50,20.13l-5-1,19.43-3.69c-6.33-7.47-36.64-43.32-46-57.48l-2,6.53-9.09-2.73-.18-.46a2.76,2.76,0,0,0-1.85-1.62c-1.12-.23-3.13.19-6.45,3.5l-.13.11c-.86.6-21.06,14.71-38.73,16.27-.33.07-2.63.64-2.86,2-.17,1,.55,4,10.87,9.91l.27.16,10.67,22.11c2.93,1,22.7,7.31,37-1.57l3.16-1.95-1.75,3.27c-.5.95-12.94,23.56-61.65,52.47l-.17.08s-3.58,1.35-4.89,4.28a6.45,6.45,0,0,0,.12,5.14c3.3,8.23-9.7,19.06-10.26,19.52l-3.22,2.66,1.67-3.83c1.86-4.25,3-8.86,2.36-9.5-.19-.06-2.21-.42-12.12,10.5-.7,1.11-6.55,8.82-32.79,9.58L136.8,536.5l8.8-11.44-12.07-4L108,533.39l.75-2.25c.09-.26,9-26,40.16-21.35.23,0,15.63,3.52,24.31-8.78l.12-.17.18-.1c.51-.32,51.75-32,53.8-49.41a6.55,6.55,0,0,0-1.91-5.73,97.49,97.49,0,0,0-32.55-21.2l-.33-.12-10-16-.56,8.9,8.53,18.58L172.81,472l8.6-39.19-4.46-6.7-7.26,46.48-2-.18c.63-22.67,0-47.07-2.24-49.7-5.11,4.65-18.59,33.18-11.13,56.31l1,3.23-2.62-2.15c-.69-.56-16.11-13.86.88-57.75-8.5,9.2-29,34.94-20,61.25l2.4,7.07-4.18-6.18c-.18-.27-17.67-27.08,9.17-70l.12-.15,19.06-20.59,13.87-26.28-8.9-1.91c-5,4.95-49.13,48.87-57.82,52.56l-8.9,17.8c.12,3.88,1.12,42.74-8.68,54.05l-2.35,2.72.61-3.54c0-.21,3.45-20.51-4.25-29.66a12.37,12.37,0,0,0-9.56-4.39l-6.3,9.07L77.5,489,59.62,468.16l2.61-13.05-10.67,8.8L42.08,485.7V458.27l10.41-10.41c-5.8-.63-24-.07-38.39,28.13l-.45.88-.89-.44a6.1,6.1,0,0,1-3-4.68c-.62-4.89,3.3-11.33,11.64-19.18A35.1,35.1,0,0,0,1.88,471.33L0,470.64c.42-1.43,10.77-35.15,44.56-36.69l.43,0,.31.29a21.86,21.86,0,0,0,15.11,5.2C68,439,75.56,434.49,82.81,426c1.45-3.83,20.54-53.34,39.44-63.93l4.35-2.43-3.07,3.92c-.21.27-19.54,25.09-21.79,40.34l50.44-52.64c-3.16-6.63-11.8-22.16-18.42-23.64a3.81,3.81,0,0,0-3.44.81c-1.17,1.3-2.5,3.49-2,4.33.14.24,1.14,1.38,7.22.11l.51,1.93c-1.66.53-40.91,13.39-46.78,39.85l-.67,3-1.23-2.79c-.55-1.26-2.49-4.55-4.78-4.63-1.79,0-3.74,1.82-5.67,5.45l-1.82-.82c.13-.31,11.83-31.6-1.21-41.74l-.33-.25L71.2,315.59l2-.36c.86,3.72,2.32,7.35,3.11,7.78a2.67,2.67,0,0,1,2.33-.1c.51.15.66.17.76.09.93-.67,2.12-5.05,2.55-22.13l0-.23c.26-1,6.44-23.58,19.89-26.76l1.34-.31-.12,1.37a2.2,2.2,0,0,0,.09.73c.5-.05,3.25-1.08,12.64-15.16l1.34-2,1.77,8.89,8.83-3.2-.16,1.57c-.22,2.35-.12,8.78,3,10.33,2,1,6.06.48,14.47-7.33l1.48-1.37.19,2c.36,3.73.84,7.76,1.25,10.32,2.85-7.34,11-25.81,11.39-26.72l2.33-5.26L160.3,267l7.2-21.6L169.84,260c.89-11.43,2.68-31,5.12-39.24l.14-.46,4.23-1.66.29,1.08c.12.45,11.95,44.71,26.72,42.46a7.68,7.68,0,0,0,1.81-.51l1.19-.49,1.58,11.07a28.55,28.55,0,0,1,20.92,7.66c2.42-.38,13.2-2,25.38-2.6h0l.52,0,.21.08,1.08.35a1,1,0,0,1,.21.06h0l.18.06.15.05,1,.33,3.24,1.08,1.18.4c2.13.73,4.33,1.52,6.53,2.36l.51.19.92.36,2,.77q2.28.92,4.6,1.9l.59.25.92.41c.49.21,1,.43,1.49.66l.59.26.92.42.33.16,1.16.55.71.34.73.35.58.29.91.47,1.44.74.95.51.36.2c1,.54,1.92,1.07,2.85,1.63l.49.31a7.41,7.41,0,0,1,.65.39c1.37.85,2.66,1.72,3.84,2.59l1,.81.59.14.66.16c5.73-.38,20.11-3.84,20.25-3.87l1.59-.39-.38,1.59c-.09.4-2.49,9.76-15.83,15.43-8.59,3.65-19.76,4.9-33.2,3.74-3.42,1.75-6.79,4.4-6.52,5.68.07.32.86,2,9.42,2.26l2.9.1-2.34,1.71c-.33.23-7.51,5.36-20.06,6.79,6.76,3.2,24,9.57,42,1.45l1.34-.61.79,16.77,2.42.49L315,331.72l1.59,19.09,18.92-18.13L333.24,350l10-10.68,2.43,13.8c1.87-1,6.57-4.28,13.71-15.26l2-3.11-.18,3.71c-.29,5.83.49,12.35,2.12,12.77.44.11,2.9,0,9-12.5l1.66-3.4.24,3.77c.22,3.57,1.35,8.65,2.88,8.9.48.08,3-.21,8.2-13l3.2-7.88-1.28,8.41c-.2,1.31-.15,3.41.82,3.86s5.2.51,20.43-17l.4-.46.59.15c.6.14,14.84,3.4,27.28-14.17l2.28-3.21-.47,3.91c-.16,1.31-4,31.69-24.79,36.59l3.8,7.61-19.15,4.8,30.5-1.36-5.54,2.2c-1.48.58-35.94,14.09-58.2,13.15l1.69,13.5-1.93-1.53c-4.47-3.58-12.65-8.58-15.55-6.72-1.5,1-1.66,4-.47,8.77l.77,3.08-2.4-2.09c-4.74-4.13-12.52-9.22-15-7.61-.68.44-2,2.35.5,10.39l1.25,4-2.92-3c-5.9-6.07-12.2-11-13.45-10.54-.07.13-.88,1.84,5.09,13.21l.86,1.63-8.05-.73,17.08,23.22c2.39-2.62,9.51-9,19.19-4.05,2.61-.86,18.25-6.68,19.59-22.76l.34-4.07,9.62,22.94V387.61l2,8.82c.21.95,21.56,95.47,38.63,106.61,6.19,4,9.27,8.23,9.16,12.46-.13,5-4.7,8.25-5.87,9L420.55,534l-3-8.32c-1.31,2.06-4,4.59-9.41,3.81ZM81.38,358.32a89.87,89.87,0,0,1-2.51,11.38,5.55,5.55,0,0,1,3.6-1.49h.17c2.36.09,4.17,2,5.28,3.61a36.38,36.38,0,0,1,2.66-6.41l5.81-8.34c9.72-11.15,24.28-18.32,32.61-21.77a3.4,3.4,0,0,1-2.44-1.55c-1.39-2.45,1.7-6,2.33-6.72l.1-.09a5.79,5.79,0,0,1,5.21-1.28c9.19,2.07,19.65,24.43,20.09,25.38l.28.62-55,57.44v-2.49c0-11.45,11.75-29.53,18.25-38.65-16.84,15.93-33,58.44-33.16,58.91l-.07.16-.11.13c-7.66,9-15.72,13.83-24,14.26A23.6,23.6,0,0,1,44.25,436C24.37,437,13,449.8,7.17,459.68a36.17,36.17,0,0,1,18.11-10.4l3.6-.65L26.11,451c-13.29,11.52-14.7,17.77-14.36,20.48a4.39,4.39,0,0,0,1.13,2.5c17.72-33.57,41.7-27.83,41.94-27.77l1.69.44L44.08,459.1v17l5.84-13.42L65.29,450l-3.51,17.6,9.68,11.31-5.76-15,7.5-10.81h.52a14.45,14.45,0,0,1,11.61,5.11c6.06,7.2,5.85,20.09,5.24,26.87,7.06-14.47,5.9-49,5.89-49.34v-.25l9.5-19,.41-.12c6.09-1.83,43.79-38.59,57.8-52.6l.39-.38,12.54,2.69L161.77,395l-19.08,20.61c-16.33,26.17-15.85,46.07-13.18,57.33-1.86-29.53,25.94-55.32,26.26-55.61l3.35-3.06-1.76,4.18c-13.69,32.67-9.8,49.1-6.27,56-4.52-22.94,7.74-48.7,13.13-53.3a1.74,1.74,0,0,1,2-.35c1.06.5,3.24,1.54,3.65,27,.06,3.6.07,7.2.06,10.49l5.87-37.58,7.78,11.69-5.18,23.6,9.9-20.36-8.33-18.17,1-15.62,13,20.74a100.19,100.19,0,0,1,33,21.55,8.54,8.54,0,0,1,2.48,7.38c-2.13,18.05-50.7,48.38-54.57,50.76-9.49,13.22-26,9.46-26.21,9.42-23.78-3.56-33.82,11.59-36.84,17.63l21.68-10.49,15.51,5.16-6.52,8.48,13.27-4.37c26.4-.74,31.28-8.61,31.33-8.68l.13-.19c10.26-11.32,13.15-11.93,14.75-10.89s1.08,4.55,0,7.83c3.48-3.58,8.36-9.67,6.51-14.27a8.36,8.36,0,0,1-.08-6.7c1.54-3.45,5.27-5.05,5.93-5.31,37.64-22.35,53.55-41.21,58.75-48.46-15.78,7.13-34.83.08-35.69-.25l-.37-.14-10.76-22.29C217.82,414,214,410.1,214.57,407c.49-2.87,4.33-3.62,4.49-3.66,16.75-1.45,36.53-15,37.85-15.87,3.16-3.15,5.92-4.49,8.24-4a4.69,4.69,0,0,1,3.06,2.39l6.28,1.88,2.65-8.84,1.17,1.91c8.29,13.56,47.77,59.91,48.17,60.38l1.12,1.31-12.18,2.32c32.47,3.88,41.89-19.16,42.3-20.2l.15-.38.37-.16a10.33,10.33,0,0,1,9.35.12c13.46,6.89,20.72,42.66,24.62,61.87.94,4.63,1.84,9,2.29,10.08a3.09,3.09,0,0,1,2.19,2.51c.75,5.61-15.78,16.87-19.1,19.07l-.29.19-.34,0c-13.65-1-19.81,6.57-22.19,10.93l8.24-5.3,14.26,1.69v4.52c4.73-4.92,13.4-3.61,15.58-3.18q2.65-2.13,4.67-2.13a3.35,3.35,0,0,1,1.62.4c2.56,1.39,2.94,6.11,2.87,9.46l5.24-7,.61.11c7.34,1.34,8.74-4.35,8.79-4.59l.76-3.29,3.43,9.41,2.93-5.85.26-.15c.05,0,5-3,5.14-7.49.09-3.49-2.69-7.1-8.26-10.73h0c-14.8-9.66-31.78-75.55-37.51-99.39v13.92l-10.51-25.05c-3.55,16-20.68,21-20.86,21l-.39.11-.35-.19c-10.59-5.65-17.57,3.88-17.87,4.29l-.8,1.12-21.28-28.94,8.82.81c-5.47-10.73-5-13.16-3.63-14.15,2.36-1.71,8.6,3.49,13.37,8.12-1.06-4.78-.62-7.75,1.31-9,3.66-2.4,11.19,2.81,15.16,5.95-.66-4.19,0-6.85,1.92-8.1,4-2.58,12.17,2.64,16,5.39l-1.38-11.1,1.21.08c16.42,1.14,41.2-6.75,52.52-10.74l-37.95,1.69,36-9-3.87-7.74,1.31-.24c16-2.86,21.94-22.6,23.76-31.17-11.29,13.44-23.4,12.31-26.27,11.81-15.29,17.46-20.11,18.08-22.39,17a3.22,3.22,0,0,1-1.61-1.76c-3.44,7.68-6.2,11-8.81,10.53s-3.65-4.33-4.17-7.38c-5.31,10.15-8,11-9.79,10.58-3-.78-3.64-7-3.68-11.38-8.73,12.58-13.56,13.61-14.12,13.69l-1,.13-2.12-12L330.46,356l2.32-17.9-17.84,17.11-1.47-17.67-8.75,12.78-5.24-1.06-.73-15.41c-23.46,9.73-45.34-3.57-45.56-3.71l-2.71-1.68,3.19-.17a48.91,48.91,0,0,0,19.71-5.1c-5-.48-7.59-1.66-8-3.63-.77-3.52,6.38-7.3,7.82-8l.25-.12.29,0c13.23,1.18,24.18,0,32.53-3.56,9.1-3.87,12.74-9.62,14-12.42-4.16,1-14.2,3.21-18.92,3.5a4.56,4.56,0,0,1-1.09-.21l-.69-.16h-.24l-1.44-1.15c-1.11-.82-2.35-1.66-3.68-2.48-.21-.14-.43-.27-.64-.39l-.47-.29c-.91-.55-1.83-1.07-2.77-1.6l-.36-.19-.93-.5-1.42-.73c-.41-.22-.82-.42-1.23-.62h-.76v-.38l-.19-.09-.71-.34-1.13-.54-.34-.16-.9-.4-.59-.27-1.47-.66-.9-.39-.59-.26c-1.52-.64-3.05-1.27-4.54-1.86l-2-.78-.91-.35-.51-.19c-2.18-.83-4.36-1.61-6.47-2.34l-1.17-.4c-1.17-.4-2.26-.75-3.22-1.07l-1-.32-.16-.05-.16-.05-.22-.06-1-.32A254.81,254.81,0,0,0,231.66,282l-.5.09-.37-.37c-8.74-8.74-20.49-7.39-20.61-7.37l-1,.12-1.5-10.5a10.79,10.79,0,0,1-1.07.23,10.2,10.2,0,0,1-1.34.1c-14.65,0-25.39-36-27.32-42.95l-1.23.48c-3.34,12-5.5,46.64-5.52,47l-.56,9-3.85-24-9.64,28.93,1.68-23.6c-4.07,9.3-9.39,21.7-9.87,23.65-.28,1.1-1,1.17-1.27,1.14-.88-.06-1.58-.12-2.8-12.33-6.77,6-11.77,8-15.24,6.31-3.83-1.9-4.22-7.89-4.18-10.76l-8.11,2.94-1.29-6.44c-9,13.27-12,14.53-13.66,13.95a2.06,2.06,0,0,1-1.25-1.43c-11.12,3.76-16.82,23.25-17.28,24.91-.51,19.86-2,22.58-3.37,23.57a2.66,2.66,0,0,1-2.52.2c-.34-.1-.6-.17-.69-.11a1.83,1.83,0,0,1-1.74.19,3.22,3.22,0,0,1-1.25-1.07l1.08,7.95c3.76,3.09,5.61,7.69,6.31,12.76" style="fill:#fff"/><path d="M328.78,253.91c-1.53,18.39-52.85,43.66-52.85,43.66,5.27-14.3-10.93-18.43-28.76-18.93,38.21-2.74,43.59-14.25,44.05-15.43l-3,12.15C298.91,280,328.78,253.91,328.78,253.91Z" style="fill:#680f11"/><path d="M274.13,299.57l.86-2.35c1.41-3.83,1.26-6.92-.46-9.46-3.31-4.9-12.78-7.71-27.39-8.12l0-2c38.06-2.73,43-14.3,43.19-14.79l1.9.6-2.81,11.26c8.89,2.23,30.81-14.64,38.74-21.55l1.86-1.62-.2,2.45c-1.56,18.74-51.29,43.44-53.41,44.48ZM258.2,278.52c9.2,1.32,15.23,4,18,8.12a11,11,0,0,1,1.37,9c9-4.67,44.5-23.85,49.64-39.06-7.26,6-29.9,23.81-39.41,19.72l-.79-.34,2.08-8.31C285.19,271.19,276.67,276,258.2,278.52Z" style="fill:#fff"/><path d="M249.12,271l50.56-15.32-42.2,22.6a252.64,252.64,0,0,0-26,2.68c-9.19-9.19-21.44-7.66-21.44-7.66l-1.53-10.72c-16.85,6.89-32.41-40.82-32.41-40.82l.77-5.38,10.19,14s-8.68-46.22-8.94-61.28l-1-19.92s-3.75-100.08,23.82-131c-4.85,44.81-9.17,90.52-11.12,126l-1,26.79a238.58,238.58,0,0,0,.6,24.93c6.12,65.1,31.4,26,31.4,26-2.57-40.13,18.71-97.9,32.95-131.49,0,2.24,0,4.54,0,6.92-9.8,29.08-22.07,70.45-23,97.76-.89,26.69,31-66.75,57.95-149.79a98.25,98.25,0,0,1,17.07-18.78c-40.65,93.81-78.29,210.49-78.84,212.21l9.18-14.53c3,17.16,29.22-25.28,30.59-27.49L233.8,262.6l59-25.28Z" style="fill:#680f11"/><path d="M231.16,282.05l-.37-.36c-8.71-8.72-20.49-7.39-20.61-7.38l-1,.12-1.5-10.49a10.31,10.31,0,0,1-7.22-.75c-13.88-6.42-24.86-39.69-25.32-41.1l-.07-.22,1.15-8.05,9.05,12.46c-2.17-11.91-7.94-44.69-8.16-57.11l-1-19.89c-.15-4.11-3.45-100.85,24.08-131.69l2.07-2.33-.33,3.1c-5.66,52.24-9.4,94.61-11.12,125.94l-1,26.77a239.29,239.29,0,0,0,.6,24.8c2.64,28.14,8.79,35.41,13.48,36.57,7,1.72,14.64-8.88,15.9-10.71-2.47-40.84,19.63-99.95,33.05-131.61l1.86-4.38.06,4.76c0,2.37,0,4.65,0,7l-.05.3c-10,29.57-22,70.48-22.93,97.48a12.13,12.13,0,0,0,.2,3.45c2.67-2.12,13.32-22.56,55.8-153.59l.14-.27a99.6,99.6,0,0,1,17.24-19l3.24-2.71L306.68,27c-34.82,80.35-67.27,177-76.32,204.5l6.28-10,.45,2.56c.34,2,1,3,1.9,3.22,4.67.94,17.17-15.45,26.83-31l1.77.94-31.67,63.35,63.71-27.31L254,268.49l45.35-13.74.76,1.83-42.4,22.71h-.22A253.48,253.48,0,0,0,231.67,282Zm-18.95-9.83a28.42,28.42,0,0,1,19.63,7.69c2.42-.38,13.2-2,25.37-2.59l33.1-17.73-46.11,14,41.73-32.21L231.69,264.6l26.86-53.74c-6.75,9.42-15.12,19.41-19.94,18.45a3.94,3.94,0,0,1-2.86-2.58L223.59,246l2.38-7.45c.36-1.14,36.91-114.6,77.11-208.21A99.91,99.91,0,0,0,289.6,45.86c-50.66,156.23-55.9,155.34-58.12,155-1.68-.29-1.83-2.89-1.74-5.65.91-27.2,13-68.22,23-97.9l0-1.81c-13.47,32.44-33.44,87.92-31,126.49l0,.33-.18.28c-.37.57-9.2,14-18.23,11.83-7.74-1.9-12.79-14.79-15-38.32a238,238,0,0,1-.61-25l1-26.82c1.69-30.7,5.31-72,10.77-122.71-24.71,32.9-21.51,126.73-21.47,127.71l1,19.9c.26,14.84,8.84,60.69,8.92,61.15l.83,4.37L177.53,219l-.38,2.7c1,2.92,11.65,33.88,24.18,39.69a8.17,8.17,0,0,0,6.82.3l1.19-.49,1.58,11.06Q211.45,272.22,212.21,272.22Z" style="fill:#fff"/></g></g></svg>