<svg xmlns="http://www.w3.org/2000/svg" xmlns:xlink="http://www.w3.org/1999/xlink" viewBox="0 0 373.83 434.21"><defs><linearGradient id="b2119f20-313f-415c-971e-3ab4e00068a3" x1="94.52" y1="313.95" x2="305.68" y2="102.8" gradientTransform="translate(10.36 -18.14) rotate(4.98)" gradientUnits="userSpaceOnUse"><stop offset="0" stop-color="#e1b138"/><stop offset="1" stop-color="#aa5a00"/></linearGradient></defs><title>Brass-Dragon_1</title><g id="a01271e6-f005-46b1-bfd2-529929234c31" data-name="Layer 2"><g id="a3c3d679-363e-4ffc-9009-0681b4b9ce7c" data-name="Layer 1"><circle cx="251.95" cy="186.15" r="8.96" style="fill:#ffb012"/><path d="M115.64,76.36s-26.74,48.92-76.23,41c0,0,101.26,51.76-24.46,108.65,0,0,101.83-18.77-10.81,96.71,0,0,96.71-40.39,38.68,81.92,0,0,109.23-107,168.39-35.27Z" style="fill:#904215"/><path d="M371,233.38s-10.25-30.75-26.16-35.3-15.64-19.92-17.06-28.43c0,0-16.8,3.39-33-41-18.5-50.71-33-50.09-52.32-76.25S219.71,8.07,219.71,8.07,206.07,35.39,232.23,57s18.23,51.2-13.64,8c0,0,26.16,87.61-41-9.09,0,0,10.21,63.68-26.2,2.28,0,0-13.64-11.41-5.66-48.93a352.35,352.35,0,0,1-17.11,33.46c-4.59,7.89-9.4,16.22-15.55,23C100.77,79.41,90,91.8,85.44,108.11c-1.51,5.26-4.83,14-4.88,20.27,0,7.84,3,12.57,4,20.33a41.82,41.82,0,0,0,15.19,17.42s1.25,23.22,6.87,43.81c5.3,8.69,2.75,11.12,9.71,22.77a3.9,3.9,0,0,0-.18.67s-24.11,83.06,8.91,126.28c11.05,14.49,30.48,25,52.05,33.47-1-5.39-1.38-10.74-.09-14.13,0,0-17.64-9.67-.58-36.4,0,0-18.76-19.92-9.67-29,0,0-17.64-22.19-9.67-31.29,0,0,26.74,6.82,46.08-2.31l-3.43-9.67s32.35,20.36,68.94,15.59c1.33-2.4,2.72-4.72,4.19-7,10.51-15.86,24.15-25.53,37.83-10.34l5.66,16,15.95-9.14s3.43,33-9.09,37.57c0,0,22.73,9.09,29.59-30.71l-1.16,26.16s20.5-20.5,18.18-46.65C369.88,261.81,375.59,241.31,371,233.38ZM268.19,191.54c-30.75,14.14-37.33-13.3-37.33-13.3l-19.12-16.43c13.61,7,18,7.36,26,6.88,6.21-.34,11.55,3.07,17,6,25.4,13.54,28.09,18.14,28.09,18.14Z" style="fill:url(#b2119f20-313f-415c-971e-3ab4e00068a3)"/><path d="M178.46,394.71l-1.67-.65c-25.59-10-42.76-21-52.48-33.79-17.25-22.58-18.79-56-17-80a256,256,0,0,1,8-47.14c0-.08,0-.16,0-.26a47.73,47.73,0,0,1-5.52-13,32.5,32.5,0,0,0-4-9.43l-.11-.26c-5.13-18.8-6.64-40-6.87-43.52a42.91,42.91,0,0,1-15.13-17.56l-.08-.28a58.83,58.83,0,0,0-2-8.4,40,40,0,0,1-2.1-12.07c0-5.06,2.08-11.49,3.72-16.66.45-1.42.87-2.73,1.2-3.88,4.5-16,14.4-27.81,27.9-42.77,6-6.63,10.67-14.69,15.2-22.49l.22-.38A353.19,353.19,0,0,0,144.87,8.82L148.74.13l-2,9.31C139,46,152,57.28,152.08,57.39l.13.11.09.15c14.55,24.54,20.37,26.9,22.53,26.1,4.31-1.55,3.41-17.82,1.83-27.71l-.7-4.33,2.5,3.6c29.4,42.37,38.84,46.27,41.85,44.81,4.93-2.37,1-22.64-2.67-34.86L216,59.76l3.4,4.62c12.64,17.15,21.27,22.45,25.13,21.7a2.8,2.8,0,0,0,2.18-2.32c1.18-4.64-2.73-15.76-15.12-26C205.13,35.9,218.67,7.9,218.81,7.62L220.14,5l.55,2.91c0,.18,3.64,18.35,22.59,44A157.57,157.57,0,0,0,260.39,71C272,82.58,283,93.5,295.74,128.36c15.74,43,31.72,40.35,31.88,40.31l1-.2.17,1c.19,1.11.35,2.34.51,3.63,1.09,8.54,2.59,20.22,15.85,24,15.94,4.56,26,33.62,26.8,35.85,4.43,7.94-.48,26.76-1.07,28.93,2.23,26.23-18.27,47.06-18.48,47.27L350.59,311l.8-18.07c-3,9.7-7.53,16.27-13.51,19.61a18.43,18.43,0,0,1-15,1.41l-2.43-1,2.46-.89c10.16-3.69,9-28.5,8.57-35l-15.63,9-6-16.89c-4.62-5.08-9.47-7.48-14.42-7.11-7,.52-14.46,6.56-21.7,17.48-1.37,2.07-2.73,4.32-4.15,6.88l-.24.44-.5.07c-30.86,4-59-9.85-67.22-14.37l2.83,8-.82.39c-18,8.52-41.87,3.53-46.13,2.54-6.36,8.65,9.91,29.32,10.08,29.53l.55.7-.63.63c-8.31,8.31,9.51,27.43,9.69,27.62l.54.57-.42.65c-6.24,9.77-8.49,18.27-6.7,25.26a16.14,16.14,0,0,0,6.91,9.74l.77.42-.31.81c-1.05,2.75-1,7.32.14,13.59ZM107.58,209.54a34.58,34.58,0,0,1,4.11,9.81,45.75,45.75,0,0,0,5.54,12.84l.25.43-.18.46a2.85,2.85,0,0,0-.13.48c-.26.92-23.6,83.17,8.73,125.5,9.29,12.17,25.64,22.81,50,32.49-.84-5.3-.84-9.29,0-12.12a18.34,18.34,0,0,1-7.17-10.54c-1.9-7.4.3-16.2,6.53-26.18-3-3.37-17.29-20.12-9.72-29.18-3-3.91-16.83-23.09-9.12-31.88l.41-.47.59.16c.26.06,25.86,6.43,44.58-1.88l-4.09-11.52,2.44,1.53c.32.2,32.19,19.93,67.78,15.52,1.36-2.43,2.66-4.58,4-6.58,7.7-11.61,15.51-17.79,23.22-18.36,5.66-.41,11.1,2.24,16.19,7.91l.14.14,5.32,15,16.25-9.3.16,1.53c.13,1.29,2.95,29.71-7.36,37.32a16.67,16.67,0,0,0,10.94-1.9c7.35-4.12,12.37-13.76,14.94-28.63l2,.22-1,23.38c4.92-5.76,17.9-23.1,16.07-43.84l0-.18.05-.17c.06-.2,5.54-20.19,1.25-27.67l-.08-.18c-.1-.3-10.26-30.3-25.48-34.65-14.53-4.14-16.19-17.09-17.28-25.66-.12-.93-.24-1.83-.36-2.66h-.05c-4.11,0-18.88-2.91-33.06-41.68-12.56-34.43-23.4-45.2-34.88-56.6a157.67,157.67,0,0,1-17.3-19.39c-14.94-20.21-20.43-35.57-22.21-41.8-2.62,7.34-7.35,27.83,13.4,45,12.29,10.16,17.31,22,15.78,28A4.75,4.75,0,0,1,244.91,88c-5.32,1-13.93-5.59-24-18.33,2.49,9.61,6.65,29.13.24,32.22-4,1.93-12.73-.45-42-42.07.94,7.86,2.08,23.69-3.69,25.77-3.14,1.14-9.16-.39-24.85-26.83-1.41-1.28-11.76-11.88-7.28-41.95-4.22,8.93-8.86,17.76-13.85,26.35l-.22.38c-4.59,7.88-9.33,16-15.45,22.82-13.31,14.75-23.07,26.4-27.45,42-.34,1.17-.76,2.5-1.22,3.94-1.6,5-3.59,11.31-3.63,16.06a38.23,38.23,0,0,0,2,11.5,60.85,60.85,0,0,1,2,8.54,41.1,41.1,0,0,0,14.78,16.88l.41.28,0,.5C100.8,166.31,102.09,189.33,107.58,209.54ZM250,196.6a21.59,21.59,0,0,1-7.6-2.06c-8.92-4.34-11.95-13.72-12.5-15.69l-25.95-22.29,8.31,4.28c13.76,7.1,18,7.2,25.46,6.76,5.82-.33,10.87,2.45,15.75,5.13l1.81,1c25,13.29,28.23,18.05,28.52,18.54l1.07,1.83-16.47-1.43C261.57,195.76,255.42,197.07,250,196.6Zm-31.2-30.18,13.05,11.22.09.34c0,.11,2.58,10.3,11.44,14.59,6.45,3.13,14.65,2.45,24.36-2l.27-.12,11.94,1c-2.88-2.41-9.75-7.31-25.7-15.81l-1.83-1c-4.82-2.65-9.38-5.16-14.58-4.86C231.15,170.18,226.94,170,218.79,166.42Z" style="fill:#fff"/><path d="M282.34,433.6c-11.36-15.11-63.48-23.71-106.17-40.46-1-5.4-1.38-9.74-.09-13.13,0,0-18.64-10.67-1.58-37.41,0,0-18.76-19.92-9.66-29,0,0-21.6-23.47-6.24-53.06,0,0,13.62,13.89,29.45,19.76l1-24.74s37.55,37,82.49,25.6c-7.93,14.22-16.18,35.65-17.6,44.3C248.65,358.11,262.73,407.49,282.34,433.6Z" style="fill:#353f2d"/><path d="M281.54,434.2c-7-9.25-30.09-16.13-56.89-24.1-16.22-4.82-33-9.81-48.84-16l-.52-.21-.1-.55c-.95-5.2-1.36-9.42-.3-12.89A20.49,20.49,0,0,1,167,368.63c-1.85-7.52.27-16.23,6.3-25.92-3-3.36-17.26-20.08-9.75-29.14-3.41-4.18-19.82-26.48-5.79-53.5l.63-1.22,1,1c.13.14,12.91,13,27.8,19l1-25.6,1.61,1.59c.38.37,37.68,36.45,81.54,25.34l2.25-.57-1.13,2c-8.05,14.42-16.14,35.85-17.48,44-5,31.14,7.92,80.32,28.24,107.39h0ZM177.06,392.41c15.62,6.09,32.16,11,48.16,15.77,21.7,6.46,41,12.21,51.67,19.25-17.87-28.29-28.66-73-24-102.14,1.33-8.09,8.75-28,16.64-42.65a71.79,71.79,0,0,1-15.39,1.66c-31.94,0-57.68-20.76-64.23-26.55l-.94,24-1.3-.48c-13.6-5.05-25.39-15.72-28.83-19-13.67,28.06,6.49,50.48,6.7,50.71l.65.7-.68.68c-8.31,8.31,9.51,27.42,9.69,27.62l.54.56-.42.66c-6,9.44-8.21,17.85-6.47,25a18.49,18.49,0,0,0,7.7,11l.74.43-.3.8C175.85,383.42,176.17,387.4,177.06,392.41Z" style="fill:#fff"/><path d="M372,232.94c-.75-2.23-10.81-31.24-26.8-35.8-13.24-3.78-14.75-15.49-15.85-24-.16-1.28-.32-2.5-.51-3.6l-.17-1-1,.18c-.17,0-16.21,2.43-31.85-40.36-12.73-34.8-23.73-45.71-35.37-57.27a156.23,156.23,0,0,1-17.12-19.18c-18.95-25.63-22.52-43.79-22.55-44L220.19,5l-1.33,2.66c-.14.28-13.73,28.28,12.78,50.15,12.37,10.22,16.28,21.34,15.1,26a2.81,2.81,0,0,1-2.19,2.34c-3.89.76-12.51-4.55-25.15-21.7L216,59.78l1.64,5.5c3.65,12.22,7.6,32.49,2.68,34.85-3,1.45-12.45-2.45-41.86-44.84L176,51.67l.7,4.35c1.59,9.89,2.51,26.17-1.8,27.73-1.64.59-3.52-.86-4.69-1.8-4.16-3.35-7.35-8.07-10.33-12.43-5.19-7.63-11.62-15.43-13.93-24.51a63,63,0,0,1-1.43-19.75,112.21,112.21,0,0,1,2.28-15.8l2-9.46-3.9,8.84a335.32,335.32,0,0,1-17,33.33c-4.57,7.9-9.3,16.08-15.47,22.91C99.54,79.24,89.34,91.34,84.71,107c-14,8.74-29.25,11.86-45.14,9.31l-6.25-1L39,118.21c.39.19,38.67,20.1,38,48-.5,20.53-21.49,40.33-62.42,58.85l-7.47,3.38L15.13,227c.31-.06,31.54-5.63,39.28,8.87,5.33,10,.81,33-51,86.15L0,325.49l4.52-1.89c.35-.14,35.25-14.46,49.6.59,11.41,12,7.3,38.87-12.2,80l-2.4,5.06,4-3.92c.36-.35,35.86-34.82,76.71-51.16a67.14,67.14,0,0,0,4.08,6.1c9.76,12.82,26.44,23.58,52.52,33.88,15.65,6.12,32.06,11.05,47.93,15.82,26.69,8,49.74,14.93,56.74,24.24l0,0,1.6-1.2c-20.34-27.09-33.26-76.27-28.2-107.39,1.39-8.74,7-25.47,14.64-39.24,5.83-10.45,15-23.15,25.35-24.31,5.14-.58,10.17,1.81,15,7.1l6,16.84,15.58-8.9c.47,6.47,1.59,31.25-8.57,35l-2.45.9,2.42,1a18.48,18.48,0,0,0,15-1.42c6-3.34,10.48-9.91,13.48-19.59l-.8,18,1.82-1.81c.21-.21,20.71-21,18.53-47.23C371.53,259.76,376.44,240.93,372,232.94ZM267.81,285.4C260,299.53,254.4,316.17,253,325.3c-4.73,29.11,6,73.77,23.88,102.08C266.2,420.3,247,414.52,225.34,408c-15.83-4.75-32.2-9.67-47.77-15.77-25.73-10.15-42.14-20.71-51.67-33.23a66.32,66.32,0,0,1-4.39-6.63l-.43-.73-.8.31c-33.78,13.29-64.05,39-74.39,48.4C63.9,361,67.15,335,55.57,322.81c-12.37-13-37.61-6.07-47.63-2.62,40-41.6,56.24-70.3,48.24-85.3-6.19-11.6-24.93-11.63-35-10.73C59.05,206.06,78.46,186.6,79,166.25c.56-23.56-24.26-41-34.65-47.32a65.7,65.7,0,0,0,39.42-9c-3.18,9.25-6.55,24.89,0,39.17a42.91,42.91,0,0,0,15.13,17.56c.22,3.49,1.74,24.72,6.87,43.52,2.71,10,6,17.78,9.87,23.09,2.72,3.81,5.71,6.41,8.89,7.74l1.5.62-.12-1.62c-.16-2.29-.06-9,2.55-9.88,1.56-.52,6.56.48,19.5,20.74l.11.14c1.07,1.17,26.56,28.73,39.32,29.86l1,.09,2.15-23.66a86,86,0,0,0,21.16,16.5,76.84,76.84,0,0,0,37.45,9.9,79.39,79.39,0,0,0,21.54-3.05C269.61,282.27,268.67,283.86,267.81,285.4Zm85,20.31,1-23.39-2-.21c-2.55,14.88-7.57,24.53-14.91,28.66a16.73,16.73,0,0,1-11,1.91c10.32-7.64,7.5-36,7.37-37.32l-.16-1.53L317,283.09l-5.37-15-.13-.14c-5.29-5.9-10.95-8.55-16.81-7.9-8.79,1-16.56,9.26-22.42,18-49.68,15.38-81.5-23.43-81.82-23.83l-1.55-1.93-2.4,26.42c-12.07-2.34-35.63-27.56-37-29-10.19-15.94-17.31-23-21.77-21.49-3.56,1.19-4,7.16-4,10.22a21.43,21.43,0,0,1-6.6-6.35c-3.7-5.12-6.92-12.67-9.56-22.45-5.52-20.24-6.82-43.36-6.83-43.59l0-.5-.41-.28a41,41,0,0,1-14.84-17c-6.76-14.82-2.36-31.31.87-39.83,2-5.42,3.71-9.08,3.73-9.12,5.28-11.48,13.51-21.61,23.75-32.92,6.31-7,11.31-15.63,15.72-23.25,5-8.57,9.61-17.36,13.79-26.23-.7,1.49-.55,4.1-.72,5.74-.21,2.07-.36,4.15-.43,6.23A63.25,63.25,0,0,0,143,41.73c1.65,9.61,7.46,17,12.59,24.94,2.28,3.55,4.66,7.06,7.28,10.37,2.43,3.07,5.44,7,9.27,8.44a4.86,4.86,0,0,0,3.42.15c5.76-2.08,4.61-17.92,3.66-25.79,29.25,41.64,38,44,42,42.09,6.4-3.07,2.24-22.59-.25-32.2,10,12.74,18.68,19.38,24,18.33a4.78,4.78,0,0,0,3.75-3.8c1.53-6-3.48-17.86-15.77-28-20.78-17.14-16-37.64-13.39-45,1.76,6.22,7.22,21.59,22.16,41.79A157.26,157.26,0,0,0,259,72.48c11.48,11.4,22.32,22.15,34.9,56.54,14.19,38.81,28.93,41.72,33,41.72h0c.13.82.24,1.7.36,2.62,1.1,8.59,2.77,21.56,17.28,25.7,15.26,4.35,25.38,34.3,25.48,34.61l.09.18c4.32,7.52-1.16,27.51-1.21,27.71l-.05.17v.18C370.74,282.66,357.74,300,352.83,305.71Z" style="fill:#fff"/></g></g></svg>