<svg xmlns="http://www.w3.org/2000/svg" viewBox="0 0 378.41 261.09"><defs><style>.cls-1{fill:#df0b13;}.cls-2{fill:#fff;}</style></defs><title>Bugbear</title><g id="Layer_2" data-name="Layer 2"><g id="Layer_1-2" data-name="Layer 1"><path class="cls-1" d="M265.43,8.09C258.3,21.37,250.8,36.41,237.93,45c-8.58,5.71-18.44,9.15-27,14.89C200.69,66.79,196,73.06,189.19,81c-6.79-8-11.53-14.22-21.75-21.13-8.59-5.74-18.44-9.18-27-14.89-12.88-8.58-20.38-23.62-27.5-36.9,0,0-10.49,29.07,19.55,47.65a158.09,158.09,0,0,1,18.47,13.62l-1.64-1.57,3.13,2.88c16.35,14,30.74,30.56,36.75,37.84,6-7.28,20.39-23.89,36.73-37.84l20-14.93C275.92,37.16,265.43,8.09,265.43,8.09Z"/><path class="cls-2" d="M189.18,110.86l-1.16-1.4c-5.42-6.56-19.82-23.36-36.56-37.65L150,70.47l0,0A155.85,155.85,0,0,0,131.68,57C101,38,111.4,7.88,111.5,7.58l1.15-3.17,2.88,5.38c6.85,12.83,13.93,26.1,25.72,34A122,122,0,0,0,154.5,51a121.51,121.51,0,0,1,13.77,7.6c9.24,6.24,14.15,12,19.82,18.75l1.1,1.3,1-1.18c5.69-6.76,10.6-12.6,19.89-18.87A123.26,123.26,0,0,1,223.84,51a123.06,123.06,0,0,0,13.26-7.29c11.78-7.86,18.87-21.13,25.72-34l2.88-5.38,1.14,3.17c.11.3,10.53,30.4-20.12,49.4L226.81,71.87c-16.64,14.21-31.06,31-36.48,37.59ZM150.31,66.69l3.14,2.87c15.8,13.49,29.55,29.22,35.73,36.6,6.18-7.39,19.94-23.13,35.76-36.63l20.15-15.06c22.52-13.94,21.4-34.12,19.84-42.26-6.57,12.29-14.08,26-26.17,34a122.06,122.06,0,0,1-13.58,7.48,119.55,119.55,0,0,0-13.43,7.41c-8.94,6-13.5,11.45-19.28,18.31L190.34,82l-1.14,1.34L188.05,82l-2.25-2.65c-5.76-6.82-10.31-12.2-19.2-18.2a120.43,120.43,0,0,0-13.43-7.41,122.06,122.06,0,0,1-13.58-7.48C127.48,38.17,120,24.45,113.38,12.15c-1.66,8.09-3,28.18,19.88,42.32a154.6,154.6,0,0,1,17,12.33Z"/><path class="cls-1" d="M231.32,95.75c.71.14,1.42.33,2.13.48a4.93,4.93,0,0,0,4.25-.89c6.24-4.59,9.48-21.72,10.64-31.35L235.43,71.9Z"/><path class="cls-2" d="M234.69,97.89a6.81,6.81,0,0,1-1.6-.2L232,97.45l-1-.24-1.41-.29L234.06,71l16.14-9.89-.37,3.08c-.75,6.2-3.76,26.87-11.24,32.37A6.54,6.54,0,0,1,234.69,97.89ZM233,94.6l.72.16a3.48,3.48,0,0,0,3.07-.64c4.71-3.47,8-16.19,9.61-27.21l-9.65,5.91Z"/><path class="cls-1" d="M142.51,38.16a125.58,125.58,0,0,0,13,7.17,119.54,119.54,0,0,1,14,7.72,89.36,89.36,0,0,1,19.68,18.13,88.49,88.49,0,0,1,19.69-18.13,120.23,120.23,0,0,1,14-7.72,125.75,125.75,0,0,0,13-7.17A51.63,51.63,0,0,0,248.23,26c-24-12.69-52-13.18-58.59-13h-.93c-6.57-.15-34.56.34-58.59,13A51.27,51.27,0,0,0,142.51,38.16Z"/><path class="cls-2" d="M189.17,73.51,188,72.14C182.28,65.32,177,60,168.65,54.3a115,115,0,0,0-13.53-7.48l-.69-.35a124.71,124.71,0,0,1-12.75-7h0a52.67,52.67,0,0,1-12.76-12.47l-1.06-1.41,1.56-.82c25.66-13.55,56-13.27,59.32-13.2h.9c3.34-.08,33.62-.35,59.29,13.2l1.56.82-1.07,1.41a52.64,52.64,0,0,1-12.75,12.47,123.09,123.09,0,0,1-12.76,7.07l-.68.34A115,115,0,0,0,209.7,54.3c-8.36,5.59-13.61,11-19.39,17.84ZM143.34,36.92a122.73,122.73,0,0,0,12.44,6.88l.67.33a117.24,117.24,0,0,1,13.88,7.68,89,89,0,0,1,18.83,17,88.94,88.94,0,0,1,18.86-17,117.24,117.24,0,0,1,13.88-7.68l.65-.33A120.15,120.15,0,0,0,235,36.91a48.34,48.34,0,0,0,10.93-10.36c-24.64-12.37-53-12.11-56.27-12h-1c-3.25-.07-31.66-.33-56.3,12A48.42,48.42,0,0,0,143.34,36.92Z"/><path class="cls-1" d="M140.64,95.34a5,5,0,0,0,4.26.89c.71-.15,1.41-.34,2.12-.48l-4.1-23.85L130,64C131.16,73.62,134.41,90.75,140.64,95.34Z"/><path class="cls-2" d="M143.66,97.89a6.55,6.55,0,0,1-3.9-1.34h0c-7.47-5.5-10.49-26.17-11.23-32.37l-.37-3.08L144.28,71l4.47,25.94-1.42.29-1,.24-1.1.25A6.38,6.38,0,0,1,143.66,97.89Zm-2.13-3.77a3.44,3.44,0,0,0,3,.66l.77-.18-3.74-21.78-9.65-5.91C133.51,77.92,136.8,90.64,141.53,94.12Z"/><path class="cls-1" d="M205.2,104.55H205c-2.46,0-9.29,8.7-15.82,19.93-6.57-11.23-13.4-19.93-15.86-19.93h-.18c-.3.08-1.12,1.08-1.35,4.82-.37,5.56,1,9.85,4.14,12.83,3.33,3.21,9.5,4.48,13.24,4.89,3.73-.41,9.9-1.68,13.22-4.89,3.1-3,4.52-7.27,4.14-12.83C206.32,105.63,205.5,104.63,205.2,104.55Z"/><path class="cls-2" d="M189.18,128.6l-.17,0c-2.92-.32-10.16-1.48-14.11-5.3-3.45-3.32-5-8-4.6-14,.23-3.74,1.06-5.82,2.48-6.17l.55,0c4.15,0,12.36,12.74,15.86,18.5,3.48-5.77,11.65-18.5,15.82-18.5l.55,0c1.42.35,2.26,2.43,2.48,6.18.4,6-1.14,10.68-4.6,14-3.95,3.82-11.18,5-14.1,5.3Zm-15.39-22.32a13.4,13.4,0,0,0-.49,3.18c-.34,5.06.9,9,3.69,11.66s8.17,3.88,11,4.31l-.11-.19C181,113.44,175.73,107.5,173.79,106.28Zm30.76,0c-1.88,1.17-7.17,7.11-14.06,19l-.11.19c2.86-.43,8.16-1.57,11-4.29s4-6.61,3.69-11.66A13.07,13.07,0,0,0,204.55,106.27Z"/><path class="cls-1" d="M230.28,95.48l-3.47-16.71L213.75,91C217,91.94,222.67,93.62,230.28,95.48Z"/><path class="cls-2" d="M232.23,97.51l-2.31-.57c-5.72-1.4-11.15-2.88-16.61-4.54l-2.49-.75,16.91-15.8Zm-15.55-7.23c3.84,1.12,7.68,2.17,11.64,3.17l-2.44-11.77Z"/><path class="cls-1" d="M148.07,95.48c7.61-1.86,13.32-3.54,16.53-4.51l-13.06-12.2Z"/><path class="cls-2" d="M146.12,97.51l4.49-21.66,16.92,15.8-2.5.75c-5.45,1.66-10.89,3.14-16.6,4.54Zm6.34-15.83L150,93.45c4-1,7.81-2,11.64-3.17Z"/><path class="cls-1" d="M351.48,12c-4.4,1.64-9.21,5.43-14.44,7.26C316.56,26.58,291.78,36.45,271.78,40A48.2,48.2,0,0,1,256.1,61.38c-.74,8.24-3.77,32.5-14,40a12.76,12.76,0,0,1-10.3,2.2c-9.37-2.2-16.35-4.21-20-5.37-.38.41-.75.86-1.16,1.23,1.72,1.72,3.06,4.63,3.36,9.52.48,7.84-1.68,14.1-6.42,18.66-5.45,5.22-12.91,6.71-18.17,7H189c-5.26-.3-12.73-1.75-18.21-7-4.74-4.56-6.91-10.82-6.42-18.66.3-4.89,1.68-7.8,3.32-9.52l-1.12-1.23c-3.66,1.16-10.64,3.17-19.93,5.34a12.28,12.28,0,0,1-10.37-2.17c-10.26-7.5-13.29-31.94-14-40A48.25,48.25,0,0,1,106.57,40C86.38,36.41,57.61,25.09,37,17.77,20.82,11.84,5.59,3.68,4.77,3.39c5,5.93,10.15,11.68,15.56,17.27,2.58,2.69,5.11,5.26,7.84,7.62A53.18,53.18,0,0,0,35.86,34,50.27,50.27,0,0,1,49.48,46.82c7.09,9.48,12.83,19.89,18.43,30.3,6.42,12,10.34,25.45,24.07,30-2.61,12.83-2,37.87-1.75,35,.37-3.21,2.38-3.88,2.38-3.88S93.17,158.81,94,155a8.31,8.31,0,0,1,2.88-4.3s1,21.83,1.41,16.61,2.39-3.84,2.39-3.84,2.8,14.77,3.25,10.48,3.84-3.32,2.87-1.42.49,13.81,1,9.52,4.26-2.39,4.26-2.39c-2.84,6.2,6.19,25.75,4.77,20.49s4.3-6.64,4.3-6.64c-2.39,3.8,5.22,23.81,5.22,18.1s5.26-1,5.26-1c-1.9,3.35,7.13,21.45,6.2,16.19s4.29-4.29,4.29-4.29c-2.39,4.29,13.8,24.29,11.42,18.58s6.19-7.12,6.19-7.12c-3.32,7.61,16.2,25.71,12.88,20.48s.44-12.87.44-12.87,3.55,10.15,15.3,17.28a1.78,1.78,0,0,0,.41.22v0a2.79,2.79,0,0,0,.3.15.28.28,0,0,1,.15-.08s.08,0,.11.08a3.77,3.77,0,0,0,.71-.41c11.76-7.13,15.3-17.28,15.3-17.28s3.81,7.61.45,12.87S222,241.62,218.64,234c0,0,8.58,1.41,6.19,7.12s13.81-14.29,11.42-18.58c0,0,5.26-.93,4.29,4.29s8.1-12.84,6.2-16.19c0,0,5.26-4.74,5.26,1s7.61-14.3,5.22-18.1c0,0,5.71,1.41,4.29,6.64s7.62-14.29,4.78-20.49c0,0,3.81-1.9,4.25,2.39s1.94-7.61,1-9.52,2.39-2.87,2.88,1.42,3.24-10.48,3.24-10.48,1.91-1.42,2.39,3.84,1.42-16.61,1.42-16.61a8.26,8.26,0,0,1,2.87,4.3c.86,3.8,1.42-16.76,1.42-16.76s2,.67,2.39,3.88c.3,2.87.86-22.17-1.75-35,13.73-4.56,17.65-18,24.07-30,5.59-10.41,11.34-20.82,18.43-30.3a54.32,54.32,0,0,1,8.84-9.4A33.43,33.43,0,0,1,342.49,34c6-3.62,10.71-8.25,15.53-13.29.74-.78,1.49-1.53,2.2-2.31,4.62-4.85,9-9.85,13.36-15C372.87,3.65,364.17,7.27,351.48,12ZM226.66,182.73a67.3,67.3,0,0,1-12.13,33c-9.85-12.5-11.9-20.15-12.31-23.25l2,30.6-6.46-7.91L195.91,230l-6.72-9.52,0,0L182.44,230l-1.87-14.82-6.45,7.91,2-30.6c-.41,3.1-2.46,10.75-12.31,23.25a67.3,67.3,0,0,1-12.13-33v-.15a37.45,37.45,0,0,1,1.19-6.68v0a47.47,47.47,0,0,1,5.26-12.47l9.56,17.24-2.76-26.27-.19-1.83.86,1.08,7,8.59.75-13.92,5.63,10.3,2.58-10.82,4.1,7.46,3.4-14.22h.19l3.39,14.22,4.11-7.46,2.57,10.82,5.64-10.3.74,13.92,7-8.59.86-1.08-.19,1.83-2.76,26.27,9.55-17.24a47.47,47.47,0,0,1,5.26,12.47v0a37.47,37.47,0,0,1,1.2,6.68Z"/><path class="cls-2" d="M189,261.09l-.39-.36a3.38,3.38,0,0,1-.47-.22l-.77-.47a40.14,40.14,0,0,1-14.1-14.51c-.62,2.39-1,5.65.63,8.16.32.49,1.15,1.81.13,2.79-.68.65-1.57.59-2.66-.17-2.24-1.56-13.4-12.51-13.49-20.23a5.72,5.72,0,0,0-3,2.12,2.49,2.49,0,0,0,0,2.35c.2.49.83,2-.33,2.8s-2.36-.25-2.76-.6c-2.07-1.85-10.89-12.78-11.39-18.69a1.72,1.72,0,0,0-.88.41,2.57,2.57,0,0,0-.26,2.1c.1.54.35,2-.83,2.55a1.73,1.73,0,0,1-2.12-.5c-1.56-1.63-6.93-12.59-6.4-17.4a4.59,4.59,0,0,0-1.88-.92h0a3,3,0,0,0-.2,1.32c0,.49,0,2-1.26,2.42a1.88,1.88,0,0,1-2.19-.83c-1.56-1.94-5.05-11.31-5.19-17a3.45,3.45,0,0,0-.71.85,3.42,3.42,0,0,0-.22,2.72c.19.71.51,1.9-.53,2.55l-1,.59-.92-.77c-1.43-1.26-6.82-14.64-5.68-21.39a1,1,0,0,0-.36.09c-.27.15-.47.65-.55,1.38s-.21,1.87-1.31,2.2a1.59,1.59,0,0,1-1.68-.52c-.69-.82-1.27-5.09-1.27-8.39a1.51,1.51,0,0,1-1.28.73c-1.2.06-2,.09-3.88-9.27,0,.16,0,.32-.05.49,0,.59-.19,2.17-1.64,2.17h-.05c-1.57,0-1.85,0-2.53-14.67a2.66,2.66,0,0,0-.1.38c-.36,1.59-1.4,1.68-1.83,1.63-1.38-.14-1.94-.19-2.4-13.58a1.46,1.46,0,0,1-.52.36l-.84.34-.7-.58c-.47-.39-1-.84-.67-14.37a153.77,153.77,0,0,1,1.73-21C79.35,103.91,74.56,94,69.93,84.5c-1.07-2.2-2.17-4.48-3.34-6.67C60.92,67.28,55.25,57,48.27,47.72a48.08,48.08,0,0,0-13.2-12.49,55,55,0,0,1-7.89-5.83c-2.63-2.26-5.07-4.72-7.93-7.7C14,16.25,8.86,10.57,3.62,4.35L0,.05,5.28,2c.23.08.61.27,2,1A294.6,294.6,0,0,0,37.53,16.36c3.78,1.35,7.86,2.83,12.11,4.38,19.15,7,40.85,14.88,57.2,17.81l.85.16.29.81a46.74,46.74,0,0,0,15.2,20.68l.5.4.06.64c.64,7.3,3.52,31.68,13.38,38.89a10.77,10.77,0,0,0,9.17,1.91c10.41-2.42,17.31-4.51,19.8-5.3l.91-.29,2.71,3-1,1c-1.69,1.77-2.66,4.65-2.9,8.57-.46,7.37,1.54,13.25,6,17.49,5.14,4.93,12.22,6.31,17.25,6.59h.37c4.92-.28,12-1.66,17.13-6.6,4.41-4.23,6.42-10.11,6-17.48-.24-4-1.23-6.85-2.92-8.55l-1.11-1.11,1.16-1.06a10.41,10.41,0,0,0,.78-.82l.92-1,.92.29c2.46.78,9.34,2.86,19.89,5.34a11.26,11.26,0,0,0,9.08-2C251,93,254,68.56,254.61,61.24l.06-.64.5-.4a46.74,46.74,0,0,0,15.2-20.68l.29-.81.85-.16c16.19-2.89,35.9-10.08,53.3-16.42,4-1.47,7.95-2.9,11.73-4.24A47.83,47.83,0,0,0,344.32,14,46.7,46.7,0,0,1,351,10.64h0c10-3.78,17.44-6.78,20.61-8.07.83-.33,1.33-.54,1.49-.59l5.35-2-3.69,4.35c-5,5.85-9.21,10.63-13.42,15-.45.51-.95,1-1.46,1.55l-.74.77c-4.52,4.73-9.47,9.67-15.83,13.53a32,32,0,0,0-4.57,3.32,52.59,52.59,0,0,0-8.63,9.17c-7,9.32-12.64,19.57-18.31,30.11-1.17,2.19-2.27,4.46-3.34,6.67-4.64,9.54-9.42,19.4-20.34,23.61a153.74,153.74,0,0,1,1.72,21c.34,13.53-.19,14-.67,14.37l-.69.57-.84-.33a1.46,1.46,0,0,1-.52-.36c-.47,13.39-1,13.44-2.4,13.58-.44.05-1.47,0-1.83-1.64,0-.12-.06-.24-.1-.37-.69,14.63-1,14.64-2.54,14.67h0c-1.46,0-1.59-1.58-1.64-2.18,0-.17,0-.33,0-.48-1.91,9.36-2.68,9.33-3.89,9.27a1.52,1.52,0,0,1-1.28-.74c0,3.31-.58,7.58-1.26,8.4a1.59,1.59,0,0,1-1.68.52c-1.11-.33-1.24-1.54-1.32-2.19s-.27-1.24-.54-1.39a1,1,0,0,0-.35-.09c1.2,6.93-4.58,20.4-5.7,21.39l-.83.74-1-.56c-1.05-.65-.73-1.84-.54-2.55a3.18,3.18,0,0,0-.92-3.57c-.14,5.7-3.64,15.07-5.19,17a1.88,1.88,0,0,1-2.19.83c-1.26-.44-1.26-1.93-1.26-2.42a3,3,0,0,0-.2-1.32h0a4.51,4.51,0,0,0-1.87.92c.52,4.81-4.85,15.77-6.4,17.4a1.75,1.75,0,0,1-2.13.5c-1.17-.59-.92-2-.83-2.54a2.51,2.51,0,0,0-.26-2.11,1.65,1.65,0,0,0-.87-.41c-.5,5.9-9.33,16.84-11.4,18.69-.39.35-1.59,1.42-2.75.6s-.54-2.31-.33-2.8a2.52,2.52,0,0,0,0-2.35,5.75,5.75,0,0,0-3-2.11c-.1,7.72-11.26,18.66-13.49,20.22-1.09.76-2,.82-2.66.17-1-1-.19-2.3.13-2.79,1.61-2.52,1.25-5.79.63-8.17a40.13,40.13,0,0,1-14.34,14.66,5.77,5.77,0,0,1-.89.51l-.18.07-.26.27-.21-.07Zm-15.67-23.32,1.17,3.35c0,.1,3.55,9.76,14.66,16.49l.06,0h0c11.17-6.77,14.68-16.43,14.72-16.53l1.18-3.33,1.58,3.16c.13.26,2.5,5.11,1.88,10,4.29-4.47,10.37-12.58,8.72-16.36l-1.1-2.53,2.72.45c.55.09,5.44,1,7.23,4.22a4.89,4.89,0,0,1,.55,1.53c3.66-4.47,9.23-13.28,8.28-15l-1-1.84,2.07-.37c.32,0,3.17-.5,4.94,1.29a3.66,3.66,0,0,1,.76,1.07c2-4.09,4.39-10.69,3.74-12.05l-.6-1,.9-.8c.8-.72,3.58-3,5.82-2a2.85,2.85,0,0,1,1.38,1.3c1.84-4.42,4.08-12.85,3-14.54l-2-3.14,3.6.89a8.51,8.51,0,0,1,4.81,3.4c1.82-4.89,3.87-12.24,2.53-15.16l-.6-1.32,1.3-.65a5,5,0,0,1,4.33-.12,1.58,1.58,0,0,1,.24.15,19,19,0,0,0,0-5.15,2.62,2.62,0,0,1,.23-2.9,2.53,2.53,0,0,1,2.71-.76,3.2,3.2,0,0,1,1.48,1c.51-2.08,1.1-4.83,1.57-7.31l.11-.58.47-.35a2.45,2.45,0,0,1,2.43-.26l.15.08c.22-3.25.44-7.47.62-11.44l.13-2.81,2.26,1.67a8.9,8.9,0,0,1,1.35,1.27c.22-3.31.43-8.11.55-12.57l.06-2,1.92.64a3.12,3.12,0,0,1,.68.32c.06-7.35-.26-21.2-2-29.72l-.27-1.31,1.26-.42C296.5,102.19,301,93,305.72,83.19c1.08-2.23,2.2-4.53,3.39-6.77,5.73-10.66,11.46-21,18.56-30.5a55.67,55.67,0,0,1,9.09-9.66,35.4,35.4,0,0,1,5-3.6c6-3.66,10.83-8.45,15.21-13l.76-.79c.48-.5.95-1,1.41-1.5,3-3.16,6-6.49,9.34-10.27-3.91,1.56-9.55,3.79-16.43,6.38h0a44.47,44.47,0,0,0-6.19,3.17,51,51,0,0,1-8.28,4.1c-3.77,1.34-7.69,2.77-11.71,4.23-17.21,6.27-36.67,13.37-52.95,16.4a49.58,49.58,0,0,1-15.34,20.79c-1,10.14-4.25,32.9-14.55,40.41A14.21,14.21,0,0,1,231.51,105c-8.77-2.06-15-3.84-18.37-4.86a18.38,18.38,0,0,1,2.36,8.68c.52,8.28-1.8,15-6.87,19.83-5.81,5.57-13.61,7.12-19.13,7.43H189c-5.62-.31-13.44-1.86-19.25-7.43-5.08-4.88-7.39-11.55-6.88-19.83a18.71,18.71,0,0,1,2.36-8.68c-3.36,1-9.61,2.81-18.25,4.82a13.74,13.74,0,0,1-11.59-2.41c-10.61-7.76-13.77-32.11-14.55-40.42a49.6,49.6,0,0,1-15.35-20.79C89,38.26,67.55,30.46,48.61,23.56c-4.24-1.55-8.31-3-12.1-4.38A278.76,278.76,0,0,1,10.72,8c3.55,4,7.08,7.88,10.69,11.61,2.8,2.93,5.19,5.32,7.74,7.52a51.34,51.34,0,0,0,7.48,5.52,51,51,0,0,1,14,13.26c7.1,9.49,12.83,19.84,18.56,30.49,1.2,2.25,2.32,4.55,3.4,6.78,4.74,9.77,9.22,19,19.82,22.51l1.27.42-.27,1.31c-1.73,8.52-2,22.37-2,29.72a3.12,3.12,0,0,1,.68-.32l1.92-.64,0,2c.13,4.46.33,9.26.56,12.57A8,8,0,0,1,96,149.51l2.26-1.67.12,2.81c.18,4,.41,8.19.62,11.44l.16-.08a2.45,2.45,0,0,1,2.43.26l.47.35.11.58c.47,2.48,1,5.23,1.57,7.31a3.31,3.31,0,0,1,1.47-1,2.57,2.57,0,0,1,2.72.77,2.63,2.63,0,0,1,.22,2.92,18.54,18.54,0,0,0,0,5.13,1.58,1.58,0,0,1,.24-.15,5.05,5.05,0,0,1,4.33.12L114,179l-.6,1.32c-1.34,2.92.72,10.27,2.54,15.16a8.5,8.5,0,0,1,4.8-3.4l3.61-.89-2,3.14c-1.06,1.69,1.18,10.12,3,14.54a2.94,2.94,0,0,1,1.38-1.3c2.25-1,5,1.26,5.83,2l.89.81-.59,1c-.65,1.36,1.75,8,3.73,12.05a3.89,3.89,0,0,1,.77-1.07c1.77-1.79,4.62-1.34,4.94-1.29l2.07.37-1,1.84c-1,1.72,4.61,10.53,8.28,15a4.89,4.89,0,0,1,.55-1.53c1.79-3.24,6.68-4.13,7.23-4.22l2.72-.45-1.1,2.53c-1.65,3.78,4.43,11.89,8.71,16.36-.62-4.91,1.76-9.76,1.89-10ZM253.52,212Zm-72.09,22-1.91-15.19-7.21,8.84,1.61-24.52A84.6,84.6,0,0,1,165,216.65l-1.22,1.55-1.16-1.59a68.71,68.71,0,0,1-12.42-33.76v-.39a39.27,39.27,0,0,1,1.2-6.78l0-.19a48.81,48.81,0,0,1,5.43-12.86l1.34-2.23,7.23,13.06-2.69-25.87,4,5.1,4.55,5.57.82-15.32,6.3,11.51L181,143.64l4.11,7.46,2.77-11.59h2.48l.35,1.15,2.49,10.44,4.11-7.46,2.57,10.81,6.29-11.51.82,15.32,5.41-6.65,3.19-4-.71,6.93-2,18.94,7.24-13.06,1.34,2.23a48.67,48.67,0,0,1,5.43,12.86l0,.22a38,38,0,0,1,1.19,6.75v.39a68.6,68.6,0,0,1-12.41,33.76l-1.17,1.59-1.22-1.55a86,86,0,0,1-8.93-13.51L206,227.66l-7.21-8.84L196.91,234l-7.75-11Zm7.51-15.89,1.48,1.47L194.9,226l1.82-14.45,5.71,7-1.71-25.92,3-.3c.34,2.52,2.06,9.46,10.77,20.93a66,66,0,0,0,10.69-30.53v0A36.28,36.28,0,0,0,224,176.3l-.06-.24a44.81,44.81,0,0,0-3.75-9.58l-11.82,21.34,3.19-30.41-7.15,8.75-.67-12.52-5,9.09-2.58-10.84-4.1,7.46-2.94-12.27-2.93,12.27-4.1-7.46-2.58,10.84-5-9.09-.67,12.52-7.15-8.75,3.2,30.41-11.83-21.34a45.55,45.55,0,0,0-3.75,9.58h0l0,.23a36.28,36.28,0,0,0-1.14,6.35v0a66,66,0,0,0,10.68,30.53c8.72-11.47,10.44-18.41,10.77-20.93l3,.3-1.71,25.92,5.7-7,1.82,14.44Z"/></g></g></svg>