<svg xmlns="http://www.w3.org/2000/svg" viewBox="0 0 378.4 261.08"><defs><style>.cls-1{fill:#df0b13;stroke:#fff;stroke-miterlimit:10;stroke-width:3px;}</style></defs><title>Bugbear</title><g id="Layer_2" data-name="Layer 2"><g id="Layer_1-2" data-name="Layer 1"><path class="cls-1" d="M265.43,8.08C258.3,21.36,250.8,36.4,237.93,45c-8.59,5.71-18.44,9.14-27,14.89-10.23,6.9-15,13.17-21.72,21.12-6.79-8-11.53-14.22-21.76-21.12-8.58-5.75-18.43-9.18-27-14.89C127.54,36.4,120,21.36,112.91,8.08c0,0-10.48,29.07,19.56,47.65a159.24,159.24,0,0,1,18.47,13.62l-1.64-1.56,3.13,2.87c16.35,14,30.74,30.56,36.75,37.84,6-7.28,20.39-23.88,36.73-37.84l20-14.93C275.92,37.15,265.43,8.08,265.43,8.08Z"/><path class="cls-1" d="M231.32,95.74l2.13.48a4.9,4.9,0,0,0,4.25-.89c6.24-4.59,9.48-21.72,10.64-31.35l-12.91,7.91Z"/><path class="cls-1" d="M142.51,38.16a126.38,126.38,0,0,0,13,7.16,119.63,119.63,0,0,1,14,7.73,89,89,0,0,1,19.67,18.12,88.75,88.75,0,0,1,19.7-18.12,120.32,120.32,0,0,1,14-7.73,127.61,127.61,0,0,0,13-7.16A51.86,51.86,0,0,0,248.23,26c-24-12.69-52-13.17-58.59-13h-.93c-6.57-.14-34.56.34-58.59,13A51.49,51.49,0,0,0,142.51,38.16Z"/><path class="cls-1" d="M140.64,95.33a4.91,4.91,0,0,0,4.26.89c.7-.15,1.41-.33,2.12-.48l-4.1-23.85L130,64C131.16,73.61,134.41,90.74,140.64,95.33Z"/><path class="cls-1" d="M205.2,104.54H205c-2.46,0-9.29,8.7-15.82,19.93-6.57-11.23-13.4-19.93-15.86-19.93h-.19c-.29.08-1.12,1.09-1.34,4.82-.37,5.56,1,9.85,4.14,12.84,3.32,3.2,9.5,4.47,13.23,4.88,3.74-.41,9.91-1.68,13.23-4.88,3.1-3,4.52-7.28,4.14-12.84C206.32,105.63,205.5,104.62,205.2,104.54Z"/><path class="cls-1" d="M230.28,95.48l-3.47-16.72L213.75,91C217,91.93,222.66,93.61,230.28,95.48Z"/><path class="cls-1" d="M148.07,95.48c7.61-1.87,13.32-3.55,16.53-4.52l-13.06-12.2Z"/><path class="cls-1" d="M351.48,12c-4.4,1.65-9.21,5.43-14.44,7.26C316.55,26.57,291.78,36.44,271.77,40A48.1,48.1,0,0,1,256.1,61.37c-.75,8.25-3.77,32.5-14,40a12.8,12.8,0,0,1-10.3,2.21c-9.37-2.21-16.35-4.22-20-5.38a16.73,16.73,0,0,1-1.15,1.23c1.71,1.72,3.06,4.63,3.36,9.52.48,7.84-1.68,14.11-6.42,18.66-5.45,5.22-12.91,6.72-18.18,7H189c-5.26-.29-12.73-1.75-18.21-7-4.74-4.55-6.91-10.82-6.42-18.66.3-4.89,1.68-7.8,3.32-9.52l-1.12-1.23c-3.66,1.16-10.64,3.17-19.93,5.34a12.28,12.28,0,0,1-10.37-2.17c-10.26-7.5-13.29-31.94-14-40A48.25,48.25,0,0,1,106.57,40C86.38,36.4,57.61,25.08,37,17.76,20.81,11.83,5.59,3.68,4.77,3.38c5,5.93,10.15,11.68,15.56,17.27,2.57,2.69,5.11,5.27,7.84,7.62a52.54,52.54,0,0,0,7.68,5.67A50,50,0,0,1,49.47,46.81c7.1,9.48,12.84,19.89,18.44,30.31,6.42,12,10.34,25.45,24.07,30-2.61,12.84-2,37.88-1.75,35,.37-3.21,2.38-3.88,2.38-3.88S93.17,158.8,94,155a8.26,8.26,0,0,1,2.88-4.29s1,21.83,1.41,16.6,2.39-3.84,2.39-3.84,2.8,14.78,3.25,10.48,3.84-3.32,2.87-1.41.49,13.8,1,9.51,4.26-2.39,4.26-2.39c-2.84,6.2,6.19,25.75,4.77,20.49s4.29-6.64,4.29-6.64c-2.38,3.81,5.23,23.81,5.23,18.1s5.26-1,5.26-1c-1.9,3.36,7.13,21.45,6.19,16.19s4.3-4.29,4.3-4.29c-2.39,4.29,13.8,24.29,11.42,18.59s6.19-7.13,6.19-7.13c-3.32,7.61,16.2,25.71,12.87,20.49s.45-12.88.45-12.88,3.55,10.15,15.3,17.28a1.34,1.34,0,0,0,.41.22v0a2.79,2.79,0,0,0,.3.15.28.28,0,0,1,.15-.08s.08,0,.11.08a4.11,4.11,0,0,0,.71-.41c11.76-7.13,15.3-17.28,15.3-17.28s3.81,7.61.45,12.88S222,241.61,218.63,234c0,0,8.59,1.42,6.2,7.13s13.81-14.3,11.42-18.59c0,0,5.26-.93,4.29,4.29s8.1-12.83,6.19-16.19c0,0,5.27-4.74,5.27,1s7.61-14.29,5.22-18.1c0,0,5.71,1.42,4.29,6.64s7.61-14.29,4.78-20.49c0,0,3.8-1.9,4.25,2.39s1.94-7.61,1-9.51,2.39-2.88,2.88,1.41,3.24-10.48,3.24-10.48,1.91-1.42,2.39,3.84,1.42-16.6,1.42-16.6a8.21,8.21,0,0,1,2.87,4.29c.86,3.8,1.42-16.76,1.42-16.76s2,.67,2.39,3.88c.3,2.88.86-22.16-1.76-35,13.74-4.55,17.66-18,24.07-30,5.6-10.42,11.35-20.83,18.44-30.31a53.94,53.94,0,0,1,8.84-9.4,33.43,33.43,0,0,1,4.78-3.47c6-3.62,10.71-8.25,15.52-13.29.75-.78,1.5-1.53,2.21-2.31,4.62-4.85,9-9.85,13.36-15C372.87,3.64,364.17,7.26,351.48,12ZM226.66,182.72a67.3,67.3,0,0,1-12.13,33c-9.85-12.5-11.91-20.15-12.32-23.25l2,30.6-6.46-7.91L195.91,230l-6.72-9.52,0,0L182.44,230l-1.87-14.82-6.46,7.91,2-30.6c-.41,3.1-2.46,10.75-12.32,23.25a67.29,67.29,0,0,1-12.12-33v-.15a36.88,36.88,0,0,1,1.19-6.68v0a47.47,47.47,0,0,1,5.26-12.47l9.56,17.24-2.77-26.27-.18-1.83.86,1.09,7,8.58.75-13.92,5.63,10.3,2.58-10.82,4.1,7.46,3.4-14.22h.19l3.39,14.22,4.11-7.46,2.57,10.82,5.64-10.3.74,13.92,7-8.58.86-1.09-.19,1.83-2.76,26.27,9.55-17.24a47.47,47.47,0,0,1,5.26,12.47v0a37.79,37.79,0,0,1,1.2,6.68Z"/></g></g></svg>