<svg xmlns="http://www.w3.org/2000/svg" viewBox="0 0 365.9 219.31"><title>Bulette</title><g id="b8e0f457-cf25-4b38-9818-0c5ff33955f9" data-name="Layer 2"><g id="abb1edab-41b3-43eb-9133-d21bbcf40672" data-name="Layer 1"><path d="M236.69,47.78s62.36,42.34,52.11,80.12C281.62,154.34,119.66,206.37,25.92,144L5.35,136.57l55.31-21-3.35-11.3,22.6,14.64s13.81-.83,18.41-11.3c0,0,37.25,28.88,56.5-25.94Z" style="fill:#591f21"/><path d="M138.41,174.45c-44.8,0-83.79-10.19-112.94-29.54l-23-8.31,57-21.65-3.86-13,24.58,15.94c2-.21,13.32-1.76,17.25-10.68l.51-1.17,1,.78c.14.11,14.06,10.69,28.81,6.33,11.08-3.27,19.87-14,26.13-31.81l.15-.42L236.8,46.65l.45.3c2.57,1.74,62.83,43.18,52.51,81.22-2.18,8-17.42,18.05-40.77,26.83-31.92,12-71.15,19.08-107.63,19.44ZM8.23,136.55l18.25,6.63c70.89,47.15,176.08,27.13,221.8,9.95,22.42-8.43,37.57-18.19,39.55-25.49,9.5-35-45.73-74.85-51.26-78.73l-81,33.5c-6.48,18.23-15.67,29.22-27.32,32.65-13.57,4-26-3.5-29.59-6C93.49,119,80.54,119.87,80,119.9l-.33,0L59,106.57l2.84,9.59Z" style="fill:#fff"/><path d="M359.39,116.39c-11.51-10.71-3.48-33-2.6-35.37-.32.57-2,1.72-10.8-5.64C335.53,66.59,273.18-9.16,138.84,2.15c0,0-75.75,0-80.76,35.57l8.79-4.18s8.79,2.92,14.64,1.67,6.7,12.13,6.7,12.13l12.13-2.09,11.3,4.18,1.68,19.67L128,65.34,128.8,75l10-5.44L143.45,90l14.64-5.44L160.18,93,171.06,90l3.78,15.06,21.34-8s2.5,14.65,31.38-1.26c0,0,34.74-26.36,60.68,11.72L292,103s31.38,23.43,37.67,57.75c0,0,7.94-36,30.13-31.38C359.81,129.37,371.52,127.69,359.39,116.39Zm-227.67-77-7.1-3s27.61-13.78,33.89,5.89C158.51,42.33,139.26,52,131.72,39.39Z" style="fill:#b4c0d8"/><path d="M329.58,165.8l-.89-4.87c-5.59-30.57-31.74-52.71-36.53-56.54l-4,4.88-.75-1.11c-7.73-11.35-17-18-27.59-19.71-16.92-2.76-31.51,8.12-31.66,8.23l-.12.08c-12.76,7-22.21,9.17-28.06,6.34a8.7,8.7,0,0,1-4.44-4.66l-21.4,8-3.8-15.16-10.88,2.93-2.07-8.28-14.66,5.46L138.16,71l-10.23,5.54-.86-10-14.64,3.76L110.7,50.15l-10.45-3.87-13,2.24-.07-1.12c-.15-2.36-1.08-8.9-3.57-10.79a2.21,2.21,0,0,0-1.92-.42c-5.41,1.16-13-1-14.78-1.58L56.83,39.42l.26-1.84c5.08-36,78.62-36.43,81.75-36.43,52-4.37,99.35,3.73,140.75,24.11a236.05,236.05,0,0,1,62.86,45.38c1.81,1.78,3.25,3.19,4.18,4C354.28,81,356,80.44,356,80.43a.43.43,0,0,0-.1.1l1.81.85c-.37,1-8.9,23.82,2.34,34.28h0c4.66,4.34,6.5,7.82,5.61,10.65-1,3.34-5.54,4-5.73,4.05l-.18,0-.17,0c-21-4.36-28.87,30.27-29,30.62Zm-37.74-64.17.77.57c.3.23,29.33,22.22,37.19,54.36,2.91-9.38,11.87-31.82,30-28.21.68-.13,3.37-.77,4-2.64.42-1.37-.11-4-5.07-8.59-10.58-9.84-5.49-28.64-3.46-34.73-2.09-.36-5.35-2.42-9.9-6.24-1-.84-2.38-2.2-4.3-4.08C287.54,19.55,219.54-3.63,138.93,3.15c-.82,0-72.29.39-79.52,32.83l7.39-3.52.38.13c.09,0,8.61,2.83,14.12,1.64a4.23,4.23,0,0,1,3.55.79c3,2.3,4,8.52,4.26,11.15l11.33-2,12.14,4.49,1.64,19.13,14.64-3.77.8,9.29L139.53,68l4.65,20.69,14.61-5.44,2.12,8.47,10.87-2.93,3.75,15,21.43-8,.2,1.19a6.53,6.53,0,0,0,3.73,4.35C204.5,103,212,103.32,227,95c1.2-.9,15.73-11.4,33.12-8.57,10.79,1.76,20.26,8.31,28.16,19.47ZM144.19,46.8c-4.92,0-9.95-1.53-13.15-6.61l-8.83-3.67,2-1c.65-.32,16-7.89,26.76-3.37,4.13,1.75,7,5.06,8.53,9.85l.26.82-.76.38C158.84,43.28,151.65,46.8,144.19,46.8Zm-17-10.4,5.26,2.19.17.28c6.14,10.23,21.08,4.5,24.69,2.92A12.88,12.88,0,0,0,150.15,34C142.48,30.78,131.65,34.54,127.15,36.4Z" style="fill:#fff"/><path d="M289.54,125.57s-27.62-41-84.53-2.09L200.4,135.2l-15.06-7.12.84,15.49s-6.28,16.74-23,13.81-38.92-23.44-38.92-23.44l1.68,21.76-18.84-13-3.34,10-10-7.53-2.51,7.12L67.33,133.94,64.4,144.4S20,142.73,7.9,138.13c0,0,22.6,15.06,45.2,20.08,0,0,56.08,72.82,138.1,58.17S289.54,125.57,289.54,125.57Z" style="fill:#b4c0d8"/><path d="M169.6,219.31c-33,0-60.38-13.28-78.77-25.69a183,183,0,0,1-38.3-34.51C30.13,154,7.58,139.11,7.35,139L0,134.06l8.26,3.13c11,4.16,49.39,5.93,55.39,6.18l3.11-11.13L90.7,150.72l2.5-7.1,10,7.52,3.33-10,18.2,12.54-1.71-22.21,1.87,1.73c.22.2,22.16,20.34,38.41,23.18,14.8,2.61,21.1-11.22,21.84-13l-.92-16.94,15.61,7.38,4.33-11,.25-.17c20.32-13.89,39.22-19.29,56.18-16A48.41,48.41,0,0,1,290.37,125l.24.36-.09.41c0,.2-4.29,19.48-18.57,40.27-13.18,19.2-37.87,43.69-80.58,51.32A124.21,124.21,0,0,1,169.6,219.31ZM14.19,140.81c8.12,4.75,23.71,13,39.13,16.43l.35.08.22.28A179.24,179.24,0,0,0,92,192c22,14.81,57,30.9,99,23.4s66.27-31.56,79.24-50.42a126.3,126.3,0,0,0,18.2-39.19,47.49,47.49,0,0,0-28.25-17.22c-16.35-3.11-34.64,2.13-54.38,15.56l-4.89,12.43-14.51-6.86.76,14-.08.2c-.06.17-6.76,17.48-24.12,14.44-14.2-2.48-31.83-17-37.56-22l1.64,21.38-19.46-13.41-3.36,10.1-10.07-7.55L91.67,154,67.89,135.64l-2.74,9.79-.79,0C62.79,145.35,30.8,144.1,14.19,140.81Z" style="fill:#fff"/></g></g></svg>