<svg xmlns="http://www.w3.org/2000/svg" viewBox="0 0 246.28 202.8"><title>Bullywug</title><g id="b14b8b33-ddc2-43ce-9848-fb9048a6681b" data-name="Layer 2"><g id="bfdda7ca-c1ba-46bd-b3b1-3f312f77b8b8" data-name="Layer 1"><path d="M212.43,33a7.22,7.22,0,0,1,6.93,5.19h13.95a21,21,0,0,0-41.73,0h13.93A7.24,7.24,0,0,1,212.43,33Zm0,14.48a7.18,7.18,0,0,1-6.92-5.19H191.58a21,21,0,0,0,41.73,0H219.36A7.18,7.18,0,0,1,212.43,47.5Z" style="fill:#efdc2b"/><path d="M212.43,61.71a21.37,21.37,0,0,1-21.35-19.35l-.05-.55h14.85l.11.36a6.72,6.72,0,0,0,12.89,0l.1-.36h14.88l-.05.55A21.39,21.39,0,0,1,212.43,61.71Zm-20.29-18.9a20.47,20.47,0,0,0,40.61,0h-13a7.72,7.72,0,0,1-14.59,0Zm41.72-4.1H219l-.11-.36a6.72,6.72,0,0,0-12.89,0l-.11.36H191l.05-.55a21.47,21.47,0,0,1,42.73,0Zm-14.13-1h13a20.47,20.47,0,0,0-40.61,0h13a7.72,7.72,0,0,1,14.59,0Z" style="fill:#fff"/><path d="M40.78,38.21H54.7a21,21,0,0,0-41.73,0h14a7.22,7.22,0,0,1,13.86,0Zm-13.86,4.1H13a21,21,0,0,0,41.73,0H40.78a7.22,7.22,0,0,1-13.86,0Z" style="fill:#efdc2b"/><path d="M33.85,61.71A21.37,21.37,0,0,1,12.48,42.36l-.06-.55H27.3l.1.36a6.72,6.72,0,0,0,12.9,0l.1-.36H55.25l0,.55A21.37,21.37,0,0,1,33.85,61.71ZM13.53,42.81a20.47,20.47,0,0,0,40.61,0h-13a7.71,7.71,0,0,1-14.58,0Zm41.72-4.1H40.4l-.1-.36a6.72,6.72,0,0,0-12.9,0l-.1.36H12.42l.06-.55a21.46,21.46,0,0,1,42.72,0Zm-14.11-1h13a20.47,20.47,0,0,0-40.61,0h13a7.71,7.71,0,0,1,14.58,0Z" style="fill:#fff"/><path d="M234.68,85.3c-.92-1.21-11.75-11.7-19.14-16.56a27.55,27.55,0,0,1-5.57.54,29.83,29.83,0,0,1-3.72-59.42c-12.29-9.25-31-12.55-42-3.75-5.48,4.4-7.9,11.42-13.45,15.79s-12.74,6.32-19.4,7.67a81.61,81.61,0,0,1-8.21,1.28,82.45,82.45,0,0,1-8.23-1.28c-6.66-1.35-14-3.42-19.4-7.67s-8-11.39-13.45-15.79C71-2.69,52.32.61,40,9.86a29.83,29.83,0,0,1-3.72,59.42,27.62,27.62,0,0,1-5.57-.54C23.35,73.6,12.52,84.09,11.6,85.3c-24.76,32.9-2.36,73.78,28,93.93C56.76,190.6,76.77,196.73,97,199.75c1.61.24,17.4,1.5,25.46,2.05h.26c2.73-.14,7.49-.31,10.07-.48,8-.56,14.94-1.33,16.55-1.57,20.21-3,40.21-9.15,57.35-20.52C237.05,159.08,259.44,118.2,234.68,85.3ZM142.24,96.4s8.64,13.54-.41,16-12.74-4.1-12.74-4.1C130.34,107.89,142.24,96.4,142.24,96.4Zm-36,0s11.92,11.49,13.15,11.9c0,0-3.69,6.59-12.74,4.1S106.26,96.4,106.26,96.4Zm117.8,49.94c-3.45,3.09-8.52,5.21-12.84,6.81-13.54,5-24.62-1.45-38.54-2.88a67.1,67.1,0,0,0-31.38,2.44L134.69,156a39.61,39.61,0,0,1-11.54,3.47A39.56,39.56,0,0,1,111.59,156L105,152.71a67.1,67.1,0,0,0-31.38-2.44c-13.92,1.43-25,7.85-38.54,2.88-4.32-1.6-9.39-3.72-12.84-6.81-2.51-2.22-2.78-6.47,1.57-6.88l51.29-4.83a66.53,66.53,0,0,1,27.68,3.21l10.38,3.53a55.29,55.29,0,0,0,10,1.83h0a56.27,56.27,0,0,0,10-1.83l10.38-3.53a66.53,66.53,0,0,1,27.68-3.21l51.29,4.83C226.84,139.87,226.57,144.12,224.06,146.34Z" style="fill:#bdbd4d"/><path d="M122.55,202.8h-.19c-8.28-.57-23.88-1.81-25.54-2.06-22.77-3.4-42.2-10.36-57.75-20.67C18.93,166.71,4.27,145.89.81,125.74a52.1,52.1,0,0,1,10-41c1-1.26,12-11.92,19.39-16.79l.34-.23.41.08a27,27,0,0,0,5.37.52,28.83,28.83,0,0,0,3.6-57.43l-2.46-.3,2-1.49C51.56-.07,71.06-4,82.7,5.33a36.45,36.45,0,0,1,6.84,8c2,2.89,3.91,5.63,6.6,7.74,5.58,4.35,13.08,6.29,19,7.48,2.66.55,5.36,1,8,1.26a80,80,0,0,0,8-1.26c5.91-1.19,13.41-3.13,19-7.48,2.68-2.11,4.58-4.85,6.59-7.74a36.72,36.72,0,0,1,6.84-8C175.22-4,194.72-.07,206.85,9.06l2,1.49-2.46.3A28.83,28.83,0,0,0,210,68.28a27,27,0,0,0,5.37-.52l.41-.08.34.23c7.42,4.87,18.43,15.53,19.39,16.79h0a52.09,52.09,0,0,1,10,41c-3.46,20.15-18.12,41-38.26,54.33-15.55,10.31-35,17.27-57.75,20.67-1.8.27-8.74,1-16.63,1.58-1.55.1-3.88.2-6.08.29l-4,.19ZM31,69.8C23.71,74.66,13.31,84.71,12.4,85.91A49.44,49.44,0,0,0,2.78,125.4c3.37,19.63,17.7,39.94,37.39,53,15.31,10.15,34.46,17,56.94,20.36,1.59.24,17.33,1.49,25.39,2h.19c1-.06,2.49-.12,4-.18,2.19-.1,4.5-.2,6-.3,8-.55,14.93-1.33,16.48-1.56,22.48-3.36,41.63-10.21,56.94-20.36,19.69-13.06,34-33.37,37.39-53a49.48,49.48,0,0,0-9.62-39.5c-.92-1.2-11.3-11.24-18.55-16.1a28.88,28.88,0,0,1-5.36.48,30.83,30.83,0,0,1-6.29-61C192.11,1.61,175.11-1.31,164.83,6.9a34.26,34.26,0,0,0-6.44,7.61,36.19,36.19,0,0,1-7,8.18c-5.92,4.61-13.7,6.62-19.82,7.86a83.52,83.52,0,0,1-8.3,1.3h-.21c-2.77-.29-5.58-.73-8.33-1.3-6.12-1.24-13.9-3.25-19.82-7.86a36.19,36.19,0,0,1-7-8.18A34.26,34.26,0,0,0,81.45,6.9C71.17-1.31,54.16,1.61,42.6,9.26a30.83,30.83,0,0,1-6.29,61A28.88,28.88,0,0,1,31,69.8Zm92.2,90.7-.14,0a40.22,40.22,0,0,1-11.87-3.57l-6.54-3.27a66,66,0,0,0-30.84-2.38,101.6,101.6,0,0,0-12.64,2.36c-8.71,2-16.93,3.94-26.4.46-4.23-1.56-9.55-3.76-13.17-7a5.76,5.76,0,0,1-1.94-5.78c.31-.94,1.25-2.57,4.08-2.83.17,0,39.3-3.7,51.29-4.83a67.72,67.72,0,0,1,28.1,3.26l10.38,3.52a54.54,54.54,0,0,0,9.69,1.78,55.11,55.11,0,0,0,9.67-1.78l10.38-3.52a67.55,67.55,0,0,1,28.1-3.26c12,1.13,51.12,4.8,51.32,4.83,2.8.26,3.74,1.89,4,2.84a5.75,5.75,0,0,1-1.94,5.77h0c-3.62,3.24-8.94,5.44-13.16,7-9.48,3.48-17.7,1.57-26.41-.46a100.87,100.87,0,0,0-12.58-2.35,66.08,66.08,0,0,0-30.9,2.37l-6.54,3.27a40.42,40.42,0,0,1-11.84,3.57ZM84.23,148.42a67.81,67.81,0,0,1,21.06,3.34l.14.06,6.61,3.3a37.85,37.85,0,0,0,11.11,3.36,38.23,38.23,0,0,0,11.09-3.36l6.75-3.36a68.17,68.17,0,0,1,31.85-2.47,100,100,0,0,1,12.77,2.38c8.41,2,16.35,3.81,25.27.54,4.06-1.5,9.15-3.61,12.51-6.62h0a3.78,3.78,0,0,0,1.36-3.67,2.5,2.5,0,0,0-2.36-1.46c-.59-.07-50.78-4.78-51.29-4.83a65.55,65.55,0,0,0-27.26,3.16l-10.38,3.52a59.51,59.51,0,0,1-10.21,1.88H123a55.08,55.08,0,0,1-10.2-1.88l-10.38-3.52a65.62,65.62,0,0,0-27.27-3.16L23.9,140.45a2.53,2.53,0,0,0-2.38,1.47,3.78,3.78,0,0,0,1.36,3.67c3.37,3,8.46,5.12,12.53,6.62,8.91,3.27,16.85,1.42,25.26-.54a100.71,100.71,0,0,1,12.83-2.39A67.71,67.71,0,0,1,84.23,148.42ZM138,114a11.44,11.44,0,0,1-9.74-5.17l-.6-1.06,1.16-.38c1-.48,8.05-7.11,12.77-11.67l.88-.84.66,1c.22.34,5.42,8.59,3.4,13.81a6.07,6.07,0,0,1-4.39,3.69A15.51,15.51,0,0,1,138,114Zm-7.47-5.41c1.22,1.51,4.66,4.65,11.08,2.89a4.15,4.15,0,0,0,3.06-2.48c1.19-3.08-1.09-8.25-2.6-11C138.25,101.64,132.9,106.69,130.49,108.55ZM110.55,114a15.52,15.52,0,0,1-4.15-.59,6.08,6.08,0,0,1-4.38-3.68c-2-5.22,3.17-13.47,3.39-13.82l.66-1,.88.84c4.73,4.56,11.83,11.19,12.83,11.69l1.15.39-.65,1A11.42,11.42,0,0,1,110.55,114Zm-4.07-16c-1.52,2.72-3.79,7.89-2.6,11a4.16,4.16,0,0,0,3.05,2.47c6.39,1.76,9.85-1.39,11.09-2.9C115.61,106.68,110.26,101.63,106.48,98Z" style="fill:#fff"/></g></g></svg>