<svg xmlns="http://www.w3.org/2000/svg" viewBox="0 0 262.41 287.17"><title>Cambion_1</title><g id="abeb106b-de7f-4c08-8f4a-bb3ba6619976" data-name="Layer 2"><g id="bc8891f9-a0a6-45a7-b7f7-4737e7f645fc" data-name="Layer 1"><path d="M28.86,254.58c.79-.38,1.6-.76,2.45-1.11A19.5,19.5,0,0,0,28.86,254.58ZM250.11,148.42l-35,15.52-.3-1.14c-.19-.75-5.13-18.2-36.27-10.84l-1.22.29V151c0-.28-.44-28.21-15.91-42.4l-.21-.19c.05-.35.12-.74.19-1.16-.29-.26-.58-.51-.88-.75l-.89-.69c-5.93-4.45-13.74-7.1-24-6.31a54.6,54.6,0,0,0-5.65.75h0c-1.48.28-3,.62-4.58,1h0a86.58,86.58,0,0,0-9.66,3.17c.38,2.49,1.5,11.65-3.76,11.65a27.36,27.36,0,0,1-3.83-.27,70.89,70.89,0,0,1-8.33-1.68l-.11,0-.11,0a.05.05,0,0,1,0,0,1.32,1.32,0,0,1-.6-.59,1.74,1.74,0,0,1-.24-.77c-1.13.64-2.26,1.31-3.42,2h0c-.79.46-1.58,1-2.38,1.45a0,0,0,0,0,0,0q-6.16,3.8-12.92,8.65-4,2.86-8.26,6.13l-.82.64-.84.65c.12.32.24.65.37,1q-4.26,3.31-8.64,7C55.82,145,49.56,150.5,43.09,156.45L40.22,164,18.05,140.41c-3.27,6-22.76,44.49-4.4,80.07l.21.42-12,19c0,1.74.45,14.2,5.72,19.07a6.79,6.79,0,0,0,5.43,1.87c3-.23,5.75-2.2,8.17-3.75a45.9,45.9,0,0,1,9-4.79,50.62,50.62,0,0,1,20.52-2.51c12.9.81,25.31,6.06,36.37,12.49,28.65,16.65,37.15,21,39.67,22.15L159,238.76l6.12-8.39Zm-136,.44c.4.38.78.74,1.15,1.07,4.21,3.77,6.79,4.17,7.94,4.08-1,.18-2,.33-3,.47-.67.1-1.32.19-2,.26a60.62,60.62,0,0,1-15.54.33h0c-4.73-.63-7.09-2-8.23-3a3.6,3.6,0,0,1-1-1.21l1-2.21a4.27,4.27,0,0,1,4.38-2.56l12.51,1.34A4.55,4.55,0,0,1,114,148.7Zm14.71-43.47a33,33,0,0,1,3.59-1.48l.68-.21.6-.17h0a5,5,0,0,1,.62-.14,5.61,5.61,0,0,1,.87-.14l.42,0a3.5,3.5,0,0,1,2.48.61s.06.23.14.63c.45,2.49,1.78,11.65-4.44,11.65-4.55,0-10.58-1.13-14.37-2a1.68,1.68,0,0,1-.56-3l.56-.36.79-.52,0,0,.89-.56c.56-.35,1.15-.72,1.76-1.08s1.06-.63,1.6-.93C126,106.84,127.44,106.07,128.87,105.39Zm-7.26,50.53-.16-1.28a3.53,3.53,0,0,1-1.22-.16c-.67.1-1.32.19-2,.26a60.62,60.62,0,0,1-15.54.33h0c-4.73-.63-7.09-2-8.23-3l-.34.75.15.39c.13.32,1.34,3,7.48,4.12q.69.13,1.47.24h.09a40.66,40.66,0,0,0,5.16.31,78.77,78.77,0,0,0,12.34-1.12l.86-.14Z" style="fill:#71787f"/><path d="M258.49,142,216.34,161.2c-1.7-4-9.53-17.54-37.09-11.46-.24-5.73-2.12-29.41-16.51-42.62-.39-.36-.78-.7-1.18-1-.07.41-.14.79-.2,1.15s-.14.81-.19,1.16l.21.19c15.47,14.19,15.9,42.12,15.91,42.4v1.26l1.22-.29c31.14-7.36,36.08,10.09,36.27,10.84l.3,1.14,35-15.52-85,82L159,238.76l-32.27,45.67c-2.52-1.12-11-5.5-39.67-22.15-15.56-9-32.68-15.95-50.79-12.1-5.91,1.25-11.63,4.43-16.82,7.52-3.15,1.87-6.89,4.13-10.21,2.58-2.34-1.09-3.49-3.7-4.45-6.09-1.83-4.56-3.67-9.53-2.37-14.27a22.79,22.79,0,0,1,3.18-6.18q3.5-5.38,7-10.78a4.05,4.05,0,0,0,.86-2.08,4.22,4.22,0,0,0-.58-1.87C7,206.77,5,192.8,6.25,179.25s5.63-26.69,11.81-38.8l22,23.45c2.39-6.86,7.64-12.34,13.24-17s11.73-8.67,16.8-13.87c-.21-.64-.43-1.28-.64-1.92Q58.14,140.71,46.8,150.3c-3.49,2.94-7.25,6.38-7.64,10.93L17.22,137.84C10.6,150.26,5.87,163.79,4.39,177.79s.37,28.47,6.32,41.22a4.32,4.32,0,0,1,.58,2.16,4.1,4.1,0,0,1-.81,1.79q-3.29,5-6.59,10a24.62,24.62,0,0,0-3.3,6.22c-1.49,4.85.1,10.08,2,14.81,1.43,3.6,3.45,7.51,7.16,8.65,4.54,1.39,9-2,13-4.61,14.14-9.09,34.64-8.37,49.48-1.39,4.76,2.23,9.39,4.74,13.93,7.38,15.68,9.11,27.13,15.6,34,19.28,5.08,2.72,6.43,3.88,7.23,3.88l34.88-46.77,6.94-7.38c.42-.18,41.81-18.45,62.25-6.45,6.27,3.69,9.87,8,10.72,16.62l.23,6.42c0-.74,2.59-2.62,3.07-3.17a26.9,26.9,0,0,0,3.7-5.54c8.91-17.22,12.34-37,13.14-56.22a202.09,202.09,0,0,0-.67-25.69C261.49,157.83,259.63,141.43,258.49,142ZM244.11,243.1c-4.24-43.65-71.07-15.55-72.34-15l85.79-83.68C266.12,216.14,244.11,243.1,244.11,243.1Z" style="fill:#fff"/><path d="M160.72,27C152,9.28,127.56-.93,108.59,1.29,54.2,7.66,56.88,63.18,60.09,85c.11.82.24,1.58.35,2.3h0c.15,1,.31,1.81.45,2.57.46,2.45.81,3.85.81,3.85l1.75.16,2.07.18c17,1.43,84.94,6.14,95.05-9a31.72,31.72,0,0,0,3.66-7.8h0c.13-.41.27-.83.39-1.26s.23-.81.34-1.22C169,59.64,166.59,38.8,160.72,27ZM99.79,84.34,87,93.66,69.47,64.51Zm31.31,9.57-11-8L148.8,67.12l-16,26.62Z" style="fill:#18100d"/><circle cx="128.91" cy="106.44" r="6.3" style="fill:#ffc200"/><circle cx="89.25" cy="106.44" r="6.3" style="fill:#ffc200"/><path d="M64,92.93l.5.79,0-.74Zm0,0,.5.79,0-.74Zm0,0,.5.79,0-.74Zm0,0,.5.79,0-.74ZM161.61,26.5C152.24,7.57,126.73-1.84,108.47.3,90.92,2.35,77.68,9.68,69.1,22.08,55.53,41.68,57,69.55,59,84.16c.06.48.13.94.2,1.39.11.76.22,1.48.33,2.15.63,3.85,1.19,6.16,1.22,6.26l.17.68.7.07,2.53.24,1.34.11c7.33.63,23.77,1.85,41.09,1.85,23.59,0,48.8-2.26,54.84-11.31a33.87,33.87,0,0,0,4-8.84l.36-1.22c.11-.39.21-.78.31-1.18C169.94,59.16,167.65,38.68,161.61,26.5Zm1.8,50c-.14.45-.29.89-.44,1.33a29.77,29.77,0,0,1-3.23,6.65c-1.48,2.22-4.29,4-8.06,5.41l-.47.17a82.25,82.25,0,0,1-18.38,3.67l-1.73.17c-23.81,2.23-54.89,0-65.53-.85l-1-.08-.53,0-1.26-.11-.26,0q-.06-.24-.12-.57c-.15-.67-.33-1.58-.54-2.72-.14-.75-.29-1.6-.44-2.53-2.12-13.1-4.91-43.19,9.32-63.76,8.24-11.9,21-18.94,38-20.92,17.58-2.06,42.12,7,51.11,25.1,5.93,12,8.12,33.07,4,47.85C163.67,75.67,163.54,76.09,163.41,76.51ZM64,92.93l.5.79,0-.74Zm0,0,.5.79,0-.74Zm0,0,.5.79,0-.74Zm0,0,.5.79,0-.74Z" style="fill:#fff"/><path d="M154.19,168,143.24,176l-5.06,18c-42.59,27.43-52-3.62-52-3.62L88,167.85l.12-1.47v0l.13-1.5.09-1.1,1.21-.58,12.18-5.86,1.6-.77h0c3.93.54,9.7.49,18.12-.93a6.09,6.09,0,0,1-3.24-.88c.63-.07,1.28-.16,2-.26,1-.14,2-.29,3-.47-1.15.09-3.73-.31-7.94-4.08l28.42-17.75,2.08-1.3c.07.17.14.36.22.55.15.41.31.85.47,1.33s.3.88.44,1.36C150.33,145.09,154.19,168,154.19,168Z" style="fill:#9b1e1b"/><path d="M155.17,167.8c-.18-1.07-4.16-24.54-7.59-35-.15-.46-.3-.9-.45-1.3s-.27-.71-.4-1l-.1-.25-.34-.81-2.56,2.75-24.9,30.26,26.47-30.1.12.35q.22.63.45,1.35t.42,1.38c2.94,10.06,6.19,28.54,6.81,32.11l-10.73,7.9-5.05,18c-15.43,9.87-28.09,13.1-37.65,9.6-8.83-3.23-12-11.43-12.45-12.71L88.94,169l.12-1.43.09-1.11,0-.37.15-1.69,29.5-1.94-29.24.74-2.16,0,0,.47-.13,1.56-.12,1.5-2,23.89.06.18A23.37,23.37,0,0,0,99,204.91a25.14,25.14,0,0,0,8.78,1.49c8.73,0,19.11-3.84,31-11.49l.32-.2,5.07-18.08,11.17-8.22Z" style="fill:#fff"/><path d="M165.81,75.54l-1.17.45-1.23.52c-4.17,1.87-8.54,4.79-10.78,9.26,0,0,2-20.3.68-29.61-.45-3.33-1.33-5.28-2.86-4.32a23.69,23.69,0,0,0-4.32,4.32c-6.25,7.39-21.78,20.34-38.86,18.07C95,72.62,88.78,62.87,81.79,56.16c-5.34-5.14-6.65-8.48-10.1-5a18.51,18.51,0,0,0-3.45,5c-3.95,8.4-2.91,19.57-2.91,19.57L64.57,93l0,.74-.5-.79L61.86,89.5l-1.41-2.2h0l-1-1.51-.29-.22L50.82,79.3l13,30.31s2.4,9.28,6.62,21l.37,1c.11.32.23.65.36,1,.62,1.7,1.29,3.44,2,5.2.19.54.42,1.1.65,1.64,3.66,9.05,8.24,18.53,13.44,25.78.3.41.59.81.89,1.2h0q.45.6.9,1.17c5.46,6.84,11.57,11.09,18.1,9.93s13.06-6,18.84-12.45c.7-.78,1.4-1.59,2.08-2.42,6.28-7.58,11.75-16.84,15.92-24.86.66-1.27,1.28-2.52,1.87-3.71.21-.44.42-.86.63-1.28s.31-.66.47-1h0c0-.09.08-.17.13-.26,3.49-7.3,5.5-12.52,5.5-12.52l7.21-8.68s.15-1,.44-2.69c.06-.36.13-.74.2-1.14s.13-.72.2-1.1c.31-1.69.7-3.71,1.17-5.9,2.22-10.35,6.23-24.54,11.66-26A41.91,41.91,0,0,0,165.81,75.54Zm-17-8.42-16,26.62-1.73.17-11-8ZM92,115.27l-.53.08c-.45.08-.9.15-1.36.21-1.26.18-2.54.33-3.77.42l-1.62.09H83.49c-7.21,0-4.3-12.28-4.3-12.28,3.19-2.65,13.86,3.77,19.23,7.3a1.65,1.65,0,0,1,.36.33l.17.24a1.48,1.48,0,0,1,.17.42.51.51,0,0,1,0,.17,1.64,1.64,0,0,1,0,.22,1.34,1.34,0,0,1,0,.35,1.05,1.05,0,0,1,0,.19,1.61,1.61,0,0,1-.51.75l-.15.11a1.63,1.63,0,0,1-.57.25c-.7.15-1.48.32-2.31.48l-.32.07h0c-.86.17-1.78.34-2.73.49ZM69.47,64.51,99.79,84.34,87,93.66Zm50.76,90c-.67.1-1.32.19-2,.26a60.62,60.62,0,0,1-15.54.33h0c-4.73-.63-7.09-2-8.23-3a3.6,3.6,0,0,1-1-1.21l1-2.21a4.27,4.27,0,0,1,4.38-2.56l12.51,1.34A4.55,4.55,0,0,1,114,148.7l.16.16c.4.38.78.74,1.15,1.07,4.21,3.77,6.79,4.17,7.94,4.08C122.21,154.19,121.2,154.34,120.23,154.48Zm13.65-38.39c-4.55,0-10.58-1.13-14.37-2a1.68,1.68,0,0,1-.56-3c5.37-3.53,16-10,19.23-7.3,0,0,.06.23.14.63C138.77,106.93,140.1,116.09,133.88,116.09Z" style="fill:#cb2920"/><path d="M99.24,110.48a1.78,1.78,0,0,0-.27-.21c-.51-.34-1-.66-1.5-1L95.35,108l-.73-.44c-.92-.54-1.8-1.05-2.64-1.51s-1.65-.89-2.43-1.26a31.16,31.16,0,0,0-5.33-2.11q-3.91-1.06-5.67.39l-.26.21-.07.32c-.08.33-1.84,7.94,1,11.58a4.49,4.49,0,0,0,.41.46,3.82,3.82,0,0,0,.75.59,5.57,5.57,0,0,0,3.24.88h.67l.62,0c.57,0,1.16-.06,1.78-.11l1-.1c.81-.08,1.66-.19,2.56-.32s1.57-.23,2.41-.37l.09,0c.81-.14,1.66-.3,2.53-.47l.22,0h0l1.76-.36.71-.15h0a2.58,2.58,0,0,0,.42-.13l.17-.08.16-.09h0l.06,0a.57.57,0,0,0,.16-.11.52.52,0,0,0,.17-.13.57.57,0,0,0,.14-.13l.17-.18.09-.12a.51.51,0,0,0,.11-.16.87.87,0,0,0,.11-.18l.06-.11a1.08,1.08,0,0,0,.08-.19l.06-.19a.19.19,0,0,0,0-.08.86.86,0,0,0,.06-.23A2.61,2.61,0,0,0,99.24,110.48Zm-4.38,3.25c-1.22.24-2.37.44-3.46.61s-1.85.28-2.71.39h-.1l-.7.08-2,.18-1.1.06-1.16,0a4.1,4.1,0,0,1-.5,0l-.31,0a3.63,3.63,0,0,1-.59-.13l-.26-.1a1.26,1.26,0,0,1-.33-.16,2.8,2.8,0,0,1-.59-.45,2.26,2.26,0,0,1-.25-.28c-1.78-2.25-1.2-7.3-.74-9.5a4.9,4.9,0,0,1,3.19,0c2.44.6,6.12,2.23,11.27,5.38,1,.63,2.16,1.34,3.33,2.11h0a.44.44,0,0,1,.14.13.61.61,0,0,1,.14.52.56.56,0,0,1-.07.19A.55.55,0,0,1,98,113a.73.73,0,0,1-.35.19l-2.16.45-.6.12Zm44.44-9.5c-.09-.42-.15-.66-.15-.66l-.08-.31-.25-.21c-1.07-.89-2.74-1.07-5-.56h0q-4.2,1-11.08,5.07-2,1.22-4.32,2.71a2.68,2.68,0,0,0,.9,4.84,72.26,72.26,0,0,0,14.42,2,7.09,7.09,0,0,0,1.33-.11,5.58,5.58,0,0,0,1-.29,4.82,4.82,0,0,0,1.94-1.42C140.37,112.46,139.83,107.16,139.3,104.23Zm-5.42,10.86h0c-.67,0-1.4,0-2.18-.07l-.74,0c-.43,0-.88-.08-1.34-.13l-.53,0-1.18-.15c-.43-.06-.87-.12-1.33-.2l-1.66-.27q-2.41-.4-5.19-1a.66.66,0,0,1-.51-.59.64.64,0,0,1,.29-.62c1.39-.92,2.68-1.74,3.9-2.46,5.37-3.24,9.09-4.77,11.43-5.18a6.44,6.44,0,0,1,1.23-.13,2.77,2.77,0,0,1,1.23.24c0,.06,0,.13.05.2.78,4.29.46,7.8-.86,9.37A3.15,3.15,0,0,1,133.88,115.09Zm5.42-10.86c-.09-.42-.15-.66-.15-.66l-.08-.31-.25-.21c-1.07-.89-2.74-1.07-5-.56h0q-4.2,1-11.08,5.07-2,1.22-4.32,2.71a2.68,2.68,0,0,0,.9,4.84,72.26,72.26,0,0,0,14.42,2,7.09,7.09,0,0,0,1.33-.11,5.58,5.58,0,0,0,1-.29,4.82,4.82,0,0,0,1.94-1.42C140.37,112.46,139.83,107.16,139.3,104.23Zm-5.42,10.86h0c-.67,0-1.4,0-2.18-.07l-.74,0c-.43,0-.88-.08-1.34-.13l-.53,0-1.18-.15c-.43-.06-.87-.12-1.33-.2l-1.66-.27q-2.41-.4-5.19-1a.66.66,0,0,1-.51-.59.64.64,0,0,1,.29-.62c1.39-.92,2.68-1.74,3.9-2.46,5.37-3.24,9.09-4.77,11.43-5.18a6.44,6.44,0,0,1,1.23-.13,2.77,2.77,0,0,1,1.23.24c0,.06,0,.13.05.2.78,4.29.46,7.8-.86,9.37A3.15,3.15,0,0,1,133.88,115.09Zm-34.64-4.61a1.78,1.78,0,0,0-.27-.21c-.51-.34-1-.66-1.5-1L95.35,108l-.73-.44c-.92-.54-1.8-1.05-2.64-1.51s-1.65-.89-2.43-1.26a31.16,31.16,0,0,0-5.33-2.11q-3.91-1.06-5.67.39l-.26.21-.07.32c-.08.33-1.84,7.94,1,11.58a4.49,4.49,0,0,0,.41.46,3.82,3.82,0,0,0,.75.59,5.57,5.57,0,0,0,3.24.88h.67l.62,0c.57,0,1.16-.06,1.78-.11l1-.1c.81-.08,1.66-.19,2.56-.32s1.57-.23,2.41-.37l.09,0c.81-.14,1.66-.3,2.53-.47l.22,0h0l1.76-.36.71-.15h0a2.58,2.58,0,0,0,.42-.13l.17-.08.16-.09h0l.06,0a.57.57,0,0,0,.16-.11.52.52,0,0,0,.17-.13.57.57,0,0,0,.14-.13l.17-.18.09-.12a.51.51,0,0,0,.11-.16.87.87,0,0,0,.11-.18l.06-.11a1.08,1.08,0,0,0,.08-.19l.06-.19a.19.19,0,0,0,0-.08.86.86,0,0,0,.06-.23A2.61,2.61,0,0,0,99.24,110.48Zm-4.38,3.25c-1.22.24-2.37.44-3.46.61s-1.85.28-2.71.39h-.1l-.7.08-2,.18-1.1.06-1.16,0a4.1,4.1,0,0,1-.5,0l-.31,0a3.63,3.63,0,0,1-.59-.13l-.26-.1a1.26,1.26,0,0,1-.33-.16,2.8,2.8,0,0,1-.59-.45,2.26,2.26,0,0,1-.25-.28c-1.78-2.25-1.2-7.3-.74-9.5a4.9,4.9,0,0,1,3.19,0c2.44.6,6.12,2.23,11.27,5.38,1,.63,2.16,1.34,3.33,2.11h0a.44.44,0,0,1,.14.13.61.61,0,0,1,.14.52.56.56,0,0,1-.07.19A.55.55,0,0,1,98,113a.73.73,0,0,1-.35.19l-2.16.45-.6.12Zm4.38-3.25a1.78,1.78,0,0,0-.27-.21c-.51-.34-1-.66-1.5-1L95.35,108l-.73-.44c-.92-.54-1.8-1.05-2.64-1.51s-1.65-.89-2.43-1.26a31.16,31.16,0,0,0-5.33-2.11q-3.91-1.06-5.67.39l-.26.21-.07.32c-.08.33-1.84,7.94,1,11.58a4.49,4.49,0,0,0,.41.46,3.82,3.82,0,0,0,.75.59,5.57,5.57,0,0,0,3.24.88h.67l.62,0c.57,0,1.16-.06,1.78-.11l1-.1c.81-.08,1.66-.19,2.56-.32s1.57-.23,2.41-.37l.09,0c.81-.14,1.66-.3,2.53-.47l.22,0h0l1.76-.36.71-.15h0a2.58,2.58,0,0,0,.42-.13l.17-.08.16-.09h0l.06,0a.57.57,0,0,0,.16-.11.52.52,0,0,0,.17-.13.57.57,0,0,0,.14-.13l.17-.18.09-.12a.51.51,0,0,0,.11-.16.87.87,0,0,0,.11-.18l.06-.11a1.08,1.08,0,0,0,.08-.19l.06-.19a.19.19,0,0,0,0-.08.86.86,0,0,0,.06-.23A2.61,2.61,0,0,0,99.24,110.48Zm-4.38,3.25c-1.22.24-2.37.44-3.46.61s-1.85.28-2.71.39h-.1l-.7.08-2,.18-1.1.06-1.16,0a4.1,4.1,0,0,1-.5,0l-.31,0a3.63,3.63,0,0,1-.59-.13l-.26-.1a1.26,1.26,0,0,1-.33-.16,2.8,2.8,0,0,1-.59-.45,2.26,2.26,0,0,1-.25-.28c-1.78-2.25-1.2-7.3-.74-9.5a4.9,4.9,0,0,1,3.19,0c2.44.6,6.12,2.23,11.27,5.38,1,.63,2.16,1.34,3.33,2.11h0a.44.44,0,0,1,.14.13.61.61,0,0,1,.14.52.56.56,0,0,1-.07.19A.55.55,0,0,1,98,113a.73.73,0,0,1-.35.19l-2.16.45-.6.12Zm44.44-9.5c-.09-.42-.15-.66-.15-.66l-.08-.31-.25-.21c-1.07-.89-2.74-1.07-5-.56h0q-4.2,1-11.08,5.07-2,1.22-4.32,2.71a2.68,2.68,0,0,0,.9,4.84,72.26,72.26,0,0,0,14.42,2,7.09,7.09,0,0,0,1.33-.11,5.58,5.58,0,0,0,1-.29,4.82,4.82,0,0,0,1.94-1.42C140.37,112.46,139.83,107.16,139.3,104.23Zm-5.42,10.86h0c-.67,0-1.4,0-2.18-.07l-.74,0c-.43,0-.88-.08-1.34-.13l-.53,0-1.18-.15c-.43-.06-.87-.12-1.33-.2l-1.66-.27q-2.41-.4-5.19-1a.66.66,0,0,1-.51-.59.64.64,0,0,1,.29-.62c1.39-.92,2.68-1.74,3.9-2.46,5.37-3.24,9.09-4.77,11.43-5.18a6.44,6.44,0,0,1,1.23-.13,2.77,2.77,0,0,1,1.23.24c0,.06,0,.13.05.2.78,4.29.46,7.8-.86,9.37A3.15,3.15,0,0,1,133.88,115.09Zm5.42-10.86c-.09-.42-.15-.66-.15-.66l-.08-.31-.25-.21c-1.07-.89-2.74-1.07-5-.56h0q-4.2,1-11.08,5.07-2,1.22-4.32,2.71a2.68,2.68,0,0,0,.9,4.84,72.26,72.26,0,0,0,14.42,2,7.09,7.09,0,0,0,1.33-.11,5.58,5.58,0,0,0,1-.29,4.82,4.82,0,0,0,1.94-1.42C140.37,112.46,139.83,107.16,139.3,104.23Zm-5.42,10.86h0c-.67,0-1.4,0-2.18-.07l-.74,0c-.43,0-.88-.08-1.34-.13l-.53,0-1.18-.15c-.43-.06-.87-.12-1.33-.2l-1.66-.27q-2.41-.4-5.19-1a.66.66,0,0,1-.51-.59.64.64,0,0,1,.29-.62c1.39-.92,2.68-1.74,3.9-2.46,5.37-3.24,9.09-4.77,11.43-5.18a6.44,6.44,0,0,1,1.23-.13,2.77,2.77,0,0,1,1.23.24c0,.06,0,.13.05.2.78,4.29.46,7.8-.86,9.37A3.15,3.15,0,0,1,133.88,115.09Zm-34.64-4.61a1.78,1.78,0,0,0-.27-.21c-.51-.34-1-.66-1.5-1L95.35,108l-.73-.44c-.92-.54-1.8-1.05-2.64-1.51s-1.65-.89-2.43-1.26a31.16,31.16,0,0,0-5.33-2.11q-3.91-1.06-5.67.39l-.26.21-.07.32c-.08.33-1.84,7.94,1,11.58a4.49,4.49,0,0,0,.41.46,3.82,3.82,0,0,0,.75.59,5.57,5.57,0,0,0,3.24.88h.67l.62,0c.57,0,1.16-.06,1.78-.11l1-.1c.81-.08,1.66-.19,2.56-.32s1.57-.23,2.41-.37l.09,0c.81-.14,1.66-.3,2.53-.47l.22,0h0l1.76-.36.71-.15h0a2.58,2.58,0,0,0,.42-.13l.17-.08.16-.09h0l.06,0a.57.57,0,0,0,.16-.11.52.52,0,0,0,.17-.13.57.57,0,0,0,.14-.13l.17-.18.09-.12a.51.51,0,0,0,.11-.16.87.87,0,0,0,.11-.18l.06-.11a1.08,1.08,0,0,0,.08-.19l.06-.19a.19.19,0,0,0,0-.08.86.86,0,0,0,.06-.23A2.61,2.61,0,0,0,99.24,110.48Zm-4.38,3.25c-1.22.24-2.37.44-3.46.61s-1.85.28-2.71.39h-.1l-.7.08-2,.18-1.1.06-1.16,0a4.1,4.1,0,0,1-.5,0l-.31,0a3.63,3.63,0,0,1-.59-.13l-.26-.1a1.26,1.26,0,0,1-.33-.16,2.8,2.8,0,0,1-.59-.45,2.26,2.26,0,0,1-.25-.28c-1.78-2.25-1.2-7.3-.74-9.5a4.9,4.9,0,0,1,3.19,0c2.44.6,6.12,2.23,11.27,5.38,1,.63,2.16,1.34,3.33,2.11h0a.44.44,0,0,1,.14.13.61.61,0,0,1,.14.52.56.56,0,0,1-.07.19A.55.55,0,0,1,98,113a.73.73,0,0,1-.35.19l-2.16.45-.6.12Zm4.38-3.25a1.78,1.78,0,0,0-.27-.21c-.51-.34-1-.66-1.5-1L95.35,108l-.73-.44c-.92-.54-1.8-1.05-2.64-1.51s-1.65-.89-2.43-1.26a31.16,31.16,0,0,0-5.33-2.11q-3.91-1.06-5.67.39l-.26.21-.07.32c-.08.33-1.84,7.94,1,11.58a4.49,4.49,0,0,0,.41.46,3.82,3.82,0,0,0,.75.59,5.57,5.57,0,0,0,3.24.88h.67l.62,0c.57,0,1.16-.06,1.78-.11l1-.1c.81-.08,1.66-.19,2.56-.32s1.57-.23,2.41-.37l.09,0c.81-.14,1.66-.3,2.53-.47l.22,0h0l1.76-.36.71-.15h0a2.58,2.58,0,0,0,.42-.13l.17-.08.16-.09h0l.06,0a.57.57,0,0,0,.16-.11.52.52,0,0,0,.17-.13.57.57,0,0,0,.14-.13l.17-.18.09-.12a.51.51,0,0,0,.11-.16.87.87,0,0,0,.11-.18l.06-.11a1.08,1.08,0,0,0,.08-.19l.06-.19a.19.19,0,0,0,0-.08.86.86,0,0,0,.06-.23A2.61,2.61,0,0,0,99.24,110.48Zm-4.38,3.25c-1.22.24-2.37.44-3.46.61s-1.85.28-2.71.39h-.1l-.7.08-2,.18-1.1.06-1.16,0a4.1,4.1,0,0,1-.5,0l-.31,0a3.63,3.63,0,0,1-.59-.13l-.26-.1a1.26,1.26,0,0,1-.33-.16,2.8,2.8,0,0,1-.59-.45,2.26,2.26,0,0,1-.25-.28c-1.78-2.25-1.2-7.3-.74-9.5a4.9,4.9,0,0,1,3.19,0c2.44.6,6.12,2.23,11.27,5.38,1,.63,2.16,1.34,3.33,2.11h0a.44.44,0,0,1,.14.13.61.61,0,0,1,.14.52.56.56,0,0,1-.07.19A.55.55,0,0,1,98,113a.73.73,0,0,1-.35.19l-2.16.45-.6.12Zm44.44-9.5c-.09-.42-.15-.66-.15-.66l-.08-.31-.25-.21c-1.07-.89-2.74-1.07-5-.56h0q-4.2,1-11.08,5.07-2,1.22-4.32,2.71a2.68,2.68,0,0,0,.9,4.84,72.26,72.26,0,0,0,14.42,2,7.09,7.09,0,0,0,1.33-.11,5.58,5.58,0,0,0,1-.29,4.82,4.82,0,0,0,1.94-1.42C140.37,112.46,139.83,107.16,139.3,104.23Zm-5.42,10.86h0c-.67,0-1.4,0-2.18-.07l-.74,0c-.43,0-.88-.08-1.34-.13l-.53,0-1.18-.15c-.43-.06-.87-.12-1.33-.2l-1.66-.27q-2.41-.4-5.19-1a.66.66,0,0,1-.51-.59.64.64,0,0,1,.29-.62c1.39-.92,2.68-1.74,3.9-2.46,5.37-3.24,9.09-4.77,11.43-5.18a6.44,6.44,0,0,1,1.23-.13,2.77,2.77,0,0,1,1.23.24c0,.06,0,.13.05.2.78,4.29.46,7.8-.86,9.37A3.15,3.15,0,0,1,133.88,115.09Zm17.33-25-.09.94.56-1.11ZM139.3,104.23c-.09-.42-.15-.66-.15-.66l-.08-.31-.25-.21c-1.07-.89-2.74-1.07-5-.56h0q-4.2,1-11.08,5.07-2,1.22-4.32,2.71a2.68,2.68,0,0,0,.9,4.84,72.26,72.26,0,0,0,14.42,2,7.09,7.09,0,0,0,1.33-.11,5.58,5.58,0,0,0,1-.29,4.82,4.82,0,0,0,1.94-1.42C140.37,112.46,139.83,107.16,139.3,104.23Zm-5.42,10.86h0c-.67,0-1.4,0-2.18-.07l-.74,0c-.43,0-.88-.08-1.34-.13l-.53,0-1.18-.15c-.43-.06-.87-.12-1.33-.2l-1.66-.27q-2.41-.4-5.19-1a.66.66,0,0,1-.51-.59.64.64,0,0,1,.29-.62c1.39-.92,2.68-1.74,3.9-2.46,5.37-3.24,9.09-4.77,11.43-5.18a6.44,6.44,0,0,1,1.23-.13,2.77,2.77,0,0,1,1.23.24c0,.06,0,.13.05.2.78,4.29.46,7.8-.86,9.37A3.15,3.15,0,0,1,133.88,115.09ZM127,162.38c-.82,1-1.66,1.94-2.51,2.85L126,165c.7-.78,1.4-1.59,2.08-2.42A4.72,4.72,0,0,1,127,162.38Zm-27.75-51.9a1.78,1.78,0,0,0-.27-.21c-.51-.34-1-.66-1.5-1L95.35,108l-.73-.44c-.92-.54-1.8-1.05-2.64-1.51s-1.65-.89-2.43-1.26a31.16,31.16,0,0,0-5.33-2.11q-3.91-1.06-5.67.39l-.26.21-.07.32c-.08.33-1.84,7.94,1,11.58a4.49,4.49,0,0,0,.41.46,3.82,3.82,0,0,0,.75.59,5.57,5.57,0,0,0,3.24.88h.67l.62,0c.57,0,1.16-.06,1.78-.11l1-.1c.81-.08,1.66-.19,2.56-.32s1.57-.23,2.41-.37l.09,0c.81-.14,1.66-.3,2.53-.47l.22,0h0l1.76-.36.71-.15h0a2.58,2.58,0,0,0,.42-.13l.17-.08.16-.09h0l.06,0a.57.57,0,0,0,.16-.11.52.52,0,0,0,.17-.13.57.57,0,0,0,.14-.13l.17-.18.09-.12a.51.51,0,0,0,.11-.16.87.87,0,0,0,.11-.18l.06-.11a1.08,1.08,0,0,0,.08-.19l.06-.19a.19.19,0,0,0,0-.08.86.86,0,0,0,.06-.23A2.61,2.61,0,0,0,99.24,110.48Zm-4.38,3.25c-1.22.24-2.37.44-3.46.61s-1.85.28-2.71.39h-.1l-.7.08-2,.18-1.1.06-1.16,0a4.1,4.1,0,0,1-.5,0l-.31,0a3.63,3.63,0,0,1-.59-.13l-.26-.1a1.26,1.26,0,0,1-.33-.16,2.8,2.8,0,0,1-.59-.45,2.26,2.26,0,0,1-.25-.28c-1.78-2.25-1.2-7.3-.74-9.5a4.9,4.9,0,0,1,3.19,0c2.44.6,6.12,2.23,11.27,5.38,1,.63,2.16,1.34,3.33,2.11h0a.44.44,0,0,1,.14.13.61.61,0,0,1,.14.52.56.56,0,0,1-.07.19A.55.55,0,0,1,98,113a.73.73,0,0,1-.35.19l-2.16.45-.6.12ZM64.57,93l0,.74-.5-.79-1.26-.11.68,1.06L64.14,95l1.26,2,.08-1.87,0-1,0-1Zm34.67,17.5a1.78,1.78,0,0,0-.27-.21c-.51-.34-1-.66-1.5-1L95.35,108l-.73-.44c-.92-.54-1.8-1.05-2.64-1.51s-1.65-.89-2.43-1.26a31.16,31.16,0,0,0-5.33-2.11q-3.91-1.06-5.67.39l-.26.21-.07.32c-.08.33-1.84,7.94,1,11.58a4.49,4.49,0,0,0,.41.46,3.82,3.82,0,0,0,.75.59,5.57,5.57,0,0,0,3.24.88h.67l.62,0c.57,0,1.16-.06,1.78-.11l1-.1c.81-.08,1.66-.19,2.56-.32s1.57-.23,2.41-.37l.09,0c.81-.14,1.66-.3,2.53-.47l.22,0h0l1.76-.36.71-.15h0a2.58,2.58,0,0,0,.42-.13l.17-.08.16-.09h0l.06,0a.57.57,0,0,0,.16-.11.52.52,0,0,0,.17-.13.57.57,0,0,0,.14-.13l.17-.18.09-.12a.51.51,0,0,0,.11-.16.87.87,0,0,0,.11-.18l.06-.11a1.08,1.08,0,0,0,.08-.19l.06-.19a.19.19,0,0,0,0-.08.86.86,0,0,0,.06-.23A2.61,2.61,0,0,0,99.24,110.48Zm-4.38,3.25c-1.22.24-2.37.44-3.46.61s-1.85.28-2.71.39h-.1l-.7.08-2,.18-1.1.06-1.16,0a4.1,4.1,0,0,1-.5,0l-.31,0a3.63,3.63,0,0,1-.59-.13l-.26-.1a1.26,1.26,0,0,1-.33-.16,2.8,2.8,0,0,1-.59-.45,2.26,2.26,0,0,1-.25-.28c-1.78-2.25-1.2-7.3-.74-9.5a4.9,4.9,0,0,1,3.19,0c2.44.6,6.12,2.23,11.27,5.38,1,.63,2.16,1.34,3.33,2.11h0a.44.44,0,0,1,.14.13.61.61,0,0,1,.14.52.56.56,0,0,1-.07.19A.55.55,0,0,1,98,113a.73.73,0,0,1-.35.19l-2.16.45-.6.12Zm44.44-9.5c-.09-.42-.15-.66-.15-.66l-.08-.31-.25-.21c-1.07-.89-2.74-1.07-5-.56h0q-4.2,1-11.08,5.07-2,1.22-4.32,2.71a2.68,2.68,0,0,0,.9,4.84,72.26,72.26,0,0,0,14.42,2,7.09,7.09,0,0,0,1.33-.11,5.58,5.58,0,0,0,1-.29,4.82,4.82,0,0,0,1.94-1.42C140.37,112.46,139.83,107.16,139.3,104.23Zm-5.42,10.86h0c-.67,0-1.4,0-2.18-.07l-.74,0c-.43,0-.88-.08-1.34-.13l-.53,0-1.18-.15c-.43-.06-.87-.12-1.33-.2l-1.66-.27q-2.41-.4-5.19-1a.66.66,0,0,1-.51-.59.64.64,0,0,1,.29-.62c1.39-.92,2.68-1.74,3.9-2.46,5.37-3.24,9.09-4.77,11.43-5.18a6.44,6.44,0,0,1,1.23-.13,2.77,2.77,0,0,1,1.23.24c0,.06,0,.13.05.2.78,4.29.46,7.8-.86,9.37A3.15,3.15,0,0,1,133.88,115.09Zm17.33-25-.09.94.56-1.11ZM139.3,104.23c-.09-.42-.15-.66-.15-.66l-.08-.31-.25-.21c-1.07-.89-2.74-1.07-5-.56h0q-4.2,1-11.08,5.07-2,1.22-4.32,2.71a2.68,2.68,0,0,0,.9,4.84,72.26,72.26,0,0,0,14.42,2,7.09,7.09,0,0,0,1.33-.11,5.58,5.58,0,0,0,1-.29,4.82,4.82,0,0,0,1.94-1.42C140.37,112.46,139.83,107.16,139.3,104.23Zm-5.42,10.86h0c-.67,0-1.4,0-2.18-.07l-.74,0c-.43,0-.88-.08-1.34-.13l-.53,0-1.18-.15c-.43-.06-.87-.12-1.33-.2l-1.66-.27q-2.41-.4-5.19-1a.66.66,0,0,1-.51-.59.64.64,0,0,1,.29-.62c1.39-.92,2.68-1.74,3.9-2.46,5.37-3.24,9.09-4.77,11.43-5.18a6.44,6.44,0,0,1,1.23-.13,2.77,2.77,0,0,1,1.23.24c0,.06,0,.13.05.2.78,4.29.46,7.8-.86,9.37A3.15,3.15,0,0,1,133.88,115.09ZM127,162.38c-.82,1-1.66,1.94-2.51,2.85L126,165c.7-.78,1.4-1.59,2.08-2.42A4.72,4.72,0,0,1,127,162.38Zm-27.75-51.9a1.78,1.78,0,0,0-.27-.21c-.51-.34-1-.66-1.5-1L95.35,108l-.73-.44c-.92-.54-1.8-1.05-2.64-1.51s-1.65-.89-2.43-1.26a31.16,31.16,0,0,0-5.33-2.11q-3.91-1.06-5.67.39l-.26.21-.07.32c-.08.33-1.84,7.94,1,11.58a4.49,4.49,0,0,0,.41.46,3.82,3.82,0,0,0,.75.59,5.57,5.57,0,0,0,3.24.88h.67l.62,0c.57,0,1.16-.06,1.78-.11l1-.1c.81-.08,1.66-.19,2.56-.32s1.57-.23,2.41-.37l.09,0c.81-.14,1.66-.3,2.53-.47l.22,0h0l1.76-.36.71-.15h0a2.58,2.58,0,0,0,.42-.13l.17-.08.16-.09h0l.06,0a.57.57,0,0,0,.16-.11.52.52,0,0,0,.17-.13.57.57,0,0,0,.14-.13l.17-.18.09-.12a.51.51,0,0,0,.11-.16.87.87,0,0,0,.11-.18l.06-.11a1.08,1.08,0,0,0,.08-.19l.06-.19a.19.19,0,0,0,0-.08.86.86,0,0,0,.06-.23A2.61,2.61,0,0,0,99.24,110.48Zm-4.38,3.25c-1.22.24-2.37.44-3.46.61s-1.85.28-2.71.39h-.1l-.7.08-2,.18-1.1.06-1.16,0a4.1,4.1,0,0,1-.5,0l-.31,0a3.63,3.63,0,0,1-.59-.13l-.26-.1a1.26,1.26,0,0,1-.33-.16,2.8,2.8,0,0,1-.59-.45,2.26,2.26,0,0,1-.25-.28c-1.78-2.25-1.2-7.3-.74-9.5a4.9,4.9,0,0,1,3.19,0c2.44.6,6.12,2.23,11.27,5.38,1,.63,2.16,1.34,3.33,2.11h0a.44.44,0,0,1,.14.13.61.61,0,0,1,.14.52.56.56,0,0,1-.07.19A.55.55,0,0,1,98,113a.73.73,0,0,1-.35.19l-2.16.45-.6.12ZM64.57,93l0,.74-.5-.79-1.26-.11.68,1.06L64.14,95l1.26,2,.08-1.87,0-1,0-1Zm34.67,17.5a1.78,1.78,0,0,0-.27-.21c-.51-.34-1-.66-1.5-1L95.35,108l-.73-.44c-.92-.54-1.8-1.05-2.64-1.51s-1.65-.89-2.43-1.26a31.16,31.16,0,0,0-5.33-2.11q-3.91-1.06-5.67.39l-.26.21-.07.32c-.08.33-1.84,7.94,1,11.58a4.49,4.49,0,0,0,.41.46,3.82,3.82,0,0,0,.75.59,5.57,5.57,0,0,0,3.24.88h.67l.62,0c.57,0,1.16-.06,1.78-.11l1-.1c.81-.08,1.66-.19,2.56-.32s1.57-.23,2.41-.37l.09,0c.81-.14,1.66-.3,2.53-.47l.22,0h0l1.76-.36.71-.15h0a2.58,2.58,0,0,0,.42-.13l.17-.08.16-.09h0l.06,0a.57.57,0,0,0,.16-.11.52.52,0,0,0,.17-.13.57.57,0,0,0,.14-.13l.17-.18.09-.12a.51.51,0,0,0,.11-.16.87.87,0,0,0,.11-.18l.06-.11a1.08,1.08,0,0,0,.08-.19l.06-.19a.19.19,0,0,0,0-.08.86.86,0,0,0,.06-.23A2.61,2.61,0,0,0,99.24,110.48Zm-4.38,3.25c-1.22.24-2.37.44-3.46.61s-1.85.28-2.71.39h-.1l-.7.08-2,.18-1.1.06-1.16,0a4.1,4.1,0,0,1-.5,0l-.31,0a3.63,3.63,0,0,1-.59-.13l-.26-.1a1.26,1.26,0,0,1-.33-.16,2.8,2.8,0,0,1-.59-.45,2.26,2.26,0,0,1-.25-.28c-1.78-2.25-1.2-7.3-.74-9.5a4.9,4.9,0,0,1,3.19,0c2.44.6,6.12,2.23,11.27,5.38,1,.63,2.16,1.34,3.33,2.11h0a.44.44,0,0,1,.14.13.61.61,0,0,1,.14.52.56.56,0,0,1-.07.19A.55.55,0,0,1,98,113a.73.73,0,0,1-.35.19l-2.16.45-.6.12Zm44.44-9.5c-.09-.42-.15-.66-.15-.66l-.08-.31-.25-.21c-1.07-.89-2.74-1.07-5-.56h0q-4.2,1-11.08,5.07-2,1.22-4.32,2.71a2.68,2.68,0,0,0,.9,4.84,72.26,72.26,0,0,0,14.42,2,7.09,7.09,0,0,0,1.33-.11,5.58,5.58,0,0,0,1-.29,4.82,4.82,0,0,0,1.94-1.42C140.37,112.46,139.83,107.16,139.3,104.23Zm-5.42,10.86h0c-.67,0-1.4,0-2.18-.07l-.74,0c-.43,0-.88-.08-1.34-.13l-.53,0-1.18-.15c-.43-.06-.87-.12-1.33-.2l-1.66-.27q-2.41-.4-5.19-1a.66.66,0,0,1-.51-.59.64.64,0,0,1,.29-.62c1.39-.92,2.68-1.74,3.9-2.46,5.37-3.24,9.09-4.77,11.43-5.18a6.44,6.44,0,0,1,1.23-.13,2.77,2.77,0,0,1,1.23.24c0,.06,0,.13.05.2.78,4.29.46,7.8-.86,9.37A3.15,3.15,0,0,1,133.88,115.09Zm17.33-25-.09.94.56-1.11ZM139.3,104.23c-.09-.42-.15-.66-.15-.66l-.08-.31-.25-.21c-1.07-.89-2.74-1.07-5-.56h0q-4.2,1-11.08,5.07-2,1.22-4.32,2.71a2.68,2.68,0,0,0,.9,4.84,72.26,72.26,0,0,0,14.42,2,7.09,7.09,0,0,0,1.33-.11,5.58,5.58,0,0,0,1-.29,4.82,4.82,0,0,0,1.94-1.42C140.37,112.46,139.83,107.16,139.3,104.23Zm-5.42,10.86h0c-.67,0-1.4,0-2.18-.07l-.74,0c-.43,0-.88-.08-1.34-.13l-.53,0-1.18-.15c-.43-.06-.87-.12-1.33-.2l-1.66-.27q-2.41-.4-5.19-1a.66.66,0,0,1-.51-.59.64.64,0,0,1,.29-.62c1.39-.92,2.68-1.74,3.9-2.46,5.37-3.24,9.09-4.77,11.43-5.18a6.44,6.44,0,0,1,1.23-.13,2.77,2.77,0,0,1,1.23.24c0,.06,0,.13.05.2.78,4.29.46,7.8-.86,9.37A3.15,3.15,0,0,1,133.88,115.09ZM127,162.38c-.82,1-1.66,1.94-2.51,2.85L126,165c.7-.78,1.4-1.59,2.08-2.42A4.72,4.72,0,0,1,127,162.38Zm-27.75-51.9a1.78,1.78,0,0,0-.27-.21c-.51-.34-1-.66-1.5-1L95.35,108l-.73-.44c-.92-.54-1.8-1.05-2.64-1.51s-1.65-.89-2.43-1.26a31.16,31.16,0,0,0-5.33-2.11q-3.91-1.06-5.67.39l-.26.21-.07.32c-.08.33-1.84,7.94,1,11.58a4.49,4.49,0,0,0,.41.46,3.82,3.82,0,0,0,.75.59,5.57,5.57,0,0,0,3.24.88h.67l.62,0c.57,0,1.16-.06,1.78-.11l1-.1c.81-.08,1.66-.19,2.56-.32s1.57-.23,2.41-.37l.09,0c.81-.14,1.66-.3,2.53-.47l.22,0h0l1.76-.36.71-.15h0a2.58,2.58,0,0,0,.42-.13l.17-.08.16-.09h0l.06,0a.57.57,0,0,0,.16-.11.52.52,0,0,0,.17-.13.57.57,0,0,0,.14-.13l.17-.18.09-.12a.51.51,0,0,0,.11-.16.87.87,0,0,0,.11-.18l.06-.11a1.08,1.08,0,0,0,.08-.19l.06-.19a.19.19,0,0,0,0-.08.86.86,0,0,0,.06-.23A2.61,2.61,0,0,0,99.24,110.48Zm-4.38,3.25c-1.22.24-2.37.44-3.46.61s-1.85.28-2.71.39h-.1l-.7.08-2,.18-1.1.06-1.16,0a4.1,4.1,0,0,1-.5,0l-.31,0a3.63,3.63,0,0,1-.59-.13l-.26-.1a1.26,1.26,0,0,1-.33-.16,2.8,2.8,0,0,1-.59-.45,2.26,2.26,0,0,1-.25-.28c-1.78-2.25-1.2-7.3-.74-9.5a4.9,4.9,0,0,1,3.19,0c2.44.6,6.12,2.23,11.27,5.38,1,.63,2.16,1.34,3.33,2.11h0a.44.44,0,0,1,.14.13.61.61,0,0,1,.14.52.56.56,0,0,1-.07.19A.55.55,0,0,1,98,113a.73.73,0,0,1-.35.19l-2.16.45-.6.12ZM64.57,93l0,.74-.5-.79-1.26-.11.68,1.06L64.14,95l1.26,2,.08-1.87,0-1,0-1Zm34.67,17.5a1.78,1.78,0,0,0-.27-.21c-.51-.34-1-.66-1.5-1L95.35,108l-.73-.44c-.92-.54-1.8-1.05-2.64-1.51s-1.65-.89-2.43-1.26a31.16,31.16,0,0,0-5.33-2.11q-3.91-1.06-5.67.39l-.26.21-.07.32c-.08.33-1.84,7.94,1,11.58a4.49,4.49,0,0,0,.41.46,3.82,3.82,0,0,0,.75.59,5.57,5.57,0,0,0,3.24.88h.67l.62,0c.57,0,1.16-.06,1.78-.11l1-.1c.81-.08,1.66-.19,2.56-.32s1.57-.23,2.41-.37l.09,0c.81-.14,1.66-.3,2.53-.47l.22,0h0l1.76-.36.71-.15h0a2.58,2.58,0,0,0,.42-.13l.17-.08.16-.09h0l.06,0a.57.57,0,0,0,.16-.11.52.52,0,0,0,.17-.13.57.57,0,0,0,.14-.13l.17-.18.09-.12a.51.51,0,0,0,.11-.16.87.87,0,0,0,.11-.18l.06-.11a1.08,1.08,0,0,0,.08-.19l.06-.19a.19.19,0,0,0,0-.08.86.86,0,0,0,.06-.23A2.61,2.61,0,0,0,99.24,110.48Zm-4.38,3.25c-1.22.24-2.37.44-3.46.61s-1.85.28-2.71.39h-.1l-.7.08-2,.18-1.1.06-1.16,0a4.1,4.1,0,0,1-.5,0l-.31,0a3.63,3.63,0,0,1-.59-.13l-.26-.1a1.26,1.26,0,0,1-.33-.16,2.8,2.8,0,0,1-.59-.45,2.26,2.26,0,0,1-.25-.28c-1.78-2.25-1.2-7.3-.74-9.5a4.9,4.9,0,0,1,3.19,0c2.44.6,6.12,2.23,11.27,5.38,1,.63,2.16,1.34,3.33,2.11h0a.44.44,0,0,1,.14.13.61.61,0,0,1,.14.52.56.56,0,0,1-.07.19A.55.55,0,0,1,98,113a.73.73,0,0,1-.35.19l-2.16.45-.6.12Zm44.44-9.5c-.09-.42-.15-.66-.15-.66l-.08-.31-.25-.21c-1.07-.89-2.74-1.07-5-.56h0q-4.2,1-11.08,5.07-2,1.22-4.32,2.71a2.68,2.68,0,0,0,.9,4.84,72.26,72.26,0,0,0,14.42,2,7.09,7.09,0,0,0,1.33-.11,5.58,5.58,0,0,0,1-.29,4.82,4.82,0,0,0,1.94-1.42C140.37,112.46,139.83,107.16,139.3,104.23Zm-5.42,10.86h0c-.67,0-1.4,0-2.18-.07l-.74,0c-.43,0-.88-.08-1.34-.13l-.53,0-1.18-.15c-.43-.06-.87-.12-1.33-.2l-1.66-.27q-2.41-.4-5.19-1a.66.66,0,0,1-.51-.59.64.64,0,0,1,.29-.62c1.39-.92,2.68-1.74,3.9-2.46,5.37-3.24,9.09-4.77,11.43-5.18a6.44,6.44,0,0,1,1.23-.13,2.77,2.77,0,0,1,1.23.24c0,.06,0,.13.05.2.78,4.29.46,7.8-.86,9.37A3.15,3.15,0,0,1,133.88,115.09Zm17.33-25-.09.94.56-1.11ZM139.3,104.23c-.09-.42-.15-.66-.15-.66l-.08-.31-.25-.21c-1.07-.89-2.74-1.07-5-.56h0q-4.2,1-11.08,5.07-2,1.22-4.32,2.71a2.68,2.68,0,0,0,.9,4.84,72.26,72.26,0,0,0,14.42,2,7.09,7.09,0,0,0,1.33-.11,5.58,5.58,0,0,0,1-.29,4.82,4.82,0,0,0,1.94-1.42C140.37,112.46,139.83,107.16,139.3,104.23Zm-5.42,10.86h0c-.67,0-1.4,0-2.18-.07l-.74,0c-.43,0-.88-.08-1.34-.13l-.53,0-1.18-.15c-.43-.06-.87-.12-1.33-.2l-1.66-.27q-2.41-.4-5.19-1a.66.66,0,0,1-.51-.59.64.64,0,0,1,.29-.62c1.39-.92,2.68-1.74,3.9-2.46,5.37-3.24,9.09-4.77,11.43-5.18a6.44,6.44,0,0,1,1.23-.13,2.77,2.77,0,0,1,1.23.24c0,.06,0,.13.05.2.78,4.29.46,7.8-.86,9.37A3.15,3.15,0,0,1,133.88,115.09ZM127,162.38c-.82,1-1.66,1.94-2.51,2.85L126,165c.7-.78,1.4-1.59,2.08-2.42A4.72,4.72,0,0,1,127,162.38Zm-27.75-51.9a1.78,1.78,0,0,0-.27-.21c-.51-.34-1-.66-1.5-1L95.35,108l-.73-.44c-.92-.54-1.8-1.05-2.64-1.51s-1.65-.89-2.43-1.26a31.16,31.16,0,0,0-5.33-2.11q-3.91-1.06-5.67.39l-.26.21-.07.32c-.08.33-1.84,7.94,1,11.58a4.49,4.49,0,0,0,.41.46,3.82,3.82,0,0,0,.75.59,5.57,5.57,0,0,0,3.24.88h.67l.62,0c.57,0,1.16-.06,1.78-.11l1-.1c.81-.08,1.66-.19,2.56-.32s1.57-.23,2.41-.37l.09,0c.81-.14,1.66-.3,2.53-.47l.22,0h0l1.76-.36.71-.15h0a2.58,2.58,0,0,0,.42-.13l.17-.08.16-.09h0l.06,0a.57.57,0,0,0,.16-.11.52.52,0,0,0,.17-.13.57.57,0,0,0,.14-.13l.17-.18.09-.12a.51.51,0,0,0,.11-.16.87.87,0,0,0,.11-.18l.06-.11a1.08,1.08,0,0,0,.08-.19l.06-.19a.19.19,0,0,0,0-.08.86.86,0,0,0,.06-.23A2.61,2.61,0,0,0,99.24,110.48Zm-4.38,3.25c-1.22.24-2.37.44-3.46.61s-1.85.28-2.71.39h-.1l-.7.08-2,.18-1.1.06-1.16,0a4.1,4.1,0,0,1-.5,0l-.31,0a3.63,3.63,0,0,1-.59-.13l-.26-.1a1.26,1.26,0,0,1-.33-.16,2.8,2.8,0,0,1-.59-.45,2.26,2.26,0,0,1-.25-.28c-1.78-2.25-1.2-7.3-.74-9.5a4.9,4.9,0,0,1,3.19,0c2.44.6,6.12,2.23,11.27,5.38,1,.63,2.16,1.34,3.33,2.11h0a.44.44,0,0,1,.14.13.61.61,0,0,1,.14.52.56.56,0,0,1-.07.19A.55.55,0,0,1,98,113a.73.73,0,0,1-.35.19l-2.16.45-.6.12ZM64.57,93l0,.74-.5-.79-1.26-.11.68,1.06L64.14,95l1.26,2,.08-1.87,0-1,0-1Zm34.67,17.5a1.78,1.78,0,0,0-.27-.21c-.51-.34-1-.66-1.5-1L95.35,108l-.73-.44c-.92-.54-1.8-1.05-2.64-1.51s-1.65-.89-2.43-1.26a31.16,31.16,0,0,0-5.33-2.11q-3.91-1.06-5.67.39l-.26.21-.07.32c-.08.33-1.84,7.94,1,11.58a4.49,4.49,0,0,0,.41.46,3.82,3.82,0,0,0,.75.59,5.57,5.57,0,0,0,3.24.88h.67l.62,0c.57,0,1.16-.06,1.78-.11l1-.1c.81-.08,1.66-.19,2.56-.32s1.57-.23,2.41-.37l.09,0c.81-.14,1.66-.3,2.53-.47l.22,0h0l1.76-.36.71-.15h0a2.58,2.58,0,0,0,.42-.13l.17-.08.16-.09h0l.06,0a.57.57,0,0,0,.16-.11.52.52,0,0,0,.17-.13.57.57,0,0,0,.14-.13l.17-.18.09-.12a.51.51,0,0,0,.11-.16.87.87,0,0,0,.11-.18l.06-.11a1.08,1.08,0,0,0,.08-.19l.06-.19a.19.19,0,0,0,0-.08.86.86,0,0,0,.06-.23A2.61,2.61,0,0,0,99.24,110.48Zm-4.38,3.25c-1.22.24-2.37.44-3.46.61s-1.85.28-2.71.39h-.1l-.7.08-2,.18-1.1.06-1.16,0a4.1,4.1,0,0,1-.5,0l-.31,0a3.63,3.63,0,0,1-.59-.13l-.26-.1a1.26,1.26,0,0,1-.33-.16,2.8,2.8,0,0,1-.59-.45,2.26,2.26,0,0,1-.25-.28c-1.78-2.25-1.2-7.3-.74-9.5a4.9,4.9,0,0,1,3.19,0c2.44.6,6.12,2.23,11.27,5.38,1,.63,2.16,1.34,3.33,2.11h0a.44.44,0,0,1,.14.13.61.61,0,0,1,.14.52.56.56,0,0,1-.07.19A.55.55,0,0,1,98,113a.73.73,0,0,1-.35.19l-2.16.45-.6.12Zm44.44-9.5c-.09-.42-.15-.66-.15-.66l-.08-.31-.25-.21c-1.07-.89-2.74-1.07-5-.56h0q-4.2,1-11.08,5.07-2,1.22-4.32,2.71a2.68,2.68,0,0,0,.9,4.84,72.26,72.26,0,0,0,14.42,2,7.09,7.09,0,0,0,1.33-.11,5.58,5.58,0,0,0,1-.29,4.82,4.82,0,0,0,1.94-1.42C140.37,112.46,139.83,107.16,139.3,104.23Zm-5.42,10.86h0c-.67,0-1.4,0-2.18-.07l-.74,0c-.43,0-.88-.08-1.34-.13l-.53,0-1.18-.15c-.43-.06-.87-.12-1.33-.2l-1.66-.27q-2.41-.4-5.19-1a.66.66,0,0,1-.51-.59.64.64,0,0,1,.29-.62c1.39-.92,2.68-1.74,3.9-2.46,5.37-3.24,9.09-4.77,11.43-5.18a6.44,6.44,0,0,1,1.23-.13,2.77,2.77,0,0,1,1.23.24c0,.06,0,.13.05.2.78,4.29.46,7.8-.86,9.37A3.15,3.15,0,0,1,133.88,115.09Zm17.33-25-.09.94.56-1.11Zm-12.06,13.5-.08-.31-.25-.21c-1.07-.89-2.74-1.07-5-.56h0q-4.2,1-11.08,5.07-2,1.22-4.32,2.71a2.68,2.68,0,0,0,.9,4.84,72.26,72.26,0,0,0,14.42,2,7.09,7.09,0,0,0,1.33-.11,5.58,5.58,0,0,0,1-.29,4.82,4.82,0,0,0,1.94-1.42c2.35-2.81,1.81-8.11,1.28-11C139.21,103.81,139.15,103.57,139.15,103.57Zm-5.27,11.52h0c-.67,0-1.4,0-2.18-.07l-.74,0c-.43,0-.88-.08-1.34-.13l-.53,0-1.18-.15c-.43-.06-.87-.12-1.33-.2l-1.66-.27q-2.41-.4-5.19-1a.66.66,0,0,1-.51-.59.64.64,0,0,1,.29-.62c1.39-.92,2.68-1.74,3.9-2.46,5.37-3.24,9.09-4.77,11.43-5.18a6.44,6.44,0,0,1,1.23-.13,2.77,2.77,0,0,1,1.23.24c0,.06,0,.13.05.2.78,4.29.46,7.8-.86,9.37A3.15,3.15,0,0,1,133.88,115.09ZM99,110.27c-.51-.34-1-.66-1.5-1L95.35,108l-.73-.44c-.92-.54-1.8-1.05-2.64-1.51s-1.65-.89-2.43-1.26a31.16,31.16,0,0,0-5.33-2.11q-3.91-1.06-5.67.39l-.26.21-.07.32c-.08.33-1.84,7.94,1,11.58a4.49,4.49,0,0,0,.41.46,3.82,3.82,0,0,0,.75.59,5.57,5.57,0,0,0,3.24.88h.67l.62,0c.57,0,1.16-.06,1.78-.11l1-.1c.81-.08,1.66-.19,2.56-.32s1.57-.23,2.41-.37l.09,0c.81-.14,1.66-.3,2.53-.47l.22,0h0l1.76-.36.71-.15h0a2.58,2.58,0,0,0,.42-.13l.17-.08.16-.09h0l.06,0a.57.57,0,0,0,.16-.11.52.52,0,0,0,.17-.13.57.57,0,0,0,.14-.13l.17-.18.09-.12a.51.51,0,0,0,.11-.16.87.87,0,0,0,.11-.18l.06-.11a1.08,1.08,0,0,0,.08-.19l.06-.19a.19.19,0,0,0,0-.08.86.86,0,0,0,.06-.23,2.61,2.61,0,0,0-.89-2.48A1.78,1.78,0,0,0,99,110.27Zm-4.11,3.46c-1.22.24-2.37.44-3.46.61s-1.85.28-2.71.39h-.1l-.7.08-2,.18-1.1.06-1.16,0a4.1,4.1,0,0,1-.5,0l-.31,0a3.63,3.63,0,0,1-.59-.13l-.26-.1a1.26,1.26,0,0,1-.33-.16,2.8,2.8,0,0,1-.59-.45,2.26,2.26,0,0,1-.25-.28c-1.78-2.25-1.2-7.3-.74-9.5a4.9,4.9,0,0,1,3.19,0c2.44.6,6.12,2.23,11.27,5.38,1,.63,2.16,1.34,3.33,2.11h0a.44.44,0,0,1,.14.13.61.61,0,0,1,.14.52.56.56,0,0,1-.07.19A.55.55,0,0,1,98,113a.73.73,0,0,1-.35.19l-2.16.45-.6.12Zm-30.32-20-.5-.79-1.26-.11.68,1.06L64.14,95l1.26,2,.08-1.87,0-1,0-1-1-.08ZM173.42,72.51a40.82,40.82,0,0,0-7.3,1.85c-.37.12-.75.26-1.14.41s-.79.3-1.19.47A26.13,26.13,0,0,0,154,82c.5-6.38,1.29-19,.34-26-.42-3.09-1.13-4.71-2.29-5.25a2.09,2.09,0,0,0-2.09.21,24.25,24.25,0,0,0-4.56,4.53c-6.43,7.6-21.67,19.89-38,17.72C98.05,72,92.37,65.9,86.87,60c-1.49-1.61-2.91-3.13-4.39-4.55-1.13-1.09-2.08-2.1-2.91-3-2.1-2.24-3.49-3.71-5.27-3.74h0A4.7,4.7,0,0,0,71,50.42a19.31,19.31,0,0,0-3.65,5.32c-3.91,8.29-3.1,19-3,20l-.65,14.75L61.42,87l-1.2-1.89-.13-.1L59,84.16l-10.56-7.9,14.45,33.68c.24.91,2.69,10.08,6.74,21.29l.36,1c.12.32.24.65.37,1,.6,1.6,1.22,3.25,1.88,4.9.2.55.43,1.13.66,1.67,4.6,11.35,9.39,20.39,14.25,26.9l.22.3.68.88c.3.39.61.76.9,1.13,5.36,6.44,10.75,9.69,16.09,9.69a13.74,13.74,0,0,0,2.3-.2c7.19-1.27,14-6.61,20.19-13.67l1-1.22c6.36-7.6,12-17,16.32-25.37.46-.9.92-1.81,1.4-2.79.22-.42.43-.85.65-1.3l.64-1.3s0,0,0,0l.3-.56c3.21-6.7,5.23-11.77,5.6-12.7l7.29-8.78,0-.27s.12-.78.34-2.07c.05-.35.12-.74.19-1.16s.13-.74.2-1.15c.33-1.78.76-4,1.27-6.39,3.25-15.11,7.25-24.31,11-25.23ZM159.59,105.8c-.07.39-.14.77-.2,1.12-.25,1.45-.42,2.5-.5,3l-7.13,8.6-.06.15s-1.89,4.86-5.07,11.6l-.26.54-.3.57s0,.05,0,.08c-.21.44-.41.86-.61,1.26-.82,1.69-1.57,3.18-2.3,4.6-4.34,8.34-9.87,17.63-16.13,25.09-.82,1-1.66,1.94-2.51,2.85-5.45,5.88-11.37,10.19-17.5,11.27-5.74,1-11.72-2.5-17.8-10.43l-.23-.3c-.22-.3-.45-.6-.66-.91s-.6-.82-.9-1.25c-4.29-6.2-8.54-14.47-12.65-24.61-.22-.52-.44-1.07-.65-1.62-.74-1.85-1.43-3.68-2.09-5.47l-.36-1-.36-1c-4.08-11.38-6.45-20.48-6.48-20.59l-11.58-27,5.51,4.12.79,1.24,1.38,2.17,1.5,2.35.38.6.68,1.06L64.14,95l1.26,2,.08-1.87,0-1,0-1,.76-17.35v-.07c0-.11-1-11,2.81-19a17.31,17.31,0,0,1,3.26-4.76,3,3,0,0,1,1.85-1.12h0c.93,0,2.15,1.31,3.84,3.11.85.9,1.82,1.93,3,3.06,1.44,1.38,2.83,2.88,4.3,4.46,5.48,5.88,11.68,12.55,21.74,13.88,17.15,2.26,33.05-10.51,39.74-18.42a24.34,24.34,0,0,1,4.1-4.13.78.78,0,0,1,.18-.09s.7.34,1.16,3.71c1.24,9.08-.67,29.18-.69,29.38l-.42,4.39-.09.94.56-1.11,1.84-3.68c2-3.92,5.71-6.59,9.45-8.38.43-.21.85-.41,1.27-.59h0c.41-.17.8-.34,1.2-.49,1.42-.55,2.78-1,4-1.32-3.13,4-6,12-8.55,23.84-.42,2-.79,3.85-1.08,5.44C159.72,105.09,159.65,105.46,159.59,105.8Zm-20.44-2.23-.08-.31-.25-.21c-1.07-.89-2.74-1.07-5-.56h0q-4.2,1-11.08,5.07-2,1.22-4.32,2.71a2.68,2.68,0,0,0,.9,4.84,72.26,72.26,0,0,0,14.42,2,7.09,7.09,0,0,0,1.33-.11,5.58,5.58,0,0,0,1-.29,4.82,4.82,0,0,0,1.94-1.42c2.35-2.81,1.81-8.11,1.28-11C139.21,103.81,139.15,103.57,139.15,103.57Zm-5.27,11.52h0c-.67,0-1.4,0-2.18-.07l-.74,0c-.43,0-.88-.08-1.34-.13l-.53,0-1.18-.15c-.43-.06-.87-.12-1.33-.2l-1.66-.27q-2.41-.4-5.19-1a.66.66,0,0,1-.51-.59.64.64,0,0,1,.29-.62c1.39-.92,2.68-1.74,3.9-2.46,5.37-3.24,9.09-4.77,11.43-5.18a6.44,6.44,0,0,1,1.23-.13,2.77,2.77,0,0,1,1.23.24c0,.06,0,.13.05.2.78,4.29.46,7.8-.86,9.37A3.15,3.15,0,0,1,133.88,115.09ZM99,110.27c-.51-.34-1-.66-1.5-1L95.35,108l-.73-.44c-.92-.54-1.8-1.05-2.64-1.51s-1.65-.89-2.43-1.26a31.16,31.16,0,0,0-5.33-2.11q-3.91-1.06-5.67.39l-.26.21-.07.32c-.08.33-1.84,7.94,1,11.58a4.49,4.49,0,0,0,.41.46,3.82,3.82,0,0,0,.75.59,5.57,5.57,0,0,0,3.24.88h.67l.62,0c.57,0,1.16-.06,1.78-.11l1-.1c.81-.08,1.66-.19,2.56-.32s1.57-.23,2.41-.37l.09,0c.81-.14,1.66-.3,2.53-.47l.22,0h0l1.76-.36.71-.15h0a2.58,2.58,0,0,0,.42-.13l.17-.08.16-.09h0l.06,0a.57.57,0,0,0,.16-.11.52.52,0,0,0,.17-.13.57.57,0,0,0,.14-.13l.17-.18.09-.12a.51.51,0,0,0,.11-.16.87.87,0,0,0,.11-.18l.06-.11a1.08,1.08,0,0,0,.08-.19l.06-.19a.19.19,0,0,0,0-.08.86.86,0,0,0,.06-.23,2.61,2.61,0,0,0-.89-2.48A1.78,1.78,0,0,0,99,110.27Zm-4.11,3.46c-1.22.24-2.37.44-3.46.61s-1.85.28-2.71.39h-.1l-.7.08-2,.18-1.1.06-1.16,0a4.1,4.1,0,0,1-.5,0l-.31,0a3.63,3.63,0,0,1-.59-.13l-.26-.1a1.26,1.26,0,0,1-.33-.16,2.8,2.8,0,0,1-.59-.45,2.26,2.26,0,0,1-.25-.28c-1.78-2.25-1.2-7.3-.74-9.5a4.9,4.9,0,0,1,3.19,0c2.44.6,6.12,2.23,11.27,5.38,1,.63,2.16,1.34,3.33,2.11h0a.44.44,0,0,1,.14.13.61.61,0,0,1,.14.52.56.56,0,0,1-.07.19A.55.55,0,0,1,98,113a.73.73,0,0,1-.35.19l-2.16.45-.6.12ZM64.57,93l0,.74-.5-.79-1.26-.11.68,1.06L64.14,95l1.26,2,.08-1.87,0-1,0-1Zm34.67,17.5a1.78,1.78,0,0,0-.27-.21c-.51-.34-1-.66-1.5-1L95.35,108l-.73-.44c-.92-.54-1.8-1.05-2.64-1.51s-1.65-.89-2.43-1.26a31.16,31.16,0,0,0-5.33-2.11q-3.91-1.06-5.67.39l-.26.21-.07.32c-.08.33-1.84,7.94,1,11.58a4.49,4.49,0,0,0,.41.46,3.82,3.82,0,0,0,.75.59,5.57,5.57,0,0,0,3.24.88h.67l.62,0c.57,0,1.16-.06,1.78-.11l1-.1c.81-.08,1.66-.19,2.56-.32s1.57-.23,2.41-.37l.09,0c.81-.14,1.66-.3,2.53-.47l.22,0h0l1.76-.36.71-.15h0a2.58,2.58,0,0,0,.42-.13l.17-.08.16-.09h0l.06,0a.57.57,0,0,0,.16-.11.52.52,0,0,0,.17-.13.57.57,0,0,0,.14-.13l.17-.18.09-.12a.51.51,0,0,0,.11-.16.87.87,0,0,0,.11-.18l.06-.11a1.08,1.08,0,0,0,.08-.19l.06-.19a.19.19,0,0,0,0-.08.86.86,0,0,0,.06-.23A2.61,2.61,0,0,0,99.24,110.48Zm-4.38,3.25c-1.22.24-2.37.44-3.46.61s-1.85.28-2.71.39h-.1l-.7.08-2,.18-1.1.06-1.16,0a4.1,4.1,0,0,1-.5,0l-.31,0a3.63,3.63,0,0,1-.59-.13l-.26-.1a1.26,1.26,0,0,1-.33-.16,2.8,2.8,0,0,1-.59-.45,2.26,2.26,0,0,1-.25-.28c-1.78-2.25-1.2-7.3-.74-9.5a4.9,4.9,0,0,1,3.19,0c2.44.6,6.12,2.23,11.27,5.38,1,.63,2.16,1.34,3.33,2.11h0a.44.44,0,0,1,.14.13.61.61,0,0,1,.14.52.56.56,0,0,1-.07.19A.55.55,0,0,1,98,113a.73.73,0,0,1-.35.19l-2.16.45-.6.12Zm44.44-9.5c-.09-.42-.15-.66-.15-.66l-.08-.31-.25-.21c-1.07-.89-2.74-1.07-5-.56h0q-4.2,1-11.08,5.07-2,1.22-4.32,2.71a2.68,2.68,0,0,0,.9,4.84,72.26,72.26,0,0,0,14.42,2,7.09,7.09,0,0,0,1.33-.11,5.58,5.58,0,0,0,1-.29,4.82,4.82,0,0,0,1.94-1.42C140.37,112.46,139.83,107.16,139.3,104.23Zm-5.42,10.86h0c-.67,0-1.4,0-2.18-.07l-.74,0c-.43,0-.88-.08-1.34-.13l-.53,0-1.18-.15c-.43-.06-.87-.12-1.33-.2l-1.66-.27q-2.41-.4-5.19-1a.66.66,0,0,1-.51-.59.64.64,0,0,1,.29-.62c1.39-.92,2.68-1.74,3.9-2.46,5.37-3.24,9.09-4.77,11.43-5.18a6.44,6.44,0,0,1,1.23-.13,2.77,2.77,0,0,1,1.23.24c0,.06,0,.13.05.2.78,4.29.46,7.8-.86,9.37A3.15,3.15,0,0,1,133.88,115.09Zm17.33-25-.09.94.56-1.11ZM139.3,104.23c-.09-.42-.15-.66-.15-.66l-.08-.31-.25-.21c-1.07-.89-2.74-1.07-5-.56h0q-4.2,1-11.08,5.07-2,1.22-4.32,2.71a2.68,2.68,0,0,0,.9,4.84,72.26,72.26,0,0,0,14.42,2,7.09,7.09,0,0,0,1.33-.11,5.58,5.58,0,0,0,1-.29,4.82,4.82,0,0,0,1.94-1.42C140.37,112.46,139.83,107.16,139.3,104.23Zm-5.42,10.86h0c-.67,0-1.4,0-2.18-.07l-.74,0c-.43,0-.88-.08-1.34-.13l-.53,0-1.18-.15c-.43-.06-.87-.12-1.33-.2l-1.66-.27q-2.41-.4-5.19-1a.66.66,0,0,1-.51-.59.64.64,0,0,1,.29-.62c1.39-.92,2.68-1.74,3.9-2.46,5.37-3.24,9.09-4.77,11.43-5.18a6.44,6.44,0,0,1,1.23-.13,2.77,2.77,0,0,1,1.23.24c0,.06,0,.13.05.2.78,4.29.46,7.8-.86,9.37A3.15,3.15,0,0,1,133.88,115.09Zm-34.64-4.61a1.78,1.78,0,0,0-.27-.21c-.51-.34-1-.66-1.5-1L95.35,108l-.73-.44c-.92-.54-1.8-1.05-2.64-1.51s-1.65-.89-2.43-1.26a31.16,31.16,0,0,0-5.33-2.11q-3.91-1.06-5.67.39l-.26.21-.07.32c-.08.33-1.84,7.94,1,11.58a4.49,4.49,0,0,0,.41.46,3.82,3.82,0,0,0,.75.59,5.57,5.57,0,0,0,3.24.88h.67l.62,0c.57,0,1.16-.06,1.78-.11l1-.1c.81-.08,1.66-.19,2.56-.32s1.57-.23,2.41-.37l.09,0c.81-.14,1.66-.3,2.53-.47l.22,0h0l1.76-.36.71-.15h0a2.58,2.58,0,0,0,.42-.13l.17-.08.16-.09h0l.06,0a.57.57,0,0,0,.16-.11.52.52,0,0,0,.17-.13.57.57,0,0,0,.14-.13l.17-.18.09-.12a.51.51,0,0,0,.11-.16.87.87,0,0,0,.11-.18l.06-.11a1.08,1.08,0,0,0,.08-.19l.06-.19a.19.19,0,0,0,0-.08.86.86,0,0,0,.06-.23A2.61,2.61,0,0,0,99.24,110.48Zm-4.38,3.25c-1.22.24-2.37.44-3.46.61s-1.85.28-2.71.39h-.1l-.7.08-2,.18-1.1.06-1.16,0a4.1,4.1,0,0,1-.5,0l-.31,0a3.63,3.63,0,0,1-.59-.13l-.26-.1a1.26,1.26,0,0,1-.33-.16,2.8,2.8,0,0,1-.59-.45,2.26,2.26,0,0,1-.25-.28c-1.78-2.25-1.2-7.3-.74-9.5a4.9,4.9,0,0,1,3.19,0c2.44.6,6.12,2.23,11.27,5.38,1,.63,2.16,1.34,3.33,2.11h0a.44.44,0,0,1,.14.13.61.61,0,0,1,.14.52.56.56,0,0,1-.07.19A.55.55,0,0,1,98,113a.73.73,0,0,1-.35.19l-2.16.45-.6.12ZM64.57,93l0,.74-.5-.79-1.26-.11.68,1.06L64.14,95l1.26,2,.08-1.87,0-1,0-1Zm34.67,17.5a1.78,1.78,0,0,0-.27-.21c-.51-.34-1-.66-1.5-1L95.35,108l-.73-.44c-.92-.54-1.8-1.05-2.64-1.51s-1.65-.89-2.43-1.26a31.16,31.16,0,0,0-5.33-2.11q-3.91-1.06-5.67.39l-.26.21-.07.32c-.08.33-1.84,7.94,1,11.58a4.49,4.49,0,0,0,.41.46,3.82,3.82,0,0,0,.75.59,5.57,5.57,0,0,0,3.24.88h.67l.62,0c.57,0,1.16-.06,1.78-.11l1-.1c.81-.08,1.66-.19,2.56-.32s1.57-.23,2.41-.37l.09,0c.81-.14,1.66-.3,2.53-.47l.22,0h0l1.76-.36.71-.15h0a2.58,2.58,0,0,0,.42-.13l.17-.08.16-.09h0l.06,0a.57.57,0,0,0,.16-.11.52.52,0,0,0,.17-.13.57.57,0,0,0,.14-.13l.17-.18.09-.12a.51.51,0,0,0,.11-.16.87.87,0,0,0,.11-.18l.06-.11a1.08,1.08,0,0,0,.08-.19l.06-.19a.19.19,0,0,0,0-.08.86.86,0,0,0,.06-.23A2.61,2.61,0,0,0,99.24,110.48Zm-4.38,3.25c-1.22.24-2.37.44-3.46.61s-1.85.28-2.71.39h-.1l-.7.08-2,.18-1.1.06-1.16,0a4.1,4.1,0,0,1-.5,0l-.31,0a3.63,3.63,0,0,1-.59-.13l-.26-.1a1.26,1.26,0,0,1-.33-.16,2.8,2.8,0,0,1-.59-.45,2.26,2.26,0,0,1-.25-.28c-1.78-2.25-1.2-7.3-.74-9.5a4.9,4.9,0,0,1,3.19,0c2.44.6,6.12,2.23,11.27,5.38,1,.63,2.16,1.34,3.33,2.11h0a.44.44,0,0,1,.14.13.61.61,0,0,1,.14.52.56.56,0,0,1-.07.19A.55.55,0,0,1,98,113a.73.73,0,0,1-.35.19l-2.16.45-.6.12ZM127,162.38c-.82,1-1.66,1.94-2.51,2.85L126,165c.7-.78,1.4-1.59,2.08-2.42A4.72,4.72,0,0,1,127,162.38Zm12.31-58.15c-.09-.42-.15-.66-.15-.66l-.08-.31-.25-.21c-1.07-.89-2.74-1.07-5-.56h0q-4.2,1-11.08,5.07-2,1.22-4.32,2.71a2.68,2.68,0,0,0,.9,4.84,72.26,72.26,0,0,0,14.42,2,7.09,7.09,0,0,0,1.33-.11,5.58,5.58,0,0,0,1-.29,4.82,4.82,0,0,0,1.94-1.42C140.37,112.46,139.83,107.16,139.3,104.23Zm-5.42,10.86h0c-.67,0-1.4,0-2.18-.07l-.74,0c-.43,0-.88-.08-1.34-.13l-.53,0-1.18-.15c-.43-.06-.87-.12-1.33-.2l-1.66-.27q-2.41-.4-5.19-1a.66.66,0,0,1-.51-.59.64.64,0,0,1,.29-.62c1.39-.92,2.68-1.74,3.9-2.46,5.37-3.24,9.09-4.77,11.43-5.18a6.44,6.44,0,0,1,1.23-.13,2.77,2.77,0,0,1,1.23.24c0,.06,0,.13.05.2.78,4.29.46,7.8-.86,9.37A3.15,3.15,0,0,1,133.88,115.09Zm17.33-25-.09.94.56-1.11ZM139.3,104.23c-.09-.42-.15-.66-.15-.66l-.08-.31-.25-.21c-1.07-.89-2.74-1.07-5-.56h0q-4.2,1-11.08,5.07-2,1.22-4.32,2.71a2.68,2.68,0,0,0,.9,4.84,72.26,72.26,0,0,0,14.42,2,7.09,7.09,0,0,0,1.33-.11,5.58,5.58,0,0,0,1-.29,4.82,4.82,0,0,0,1.94-1.42C140.37,112.46,139.83,107.16,139.3,104.23Zm-5.42,10.86h0c-.67,0-1.4,0-2.18-.07l-.74,0c-.43,0-.88-.08-1.34-.13l-.53,0-1.18-.15c-.43-.06-.87-.12-1.33-.2l-1.66-.27q-2.41-.4-5.19-1a.66.66,0,0,1-.51-.59.64.64,0,0,1,.29-.62c1.39-.92,2.68-1.74,3.9-2.46,5.37-3.24,9.09-4.77,11.43-5.18a6.44,6.44,0,0,1,1.23-.13,2.77,2.77,0,0,1,1.23.24c0,.06,0,.13.05.2.78,4.29.46,7.8-.86,9.37A3.15,3.15,0,0,1,133.88,115.09Zm-34.64-4.61a1.78,1.78,0,0,0-.27-.21c-.51-.34-1-.66-1.5-1L95.35,108l-.73-.44c-.92-.54-1.8-1.05-2.64-1.51s-1.65-.89-2.43-1.26a31.16,31.16,0,0,0-5.33-2.11q-3.91-1.06-5.67.39l-.26.21-.07.32c-.08.33-1.84,7.94,1,11.58a4.49,4.49,0,0,0,.41.46,3.82,3.82,0,0,0,.75.59,5.57,5.57,0,0,0,3.24.88h.67l.62,0c.57,0,1.16-.06,1.78-.11l1-.1c.81-.08,1.66-.19,2.56-.32s1.57-.23,2.41-.37l.09,0c.81-.14,1.66-.3,2.53-.47l.22,0h0l1.76-.36.71-.15h0a2.58,2.58,0,0,0,.42-.13l.17-.08.16-.09h0l.06,0a.57.57,0,0,0,.16-.11.52.52,0,0,0,.17-.13.57.57,0,0,0,.14-.13l.17-.18.09-.12a.51.51,0,0,0,.11-.16.87.87,0,0,0,.11-.18l.06-.11a1.08,1.08,0,0,0,.08-.19l.06-.19a.19.19,0,0,0,0-.08.86.86,0,0,0,.06-.23A2.61,2.61,0,0,0,99.24,110.48Zm-4.38,3.25c-1.22.24-2.37.44-3.46.61s-1.85.28-2.71.39h-.1l-.7.08-2,.18-1.1.06-1.16,0a4.1,4.1,0,0,1-.5,0l-.31,0a3.63,3.63,0,0,1-.59-.13l-.26-.1a1.26,1.26,0,0,1-.33-.16,2.8,2.8,0,0,1-.59-.45,2.26,2.26,0,0,1-.25-.28c-1.78-2.25-1.2-7.3-.74-9.5a4.9,4.9,0,0,1,3.19,0c2.44.6,6.12,2.23,11.27,5.38,1,.63,2.16,1.34,3.33,2.11h0a.44.44,0,0,1,.14.13.61.61,0,0,1,.14.52.56.56,0,0,1-.07.19A.55.55,0,0,1,98,113a.73.73,0,0,1-.35.19l-2.16.45-.6.12ZM64.57,93l0,.74-.5-.79-1.26-.11.68,1.06L64.14,95l1.26,2,.08-1.87,0-1,0-1Zm34.67,17.5a1.78,1.78,0,0,0-.27-.21c-.51-.34-1-.66-1.5-1L95.35,108l-.73-.44c-.92-.54-1.8-1.05-2.64-1.51s-1.65-.89-2.43-1.26a31.16,31.16,0,0,0-5.33-2.11q-3.91-1.06-5.67.39l-.26.21-.07.32c-.08.33-1.84,7.94,1,11.58a4.49,4.49,0,0,0,.41.46,3.82,3.82,0,0,0,.75.59,5.57,5.57,0,0,0,3.24.88h.67l.62,0c.57,0,1.16-.06,1.78-.11l1-.1c.81-.08,1.66-.19,2.56-.32s1.57-.23,2.41-.37l.09,0c.81-.14,1.66-.3,2.53-.47l.22,0h0l1.76-.36.71-.15h0a2.58,2.58,0,0,0,.42-.13l.17-.08.16-.09h0l.06,0a.57.57,0,0,0,.16-.11.52.52,0,0,0,.17-.13.57.57,0,0,0,.14-.13l.17-.18.09-.12a.51.51,0,0,0,.11-.16.87.87,0,0,0,.11-.18l.06-.11a1.08,1.08,0,0,0,.08-.19l.06-.19a.19.19,0,0,0,0-.08.86.86,0,0,0,.06-.23A2.61,2.61,0,0,0,99.24,110.48Zm-4.38,3.25c-1.22.24-2.37.44-3.46.61s-1.85.28-2.71.39h-.1l-.7.08-2,.18-1.1.06-1.16,0a4.1,4.1,0,0,1-.5,0l-.31,0a3.63,3.63,0,0,1-.59-.13l-.26-.1a1.26,1.26,0,0,1-.33-.16,2.8,2.8,0,0,1-.59-.45,2.26,2.26,0,0,1-.25-.28c-1.78-2.25-1.2-7.3-.74-9.5a4.9,4.9,0,0,1,3.19,0c2.44.6,6.12,2.23,11.27,5.38,1,.63,2.16,1.34,3.33,2.11h0a.44.44,0,0,1,.14.13.61.61,0,0,1,.14.52.56.56,0,0,1-.07.19A.55.55,0,0,1,98,113a.73.73,0,0,1-.35.19l-2.16.45-.6.12ZM127,162.38c-.82,1-1.66,1.94-2.51,2.85L126,165c.7-.78,1.4-1.59,2.08-2.42A4.72,4.72,0,0,1,127,162.38Zm12.31-58.15c-.09-.42-.15-.66-.15-.66l-.08-.31-.25-.21c-1.07-.89-2.74-1.07-5-.56h0q-4.2,1-11.08,5.07-2,1.22-4.32,2.71a2.68,2.68,0,0,0,.9,4.84,72.26,72.26,0,0,0,14.42,2,7.09,7.09,0,0,0,1.33-.11,5.58,5.58,0,0,0,1-.29,4.82,4.82,0,0,0,1.94-1.42C140.37,112.46,139.83,107.16,139.3,104.23Zm-5.42,10.86h0c-.67,0-1.4,0-2.18-.07l-.74,0c-.43,0-.88-.08-1.34-.13l-.53,0-1.18-.15c-.43-.06-.87-.12-1.33-.2l-1.66-.27q-2.41-.4-5.19-1a.66.66,0,0,1-.51-.59.64.64,0,0,1,.29-.62c1.39-.92,2.68-1.74,3.9-2.46,5.37-3.24,9.09-4.77,11.43-5.18a6.44,6.44,0,0,1,1.23-.13,2.77,2.77,0,0,1,1.23.24c0,.06,0,.13.05.2.78,4.29.46,7.8-.86,9.37A3.15,3.15,0,0,1,133.88,115.09Zm17.33-25-.09.94.56-1.11ZM139.3,104.23c-.09-.42-.15-.66-.15-.66l-.08-.31-.25-.21c-1.07-.89-2.74-1.07-5-.56h0q-4.2,1-11.08,5.07-2,1.22-4.32,2.71a2.68,2.68,0,0,0,.9,4.84,72.26,72.26,0,0,0,14.42,2,7.09,7.09,0,0,0,1.33-.11,5.58,5.58,0,0,0,1-.29,4.82,4.82,0,0,0,1.94-1.42C140.37,112.46,139.83,107.16,139.3,104.23Zm-5.42,10.86h0c-.67,0-1.4,0-2.18-.07l-.74,0c-.43,0-.88-.08-1.34-.13l-.53,0-1.18-.15c-.43-.06-.87-.12-1.33-.2l-1.66-.27q-2.41-.4-5.19-1a.66.66,0,0,1-.51-.59.64.64,0,0,1,.29-.62c1.39-.92,2.68-1.74,3.9-2.46,5.37-3.24,9.09-4.77,11.43-5.18a6.44,6.44,0,0,1,1.23-.13,2.77,2.77,0,0,1,1.23.24c0,.06,0,.13.05.2.78,4.29.46,7.8-.86,9.37A3.15,3.15,0,0,1,133.88,115.09Zm-34.64-4.61a1.78,1.78,0,0,0-.27-.21c-.51-.34-1-.66-1.5-1L95.35,108l-.73-.44c-.92-.54-1.8-1.05-2.64-1.51s-1.65-.89-2.43-1.26a31.16,31.16,0,0,0-5.33-2.11q-3.91-1.06-5.67.39l-.26.21-.07.32c-.08.33-1.84,7.94,1,11.58a4.49,4.49,0,0,0,.41.46,3.82,3.82,0,0,0,.75.59,5.57,5.57,0,0,0,3.24.88h.67l.62,0c.57,0,1.16-.06,1.78-.11l1-.1c.81-.08,1.66-.19,2.56-.32s1.57-.23,2.41-.37l.09,0c.81-.14,1.66-.3,2.53-.47l.22,0h0l1.76-.36.71-.15h0a2.58,2.58,0,0,0,.42-.13l.17-.08.16-.09h0l.06,0a.57.57,0,0,0,.16-.11.52.52,0,0,0,.17-.13.57.57,0,0,0,.14-.13l.17-.18.09-.12a.51.51,0,0,0,.11-.16.87.87,0,0,0,.11-.18l.06-.11a1.08,1.08,0,0,0,.08-.19l.06-.19a.19.19,0,0,0,0-.08.86.86,0,0,0,.06-.23A2.61,2.61,0,0,0,99.24,110.48Zm-4.38,3.25c-1.22.24-2.37.44-3.46.61s-1.85.28-2.71.39h-.1l-.7.08-2,.18-1.1.06-1.16,0a4.1,4.1,0,0,1-.5,0l-.31,0a3.63,3.63,0,0,1-.59-.13l-.26-.1a1.26,1.26,0,0,1-.33-.16,2.8,2.8,0,0,1-.59-.45,2.26,2.26,0,0,1-.25-.28c-1.78-2.25-1.2-7.3-.74-9.5a4.9,4.9,0,0,1,3.19,0c2.44.6,6.12,2.23,11.27,5.38,1,.63,2.16,1.34,3.33,2.11h0a.44.44,0,0,1,.14.13.61.61,0,0,1,.14.52.56.56,0,0,1-.07.19A.55.55,0,0,1,98,113a.73.73,0,0,1-.35.19l-2.16.45-.6.12ZM64.57,93l0,.74-.5-.79-1.26-.11.68,1.06L64.14,95l1.26,2,.08-1.87,0-1,0-1Zm34.67,17.5a1.78,1.78,0,0,0-.27-.21c-.51-.34-1-.66-1.5-1L95.35,108l-.73-.44c-.92-.54-1.8-1.05-2.64-1.51s-1.65-.89-2.43-1.26a31.16,31.16,0,0,0-5.33-2.11q-3.91-1.06-5.67.39l-.26.21-.07.32c-.08.33-1.84,7.94,1,11.58a4.49,4.49,0,0,0,.41.46,3.82,3.82,0,0,0,.75.59,5.57,5.57,0,0,0,3.24.88h.67l.62,0c.57,0,1.16-.06,1.78-.11l1-.1c.81-.08,1.66-.19,2.56-.32s1.57-.23,2.41-.37l.09,0c.81-.14,1.66-.3,2.53-.47l.22,0h0l1.76-.36.71-.15h0a2.58,2.58,0,0,0,.42-.13l.17-.08.16-.09h0l.06,0a.57.57,0,0,0,.16-.11.52.52,0,0,0,.17-.13.57.57,0,0,0,.14-.13l.17-.18.09-.12a.51.51,0,0,0,.11-.16.87.87,0,0,0,.11-.18l.06-.11a1.08,1.08,0,0,0,.08-.19l.06-.19a.19.19,0,0,0,0-.08.86.86,0,0,0,.06-.23A2.61,2.61,0,0,0,99.24,110.48Zm-4.38,3.25c-1.22.24-2.37.44-3.46.61s-1.85.28-2.71.39h-.1l-.7.08-2,.18-1.1.06-1.16,0a4.1,4.1,0,0,1-.5,0l-.31,0a3.63,3.63,0,0,1-.59-.13l-.26-.1a1.26,1.26,0,0,1-.33-.16,2.8,2.8,0,0,1-.59-.45,2.26,2.26,0,0,1-.25-.28c-1.78-2.25-1.2-7.3-.74-9.5a4.9,4.9,0,0,1,3.19,0c2.44.6,6.12,2.23,11.27,5.38,1,.63,2.16,1.34,3.33,2.11h0a.44.44,0,0,1,.14.13.61.61,0,0,1,.14.52.56.56,0,0,1-.07.19A.55.55,0,0,1,98,113a.73.73,0,0,1-.35.19l-2.16.45-.6.12Zm44.44-9.5c-.09-.42-.15-.66-.15-.66l-.08-.31-.25-.21c-1.07-.89-2.74-1.07-5-.56h0q-4.2,1-11.08,5.07-2,1.22-4.32,2.71a2.68,2.68,0,0,0,.9,4.84,72.26,72.26,0,0,0,14.42,2,7.09,7.09,0,0,0,1.33-.11,5.58,5.58,0,0,0,1-.29,4.82,4.82,0,0,0,1.94-1.42C140.37,112.46,139.83,107.16,139.3,104.23Zm-5.42,10.86h0c-.67,0-1.4,0-2.18-.07l-.74,0c-.43,0-.88-.08-1.34-.13l-.53,0-1.18-.15c-.43-.06-.87-.12-1.33-.2l-1.66-.27q-2.41-.4-5.19-1a.66.66,0,0,1-.51-.59.64.64,0,0,1,.29-.62c1.39-.92,2.68-1.74,3.9-2.46,5.37-3.24,9.09-4.77,11.43-5.18a6.44,6.44,0,0,1,1.23-.13,2.77,2.77,0,0,1,1.23.24c0,.06,0,.13.05.2.78,4.29.46,7.8-.86,9.37A3.15,3.15,0,0,1,133.88,115.09Zm17.33-25-.09.94.56-1.11ZM139.3,104.23c-.09-.42-.15-.66-.15-.66l-.08-.31-.25-.21c-1.07-.89-2.74-1.07-5-.56h0q-4.2,1-11.08,5.07-2,1.22-4.32,2.71a2.68,2.68,0,0,0,.9,4.84,72.26,72.26,0,0,0,14.42,2,7.09,7.09,0,0,0,1.33-.11,5.58,5.58,0,0,0,1-.29,4.82,4.82,0,0,0,1.94-1.42C140.37,112.46,139.83,107.16,139.3,104.23Zm-5.42,10.86h0c-.67,0-1.4,0-2.18-.07l-.74,0c-.43,0-.88-.08-1.34-.13l-.53,0-1.18-.15c-.43-.06-.87-.12-1.33-.2l-1.66-.27q-2.41-.4-5.19-1a.66.66,0,0,1-.51-.59.64.64,0,0,1,.29-.62c1.39-.92,2.68-1.74,3.9-2.46,5.37-3.24,9.09-4.77,11.43-5.18a6.44,6.44,0,0,1,1.23-.13,2.77,2.77,0,0,1,1.23.24c0,.06,0,.13.05.2.78,4.29.46,7.8-.86,9.37A3.15,3.15,0,0,1,133.88,115.09Zm-34.64-4.61a1.78,1.78,0,0,0-.27-.21c-.51-.34-1-.66-1.5-1L95.35,108l-.73-.44c-.92-.54-1.8-1.05-2.64-1.51s-1.65-.89-2.43-1.26a31.16,31.16,0,0,0-5.33-2.11q-3.91-1.06-5.67.39l-.26.21-.07.32c-.08.33-1.84,7.94,1,11.58a4.49,4.49,0,0,0,.41.46,3.82,3.82,0,0,0,.75.59,5.57,5.57,0,0,0,3.24.88h.67l.62,0c.57,0,1.16-.06,1.78-.11l1-.1c.81-.08,1.66-.19,2.56-.32s1.57-.23,2.41-.37l.09,0c.81-.14,1.66-.3,2.53-.47l.22,0h0l1.76-.36.71-.15h0a2.58,2.58,0,0,0,.42-.13l.17-.08.16-.09h0l.06,0a.57.57,0,0,0,.16-.11.52.52,0,0,0,.17-.13.57.57,0,0,0,.14-.13l.17-.18.09-.12a.51.51,0,0,0,.11-.16.87.87,0,0,0,.11-.18l.06-.11a1.08,1.08,0,0,0,.08-.19l.06-.19a.19.19,0,0,0,0-.08.86.86,0,0,0,.06-.23A2.61,2.61,0,0,0,99.24,110.48Zm-4.38,3.25c-1.22.24-2.37.44-3.46.61s-1.85.28-2.71.39h-.1l-.7.08-2,.18-1.1.06-1.16,0a4.1,4.1,0,0,1-.5,0l-.31,0a3.63,3.63,0,0,1-.59-.13l-.26-.1a1.26,1.26,0,0,1-.33-.16,2.8,2.8,0,0,1-.59-.45,2.26,2.26,0,0,1-.25-.28c-1.78-2.25-1.2-7.3-.74-9.5a4.9,4.9,0,0,1,3.19,0c2.44.6,6.12,2.23,11.27,5.38,1,.63,2.16,1.34,3.33,2.11h0a.44.44,0,0,1,.14.13.61.61,0,0,1,.14.52.56.56,0,0,1-.07.19A.55.55,0,0,1,98,113a.73.73,0,0,1-.35.19l-2.16.45-.6.12ZM64.57,93l0,.74-.5-.79-1.26-.11.68,1.06L64.14,95l1.26,2,.08-1.87,0-1,0-1Zm34.67,17.5a1.78,1.78,0,0,0-.27-.21c-.51-.34-1-.66-1.5-1L95.35,108l-.73-.44c-.92-.54-1.8-1.05-2.64-1.51s-1.65-.89-2.43-1.26a31.16,31.16,0,0,0-5.33-2.11q-3.91-1.06-5.67.39l-.26.21-.07.32c-.08.33-1.84,7.94,1,11.58a4.49,4.49,0,0,0,.41.46,3.82,3.82,0,0,0,.75.59,5.57,5.57,0,0,0,3.24.88h.67l.62,0c.57,0,1.16-.06,1.78-.11l1-.1c.81-.08,1.66-.19,2.56-.32s1.57-.23,2.41-.37l.09,0c.81-.14,1.66-.3,2.53-.47l.22,0h0l1.76-.36.71-.15h0a2.58,2.58,0,0,0,.42-.13l.17-.08.16-.09h0l.06,0a.57.57,0,0,0,.16-.11.52.52,0,0,0,.17-.13.57.57,0,0,0,.14-.13l.17-.18.09-.12a.51.51,0,0,0,.11-.16.87.87,0,0,0,.11-.18l.06-.11a1.08,1.08,0,0,0,.08-.19l.06-.19a.19.19,0,0,0,0-.08.86.86,0,0,0,.06-.23A2.61,2.61,0,0,0,99.24,110.48Zm-4.38,3.25c-1.22.24-2.37.44-3.46.61s-1.85.28-2.71.39h-.1l-.7.08-2,.18-1.1.06-1.16,0a4.1,4.1,0,0,1-.5,0l-.31,0a3.63,3.63,0,0,1-.59-.13l-.26-.1a1.26,1.26,0,0,1-.33-.16,2.8,2.8,0,0,1-.59-.45,2.26,2.26,0,0,1-.25-.28c-1.78-2.25-1.2-7.3-.74-9.5a4.9,4.9,0,0,1,3.19,0c2.44.6,6.12,2.23,11.27,5.38,1,.63,2.16,1.34,3.33,2.11h0a.44.44,0,0,1,.14.13.61.61,0,0,1,.14.52.56.56,0,0,1-.07.19A.55.55,0,0,1,98,113a.73.73,0,0,1-.35.19l-2.16.45-.6.12Zm44.44-9.5c-.09-.42-.15-.66-.15-.66l-.08-.31-.25-.21c-1.07-.89-2.74-1.07-5-.56h0q-4.2,1-11.08,5.07-2,1.22-4.32,2.71a2.68,2.68,0,0,0,.9,4.84,72.26,72.26,0,0,0,14.42,2,7.09,7.09,0,0,0,1.33-.11,5.58,5.58,0,0,0,1-.29,4.82,4.82,0,0,0,1.94-1.42C140.37,112.46,139.83,107.16,139.3,104.23Zm-5.42,10.86h0c-.67,0-1.4,0-2.18-.07l-.74,0c-.43,0-.88-.08-1.34-.13l-.53,0-1.18-.15c-.43-.06-.87-.12-1.33-.2l-1.66-.27q-2.41-.4-5.19-1a.66.66,0,0,1-.51-.59.64.64,0,0,1,.29-.62c1.39-.92,2.68-1.74,3.9-2.46,5.37-3.24,9.09-4.77,11.43-5.18a6.44,6.44,0,0,1,1.23-.13,2.77,2.77,0,0,1,1.23.24c0,.06,0,.13.05.2.78,4.29.46,7.8-.86,9.37A3.15,3.15,0,0,1,133.88,115.09Zm17.33-25-.09.94.56-1.11ZM139.3,104.23c-.09-.42-.15-.66-.15-.66l-.08-.31-.25-.21c-1.07-.89-2.74-1.07-5-.56h0q-4.2,1-11.08,5.07-2,1.22-4.32,2.71a2.68,2.68,0,0,0,.9,4.84,72.26,72.26,0,0,0,14.42,2,7.09,7.09,0,0,0,1.33-.11,5.58,5.58,0,0,0,1-.29,4.82,4.82,0,0,0,1.94-1.42C140.37,112.46,139.83,107.16,139.3,104.23Zm-5.42,10.86h0c-.67,0-1.4,0-2.18-.07l-.74,0c-.43,0-.88-.08-1.34-.13l-.53,0-1.18-.15c-.43-.06-.87-.12-1.33-.2l-1.66-.27q-2.41-.4-5.19-1a.66.66,0,0,1-.51-.59.64.64,0,0,1,.29-.62c1.39-.92,2.68-1.74,3.9-2.46,5.37-3.24,9.09-4.77,11.43-5.18a6.44,6.44,0,0,1,1.23-.13,2.77,2.77,0,0,1,1.23.24c0,.06,0,.13.05.2.78,4.29.46,7.8-.86,9.37A3.15,3.15,0,0,1,133.88,115.09Zm-34.64-4.61a1.78,1.78,0,0,0-.27-.21c-.51-.34-1-.66-1.5-1L95.35,108l-.73-.44c-.92-.54-1.8-1.05-2.64-1.51s-1.65-.89-2.43-1.26a31.16,31.16,0,0,0-5.33-2.11q-3.91-1.06-5.67.39l-.26.21-.07.32c-.08.33-1.84,7.94,1,11.58a4.49,4.49,0,0,0,.41.46,3.82,3.82,0,0,0,.75.59,5.57,5.57,0,0,0,3.24.88h.67l.62,0c.57,0,1.16-.06,1.78-.11l1-.1c.81-.08,1.66-.19,2.56-.32s1.57-.23,2.41-.37l.09,0c.81-.14,1.66-.3,2.53-.47l.22,0h0l1.76-.36.71-.15h0a2.58,2.58,0,0,0,.42-.13l.17-.08.16-.09h0l.06,0a.57.57,0,0,0,.16-.11.52.52,0,0,0,.17-.13.57.57,0,0,0,.14-.13l.17-.18.09-.12a.51.51,0,0,0,.11-.16.87.87,0,0,0,.11-.18l.06-.11a1.08,1.08,0,0,0,.08-.19l.06-.19a.19.19,0,0,0,0-.08.86.86,0,0,0,.06-.23A2.61,2.61,0,0,0,99.24,110.48Zm-4.38,3.25c-1.22.24-2.37.44-3.46.61s-1.85.28-2.71.39h-.1l-.7.08-2,.18-1.1.06-1.16,0a4.1,4.1,0,0,1-.5,0l-.31,0a3.63,3.63,0,0,1-.59-.13l-.26-.1a1.26,1.26,0,0,1-.33-.16,2.8,2.8,0,0,1-.59-.45,2.26,2.26,0,0,1-.25-.28c-1.78-2.25-1.2-7.3-.74-9.5a4.9,4.9,0,0,1,3.19,0c2.44.6,6.12,2.23,11.27,5.38,1,.63,2.16,1.34,3.33,2.11h0a.44.44,0,0,1,.14.13.61.61,0,0,1,.14.52.56.56,0,0,1-.07.19A.55.55,0,0,1,98,113a.73.73,0,0,1-.35.19l-2.16.45-.6.12Zm4.38-3.25a1.78,1.78,0,0,0-.27-.21c-.51-.34-1-.66-1.5-1L95.35,108l-.73-.44c-.92-.54-1.8-1.05-2.64-1.51s-1.65-.89-2.43-1.26a31.16,31.16,0,0,0-5.33-2.11q-3.91-1.06-5.67.39l-.26.21-.07.32c-.08.33-1.84,7.94,1,11.58a4.49,4.49,0,0,0,.41.46,3.82,3.82,0,0,0,.75.59,5.57,5.57,0,0,0,3.24.88h.67l.62,0c.57,0,1.16-.06,1.78-.11l1-.1c.81-.08,1.66-.19,2.56-.32s1.57-.23,2.41-.37l.09,0c.81-.14,1.66-.3,2.53-.47l.22,0h0l1.76-.36.71-.15h0a2.58,2.58,0,0,0,.42-.13l.17-.08.16-.09h0l.06,0a.57.57,0,0,0,.16-.11.52.52,0,0,0,.17-.13.57.57,0,0,0,.14-.13l.17-.18.09-.12a.51.51,0,0,0,.11-.16.87.87,0,0,0,.11-.18l.06-.11a1.08,1.08,0,0,0,.08-.19l.06-.19a.19.19,0,0,0,0-.08.86.86,0,0,0,.06-.23A2.61,2.61,0,0,0,99.24,110.48Zm-4.38,3.25c-1.22.24-2.37.44-3.46.61s-1.85.28-2.71.39h-.1l-.7.08-2,.18-1.1.06-1.16,0a4.1,4.1,0,0,1-.5,0l-.31,0a3.63,3.63,0,0,1-.59-.13l-.26-.1a1.26,1.26,0,0,1-.33-.16,2.8,2.8,0,0,1-.59-.45,2.26,2.26,0,0,1-.25-.28c-1.78-2.25-1.2-7.3-.74-9.5a4.9,4.9,0,0,1,3.19,0c2.44.6,6.12,2.23,11.27,5.38,1,.63,2.16,1.34,3.33,2.11h0a.44.44,0,0,1,.14.13.61.61,0,0,1,.14.52.56.56,0,0,1-.07.19A.55.55,0,0,1,98,113a.73.73,0,0,1-.35.19l-2.16.45-.6.12Zm44.44-9.5c-.09-.42-.15-.66-.15-.66l-.08-.31-.25-.21c-1.07-.89-2.74-1.07-5-.56h0q-4.2,1-11.08,5.07-2,1.22-4.32,2.71a2.68,2.68,0,0,0,.9,4.84,72.26,72.26,0,0,0,14.42,2,7.09,7.09,0,0,0,1.33-.11,5.58,5.58,0,0,0,1-.29,4.82,4.82,0,0,0,1.94-1.42C140.37,112.46,139.83,107.16,139.3,104.23Zm-5.42,10.86h0c-.67,0-1.4,0-2.18-.07l-.74,0c-.43,0-.88-.08-1.34-.13l-.53,0-1.18-.15c-.43-.06-.87-.12-1.33-.2l-1.66-.27q-2.41-.4-5.19-1a.66.66,0,0,1-.51-.59.64.64,0,0,1,.29-.62c1.39-.92,2.68-1.74,3.9-2.46,5.37-3.24,9.09-4.77,11.43-5.18a6.44,6.44,0,0,1,1.23-.13,2.77,2.77,0,0,1,1.23.24c0,.06,0,.13.05.2.78,4.29.46,7.8-.86,9.37A3.15,3.15,0,0,1,133.88,115.09Zm5.42-10.86c-.09-.42-.15-.66-.15-.66l-.08-.31-.25-.21c-1.07-.89-2.74-1.07-5-.56h0q-4.2,1-11.08,5.07-2,1.22-4.32,2.71a2.68,2.68,0,0,0,.9,4.84,72.26,72.26,0,0,0,14.42,2,7.09,7.09,0,0,0,1.33-.11,5.58,5.58,0,0,0,1-.29,4.82,4.82,0,0,0,1.94-1.42C140.37,112.46,139.83,107.16,139.3,104.23Zm-5.42,10.86h0c-.67,0-1.4,0-2.18-.07l-.74,0c-.43,0-.88-.08-1.34-.13l-.53,0-1.18-.15c-.43-.06-.87-.12-1.33-.2l-1.66-.27q-2.41-.4-5.19-1a.66.66,0,0,1-.51-.59.64.64,0,0,1,.29-.62c1.39-.92,2.68-1.74,3.9-2.46,5.37-3.24,9.09-4.77,11.43-5.18a6.44,6.44,0,0,1,1.23-.13,2.77,2.77,0,0,1,1.23.24c0,.06,0,.13.05.2.78,4.29.46,7.8-.86,9.37A3.15,3.15,0,0,1,133.88,115.09Zm-34.64-4.61a1.78,1.78,0,0,0-.27-.21c-.51-.34-1-.66-1.5-1L95.35,108l-.73-.44c-.92-.54-1.8-1.05-2.64-1.51s-1.65-.89-2.43-1.26a31.16,31.16,0,0,0-5.33-2.11q-3.91-1.06-5.67.39l-.26.21-.07.32c-.08.33-1.84,7.94,1,11.58a4.49,4.49,0,0,0,.41.46,3.82,3.82,0,0,0,.75.59,5.57,5.57,0,0,0,3.24.88h.67l.62,0c.57,0,1.16-.06,1.78-.11l1-.1c.81-.08,1.66-.19,2.56-.32s1.57-.23,2.41-.37l.09,0c.81-.14,1.66-.3,2.53-.47l.22,0h0l1.76-.36.71-.15h0a2.58,2.58,0,0,0,.42-.13l.17-.08.16-.09h0l.06,0a.57.57,0,0,0,.16-.11.52.52,0,0,0,.17-.13.57.57,0,0,0,.14-.13l.17-.18.09-.12a.51.51,0,0,0,.11-.16.87.87,0,0,0,.11-.18l.06-.11a1.08,1.08,0,0,0,.08-.19l.06-.19a.19.19,0,0,0,0-.08.86.86,0,0,0,.06-.23A2.61,2.61,0,0,0,99.24,110.48Zm-4.38,3.25c-1.22.24-2.37.44-3.46.61s-1.85.28-2.71.39h-.1l-.7.08-2,.18-1.1.06-1.16,0a4.1,4.1,0,0,1-.5,0l-.31,0a3.63,3.63,0,0,1-.59-.13l-.26-.1a1.26,1.26,0,0,1-.33-.16,2.8,2.8,0,0,1-.59-.45,2.26,2.26,0,0,1-.25-.28c-1.78-2.25-1.2-7.3-.74-9.5a4.9,4.9,0,0,1,3.19,0c2.44.6,6.12,2.23,11.27,5.38,1,.63,2.16,1.34,3.33,2.11h0a.44.44,0,0,1,.14.13.61.61,0,0,1,.14.52.56.56,0,0,1-.07.19A.55.55,0,0,1,98,113a.73.73,0,0,1-.35.19l-2.16.45-.6.12Zm4.38-3.25a1.78,1.78,0,0,0-.27-.21c-.51-.34-1-.66-1.5-1L95.35,108l-.73-.44c-.92-.54-1.8-1.05-2.64-1.51s-1.65-.89-2.43-1.26a31.16,31.16,0,0,0-5.33-2.11q-3.91-1.06-5.67.39l-.26.21-.07.32c-.08.33-1.84,7.94,1,11.58a4.49,4.49,0,0,0,.41.46,3.82,3.82,0,0,0,.75.59,5.57,5.57,0,0,0,3.24.88h.67l.62,0c.57,0,1.16-.06,1.78-.11l1-.1c.81-.08,1.66-.19,2.56-.32s1.57-.23,2.41-.37l.09,0c.81-.14,1.66-.3,2.53-.47l.22,0h0l1.76-.36.71-.15h0a2.58,2.58,0,0,0,.42-.13l.17-.08.16-.09h0l.06,0a.57.57,0,0,0,.16-.11.52.52,0,0,0,.17-.13.57.57,0,0,0,.14-.13l.17-.18.09-.12a.51.51,0,0,0,.11-.16.87.87,0,0,0,.11-.18l.06-.11a1.08,1.08,0,0,0,.08-.19l.06-.19a.19.19,0,0,0,0-.08.86.86,0,0,0,.06-.23A2.61,2.61,0,0,0,99.24,110.48Zm-4.38,3.25c-1.22.24-2.37.44-3.46.61s-1.85.28-2.71.39h-.1l-.7.08-2,.18-1.1.06-1.16,0a4.1,4.1,0,0,1-.5,0l-.31,0a3.63,3.63,0,0,1-.59-.13l-.26-.1a1.26,1.26,0,0,1-.33-.16,2.8,2.8,0,0,1-.59-.45,2.26,2.26,0,0,1-.25-.28c-1.78-2.25-1.2-7.3-.74-9.5a4.9,4.9,0,0,1,3.19,0c2.44.6,6.12,2.23,11.27,5.38,1,.63,2.16,1.34,3.33,2.11h0a.44.44,0,0,1,.14.13.61.61,0,0,1,.14.52.56.56,0,0,1-.07.19A.55.55,0,0,1,98,113a.73.73,0,0,1-.35.19l-2.16.45-.6.12Zm44.44-9.5c-.09-.42-.15-.66-.15-.66l-.08-.31-.25-.21c-1.07-.89-2.74-1.07-5-.56h0q-4.2,1-11.08,5.07-2,1.22-4.32,2.71a2.68,2.68,0,0,0,.9,4.84,72.26,72.26,0,0,0,14.42,2,7.09,7.09,0,0,0,1.33-.11,5.58,5.58,0,0,0,1-.29,4.82,4.82,0,0,0,1.94-1.42C140.37,112.46,139.83,107.16,139.3,104.23Zm-5.42,10.86h0c-.67,0-1.4,0-2.18-.07l-.74,0c-.43,0-.88-.08-1.34-.13l-.53,0-1.18-.15c-.43-.06-.87-.12-1.33-.2l-1.66-.27q-2.41-.4-5.19-1a.66.66,0,0,1-.51-.59.64.64,0,0,1,.29-.62c1.39-.92,2.68-1.74,3.9-2.46,5.37-3.24,9.09-4.77,11.43-5.18a6.44,6.44,0,0,1,1.23-.13,2.77,2.77,0,0,1,1.23.24c0,.06,0,.13.05.2.78,4.29.46,7.8-.86,9.37A3.15,3.15,0,0,1,133.88,115.09Zm5.42-10.86c-.09-.42-.15-.66-.15-.66l-.08-.31-.25-.21c-1.07-.89-2.74-1.07-5-.56h0q-4.2,1-11.08,5.07-2,1.22-4.32,2.71a2.68,2.68,0,0,0,.9,4.84,72.26,72.26,0,0,0,14.42,2,7.09,7.09,0,0,0,1.33-.11,5.58,5.58,0,0,0,1-.29,4.82,4.82,0,0,0,1.94-1.42C140.37,112.46,139.83,107.16,139.3,104.23Zm-5.42,10.86h0c-.67,0-1.4,0-2.18-.07l-.74,0c-.43,0-.88-.08-1.34-.13l-.53,0-1.18-.15c-.43-.06-.87-.12-1.33-.2l-1.66-.27q-2.41-.4-5.19-1a.66.66,0,0,1-.51-.59.64.64,0,0,1,.29-.62c1.39-.92,2.68-1.74,3.9-2.46,5.37-3.24,9.09-4.77,11.43-5.18a6.44,6.44,0,0,1,1.23-.13,2.77,2.77,0,0,1,1.23.24c0,.06,0,.13.05.2.78,4.29.46,7.8-.86,9.37A3.15,3.15,0,0,1,133.88,115.09Zm-34.64-4.61a1.78,1.78,0,0,0-.27-.21c-.51-.34-1-.66-1.5-1L95.35,108l-.73-.44c-.92-.54-1.8-1.05-2.64-1.51s-1.65-.89-2.43-1.26a31.16,31.16,0,0,0-5.33-2.11q-3.91-1.06-5.67.39l-.26.21-.07.32c-.08.33-1.84,7.94,1,11.58a4.49,4.49,0,0,0,.41.46,3.82,3.82,0,0,0,.75.59,5.57,5.57,0,0,0,3.24.88h.67l.62,0c.57,0,1.16-.06,1.78-.11l1-.1c.81-.08,1.66-.19,2.56-.32s1.57-.23,2.41-.37l.09,0c.81-.14,1.66-.3,2.53-.47l.22,0h0l1.76-.36.71-.15h0a2.58,2.58,0,0,0,.42-.13l.17-.08.16-.09h0l.06,0a.57.57,0,0,0,.16-.11.52.52,0,0,0,.17-.13.57.57,0,0,0,.14-.13l.17-.18.09-.12a.51.51,0,0,0,.11-.16.87.87,0,0,0,.11-.18l.06-.11a1.08,1.08,0,0,0,.08-.19l.06-.19a.19.19,0,0,0,0-.08.86.86,0,0,0,.06-.23A2.61,2.61,0,0,0,99.24,110.48Zm-4.38,3.25c-1.22.24-2.37.44-3.46.61s-1.85.28-2.71.39h-.1l-.7.08-2,.18-1.1.06-1.16,0a4.1,4.1,0,0,1-.5,0l-.31,0a3.63,3.63,0,0,1-.59-.13l-.26-.1a1.26,1.26,0,0,1-.33-.16,2.8,2.8,0,0,1-.59-.45,2.26,2.26,0,0,1-.25-.28c-1.78-2.25-1.2-7.3-.74-9.5a4.9,4.9,0,0,1,3.19,0c2.44.6,6.12,2.23,11.27,5.38,1,.63,2.16,1.34,3.33,2.11h0a.44.44,0,0,1,.14.13.61.61,0,0,1,.14.52.56.56,0,0,1-.07.19A.55.55,0,0,1,98,113a.73.73,0,0,1-.35.19l-2.16.45-.6.12Z" style="fill:#fff"/><path d="M244.11,243.1c-4.24-43.65-71.07-15.55-72.34-15l85.79-83.68C266.12,216.14,244.11,243.1,244.11,243.1Z" style="fill:#474c4f"/></g></g></svg>