<svg xmlns="http://www.w3.org/2000/svg" viewBox="0 0 404.17 309.17"><title>Carrion-Crawler_1</title><g id="e1b12295-eaf9-40be-be54-1deafdcbb40e" data-name="Layer 2"><g id="e5bc65b2-6786-4c8b-9726-a11ec02ed3f7" data-name="Layer 1"><path d="M162.62,113.34c-2.43,0-15.12-21.83-36.63-35.88a34.83,34.83,0,0,0-36.65-.85c-20.87,12.15-40,31.41-51.06,26.66,0,0,24.9.92,52.47-13.82A34.94,34.94,0,0,1,129,93.25l31.67,29.39Z" style="fill:#865b2c"/><path d="M161.28,124.58l-33-30.6a33.83,33.83,0,0,0-37.1-3.65A120.89,120.89,0,0,1,48.6,103.66c-4,1.49-7.61,1.86-10.71.53L33,102.07l5.37.2a76.46,76.46,0,0,0,9.87-.58c6.16-2.36,13.58-7.61,21.7-13.36C76,84,82.27,79.57,88.83,75.74a35.73,35.73,0,0,1,37.71.88c14.57,9.52,25,22.38,31.19,30.07,2.1,2.6,4.28,5.29,5,5.65h1.13ZM106.89,84.42a36.3,36.3,0,0,1,22.73,8l30.43,28.25,1.43-6.79c-1-.72-2.47-2.47-5.31-6-6.14-7.59-16.42-20.3-30.72-29.65a33.74,33.74,0,0,0-35.61-.82C83.35,81.25,77.09,85.68,71,90a188.84,188.84,0,0,1-16.31,10.79A118.78,118.78,0,0,0,90.28,88.57,35.11,35.11,0,0,1,106.89,84.42Z" style="fill:#fff"/><path d="M258.29,235.1s-44.72,62-115.11,54.8-59-7-59-7,61.71,36.51,107.88,21.8,87.69-71,87.69-71Z" style="fill:#865b2c"/><path d="M168.11,309.17c-37.62,0-76.93-21.17-83.48-24.85-2.18-.4-2.16-.71-2.12-1.39.07-1,1.21-1,1.7-1h.27l.22.13.6.35c3.65.61,16.22,2.23,58,6.5,36,3.69,65.13-11.28,83.21-24.48a153.36,153.36,0,0,0,31-29.91l.28-.39,24.08-1.58-1.28,1.74c-.41.56-42.23,56.74-88.18,71.38A80,80,0,0,1,168.11,309.17Zm-77.74-24c16.25,8.43,64.24,30.46,101.4,18.62,40.79-13,78.42-59.35,85.86-68.93l-18.81,1.24A157.46,157.46,0,0,1,227.72,266c-18.37,13.42-48,28.64-84.64,24.89-23.16-2.37-39.92-4.19-49.82-5.4Z" style="fill:#fff"/><path d="M167.72,215.89s-58.6-24-124.67,17.86c0,0,55.14-60.76,141-25S167.72,215.89,167.72,215.89Z" style="fill:#865b2c"/><path d="M37.34,238.55l5-5.47c.14-.16,14.21-15.47,38.64-26.16,22.55-9.86,58.82-17.71,103.5.9,36.14,15.05,35.42,17.12,34.89,18.64-.43,1.24-1.07,3.1-27-3.13-12.39-3-24.78-6.44-24.91-6.47l-.11,0c-.14-.06-14.81-6-37.3-6.7-20.75-.68-52.58,3-86.46,24.47Zm93.26-40a121.58,121.58,0,0,0-48.85,10.21A129.23,129.23,0,0,0,50.6,228.08c31.29-17.5,60.21-20.61,79.6-20,22.1.74,36.8,6.41,37.84,6.83,21.47,6,44.89,11.46,49.1,10.76-1.3-1.34-7.41-5.2-33.45-16C164.21,201.56,146.37,198.55,130.6,198.55Z" style="fill:#fff"/><path d="M134.51,156.45S83.91,194.53,9.38,170.78c0,0,68.74,44.8,142.75-11.56S134.51,156.45,134.51,156.45Z" style="fill:#865b2c"/><path d="M72.12,188.63a125,125,0,0,1-19.28-1.5C26.5,183,9,171.74,8.83,171.62l-6.19-4,7,2.24c38.22,12.18,69.95,7.68,89.84,1.76,21.57-6.42,34.26-15.84,34.39-15.94l.09-.06c.11-.07,11.23-6.56,22.45-12.58,23.48-12.59,24.58-10.95,25.31-9.87.89,1.34,2.12,3.16-29,26.88C123.35,182.4,94.8,188.63,72.12,188.63Zm-54-14.28a129,129,0,0,0,35.11,10.81c23.91,3.74,60.37,2.14,98.29-26.74,22.44-17.09,27.37-22.37,28.29-24-4.23.4-25.52,11.62-44.76,22.87-.9.66-13.69,9.87-34.88,16.19C81.59,179,52.83,183.35,18.13,174.35Z" style="fill:#fff"/><path d="M160.86,141.9s-53-38.81-104.81-10.11S1,116.68,1,116.68s6.86,46.59,57.67,27.45,113.91,12.48,113.91,12.48Z" style="fill:#865b2c"/><path d="M176.2,159.53l-4.06-2c-.63-.31-63.31-31.19-113.12-12.43-16.54,6.22-30.26,6.24-40.78,0A35.17,35.17,0,0,1,6.63,133.76C.8,126.46,0,117.25,0,116.75l2-.22a46,46,0,0,0,6.4,16.17,20.48,20.48,0,0,0,6.22,5.21c9.52,5.14,23.3,2.78,41-7,27.08-15,54.44-11.43,72.62-5.79a124.68,124.68,0,0,1,33.27,16l.2.19ZM94.9,137c32.79,0,63.69,12.23,74.28,16.9l-9-11.31A123.43,123.43,0,0,0,127.53,127c-17.8-5.51-44.56-9-71,5.65C39,142.37,25,144.94,15,140.32a30.64,30.64,0,0,0,4.31,3.08c10,5.86,23.11,5.79,39-.2C70.13,138.74,82.65,137,94.9,137Z" style="fill:#fff"/><path d="M396.94,110.07l-2-23.47-58.13-3a37.61,37.61,0,0,0-16.93-25c-9.55-5.91-24.43-9.33-47.32-4.59V45.82s-46.92-1-77.52,32.63c0,0-26.12-1.48-42.38,18.18l-2.5-3.9s20.57-44.44,37.45-58.22c6.15-5,73.76-32.69,75.72-33.55-33.63,10.16-65.23,15.28-81.55,25.46s-47.93,72.43-47.93,72.43A130.43,130.43,0,0,0,143.66,113a77.64,77.64,0,0,0-3.73,23.58l1,30.6,10.2-17.33,2,21.41,11.23-18.36,2,24.49,12.25-8.17-1,14.28,10.18,6.13L174.6,193.7l7.15,19.37-16.32-7.13-3.05,17.34-12.25-7.15L145,225.31,135.85,210l1,26.52,0,0s0,0,0,.08a39.53,39.53,0,0,0,3.48,7.67c7.71-1,16.74-4.32,27.22-8.63,21.83-9,33.16-9.13,37.87-2.84,5.35,7.18.08,18.5-2.57,21.8-.56.65-8.13,11.5-20.3,18.23,8,1.66,14.5.3,25.67-.64,0,0,23.44-5.11,40.78-13.26,0,0,37.73,18.35,77.52-8.17,0,0,48.31-6.59,61.19-58.12C388.79,188.6,409.19,154.93,396.94,110.07Zm-106,104.16c-64.66-1-66.56-25.39-65-41.92a8.24,8.24,0,0,1,9.87-7.23c12.36,2.55,36.55,5.69,56.12-3A169.33,169.33,0,0,1,326.14,151a16.41,16.41,0,0,1,19.43,12.44C350.09,183.89,352.06,215.11,290.89,214.23Z" style="fill:#ae873e"/><path d="M190.52,274.66a39.41,39.41,0,0,1-8.11-.81l-2.64-.54,2.36-1.31a65.65,65.65,0,0,0,19.69-17.59,4.38,4.38,0,0,1,.33-.42c2.71-3.37,7.33-14.11,2.53-20.55-4.6-6.14-16.6-5.1-36.69,3.16-10.94,4.51-19.8,7.71-27.47,8.7l-.67.09-.33-.58a42.52,42.52,0,0,1-3.52-7.72l-.09-.1,0-.41-1.16-30.42L145,223.32l4.75-8.57,11.88,6.94,3-17.17L180,211.21l-6.7-18.16,12.13-3.72-8.79-5.3.91-12.86-12,8L163.67,156l-11.19,18.31-2-21.33-10.39,17.65-1.13-34a79.61,79.61,0,0,1,3.61-23.42A136,136,0,0,1,133,99.35l-.27-.47.24-.49c1.3-2.55,31.94-62.58,48.3-72.81,11-6.86,28.71-11.42,49.24-16.7C240.94,6.18,251.77,3.4,263,0l.69,1.87c-.24.11-1.45.61-3.41,1.42-55.21,22.88-69.67,30-72.08,32C172.65,48,153.59,87.75,151.27,92.66L152.75,95c15.19-17.3,38.22-17.58,41.84-17.51,30.56-33.26,77.49-32.62,78-32.62l1,0v7.9c19.55-3.85,35.3-2.18,46.84,5a38.5,38.5,0,0,1,17.27,24.88l58.19,3.06,2.1,24.24c10.61,39-3.29,69.78-7.86,79.9a31,31,0,0,0-1.33,3.13c-12.43,49.74-58.09,58.23-61.79,58.83-37.43,24.83-73.49,10.26-77.88,8.32-17.2,8-40.35,13.09-40.58,13.14l-.13,0c-2.46.2-4.69.43-6.76.64A109.28,109.28,0,0,1,190.52,274.66Zm-5-2.32c5,.65,9.75.17,15.92-.46,2.06-.21,4.28-.43,6.73-.64,1.35-.3,23.91-5.37,40.51-13.18l.43-.2.43.21c.37.18,37.7,17.78,76.52-8.1l.19-.13.23,0c.48-.07,47.8-7.12,60.36-57.37a30.62,30.62,0,0,1,1.44-3.48c4.51-10,18.21-40.27,7.74-78.63l0-.17-2-22.61-58.08-3-.11-.83a37,37,0,0,0-16.47-24.26c-11.32-7-27-8.52-46.59-4.46l-1.2.24V46.82c-6.87.11-48.27,2-75.78,32.31l-.32.35-.47,0c-.26,0-25.82-1.2-41.56,17.82l-.87,1L149,92.81l.23-.5c.84-1.82,20.85-44.81,37.71-58.58,3.31-2.69,23.57-11.82,60.27-27.16-5.52,1.48-10.93,2.88-16.25,4.25-20.37,5.23-38,9.76-48.68,16.45C167.14,36.74,138,92.93,135,98.81a131.34,131.34,0,0,0,9.48,13.55l.35.42-.18.53a77.14,77.14,0,0,0-3.68,23.28l.9,27.11,10-17,2,21.5,11.26-18.41,2.15,25.85,12.53-8.36L178.72,183l11.58,7-14.39,4.42,7.59,20.59-17.3-7.56-3.09,17.5-12.6-7.36-5.43,9.81L137,213.87l.88,22.52v0a38.75,38.75,0,0,0,3,6.82c7.31-1.07,15.83-4.17,26.31-8.48,21.34-8.78,33.75-9.58,39.05-2.5,5.79,7.74,0,19.75-2.59,23l-.28.36A69.14,69.14,0,0,1,185.48,272.34Zm107.86-57.09-2.47,0h0c-30.2-.45-49.56-5.9-59.19-16.65-7.39-8.25-7.57-18-6.76-26.37a9.15,9.15,0,0,1,3.67-6.48A9.28,9.28,0,0,1,236,164.1c12.46,2.57,36.25,5.62,55.52-2.93A169.69,169.69,0,0,1,325.93,150a17.48,17.48,0,0,1,20.62,13.21c2.5,11.34,4.23,25.77-4.69,36.7C333.56,210.09,317.24,215.25,293.34,215.25Zm-2.44-2c24.62.34,41.23-4.55,49.41-14.58,8.38-10.27,6.69-24.11,4.28-35A15.45,15.45,0,0,0,326.34,152a167.79,167.79,0,0,0-34,11c-19.78,8.78-44,5.69-56.73,3.07a7.28,7.28,0,0,0-5.8,1.28,7.05,7.05,0,0,0-2.87,5.06c-.76,8-.62,17.17,6.26,24.84,9.11,10.18,28.53,15.56,57.73,16Z" style="fill:#fff"/><path d="M91.22,241.81s19.38,25.5,71.39,4.08,26.52,10.2,26.52,10.2S140.18,314.22,91.22,241.81Z" style="fill:#7c4b33"/><path d="M144.78,279.16q-1.17,0-2.37-.06c-18.71-1-36.21-13.35-52-36.73L92,241.2c.19.25,19.61,24.6,70.21,3.76,19-7.83,29.88-9.51,33.16-5.12,3.8,5.09-4.52,15.68-5.48,16.88C189.7,257,170.7,279.16,144.78,279.16ZM96.91,248c14.12,18.45,29.43,28.23,45.6,29.08,26.14,1.37,45.66-21.43,45.86-21.66,2.16-2.69,7.85-11.15,5.42-14.41-1.48-2-7.43-3.84-30.8,5.78-27.15,11.18-45.38,9.45-55.89,6A42.85,42.85,0,0,1,96.91,248Z" style="fill:#fff"/><path d="M189.9,112.11C198.33,116.7,362,44.79,402,25.32h0C354.55,44.63,184.35,100.87,176.66,106c-9.19,6.13,13.24,34.69,13.24,34.69,12.24,10.19,13.26,3.06,13.26,3.06S178.69,106,189.9,112.11Z" style="fill:#ad8738"/><path d="M200.12,147.15c-2.66,0-6.3-1.91-10.86-5.71l-.15-.15c-.7-.89-17.15-22-15.55-32a5.88,5.88,0,0,1,2.54-4.15c3.8-2.53,44.7-16.68,92.07-33.07C319,54.49,376.6,34.56,401.42,24.49l.68-.34,0,0h0l2,1.37-2.21.95h0c-20,9.71-70.21,32.25-117.43,52.19-59.11,25-91.1,36.51-95.1,34.33h0a3.46,3.46,0,0,0-1.45-.55c-.87,2.37,7.57,17.69,16,30.74l.2.32,0,.37a3.93,3.93,0,0,1-2.41,3A4.48,4.48,0,0,1,200.12,147.15Zm-9.5-7.18c6.47,5.37,9.29,5.45,10.4,5a1.88,1.88,0,0,0,1.06-1.1c-1-1.59-5.07-8-8.81-14.54-9-15.88-7.49-17.54-6.75-18.34,1.17-1.26,3.19-.15,3.86.21,1.23.66,11.62.1,93.41-34.43,33.46-14.13,68.41-29.57,93-40.8-29,10.64-70.36,25-108,38-45.27,15.66-88,30.46-91.61,32.84a4,4,0,0,0-1.68,2.81C174.12,118.48,189.49,138.52,190.62,140Z" style="fill:#fff"/></g></g></svg>