<svg xmlns="http://www.w3.org/2000/svg" viewBox="0 0 326.88 320.9"><defs><style>.cls-1{fill:#ffedc0;}.cls-2{fill:#fff;}</style></defs><g id="Layer_2" data-name="Layer 2"><g id="Layer_1-2" data-name="Layer 1"><path class="cls-1" d="M49.83,2.4A174.24,174.24,0,0,0,20.41,47.06l81,76-8.77,9.35L15.13,59.7A211.28,211.28,0,0,0,2.66,113.16l79.77,40.33L76.64,165l-75-37.9a235,235,0,0,0,3.73,51.61l69,5.71-1,12.79L8.18,191.77c.51,2.13,1,4.25,1.61,6.38A244.55,244.55,0,0,0,21,230.73c6-1.11,12.23-2.25,19.1-3.55,18.38-3.45,36.47-6.9,36.47-6.9L79,232.87s-18.11,3.47-36.51,6.93l-15.92,3a229.39,229.39,0,0,0,20.37,33.65L88.72,252.9,95,264.08,54.9,286.7a210.38,210.38,0,0,0,27.21,27.47l11.78-14c1-14.11,3.41-25.91,9.88-35.52a42.17,42.17,0,0,1,18.65-15.07,104.78,104.78,0,0,1-13.14-29.76c-10-37.19.4-74.51,25-94.84L49.83,2.4ZM277,2.4,192.59,125c24.61,20.33,35,57.65,25,94.84a105,105,0,0,1-13,29.51A39.63,39.63,0,0,1,223.5,265.6c5.36,9.16,7.21,20,7.83,32.6l13.46,16A210.38,210.38,0,0,0,272,286.7l-40.13-22.62,6.31-11.18L280,276.44a229.39,229.39,0,0,0,20.37-33.65l-15.95-3c-18.39-3.46-36.5-6.93-36.5-6.93l2.4-12.6s18.11,3.46,36.48,6.91c6.73,1.27,13.19,2.47,19.11,3.57a245.32,245.32,0,0,0,11.24-32.6c.57-2.13,1.1-4.25,1.61-6.38l-65.22,5.39-1.05-12.79,69-5.71a235.57,235.57,0,0,0,3.71-51.61l-75,37.9-5.8-11.46,79.8-40.33a211.54,211.54,0,0,0-12.47-53.48l-77.48,72.73-8.8-9.35,81-76A174.27,174.27,0,0,0,277,2.4ZM162.23,181.69c-7.18,0-13.86,3.67-19.08,10.38s-8.69,16.41-8.69,27.26,3.46,20.54,8.69,27.26S155.05,257,162.23,257s13.83-3.69,19.05-10.41,8.7-16.41,8.7-27.26-3.47-20.53-8.7-27.25-11.87-10.39-19.05-10.39Zm27.21,76.36c-7.12,7.65-16.64,12.59-27.21,12.59-10.28,0-19.57-4.67-26.62-11.95-1.82.45-3.53.95-5.1,1.5-7.88,2.76-12.63,6.5-16.1,11.66-6.31,9.38-7.93,25.44-8.18,47.55h112.5c-.09-21.66-.79-37.9-6.31-47.32-3-5.18-7.27-8.89-14.81-11.72a56,56,0,0,0-8.17-2.31Z"/><path class="cls-2" d="M220.24,320.9H104.72v-1.51c.25-21.89,1.78-38.49,8.44-48.38,3.85-5.73,9-9.5,16.84-12.23,1.57-.55,3.34-1.07,5.24-1.55l.84-.2.6.62c7.17,7.41,16.24,11.49,25.54,11.49,9,0,17.67-3.77,24.7-10.67l-8.55-4.28,11.37,2.39a58.51,58.51,0,0,1,8.39,2.38c7.49,2.81,12.15,6.51,15.58,12.36,5.88,10,6.43,27.71,6.51,48.08Zm-112.49-3H217.23c-.11-19.28-.74-35.91-6.1-45.06-3-5.21-7.25-8.52-14-11.07a52.49,52.49,0,0,0-7.14-2.08c-7.75,8-17.57,12.45-27.72,12.45-9.85,0-19.44-4.18-27.08-11.78-1.5.39-2.89.81-4.15,1.25-7.15,2.51-11.88,5.92-15.34,11.07C109.56,281.74,108.05,297.31,107.75,317.9ZM82.3,316.28l-1.15-1a211.57,211.57,0,0,1-27.41-27.67l-1.14-1.38L93,263.51l-4.82-8.57L46.51,278.4l-.78-1.08a231,231,0,0,1-20.51-33.87l-.87-1.78,1.94-.36c5.08-.94,10.43-1.94,15.93-3,15.28-2.87,30.35-5.76,35-6.65L75.4,222c-4.67.89-19.73,3.76-35,6.63-5.56,1.05-10.69,2-15.63,2.9l-4.66.86-.47-1.11A246.67,246.67,0,0,1,8.34,198.54c-.52-1.94-1-4-1.62-6.41l-.49-2L72,195.54l.8-9.8L4.14,180.06l-.21-1.13A237.57,237.57,0,0,1,.18,127l.09-2.33L76,162.93l4.44-8.78L1.07,114l.1-1A212.44,212.44,0,0,1,13.73,59.17l.79-2.09,78,73.21,6.72-7.17L18.6,47.42l.45-1a175.41,175.41,0,0,1,29.68-45L50,0l86.3,125.29-1.06.88c-24.63,20.35-34.25,57-24.51,93.29a103.49,103.49,0,0,0,13,29.34l.95,1.48L123,251a40.78,40.78,0,0,0-18,14.52c-5.6,8.32-8.56,19.05-9.62,34.79l0,.49ZM57.2,287.12a208.12,208.12,0,0,0,24.73,24.93l10.5-12.45c1.13-16,4.24-27.06,10.09-35.76A43.22,43.22,0,0,1,120.23,249a106.64,106.64,0,0,1-12.4-28.73c-9.9-36.93-.31-74.23,24.45-95.49L49.67,4.82A172.59,172.59,0,0,0,22.23,46.71L103.5,123,92.67,134.53,15.75,62.34a210,210,0,0,0-11.49,50l80.19,40.54L77.3,167,3.09,129.45a235,235,0,0,0,3.59,47.81L76.07,183l-1.3,15.78-64.64-5.34c.38,1.56.74,3,1.11,4.32A244.16,244.16,0,0,0,21.94,229l2.3-.42c4.94-.91,10.06-1.85,15.62-2.9,18.37-3.46,36.45-6.91,36.45-6.91l1.48-.28,3,15.54-1.47.29s-18.11,3.47-36.51,6.93l-14,2.62a229.06,229.06,0,0,0,18.56,30.58l41.93-23.63,7.76,13.8Zm187.4,29.15-14.74-17.49,0-.51c-.72-14.46-3-24-7.63-31.91-4-6.86-10.13-12.12-18.19-15.63l-1.61-.7.95-1.49a103.32,103.32,0,0,0,12.82-29.08c9.74-36.31.11-72.93-24.53-93.29l-1.06-.88L276.88,0l1.27,1.39a175.5,175.5,0,0,1,29.68,45l.45,1-80.66,75.7,6.74,7.17,78-73.24.8,2.1A212.64,212.64,0,0,1,325.73,113l.1,1-79.37,40.11,4.44,8.78,75.71-38.27.09,2.33A237,237,0,0,1,323,178.93l-.2,1.13-68.69,5.68.8,9.8,65.79-5.43-.48,2c-.57,2.39-1.1,4.49-1.62,6.42a248.91,248.91,0,0,1-11.31,32.8l-.48,1.1-1.18-.22c-5.92-1.09-12.37-2.3-19.1-3.56-15.26-2.87-30.34-5.74-35-6.63l-1.84,9.65c4.67.89,19.75,3.78,35,6.65,5.5,1,10.86,2,15.94,3l1.95.36-.88,1.78a230.11,230.11,0,0,1-20.5,33.87l-.78,1.08-41.64-23.46-4.84,8.57,40.39,22.76-1.14,1.38a211.56,211.56,0,0,1-27.41,27.67Zm-11.8-18.65L245,312.05a208.11,208.11,0,0,0,24.73-24.93l-39.88-22.47,7.79-13.8,41.92,23.63A228.08,228.08,0,0,0,298.1,243.9l-14-2.62c-18.4-3.46-36.51-6.93-36.51-6.93l-1.48-.29,3-15.54,1.47.28s18.11,3.45,36.48,6.91c6.28,1.18,12.32,2.31,17.91,3.34a242.87,242.87,0,0,0,10.71-31.29c.36-1.34.73-2.77,1.11-4.32l-64.64,5.34L250.83,183l69.39-5.74a234.45,234.45,0,0,0,3.56-47.81L249.58,167l-7.15-14.13,80.21-40.54a209.76,209.76,0,0,0-11.49-50l-76.92,72.21L223.37,123l81.28-76.28A172.68,172.68,0,0,0,277.2,4.81L194.6,124.74C219.37,146,229,183.31,219.07,220.23A106.72,106.72,0,0,1,206.8,248.7a40.48,40.48,0,0,1,18,16.14C229.63,273.09,232,282.92,232.8,297.62ZM162.23,258.5c-7.56,0-14.76-3.91-20.27-11-5.72-7.37-9-17.63-9-28.18s3.28-20.82,9-28.18c5.49-7.07,12.69-11,20.26-11h0c7.66,0,14.66,3.79,20.24,11,5.72,7.36,9,17.63,9,28.17s-3.29,20.82-9,28.18C177,254.59,169.77,258.5,162.23,258.5Zm0-75.31c-6.72,0-12.91,3.39-17.9,9.81C139,199.84,136,209.44,136,219.33s3,19.49,8.37,26.34c5,6.43,11.19,9.83,17.9,9.83s12.87-3.4,17.87-9.83c5.32-6.85,8.38-16.45,8.38-26.34s-3.06-19.49-8.38-26.33c-5-6.42-11.17-9.81-17.87-9.81Z"/></g></g></svg>