<svg xmlns="http://www.w3.org/2000/svg" viewBox="0 0 312.16 404.31"><title>Centaur_1</title><g id="ad4d4274-1a30-4aa2-bd85-6154727380ed" data-name="Layer 2"><g id="a0cbf976-fd43-439b-8309-6ab9f53afb78" data-name="Layer 1"><path d="M265.59,222.71c-4.09,6.13-9.2,6.13-8.17,12.77s-7.66,7.14-8.69,12.25.52,14.3-13.78,30.13c0,0-.51,19.4-15.32,31.15l1,4.08s-3.57,13.28-2,16.34,3.57,7.66,2.55,11.75-2.55,30.64,6.13,34.21-7.66,38.81-32.17,24.51l-1-6.64-3.58-4.08V385.6s-19.91,1-15.32-17.87S188,340.67,188,340.67s5.62-20.43-9.19-25c-14.47-4.5-1.14-2.16-.53-2.06-.36-.22-6.21-3.86-9.17-13.26,0,0-18.39-10.73-17.88-20.94l-4.59,1-1-8.17L152.22,262s-21.95,7.15-42.89-19.92l-7.66,16.34L95.54,261s0,11.74-6.12,16.34c0,0-4.6,10.72-3.58,19.91s-2,9.71-2,9.71,3.06,17.87,8.17,18.38S119,356,93,358.54s-25.53-13.28-25.53-13.28l.51-9.7S59.8,331,59.8,324.33s14.3-27.58-6.13-54.64c0,0-6.13-2.55,4.09-12.77,0,0,5.61-34.72-10.22-60.76,0,0-45.43,64.33-22.47,98-.64-.61-24.39-23.87-15.82-52.59a19.65,19.65,0,0,0-6.64,17.88s-8.17-41.88,11.74-67.92l-7.66,5.62s-.51-18.38,23-33.7S49.59,140,49.59,140s5.61-25,28.08-10.22c0,0,23.16-11.74,65,3.55-2.43,20.56,5,50.58,5,50.58s-2,5.11,5.1,18.9a25.18,25.18,0,0,0,8.83,10.12,6.83,6.83,0,0,0,10.28-4.77l.34-2a27,27,0,0,0-2.71-17l-7.54-14.44s.71-17.21,2.13-31.86c5.21,2.72,10.62,5.83,16.25,9.39,0,0,8.17,5.11,5.11-8.68l9.14-1.34c.8,3.27,7.88,47.55,25.58,40.66l4.08-3.57s26.56,10.21,24.51-24L260,161.94S269.67,216.58,265.59,222.71Z" style="fill:#4c170d"/><path d="M206.65,404.31a23.73,23.73,0,0,1-12-3.54l-.42-.24-1-6.83-3.64-4.14v-2.95c-2.61-.05-9.39-.66-13.27-5.34-2.75-3.33-3.43-8-2-13.77,4.28-17.56,11.53-25.93,12.84-27.33.59-2.35,4.45-19.52-8.59-23.56-7.37-2.29-7.64-2.74-7.38-3.8.19-.81.6-1.14,3.72-.75A27.77,27.77,0,0,1,168.24,301c-2.49-1.51-17.2-10.77-18-20.37l-4.48,1-1.2-9.63,5.52-8.5c-6.3.95-23.77,1.26-40.52-19.5l-7.14,15.23-5.89,2.46c-.09,2.61-.83,12-6.28,16.29-.64,1.6-4.3,11.09-3.41,19.17.79,7.09-.77,9.54-1.91,10.38,1.29,7.05,4.25,16.54,7.15,16.83,4,.39,14.42,13.69,14.41,23.49,0,4.73-2.33,10.61-13.39,11.69-10.26,1-17.77-.65-22.33-4.92a13.17,13.17,0,0,1-4.3-9.39l.48-9.12c-1.91-1.2-8.14-5.6-8.14-11.78A25,25,0,0,1,60.3,318c2.92-9.32,8.34-26.65-7.29-47.5a4.3,4.3,0,0,1-2.07-2.91c-.56-2.85,1.41-6.59,5.88-11.12C57.31,253,61.2,222,47.48,198c-6.17,9.21-42.12,65.45-21.58,95.6l5.31,7.8-6.83-6.51c-.24-.23-22.87-22.21-17-50A18.9,18.9,0,0,0,3.6,259.35l-2,.32c-.08-.39-7.1-37.72,8.64-63.87l-4.53,3.32,0-1.91c0-.77-.25-19.12,23.43-34.56,22.19-14.47,19.57-22.2,19.54-22.28l-.1-.28,0-.32c.11-.46,2.63-11.31,11-14.7,5.11-2.07,11.21-.87,18.12,3.56,3.77-1.69,26.43-10.44,65.23,3.75l.75.28-.1.78c-2.38,20.14,4.9,49.93,5,50.22l.08.32-.12.29s-1.68,5,5.06,18.07a24.34,24.34,0,0,0,8.47,9.73,5.64,5.64,0,0,0,5.36.34,5.93,5.93,0,0,0,3.41-4.42l.34-2a26.26,26.26,0,0,0-2.61-16.34l-7.67-14.68v-.27c0-.17.73-17.4,2.14-31.91l.14-1.48,1.31.69c5.35,2.79,10.84,6,16.32,9.43.56.34,2.38,1.18,3.33.52.54-.39,1.65-1.95.27-8.14l-.23-1.05,11.11-1.63.21.89c.07.27.18.83.34,1.62,5.29,26.71,12,35.38,16.65,37.94a8.11,8.11,0,0,0,7.1.46l4.39-3.85.57.22c.1,0,9.94,3.71,16.68-1.23,4.94-3.62,7.12-11,6.47-21.78l-.11-1.87,13.25,7.82.08.45c1,5.63,9.65,55.21,5.47,61.5h0a24.7,24.7,0,0,1-4.77,5.13c-2.37,2-3.81,3.29-3.24,6.93.67,4.35-2.25,6.44-4.83,8.27-1.8,1.28-3.5,2.49-3.87,4.33-.16.79-.25,1.71-.36,2.77-.55,5.34-1.48,14.24-13.42,27.56-.14,2.83-1.6,20-15.17,31.13l.92,3.71-.06.25c-1.35,5-3.11,13.66-2.11,15.64,1.77,3.56,3.68,8.2,2.62,12.44s-2.31,29.81,5.54,33c1.2.49,2.67,1.71,2.94,4.72.54,6.25-4.47,16.49-12.8,21.76A20.77,20.77,0,0,1,206.65,404.31Zm-10.61-5c9,5.08,16.23,2.81,20.7,0,7.6-4.81,12.36-14.35,11.87-19.89-.09-1.11-.47-2.54-1.7-3.05-9.78-4-7.61-31.81-6.72-35.38s-.85-7.8-2.47-11.06,1.16-14,1.9-16.79l-1.12-4.46.51-.4C233.26,296.92,234,278,234,277.84v-.37l.25-.28c11.73-13,12.58-21.23,13.15-26.7a29.58,29.58,0,0,1,.39-3c.53-2.62,2.63-4.12,4.66-5.57,2.42-1.72,4.5-3.2,4-6.33-.73-4.73,1.42-6.6,3.91-8.75a22.77,22.77,0,0,0,4.42-4.73c2.81-4.22-1.84-37.77-5.69-59.59l-9.26-5.46c.33,10.55-2.14,17.83-7.37,21.66-6.71,4.91-15.64,2.46-18,1.68l-3.77,3.3-.17.07a10.15,10.15,0,0,1-8.95-.52c-7.33-4-13.27-17.25-17.64-39.3,0-.24-.1-.46-.13-.65l-7.16,1.05c.94,4.87.52,7.87-1.3,9.15-2.19,1.55-5.2-.25-5.54-.46-5-3.15-10-6.06-14.87-8.66-1.21,13.13-1.88,27.9-2,30.06l7.42,14.2a28.21,28.21,0,0,1,2.81,17.59l-.34,2a7.89,7.89,0,0,1-4.56,5.91,7.68,7.68,0,0,1-7.24-.46,26.39,26.39,0,0,1-9.19-10.51c-6.34-12.25-5.6-18-5.24-19.38-.72-3-7.08-30.44-5-49.88-40.39-14.54-63.21-3.45-63.44-3.33l-.52.26-.48-.32c-6.52-4.3-12.16-5.54-16.74-3.68-6.76,2.72-9.32,11.39-9.75,13,.56,1.93,1.26,10.24-20.41,24.37C12.07,176.16,8.54,190,7.85,195.09l11.53-8.46-4.24,5.54C1.36,210.2,1.29,236.28,2.43,250a20,20,0,0,1,6.22-9.22L11.08,239l-.87,2.91C4.42,261.29,13.77,278.23,20.3,287c-5.06-13.78-2.88-32.52,6.47-54.88a217,217,0,0,1,20-36.57l.88-1.25.79,1.3c15.84,26.06,10.41,61.09,10.36,61.44l0,.32-.23.23c-5.38,5.38-5.8,8.27-5.57,9.51a2.25,2.25,0,0,0,1.17,1.64l.23.1.17.21c16.42,21.75,10.77,39.79,7.74,49.49a24.3,24.3,0,0,0-1.41,5.75c0,6,7.58,10.32,7.66,10.36L69,335l-.54,10.32a11.42,11.42,0,0,0,3.7,7.87c4.13,3.83,11.1,5.3,20.73,4.36,7.69-.76,11.58-4,11.59-9.7,0-9.45-10.08-21.25-12.61-21.5-5.58-.56-8.52-16.1-9.06-19.21l-.16-1,1-.17c.53-.2,1.93-2.16,1.22-8.62-1-9.34,3.46-20,3.65-20.41l.11-.25.21-.16c5.64-4.24,5.72-15.42,5.72-15.54v-.66l6.39-2.67,8.19-17.47,1,1.29c20.22,26.15,41.58,19.65,41.79,19.58l2.68-.86-8,12.26.84,6.72,4.79-1.07-.06,1.31c-.47,9.5,17.21,19.93,17.38,20l.34.19.11.37c2.79,8.85,8.14,12.34,8.74,12.71l4.36,2.67-3.76-.62c15.19,5,9.62,25.94,9.56,26.15l-.07.25-.18.19c-.08.08-8,8.24-12.51,26.59-1.25,5.16-.71,9.21,1.62,12,4.14,5,12.6,4.62,12.68,4.61l1.05-.05v4.26l3.52,4Z" style="fill:#fff"/><path d="M307,182.37a8.39,8.39,0,0,0,4.08-5.62c-13.27-2.55-30.12-52.59-30.12-52.59l-4.09,3.06s-10.72-8.17-9.7-16.34-6.64-23-6.64-23c6.64-18.38-12.26-32.17-16.34-30.64s-12.26-6.12-12.26-6.12c4.5-6,.19-16.9,0-17.36l4.59,2.75c-1.94-2.24-4.17-16.23-5.11-24.2-1-8.68-20.93-11.24-20.93-11.24l-2.05,5.62c-15.83,7.66-9.19,19.91-9.19,19.91l-4.08-1.53,3.57,15.83a40.28,40.28,0,0,0-25,12.26c-30.13,9.7-19.91,31.66-19.91,31.66s-6.13,3.58-4.09,14.81c2.72,15-3.57,21.44-3.57,21.44a33.45,33.45,0,0,0-3.46,12.23c-2.43,20.56,5,50.58,5,50.58s-2,5.11,5.1,18.9c3.64,7,8.21,10.2,11.82,11.63a5.13,5.13,0,0,0,6.91-4l1.46-8.81a13.53,13.53,0,0,0-1.36-8.52l-9.63-18.44s.71-17.21,2.13-31.86c1-10.21,2.32-19.18,4-20.23,4.09-2.55,7.66-20.93,7.66-20.93s3.58,19.91,10.22,23.49c3.26,1.76,6,5.5,8,8.85,1.87,3.17.18,11.25-3.38,12.19.8,3.27,11.88,45.55,29.58,38.66,2.33-2,10.44.06,13.5.54,7.47,1.2,16.61-4.8,15.09-30.11,0-.21,0-.43,0-.64a51.13,51.13,0,0,0-2.21-11.88A88.94,88.94,0,0,1,244,129.11c-1.14-10-1.31-20.94.12-21.8,2.55-1.54,12.77,23.49,12.77,23.49,0,14.29,9.19,20.42,9.19,20.42a47.43,47.43,0,0,1,22.46,26.55l-4.68,7A3.56,3.56,0,0,0,284,189l6.08,7.77a9.51,9.51,0,0,0,3.77,2.9,8.25,8.25,0,0,0,8.81-1.51l5.08-4.68a6.28,6.28,0,0,0,1.14-7.84Z" style="fill:#92662b"/><path d="M166.41,215.79a5.89,5.89,0,0,1-2.22-.43c-3.49-1.38-8.46-4.6-12.35-12.1-6.34-12.25-5.6-18-5.24-19.38-.73-3-7.26-31.19-4.95-50.67a34.15,34.15,0,0,1,3.58-12.6l.15-.21c.06-.06,5.89-6.35,3.31-20.57-1.74-9.56,2.16-13.93,3.85-15.33a22.53,22.53,0,0,1,.28-16.58c3-7,9.85-12.2,20.28-15.6a41.06,41.06,0,0,1,24.37-12.27l-3.73-16.54,3.72,1.39a14.35,14.35,0,0,1,0-8.52c1.36-4.22,4.76-7.72,10.12-10.39l2.19-6,.79.1c.84.11,20.69,2.77,21.79,12.12,1.19,10,3.39,21.94,4.88,23.66l4.09,4.72L233.69,36c1.06,3.68,2.32,10.33-.5,15,3.1,2.74,8.22,6.24,10.6,5.34s6.83,1.44,10.88,5.44c3.58,3.54,11.34,13.1,6.9,26.06,1.23,2.46,7.51,15.45,6.54,23.18-.8,6.45,6.58,13.14,8.73,14.95l4.58-3.42.44,1.3c4.63,13.77,18.94,49.93,29.36,51.93l.94.18-.14.94a9.3,9.3,0,0,1-3.71,5.8l1.46,2.45a7.29,7.29,0,0,1-1.31,9.09l-5.09,4.68a9.24,9.24,0,0,1-9.88,1.69,10.64,10.64,0,0,1-4.16-3.2l-6.08-7.77a4.6,4.6,0,0,1-.21-5.37l4.43-6.65a47.16,47.16,0,0,0-21.85-25.51c-.47-.31-9.63-6.58-9.71-21.1-4-9.89-9.3-20.82-11.31-22.56-.62,2-.77,10.15.41,20.56a86.86,86.86,0,0,0,2.43,13.5,52,52,0,0,1,2.25,12.11l0,.64c1.05,17.48-3,25.05-6.66,28.32a11.32,11.32,0,0,1-9.58,2.84c-.54-.08-1.22-.21-2-.37-3-.57-9.14-1.77-10.7-.4l-.13.11-.17.07a11.34,11.34,0,0,1-9.69-.58c-13.29-6.91-20.9-37.48-21.22-38.78l-.23-1,.94-.25c.92-.25,1.83-1.31,2.48-2.92,1.11-2.7,1.24-6.2.3-7.8-2.48-4.2-5.11-7.13-7.62-8.48-5-2.68-8.24-13.4-9.75-19.65-1.38,5.8-4,15.12-7.13,17.06-.29.22-1.87,2.21-3.52,19.48-1.31,13.47-2,29.3-2.12,31.54l9.51,18.2a14.63,14.63,0,0,1,1.46,9.14l-1.47,8.81a6.15,6.15,0,0,1-6,5.15Zm-19.49-94.11a32.69,32.69,0,0,0-3.29,11.76c-2.38,20.15,4.9,49.93,5,50.22l.08.32-.12.29s-1.68,5,5.06,18.07c3.6,6.95,8.14,9.91,11.3,11.16a4,4,0,0,0,3.49-.25,4.14,4.14,0,0,0,2.06-2.94l1.47-8.8a12.72,12.72,0,0,0-1.26-7.9l-9.76-18.67v-.27c0-.17.73-17.4,2.14-31.91,1.85-19.35,3.67-20.49,4.45-21,2.71-1.7,5.86-13.34,7.21-20.28l1-5.24.94,5.26c1,5.4,4.62,20,9.72,22.78,2.87,1.55,5.69,4.65,8.39,9.22,1.44,2.45,1,6.76-.16,9.58a7.3,7.3,0,0,1-2.9,3.71c1.32,4.95,8.66,30.76,20,36.66a9.28,9.28,0,0,0,7.89.54c2.21-1.7,7.05-.94,12.25.07.75.15,1.41.28,1.92.36a9.29,9.29,0,0,0,7.93-2.35c3.29-3,7-10,6-26.72l0-.64a49.62,49.62,0,0,0-2.16-11.65,86.8,86.8,0,0,1-2.5-13.85c-.1-.86-2.36-21,.59-22.77a1.53,1.53,0,0,1,1.29-.13c3.31,1.1,10.73,18.72,12.93,24.1l.07.18v.19c0,13.55,8.66,19.53,8.75,19.59a48,48,0,0,1,22.87,27.12l.11.44-4.93,7.42a2.58,2.58,0,0,0,.12,3l6.08,7.76a8.52,8.52,0,0,0,3.37,2.6,7.22,7.22,0,0,0,7.74-1.33l5.09-4.68a5.28,5.28,0,0,0,.95-6.58L305.57,182l.88-.51a7.49,7.49,0,0,0,3.37-4c-12.39-4.36-26.66-43.78-29.41-51.67l-3.59,2.69-.61-.46c-.45-.35-11.16-8.62-10.08-17.26,1-7.77-6.46-22.25-6.54-22.4l-.2-.39.15-.41c4.37-12.08-2.93-21.06-6.27-24.37-4.05-4-7.81-5.35-8.78-5-4.53,1.71-12.41-5.5-13.29-6.33l-.66-.61.54-.72c4-5.36.32-15.27-.12-16.38l-1.07-2.73,4.41,2.63c-2.17-6.88-3.9-21.43-3.92-21.61C229.65,6.27,216.9,3.07,211.1,2.2l-1.91,5.24-.36.17c-5.06,2.45-8.24,5.61-9.46,9.39a12.8,12.8,0,0,0,.71,9.15l1.27,2.35-4.85-1.82,3.42,15.13-1.13.11a39.51,39.51,0,0,0-24.36,11.91l-.18.22-.27.09c-10,3.22-16.51,8.12-19.33,14.58a20.77,20.77,0,0,0,0,15.7l.38.83-.79.46c-.22.13-5.48,3.43-3.61,13.76C153.28,113.93,147.77,120.74,146.92,121.68Z" style="fill:#fff"/></g></g></svg>