<svg xmlns="http://www.w3.org/2000/svg" viewBox="0 0 365.29 444.52"><title>Chain-Devil_1</title><g id="b3e8903f-edab-4a75-a607-6ac490f192a3" data-name="Layer 2"><g id="a6e10cb3-11bd-4490-a4f6-0cf94309ede3" data-name="Layer 1"><path d="M201.22,20.32l.19-.4a38.65,38.65,0,0,1,17.35-17.4c.89-.45,1.82-1,2.78-1.51,0,0,11.69-.51,17.79,9.65,0,0,.51,16.26,3,16.26s2.54,21.86,2.54,21.86,2.54,8.64,2.54,11.69c0,0,10.68,11.18,12.2,17.27,0,0,24.39,15.76,11.69,40.15,0,0,3.56,7.12,1.52,10.17,0,0,16,20.33,2.14,36.08,0,0-3.15-1.53-7.73,1.52,0,0-7.62-3.55-7.62-6.6,0,0-11.69,16.77-13.72,15.75,0,0,20.33,31.26,4.06,57.56l7.63,25.79L263,288.1A8.4,8.4,0,0,0,270.4,295c6.22.59,27,16.26,19.75,17.51,14,10.68,10.67,14.23,10.67,14.23L311,336.42l.29,1.09a37.91,37.91,0,0,0,10.31,17.33l.78.75a12.51,12.51,0,0,1,3.86,9.05h0a5.32,5.32,0,0,1-6.64,5.16L312,367.86l-14.36,2.72a13.06,13.06,0,0,1-9.44-1.82c-6.19-3.95-16.37-11.5-15.65-18,0,0,8.83-4.15,16.09-2.07,0,0-5.71-4.16-4.15-7.27,0,0-14-6.75-16.09-11.94,0,0-2.59,5.71-8.82-5.71,0,0-4.67,1.56-10.9-7.78l-2.76-1.26a20.93,20.93,0,0,1-10.61-10.93,45.49,45.49,0,0,0-10-14.28C213.87,278.07,217,263,217,263l-10.38,4.15s-6.75,13.49-33.22,30.1a22.65,22.65,0,0,0-4.67,14.54c.52,8.3,7.78,28.54,3.63,41L168.68,398s1.52,11.42,0,12.46c-1,.69,2.13,9.28,4.33,14.9a6.67,6.67,0,0,1-2.34,7.87l-6.62,4.74c-13.5-4.16-21.28,2.07-21.28,2.07s-24.4,10.9-31.14-5.71A34.33,34.33,0,0,1,126.68,425c9.86-3.11,16.09-21.28,16.09-21.28s-10.9-32.18-8.31-57.09l3.12-.52s-2.11-29.81-4.67-35.29c-3.64-7.79,5.71-17.13,5.71-17.13s15-76.3,44.63-91.35c0,0-12.46-28-7.27-38.41L173.39,153s-17.13,13-23.36,8.82c0,0-3.11,8.3-8.3,5.19,0,0-4.15,3.63-6.75,0l-3.63,11.42L122,181l-4.16-2.07,3.49-3.07s-2.45-1.09-.89-5.24c0,0-6.23-5.19,4.67-6.23a23.2,23.2,0,0,0-.53-16.38,1.59,1.59,0,0,1,2.32-2l1.84,1.22,3.64,5.71h0a19.09,19.09,0,0,1,8.52-9.45l12.24-6.64h3.63l5.71-4.16s-4.67-1-4.15-5.19c0,0-6.75,0-7.27-4.67,0,0-6.75-2.59-4.67-6.74,0,0-8.82-1-4.15-16.09,0,0,4.15,8.82,9.34,6.22,0,0-9.86-13,3.63-17.12,0,0-2.07,12.45,9.87,14.53l5.7-2.6s-9.34-19.72,9.87-26.47,12.45-13,12.45-13,3.12-20.76,8.31-25.95C201.42,35.69,198.82,25.5,201.22,20.32Z" style="fill:#9e231c"/><path d="M126.92,444.52a21.31,21.31,0,0,1-7.91-1.38,14.67,14.67,0,0,1-8.31-8.47l-.23-.56.39-.46A35,35,0,0,1,126.38,424c8.58-2.71,14.46-18,15.33-20.34-1.14-3.51-10.69-33.7-8.24-57.18l.08-.76,3-.5c-.77-10.5-2.61-29.94-4.52-34-3.61-7.73,4.23-16.5,5.69-18,1.18-5.88,15.77-75.62,44.28-91.32-2.08-4.85-11.54-28.11-7-38.07l-2.16-9.09c-4.07,2.92-16,10.89-22.25,8.5-.74,1.54-2.41,4.37-4.92,5.25a4.83,4.83,0,0,1-3.77-.25,6.85,6.85,0,0,1-4.47,1.4,4.17,4.17,0,0,1-1.92-.72l-3.3,10.38-10.24,2.84-5.82-2.91,3.73-3.29c-.74-.94-1.25-2.56-.51-5-.77-.79-2-2.42-1.5-4.14s2.7-2.85,6.58-3.3a22.65,22.65,0,0,0-.72-15.08,2.59,2.59,0,0,1,.75-3,2.51,2.51,0,0,1,3-.16l2,1.33,2.78,4.36a20.25,20.25,0,0,1,8.17-8.26l12.46-6.76h3.57l4-2.89a5.47,5.47,0,0,1-3.11-4.52c-2-.2-6.32-1.09-7.14-4.91-1.19-.54-4-2-4.88-4.35a4.15,4.15,0,0,1-.19-2.41,7.35,7.35,0,0,1-3.65-2.95c-2-3.13-2.09-7.88-.16-14.12l.77-2.45,1.09,2.32s2.34,4.88,5.4,5.94a3.23,3.23,0,0,0,1.46.17c-1.36-2.16-3.88-7-2.49-11.31.94-2.91,3.43-5,7.41-6.23l1.54-.47-.26,1.59c-.07.46-1.72,11.3,8.75,13.33l4.53-2.06c-1-2.61-3.5-10.16-.64-17,1.9-4.55,5.76-7.87,11.47-9.88,10.36-3.64,12.51-7,12.87-8.61a3,3,0,0,0-.76-2.69l-.38-.36.07-.52c.13-.84,3.08-20.17,8.2-26.09-.51-2.23-2.23-10.7,0-15.5l.2-.42A39.41,39.41,0,0,1,218.3,1.63c.92-.46,1.84-1,2.74-1.49l.21-.12h.25c.51,0,12.36-.42,18.69,10.14l.13.22v.26c.21,6.64,1.13,14.26,2.18,15.3,1.05,0,3.4,1,3.41,22.7.33,1.13,2.36,8.21,2.53,11.43,1.67,1.78,10.35,11.22,12.08,17.07,2.88,2,23.59,17.68,11.93,40.78.78,1.67,3,6.89,1.59,10.06,2.41,3.38,14.66,22.08,1.72,36.83l-.51.57-.68-.33c-.1,0-2.76-1.2-6.74,1.46l-.47.31-.51-.24c-1.09-.51-5.65-2.75-7.45-5.41-6.78,9.58-10.2,13-12,14.16,3.33,5.72,18,33.47,3.67,57.19L258.61,258l5.33,29.94A7.45,7.45,0,0,0,270.5,294c5.1.48,22,11.95,22.18,17a2.26,2.26,0,0,1-.64,1.68c6.46,5.1,9.87,9.28,10.12,12.43a3.72,3.72,0,0,1-.12,1.37l9.84,9.35.37,1.35a36.76,36.76,0,0,0,10,16.88l.79.75a13.64,13.64,0,0,1,4.17,9.77,6.34,6.34,0,0,1-7.89,6.13l-7.41-1.89-14.15,2.68a14,14,0,0,1-10.16-2c-7.76-5-16.85-12.26-16.1-19l.06-.55.51-.24c.31-.15,6.76-3.14,13.32-2.72-1.3-1.43-2.52-3.34-2.18-5.21-2.76-1.39-11.9-6.23-15-10.7a3.08,3.08,0,0,1-1.8.68h-.12c-2.22,0-4.61-2.31-7.29-7.05-1.74.08-6-.64-11-8.08l-2.5-1.14a21.9,21.9,0,0,1-11.12-11.45,44.6,44.6,0,0,0-9.78-14c-9.47-9.48-9.3-21.2-8.83-25.61L207.32,268c-1.26,2.26-9,14.8-33.25,30.07-.68.87-4.8,6.52-4.35,13.71a79.51,79.51,0,0,0,1.78,10c2.12,9.93,4.77,22.27,1.84,31.23l-3.65,44.93c.68,5.19,1.17,11.49-.21,13.09,0,.5.2,3,4.46,13.92a7.69,7.69,0,0,1-2.69,9.06l-7,5-.48-.15c-12.77-3.93-20.29,1.85-20.36,1.91l-.21.13C142.74,441.11,135,444.52,126.92,444.52Zm-14.12-10a12.62,12.62,0,0,0,7,6.79c8.77,3.53,21.23-1.6,22.5-2.14,1.05-.8,8.77-6.07,21.61-2.31l6.22-4.45a5.68,5.68,0,0,0,2-6.7c-5.65-14.43-4.83-15.48-4-16,.57-1,.28-6.73-.36-11.55v-.21l3.67-45.27,0-.12c2.82-8.45.12-21.07-1.86-30.29a81.65,81.65,0,0,1-1.82-10.33,23.49,23.49,0,0,1,4.9-15.24l.24-.2c25.85-16.23,32.79-29.58,32.85-29.71l.17-.34,12.46-5-.37,1.82c0,.14-2.86,14.68,8,25.56a46.66,46.66,0,0,1,10.2,14.6,19.91,19.91,0,0,0,10.1,10.41l3,1.38.16.23c5.63,8.44,9.72,7.4,9.77,7.39l.77-.22.4.69c3.29,6,5.22,6.63,5.9,6.62a1.47,1.47,0,0,0,1.14-.85l1-2,.85,2.1c1.58,4,11.79,9.58,15.59,11.41l.92.44-.46.91c-.89,1.78,2.21,4.82,3.85,6l4.57,3.32-5.43-1.55c-5.84-1.67-12.88,1-14.85,1.78,0,4.35,5.5,10.32,15.22,16.51a12,12,0,0,0,8.71,1.68L312,366.84l7.84,2a4.33,4.33,0,0,0,5.4-4.19,11.6,11.6,0,0,0-3.56-8.33l-.78-.75a38.8,38.8,0,0,1-10.58-17.79l-.22-.82L299.41,326.8l.69-.72h0s1.73-3.39-10.55-12.75l-1.83-1.39,2.26-.39c.71-.12.7-.31.7-.41-.13-3.46-15.17-14.62-20.37-15.11a9.46,9.46,0,0,1-8.34-7.76l-5.32-29.88-7.73-26.17.23-.38c15.75-25.46-3.85-56.18-4.05-56.48l-2-3.09,3.11,1.55c1.68-.67,7.79-8.37,12.64-15.33l1.82-2.62v3.19c0,1.55,3.74,4.07,6.55,5.46,3.48-2.14,6.22-1.86,7.48-1.54,12.37-14.89-2.45-34.11-2.6-34.3l-.45-.57.4-.61c1.4-2.09-.73-7.45-1.59-9.16l-.22-.46.23-.45c12.13-23.29-10.38-38.22-11.34-38.85l-.33-.21-.1-.38c-1.44-5.77-11.85-16.72-11.95-16.83l-.28-.29v-.4c0-2.39-1.8-9-2.5-11.41l0-.28c0-9-.68-19.39-1.78-20.88-2.17-.39-3.44-6.08-3.8-16.94-5.28-8.54-14.91-9-16.52-9q-1.31.75-2.61,1.41a37.42,37.42,0,0,0-16.9,17l-.19.39c-2.21,4.8.24,14.59.27,14.69l.14.55-.41.4c-4.48,4.49-7.46,21.89-8,24.94a5,5,0,0,1,1,4.1c-.76,3.68-5.53,7.09-14.17,10.13-5.16,1.81-8.62,4.76-10.29,8.76-3.12,7.48,1,16.25,1,16.34l.43.91-6.91,3.15-.31-.06c-10.07-1.75-10.91-10.41-10.8-14-2.5,1-4.07,2.51-4.69,4.42-1.5,4.68,2.92,10.58,3,10.64l.73,1-1.08.54a5.22,5.22,0,0,1-4.15.28c-2.32-.81-4.18-3.09-5.32-4.83-1.06,4.44-.88,7.91.53,10.12a5.19,5.19,0,0,0,3.43,2.4l1.38.19-.61,1.25a2.27,2.27,0,0,0-.14,1.93c.67,1.73,3.31,3.07,4.27,3.44l.57.22.07.6c.41,3.72,6.21,3.78,6.27,3.78h1.13l-.14,1.12c-.4,3.21,3.22,4,3.38,4.09l2.16.48-7.76,5.65H153.4l-12,6.52a18.11,18.11,0,0,0-8.08,9l-.74,1.77L128,148l-1.67-1.09a.54.54,0,0,0-.68,0,.6.6,0,0,0-.17.71,24.09,24.09,0,0,1,.54,17.14l-.23.56-.6.06c-4.68.44-5.4,1.62-5.5,2-.25.81.81,2,1.37,2.51l.54.45-.24.66c-1.18,3.15.31,4,.37,4l1.31.67-1.07,1-2.37,2.09,2.48,1.24,8.45-2.35,4.07-12.81,1.17,1.63a2.55,2.55,0,0,0,1.79,1.18,5.29,5.29,0,0,0,3.48-1.36l.55-.47.62.37a3.08,3.08,0,0,0,2.7.4c2.11-.74,3.72-3.92,4.16-5.08l.44-1.18,1.05.7c4.62,3.08,17.59-5.3,22.2-8.79l1.22-.93L177,164l-.16.32c-4.92,9.84,7.16,37.28,7.28,37.56l.39.86-.85.43c-28.81,14.66-43.95,89.89-44.1,90.65l-.06.3-.22.22c-.09.08-8.8,8.94-5.51,16,2.61,5.59,4.68,34.43,4.76,35.65l.07.91-3.26.54c-2.25,24.31,8.23,55.59,8.33,55.91l.11.32-.11.33c-.26.76-6.51,18.68-16.73,21.91A34.36,34.36,0,0,0,112.8,434.49Z" style="fill:#fff"/><path d="M358.68,222.26l-7.26,14.29-5.2-4.85L340,238.63c1.57,15.57-12.76,10.89-12.76,10.89l-3.33,3.12c5.71,14.53,2.34,50.86,2.34,50.86l-8.56,1.56-10.39-4.68L300,307.65c-45.15-22.83-32.7-120.93-32.7-120.93,6.75,2.6,7.78-7.26,7.78-7.26,8.31,7.79,8.31,2.07,8.31,2.07,23.87,13,26.48,46.2,26.48,46.2l-17.66-18.17c-12.45,12.46,7.27,74.21,18.17,70.07s-7.26-44.13-7.26-44.13l4.14-3.8L322.86,234v-5.7c6.65-3,5.54-4.74,4.35-5.51l8.12,3.94c55.53-21.79-14.54-82.52-14.54-82.52L291.2,147.8,283.94,140l-2,0c1.35,9.58-5.75,23.4-5.75,23.4-5.19-4.68-9.35,2.07-9.35,2.07C241.9,154,232,115.1,232,115.1l6.75-5.71,21.28,5.71s4.05,5.88,6.08,8.76l-15.43-6.17c7.79,26.47,24.91,28.54,24.91,28.54L274.08,140l-10.38-10.9a18.45,18.45,0,0,1,10.64,1c-.87-1.34-1.46-2.09-1.46-2.09a4.13,4.13,0,0,0,.58-1.71l37,4.84s-19.35-21.35-35.58-30.35A28.12,28.12,0,0,0,271.11,90c16.2,8.43,39.16,22.66,47.61,39.07,0,0,2.06,4.67,7.52,0,5.24-4.5-9.26-60.45-79.41-73-.77-3.49-1.9-7.37-1.9-7.37s0-1.28,0-3.22c102.27,19.31,95.62,95.49,95.62,95.49H330.13C383.08,201.25,358.68,222.26,358.68,222.26Z" style="fill:#aa767b"/><path d="M300.22,308.87l-.65-.33c-18.78-9.5-30.48-33.64-33.82-69.83a270.48,270.48,0,0,1,.59-52.12l.16-1.27,1.19.46a3.67,3.67,0,0,0,3.39-.07c2.07-1.27,2.9-5,3-6.36l.21-2,1.47,1.37c4.47,4.19,5.93,3.87,6.17,3.77s.44-.81.45-1l0-1.64,1.45.77c24.07,13.08,27,46.66,27,47l.22,2.76L292.28,211c-7.9,10.27.94,47,10.7,62.09,2.73,4.22,5.3,6.25,7.08,5.57a3.78,3.78,0,0,0,2.14-2.26c4-9.65-9.82-40.2-10-40.51l-.3-.66,5-4.61,14.9,2.15v-5.2l.59-.27c4.43-2,4.64-3.11,4.65-3.23s-.33-.45-.44-.52l1-1.74,7.72,3.75c11.76-4.71,18.5-11.6,20-20.47,4.17-24.26-31.11-56.51-34.92-59.91l-29.65,3.64L283.49,141H283c.71,9.66-5.7,22.28-6,22.84l-.59,1.15-1-.87a4.34,4.34,0,0,0-3.57-1.35c-2.43.35-4.24,3.18-4.26,3.21l-.46.75-.81-.37c-25.06-11.49-34.91-49.4-35.32-51l-.16-.61,7.63-6.45,22.15,5.94.2.3s4.05,5.87,6.08,8.76l1.94,2.75L252.3,119.4c6.32,19.27,17.87,24.29,22,25.49l-1.1-4.38-11.39-12,1.69-.41a20,20,0,0,1,8.27.1l-.09-.11.39-.6a3,3,0,0,0,.42-1.29l.13-1,35.19,4.61c-5.25-5.53-20.46-20.93-33.44-28.12l-.44-.25-.06-.51a27.14,27.14,0,0,0-3.6-10.42l-1.73-3,3.06,1.59c17.27,9,39.61,23.14,48,39.5a2.75,2.75,0,0,0,1.75,1.48c1.13.25,2.58-.37,4.23-1.78.59-.51,1.23-3.63-.52-10.07-1.38-5.08-15.32-49.89-78.42-61.15L246,57l-.14-.66C245.1,53,244,49.1,244,49.06l0-.28s0-1.28,0-3.2l0-1.23,1.21.22c53.23,10.06,76.62,35.74,86.87,55.52,11.12,21.46,9.58,40.85,9.57,41l-.08.91h-9.1c28.63,33,33.71,54.19,32.88,66.17-.65,9.35-4.83,13.81-5.72,14.65l-7.79,15.32-5.42-5.06L341,239c.4,4.82-.66,8.28-3.17,10.3-3.5,2.82-8.64,1.82-10.36,1.37l-2.43,2.27c5.41,14.94,2.3,49.21,2.17,50.69l-.08.75-9.61,1.75-10-4.52ZM268.19,188c-1.19,11.08-9,96.93,31.65,118.41l7.23-7.24L317.81,304l7.5-1.36c.44-5.28,2.77-36.66-2.34-49.65l-.25-.63,4.25-4,.56.18c.06,0,5.76,1.82,9.08-.86,2-1.63,2.82-4.65,2.39-9l-.05-.44,7.21-8,5,4.63,6.75-13.28.15-.12c.05,0,4.58-4.13,5.19-13.56.77-11.79-4.48-32.85-33.84-66.24l-1.46-1.66h11.64a82.44,82.44,0,0,0-9.45-39.14c-10-19.2-32.68-44.09-84.2-54.14,0,.93,0,1.59,0,1.87.19.67,1.06,3.72,1.73,6.64C311.4,67,325.59,112.57,327,117.75c1.66,6.11,1.62,10.63-.11,12.12-2.19,1.87-4.2,2.62-6,2.21a4.78,4.78,0,0,1-3.1-2.57c-7.71-15-27.8-28.22-44.34-37.1a28.49,28.49,0,0,1,2.3,7.8c16.1,9.11,35.2,30.1,35.4,30.31l1.82,2-38.74-5.07c-.05.18-.12.35-.18.51.26.36.65.92,1.12,1.64l1.86,2.85-3.11-1.39a16.84,16.84,0,0,0-8.17-1.25l9.22,9.69,2,7.89-1.44-.17c-.72-.09-17.87-2.46-25.75-29.26l-.58-2,14.23,5.69-4-5.72L239,110.49l-5.86,5c1.36,4.88,11.31,38,33.31,48.73a8.59,8.59,0,0,1,5.15-3.4,5.8,5.8,0,0,1,4.17,1c1.6-3.41,6.19-14.08,5.12-21.71l-.16-1.15,3.62.06,7.21,7.72,29.52-3.63.34.29c1.65,1.44,40.48,35.44,35.91,62.06-1.67,9.71-9,17.17-21.67,22.15l-.41.16-6.26-3c-.4,1.38-2.06,2.72-5.15,4.16v6.21l-16.25-2.34-3.27,3c2.09,4.72,13.69,31.72,9.7,41.44a5.74,5.74,0,0,1-3.28,3.37c-2.85,1.08-6-1.05-9.47-6.35-9.47-14.63-20.17-54.95-9.77-65.36l.72-.72,16.27,16.75c-1.26-8.15-6.36-31.19-24.45-41.83a2.59,2.59,0,0,1-1.3,1.29c-1.61.69-3.85-.24-7-2.94-.45,1.87-1.48,4.69-3.64,6A5.24,5.24,0,0,1,268.19,188Z" style="fill:#fff"/><path d="M170.12,213.72c-13.93-.94-36.8-4.32-38.77-7.27-7.27-10.9-13.48-12.41-13.48-12.41,10.36,26.42-43.61-9.91-43.61-9.91l53.51-20.82c3.22-3.21,2.44-11.69,0-16.08-23.46-12.54-71.69-32-104.9-29-49.82,4.62,2,66,27,78.83,0,0-27.52,26-13.5,43.6L25.47,236s1,22.15,15.57,28.54L37.92,248s36.86,29.58,79.42-1l5.19,4.15,4.11-4.67,6.79-2.07s10.37-1.05,4.67,8.3l2.59,4.67s20.76-29.06-6.23-37.9l-1.55,3.64s2.07,18.17-15.06,17.13c0,0-57.61,33.22-76.81-4.68,0,0-5.19-22.82,15.05-34.77l42.05,13s-.52,4.15,9.34,2.08a33.18,33.18,0,0,0,5.34,11.12,8,8,0,0,0,11.75.76c3.78-3.53,8.07-9.1,5.23-14.48l35.45,7.37A77.86,77.86,0,0,1,170.12,213.72ZM67.51,180c-24.91-17.66-25.95-29.59-8.3-33.75s55,12,55,12ZM55.05,190.36s-67.47-48.79-36.84-62.29c24.54-10.8,70.41,10.71,87.66,19.69-9.18-4.23-27.28-10.16-51.89-6.83A21.06,21.06,0,0,0,43.88,145c-18.61,14.43,18.44,39.13,18.44,39.13Zm6.23,4.71,6.23-6.27c24.89,14.71,37.75,21.14,37.75,21.14Z" style="fill:#aa767b"/><path d="M30.19,118c32.64,0,75.8,17.64,97.58,29.28,2.44,4.39,3.22,12.87,0,16.08L74.26,184.13s29,19.54,40.42,19.54c4.14,0,6-2.59,3.19-9.63,0,0,6.21,1.51,13.48,12.41,2,3,24.84,6.33,38.77,7.27a77.86,77.86,0,0,0-4.87,6.84l-35.45-7.37c2.84,5.38-1.45,10.95-5.23,14.48a8.1,8.1,0,0,1-5.55,2.19,7.92,7.92,0,0,1-6.2-3,33.18,33.18,0,0,1-5.34-11.12,23.92,23.92,0,0,1-4.76.58c-4.91,0-4.58-2.66-4.58-2.66l-42-13C35.85,212.68,41,235.5,41,235.5c7,13.77,19,18.15,31.53,18.15,21.92,0,45.28-13.47,45.28-13.47.48,0,.94,0,1.39,0,15.63,0,13.67-17.17,13.67-17.17l1.55-3.64c27,8.84,6.23,37.9,6.23,37.9l-2.59-4.67c4.66-7.64-1.42-8.34-3.79-8.34a8.33,8.33,0,0,0-.88,0l-6.79,2.07-4.11,4.67-5.19-4.15C102.82,257.37,89,260.81,77,260.81A67.69,67.69,0,0,1,37.92,248L41,264.57C26.47,258.18,25.47,236,25.47,236l10.9,4.67c-14-17.65,13.5-43.6,13.5-43.6-25-12.88-76.82-74.21-27-78.83,2.37-.22,4.81-.32,7.32-.32m24.86,72.41,7.27-6.23s-37-24.7-18.44-39.13A21.06,21.06,0,0,1,54,140.93a106.6,106.6,0,0,1,14.27-1,90.18,90.18,0,0,1,37.62,7.8C92,140.51,59.39,125.1,34.44,125.1a40.39,40.39,0,0,0-16.23,3c-30.63,13.5,36.84,62.29,36.84,62.29M67.51,180l46.72-21.8S84.9,145.55,65.94,145.55a29.84,29.84,0,0,0-6.73.68c-17.65,4.16-16.61,16.09,8.3,33.75m37.75,30S92.4,203.51,67.51,188.8l-6.23,6.27,44,14.87M30.19,116h0c-2.6,0-5.12.11-7.5.33-16.33,1.51-21.16,9-22.34,15.09-2.5,12.87,8.83,29.49,15.81,38.25,9.18,11.54,21.08,22.42,30.42,27.95C41,203.41,25.8,221.25,31.67,236.51l-5.41-2.31-2.93-1.26.14,3.18c.05,1,1.24,23.47,16.77,30.29l3.47,1.52-.7-3.72-2.23-11.85A70.08,70.08,0,0,0,77,262.81c13.93,0,27.46-4.5,40.24-13.38l4,3.21,1.49,1.19L124,252.4l3.73-4.24,6-1.84.52,0c1.67,0,3,.41,3.37,1s.13,2-1.29,4.29l-.6,1,.56,1,2.59,4.67,1.54,2.76,1.84-2.57c.46-.64,11.17-15.85,7.06-28.36-1.93-5.89-6.74-10.12-14.3-12.6l-1.74-.57-.72,1.69-.13.32a10.64,10.64,0,0,0,.17-3.12l32.18,6.69,1.35.28.74-1.16a77.93,77.93,0,0,1,4.75-6.67l2.4-3-3.83-.26c-15.62-1.06-35.05-4.43-37.27-6.46-7.6-11.35-14.35-13.11-14.63-13.18l-3.74-.91,1.4,3.59c1.73,4.41,1.11,5.87.88,6.21-.39.57-1.42.69-2.21.69-7.84,0-26.43-10.89-36.08-17.09l49.9-19.4.39-.16.3-.29c4.15-4.16,3-13.72.33-18.47l-.29-.51-.51-.28C108.21,134.51,64.38,116,30.19,116ZM55,187.81c-13.52-10-44.18-35.92-42.67-50.18.36-3.36,2.56-5.89,6.73-7.73a38.33,38.33,0,0,1,15.43-2.8c15,0,32.93,5.76,47.63,11.79A101.86,101.86,0,0,0,68.25,138a108.87,108.87,0,0,0-14.54,1,23,23,0,0,0-11.06,4.47c-4.14,3.21-6.15,7.16-6,11.73.43,12,16.47,24.81,22.4,29.13L55,187.81Zm12.77-10.14c-17.37-12.51-19-19.47-18.41-22.53.76-3.92,6-5.95,10.36-7a27.54,27.54,0,0,1,6.27-.63c14.13,0,34.55,7.34,43.28,10.76l-41.5,19.36ZM65,194.21l2.87-2.9q9.18,5.41,16.1,9.31l-19-6.41ZM43,234.83c-.49-2.42-3.63-21.28,13.41-31.92l40.07,12.37a3.87,3.87,0,0,0,.73,1.17c1.12,1.27,3,1.92,5.56,1.92a22.31,22.31,0,0,0,3.35-.29,33.39,33.39,0,0,0,5.19,10.09,9.93,9.93,0,0,0,7.76,3.69,10.13,10.13,0,0,0,6.92-2.73,26.19,26.19,0,0,0,5-6.07l0,.22c0,.07.76,7.35-3.11,11.67-2,2.17-4.83,3.27-8.57,3.27-.41,0-.84,0-1.26,0l-.6,0-.52.3c-.23.13-23.17,13.2-44.29,13.2C58.66,251.65,48.7,246,43,234.83Z" style="fill:#fff"/><path d="M195.79,48.74a65.54,65.54,0,0,1,2.43-7.55q-11.75-.16-24.81.46a100.49,100.49,0,0,0-33.22,7.24c-11.28,4.62-21.86,11.52-16.11,20,0,0-25,9.35-1.61,33.74,0,0-11.88,23.36,28.6,20.25,0,0-4.54-1.75-5-4.68-23.22,1-19.15-11.41-19.15-11.41,5.45,5.72,13.72,8.52,19.3,9.84a2.09,2.09,0,0,1,.2-.5s-5-.59-5.48-7.32a50,50,0,0,1-9.72-9.29s3.25-6.12,9.48-6.5a72.48,72.48,0,0,0,9,13.73,4.37,4.37,0,0,0,1.94-.48s-4.88-6.43-3.08-11.68c-2-2.34-3.15-3.94-3.15-3.94,5.37-4,15.73-6,24.48-6.89,1.58-3.65,4.8-7,10.82-9.15,9.4-3.31,12.58-6.49,13.37-8.88l-10.78-2.55,1.64-6.66c-21.54.69-51.46,8.75-51.46,8.75C140.65,46.56,181.34,47.71,195.79,48.74ZM128.75,93c-4.15-6,0-13.75,0-13.75l6.75,6.88ZM171,65.28c-.52,6.66-29.22,17.64-29.22,17.64l-8.3-8.3Z" style="fill:#aa767b"/><path d="M144.09,124.17c-11.41,0-18.89-2.56-22.28-7.64-3.57-5.35-1.39-11.66-.53-13.69-7.78-8.26-11-15.77-9.46-22.33,1.62-7.09,8.17-10.82,10.81-12.07a8.45,8.45,0,0,1-.81-6.67c1.47-4.87,7.52-9.52,18-13.81a101.18,101.18,0,0,1,33.55-7.31c8.55-.42,16.91-.58,24.88-.46l1.46,0-.55,1.35A64.4,64.4,0,0,0,196.76,49l-.21.81-.83-.06c-12.16-.87-51.39-2.3-60.49,14,7.17-1.82,31.48-7.67,49.63-8.24l1.31,0-1.71,7L195.33,65l-.35,1c-1.14,3.44-5.85,6.64-14,9.5-5.1,1.79-8.54,4.69-10.23,8.61l-.23.54-.58.06c-10.78,1.14-18.74,3.25-23.17,6.11.53.69,1.39,1.77,2.49,3.07l.37.44-.18.53c-1.61,4.69,2.88,10.69,2.93,10.75l.72,1-1.07.54a5.31,5.31,0,0,1-2.39.59h-.45l-.3-.34a71.12,71.12,0,0,1-8.79-13.32c-4.16.56-6.79,4-7.68,5.34A49.13,49.13,0,0,0,141.5,108l.39.28,0,.47c.41,5.83,4.56,6.39,4.6,6.39l1.38.17-.59,1.25a2.15,2.15,0,0,0-.13.32l-.19.79.06.38c.31,1.93,3.27,3.47,4.38,3.9l4.11,1.6-4.39.33C148.65,124.08,146.29,124.17,144.09,124.17Zm49.06-82c-6.38,0-13,.17-19.69.5a99.32,99.32,0,0,0-32.89,7.16c-9.74,4-15.56,8.33-16.83,12.54a6.75,6.75,0,0,0,1.17,6l.71,1.06-1.18.44c-.09,0-8.93,3.43-10.67,11.12-1.36,6,1.81,13.06,9.42,21l.49.51-.32.63c0,.07-3.46,7,.12,12.34,3.29,4.91,11.62,7.19,24.15,6.66a6.81,6.81,0,0,1-2.32-2.85c-9.05.3-15.1-1.46-18-5.21a8.72,8.72,0,0,1-1.39-7.54l.52-1.6,1.15,1.22c3.9,4.09,9.32,6.66,14.18,8.26a9.59,9.59,0,0,1-1.84-5,51.43,51.43,0,0,1-9.53-9.2l-.43-.51.32-.59c.14-.27,3.59-6.62,10.3-7l.67,0,.29.59a74.54,74.54,0,0,0,8.23,12.84c-1.34-2.21-3.48-6.58-2.42-10.6-1.77-2.11-2.8-3.52-2.85-3.59l-.58-.79.79-.59c4.49-3.37,12.7-5.73,24.41-7,2-4.18,5.74-7.26,11.16-9.17,7.88-2.77,11.07-5.34,12.27-7.24L182,63.93l1.56-6.35c-21.07,1-49.62,8.58-49.91,8.66l-1.91.51.71-1.83C139.73,46.18,178,46.54,195,47.68q.86-3.09,1.73-5.51Zm-65.52,66.74a6.43,6.43,0,0,0,1.33,4c2.35,3.07,7.75,4.59,15.61,4.42C139.28,115.88,132.64,113.37,127.63,108.89Zm1-14.29-.69-1c-4.45-6.39-.24-14.45-.06-14.79l.64-1.2,8.39,8.55ZM129.07,81c-.82,2.13-2.06,6.55-.13,10.37l5.16-5.25Zm12.41,3-10-10L172.06,64,172,65.35c-.55,7.1-26.86,17.36-29.86,18.5Zm-6.1-8.93,6.6,6.59c9.72-3.76,24.09-10.55,27.32-15Z" style="fill:#fff"/></g></g></svg>