<svg xmlns="http://www.w3.org/2000/svg" viewBox="0 0 478.95 391.87"><title>Chasme</title><g id="a5b2bcbc-4fb0-4e7d-adc1-f8708e24e5e3" data-name="Layer 2"><g id="a457d46e-440d-4980-a710-8b6edadf7f30" data-name="Layer 1"><path d="M350.86,93.64l-34.12,9.82c13.42-18.87,46-65.32,46-65.32C373.84,38,350.86,93.64,350.86,93.64Z" style="fill:#c7c3c1"/><path d="M314.27,105.21l1.66-2.33C329.19,84.23,361.64,38,362,37.57l.3-.42h.51a3.45,3.45,0,0,1,2.94,1.51c5.4,7.92-11.93,50.54-13.92,55.37l-.19.45Zm49-66c-3.34,4.76-30.74,43.75-44.06,62.52l30.91-8.9c7.64-18.6,17.54-47.75,13.94-53A1.37,1.37,0,0,0,363.27,39.19Z" style="fill:#fff"/><path d="M333.58,342l12.17,7.54s11.61-20.89-17.4-22.05c0,0-4.06-19.16-18-16.26l-18.56-36,.22-.74-10.09,5.37-22.64-28.43c5.23-4.06-2.9-12.19-2.9-12.19l30.75-36c11.49-2.27,18.55-7.55,22.76-14,3.65,8.64,12.46,12.86,31,4.74a31.11,31.11,0,0,1-4.4-18l-6.39,9.87L322,159.17l-3.49,1.74-5.77-12.66,0-.11c4.64-12.77-7-27.85-7-27.85s-30.87-8.82-41.58,13.84v.1c-.29.6-.54,1.11-.8,1.74-6.36,1.47-14,10.38-17.23,15.21-.12.19-.24.36-.34.53l-1,1.67c-1.74,3.48-12.77,13.35-22.64,12.19a8.48,8.48,0,0,0-2.87.24l-.39.1c-11.12,2.86-33.64,21.07-37.4,24.19-.36.27-.55.43-.55.43l-8.69-13.93c-12.77-1.18-31.94-14.53-31.94-14.53l-2.89,22.06c10.14-1.7-2.66,32.19-9.28,40.05-3.6,4.26-11,4.64-17.42-13.93l-6.38-.58s-15.67,49.92-33.09,65.59l5.24,2.89s-26.12,42.37-31.94,42.37l4.66,2.9S33,337.93,22.5,337.93l-8.13,11s-19.15,7.55-11.61,25l8.71-12.76s19.15,3.47,29-9.88c0,0,24.95-23.2,22.64-31.33l4.63-3.48,19.15-40.62,5.23-2.9s14.51-36,18-36,9.87,2.9,9.87,2.9-13.93,8.13-8.13,22.06c0,0-23.78,40-33.08,44.68,0,0-4.63,12.19-1.16,13.35,0,0-20.9,37.15-27.27,40.05s-26.12,10.45-23.8,29.59c0,0,12.19-13.35,17.4-12.77,0,0,39.47-2.32,42.37-15.08s5.23-42.37,18.58-48.75,14.51-27.27,14.51-27.27S131.61,253.2,138,253.2s4.07-3.48,4.07-3.48l5.22,1.16s-8.22,40.49,1.41,47.07c10.93-23.94,38.16-71.61,80.42-68.55,0,0-29,24.95-12.77,37.14l5.22-1.16,42.16,36a27.84,27.84,0,0,1,7.18-5.83s6.68,8.66,10.34,16.25a25.12,25.12,0,0,0,6.93,8.71l3.63,2.9s-4.08,9.87,19.72,15.67c0,0,13.35,30.77,36,20.32C347.51,359.41,330.09,350.12,333.58,342ZM167.89,210.4l-15.28,23.43a2.63,2.63,0,0,1-4.45-2.8l14.73-24.41a2.64,2.64,0,0,1,4.57.1l.53,1A2.58,2.58,0,0,1,167.89,210.4Z" style="fill:#163a76"/><path d="M25.83,391.87l-.27-2.17C23.28,370.88,41.15,363,48.78,359.59l1.16-.51c4.87-2.21,20.26-28,26.37-38.83a3.06,3.06,0,0,1-.52-.77c-1.6-3.38,1.69-12.24,2.07-13.24l.14-.37.35-.17c8.42-4.21,29.83-39.59,32.4-43.88-4.42-11.36,3.64-19,7.19-21.76-2-.82-5.54-2.08-7.73-2.11-2.25,1.1-10.45,18.78-17.14,35.36l-.13.33-5.27,2.91L68.56,317.11l-4.33,3.25c1.08,8.83-20.17,28.95-23,31.58C32,364.31,15.47,362.73,11.94,362.23L2.56,376l-.72-1.67c-2.23-5.15-2.43-10-.61-14.38,3.08-7.43,10.9-11.11,12.5-11.79L22,336.93h.5c8.49,0,21.33-10.28,25-13.38l-6.46-4h3.49c3.25,0,18-20.69,30.53-41l-5.54-3.07,1-.94c17-15.31,32.65-64.64,32.81-65.14l.24-.77,7.82.71.21.62c4.34,12.58,8.73,15.16,11,15.58a5.06,5.06,0,0,0,4.76-2c5.82-6.91,15.33-32.14,12.21-37.61a1.67,1.67,0,0,0-2-.8l-1.33.22,3.29-25,1.35.94c.19.13,19.09,13.21,31.45,14.35l.49.05L181.18,189c3.78-3.1,26.06-21.17,37.45-24.1l.4-.1a9.65,9.65,0,0,1,3.23-.27c9.06,1.07,19.9-8.2,21.62-11.64l1-1.73.23-.35.13-.21c3.14-4.62,10.68-13.62,17.35-15.51.17-.39.35-.75.53-1.13v-.1l.1-.2c10.94-23.15,42.44-14.47,42.76-14.38l.32.09.2.27c.48.62,11.65,15.39,7.23,28.43L319,159.56l3.63-1.81,7.83,25.77,7.41-11.44-.35,4c-.5,5.67.94,11.54,4.27,17.44l.54,1-1,.45c-10.17,4.46-18.27,5.55-24,3.24a14.41,14.41,0,0,1-7.49-6.91c-4.88,6.58-12.29,10.93-22.06,12.92l-29.95,35.05c1.38,1.55,4.53,5.5,4.3,9.08a5.1,5.1,0,0,1-1.38,3.24l21.54,27.06,11.48-6.11-.8,2.65,18,34.95c12.5-2,17.27,12.85,18.23,16.42,9.48.5,15.67,3.21,18.39,8.05,3.82,6.79-.71,15.09-.9,15.44l-.51.92-11.94-7.4c-.83,5.77,9.47,12.68,13.8,15l1.78,1-1.83.85a21.34,21.34,0,0,1-17.05.87c-11.82-4.51-18.79-18.48-20.07-21.25-10.42-2.6-16.92-6.32-19.33-11.05a7.85,7.85,0,0,1-.82-5.1l-3.12-2.49a26.08,26.08,0,0,1-7.2-9.06,107.47,107.47,0,0,0-9.71-15.36,25.92,25.92,0,0,0-6.14,5.14l-.64.8-42.56-36.35-5.18,1.15-.37-.28a12.32,12.32,0,0,1-5.33-9.77c-.36-10.6,11.58-22.91,16.24-27.29-.44,0-.89,0-1.34,0-40.18,0-66.2,47.29-75.71,68.1l-.49,1.08-1-.67c-9.32-6.37-3.24-40.75-2-47.13l-2.64-.58a2.54,2.54,0,0,1-.3,1.21c-.69,1.3-2.39,1.93-5.18,1.93-3.91,0-12.61,18.5-17.58,31.72-.14,2.1-1.81,21.61-15.07,28C95,318.83,91.38,339.43,89,353.06c-.6,3.45-1.13,6.43-1.69,8.89-3,13.35-41.63,15.76-43.28,15.86h-.17c-3.43-.38-12,7.43-16.55,12.45ZM79.6,307.29c-1.3,3.53-2.9,9.43-2,11.33.12.27.25.34.35.37l1.15.38-.59,1.06C76.35,324.26,57.26,358,50.77,360.9l-1.18.52c-6.91,3.06-22.69,10-22.21,25.83,3.58-3.7,12-11.82,16.6-11.44,10.83-.65,39.14-4.46,41.37-14.31.55-2.4,1.07-5.36,1.67-8.79,2.61-14.87,6.19-35.24,17.46-40.63,12.67-6.07,13.93-26.23,13.94-26.43l.06-.29c2.08-5.54,12.78-33.16,19.51-33.16,2.73,0,3.3-.66,3.41-.87s-.07-.9-.18-1.07l-1.3-2,8.53,1.89-.19,1c-2.15,10.59-6.09,38.37.08,45.23,5.71-12.29,15.07-29.4,28.08-43.44,16.29-17.59,34-25.83,52.76-24.47l2.42.17-1.84,1.58c-.18.16-17.75,15.43-17.36,27.36a10.24,10.24,0,0,0,4.18,8l5.25-1.17L263.61,300a29.73,29.73,0,0,1,6.81-5.31l.75-.4.52.67c.27.36,6.79,8.83,10.45,16.42a24,24,0,0,0,6.65,8.37l4.22,3.37-.29.69a5.5,5.5,0,0,0,.58,4.26c1.52,2.9,6,7,18.46,10.05l.48.12.2.46c.07.16,7.08,16,19.16,20.63a18.91,18.91,0,0,0,13.65-.06c-4.52-2.73-15.72-10.38-12.59-17.65l.46-1.07,12.22,7.56c1-2.23,3-8,.44-12.55-2.43-4.32-8.31-6.69-17.47-7.06l-.78,0-.16-.76c-.16-.74-4-18.16-16.8-15.49l-.75.15-18.7-36.23-9.46,5-23.79-29.88.8-.62A3.24,3.24,0,0,0,260,248.2c.19-3-3.08-6.95-4.35-8.23l-.65-.65.6-.7,31-36.26.34-.06c10.1-2,17.54-6.56,22.11-13.57l1-1.57.73,1.73a13,13,0,0,0,7.15,7.44c5.08,2,12.32,1.08,21.5-2.79a33,33,0,0,1-4.06-14l-5.65,8.72-8.4-27.62L318,162.27l-6.38-14.14.12-.33c4.07-11.19-5.13-24.59-6.61-26.64-3.26-.82-30.26-7-40,13.2v.1l-.2.41c-.24.5-.45.94-.67,1.48l-.2.48-.5.11c-5.74,1.33-13.09,9.58-16.64,14.8l-.13.21a3.16,3.16,0,0,0-.18.27l-1,1.67c-1.79,3.58-13.08,13.91-23.62,12.67a7.77,7.77,0,0,0-2.53.22l-.37.1c-11.53,3-36,23.13-37,24-.36.28-.54.42-.54.43l-.88.72-9-14.48c-11-1.25-26-10.7-30.56-13.73l-2.54,19.29a3.47,3.47,0,0,1,2.76,1.83c3.9,6.82-6.49,32.85-12.41,39.89a7,7,0,0,1-6.65,2.66c-3.2-.6-7.9-3.93-12.27-16.29l-4.94-.45C103,217.21,89,259.41,72.93,275.05l4.95,2.74-.55.89c-4,6.49-22.72,36.44-30.7,42l4.23,2.63-1,.89c-.66.6-16.15,14.32-26.85,14.75l-8,10.87-.26.11c-.09,0-8.64,3.49-11.67,10.82A15.33,15.33,0,0,0,3,371.78l8-11.73.64.11c.18,0,18.66,3.2,28-9.48l.13-.14c6.81-6.34,24.12-24.14,22.35-30.33l-.18-.66,5-3.74,19.18-40.69,5.21-2.89c.69-1.7,4-9.75,7.57-17.7C107.31,236,109.07,236,110.13,236c3.65,0,10,2.86,10.28,3l1.76.79-1.66,1c-.54.32-13.1,7.87-7.72,20.81l.19.47-.25.43C111.76,264,89.26,301.82,79.6,307.29ZM150.43,236a3.71,3.71,0,0,1-1.64-.38,3.64,3.64,0,0,1-1.48-5.11L162,206.1a3.57,3.57,0,0,1,3.19-1.75,3.62,3.62,0,0,1,3.11,1.89l.53,1a3.57,3.57,0,0,1-.14,3.71l-15.28,23.42A3.57,3.57,0,0,1,150.43,236Zm14.71-29.66a1.61,1.61,0,0,0-1.39.79L149,231.55a1.64,1.64,0,0,0,.66,2.29,1.64,1.64,0,0,0,2.09-.55l15.28-23.44a1.58,1.58,0,0,0,.07-1.65l-.54-1a1.63,1.63,0,0,0-1.4-.84Z" style="fill:#fff"/><path d="M453.7,365.78l-11.59-2.9c-27.87,5.82-25-5.79-25-5.79l-7.55-2.32s-11-24.38-22.64-27.86-29-36-29-36l-9.27-.58c2.28-9.17-8.46-33.53-13.08-43.37a3.71,3.71,0,0,0-5.4-1.55c-4.55,3-11,5.44-17,7.3l23.89-32.6.75-.34c-5.92,10.16,5.63,8.46,5.63,8.46-1.74,12.77,28.43,54.55,28.43,54.55l-4.06,2.92c31.92,50.48,63.27,61.51,63.27,61.51l-1.16,5.21C452,351.85,453.7,365.78,453.7,365.78Z" style="fill:#163a76"/><path d="M454.88,367.11l-12.79-3.2c-12.58,2.6-20.74,2-24.27-1.63a6.13,6.13,0,0,1-1.75-4.48l-7.19-2.21-.19-.41c-.11-.24-11-24-22-27.31-11.2-3.38-27-31.72-29.34-36l-9.92-.62.29-1.17c2.26-9.1-9.39-35-13-42.7a2.67,2.67,0,0,0-1.7-1.47,2.77,2.77,0,0,0-2.26.33c-3.94,2.59-9.75,5.08-17.26,7.41l-2.89.9,25.83-35.25,3.85-1.75-1.59,2.71c-1.52,2.61-1.93,4.57-1.19,5.66,1.08,1.61,4.56,1.49,5.81,1.31l1.31-.19-.17,1.31c-1.67,12.23,27.95,53.42,28.25,53.84l.59.81-4.1,3c31.15,48.87,61.94,60.19,62.25,60.3l.83.3-1.08,4.85h.06c21.44,0,23.45,14.09,23.47,14.24Zm-12.75-5.25,10.2,2.55c-1.16-3.42-5.66-11.42-22.38-11l-1.28,0,1.25-5.64c-5.21-2.19-34.08-15.92-62.95-61.59l-.5-.8,4-2.88c-4.2-5.89-28.1-40-28.11-53.22-1.82.08-5.07-.1-6.55-2.27a4.25,4.25,0,0,1-.69-2.62l-19.32,26.37a62.66,62.66,0,0,0,13.83-6.23,4.71,4.71,0,0,1,6.86,2c4.55,9.69,14.67,32.69,13.36,42.87l8.7.54.27.49c.17.32,17.35,32.17,28.42,35.51s21.51,24.63,23.07,28l8,2.47-.23.92a4.12,4.12,0,0,0,1.17,3.6c2.11,2.16,7.75,4.08,22.62,1Z" style="fill:#fff"/><path d="M477.91,9.16c-1.74,18.67-17.85,46.14-23.63,46.14-6.78,0-65.58,45.35-68.38,47.51a27.06,27.06,0,0,0-11.35-13.6c6.7-4.93,27.5-22,33.31-46.68,5.34-22.68,43-36.14,60.35-41.22A7.56,7.56,0,0,1,477.91,9.16Z" style="fill:#c7c3c1"/><path d="M385.45,104.43l-.48-1.27a26,26,0,0,0-11-13.1l-1.25-.78L374,88.4c6.26-4.61,27.15-21.55,32.93-46.1C412.38,19,451.41,5.18,467.93.35A8.63,8.63,0,0,1,475.87,2a8.29,8.29,0,0,1,3,7.27c-1.72,18.45-17.83,47-24.63,47-4.86,0-44.15,29-67.76,47.3Zm-9.16-15.28a27.85,27.85,0,0,1,10,12.06c8.4-6.48,61.1-46.91,67.94-46.91,4.81,0,20.86-26.16,22.64-45.23h0a6.34,6.34,0,0,0-2.32-5.54,6.65,6.65,0,0,0-6.11-1.26C452.31,7,414.09,20.43,408.84,42.76,403.22,66.63,383.78,83.43,376.29,89.15Z" style="fill:#fff"/><path d="M263.72,301.39a12.66,12.66,0,0,0-1.54,2.3c-2.32,4.64-46.42,14.51-46.42,14.51C214,322.26,203,322.26,203,322.26L187.9,335.61c-18,36-28.43-.58-28.43-.58-11.61-7.54-9.87-36.57-9.87-36.57a4.46,4.46,0,0,1-.91-.51c10.93-23.94,38.16-71.61,80.42-68.55,0,0-29,24.95-12.77,37.14l5.22-1.16Z" style="fill:#6e5427"/><path d="M172.67,352.45c-.24,0-.47,0-.7,0-8.09-.75-12.61-14.31-13.36-16.76-10.78-7.47-10.24-32.12-10.05-36.6-.16-.1-.32-.2-.47-.31l-.64-.49.33-.73c5.65-12.36,15.2-30.15,28.64-44.66,16.29-17.59,34-25.83,52.76-24.47l2.42.17-1.84,1.58c-.18.16-17.75,15.43-17.36,27.36a10.22,10.22,0,0,0,4.18,8l5.25-1.17,43.29,37-.63.76a11.72,11.72,0,0,0-1.42,2.12c-2.36,4.72-38.25,13-46.64,14.92-2.27,3.77-10.9,4.15-13.06,4.19l-14.66,13C183.3,347,177.91,352.45,172.67,352.45ZM150,297.54h0l.66.27,0,.71c0,.28-1.57,28.54,9.42,35.67l.32.2.1.36c0,.15,4.38,15,11.73,15.68,4.53.41,9.65-4.86,14.85-15.27l.09-.17.14-.13,15.37-13.6H203c4,0,10.78-.94,11.85-3.45l.2-.47.5-.11c21.45-4.81,44.43-11.35,45.75-14a13.42,13.42,0,0,1,1-1.72l-41-35.06-5.18,1.15-.37-.28a12.32,12.32,0,0,1-5.33-9.77c-.36-10.6,11.58-22.9,16.24-27.29-.44,0-.9,0-1.34,0C185.66,230.26,159.79,276.32,150,297.54Z" style="fill:#fff"/><path d="M244.78,153.38c-1.74,3.47-12.77,13.35-22.64,12.19a8.48,8.48,0,0,0-2.87.24,7.92,7.92,0,0,1,2.24-.33c-4.3-.48-29.69-2.66-49.27,11.12-12.77-1.18-31.94-14.53-31.94-14.53l-2.89,22.06c-40.58,6.84-74.54-13-89.66-24a9.47,9.47,0,0,1-1-14.47c15.73-15.23,53.94-45.69,88.36-22.44C179.77,153.38,244.78,153.38,244.78,153.38Z" style="fill:#c7c3c1"/><path d="M120.51,186.54c-32.64,0-59.27-15.4-73.35-25.62a10.48,10.48,0,0,1-1.13-16c15.21-14.71,54.38-46.36,89.62-22.55,43.92,29.66,108.48,30,109.13,30h1.61l-.72,1.44c-1.82,3.65-13.13,14-23.65,12.74a7.77,7.77,0,0,0-2.53.22l-.12-.49c-7.67-.58-29.39-.95-46.56,11.13l-.3.21-.37,0c-11-1-26.42-10.71-31.06-13.78L138.3,185l-.73.12A103,103,0,0,1,120.51,186.54ZM108,115.79c-25.58,0-49.57,19.87-60.62,30.57a8.48,8.48,0,0,0,.92,12.94c16.1,11.7,48.91,30.29,88.17,24l3-23,1.35.94c.18.13,18.73,13,31.09,14.32C191.61,162,216.76,164,221.62,164.49v0c.23,0,.44,0,.65,0,8,.93,17.4-6.18,20.67-10.23-11-.29-68.18-3.15-108.4-30.31A46.47,46.47,0,0,0,108,115.79Z" style="fill:#fff"/><path d="M263.34,136c-6.36,1.47-14,10.38-17.23,15.21l3.88-6.51c-7.53-11.61-62.09-27.28-135.8-51.08C67.51,78.52,49.69,52.5,42.91,35.45A12,12,0,0,1,54.55,19.07c31.52,1.31,100.18,7.6,111.29,37.39C180.35,95.34,263.34,136,263.34,136Z" style="fill:#c7c3c1"/><path d="M246.93,151.74l-1.68-1.08,3.55-5.95c-7.21-9.44-47-22.13-101.81-39.57-10.6-3.38-21.57-6.87-33.11-10.6-46-14.86-64.5-40.13-71.9-58.72A13,13,0,0,1,54.59,18.07c29.93,1.25,100.77,7.45,112.19,38,14.2,38.07,96.18,78.56,97,79l2.53,1.24-2.74.63C257.83,138.27,250.48,146.52,246.93,151.74ZM54.05,20.06a11,11,0,0,0-10.21,15C51.07,53.27,69.21,78,114.49,92.64,126,96.36,137,99.85,147.6,103.23c57.75,18.4,96.06,30.6,103.07,40.65,3-3.25,6.6-6.47,10.11-8.07-13.36-6.77-82.52-43.21-95.87-79C153.91,27.34,84,21.3,54.51,20.07Z" style="fill:#fff"/><path d="M330.09,185.86,322,159.17l-3.5,1.74-5.76-12.67,0-.09c4.63-12.77-7-27.85-7-27.85l-6.37-4.66,11-5.22-8.11-2.31,27.85-16.25L315,85.47l40-2.32c33.66,3.48,32.5,28.43,32.5,28.43L369,113.32c-.58-5.21-12.77-6.37-12.77-6.37-54.56,33.08-2.32,76-2.32,76-2.12,1.11-10.28,13.68-12.19,14.51Z" style="fill:#544a35"/><path d="M341.47,198.67l-12.26-12.28-.07-.24-7.77-25.56L318,162.26l-6.38-14.09.13-.36C315.94,136.27,306,122.39,305,121l-7.61-5.56,10.14-4.8-7.82-2.24L327.87,92l-17.2-7.28,44.41-2.58h.08c34.19,3.54,33.4,29.22,33.39,29.48l0,.87-20.41,1.91-.11-1c-.39-3.47-8.34-5.09-11.55-5.45-15.06,9.21-23.14,20-24,32.14-1.61,22.3,21.86,41.88,22.09,42.08l1.17,1-1.34.7c-.86.45-3.73,4.27-5.83,7.07-3.63,4.83-5.34,7-6.42,7.47ZM331,185.33l10.81,10.83a81.46,81.46,0,0,0,5.13-6.43,73.3,73.3,0,0,1,5.42-6.77c-4.5-4-23.42-22-21.91-43,.92-12.89,9.42-24.3,25.26-33.9l.29-.17.33,0c1.25.12,11.7,1.26,13.45,6.3l16.79-1.58c-.15-4.38-2.45-23.48-31.52-26.52l-35.69,2.07,13,5.5-27.55,16.07,8.41,2.4-11.89,5.63,5.22,3.87c.48.62,11.66,15.38,7.25,28.42L319,159.55l3.62-1.81Z" style="fill:#fff"/><path d="M349.73,203.9c-2,2.37-11,14.19-11.92,15.88l-.75.34-23.89,32.6c-4.72,1.45-9.13,2.54-12.05,3.2a6.35,6.35,0,0,0-4.64,4.3L292,274.52l-10.09,5.37-22.64-28.43c5.23-4.06-2.9-12.19-2.9-12.19l30.75-36c11.49-2.27,18.55-7.55,22.76-14-5.25-12.39.16-33.91,2.78-41.14l0,.11,5.77,12.66,3.49-1.74,4.18,13.76A41.65,41.65,0,0,0,340.88,194h0Z" style="fill:#6e5427"/><path d="M281.66,281.17l-23.79-29.88.8-.62A3.26,3.26,0,0,0,260,248.2c.19-3-3.08-6.95-4.35-8.23l-.65-.65,31.58-37,.34-.06c9.88-2,17.22-6.37,21.83-13.13-5.12-13,.54-34.7,3-41.37l1-2.7.93,2.78L319,159.56l3.63-1.81,4.52,14.89a40.31,40.31,0,0,0,14.37,20.58l.14.13,9.44,10.54-.57.66c-2.09,2.42-10.92,14.18-11.81,15.73l-.16.28-.81.36-23.92,32.66-.32.09c-4.82,1.48-9.26,2.57-12.13,3.23a5.31,5.31,0,0,0-3.9,3.62l-4.59,14.69Zm-21-29.61,21.54,27.06,9-4.79,4.34-13.91a7.32,7.32,0,0,1,5.37-5c2.77-.63,7-1.68,11.66-3.09l23.85-32.54.71-.32c1.49-2.33,8.68-11.87,11.29-15.08l-8.21-9.16a42.25,42.25,0,0,1-15-21.54l-3.84-12.62L318,162.27l-5.18-11.38c-2.61,8.39-6.69,26.91-2,38l.21.49-.29.45c-4.83,7.39-12.59,12.22-23.06,14.36l-29.95,35.05c1.38,1.55,4.53,5.5,4.3,9.08A5.1,5.1,0,0,1,260.65,251.56Z" style="fill:#fff"/><path d="M465.89,235.79s-4.63-15.09-14.5-13.93l-1.74-5.23s-13.1,6.81-35.33-41.31a16.25,16.25,0,0,0-8.83-8.44c-2.39-.92-5.16-3-7.5-7.71,0,0,19.74-23.8-10.43-47.58l-9.55.89a20.7,20.7,0,0,1-12-2.85c-3.78-2.13-9.77-2.69-9.77-2.69-38.7,12.19-24.61,53.36-15.12,73.24a17.18,17.18,0,0,0-2.28,8.6,17.4,17.4,0,0,0,9.8,15.66c.38.18.75.35,1.14.51a17.44,17.44,0,0,0,19-4.11,27.59,27.59,0,0,0,6.24-3.67c1.17-2.29,2.42-5,3.67-8L438,232.89l6.39-.58s7,9.27,10.43,8.11l4.08,13.93,5.79-5.79,3.48,9.27S482.14,250.88,465.89,235.79ZM361.64,143.27c-.87,8.81-14.51,9.49-18.39,1.55-2.82-5.78-.91-13.54,2-18.09a6.52,6.52,0,0,1,11,0C359.67,132.13,362.07,139,361.64,143.27Z" style="fill:#163a76"/><path d="M467.67,259.22l-3.33-8.86-5.89,5.89-4.31-14.73c-3.64-.13-8.54-6.06-10.17-8.16l-6.22.56L379.11,190.7c-1.16,2.7-2.24,5-3.21,6.93l-.1.19-.17.13a28.56,28.56,0,0,1-6.28,3.73,18.41,18.41,0,0,1-20,4.19c-.41-.16-.81-.34-1.22-.54a18.51,18.51,0,0,1-10.35-16.55,18.21,18.21,0,0,1,2.16-8.64c-6.19-13.08-15.1-37.15-7.36-55,4-9.12,11.81-15.58,23.3-19.2l.2-.06.2,0c.25,0,6.24.61,10.16,2.82a19.59,19.59,0,0,0,11.46,2.72l9.94-.92.32.24c10.25,8.09,16,17.07,17,26.69a32.11,32.11,0,0,1-6,21.79c1.82,3.42,4.07,5.66,6.68,6.66a17.23,17.23,0,0,1,9.38,9c14.49,31.37,24.95,38.88,29.9,40.57,2.64.9,4,.27,4.05.27l1.05-.54,1.86,5.6c9.37-.4,14,12.37,14.68,14.43,5.91,5.55,8.57,10.73,7.9,15.39-.78,5.44-5.8,8-6,8.11Zm-2.54-12.47,3.59,9.59a9.24,9.24,0,0,0,4-6c.57-4-1.95-8.66-7.48-13.8l-.19-.18-.08-.26c-.05-.14-4.51-14.28-13.44-13.23l-.81.1-1.69-5.1a8.93,8.93,0,0,1-4.52-.49c-6.41-2.19-17-11.18-31.07-41.62a15.15,15.15,0,0,0-8.28-7.93c-3.23-1.24-5.93-4-8-8.19l-.3-.58.42-.51c.07-.08,7.24-8.91,6-20.86-1-9-6.32-17.38-15.93-25l-9.15.85a21.63,21.63,0,0,1-12.62-3c-3.18-1.79-8.13-2.43-9.17-2.55-10.81,3.45-18.17,9.52-21.87,18-7.52,17.3,1.5,41.11,7.54,53.76l.23.48-.26.46a16.17,16.17,0,0,0-2.15,8.1A16.5,16.5,0,0,0,349,203.54c.36.17.7.33,1.07.48a16.45,16.45,0,0,0,17.94-3.87l.14-.15.18-.08a27,27,0,0,0,5.85-3.4c1.06-2.09,2.25-4.7,3.54-7.76l.5-1.17,60.06,44.27,6.57-.6.34.45c2.63,3.51,7.41,8.39,9.32,7.77l1-.33,3.89,13.3Zm-112.35-95.4a11.33,11.33,0,0,1-10.43-6.09c-3-6.15-1.05-14.19,2-19.06a7.38,7.38,0,0,1,6.23-3.46h.06a7.58,7.58,0,0,1,6.36,3.44c3.75,5.8,6.06,12.87,5.63,17.19-.4,4-3.34,7-7.68,7.79A12,12,0,0,1,352.78,151.35Zm-2.13-26.61h0a5.36,5.36,0,0,0-4.56,2.52c-2.86,4.56-4.44,11.9-1.9,17.12,2,4,6.75,5.49,10.45,4.81,3.48-.62,5.74-2.88,6-6h0c.38-3.85-1.85-10.54-5.32-15.9A5.57,5.57,0,0,0,350.65,124.74Z" style="fill:#fff"/><path d="M369.56,184.13l78.93,141L397.42,171.37h0a6,6,0,0,0-6.36-6.48C382.65,165.44,369.56,168.78,369.56,184.13Z" style="fill:#0b182b"/><path d="M447.62,325.65,368.56,184.39v-.26c0-16.32,14.06-19.69,22.44-20.24a7,7,0,0,1,7.43,7.35l51,153.61ZM370.56,183.87,444.22,315.5l-47.82-144,0-.21a5,5,0,0,0-1.38-3.9,5,5,0,0,0-3.91-1.49C381.8,166.5,370.7,170.13,370.56,183.87Z" style="fill:#fff"/></g></g></svg>