<svg xmlns="http://www.w3.org/2000/svg" viewBox="0 0 503.84 293.66"><title>Chimera_1</title><g id="a4dfa8d8-86b0-46e0-bebf-630cfc08ad77" data-name="Layer 2"><g id="f47c8d3f-9127-4691-ab5c-a6227f4566b2" data-name="Layer 1"><path d="M197.72,66.33c-2.1-1.34-4.85-3.15-7.52-3,8-1.09,20.38-3.66,22.48-12.78,2.55-10.92,14.08-15.58,14.45-15.73-.51.07-22.71,3.45-23.73,12.13s-25-4.13-12.39-16.51a17.13,17.13,0,0,1-10.34-.31c3.29-14.29,9.4-25,13.18-27.31,0,0-23.62-1.13-43.6,18.84A69.1,69.1,0,0,1,135.15,33L116.82,15.09,99.66,34.17a68.75,68.75,0,0,1-15.8-10.32c-21.19-18.66-44.7-16-44.7-16,3.92,2,10.7,12.37,14.89,26.41a17.19,17.19,0,0,1-10.3,1C57.13,46.75,34,61.15,32.43,52.46,30.88,44,9,41.94,8,41.87c.71.24,12.21,4.22,15.38,14.78,2.68,9,15.19,10.75,23.25,11.32-2.67,0-5.3,2-7.32,3.43-6.13,4.51-29.76-9.52-30.08-9.71C9.45,62,28.65,85,41.57,82.38c9-1.81,14-.77,20.11,5.24,5.66,5.55,5.12,12.61,1.08,19-5.61,8.87-1.84,21.88-.33,26.19.18-1.41,1.65-4.11,7.37-9.06,10.29-8.93,11.53,26.93,11.53,26.93,11.33-9,12.55,14.45,12.55,14.45-3.15,7.18,2.41,29.58,2.41,29.58s0-12.68,11.95-15.24c6.58-1.41,11.89,7.49,14.19,12.42,2-5.06,6.72-14.33,13.38-13.34C147.93,180.37,148.7,193,148.7,193s.16-.88.39-2.33q-1.05-5.61-1.72-11.61a111.15,111.15,0,0,1,1.1-33.75,66.81,66.81,0,0,1,2.63-9c-1.57,2.75-3.1,4.61-4.46,4.87-5.58,1.07-10.32,18.83-10.32,18.83l-5.16-4.64-3.1,9.29-3.61-7-2.94,5.5-3.27-5.26-3.16,7.19L111.4,156l-4.85,5s-5.86-17.43-11.49-18.14c-3.56-.44-8.9-11.49-13-21A12.78,12.78,0,0,1,85.54,107c1,12.57,3.78,14,5,14a1.21,1.21,0,0,0,.56-.12c2.29,9.32,7.71,14.11,8.37,14.66-3.16-3.08,1.78-21.77,1.78-21.77.27,8.26,7.54,11.94,8,12.15-3.45-1.87-.75-12.09-.75-12.09l4.76,9.78,1.55-8.11,5.45,6.78,5-7.16,2.06,8L131.42,113s3.34,10,0,12.11c.43-.24,7.45-4.37,7.2-12.63,0,0,6.12,18.37,3.16,21.62a28,28,0,0,0,6.91-12.83,28.59,28.59,0,0,1-2.2-6.5c-.11-.56-.29-1.22-.48-1.92-.92-3.4-2.3-8.54-.06-14.48,1.62-4.29,4.46-7.79,6.75-10.61l.09-.1c6.41-7.88,16.56-12.16,27.85-11.74a33,33,0,0,1,7.47,1.21,31.61,31.61,0,0,1,7.89.25c3-4.26,6-7,9.4-8.47l8.41-3.64,1.09,1.88A33.49,33.49,0,0,1,220,63l.65-.43h0a99.24,99.24,0,0,0,6.48-7.84C226.82,54.94,204.13,70.43,197.72,66.33ZM76.07,71.91c.41-.35-6.23-12.06-.64-14.86a7.54,7.54,0,0,1,7.13.26c3.73,2.52,6.61,6.16,10.67,8.21,1.93,1,4.57,2.3,6.63,2.55A42.82,42.82,0,0,0,76.07,71.91Zm85-2.74a42.79,42.79,0,0,0-24-2.32c2-.39,4.58-1.88,6.46-3,3.91-2.31,6.55-6.13,10.12-8.87a7.54,7.54,0,0,1,7.1-.71C166.54,56.74,160.65,68.85,161.08,69.17Z" style="fill:#ce1130"/><path d="M97.28,202.87l-2-7.91c-.22-.92-5.49-22.37-2.44-30-.23-3.81-1.62-13.31-5.51-15.06-1.46-.65-3.28-.13-5.4,1.56L80.4,152.7l-.06-2c-.34-9.55-2.44-25.38-6.68-27.22-.33-.15-1.36-.59-3.21,1-6,5.24-6.93,7.65-7,8.44l-.54,4.2-1.39-4c-1.79-5.1-5.32-18,.42-27.05,2.46-3.89,5.6-11.36-.93-17.77-5.67-5.56-10.34-6.77-19.21-5a11.55,11.55,0,0,1-2.29.23c-13.35,0-30.85-21.05-31-21.28L5.06,58l4.7,2.82c6,3.63,24.3,13.2,29,9.77l.15-.11a31.26,31.26,0,0,1,2.91-2C35,67.63,24.88,65.13,22.43,56.94c-3-10.15-14.26-14-14.74-14.12L0,40.28l8.08.6c.23,0,23.59,1.84,25.34,11.4a2,2,0,0,0,1.94,1.81c3.19.36,8.78-3.07,10.79-7.63,1.14-2.6,1.54-6.54-3-10.51L40,33.26l4,1a16.28,16.28,0,0,0,8.84-.57c-4.41-14.29-11-23.31-14.12-24.94L35.79,7.2l3.26-.37c.24,0,24.19-2.47,45.48,16.27a68.14,68.14,0,0,0,14.88,9.84l17.36-19.29,18.54,18.11A67.94,67.94,0,0,0,149.54,21C169.6.94,193.66,1.86,193.9,1.86l3.27.16-2.8,1.7c-3,1.83-9,11.25-12.52,25.79a16.22,16.22,0,0,0,8.86,0l4-1.23-3,2.9c-4.34,4.25-3.69,8.15-2.38,10.67,2.29,4.43,8.1,7.52,11.25,6.94a2,2,0,0,0,1.83-1.93c1.13-9.63,24.35-13,24.58-13l8-1.11-7.49,3c-.46.19-11.45,4.74-13.84,15-1.93,8.33-11.84,11.47-18.58,12.79a32,32,0,0,1,3,1.78l.15.1c5.06,3.24,23.61-8.32,28.3-11.59l4.28-3L228,55.27a96.55,96.55,0,0,1-6.48,7.86l-.06.11-.88.59a33,33,0,0,0-4.91,4.06l-.92.92-1.3-2.24-7.59,3.29c-3.2,1.4-6.14,4.06-9,8.12l-.34.5-.61-.08a29.85,29.85,0,0,0-7.64-.24l-.19,0-.2-.05A31,31,0,0,0,180.63,77c-11-.4-20.84,3.74-27,11.37l-.07.09c-2.25,2.77-5,6.2-6.6,10.34-2.13,5.63-.8,10.58.08,13.86l0,.11c.19.69.36,1.34.47,1.89a28.37,28.37,0,0,0,2.12,6.26l.16.33-.09.35a29.15,29.15,0,0,1-7.19,13.3l-1.43-1.39c1.45-1.6-.08-9.46-2-16.31a16.53,16.53,0,0,1-7.09,8.86l-1-1.72c1.43-.9,1.14-4.72.33-8.19l-4.16,10.16-2.28-8.82-4.52,6.48-4.93-6.14-1.71,8.94-4.81-9.87c-.58,3.52-.63,7.36.85,8.17l-.91,1.77a16.68,16.68,0,0,1-7.64-8.41c-1.51,7-2.54,14.91-1,16.42l-1.34,1.48A29.39,29.39,0,0,1,90.33,122c-2.84-.18-4.72-4.47-5.59-12.76A11.71,11.71,0,0,0,83,121.47c7.16,16.47,10.6,20.17,12.22,20.37,5.24.66,10.12,12.75,11.78,17.29l4.79-4.91,3.37,8.3,3-6.76,3.35,5.4,3-5.64,3.4,6.55,2.83-8.49,5.1,4.59c1.37-4.64,5.48-17,10.66-18,.44-.08,1.67-.67,3.78-4.38l1.81.82a67.67,67.67,0,0,0-2.59,8.9A110.14,110.14,0,0,0,148.36,179c.45,4,1,7.89,1.72,11.53l0,.17,0,.18c-.23,1.46-.39,2.35-.39,2.35l-1.46,8-.52-8.14c0-.48-.9-11.86-12.05-13.52-6.41-.94-11,9.49-12.3,12.71l-.85,2.17-1-2.11c-1.47-3.13-6.74-13.22-13.08-11.87-11,2.37-11.16,13.78-11.16,14.27ZM86.05,147.63a5.07,5.07,0,0,1,2.13.46c5.79,2.61,6.63,15.53,6.7,17l0,.23-.1.22c-2.11,4.8,0,17.16,1.38,24.07A15.39,15.39,0,0,1,108,178.5c6.59-1.43,11.73,6.1,14.33,11,2.27-5.07,6.94-12.91,13.59-11.93A14.93,14.93,0,0,1,147.13,185c-.28-1.91-.53-3.87-.76-5.86a112.21,112.21,0,0,1,1.12-34.06c.25-1.28.56-2.53.9-3.73a3.7,3.7,0,0,1-1.56.74c-3.62.69-7.77,11.48-9.54,18.11l-.43,1.58-5.23-4.71-3.37,10.08-3.82-7.38-2.87,5.35L118.39,160,115,167.65l-4-9.85-4.93,5-.52-1.55c-2.19-6.51-7-17-10.67-17.46-3.29-.42-7.42-6.86-13.8-21.56a13.7,13.7,0,0,1,3.76-16L86.38,105l.15,1.94c1,12.91,3.86,13.06,4,13.06a.38.38,0,0,0,.13,0l1.14-.63.26,1.29a29.69,29.69,0,0,0,5.39,11.29c-.31-6.09,2.18-16,2.82-18.41l1.74-6.58.22,6.8a12.79,12.79,0,0,0,4.34,9.09c-.47-3.51.62-8,.94-9.25l.69-2.6,4.62,9.49,1.4-7.29,6,7.44,5.48-7.85,1.86,7.19,4-9.77.86,2.56c.4,1.2,1.78,5.65,1.52,9.19a12.75,12.75,0,0,0,3.75-9.37l-.2-6.8,2.15,6.46c.8,2.39,3.9,12.08,4,18.18a29.54,29.54,0,0,0,4.07-9,30.14,30.14,0,0,1-2.12-6.39c-.1-.52-.27-1.13-.44-1.77l0-.1c-.95-3.54-2.37-8.86,0-15.09,1.68-4.45,4.58-8,6.91-10.89l.07-.09c6.62-8.13,17.06-12.56,28.68-12.12a33.5,33.5,0,0,1,7.51,1.2,31.48,31.48,0,0,1,7.34.19c2.95-4.1,6.06-6.82,9.47-8.31l9.22-4,.9,1.55a34.5,34.5,0,0,1,4.29-3.41l.54-.36c.95-1,1.81-2,2.57-2.93-7.3,4.49-20.3,11.53-25.36,8.29l-.15-.09c-2-1.28-4.5-2.86-6.75-2.71l-.21-2c13.1-1.78,20.18-5.71,21.64-12s5.85-10.72,9.51-13.33c-7,1.72-16.24,5.08-16.83,10.06a4,4,0,0,1-3.45,3.67c-3.9.71-10.61-2.62-13.39-8A10,10,0,0,1,188.38,32a17.67,17.67,0,0,1-8.06-.91l-.82-.3.2-.86c2.75-12,7.54-21.68,11.45-26A63.21,63.21,0,0,0,151,22.4a70.08,70.08,0,0,1-15.33,11.47l-.65.36-18.11-17.7-17,18.86-.67-.32a70.44,70.44,0,0,1-16-10.47A63.16,63.16,0,0,0,41.92,8.71C46.09,12.78,51.5,22.19,55,33.94l.25.85-.8.35a17.63,17.63,0,0,1-8,1.42A10,10,0,0,1,48,47.26c-2.44,5.54-8.9,9.27-12.86,8.82a4,4,0,0,1-3.67-3.44C30.55,47.71,21,45,14,43.7c3.82,2.37,8.47,6.42,10.35,12.67S33.52,66,46.71,67l-.08,2C44.38,69,42,70.7,40.06,72.1l-.14.11c-4.83,3.55-18.24-2.65-25.83-6.66,6.27,6.51,18.47,17.64,27.28,15.85,9.54-1.93,14.84-.55,21,5.51,5.5,5.39,5.95,12.78,1.23,20.26-4.55,7.18-2.57,17.44-1,22.81a35.89,35.89,0,0,1,6.56-7c1.87-1.61,3.65-2.06,5.32-1.34,6,2.59,7.45,20.94,7.79,27.17A7.47,7.47,0,0,1,86.05,147.63Zm-18-70.29L75,71.54c-.1-.27-.25-.63-.38-1C73.15,67,69.81,58.74,75,56.16a8.58,8.58,0,0,1,8.14.32A45.67,45.67,0,0,1,87.6,60.1a29.67,29.67,0,0,0,6.08,4.53A23.15,23.15,0,0,0,100,67.08h0l-.25,2h0a41.54,41.54,0,0,0-23.18,3.73ZM78.83,57.28a6.58,6.58,0,0,0-3,.67c-3.53,1.76-.67,8.86.56,11.89.09.24.18.46.26.65a44.51,44.51,0,0,1,16.76-3.73l-.69-.35a31.29,31.29,0,0,1-6.5-4.81A42.63,42.63,0,0,0,82,58.14,5.8,5.8,0,0,0,78.83,57.28Zm90.73,16.84-8.89-4a41.94,41.94,0,0,0-23.39-2.25l-.37-2A23.74,23.74,0,0,0,143.05,63a29.54,29.54,0,0,0,5.77-4.9,42.82,42.82,0,0,1,4.25-3.9,8.54,8.54,0,0,1,8.1-.84c5.32,2.25,2.51,10.74,1.32,14.37-.12.34-.24.7-.32,1ZM145,65.1a44.75,44.75,0,0,1,15.36,2.7c.06-.21.13-.43.22-.68,1-3.1,3.43-10.36-.2-11.9a6.53,6.53,0,0,0-6.1.59,40.67,40.67,0,0,0-4,3.72,31.25,31.25,0,0,1-6.18,5.21l-.67.39Z" style="fill:#fff"/><path d="M360.42,34.6s-3.51,43.71-40.2,23c-5.68-3.2-9.67-3.08-11,1.13a28.06,28.06,0,0,1-7.33-5.42c-5-5.26-16.09-5.38-23.41-4.79-1.14-16.37,6.48-33.06,21-41.67C326.66-9.2,349.2,10.31,360.42,34.6Z" style="fill:#95928a"/><path d="M337.85,64.19c-5.34,0-11.4-1.9-18.12-5.69-3.31-1.87-5.94-2.51-7.58-1.86a3.51,3.51,0,0,0-2,2.42l-.36,1.14-1.06-.55A29,29,0,0,1,301.16,54c-4.84-5.1-16.23-5-22.6-4.49l-1,.08-.07-1C276.27,31.19,284.71,14.47,299,6c10.17-6,20.3-7.53,30.1-4.49,12.73,4,24.47,15.87,32.23,32.65l.11.24,0,.26c-.07.84-1.8,20.58-14.49,27.32A19,19,0,0,1,337.85,64.19ZM313.57,54.4a15.31,15.31,0,0,1,7.14,2.36c10.25,5.77,18.75,7,25.28,3.48,11-5.84,13.17-23.15,13.41-25.47-7.52-16.14-18.77-27.55-30.9-31.33C319.27.57,309.68,2,300,7.74c-13.36,7.91-21.37,23.42-20.59,39.73,8.06-.55,18.26,0,23.19,5.18a26.43,26.43,0,0,0,6.1,4.69,5.06,5.06,0,0,1,2.7-2.56A5.77,5.77,0,0,1,313.57,54.4Z" style="fill:#fff"/><path d="M387.54,34.6s3.51,43.71,40.2,23c7.41-4.18,11.95-2.71,11.45,6.15-.69,12.07-4.94,24.14-7.39,35.93-2.84,13.69-5.48,28.52-2.56,42.42,3.65,17.41,18.17,26.42,35.6,27.18,15.77.69,27.46-8.94,34.4-22.45a33.57,33.57,0,0,0-.65-31.57C493.75,107,481,95,470.67,101.2c-5.43,3.25-7.17,11.22-8.2,16.91.63-3.44,10.63-4.69,13.27-5,7.66-.91,10.88,5.44,8.76,12.17-4.9,15.56-28.65,20.43-33,1.91-1.63-6.9-.29-14.66,1.23-21.49,3.34-15,8.69-30.16,14.07-44.54,7.36-19.7,0-43.42-18.32-54.27C421.3-9.2,398.76,10.31,387.54,34.6Z" style="fill:#95928a"/><path d="M466.43,170.34c-.55,0-1.09,0-1.64,0-19.37-.85-33-11.3-36.53-28-2.94-14-.35-28.83,2.56-42.83.81-3.88,1.82-7.85,2.81-11.69,2-7.9,4.11-16.06,4.56-24.09.14-2.49-.07-5.7-1.91-6.85-1.6-1-4.39-.43-8,1.63-10.88,6.13-20,7.31-27.2,3.5-12.69-6.74-14.42-26.48-14.49-27.32l0-.26.11-.24c7.76-16.78,19.51-28.69,32.23-32.65C428.66-1.52,438.78,0,449,6c18.43,10.9,26.48,34.75,18.74,55.48-6.16,16.5-10.91,30.37-14,44.41-1.56,7-2.79,14.44-1.23,21,1.63,6.87,6.26,10.94,12.71,11.17A19.25,19.25,0,0,0,483.55,125c1.06-3.39.68-6.64-1-8.7-1.47-1.77-3.77-2.52-6.66-2.18-8.77,1-12.16,2.86-12.4,4.2l-2-.35h0c.82-4.52,2.51-13.91,8.66-17.59A13.31,13.31,0,0,1,480.67,99c7.77,2,15.18,9.59,18.78,15.79a34.71,34.71,0,0,1,.68,32.53C492.48,162.22,480.56,170.34,466.43,170.34Zm-32-115.95a5.45,5.45,0,0,1,2.94.78c2.15,1.34,3.11,4.25,2.86,8.66-.47,8.23-2.58,16.49-4.63,24.48-1,3.82-2,7.77-2.78,11.6-2.87,13.79-5.42,28.39-2.56,42,3.3,15.72,16.26,25.59,34.66,26.39,14,.61,25.9-7.17,33.47-21.91a32.67,32.67,0,0,0-.63-30.61c-3.5-6-10.66-13.08-17.55-14.86a11.4,11.4,0,0,0-9,1.12c-4.19,2.52-6.08,8.43-7.07,12.91,2.31-1.27,6.13-2.21,11.51-2.85,3.55-.42,6.54.6,8.44,2.88,2.14,2.59,2.67,6.54,1.4,10.58-2.72,8.62-11.5,14.89-20.38,14.55-7.31-.27-12.76-5-14.58-12.71-1.66-7-.39-14.68,1.22-21.94,3.33-15,8.75-30.33,14.11-44.67,7.41-19.83-.28-42.64-17.89-53.06C438.27,2,428.69.57,419.46,3.44c-12.13,3.78-23.38,15.19-30.9,31.34C388.8,37.09,391,54.4,402,60.24c6.53,3.46,15,2.29,25.28-3.48A15.23,15.23,0,0,1,434.39,54.39Z" style="fill:#fff"/><path d="M469.48,48.54c-7.33-.58-18.4-.45-23.4,4.8a28.37,28.37,0,0,1-7.34,5.43A43,43,0,0,1,430.38,62a16.49,16.49,0,0,0-6.38,3.3c-1.95,1.7-6.69,3.88-18.11,4.77C386,71.68,381,34.6,381,34.6l-6.55-.35v0l-.49,0-.5,0v0l-6.56.35S362,71.68,342.07,70.11C330.65,69.22,325.92,67,324,65.34a16.38,16.38,0,0,0-6.37-3.3,42.51,42.51,0,0,1-8.37-3.28,14.09,14.09,0,0,0-.45,5,87,87,0,0,0,1.94,13.31,32.6,32.6,0,0,1,7.2-1.14c11.3-.42,21.44,3.86,27.84,11.73l.1.11c2.28,2.81,5.12,6.31,6.74,10.61a18.62,18.62,0,0,1,1.22,6.67,29.16,29.16,0,0,1-1.27,7.81c-.19.7-.37,1.36-.49,1.92a34.36,34.36,0,0,1-4.82,11.25c-1.85,3.06-1.82,3.2-1.58,4.29v.08l.12.5c.41,1.66,1,3.43,1.67,5.31a68.58,68.58,0,0,1,2.65,9.09,111.15,111.15,0,0,1,1.1,33.75c-.08.74-.17,1.47-.26,2.2,3.18,6.62,9.61,13.29,22.55,15.15v.14l.5-.06c.15,0,.32.05.49.06v-.14c27.83-4,25.56-30.3,25.56-30.3,10.91-9.36,16-44.88,16-44.88,10.15-5.46,7.42-24.2,10.93-25s6.63-7,6.63-7c.23,0,.46,0,.7.05,8.64.11,22.28-14.5,31.71-26.06h0c6.16-7.56,10.52-13.8,10.52-13.8S473.59,48.87,469.48,48.54Zm-95,133.36c-.32,0-.66,0-1,0-4.67-.42-10.09-3.16-16-10.27-.49-.59,7-6.72,16-7.48.33,0,.65-.06,1-.08,5.44-.21,11.31,1.64,16.19,7.94C390.67,172,384.38,182.1,374.48,181.9ZM421,99.76a7.82,7.82,0,0,1-7.46,5.76c-2.86.13-3.73,1.75-7.32,8.31,0,0-1.9-21.09,9.43-20.3C421,93.91,421.71,96.8,421,99.76Z" style="fill:#af804f"/><path d="M375.48,197.68l-1.11-.12-.31,0H374l-1.5.17v-.4c-10.77-1.76-18.32-7-22.46-15.57l-.12-.27,0-.3c.1-.72.19-1.44.27-2.18a110.47,110.47,0,0,0-1.09-33.45,66.57,66.57,0,0,0-2.6-8.91l-.06-.17c-.64-1.86-1.24-3.61-1.65-5.27l-.13-.53c-.34-1.6-.13-2.08,1.7-5.1a33.65,33.65,0,0,0,4.7-10.93c.11-.53.27-1.16.45-1.82l.05-.16a28.32,28.32,0,0,0,1.23-7.55,17.9,17.9,0,0,0-1.15-6.32c-1.56-4.14-4.34-7.56-6.58-10.31l-.1-.12c-6.21-7.64-16.06-11.78-27-11.37a31.17,31.17,0,0,0-7,1.11l-1,.28-.22-1a88.21,88.21,0,0,1-2-13.46,15.11,15.11,0,0,1,.5-5.39l.36-1.13,1.06.56a40.78,40.78,0,0,0,8.16,3.19,17.18,17.18,0,0,1,6.76,3.51c1.5,1.3,5.76,3.62,17.54,4.53,18.75,1.47,23.74-34.28,23.79-34.64l.11-.82,6.44-.35v-.09l1.53,0,1.46-.06v.12l6.43.35.11.82c.05.36,5.05,36.1,23.79,34.64,11.78-.91,16-3.23,17.53-4.53a17.36,17.36,0,0,1,6.77-3.51,40.66,40.66,0,0,0,8.16-3.19,27.25,27.25,0,0,0,7.08-5.23c5.14-5.4,16-5.76,24.2-5.11h0a69,69,0,0,1,7.15.91l1.52.28L477.34,50c0,.06-4.45,6.36-10.57,13.86l-.06.07c-9.79,12-23.38,26.36-32.33,26.36h-.21c-.94,1.71-3.69,6.22-7,7-.66.14-1.22,3.83-1.56,6-1,6.28-2.29,14.82-8.67,18.6-.67,4.45-5.64,35.26-15.88,44.68.12,3.73-.18,26.58-25.58,30.73ZM352,181.1c4,8,11.25,12.84,21.67,14.33l.35,0,.35,0c26.55-3.81,24.8-28.19,24.71-29.23l0-.51.38-.33c10.51-9,15.6-43.91,15.65-44.26l.07-.5.45-.24c5.89-3.17,7.15-11.39,8.08-17.4.67-4.35,1.12-7.23,3.11-7.67,2.49-.56,5.14-4.88,5.95-6.49l.31-.62.69.07.61,0h.09c6.36,0,17.31-9.12,30.83-25.69l.07-.08c4.38-5.38,7.89-10.16,9.49-12.37-1.24-.18-3.14-.43-5.38-.61-6.36-.5-17.76-.6-22.6,4.49a29.15,29.15,0,0,1-7.59,5.62A43.22,43.22,0,0,1,430.65,63a15.44,15.44,0,0,0-6,3.1c-3,2.59-9.26,4.27-18.68,5C386.79,72.6,381,41.23,380.16,35.56l-6-.33h-.38l-.22,0-5.74.31c-.86,5.54-6.37,35.6-24.48,35.6-.43,0-.87,0-1.32,0-9.29-.73-15.75-2.46-18.69-5a15.52,15.52,0,0,0-6-3.09,43.57,43.57,0,0,1-7.42-2.77,16,16,0,0,0-.14,3.49,84.18,84.18,0,0,0,1.71,12.14,33.22,33.22,0,0,1,6.4-.91c11.62-.45,22.05,4,28.66,12.1l.08.1c2.35,2.89,5.24,6.45,6.92,10.9a19.71,19.71,0,0,1,1.28,7,30.16,30.16,0,0,1-1.3,8.05l-.05.18c-.16.62-.32,1.21-.43,1.71a35.25,35.25,0,0,1-4.94,11.55c-1.65,2.73-1.63,2.79-1.47,3.57.05.22.09.36.12.5.4,1.63,1,3.33,1.61,5.14l0,.14a68.91,68.91,0,0,1,2.68,9.21,111.93,111.93,0,0,1,1.11,34.06C352.12,179.83,352.05,180.47,352,181.1Zm22.81,1.8h-.3c-.35,0-.71,0-1.07,0-5.63-.51-11.23-4.08-16.67-10.63a1.17,1.17,0,0,1-.15-1.21c.71-1.72,8.3-7.18,16.82-7.91.32,0,.66-.06,1-.08,6.82-.23,12.56,2.54,17,8.33l.42.55-.36.59C391.25,172.93,385,182.9,374.77,182.9ZM358.7,171.47c4.95,5.79,9.95,8.95,14.88,9.39.3,0,.61,0,.9,0h.28c7.76,0,13.21-6.83,14.67-8.88-4-4.87-9-7.2-14.91-7-.3,0-.6,0-.91.07A27.74,27.74,0,0,0,358.7,171.47Zm-.44-.53h0Zm47.25-53.75-.29-3.27c-.05-.56-1.16-13.63,4.15-19.06a7.73,7.73,0,0,1,6.34-2.33c2.68.19,4.56,1,5.6,2.43a5.88,5.88,0,0,1,.65,5h0a8.85,8.85,0,0,1-8.39,6.52c-2.21.1-2.86,1.18-6.42,7.68ZM415,94.51a5.63,5.63,0,0,0-4.23,1.75c-3.11,3.17-3.67,9.78-3.7,13.9,2.35-4.15,3.58-5.51,6.39-5.64a6.86,6.86,0,0,0,6.53-5h0a4,4,0,0,0-.32-3.39c-.68-.92-2.07-1.47-4.13-1.62Z" style="fill:#fff"/><path d="M343,102c-1-2.77-3.29-5.52-5.19-7.85-4.57-5.61-12-8.22-19.48-7.94-5.92.22-16.94,4.42-16.94,11.48,0,0-6.16-16.66-12.31-19.33l-5.19,8.92s-2.59-10.11-11-15.76l-4.22,14.27s-11.27-13.65-19.2-21.6V64l-.14.13-.13-.13v.26c-7.94,8-19.21,21.6-19.21,21.6l-4.21-14.27c-8.43,5.65-11,15.76-11,15.76l-5.19-8.92c-6.15,2.67-12.31,19.33-12.31,19.33,0-7.06-11-11.26-16.94-11.48-7.49-.28-14.92,2.33-19.48,7.94-1.9,2.33-4.15,5.08-5.19,7.85-1.39,3.7.22,7,1,10.67,1.71,8.17,8.3,11.08,6.39,19.83-.06.3-.13.6-.2.89-1.15,4.65-3.27,9.13-4.21,13.89a100.82,100.82,0,0,0-1,30.62c1.23,11,3.65,22.42,8.08,32.77L172.6,202c-1.73,43.61,22.89,56.3,22.89,56.3l5-11.6c-1,21.71,13.88,27.65,13.88,27.65l4.53-8.32c0,16.35,13.61,20.22,13.61,20.22V273.15c2.29,11.3,13.95,17.5,16.62,18.79v.12l.13-.06.14.06v-.12c2.67-1.29,14.32-7.49,16.61-18.79v13.08s13.61-3.87,13.61-20.22l4.54,8.32s14.85-5.94,13.88-27.65l5,11.6S327.7,245.59,326,202l6.91,8.72c4.44-10.35,6.86-21.74,8.09-32.77a101.14,101.14,0,0,0-1-30.62c-.94-4.76-3.06-9.24-4.21-13.89-.07-.29-.14-.59-.2-.89-1.91-8.75,4.68-11.66,6.39-19.83C342.74,109.06,344.35,105.73,343,102Zm-141.68,57.4c-1.15-3.25-2.39-7.66-5.72-8.34,5.6,1.12,9.95-5.45,15.19-4.75,4.4.6,8.84,4.11,11.61,8.15,1.9,2.79,4,8.63,2,11.92a4.39,4.39,0,0,1-1.72,1.64c-3.8,2-9.06.52-12.85-.83C206.3,166,202.78,163.64,201.28,159.43Zm94.66,67.35c-4.24,5.59-8.91,10.83-13.14,16.43-2.47,3.29-7.88,11-7,15.45l-4.29-18-15,22.9L253,256.86l-3.74,6.75-3.73-6.75-3.44,6.74-15-22.9-4.29,18c.85-4.48-4.56-12.16-7-15.45-4.22-5.6-8.89-10.84-13.14-16.43s-7.57-10.52-6.44-11c0,0,14.33-5.54,18.89-5.54l6.44,14.58,8.16-18,3.85,13.92,3.87-13.47,3.43,6.73,5-7,3.27,6v.64l.17-.32.18.32v-.64l3.27-6,5,7,3.43-6.73L265,220.82l3.86-13.92,8.16,18,6.44-14.58c4.56,0,18.86,5.54,18.88,5.54C303.52,216.26,300.2,221.18,295.94,226.78Zm1.35-67.35c-1.5,4.21-5,6.55-8.52,7.79-3.79,1.35-9,2.88-12.85.83a4.33,4.33,0,0,1-1.72-1.64c-1.95-3.29.1-9.13,2-11.92,2.77-4,7.2-7.55,11.61-8.15,5.24-.7,9.58,5.87,15.19,4.75C299.68,151.77,298.44,156.18,297.29,159.43Z" style="fill:#e29c10"/><path d="M250.42,293.66l-1.14-.55-1,.48-.08-1c-2.73-1.38-10.65-5.93-14.67-13.67v8.64l-1.27-.36a21.25,21.25,0,0,1-14.12-17.66l-3.3,6.06-.82-.33c-.15-.06-13.26-5.53-14.47-23.85L196,259.66l-1-.49c-.24-.13-24-12.87-23.51-54.22l-6.1,7.69-.66-1.54c-4-9.39-6.76-20.51-8.15-33.06a101.6,101.6,0,0,1,1-30.92,60.32,60.32,0,0,1,2.31-7.86c.69-2,1.4-4,1.9-6.08.08-.28.14-.56.2-.85,1.06-4.86-.69-7.75-2.71-11.1a25.69,25.69,0,0,1-3.68-8.32c-.17-.82-.39-1.65-.6-2.44-.75-2.78-1.52-5.65-.34-8.79,1.09-2.88,3.31-5.62,5.27-8l.08-.1c4.48-5.51,12.07-8.62,20.3-8.31,5.3.19,14.48,3.45,17.15,9.17,2.13-5,6.79-14.82,11.66-16.94l.82-.35,4.51,7.76c1.27-3.38,4.4-9.93,10.71-14.16L226.3,70l4.07,13.79c3.08-3.68,11.45-13.55,17.78-19.94V61.5l1.14,1.17,1.13-1.13v2.27c6.33,6.39,14.7,16.26,17.78,19.94L272.27,70l1.13.76c6.31,4.23,9.44,10.78,10.71,14.16l4.51-7.76.82.35c4.86,2.12,9.53,11.91,11.66,16.94,2.67-5.72,11.85-9,17.15-9.17,8.23-.32,15.81,2.8,20.29,8.31l.08.09c2,2.42,4.19,5.15,5.27,8,1.19,3.14.42,6-.33,8.79-.21.79-.43,1.62-.6,2.44a25.69,25.69,0,0,1-3.68,8.32c-2,3.35-3.77,6.24-2.72,11.09.07.3.13.58.2.86.5,2,1.22,4.09,1.9,6.08a60.35,60.35,0,0,1,2.32,7.86A101.91,101.91,0,0,1,342,178c-1.4,12.56-4.14,23.68-8.16,33.06l-.66,1.54L327.05,205c.5,41.35-23.27,54.09-23.52,54.22l-.95.49L299,251.41c-1.2,18.32-14.32,23.79-14.46,23.85l-.82.33-3.3-6.06a21.25,21.25,0,0,1-14.12,17.66l-1.28.36v-8.64c-4,7.7-11.85,12.24-14.61,13.65ZM233.51,273c2.13,10.5,12.91,16.51,15.77,17.94,2.87-1.43,13.65-7.44,15.77-17.94l2,.2V284.8c3.27-1.39,11.61-6.17,11.61-18.79v-3.93l6,10.95c3-1.57,13.26-8.25,12.45-26.3l-.25-5.43,6.73,15.53C307.93,254,326.46,239.6,325,202l-.12-3.06,7.76,9.79A117.29,117.29,0,0,0,340,177.82a99.91,99.91,0,0,0-1-30.32,56.24,56.24,0,0,0-2.24-7.58c-.7-2-1.43-4.14-1.95-6.26-.07-.3-.15-.61-.21-.92-1.23-5.62.81-9,3-12.54a23.75,23.75,0,0,0,3.43-7.7c.18-.88.41-1.73.63-2.55.69-2.59,1.35-5,.39-7.56h0c-1-2.59-3.08-5.19-4.95-7.49l-.08-.09c-4.08-5-11.09-7.87-18.67-7.57-5.42.2-16,4.08-16,10.48v5.58l-1.94-5.24c-1.58-4.27-6.47-15.4-11-18.33l-5.93,10.19-.61-2.36c0-.09-2.36-8.91-9.48-14.38l-4.35,14.73-1.2-1.45c-.11-.13-10.79-13.06-18.57-20.95-7.77,7.89-18.45,20.82-18.56,20.95l-1.2,1.45-4.35-14.73c-7.12,5.47-9.46,14.29-9.49,14.38l-.6,2.36-5.93-10.19c-4.52,2.93-9.41,14.06-11,18.33l-1.94,5.25V97.72c0-6.4-10.55-10.28-16-10.48-7.59-.3-14.59,2.55-18.67,7.57l-.09.1c-1.86,2.29-4,4.89-5,7.48s-.3,5,.4,7.56c.22.82.45,1.67.63,2.55a23.75,23.75,0,0,0,3.43,7.7c2.15,3.56,4.18,6.92,3,12.55-.06.3-.14.61-.21.91-.53,2.12-1.25,4.22-2,6.26a59.3,59.3,0,0,0-2.24,7.58,99.91,99.91,0,0,0-1,30.32A117.78,117.78,0,0,0,166,208.75l7.77-9.79L173.6,202c-1.49,37.58,17,51.94,21.43,54.81l6.72-15.53-.24,5.43C200.71,264.58,211,271.42,214,273l5.95-10.94V266c0,12.62,8.34,17.4,11.61,18.79V273.15Zm15.77-7.27-3.7-6.69-3.36,6.6-14.7-22.4-3.75,15.7-2-.42c.54-2.82-2-8.16-6.85-14.66-2.15-2.86-4.47-5.68-6.71-8.4s-4.34-5.29-6.42-8c-7.36-9.68-7-10.89-6.81-11.61a1.37,1.37,0,0,1,.8-.89l.07,0c3.57-1.36,15-5.59,19.18-5.59h.65l5.8,13.14L229.9,204l3.64,13.16,3.59-12.51,3.84,7.54,5-6.95,3.32,6.08,3.33-6.08,5,6.95,3.84-7.54L265,217.14,268.67,204l8.38,18.44,5.8-13.14h.65c4.2,0,15.72,4.27,19.15,5.57,0,0,0,0,0,0l.15,0a1.37,1.37,0,0,1,.8.89c.2.72.54,1.93-6.81,11.6h0c-2.08,2.73-4.28,5.41-6.42,8s-4.56,5.55-6.72,8.41c-4.89,6.5-7.38,11.84-6.85,14.66l-1.95.42L271,243.19l-14.69,22.4L253,259Zm-22.62-27.46L242,261.61l3.51-6.88,3.77,6.82,3.77-6.82,3.51,6.88,15.35-23.39,3.66,15.27A47,47,0,0,1,282,242.61c2.19-2.9,4.52-5.74,6.78-8.48,2.12-2.58,4.31-5.25,6.37-7.95h0c4.92-6.48,6.11-8.8,6.38-9.61-6.12-2.32-13.95-4.94-17.4-5.26l-7.06,16-7.94-17.49-4.07,14.68-4.14-14.44-3,5.94-5-7-2.38,4.35v4.29l-1.18-2.15-1.17,2.14v-4.28L245.73,209l-5,7-3-5.94-4.14,14.44-4.07-14.68-7.94,17.49-7.07-16c-3.44.32-11.28,2.94-17.39,5.26.27.81,1.46,3.13,6.38,9.6,2.05,2.71,4.25,5.38,6.38,8,2.25,2.74,4.58,5.57,6.76,8.47A46.73,46.73,0,0,1,223,253.49Zm-30.12-21.46h0Zm105.46,0h0Zm-21.68-46.7a10.21,10.21,0,0,1-4.88-1.12,5.3,5.3,0,0,1-2.1-2c-2.17-3.65-.06-9.9,2-13,2.53-3.69,7.08-7.87,12.3-8.58,2.86-.38,5.38,1.08,7.81,2.49s4.78,2.77,7.32,2.27h0l.4,2c-2.49.51-3.65,3.87-4.68,6.84l-.3.86c-1.37,3.86-4.53,6.77-9.13,8.4A27.28,27.28,0,0,1,280.32,170.05Zm8.29-22.76a4.89,4.89,0,0,0-.66.05c-3.77.5-8.05,3.53-10.92,7.72-1.84,2.69-3.6,8.09-2,10.84a3.42,3.42,0,0,0,1.34,1.27c3.35,1.81,8.19.48,12-.89,2.8-1,6.44-3,7.92-7.18l.29-.84c.74-2.13,1.59-4.6,3.07-6.28a20.38,20.38,0,0,1-5.22-2.41C292.47,148.4,290.56,147.29,288.61,147.29Zm-70.37,22.76a27.4,27.4,0,0,1-8.78-1.88c-4.59-1.63-7.75-4.54-9.12-8.4h0l-.3-.85c-1-3-2.19-6.33-4.68-6.84l.39-2c2.54.51,4.87-.84,7.32-2.27s5-2.87,7.81-2.49c5.23.71,9.78,4.89,12.31,8.58,2.1,3.08,4.21,9.33,2,13a5.31,5.31,0,0,1-2.11,2A10.18,10.18,0,0,1,218.24,170.05Zm-16-11c1.47,4.14,5.12,6.19,7.91,7.18,3.85,1.37,8.68,2.7,12,.89a3.32,3.32,0,0,0,1.33-1.27c1.63-2.75-.13-8.15-2-10.84-2.87-4.19-7.16-7.22-10.92-7.72-2.18-.29-4.3.93-6.54,2.23a20.38,20.38,0,0,1-5.22,2.41c1.48,1.68,2.33,4.14,3.07,6.27Z" style="fill:#fff"/></g></g></svg>