<svg xmlns="http://www.w3.org/2000/svg" viewBox="0 0 379.36 375.77"><title>Chuul</title><g id="b8525895-e2cb-49db-913d-94455da06d5b" data-name="Layer 2"><g id="a5f65970-9602-46dd-a24e-7425ee5c33b2" data-name="Layer 1"><path d="M362.45,245.71l-.7,8.31S339.59,307.34,287,334.35L284.18,342S271,320.5,265.49,328.8c0,0-31.57-14.63-59.79-19.88.08-.51.16-1,.23-1.58,6.93-52.63-31.86-51.24-31.86-51.24s-26.31,22.16-34.62,25.62,1.38,18.7,1.38,18.7a.07.07,0,0,1,0,0c.47,1,7.81,18.7-53.35,20,0,0-31.86-31.85-44.33-13.86,0,0-17.3-24.23-22.85-6.22,0,0-31.16-65.79-9-90,0,0,4.16-1.38-9.7-8.3,0,0,14.55-15.94,12.46-36.71,0,0,20.78-9,18-16.62s-5.53-4.16-5.53-4.16,2.77-94.18,65.1-117.72c0,0,103.18-66.5,102.49,13.85,0,0-31.17-50.56-29.09,11.08,0,0-22.16-45-18.69,15.92,0,0-21.47-51.24-14.55,11.77,0,0-22.86-41.54-20.09,20.78,0,0-20.76-37.39-7.61,10.39,0,0-33.24-22.16-9,13.17,0,0-36.7-3.48-18.71,15.23,0,0,13.85,2.76,15.94,13.15s30.46-2.77,18.69-33.24c0,0,29.09,38.79,15.93-18.7,0,0,32.55,41.55,16.62-6.23,0,0,29.09,36,14.55-11.08,0,0,29.08,27.7,18.69-14.55,0,0,26.32,36.71,26.32-26.31,0,0,50.56,70.63-97.64,155.82,0,0-6.24-11.08-9.7,12.46,0,0-40.86,22.17-34.63,61.64,0,0,15.93-6.92,14.54-.69s19.4-4.15,19.4-4.15l2.07-11.77-6.93-.7s38.72-24.9,8.4-22.17c2-.5,43-10.55,21.38-17.31,0,0,26.33-4.15,21.47-7.62,0,0,34.63-6.22,31.86-12.46l29.09-5.53s58.17,27.69,40.86,56.78c0,0-5.54,18,3.46,20.09,0,0,32.55,57.47,43.63,12.46,0,0,5.51-11,9.7-21.47,1.38-3.46-4.16-17.32,2.07-24.93,0,0-47.08-9.69-61.64-105.27,0,0-3.45-81,20.78-42.93,0,0-15.92-6.93-.69,11.08,0,0-24.24-5.55,2.77,9,0,0-12.47,22.85,6.23,15.23,0,0-6.23,20.78-2.07,19.4,0,0,9.7-8.32,11.77-7.63,0,0-9.7,18.71-3.46,26.33,0,0,11.08-13.17,15.93-8.32,0,0-13.16,15.23,0,24.93,0,0,3.45-9,12.46-2.76,0,0-14.54,16.61,9.7,27.69l3.45,9s7.63-2.76,13.87,4.86,5.53-28.3-8.26-24.95c1-.28,18.58-5.08,16.56-13.15-2.08-8.31-16.62-9.69-20.08-4.84,0,0,2.77-19.39,17.31-20.08,0,0-8.32-13.16-19.4,6.23,0,0,1.4-13.86,8.32-24.94S314,134.2,314,134.2s10.38-40.85-5.54-31.84c0,0,2.77-41.56-15.24-21.47,0,0-7.62-13.86,8.31-19.4S416.47,185.45,362.45,245.71Z" style="fill:#827d47"/><path d="M284.41,344.26l-1.08-1.76c-2.47-4-9.91-14.51-14.58-14.6h-.05a2.75,2.75,0,0,0-2.37,1.46l-.48.71-.78-.36c-.31-.14-31.78-14.64-59.55-19.8l-1-.18.15-1c.08-.51.16-1,.23-1.56,2.38-18.09-.4-31.65-8.27-40.3-8.42-9.27-20.12-9.8-22.23-9.81-3,2.5-26.61,22.21-34.61,25.54a4.05,4.05,0,0,0-2.47,2.64c-1.54,4.89,3.66,13.54,4.26,14.51l0,0,.1.18a8.29,8.29,0,0,1-.84,7.84c-3.62,5.78-15.83,12.83-53.38,13.65H87.1l-.3-.3c-.21-.2-20.46-20.28-34.38-19a11,11,0,0,0-8.41,5l-.81,1.17-.83-1.15c-2.68-3.75-10.82-13.3-16.24-12.41-2.12.34-3.74,2.32-4.84,5.89l-.76,2.46-1.1-2.32c-1.29-2.71-31.2-66.68-8.84-91.15l.17-.19.13,0c-.17-.44-1.33-2.32-9.71-6.5L0,202.38l.89-1c.14-.16,14.23-15.87,12.21-35.94l-.08-.73.68-.29c5.53-2.4,19.47-9.83,17.46-15.36-1.36-3.75-2.55-4.22-2.88-4.27a1.13,1.13,0,0,0-.93.39l-1.87,2.34.09-3a205.8,205.8,0,0,1,9.22-50.31C42.59,69.9,58.71,38.3,91.22,26c3.46-2.22,59.6-37.67,88.09-22,10.68,5.88,16,18.24,15.85,36.74l0,3.46-1.82-2.95c-3.65-5.91-14.53-20.8-21-18.87-3.26,1-7,6.89-6.23,29.39l.15,4.65-2.05-4.17C161,45.8,154.64,35.9,151.11,36.85c-1.63.42-5.24,4.28-3.73,30.81l.33,5.82-2.25-5.37c-4.05-9.65-9.85-19.59-12.07-19-.64.16-3.63,2.39-.57,30.29l.55,5L131,80c-3.07-5.57-9.37-14-13.16-13-2.41.68-6.26,5.89-5.05,33.2l.19,4.25-2.06-3.72c-4-7.15-8.43-13.21-9.83-13.4-.36.49-1.29,3.61,4.06,23l.71,2.59-2.23-1.49c-6.45-4.3-14.38-7.94-16-6.33-.56.57-1.63,3.57,8.34,18.1L97.16,125l-2.13-.2c-5.39-.51-19.9-.76-22.25,4.12-1.27,2.62,1.51,6.41,4.16,9.2,2.18.5,14.36,3.73,16.4,13.87a3.07,3.07,0,0,0,2.33,2.53c2.64.73,7.38-.81,11.33-5.18,3.1-3.42,9.61-13.21,3.12-30l-2.61-6.74,4.34,5.78c4.16,5.55,12,13.78,15.37,12.21,1.92-.89,4.31-6-1.21-30.09l-1-4.36,2.76,3.52c6.93,8.84,15.93,17.58,18.35,16.26.74-.4,2.67-3.12-3.47-21.55l-1.75-5.25,3.48,4.3c4.93,6.11,13.06,14.07,15.7,12.65,1.08-.57,2.94-3.93-2.88-22.8l-1.14-3.66,2.78,2.64c3.25,3.09,12.61,10.6,16.8,8.17,2.23-1.29,4.07-6.12.23-21.76l-1.24-5,3,4.21c.09.12,8.8,12.12,15.53,10,4.1-1.31,9-8.58,9-35.68V39L204,41.52c.53.75,13,18.63,6.77,47.44-3.59,16.53-12.71,33.28-27.09,49.78-17.87,20.5-44,40.7-77.65,60l-.87.51-.5-.88c-.34-.61-1.56-2.29-2.7-2.08-.73.14-3.28,1.57-5.13,14.19l-.07.5-.44.24c-.4.21-39.3,21.82-34.3,59.34,3.37-1.37,11.28-4.22,13.89-2.07a2.83,2.83,0,0,1,.82,3c0,.18-.09.49,0,.58,1.48,1.15,10.13-2,17.49-5.61L96,256.29l-8.71-.87,2.41-1.55c8.81-5.66,20.67-15.22,19.46-18.73-.25-.74-1.78-2.38-10.43-1.6l-.33-2c13.28-3.25,26.79-8.34,26.9-11.78,0-1.17-2-2.48-5.57-3.6l-4.09-1.28,4.23-.66c9.5-1.5,20.09-4.12,21.18-5.72l-.14-.1L139,207.05l2.34-.42c10.94-2,29-6.5,31.05-10.3a.83.83,0,0,0,.07-.78L172,194.4l30.65-5.83.29.14c1.51.72,37,17.81,43.6,39.66a22.28,22.28,0,0,1-2.24,18.43c-.35,1.18-3.22,11.43-.38,16.36a4.66,4.66,0,0,0,3.14,2.35l.43.1.21.38c.18.31,17.67,30.84,30.59,29.1,4.92-.67,8.69-6.19,11.2-16.38l.08-.21c.05-.11,5.53-11.08,9.66-21.39.37-.92,0-3.32-.3-5.86-.74-5.45-1.73-12.77,1.65-18.11-3.6-1.12-13.4-5-24.44-16.69-12.49-13.22-29-39.39-36.53-89l0-.1c-.22-5.16-1.82-50.46,9.27-53.94,3.76-1.19,8.14,2.22,13.35,10.42l1.76,2.75-3-1.3c-2.32-1-5.3-1.63-5.79-1-.13.17-1,1.88,6.26,10.48l1.94,2.29-2.92-.67c-3.78-.86-7.63-1.24-8.7-.88.37.64,2.29,2.71,12.16,8l.88.48-.48.88c-2.37,4.35-5.34,12.13-3.22,14.5,1.14,1.28,4,1,8.21-.67l1.93-.79-.6,2c-2.52,8.41-4,16.4-3.33,18,3.83-3.26,10.17-8.25,12.39-7.51l1.11.36-.54,1c-.09.18-8.53,16.66-4.25,24.24,2.22-2.44,8.24-8.56,12.93-8.75a4.57,4.57,0,0,1,3.6,1.36l.66.65-.61.71c-.06.07-6.36,7.48-5.52,14.88a11.84,11.84,0,0,0,4.42,7.85,8.77,8.77,0,0,1,4.81-4.11c2.57-.79,5.45-.1,8.57,2.06l.92.64-.74.84c0,.06-5.31,6.2-3.8,13.16,1.1,5.12,5.53,9.48,13.16,13l.37.17,3.29,8.55c2.37-.49,8.73-1.05,14,5.42.46.55.75.69.82.69,1.1-.42,2.08-7.94-.29-15.65-1.14-3.71-3.87-9.72-9.33-8.39l-.49-1.94c.18-.05,17.65-4.74,15.85-11.93-.82-3.27-4-5.73-8.58-6.59-4.2-.8-8.29.08-9.71,2.08l-2.39,3.35.58-4.07c0-.19,2.81-18.53,16.36-20.75a7.63,7.63,0,0,0-5.27-2.55h-.14c-3.59.09-7.46,3.58-11.18,10.09L316,161l.47-4.69c.06-.57,1.5-14.22,8.46-25.37a9.57,9.57,0,0,0,1.36-2.77c-1.64.15-7.18,3.54-11.69,6.87l-2.25,1.67L313,134c1.9-7.49,5.8-27.74,1-31.38-1.12-.85-2.84-.63-5.12.66l-1.61.91.12-1.85c.43-6.4.4-23.48-4.8-25.67-2.56-1.08-6.14,2.09-8.7,4.94l-.94,1-.68-1.24c-.14-.26-3.44-6.37-1.13-12.37,1.46-3.81,4.83-6.66,10-8.45,6.86-2.39,25.05,15.36,42.32,41.29,30.69,46.08,52,108.12,19.93,144.29l-.75,8.28c-.22.53-22.8,53.72-74.9,80.65ZM268.7,325.9h.09c5.49.1,12.41,9.69,15.15,13.83l2.22-6.09.35-.18c50.36-25.86,72.94-76.64,74.25-79.68l.72-8.49.23-.25c31.62-35.27,10.46-96.53-19.89-142.09-17.6-26.43-34.9-42.3-40-40.51-4.58,1.59-7.54,4-8.78,7.27-1.4,3.64-.33,7.46.43,9.4,3.94-4.07,7.19-5.48,9.93-4.33,6.53,2.75,6.36,20.06,6.11,25.93,2.32-.95,4.25-.86,5.73.28,5.68,4.33,2,23.45.32,30.82,6.7-4.74,10.79-6.5,12.18-5.21,1.22,1.13.1,3.35-1.16,5.36-4.28,6.85-6.42,14.88-7.41,19.83,3.34-4.58,6.78-6.93,10.26-7,5-.13,8.1,4.62,8.22,4.82l.92,1.45-1.71.09c-10.36.49-14.43,11.38-15.79,16.55a15,15,0,0,1,9.33-.94c5.34,1,9.14,4,10.15,8.07,1.6,6.4-6.93,10.73-12.63,12.86,2.34,1.1,4.32,3.49,5.77,7.06,2.79,6.83,3.41,18.28.2,20.19-.62.37-1.88.71-3.39-1.14-5.69-6.95-12.46-4.65-12.75-4.54l-.92.32L313.18,200c-8-3.75-12.7-8.53-13.92-14.21-1.36-6.35,2-11.87,3.55-14-2.23-1.34-4.23-1.75-5.95-1.22-2.86.88-4.11,4.07-4.12,4.1l-.47,1.23-1.06-.78a14.17,14.17,0,0,1-6.16-10c-.77-6.81,3.6-13.3,5.33-15.57a3.09,3.09,0,0,0-1.38-.26c-4,.17-10.29,6.58-12.35,9l-.78.92-.76-.93c-5.4-6.59,0-20.27,2.38-25.42a69.21,69.21,0,0,0-9.27,6.84l-.15.13-.18.07a1.81,1.81,0,0,1-1.91-.38c-2.11-2,.44-12.36,2.14-18.33-4.16,1.4-7,1.21-8.55-.56-3.28-3.67.94-12.85,2.49-15.9-12.31-6.71-12.82-8.71-12.31-10.06.56-1.5,3.35-1.8,8.32-.9-5.69-7.18-5.46-9.54-4.54-10.77,1-1.4,3.35-1.2,5.31-.69-3.81-5.42-7-7.87-9.42-7.13-8.15,2.56-8.45,38.28-7.87,51.9,7.46,48.95,23.63,74.73,35.87,87.74,13.24,14.06,24.86,16.62,25,16.64l1.61.34-1,1.28c-3.87,4.72-2.85,12.27-2.1,17.79.43,3.18.74,5.47.18,6.87-3.95,9.86-9.12,20.31-9.68,21.45-2.73,11-7.05,17-12.84,17.77-13.61,1.87-30.24-26-32.4-29.72a6.68,6.68,0,0,1-4-3.19c-3.43-6,.09-17.56.24-18.05l.09-.22A20.34,20.34,0,0,0,244.58,229c-6.07-20-38.81-36.59-42.25-38.29L174.54,196a3.13,3.13,0,0,1-.37,1.32c-2.84,5.35-24.76,9.87-31.06,11.07a1.68,1.68,0,0,1,0,.57c-.69,2.94-11.86,5.4-19.28,6.71,2.43,1.21,3.59,2.61,3.54,4.23-.15,4.68-11.82,9-21.07,11.7,2.71.4,4.28,1.38,4.82,2.95,1.85,5.38-11.69,15.29-17.91,19.5l5.2.52L96,267.85l-.45.22c-3.89,1.95-16.87,8.12-20.06,5.63a2.4,2.4,0,0,1-.75-2.59c.17-.77-.07-1-.14-1-1.37-1.13-7.83.6-13,2.86l-1.18.51-.2-1.27c-5.93-37.47,30.25-59.84,34.69-62.43,1.5-9.93,3.63-14.82,6.68-15.39,1.94-.36,3.47,1.19,4.25,2.22,75.09-43.35,97.45-82.66,103-108,4.62-21.25-1.43-36.59-4.66-42.8-.34,20.71-3.74,31.83-10.34,33.95-5.54,1.77-11.62-3.61-15-7.38,2.31,11.17,1.62,17.67-2.1,19.83C172,94.86,164.22,89.42,160.11,86c5,17.24,2.95,20.73.92,21.81-3.73,2-10.72-4.7-15-9.39,4.54,15,3,18.18,1,19.23-4.14,2.23-13.12-7.41-18.2-13.49,4.76,22.63,1.87,27-.81,28.22-4.09,1.89-10.48-4.21-14.42-8.68,3.88,14.77-2.14,23.65-5.16,27-4,4.45-9.51,6.81-13.35,5.76a5.05,5.05,0,0,1-3.75-4.06c-1.94-9.63-15-12.35-15.15-12.37l-.31-.06-.22-.23c-4.64-4.83-6.19-8.65-4.72-11.68,2.85-5.91,16.65-5.72,22.16-5.4-9.14-13.67-8.55-17.3-7-18.92,2.91-2.94,11.82,1.92,16.3,4.67-5-18.82-4.06-22.19-2.22-22.94,2.54-1,7,5.25,10.32,10.79-.55-19.55,1.63-29.76,6.66-31.17,4.68-1.31,10.08,5.48,13.13,10.09-2.28-23.57.11-27.42,2.51-28,3.86-1,9.08,8.56,12.24,15.29-.82-23,2.67-26.79,5.47-27.53,4.68-1.24,10.32,7.26,13.37,12.69-.16-16.63,2.39-25.52,7.76-27.14,7.41-2.22,17.22,10.68,21.39,16.83-.49-15.8-5.45-26.41-14.77-31.54-27.74-15.28-85.56,21.58-86.14,22l-.19.1c-31.82,12-47.65,43.1-55.32,67.05a206.45,206.45,0,0,0-9,48,3,3,0,0,1,.94,0c1.73.29,3.19,2.11,4.44,5.57,2.8,7.72-13.84,15.76-17.89,17.58,1.5,17.93-8.82,32-11.93,35.77,8.74,4.49,9.78,6.6,9.69,8a1.85,1.85,0,0,1-1,1.49c-19,21.12,3.24,75.07,8.32,86.61,1.34-2.92,3.2-4.58,5.56-5,6.59-1.08,14.79,8.78,17.38,12.14a12.86,12.86,0,0,1,9.05-4.78c14-1.29,32.93,16.63,35.67,19.29,38.24-.89,48.56-8.33,51.31-12.7a6.35,6.35,0,0,0,.76-5.85c-.39-.61-6.41-10.28-4.53-16.26a6,6,0,0,1,3.61-3.89c8.08-3.36,34.11-25.24,34.37-25.46l.26-.22H174c.56,0,14.26-.38,24.11,10.46,8.28,9.11,11.23,23.21,8.77,41.91l-.09.65c25.41,4.9,53.5,17.26,58.35,19.44A4.55,4.55,0,0,1,268.7,325.9Z" style="fill:#fff"/><path d="M205.93,307.34c-.07.54-.15,1.07-.23,1.58-11.62-2.17-22.68-2.74-30.72-.05a16.94,16.94,0,0,1-15.12-2.16c-6.55-4.6-15.34-9.57-19-6.29,0,0-9.7-15.25-1.38-18.7s34.62-25.62,34.62-25.62S212.86,254.71,205.93,307.34Z" style="fill:#896723"/><path d="M169.56,310.75a17.9,17.9,0,0,1-10.27-3.22c-8.87-6.22-15.35-8.54-17.79-6.36l-.88.78-.63-1c-.27-.42-6.44-10.24-4.54-16.28a6,6,0,0,1,3.61-3.89c8.08-3.36,34.11-25.24,34.37-25.46l.26-.22H174c.56,0,14.26-.38,24.11,10.46,8.28,9.11,11.23,23.21,8.77,41.9-.07.55-.15,1.09-.23,1.62l-.16,1-1-.18c-13-2.43-23.15-2.46-30.22-.09A18.25,18.25,0,0,1,169.56,310.75ZM144,298.36c3.79,0,9.29,2.52,16.43,7.53a16,16,0,0,0,14.23,2c7.22-2.41,17.37-2.46,30.21-.17,0-.18,0-.36.07-.54h0c2.38-18.06-.4-31.61-8.25-40.27-8.4-9.26-20.14-9.81-22.25-9.83-3,2.51-26.61,22.21-34.61,25.54a4.05,4.05,0,0,0-2.47,2.64c-1.22,3.88,1.94,10.55,3.78,13.72A6.13,6.13,0,0,1,144,298.36Z" style="fill:#fff"/><path d="M258.59,370.3a2,2,0,0,0,.21-.57C258.7,370,258.62,370.22,258.59,370.3Z" style="fill:#fff"/><path d="M259.47,370.78l-1.83-.8.06-.14c0-.09.08-.22.14-.41l1.94.5A3.21,3.21,0,0,1,259.47,370.78Z" style="fill:#fff"/><path d="M307,310.81c-14.54-14.55-17.31-33.94-33.24-33.24,0,0,6.59-27-18.16-23.21a5.27,5.27,0,0,0-4.15,3.09c-1,2.34-.14,5.79,9.15,9,0,0-4.15-14.56,6.24-2.78s-20.09,2.78-20.09,2.78l-11.08,11.77-15.24-11.08-1.38,8.3-21.47-9.75s21.51,41.1-17,38.51a10,10,0,0,1-7.46-4.09c-3-4.19-5.75-11.91,1.54-23.15-1.3,1.77-16.67,23.58.49,32.27a22.39,22.39,0,0,0,17.71.82c6.66-2.37,15.67-7.12,18.6-15.91,0,0,2.4,18.76,5.6,28.22,1.32,3.9,2.57,7.83,3.67,11.8,2.81,10.14,9.7,27.45,24.66,31.32,0,0-19.39-21.47-15.24-24.94,0,0,29.44,22.41,28.64,29.05.49-1.79,1.06-6.84-4.38-14.49.85.42,34.41,16.94,18.67,15.91,0,0,4.51,4.86,7.63,3.47,9.81-4.36-14.09-29.2-24.47-27.47-1.93.32,1.38-3.7-3.24-15.47,0,0,0-31.85-4.15-36,0,0,20.08-.63,25.16,45.68a30.05,30.05,0,0,0,3.47,11.24c3.89,7.1,11.7,17.92,24,20.65,0,0-27.7-19.38-25.62-61.63,0,0,1.39,24.93,15.23,25.62s28.4-.69,33.24,14.55c0,0,3.95-18.06-23.28-21.06a20.7,20.7,0,0,1-15.67-10.28c-8.78-15.38-23.84-42.53-15.76-34.46,1.24,1.24,19.85,7.24,27.33,24.19,2.23,5.06,11.95,10.27,17.1,12.26,8.62,3.32,20.35,5.91,24.13-2.51C338.2,319.81,321.59,325.35,307,310.81Zm-75.49,10.72h0c2.43-2.41,5.19-28,5.19-28,5.9.35,9.82,43.86,9.82,43.86-1-1-3.87-3.48-6.48-5.69A39.71,39.71,0,0,1,231.55,321.53Z" style="fill:#9c010e"/><path d="M279.5,375.77c-3.27,0-6.69-3.57-7.13-4l-1.71-1.84,2.51.16a7.17,7.17,0,0,0,3.1-.19c-.54-1.73-8.55-6.84-19-12.2,3.54,6.29,3,10.55,2.55,12.23l-1.95-.38c.51-4.29-16-18.7-27.24-27.35.12,4.13,9.3,15.74,15.57,22.69l2.23,2.47-3.22-.84c-15.48-4-22.54-21.77-25.37-32-1-3.57-2.15-7.3-3.66-11.75-2.39-7.06-4.3-19-5.16-24.91-3.88,7-11.58,11-17.75,13.22a23.49,23.49,0,0,1-18.5-.86c-4.42-2.24-7.17-5.51-8.18-9.72-2.46-10.28,6.33-22.67,7.34-24l1.64,1.13c-6.85,10.55-4.63,17.8-1.57,22a9,9,0,0,0,6.71,3.69c9.78.66,16.37-1.51,19.58-6.44,6.86-10.52-3.41-30.42-3.51-30.62l-1.35-2.58L218.31,274l1.44-8.61,15.84,11.51,10.9-11.58.59.18c9.07,2.67,19.63,4.36,20.87,2.42.27-.42-.06-1.59-1.82-3.58-3.95-4.48-5.08-4.26-5.09-4.26-.47.42-.21,3.4.56,6.1l.53,1.85-1.82-.63c-5.39-1.88-8.56-4-9.69-6.5a4.78,4.78,0,0,1-.06-3.85,6.28,6.28,0,0,1,4.92-3.71c7.21-1.11,12.6.21,16,3.94,5.37,5.85,4.17,15.75,3.53,19.24,9.85.21,14.77,8.05,20.44,17.08,3.31,5.27,7.06,11.24,12.28,16.47,14,13.94,30,8.82,30.15,8.76l2.16-.72-.94,2.08c-3.21,7.16-12,8.21-25.4,3-4-1.56-15.06-6.9-17.65-12.79-6-13.54-19.54-20.06-24.64-22.51a10.58,10.58,0,0,1-2.49-1.38l-.25-.25c1,2.89,4.71,11,17.59,33.51a19.74,19.74,0,0,0,14.91,9.78c10.19,1.13,17.34,4.45,21.24,9.87a16.58,16.58,0,0,1,2.91,12.4l-.8,3.66L323.4,352c-4.09-12.89-15.57-13.27-27.73-13.67l-4.61-.18c-7.75-.39-11.81-7.58-13.93-14.38,3.06,32.82,24.7,48.4,24.95,48.57l4.1,2.88-4.89-1.09c-13-2.87-21-14.47-24.67-21.13A31.16,31.16,0,0,1,273,341.35c-4-36.54-17.35-43.27-22.28-44.51,3.11,7.74,3.26,30.88,3.27,34.56,2.87,7.4,2.68,11.85,2.58,14,0,.2,0,.41,0,.6,8.55-.75,24.33,13.29,27.05,22.38,1.37,4.56-1,6.38-2.5,7.06A4,4,0,0,1,279.5,375.77ZM275.7,372c1.45,1.11,3.33,2.15,4.62,1.58.61-.27,2.46-1.1,1.4-4.65-2.47-8.24-18-22.15-25.3-20.93a1.46,1.46,0,0,1-1.31-.31c-.59-.51-.55-1.27-.5-2.4.09-2,.27-6.26-2.52-13.37l-.07-.18v-.19c0-12.15-1.05-32.49-3.86-35.31l-1.63-1.63,2.31-.08c.85-.05,21.07-.12,26.18,46.57A29.11,29.11,0,0,0,278.37,352c3,5.52,9.19,14.57,18.7,18.64-7.64-7.25-23.8-26.6-22.19-59.19h2c0,.24,1.5,24,14.28,24.68,1.52.07,3,.13,4.58.18,10.83.36,22,.73,27.6,10.51a14.71,14.71,0,0,0-2.57-6.19c-3.56-4.93-10.23-8-19.81-9a21.72,21.72,0,0,1-16.42-10.78c-20.16-35.26-18.72-36.36-17.67-37.16s2.28.3,3.48,1.5a21.47,21.47,0,0,0,1.94,1c5.28,2.54,19.32,9.29,25.6,23.51,1.95,4.43,10.85,9.52,16.55,11.73,7.72,3,17.37,5.17,21.67-.07-5.26.94-18.24,1.72-29.78-9.81h0c-5.39-5.38-9.2-11.46-12.56-16.82-5.81-9.24-10.35-16.55-19.93-16.12l-1.33.05.31-1.29c0-.12,2.93-12.43-2.8-18.67-2.94-3.2-7.73-4.32-14.23-3.31a4.29,4.29,0,0,0-3.38,2.47,2.77,2.77,0,0,0,0,2.29c.54,1.19,2.17,2.93,6.77,4.78-.5-2.41-.8-5.62.89-6.54s3.85.53,7.53,4.69c.83.95,3.38,3.84,2,6-2.51,3.93-17.18.14-22.54-1.41l-11.26,12-14.65-10.65-1.33,8-20.16-9.16c2.65,5.93,8.25,20.88,2.22,30.13-3.64,5.58-10.83,8.05-21.39,7.34a11,11,0,0,1-8.2-4.51,17.2,17.2,0,0,1-3.28-10.18,18.75,18.75,0,0,0-.56,9.43c.86,3.62,3.26,6.44,7.13,8.4a21.49,21.49,0,0,0,16.93.77c6.67-2.38,15.2-7,18-15.29l1.38-4.15.56,4.34c0,.19,2.43,18.77,5.56,28,1.52,4.49,2.69,8.25,3.69,11.85,2.48,9,8.33,24.05,20.44,29.4-4.69-5.46-13.9-16.83-13.57-21.56a2.73,2.73,0,0,1,.93-2l.62-.51.63.48c4.06,3.09,21.26,16.44,27.1,25a23.7,23.7,0,0,0-4.26-9.06l-2.29-3.22,3.55,1.74c11.17,5.5,24.28,12.77,23.37,16.19C278,371.45,276.94,371.88,275.7,372Zm-27.9-32-2-2c-.82-.84-3-2.78-6.42-5.64A40.6,40.6,0,0,1,230.69,322l-.4-.67.55-.54c1.37-1.36,3.57-15,4.91-27.45l.1-.95,1,.06c2.09.13,4.9,2.84,8,22.91,1.7,10.83,2.7,21.75,2.71,21.86Zm-15.07-18.46a38.63,38.63,0,0,0,8,9.33c1.92,1.63,3.46,2.95,4.59,3.95-.39-3.88-1.24-11.53-2.43-19.14-2.25-14.26-4.23-18.94-5.32-20.47C236.86,301.37,234.87,317.51,232.73,321.56Z" style="fill:#fff"/></g></g></svg>