<svg xmlns="http://www.w3.org/2000/svg" viewBox="0 0 200.08 331.57"><defs><style>.cler-1{fill:#df0b13;}.cler-2{fill:#fff;}</style></defs><title>Cleric_1</title><g id="Layer_2" data-name="Layer 2"><g id="Layer_1-2" data-name="Layer 1"><path class="cler-1" d="M59.88,136.21c2.84-2.45,6.33-4.06,7.36-6.66C69.3,124.39,72,118.3,64,114.28c5.16.87,9.09,1.44,13.19-3.09,3.71-4.11,5.32-7.33,2.84-12,3,1.33,6,4,8.58,3.6,9.63-1.64,9.57-2,11.58-6.15,4.5,6.82,13.81,7.86,21,1.45-2.6,5.7-1.38,9.08,2.58,13s7.59,4.81,12.75,2.73c-2.94,3.74-6.13,6.34-4.11,12.25,1.74,5.09,3.36,8.4,9.27,9.11-4.84,1.63-7.88,3.58-9.63,8.95-2,6.05.65,8.78,5.41,12.42-5.56.34-9.82-3.29-14.09,2-3.39,4.17-5.29,7.37-2.69,12.33-.79.1-1.22.29-1.44.15-2.76-1.69-4.45-7.08-8.44-4-1.89,1.45-1.71,5.78-2.17,8.85-4.7,31-.92,62-1.53,93.07a261.39,261.39,0,0,0,.63,27.43c.66,7.76,2.83,15.38,3.73,23.13.61,5.21-5.33,10.89-10.7,11.09S89,324.93,89.5,319.46c.59-6.11,2.36-12.1,3-18.2.82-8.66,1.3-17.37,1.46-26.07.49-26.21,1-52.43,1-78.64,0-9-1.58-17.93-2.64-26.88-.41-3.49-4.18-4.63-7-2.23a71.3,71.3,0,0,0-5,5.35c1.37-6,2.15-9.78-2.2-13.81s-8.15-3.61-14.28-1.56c3.88-4.72,7.18-7.44,5.07-13.49C67,138.47,64.18,136.43,59.88,136.21Z"/><path class="cler-2" d="M100.53,331.57a12.73,12.73,0,0,1-8.84-4.22,10.48,10.48,0,0,1-3.19-8c.3-3.09.9-6.18,1.49-9.17s1.17-6,1.46-9c.8-8.37,1.29-17.12,1.46-26l.08-4.5c.46-24.29.94-49.42.9-74.12a158.73,158.73,0,0,0-1.79-20.18c-.29-2.19-.58-4.39-.84-6.58a2.79,2.79,0,0,0-1.72-2.42,3.63,3.63,0,0,0-3.67.83A27.54,27.54,0,0,0,83.22,171c-.61.7-1.32,1.51-2.2,2.47l-2.55,2.79.84-3.69c1.4-6.18,1.91-9.31-1.91-12.85s-7.14-3.39-13.28-1.34l-3.29,1.1,2.2-2.68,1.37-1.64c3.24-3.81,5.19-6.11,3.52-10.89s-4-6.85-8.09-7l-2.49-.12,1.89-1.63c1-.82,2-1.54,2.92-2.23,1.84-1.32,3.57-2.57,4.17-4l.13-.35c2.09-5.21,4.06-10.14-2.9-13.66l-5.89-3,6.5,1.1c5.42.92,8.66,1.24,12.29-2.77s4.92-6.67,2.7-10.83l-1.37-2.57,2.66,1.19a30.06,30.06,0,0,1,3,1.59c1.81,1.07,3.69,2.17,5,1.93,8.87-1.51,9-1.72,10.69-5.27l.93-1.91,1,1.47a11.5,11.5,0,0,0,8.17,5.18,14.36,14.36,0,0,0,11.38-3.93l3.54-3.14-2,4.31c-2.52,5.51-1.11,8.42,2.38,11.87,3.82,3.79,6.88,4.45,11.66,2.52l3.48-1.4-2.32,2.94c-.39.5-.78,1-1.16,1.44-2.53,3-4.36,5.26-2.78,9.87,1.65,4.82,3,7.79,8.44,8.44l4.39.52L142,136.16c-4.58,1.54-7.38,3.33-9,8.3-1.75,5.38.3,7.68,5.06,11.32l2.13,1.63-2.67.17a22,22,0,0,1-5.24-.49c-3.26-.6-5.61-1-8.14,2.08-3.56,4.38-4.77,7-2.57,11.24l.68,1.29-1.45.17a6.23,6.23,0,0,0-.67.11,1.83,1.83,0,0,1-1.41-.11,11.32,11.32,0,0,1-2.58-2.46c-2-2.29-2.89-3-4.73-1.61-1.08.82-1.31,3.41-1.52,5.7-.07.84-.15,1.71-.27,2.5-3.08,20.29-2.49,41-1.92,61.08.3,10.44.61,21.23.4,31.86a263.05,263.05,0,0,0,.63,27.33,118.67,118.67,0,0,0,2,12.46c.67,3.47,1.36,7.06,1.77,10.63a9.93,9.93,0,0,1-2.69,7.49,13.11,13.11,0,0,1-9,4.72Zm-12-166.4a4.75,4.75,0,0,1,4.76,4.39c.26,2.18.55,4.36.84,6.55a159.69,159.69,0,0,1,1.81,20.44c0,24.72-.44,49.85-.9,74.16l-.08,4.5c-.17,8.92-.66,17.72-1.47,26.14-.3,3.11-.9,6.22-1.49,9.23s-1.17,6-1.46,9A8.57,8.57,0,0,0,93.14,326a10.57,10.57,0,0,0,7.62,3.59,11.2,11.2,0,0,0,7.52-4,8.09,8.09,0,0,0,2.23-6c-.41-3.5-1.09-7-1.75-10.48a120.21,120.21,0,0,1-2-12.67,264.73,264.73,0,0,1-.64-27.54c.21-10.58-.1-21.35-.4-31.77-.57-20.14-1.16-41,1.94-61.43.11-.73.18-1.53.26-2.38.26-2.83.52-5.75,2.29-7.11,3.52-2.7,5.8,0,7.47,1.9a16.65,16.65,0,0,0,1.38,1.49c-1.65-4.69.63-8.09,3.55-11.69,3.27-4,6.72-3.4,10.05-2.79.59.11,1.19.22,1.8.3-3.33-2.93-5.15-6-3.34-11.57a12.75,12.75,0,0,1,7.26-8.41c-4-1.54-5.49-4.9-6.89-9-1.71-5,0-7.88,2.2-10.65-3.93.76-7.1-.48-10.6-3.94-3.15-3.12-5-6.28-3.91-10.94a15.51,15.51,0,0,1-10.27,2.39,13.34,13.34,0,0,1-8.57-4.71c-1.67,3.2-3,3.76-11.58,5.24-2.09.35-4.28-.94-6.41-2.19l-.41-.24c1,3.84-.85,7-4,10.48a11.18,11.18,0,0,1-10,4c4.19,4.2,2,9.61.37,13.75l-.14.34c-.81,2-2.78,3.44-4.86,4.93l-1,.7c3.55.88,5.85,3.4,7.47,8,1.88,5.38-.17,8.42-3.08,11.9,4.81-1.22,8.2-.81,12,2.75s4,6.89,3.28,11.05a24.75,24.75,0,0,1,2.54-2.62A6.1,6.1,0,0,1,88.48,165.17Z"/><path class="cler-1" d="M3,130.12c15.88-2.92,28.5-8.89,36.76-21.77S46,81.51,41.67,67a31.63,31.63,0,0,1,4.52,1.11c14,6.41,26.28.67,38.49-5.32,1.45-.72,2.36-2.73,3.27-4.28C95.22,46.11,96.59,32.22,98,18.34A54.42,54.42,0,0,1,101.08,4c.65,4.67,1.23,9.35,2,14,1.82,11.63,2.43,23.31,7,34.66,4.12,10.31,11.78,13.73,20.9,16.3s18.35,3.33,27.63-2C155,81.45,153,95.14,161.11,108.3s20.59,18.49,36.11,21.88c-33.88,18.21-45.06,45.54-37.1,81.78-6.36-8.92-12.87-17.73-18.88-26.88-.77-1.17.57-4.46,1.83-6.09,15.94-20.72,19.36-43.55,10.31-67.75-9.9-26.47-32-39.41-60.56-36.86-22.93,2-43.24,21.47-48.33,46.67-4.37,21.62,0,41.3,13.9,58.7,1.06,1.33,2.14,4.15,1.49,5.12C53.64,194.15,47,203.18,40,212.21,49,175.81,37.38,148.69,3,130.12Z"/><path class="cler-2" d="M162.15,216.53l-2.84-4-4.51-6.29c-4.82-6.69-9.79-13.62-14.4-20.62-1.19-1.82.67-5.68,1.87-7.25C158,158,161.39,135.52,152.44,111.6c-9.69-25.92-30.84-38.78-59.53-36.23-22.52,2-42.47,21.31-47.44,45.88-4.36,21.59.24,41.06,13.7,57.88,1.12,1.41,2.6,4.72,1.54,6.3-6,8.88-12.48,17.84-19.9,27.39l-2.88,3.71L39.05,212C48,175.58,36,149.1,2.5,131L0,129.65l2.79-.51c17.59-3.24,28.72-9.82,36.1-21.33,7.88-12.3,6.43-25.09,1.82-40.52l-.49-1.66,1.68.4c.79.19,1.45.32,2,.44a11.78,11.78,0,0,1,2.68.73c13.88,6.36,26.5.16,37.64-5.31.93-.46,1.7-1.84,2.38-3.06.16-.28.31-.56.47-.83C94.18,45.91,95.6,32,97,18.63l0-.4a55.35,55.35,0,0,1,3.13-14.62L101.54,0l.53,3.84.6,4.37c.42,3.16.86,6.42,1.36,9.61.43,2.74.79,5.52,1.15,8.2,1.14,8.69,2.33,17.67,5.76,26.25,3.74,9.38,10.52,13,20.24,15.71,7.35,2.07,17,3.73,26.86-1.93l2-1.17-.56,2.28c-3.27,13.22-5.77,27.26,2.45,40.62,8.57,13.93,22.74,18.64,35.48,21.42l2.64.58-2.38,1.28C165,148.63,153,175,161.1,211.75Zm-156.3-86C37.12,148.36,49,173.75,42,208c6.26-8.2,11.87-16,17.06-23.71.21-.46-.44-2.67-1.45-3.93C43.76,163.08,39,143.05,43.51,120.85c5.14-25.42,25.84-45.38,49.22-47.47,29.25-2.61,51.69,11.07,61.58,37.52,9.21,24.61,5.69,47.72-10.45,68.7-1.34,1.74-2.11,4.42-1.79,4.93,4.59,7,9.55,13.88,14.35,20.55l1.81,2.52c-6.18-34.48,5.7-59.74,36.21-77-12.45-3-25.8-8.12-34.18-21.74-8.17-13.28-6.3-27-3.22-40-9.76,4.75-19.17,3.1-26.4,1.06-8.45-2.38-17.07-5.65-21.56-16.89-3.52-8.81-4.72-17.92-5.88-26.73-.36-2.67-.72-5.44-1.15-8.15-.5-3.21-.94-6.48-1.36-9.65v0a63.38,63.38,0,0,0-1.67,10l-.05.4C97.57,32.46,96.13,46.54,88.81,59l-.44.79c-.83,1.48-1.76,3.15-3.25,3.88C73.58,69.35,60.5,75.78,45.77,69a10.43,10.43,0,0,0-2.24-.59l-.43-.09c3.84,13.33,5.91,27.39-2.53,40.55C33.26,120.3,22.48,127.06,5.85,130.57Z"/></g></g></svg>
