<svg xmlns="http://www.w3.org/2000/svg" viewBox="0 0 380.05 435.07"><defs><style>.cls-1{fill:#2d2d2d;}.cls-2{fill:#df0b13;stroke:#fff;stroke-miterlimit:10;stroke-width:2px;}</style></defs><title>Cleric</title><g id="Layer_2" data-name="Layer 2"><g id="Layer_1-2" data-name="Layer 1"><polygon class="cls-1" points="353.3 217.46 351.89 310.98 271.72 358.89 190.03 404.43 108.46 358.96 28.17 310.98 26.75 217.6 28.17 124.08 108.33 76.17 190.03 30.64 271.61 76.11 351.89 124.08 353.3 217.46"/><path class="cls-1" d="M190,435.07,95.08,382.14,1.64,326.3,0,217.61,1.64,108.77,95,53,190,0,285,52.93l93.45,55.84,1.63,108.69L378.42,326.3l-93.31,55.76ZM11.78,320.45l88.41,52.84L190,423.36l90-50.15,88.28-52.76,1.55-103-1.55-102.84L279.86,61.78,190,11.71l-90,50.15L11.78,114.62l-1.55,103Z"/><path class="cls-2" d="M149.81,186.47c2.83-2.45,6.33-4.07,7.36-6.66,2.06-5.16,4.71-11.25-3.25-15.28,5.16.88,9.1,1.45,13.19-3.08,3.72-4.12,5.33-7.33,2.85-12,3,1.33,6,4,8.58,3.6,9.63-1.65,9.57-2,11.57-6.15,4.51,6.82,13.82,7.86,21,1.45-2.6,5.7-1.38,9.08,2.58,13s7.59,4.81,12.74,2.73c-2.93,3.74-6.12,6.34-4.1,12.25,1.74,5.09,3.36,8.4,9.27,9.11-4.85,1.63-7.88,3.58-9.63,8.94-2,6.06.65,8.79,5.4,12.43-5.55.34-9.82-3.29-14.09,2-3.38,4.17-5.28,7.37-2.68,12.33-.8.09-1.22.28-1.45.15-2.75-1.69-4.44-7.09-8.43-4-1.89,1.45-1.71,5.78-2.17,8.85-4.7,30.95-.92,62-1.54,93.07a264.14,264.14,0,0,0,.64,27.43c.66,7.76,2.82,15.38,3.73,23.13.6,5.21-5.34,10.89-10.71,11.09s-11.83-5.64-11.3-11.12c.59-6.1,2.37-12.09,3-18.19.83-8.66,1.3-17.37,1.47-26.07.49-26.21,1-52.43,1-78.64,0-9-1.57-17.93-2.63-26.88-.42-3.49-4.19-4.63-7-2.23-1.38,1.17-2.48,2.66-4.94,5.34,1.37-6,2.14-9.77-2.2-13.8s-8.15-3.61-14.28-1.56c3.88-4.72,7.18-7.44,5.07-13.49C156.89,188.73,154.11,186.68,149.81,186.47Z"/><path class="cls-2" d="M92.9,180.38c15.88-2.92,28.5-8.89,36.76-21.77,8.35-13,6.27-26.85,1.94-41.35a29.77,29.77,0,0,1,4.51,1.11c14,6.4,26.29.67,38.5-5.33,1.44-.71,2.36-2.72,3.27-4.27,7.27-12.4,8.63-26.29,10.06-40.17A53.64,53.64,0,0,1,191,54.23c.65,4.67,1.23,9.35,2,14,1.82,11.63,2.42,23.31,7,34.66,4.12,10.31,11.79,13.73,20.91,16.3s18.35,3.32,27.63-2c-3.59,14.53-5.53,28.22,2.57,41.38s20.59,18.49,36.11,21.88c-33.89,18.21-45.07,45.54-37.1,81.78-6.36-8.92-12.87-17.74-18.88-26.88-.77-1.17.57-4.47,1.82-6.09,15.95-20.72,19.36-43.55,10.31-67.75-9.9-26.48-32-39.42-60.56-36.86-22.92,2-43.23,21.47-48.32,46.67-4.37,21.62,0,41.3,13.89,58.7,1.07,1.33,2.15,4.15,1.5,5.12-6.24,9.28-12.85,18.31-19.86,27.34C138.88,226.07,127.31,199,92.9,180.38Z"/></g></g></svg>