<svg xmlns="http://www.w3.org/2000/svg" viewBox="0 0 369.56 381.43"><title>Cloaker</title><g id="f19dc3d5-149a-4c59-a022-920b3754339e" data-name="Layer 2"><g id="e922ff61-d2c0-4407-844d-a55b8c641675" data-name="Layer 1"><path d="M59.42,341.67c8,16.82-4.66,24.31-14.93,27.53a13.57,13.57,0,0,1-16.55-7.61,34.3,34.3,0,0,1-.88-23.83c2.79-8.55,8.92-14.89,15.4-20.86,1.74-1.6,3.45-3.24,5.16-4.89A273.32,273.32,0,0,0,59.42,341.67Zm170.9-113c-5.17,28.1-38.43,45.3-57.93,39.56s-88.72,3.91-88.72,3.91c-12,4.38-23.72,10.77-32.13,20.67-.65.76-1.28,1.56-1.87,2.38l-1.05,1.45c-.34-1.41-.62-2.78-.82-4.09A13.44,13.44,0,0,1,57,277.66l.72-.22,2.29,4s5.16-13.2,10.32-12.62a31.72,31.72,0,0,0-22,4.59,16.36,16.36,0,0,0-6.93,18.33c.84,3,1.88,6.53,3.09,10.45-7,9.11-14.62,17.94-21.34,27.31-5,7-9.75,15-10.51,23.68-1,11.53,7.22,22.23,18,25.79,9.14,3,19.55,1.05,27.53-4.14,7.35-4.77,13.3-13.16,11.09-22.29C66.19,340.31,57.48,323,52,307.78A93.79,93.79,0,0,1,63.82,298c14.29-9.68,31.59-15.33,48.93-14.21,20.06,1.3,40,7.25,60.18,6.41,21.5-.9,51.13-12.87,60.66-33.57,4-8.78,5.36-18.48,7.13-27.89.11-.6,4.12-17.86,6.8-14.92C247.52,213.78,235.47,200.6,230.32,228.7Z" style="fill:#201d2a"/><path d="M39.69,381.43a30.15,30.15,0,0,1-9.46-1.49c-11.63-3.86-19.64-15.4-18.63-26.83.82-9.36,6.15-17.84,10.7-24.18,4.18-5.83,8.77-11.53,13.2-17,2.6-3.23,5.28-6.56,7.84-9.88-1-3.23-2-6.59-2.94-10a17.41,17.41,0,0,1,7.36-19.45,32.52,32.52,0,0,1,22.77-4.72l-.33,2c-3.2-.4-7.39,7.17-9.28,12l-.53,1.37a87.74,87.74,0,0,1,22.94-12l.2-.05c2.83-.39,69.66-9.61,89.14-3.88,9.25,2.73,22,.12,33.26-6.81,12.56-7.72,21.09-19.38,23.4-32,2-11,5.37-17.22,10-18.56s8.4,2.57,8.9,3.09l0,.06-1.46,1.34h.14c-1.58.61-4.59,11.1-5.24,14.44-.26,1.38-.51,2.77-.76,4.16-1.44,8-2.94,16.36-6.44,24-9.28,20.16-38.57,33.2-61.53,34.16-12.08.51-24.22-1.43-36-3.31-8-1.27-16.21-2.58-24.31-3.1-16.25-1.06-33.4,3.93-48.31,14a90.5,90.5,0,0,0-11.21,9.27c2.13,5.86,4.74,12.06,7.26,18.06,4.06,9.64,7.9,18.75,9.71,26.2,2.46,10.14-4.67,18.92-11.51,23.37A35,35,0,0,1,39.69,381.43Zm26-112a31.85,31.85,0,0,0-16.85,4.84,15.41,15.41,0,0,0-6.5,17.21c1,3.55,2,7.06,3.09,10.43l.15.49-.32.41c-2.67,3.47-5.47,6.95-8.18,10.32-4.42,5.49-9,11.17-13.14,17-4.4,6.13-9.55,14.31-10.32,23.19-.94,10.53,6.49,21.17,17.26,24.75,8.37,2.77,18.59,1.23,26.68-4,6.3-4.09,12.87-12.1,10.66-21.21-1.78-7.3-5.58-16.34-9.61-25.91-2.62-6.23-5.34-12.68-7.52-18.77l-.22-.61.47-.45a94.73,94.73,0,0,1,11.94-9.93c15.28-10.35,32.88-15.46,49.56-14.38,8.19.53,16.48,1.85,24.5,3.13,11.65,1.86,23.69,3.78,35.57,3.28,22.35-.94,50.83-13.53,59.79-33,3.4-7.38,4.87-15.57,6.3-23.49.25-1.39.5-2.78.76-4.17,0-.13,2.59-12.11,5.59-15.28a6.52,6.52,0,0,0-5.46-1.35c-2.63.76-6.25,4.33-8.57,17h0C228.88,242,220,254.17,207,262.19c-11.73,7.22-25.09,9.91-34.86,7-18.72-5.51-85.14,3.51-88.2,3.93-14,5.09-24.3,11.74-31.61,20.33-.66.78-1.27,1.56-1.81,2.32l-.13.17-.94,1.29L48.14,299l-.5-2.07c-.36-1.52-.63-2.89-.83-4.17a14.37,14.37,0,0,1,9.87-16l1.49-.47,1.69,3c1.2-2.67,3.55-7.31,6.43-9.76Zm-8.44,9.19a12.4,12.4,0,0,0-8.45,13.79q.15.9.33,1.86c.51-.69,1.07-1.39,1.67-2.09a58.41,58.41,0,0,1,9.22-8.7ZM40.49,370.82A14.66,14.66,0,0,1,27,362a35.14,35.14,0,0,1-.91-24.53c2.95-9,9.64-15.73,15.67-21.28,1.64-1.51,3.24-3.05,5.14-4.88l1.14-1.1.5,1.5a269.6,269.6,0,0,0,11.76,29.55h0c3,6.2,3.44,11.72,1.39,16.42-3,6.88-10.85,10.59-16.92,12.5A14.22,14.22,0,0,1,40.49,370.82Zm6.69-57c-1.44,1.38-2.72,2.6-4,3.82C37.29,323,30.81,329.49,28,338.07a33.1,33.1,0,0,0,.84,23.13,12.64,12.64,0,0,0,15.34,7.05c5.66-1.78,13-5.2,15.68-11.39,1.8-4.14,1.34-9.11-1.36-14.76A266.32,266.32,0,0,1,47.18,313.82Z" style="fill:#fff"/><path d="M99,189.79c-47.2-61-93.45-46-93.45-46C-24.32,5,103.58,1,103.58,1c23.51,33.26,2.29,24.66,2.29,24.66C95.55,23.39,96.7,68.12,100.7,83.6s35.56,39,35.56,39c30.4-28.67,80.86,24.09,80.86,24.09,92.34-10.9,89.47-98.07,89.47-98.07-22.36-2.3-9.75-16.06-9.75-16.06a99.35,99.35,0,0,1,10.57,4.77c6.2,10.66,56,110.9-132.72,162.68l-.35.12c1.32-10.45-.77-25.17-23.93-22.67-35.36,3.82-24.74,33.63-23.13,40L110.5,201.8A77.59,77.59,0,0,1,99,189.79Z" style="fill:#201d2a"/><path d="M129.09,220.48l-19.27-17.95A78.81,78.81,0,0,1,98.17,190.4h0c-24.2-31.29-48.08-42-63.85-45.51-17-3.76-28.38-.16-28.5-.12l-1.05.34L4.54,144C-4.86,100.3.36,65.36,20.06,40.18,49.82,2.14,103,0,103.55,0l.54,0,.31.44c9.7,13.74,13.08,22.11,10.31,25.61-2.43,3.05-8.14,1-9.13.59a2.32,2.32,0,0,0-2.24.83C97,34,98.2,69.92,101.67,83.34c3.57,13.75,30,34.48,34.53,38,12.75-11.47,30.85-10.88,52.4,1.73a152.87,152.87,0,0,1,28.89,22.61c46.91-5.7,68.35-31.67,78.09-52.5a110.09,110.09,0,0,0,10-43.62c-7.19-.88-11.51-3.11-12.86-6.65-1.94-5.11,3.15-10.74,3.37-11l.46-.5.64.24a100.42,100.42,0,0,1,10.67,4.81l.26.13.14.25c2.07,3.56,19.78,35.88,4.46,73.31C296.51,149.79,250.16,180.35,175,201l-1.8.58.19-1.56c.67-5.29.52-12.56-4-17.15-3.79-3.86-10.12-5.33-18.84-4.39-10.33,1.11-17.55,4.6-21.45,10.36-6.17,9.1-2.69,21.62-1.2,27,.15.54.28,1,.38,1.4ZM19,141.16a72.73,72.73,0,0,1,15.77,1.78c16.1,3.56,40.44,14.47,65,46.24h0A76,76,0,0,0,111.14,201l14.25,13.27c-1.67-6.33-4-17.78,2-26.6,4.25-6.27,12-10,22.89-11.23,9.35-1,16.24.66,20.48,5,3.77,3.84,5.39,9.8,4.72,17.32,73.95-20.47,119.49-50.53,135.38-89.39,14.65-35.79-1.62-66.77-4.2-71.29a98.8,98.8,0,0,0-9.53-4.33c-1.09,1.37-3.77,5.21-2.54,8.41,1.09,2.88,5.27,4.77,12.08,5.47l.87.09,0,.87A111.42,111.42,0,0,1,297.39,94c-10,21.36-32,48-80.15,53.69l-.5.06-.34-.36c-.5-.52-50.13-51.72-79.45-24l-.61.57-.68-.5c-1.3-1-31.86-23.91-35.92-39.55-3.64-14-5-50.4,2.16-57.77a4.33,4.33,0,0,1,4.19-1.38l.16.05c1.36.55,5.55,1.74,6.89.05,1-1.19,1.85-5.8-10.06-22.76-5.61.32-53.87,4.1-81.46,39.39C2.47,65.92-2.69,99.94,6.27,142.56A52.78,52.78,0,0,1,19,141.16Z" style="fill:#fff"/><path d="M339.85,228.7c-46.45,36.7-92.33-14.92-92.33-14.92s-12.05-13.18-17.2,14.92c-2.11,11.44-9,21.59-18,28.76A65.47,65.47,0,0,1,173,272c-13,.47-25.89-.71-38.8-1.57a248.75,248.75,0,0,0-36.72.72c-11.67.93.21.17-13.79,1,12.47-4.54,25.68-7.27,38.7-9.79,3.23-.62,6.48-1.18,9.74-1.7,12.71-2,25.14-1,37.85.66,8.11,1.06,22.19,3.53,26-6.37s-6.91-16.26-15.11-17.63c-1-.15-12.95-.39-13-.61a11.07,11.07,0,0,0-5-5.14c3.06-1.57,8.19-5.16,6.13-10.92l-4.4,3.62-1-10.7-3.82,7.84-2.87-6.88-7.64,7.26-2.69-5.35-3.43,2.68-1.34-4.78-4.79.95s-.94-3-1-3.05l-3.63,1S137,200.4,139,202.7l1.14,4.58,2.48-5,2.1,4.58,3.26-6.11,2.1,6.11,5.73-4.2,1.21,2.94,1.85,4.52,6.11-6.7,2.11,4.77,4.4-3L172,210a47.38,47.38,0,0,0,2.33-9.83l.35-.12C366.52,148.23,313.61,48,307.41,37.33,379.92,75.3,384.24,193.62,339.85,228.7Z" style="fill:#c3b89b"/><path d="M76.81,273.6l6.52-2.37c12.48-4.54,25.5-7.24,38.85-9.83,3.12-.6,6.4-1.17,9.77-1.7,13.18-2.07,26.12-.91,38.14.65l1.36.18c8.07,1.08,20.26,2.72,23.57-5.92a9,9,0,0,0-.45-8.08c-2.56-4.49-8.82-7.35-13.89-8.2-.37-.06-3-.15-5.38-.22-8.13-.28-8.13-.28-8.42-1a10,10,0,0,0-4.56-4.64l-1.58-.92,1.62-.83c3.15-1.62,6.55-4.32,6-8.27l-4.65,3.83-.8-9-3.21,6.6-3.16-7.59-7.57,7.2L146.24,218l-3.66,2.85-1.48-5.33-4.76.95-.27-.86-.67-2.15-4.54,1.2.64-1.79c1.46-4.08,4.27-11,6.63-11.42a1.62,1.62,0,0,1,1.58.61l.15.17.55,2.19,2.2-4.42,2.13,4.65,3.39-6.36,2.4,7,5.67-4.15,3,7.18,6.08-6.66,2.24,5.06,4.76-3.31.19,1.62a46.08,46.08,0,0,0,.93-5l.08-.63,1-.31c75.27-20.32,121.47-50.22,137.39-88.89,14.52-35.28-1.82-66.45-5.24-72.34l-1.74-3,3.07,1.61c33.92,17.76,56.73,55.69,61,101.47,3.65,39.1-7.5,75.05-28.41,91.57h0c-24.4,19.28-48.62,14.14-64.64,6.42a103.31,103.31,0,0,1-29-21.45s-3.36-3.59-6.9-2.57c-2.63.76-6.25,4.33-8.58,17-2.05,11.17-8.58,21.6-18.37,29.36A66,66,0,0,1,173,273c-10.93.4-22-.39-32.7-1.15-2.07-.14-4.13-.29-6.2-.42a247.42,247.42,0,0,0-36.57.72c-5.25.42-5.69.49-5.88.52s-.25,0-3.92.27ZM121.74,269c4.08,0,8.26.12,12.5.4l6.21.43c10.65.75,21.66,1.53,32.49,1.14a64.1,64.1,0,0,0,38.75-14.31c9.41-7.46,15.68-17.46,17.64-28.15,2-11,5.39-17.24,10-18.57s8.75,3,8.92,3.16a101.45,101.45,0,0,0,28.5,21c22.53,10.83,43.55,8.73,62.47-6.22,20.39-16.11,31.25-51.37,27.66-89.81-4.09-43.75-25.31-80.2-57-98.27,5.25,10.3,16.92,39,3.73,71.1-16.14,39.23-62.7,69.49-138.38,90a47.76,47.76,0,0,1-2.31,9.42l-1.44,3.81-.86-7.18-4,2.8-2-4.48L158.5,212l-3.18-7.74-5.79,4.25-1.8-5.22-3.12,5.86-2.08-4.52-2.75,5.52-1.62-6.48c-.95,1-2.61,4.23-4.11,8.08l2.54-.67.37.71c0,.09,0,.1.75,2.36l4.81-1,1.19,4.24,3.22-2.51,2.63,5.24,7.72-7.34,2.57,6.18,4.42-9.08,1.11,12.4,4-3.33.48,1.34c1.52,4.28-.35,8.34-5.14,11.32a11.29,11.29,0,0,1,3.74,4.17c1.2.1,4.42.21,6.87.29,3.29.11,5.18.17,5.64.25,5.13.85,12.21,3.77,15.3,9.18a11,11,0,0,1,.58,9.79c-3.88,10.11-17.54,8.28-25.71,7.19l-1.34-.18c-11.88-1.55-24.65-2.69-37.58-.67-3.34.53-6.61,1.1-9.7,1.69a304.09,304.09,0,0,0-31.29,7.33h.07c.25,0,.7-.12,6-.55C104.7,269.55,113,269,121.74,269Z" style="fill:#fff"/><path d="M150.41,177.46c-35.36,3.82-25.41,31.49-23.8,37.83,3,7.7,7.91,14.36,16,11.68,1.31-.44,13.09.45,20.25,4.62,3.06-1.57,8.19-5.16,6.13-10.92l-4.4,3.62-1-10.7-3.82,7.84-2.87-6.88-7.64,7.26-2.69-5.35-3.43,2.68-1.34-4.78-4.79.95-.94-3v0l-3.63,1S137,200.4,139,202.7l1.14,4.58,2.48-5,2.1,4.58,3.26-6.11,2.1,6.11,5.73-4.2,1.21,2.94,1.85,4.52,6.11-6.7,2.11,4.77,4.4-3L172,210a47.38,47.38,0,0,0,2.33-9.83C175.66,189.68,173.57,175,150.41,177.46Zm10.23,19.41c-1.43,2.57-10.33.85-12.33-.57-.82-.6-3.41-.46-4.49-.44a3.34,3.34,0,0,1-3.38-2.93l-1-8.39S162.07,194.29,160.64,196.87Z" style="fill:#987d46"/><path d="M162.79,232.73l-.47-.27c-7.07-4.12-18.36-4.82-19.44-4.54-5,1.68-12.12.92-17.2-12.27l0-.12-.36-1.3c-1.43-5.15-4.78-17.22,1.49-26.45C131,181.5,139,177.69,150.3,176.47h0c9.35-1,16.24.66,20.48,5,4,4.09,5.59,10.59,4.56,18.81a48.44,48.44,0,0,1-2.4,10.07l-1.44,3.81-.86-7.18-4,2.8-2-4.48L158.5,212l-3.18-7.74-5.79,4.25-1.8-5.22-3.12,5.86-2.08-4.52-2.75,5.52-1.62-6.48c-.95,1-2.61,4.23-4.11,8.08l2.54-.67.45.9.67,2.17,4.81-1,1.19,4.24,3.22-2.51,2.63,5.24,7.72-7.34,2.57,6.18,4.42-9.08,1.11,12.4,4-3.33.48,1.34c1.67,4.7-.74,9.13-6.62,12.15Zm-19-6.85c3.79,0,12.95,1.25,19,4.58,3-1.64,6-4.26,5.53-8l-4.65,3.83-.8-9-3.21,6.6-3.16-7.59-7.57,7.2L146.24,218l-3.66,2.85-1.48-5.33-4.76.95-.94-3-4.54,1.2.64-1.79c1.46-4.08,4.27-11,6.63-11.42a1.62,1.62,0,0,1,1.58.61l.15.17.55,2.19,2.2-4.42,2.13,4.65,3.39-6.36,2.4,7,5.67-4.15,3,7.18,6.08-6.66,2.24,5.06,4.76-3.31.19,1.62a46.08,46.08,0,0,0,.93-5c.67-5.29.52-12.56-4-17.15-3.79-3.86-10.12-5.33-18.84-4.39h0c-10.74,1.16-18.17,4.67-22.09,10.44-5.74,8.47-2.57,19.91-1.21,24.8.13.49.25.92.35,1.28,3.62,9.37,8.56,13.08,14.69,11A5.74,5.74,0,0,1,143.81,225.88ZM156.6,199.2c-3.37,0-7.47-1.09-8.87-2.09-.33-.23-1.52-.32-3.54-.26h-.35a4.34,4.34,0,0,1-4.39-3.81l-1.24-10.12,1.6.69c4.83,2.08,20.66,9.11,21.8,12.42a1.58,1.58,0,0,1-.09,1.31h0A3.66,3.66,0,0,1,159,199,11,11,0,0,1,156.6,199.2Zm-11.24-4.37a6.48,6.48,0,0,1,3.54.66c1.23.87,6.7,2.19,9.64,1.53a2.58,2.58,0,0,0,1.1-.48c-1-1.73-10.22-6.51-19-10.39l.81,6.66a2.31,2.31,0,0,0,2.37,2.05h.34Z" style="fill:#fff"/></g></g></svg>