<svg xmlns="http://www.w3.org/2000/svg" viewBox="0 0 436.87 410.59"><title>Cockatrice</title><g id="b952d90b-ff71-49d2-a0fc-89b46a2060cf" data-name="Layer 2"><g id="aa83b992-bda1-42eb-9d80-06e517315eaa" data-name="Layer 1"><path d="M351,297.14c-.51-.72-1-1.45-1.58-2.17C260,175.61,194.29,175,194.29,175l15.91-19.89-35.8,13.27,15.25-26.53L122,161l35.77-53c-1.8,1.54-61.09,52.28-68.26,49S64.33,171,64.33,171l-1.46,1.46A104.31,104.31,0,0,0,55,162.37l2-23.22-17.9,27.19s-8-10.61-9.3-21.23l-2.59,6c-.52-23.73,5.32-41.65,5.26-41.18-2,17.24,11.94,27.85,11.94,27.85C33.83,88.1,65.65,60.24,65.65,60.24c-13.92,33.82-2,41.76-2,41.76C96.82,6.52,149.2,1.23,149.2,1.23,75,100,100.79,110,100.79,110c16.58-41.78,51.07-43.77,51.07-43.77-49.08,51.06-23.21,53.06-23.21,53.06,41.78-84.88,124-80.25,124-80.25-139.24,71-43.76,78.25-43.76,78.25,73.6-53,90.84-34.48,90.84-34.48-21.38-5.53-42.17,9.25-53.89,23.57-9.33,11.41-12.92,22.55-6.45,22.85,13.36.6,64.59,22.92,99.08,87.86q4.74,8.88,9,18.9C358.41,261.72,357.4,281.79,351,297.14Z" style="fill:#69272c"/><path d="M351.25,299.2l-1-1.49q-.75-1.06-1.56-2.13c-46.13-61.52-85.73-90.78-110.82-104.5C210.76,176.28,194.44,176,194.28,176l-2.06,0,14.95-18.68-35,13,15.4-26.8-67.9,19.3,33.24-49.26c-6,5-16.16,13.48-26.61,21.65C94.17,160.25,90.5,158.59,89.12,158,83.64,155.48,69.87,167,65,171.7L62.73,174l-.68-1a104.33,104.33,0,0,0-7.75-10l-.29-.32L55.69,143,39.18,168.08l-.85-1.14c-.3-.4-6.6-8.89-8.88-18.4l-3.1,7.24-.11-4.61a146.88,146.88,0,0,1,2.42-29.54c.72-3.9,1.45-6.91,1.94-8.75.93-3.53,1-3.58,1.43-3.8l.53-.29,1,.69-.07.62c-1.42,12.27,5.65,21.17,9.37,24.94C34.13,87.17,64.68,59.77,65,59.49l3.2-2.8-1.62,3.93c-10.84,26.32-5.71,36.58-3.33,39.55,17.14-48.55,39.33-73.1,55-85.15C135.52,1.74,148.55.29,149.1.23L151.37,0,150,1.83C98.74,70,95.46,95.42,98.06,104.5a8.14,8.14,0,0,0,2.27,4c16.79-40.79,51.13-43.23,51.48-43.25l2.54-.15-1.76,1.84c-29.48,30.66-31,42.84-29.26,47.37a6.44,6.44,0,0,0,4.75,3.89C149.81,74.48,182.4,55,206,46.37,231.64,37,252.49,38,252.7,38l3.7.21-3.3,1.68c-65.4,33.33-76.86,51.63-75,61.12,2.42,12.13,27.17,14.89,30.45,15.21,73.23-52.68,91.14-34.91,91.87-34.13l2.32,2.5-3.31-.85c-20.59-5.32-40.81,8.51-52.87,23.23-7.63,9.34-10.44,17.29-9.22,20a2.06,2.06,0,0,0,2,1.18c13.91.63,65.51,23.61,99.93,88.39,3.12,5.87,6.16,12.25,9,19,9.83,23.14,11,44,3.57,62Zm-155-125.12c5.15.51,20.12,3,42.52,15.24,25.27,13.82,65.12,43.25,111.46,105.05l.52.7c6.5-17.08,5.08-36.82-4.23-58.72-2.84-6.67-5.86-13-9-18.82-34-64-84.63-86.72-98.25-87.33a4,4,0,0,1-3.77-2.37c-1.82-4.06,2-13,9.49-22.11,9.9-12.08,25.17-23.57,41.81-25-12.35.47-35.78,7.35-77.4,37.34l-.29.21-.37,0c-1.21-.09-29.74-2.43-32.62-16.84S197.62,66.31,248.53,40a134.35,134.35,0,0,0-41.95,8.27c-23.32,8.57-55.62,27.92-77,71.43l-.29.61-.68,0c-.21,0-5.28-.46-7.11-5.27-3.27-8.59,6.05-24.53,27.7-47.4-8.43,1.54-34,8.93-47.44,42.75l-.36.92-.93-.36c-.12,0-3-1.18-4.29-5.85-2.68-9.34.42-35,50.72-102.37-4.54,1-15,4.33-27.53,14-15.57,12-37.71,36.64-54.72,85.62l-.42,1.22-1.08-.71c-.49-.33-11.35-8-.21-38.29-7.82,9-25.72,34.45-17.48,73.07l.56,2.64-2.14-1.64c-.5-.38-10.48-8.15-12.26-21.24a143,143,0,0,0-3.36,29l2.14-5,.47,3.64c1,8.22,6.23,16.56,8.27,19.58l19.26-29.25L56.07,162A111.18,111.18,0,0,1,63,170.88l.61-.61c1.9-1.83,18.63-17.63,26.33-14.13,4.63,2.1,42.08-27.31,67.18-48.88l5.64-4.84-38.38,56.89,67.36-19.15-15.1,26.27,36.58-13.56Z" style="fill:#fff"/><path d="M230.09,344.7c-6.62,0-12.58,49.07-12.58,49.07s-4-26.51-11.94-35.8-4-33.82-8-35.8-6,12.6-6,12.6C189,297,178.37,311.55,178.37,311.55S191,332.1,179,338.74s-6,36.46-6,36.46c-14.59-4-25.87-30.5-25.87-30.5l-8,8.63-5.3,15.91c-14.58-13.26-3.31-44.43-3.31-44.43-8-14.58-36.46,25.21-36.46,25.21L97,340.9s0,0,0,0c6-11.78,14-23.47,24.31-33.28,38.45-36.49,35.8-62.33,35.8-62.33s37.13-45.1,64.32,31.16a97.76,97.76,0,0,0,6.64,18.17v0c-.54,7.33-1.4,13.09-2.67,15.63C220.15,320.84,236.73,344.7,230.09,344.7Z" style="fill:#69272c"/><path d="M217.61,401.18l-1.09-7.26c0-.27-4-26.34-11.71-35.3-4.85-5.65-5.45-16.28-5.94-24.82-.25-4.53-.57-10.17-1.72-10.74a.52.52,0,0,0-.54,0c-1.76.93-3.39,7.49-4,11.85l-1.31,9.61-.68-9.67c-1.43-20.36-5.07-24.38-7.12-25-1.6-.45-3.2,1-3.92,1.78,1.54,2.7,7.2,13.35,5.12,21.28a10.41,10.41,0,0,1-5.2,6.69c-11.17,6.19-5.52,35.1-5.46,35.39l.31,1.58-1.56-.42c-13.08-3.57-23.3-24-25.9-29.67l-6.79,7.35L134.41,371l-1.14-1c-14.12-12.84-5.12-41-3.73-45.06a4.38,4.38,0,0,0-3.58-2.31h-.33c-8.68,0-25,20.14-30.65,28l-3.64,5.08L96,340.75v-.26l.19-.19a123.31,123.31,0,0,1,24.45-33.45c37.66-35.73,35.52-61.25,35.5-61.5l0-.42.26-.32c.54-.66,13.52-16.15,30.1-13.25,14.15,2.48,26.23,17.52,35.93,44.72l0,.1a98.27,98.27,0,0,0,6.57,18l.1.2v.23c-.61,8.25-1.54,13.63-2.77,16.09-2.67,5.35.75,14.68,3.5,22.18,2.41,6.54,3.6,10,2.33,11.86a2.42,2.42,0,0,1-2.09,1c-.34,0-3.44.67-7.79,23.71-2.29,12.1-3.79,24.35-3.8,24.48ZM196.86,321a2.71,2.71,0,0,1,1.19.29c2.08,1,2.4,5,2.82,12.42.46,8.24,1,18.49,5.45,23.62,5.69,6.65,9.33,21.47,11,30,.67-4.73,1.7-11.51,3-18.25,4.25-22.47,7.45-25.35,9.76-25.35.35,0,.42-.1.45-.13.73-1.06-1.1-6-2.56-10-2.89-7.86-6.48-17.64-3.42-23.76.76-1.52,1.81-5.36,2.55-15a100.32,100.32,0,0,1-6.59-18.08c-9.43-26.43-21-41-34.36-43.36-14.23-2.5-26.1,10.14-28,12.25.19,3.69,0,28.45-36.14,62.71a121.37,121.37,0,0,0-24,32.81v.17l-.13.14-1.06,3.37c6.39-8.18,20-24.19,28.8-24.19h.42a6.46,6.46,0,0,1,5.43,3.72l.22.4-.16.42c-.1.3-10.28,29,1.93,42.25l4.86-14.59,9.16-9.92.61,1.42c.11.25,10.44,24.24,23.66,29.42-1.09-6.54-4.13-29.82,6.76-35.86a8.38,8.38,0,0,0,4.24-5.45c2.14-8.14-5.19-20.23-5.27-20.35l-.35-.57.4-.54c.12-.16,3-4,6.5-3,3.93,1.13,6.54,7.67,8,20,.81-2.89,2-5.76,3.65-6.63A2.59,2.59,0,0,1,196.86,321Z" style="fill:#fff"/><path d="M349.45,295C260,175.61,194.29,175,194.29,175l15.91-19.89-35.8,13.27,15.25-26.53L122,161l35.77-53c-1.8,1.54-61.09,52.28-68.26,49S64.33,171,64.33,171l-1.46,1.46c8.2,11.84,18,31.06,3.45,40.32a6.66,6.66,0,0,0-.59.39c12.82-1,28.3-.49,47,2.26,0,0,31.17,48.4-35.14,118,0,0-21.89,7.31.67,72.29,0,0,2.47-32.88,18.77-64.81,0,0,0,0,0,0,6-11.78,14-23.47,24.31-33.28,38.45-36.49,35.8-62.33,35.8-62.33s37.13-45.1,64.32,31.16a97.76,97.76,0,0,0,6.64,18.17v0c4.75,9.68,12.1,19.91,22.54,21.59,0,0-35.14-49.07-11.94-55.69s62.33,80.23,62.33,80.23,36.67-11.53,50-43.59C350.52,296.42,350,295.69,349.45,295ZM104.18,183.77a18.45,18.45,0,0,1-6.76,1.72c-8.68.6-14.31-9.6-8.37-16a6.72,6.72,0,0,1,7.09-2C106.81,170.39,113.22,179.47,104.18,183.77Z" style="fill:#ccb29e"/><path d="M78.89,410.59,77.31,406C63.8,367.12,66.1,348.52,70.4,339.78c2.52-5.12,5.7-6.8,6.62-7.2,33.84-35.6,41.52-65.4,42-84.15.48-18.3-5.64-29.9-6.9-32.1-17.37-2.53-32.95-3.26-46.31-2.19l-3.65.3,3-2.11c.21-.15.43-.3.64-.43a14.19,14.19,0,0,0,6.66-9.33c1.87-9.3-4.63-21.21-10.41-29.56l-.48-.69,2-2c1.9-1.83,18.63-17.63,26.33-14.13,4.63,2.1,42.08-27.31,67.18-48.88l5.64-4.84-38.38,56.89,67.36-19.15-15.1,26.27,36.58-13.56-17,21.21c5.15.51,20.12,3,42.52,15.24,25.27,13.82,65.12,43.25,111.46,105.05.55.73,1.08,1.46,1.6,2.19l.31.45-.21.51c-13.33,32.12-50.23,44-50.6,44.16l-.85.27-.36-.81c-.39-.86-39-86-61.15-79.68a8.92,8.92,0,0,0-6.5,5.79c-5.06,14.52,18.74,48,19,48.35l1.4,1.95-2.37-.38c-8.94-1.43-16.77-8.88-23.28-22.13l-.1-.23a100.07,100.07,0,0,1-6.6-18.11c-9.43-26.43-21-41-34.36-43.36-14.23-2.5-26.1,10.14-28,12.25.19,3.69,0,28.45-36.14,62.71a121.37,121.37,0,0,0-24,32.81v.17l-.18.19c-16,31.35-18.59,64-18.62,64.31Zm-.58-198.93a238.71,238.71,0,0,1,34.57,2.76l.45.06.24.39c.33.5,8,12.59,7.46,33.46-.46,19.16-8.24,49.59-42.71,85.78l-.17.18-.24.08c-.19.07-19.63,7.7-.15,66.75C79.07,391,83.43,365.44,96,340.66v-.17l.19-.19a123.47,123.47,0,0,1,24.45-33.45c37.66-35.73,35.52-61.25,35.5-61.5l0-.42.26-.32c.54-.66,13.52-16.15,30.1-13.25,14.15,2.48,26.23,17.52,35.93,44.72l0,.1a98.27,98.27,0,0,0,6.57,18l.1.22c5.56,11.24,12,18,19.24,20.26-5.31-7.82-22.44-34.61-17.76-48a10.91,10.91,0,0,1,7.84-7c22.8-6.52,58.82,70.49,63.14,79.95,5.48-1.95,36.3-14,48.31-42.23-.4-.56-.81-1.12-1.24-1.68h0c-46-61.4-85.58-90.66-110.63-104.39C210.89,176.32,194.44,176,194.28,176l-2.05,0,14.94-18.67-35,13,15.4-26.8-67.9,19.3,33.24-49.26c-6,5-16.16,13.48-26.61,21.65C94.17,160.25,90.5,158.59,89.12,158,83.64,155.48,69.87,167,65,171.7l-.86.86C70,181.19,76.38,193.24,74.42,203a15.65,15.65,0,0,1-5.28,8.95C72.1,211.75,75.16,211.66,78.31,211.66ZM96.7,186.51a11.12,11.12,0,0,1-10.07-6.38,10,10,0,0,1,1.69-11.3,7.72,7.72,0,0,1,8.07-2.23c7.15,1.89,12.64,6.57,13.07,11.13.15,1.66-.27,4.77-4.84,6.94a19.22,19.22,0,0,1-7.13,1.82ZM94,168.28a5.64,5.64,0,0,0-4.24,1.92,7.9,7.9,0,0,0-1.33,9.07,9.12,9.12,0,0,0,8.91,5.22,17.34,17.34,0,0,0,6.4-1.62h0c1.83-.87,4-2.43,3.72-5-.35-3.7-5.33-7.73-11.59-9.39A7.41,7.41,0,0,0,94,168.28Z" style="fill:#fff"/><path d="M223.35,150c.06.52.13,1,.22,1.56.24,1.38,5.46,15.62,9.24,10.82l5.31-6.63,13.26,17.91,6-13.93s0,20.56,6.63,24.54c0,0,8.62-6,7.95-11.28,0,0-2.65,23.21,8,26.53A17.42,17.42,0,0,0,283,188.81a15.57,15.57,0,0,0-.48-3.27c-2-8,9.95,28.51,9.95,28.51l8-11.93s13.92,31.83,11.93,30.5,5.31-23.21,5.31-23.21,17.9,45.09,17.9,43.1S340.9,218,340.9,218l24.53,25.86L356.81,226s28.51,14.59,25.2,10.61-21.22-26.52-21.89-36.47,63.66,45.75,63.66,42.44-12.6-30.51-51.06-57,61,18.57,61,18.57-29.84-39.79-68.3-42.44l13.26-5.3-45.75-16.58,55.7-8s-69-15.25-87.53-2.65l14.59-11.27c-3.35,2.58-20.54.06-25,.26-12.9.61-25.91,1.74-38.53,4.55-8.24,1.83-17.82,3.32-23.64,10A22.2,22.2,0,0,0,223.35,150Z" style="fill:#ad9655"/><path d="M335.48,253.59c-.92,0-1.77-1.79-10-22.17-3.07-7.57-6.12-15.21-7.66-19.07-2.31,7.22-4.36,14.81-4.71,18.1.71,2.45.4,2.71.1,3a1.09,1.09,0,0,1-1.34,0c-.28-.19-.82-.54-.71-2.73-1.58-4.78-6.93-17.5-10.86-26.52l-8.08,12.12-.64-1.95c-2.32-7.1-5.46-16.56-7.61-22.82a18.19,18.19,0,0,1-3.25,8.53l-.42.55-.67-.21c-7.63-2.39-8.94-13.76-9-21.15a29.82,29.82,0,0,1-6.08,5.77l-.53.36-.56-.33c-5.07-3-6.53-14.46-6.95-20.91l-4.9,11.44-13.52-18.26-4.5,5.62a2.93,2.93,0,0,1-3.17,1.27c-4.2-1.07-7.71-11.83-7.83-12.55-.1-.54-.17-1.08-.23-1.62h0a23.26,23.26,0,0,1,5.43-18c5.49-6.31,14.15-8.17,21.8-9.82l2.38-.52c13.88-3.09,28-4.06,38.7-4.56,1.41-.07,4,.12,7,.35,5.77.43,15.42,1.15,17.45-.41h0l1.21,1.59h0l-8.42,6.5c24.66-6.65,78.44,5.08,81,5.65l5.38,1.18L337,140.21l44.46,16.11-11.93,4.77c36.51,5,64.67,42,65,42.42l2.34,3.12L433.31,205c-29.49-13.37-62.35-26.88-68.06-26.88h-.14c.54.74,2.32,2.54,8.18,6.58,38.08,26.26,51.49,53.9,51.49,57.85a1.12,1.12,0,0,1-.63,1c-1.18.59-2.85-.45-21-14.63-13.46-10.49-38.43-30-42-29v.13C361.71,208.9,377,229,382.77,236c.78.92.49,1.56.25,1.86-.55.69-1.46,1.84-24-9.6l10.1,21-27.54-29c-2.11,13-5,31-5,32.33v.83l-.83.22ZM317.61,206.5l1,2.54c5.38,13.57,13.21,33,16.37,40.15,1.15-8.22,4.47-28.57,4.92-31.32l.32-2,21.53,22.69-7.14-14.82,2.65,1.35c8.86,4.53,18.62,9.17,22.78,10.68-4.5-5.6-20.27-25.86-20.92-35.58a1.93,1.93,0,0,1,1-2c3.44-1.84,16.42,7.53,44.23,29.19,7.32,5.7,14.85,11.57,18,13.61-2.36-6.49-15-30.32-50.2-54.63-9.55-6.58-9.77-8.1-9.09-9.3s1.87-3.3,37,11.33c12.12,5.05,24.21,10.4,30.2,13.07-8.09-9.49-33.82-36.65-64.92-38.79l-4.36-.3,14.88-6-47.05-17,54-7.7c-16.78-3.28-66.18-11.78-81.12-1.65l-1.17-1.62,10.86-8.4a105.79,105.79,0,0,1-13.87-.47c-2.92-.22-5.44-.41-6.73-.35-10.64.5-24.62,1.47-38.35,4.53l-2.4.52c-7.7,1.65-15.66,3.37-20.71,9.17a21.21,21.21,0,0,0-5,16.45h0q.08.75.21,1.5c.25,1.46,3.79,10.3,6.35,10.95.18,0,.55.14,1.12-.58l6.12-7.65,13,17.55,7.2-16.8v4.87c0,5.36,1,19.59,5.62,23.31,2.11-1.58,5.88-5,6.8-8.12.07-1.14.15-1.88.17-2l.95-8.31,1,8.3a6.17,6.17,0,0,1-.17,2.3c-.32,5.46-.49,20,6.74,23.14a16.72,16.72,0,0,0,2.52-9.41,14.69,14.69,0,0,0-.45-3.07c-.27-1.1-.51-2.05.49-2.33,1.18-.35,1.18-.35,6.46,15.42,1.71,5.1,3.39,10.22,4.28,12.92L300.63,200l.73,1.68c5.6,12.78,8.7,20.32,10.36,24.8a159.79,159.79,0,0,1,5-17.42Z" style="fill:#fff"/><path d="M66.32,212.76a6.66,6.66,0,0,0-.59.39c-24.44,1.91-39.23,9.4-48.13,17.72C4.14,243.42,4,257.83,4,257.83-10.6,210.09,32.5,184.24,32.5,184.24a118.21,118.21,0,0,1-5.26-33.09l2.59-6c1.35,10.62,9.3,21.23,9.3,21.23L57,139.15l-2,23.22a104.31,104.31,0,0,1,7.83,10.07C71.07,184.28,80.87,203.5,66.32,212.76Z" style="fill:#c49850"/><path d="M4.9,264.24,3,258.12c-7.65-25.05.63-44.05,8.93-55.57A76.69,76.69,0,0,1,31.32,183.8a118.89,118.89,0,0,1-5.08-32.63V151l4.12-9.61.47,3.64c1,8.22,6.23,16.56,8.27,19.58l19.26-29.25L56.07,162a108.85,108.85,0,0,1,7.62,9.85c6,8.67,12.74,21.11,10.73,31.09a16.13,16.13,0,0,1-7.57,10.64h0l-.52.35-.23.16-.27,0c-20.88,1.63-36.87,7.51-47.52,17.46C5.32,243.68,5,257.7,5,257.84Zm23.35-112.9a116.53,116.53,0,0,0,5.21,32.6l.23.75-.67.41a74.43,74.43,0,0,0-19.48,18.68c-10.7,14.88-14,31.35-9.88,49a43.81,43.81,0,0,1,13.26-22.65c11-10.23,27.25-16.27,48.46-18l.41-.26a14.21,14.21,0,0,0,6.67-9.34c1.87-9.3-4.63-21.21-10.41-29.56a103.77,103.77,0,0,0-7.75-10l-.29-.32L55.69,143,39.18,168.08l-.85-1.14c-.3-.4-6.6-8.89-8.88-18.4Z" style="fill:#fff"/></g></g></svg>