<svg xmlns="http://www.w3.org/2000/svg" viewBox="0 0 324.1 324.55"><defs><style>.cls-1{fill:#aaa;}.cls-2{fill:#fff;}</style></defs><g id="Layer_2" data-name="Layer 2"><g id="Layer_1-2" data-name="Layer 1"><path class="cls-1" d="M131.11,1.5,143.2,142.14c1,3.14,3.24,5.73,7,7.78a32.29,32.29,0,0,0,14.5,3.47,31.19,31.19,0,0,0,14.48-3.17c3.76-2,6.1-4.59,7.14-8.1L200.06,1.5ZM45.49,32c-27.29,20.46-44,48-44,78.37,0,21.24,8.15,41.12,22.35,58.15l18.41-53.09c-8.06-12.14-12.59-25.7-12.59-40,0-15.77,6.15-30.39,15.82-43.44Zm232.42,0c9.68,13,15.82,27.67,15.82,43.43a71.33,71.33,0,0,1-11.44,38.21L301,167.44c13.75-16.79,21.64-36.27,21.64-57.06C322.6,80,305.2,52.47,277.91,32Zm-153,45.75c-24.48,23.61-40.25,42.46-50.2,64.59-14.75,32.81-17.86,75-18,153.51a236.45,236.45,0,0,0,85.74,26.74l8.87-104.22A295.16,295.16,0,0,1,87.54,208.3l-7-1.87,2.74-6.69,7-17,2.12-5.17,5.4,1.45a250.53,250.53,0,0,0,130.93,0l5.52-1.49,2.05,5.36,6.48,16.94,2.53,6.6-6.82,1.82A296.33,296.33,0,0,1,177,218.25l9.14,104.67a217.51,217.51,0,0,0,86.34-27c-.14-74.23-4.36-114.79-19.75-148.08-10-21.68-25.31-41.1-47.84-65.08l-6,61.27,0,.54-.15.51c-2,7.47-7.33,13-13.57,16.32a42.8,42.8,0,0,1-20.6,4.66,44,44,0,0,1-20.43-5c-6.14-3.34-11.39-8.71-13.33-16l-.15-.56,0-.55-5.7-66.25Zm-67,31.49L30,189.57l17.82,8.23c2.78-24.12,7.46-43.31,15.26-60.66a155.32,155.32,0,0,1,12.42-22.36l-17.65-5.53Zm209.44,0-18.81,5.89a183.24,183.24,0,0,1,15.8,27.4c7.4,16,12.33,33.29,15.54,54.11l15.35-7.08L267.3,109.25Z"/><path class="cls-2" d="M184.79,324.55l-9.41-107.71,1.55-.08a294.1,294.1,0,0,0,61.14-9.91l5.21-1.39-10-26.08-4.23,1.14a251.47,251.47,0,0,1-131.7,0l-4.12-1.1-10.68,26,5.35,1.43a292.63,292.63,0,0,0,63.48,10L153,217l-9.12,107.31-1.53-.17A237.63,237.63,0,0,1,56,297.18l-.8-.42v-.91c.09-75.74,2.92-120.37,18.09-154.11,9.34-20.76,23.5-39,50.53-65.06l2.26-2.18,6,69.81.12.41c1.65,6.18,6.13,11.53,12.6,15.05a42.51,42.51,0,0,0,19.73,4.83,40.92,40.92,0,0,0,19.88-4.48c6.54-3.48,11.09-9,12.82-15.39l.11-.4,0-.38,6.32-64.59L206,81.77c24.94,26.56,38.88,45.53,48.1,65.48C268.82,179.07,273.84,216.6,274,296v.88l-.77.43a218.24,218.24,0,0,1-86.93,27.14Zm-6.15-104.88,8.87,101.61A215.28,215.28,0,0,0,271,295.08c-.19-78.27-5.15-115.31-19.61-146.57-8.8-19-22-37.22-45.31-62.26l-5.72,58.63-.19.66c-1.94,7.22-7,13.35-14.3,17.23a44.07,44.07,0,0,1-21.33,4.83,45.39,45.39,0,0,1-21.13-5.2c-7.2-3.92-12.19-9.92-14.06-16.9l-.2-.83,0-.55L123.67,81C98.42,105.65,85,123.18,76.07,143c-14.89,33.11-17.71,77.22-17.83,152a234.48,234.48,0,0,0,82.88,26l8.6-101.13a296.25,296.25,0,0,1-62.56-10.06l-8.65-2.31,13-31.61,6.67,1.79a248.35,248.35,0,0,0,130.15,0l6.83-1.84,12.14,31.71-8.44,2.26A297.58,297.58,0,0,1,178.64,219.67ZM49.08,200l-20.93-9.66,28.77-83,21,6.57-1.11,1.66a152.17,152.17,0,0,0-12.3,22.15C56.94,154.49,52.13,173.62,49.32,198ZM31.87,188.78l14.71,6.79c2.88-23.69,7.71-42.5,15.14-59a155.24,155.24,0,0,1,11.44-20.91l-14.36-4.5Zm246.78,10.07-.31-2c-3.2-20.83-8.1-37.89-15.42-53.71A180.31,180.31,0,0,0,247.25,116l-1.16-1.67,22.15-6.94,28.8,83ZM250.87,116a182.79,182.79,0,0,1,14.78,26c7.2,15.58,12.1,32.32,15.35,52.55l12.31-5.68-26.95-77.67ZM24.39,171.53l-1.7-2C7.85,151.67,0,131.23,0,110.38c0-29.75,15.84-58,44.59-79.57l8.23-6.17L46.69,32.9C36.39,46.8,31.17,61.11,31.17,75.45c0,13.66,4.15,26.83,12.34,39.16l.41.61ZM38.8,39.32C15.64,59.38,3,84.31,3,110.38c0,19.34,7,38.34,20.31,55.11L40.6,115.64C32.35,103,28.17,89.48,28.17,75.45,28.17,63.28,31.74,51.16,38.8,39.32ZM300.42,170.46l-19.78-57,.38-.61c7.44-11.84,11.21-24.42,11.21-37.41,0-14.33-5.22-28.64-15.52-42.54l-6.13-8.27,8.23,6.18C308,52.71,324.1,81,324.1,110.38c0,20.38-7.6,40.45-22,58ZM284,113.83l17.54,50.55c12.84-16.51,19.61-35.13,19.61-54,0-25.81-12.89-50.77-36.52-71.1,7.07,11.86,10.65,24,10.65,36.16A72.4,72.4,0,0,1,284,113.83ZM165.11,154.89h-.43a33.76,33.76,0,0,1-15.2-3.65c-4-2.2-6.64-5.12-7.71-8.66l-.06-.31L129.47,0h72.24l-14,142.54c-1.13,3.84-3.71,6.78-7.88,9A32.32,32.32,0,0,1,165.11,154.89Zm-20.43-13c.88,2.74,2.92,5,6.24,6.75a30.48,30.48,0,0,0,13.8,3.29,29.08,29.08,0,0,0,13.75-3c3.42-1.81,5.45-4.06,6.37-7.06L198.4,3H132.74Z"/></g></g></svg>