<svg xmlns="http://www.w3.org/2000/svg" viewBox="0 0 299.85 327.89"><title>Couatl</title><g id="a625980a-7133-4d80-93a6-dd535d744593" data-name="Layer 2"><g id="b111879a-58ea-4783-bbc9-15b302b7c0c8" data-name="Layer 1"><path d="M230.32,212.26s20.08,3.22,26.18.71c0,0-5.94,4.75-15.78,4.31a15.73,15.73,0,0,1-6.27-1.44s3.94,3.59,6.27,3.59c9.33,0,24.74,3.23,26.17,2.15L254.35,223s19.71,5,27.6-1.43,15.78.36,15.78.36-2.51-2.87-9.68.36-21.87,15-48.76,1.79a24.77,24.77,0,0,0,8.24,7.17C240.36,229.65,231.4,230.54,230.32,212.26Z" style="fill:#cb4103"/><path d="M273.26,94.87S284,117.34,283.48,124l-7.66-6.12s10.22,65.89,5.61,47.49c-.51-2.05-9.7-35.75-19.4-47l-.51,8.68s-12.77-32.68-16.85-32.17l-.51,10.21-4.09-5.62,2.55,12.26-5.1-1.53,2,9.7-6.13-2L236,126h-6.13l.51,8.68-6.64-2,.51,8.17-6.13-3.06v11.75l-8.17-9.2v14.3L199.22,150l7.15,7.66-11.24-2.56,7.66,6.13-14.8-2,4.59,6.13-15.32-3.58,8.17,7.15-10.21-3.57,2,7.14-9.19-6.63,1.61,10c-5.32-6.47-11.38-12.35-17.21-18.39-5.59-5.79-10.94-11.81-16.1-18-4.93-8.82-8.05-17.43-3.28-19.82,10.73-5.36,10,6.13,26.81-5.36s42.64-43.66,5.62-88.85c0,0-4.09-17.36,15.83-18.38l-2.49,5.49c1-1.46,12.82-16.31,55.08-8,0,0-21.95,2.05-13.78,5.62,5.94,2.6,21.36,4.39,29.31,5.18A14.39,14.39,0,0,1,258,19.2c5.28,5,14.28,13.73,13.19,13.37-1.53-.51-13.28-2.55-13.28-2.55l14.3,9.19L262,38.7l16.34,9.19,9.19,12.76L274.28,53l4.09,7.66-8.68-4.59s7.15,10.21,7.15,14.81l-5.61-4.59c.21.45,7.15,14.87,7.65,19.4l-9.19-6.13s7.66,10.72,9.19,18.89Z" style="fill:#cb4103"/><path d="M23.56,190.36l7.15,12.25-1.53,6.13L21.52,187.8l-1,12.26-5.62-10.21-3.06,10.21c-6.52-13-2.21-29-2.06-29.6L7.5,173.23c3.13-4.53,6.41-10.47,7.25-16.83l-2.42,24.25L19,166.87l-.51,19.4,4.6-9.7Z" style="fill:#cb4103"/><path d="M72.07,261.34l-12.91-20A50.65,50.65,0,0,1,64.94,232C68.22,247.05,72.07,261.34,72.07,261.34Z" style="fill:#cb4103"/><path d="M134.79,176.4c-2.13-.29-4.25-.55-6.37-.76A97.23,97.23,0,0,0,51,203.43a90.22,90.22,0,0,0-12.66,16l-7.59-16.83V184.74L37.35,199l.51-24s3.57,14.81,8.17,18.89c0,0-4.09-18.38-1.53-20.94,0,0,7.66,12.26,12.76,12.26,0,0-9.7-20.43-5.61-26,0,0,5.1,5.61,7.66,5.61L49.09,136.23s7.66,4.59,8.68,9.7c.27,1.36.47-2.12.61-8h0a4.59,4.59,0,0,0,3.21.39h0A50.71,50.71,0,0,0,83.31,135c6.58-2.56,17.54,3.62,27.19,10.78C118.35,155,126.91,165.61,134.79,176.4Z" style="fill:#cb4103"/><path d="M165.51,25.42s.52-13.28,13.79,6.64c0,0,.51,9.19,4.09,12.25l1-4.59s5.62,14.8,11.74,17.36l-.51-7.66s5.11,11.74,10.73,13.79S219.13,79,219.13,79l-2-14.3s14.3,17.36,15.32,22.47l1-8.69,10.72,26.56s2-17.36-1.53-27.07c0,0,14.3,17.37,14.81,22s-1-16.34-8.17-26.55,15.83,15.32,15.83,15.32L253.34,68.31s13.79,5.11,16.35,11.24-1.54-15.83-13.28-23.49h13.28c-1,0-12.77-20.43-31.15-17.88l7.15-2.55L237,30h20.94S216.07-2.16,178.79,12.65L181.34,7S160.92,7,165.51,25.42Z" style="fill:#dfd3b0"/><path d="M231.35,186.57c-2.69,5.11-22.79,7.16-27.39,5.33-3-1.21-8.3,0-11.53,1h0c-1.66.52-2.78,1-2.78,1l-1.55-2.54.35-.1,12.95-3.59s8.12-3.8,12-.84S231.35,186.57,231.35,186.57Z" style="fill:#e66320"/><path d="M227.48,221.91s-13.43,8.61-30.49-12.48c-3.38-4.17-5.68-7.13-7.19-9.2h0c-6.15-8.38.54-2.06.54-2.06s.88,1.2,2.07,2.68c1.67,2.07,4,4.68,5.27,5.23,2.25.93,10.11,3.49,15.2,10.46S227.48,221.91,227.48,221.91Z" style="fill:#e66320"/><path d="M192.4,200.85l2.1.53c11,2.84,26,5.57,35.88,11.65a268.43,268.43,0,0,0-37.95-20.09h0l-14.88-5.86a81.66,81.66,0,0,0-7.86-11.24c-5.32-6.47-11.38-12.35-17.21-18.39-5.59-5.79-10.94-11.81-16.1-18-4.93-8.82-8.05-17.43-3.28-19.82,10.73-5.36,10,6.13,26.81-5.36s42.64-43.66,5.62-88.85c11.74,16.34,13.79,47,13.79,47-7.66,45.45-39.32,38.3-46.47,37.28-6-.87-12,5.51-13.78,7.55-1.46-2-2.9-4-4.33-6-1.88-2.64-3.83-5.3-5.68-8-3.6-5.3-6.86-10.86-8.65-17-4.18-14.33,6.49-42.92,24.27-42.43,18.38.51,15.83-20.93,15.83-20.93l13.78,19.4s-7.66-52.59-66.89-13.79L92,29S64.41,56.06,69.52,67.8l6.63-5.6c-.23.55-10.14,23.61-4.08,34.2l3.58-5.11s-.52,22,4.59,28.09l2.49-4.48C82,116.56,73.32,134.27,58.38,138h0a31.19,31.19,0,0,0,3.21.39h0A50.71,50.71,0,0,0,83.31,135c6.58-2.56,17.54,3.62,27.19,10.78,7.85,9.28,16.41,19.88,24.29,30.67-2.13-.29-4.25-.55-6.37-.76A97.23,97.23,0,0,0,51,203.43a90.22,90.22,0,0,0-12.66,16C26.87,237.72,21,260.88,27.47,281.05c16,49.76,85.46,54.35,124.84,32.36,18.83-10.51,35.32-28.73,40.48-50.05,5.3-21.85-.1-44.37-9.31-64.51Zm-109.56-86,0,0h0Zm54.59,175.61s-23,5.11-28.08,0l5.1,5.11S91,293,86.88,287.38V293c0-.6-9.16-5.17-9.95-5.7-6.53-4.41-12.75-9.83-16.91-16.6-6.07-9.88-5.24-20.16-.86-29.4A50.65,50.65,0,0,1,64.94,232a63.3,63.3,0,0,1,6-6.74c21.65-21.07,48.66-29.54,76.7-29.93,9,14.48,15.28,28.07,15.28,37.91C163,268.48,137.43,290.44,137.43,290.44Z" style="fill:#0f2f38"/><path d="M57.26,185.25C52.16,185.25,44.5,173,44.5,173,41.94,175.55,46,193.93,46,193.93c-4.6-4.08-8.17-18.89-8.17-18.89l-.51,24-6.64-14.3v17.87l-7.15-12.25-.51-13.79-4.6,9.7.51-19.4-6.63,13.78,2.42-24.25c-.84,6.36-4.12,12.3-7.25,16.83l-2.32,2.83c-9.7-27.07,6.13-62.81,6.13-62.81l-6.13,5.62C1.6,100,33.26,59.63,33.26,59.63L22,63.72C51.13,34.1,50.11,55,50.11,55c-6.63,8.68,1,66.38,1,66.38s1.71,13.66,7.25,16.55c-.14,5.84-.34,9.32-.61,8-1-5.11-8.68-9.7-8.68-9.7l10.22,28.59c-2.56,0-7.66-5.61-7.66-5.61C47.56,164.82,57.26,185.25,57.26,185.25Z" style="fill:#dfd3b0"/><path d="M127.68,61.71a7.67,7.67,0,0,0,4.59,5.71c2,.82,4.12,2.12,4.65,4,1,3.57-.53,8.17,7.66,8.17,4.08,0,5.62-1,7.15-6.13,1-3.36,3.41-5.4,5.65-7.46a7.5,7.5,0,0,0,2.38-4.8A103.65,103.65,0,0,0,157.81,30c-2.39-10.94-4-15.83-4-15.83l.51,28.09-13.79-19.4s-1,14.29-4.59,16.34,2.55-13.28-2.56-17.88l-2.55-4.59s-1.62,7.49.43,11.57-2.43,14.47-2.43,14.47S125.41,49,127.68,61.71Z" style="fill:#51908a"/><path d="M297.71,220.68c-2.17-1.53-9.31-5.66-16.39.13-4.66,3.81-14,3.33-20.27,2.44l4-.46a4,4,0,0,0,2.41-.41l2.95-2.21-5.49.63c-1.89-.09-5.21-.52-8.23-.91a138.57,138.57,0,0,0-16-1.46,2.78,2.78,0,0,1-1-.22l.93.07c10.09.44,16.19-4.32,16.44-4.52l5.47-4.37-6.47,2.66c-5.77,2.37-25.44-.75-25.64-.78l-1.23-.2v.08a270.08,270.08,0,0,0-33.85-18c3.64-.87,6.5-1,8.18-.33,5.06,2,25.61,0,28.64-5.8l1-1.92-2.13.48c-3.78.87-14.22,2.65-17.11.44-4.16-3.15-12,.27-13,.7l-12.71,3.52-10.1-4a82.68,82.68,0,0,0-7.61-10.86l-1.18-7.35L179,175l-2.3-8.06L190,171.56l-9-7.92,14.09,3.3-4.8-6.42,16,2.21-7.08-5.67,10.16,2.32-6.13-6.57,7.75,3.31V142.94l8.17,9.2V139.37l6.23,3.12-.52-8.46,6.63,2.05-.53-9.06h6.43L235,119.41l5.92,2-2-9.76,5.1,1.53L242,103.8l1.28,1.75,1.42,3.53.16-1.35.16.23.15-2.86c.07-.66.44-4.09.55-8.54,3,3.3,9.71,17.63,14.88,30.84l1.66,4.25.62-10.57c8.28,11.77,16.27,39.21,17.59,44.5.74,3,1.05,4.22,2.25,4s1.64-.33-2.13-26.57c-1.32-9.18-2.72-18.43-3.38-22.76l7.13,5.7.14-1.88c.42-5.37-5.93-20-8.87-26.51l4.68,3-.42-2.27c-1-5.17-4.25-11.23-6.66-15.16l6.91,4.61-.24-2.13c-.35-3.15-3.49-10.5-5.88-15.74L277.84,73V70.87c0-3.19-3-8.63-5.19-12.12l8.14,4.31-4-7.46,14.28,8.24-12-16.72-12.83-7.21,9.71.48-13.25-8.51c3.77.68,7.49,1.39,8.22,1.64l.85.25.41-.69c.53-.89.68-1.13-13.44-14.61a15.56,15.56,0,0,0-9.15-4.19c-8.39-.83-23.31-2.6-29-5.1a4.06,4.06,0,0,1-1.14-.65c1.09-1,7.57-2.4,14.61-3.06l6.91-.64L234.13,3.5c-31.09-6.08-46,.28-52.27,4.84L182.94,6,181.35,6h0c-.4,0-10.07.07-14.89,6.24-2.64,3.38-3.28,7.88-1.91,13.38l.05.17v0h0l1.64,6.59.15-3.88C176,44.42,178.15,70.39,178.3,72.35c-7.18,42.32-35.05,38-44.21,36.51l-1.11-.17c-5.75-.83-11.36,4.29-13.85,7q-1.8-2.48-3.59-5L114,108.54c-1.38-1.92-2.8-3.89-4.15-5.88-3-4.38-6.62-10.23-8.51-16.71-2.62-9,.9-23.56,7.84-32.55,3.11-4,8.32-8.8,15.44-8.6a22.87,22.87,0,0,0,2.36-.08c-.87,3-1.83,8.62-.3,17.16a8.62,8.62,0,0,0,5.18,6.46c2.29,1,3.74,2.14,4.08,3.31a15.14,15.14,0,0,1,.38,2.16c.39,3,.87,6.74,8.24,6.74,4.7,0,6.51-1.54,8.11-6.84.86-2.88,2.84-4.7,4.94-6.62l.42-.39a8.49,8.49,0,0,0,2.7-5.45,104.42,104.42,0,0,0-2-31.45c-2.38-10.87-4-15.73-4.07-15.94l-2.07-6.1.49,26.6c-2.35-6.24-7.07-14.58-16.22-18.71-12.5-5.62-29.35-1.59-50.08,12l-2.33,1.53,5.31.58C84.06,35.68,63.93,57.46,68.6,68.2l.54,1.23,4.64-3.93c-2.65,7.28-7.4,23-2.58,31.4L72,98.26l2.66-3.79c.06,6.2.66,19.61,4.41,25-3.62,5.77-10.65,14.78-20.52,17.42-4-2.49-6-12-6.41-15.59C50,105.35,45.67,62.5,50.9,55.65l.19-.25,0-.31c0-.25.24-6-3.78-7.76-5-2.18-13.5,3-26,15.69l-3.09,3.15,12.17-4.44c-7.08,9.48-29.31,40.86-26.2,57.32l.34,1.77L8.74,117c-3.85,10.24-12.4,37.41-4.5,59.44l.59,1.66L8,174.23c-1,5.84-1.78,16.79,3,26.28l1.13,2.25,3.1-10.34,6.07,11,.92-11,7.22,19.74L31,205.65l6.19,13.72c-12.6,20.39-16.59,43.53-10.66,62,5.8,18,19,31.57,38.2,39.13A100,100,0,0,0,101,326.89c18.26,0,36.93-4.3,51.8-12.61,20.78-11.59,36.09-30.54,41-50.69,4.58-18.87,1.7-40.17-8.55-63.33l4,.91,0,.06c1.6,2.17,3.93,5.14,6.92,8.83,9.63,11.91,18.16,14.64,24,14.64a15.25,15.25,0,0,0,7.85-1.95l2.73-1.76c2.73,8.74,8.62,9.8,13.95,10.74.88.16,1.76.31,2.61.51l8,1.8L248,230.37a21,21,0,0,1-4.79-3.41c21.39,8.87,34.8,1.74,42.21-2.2,1.17-.62,2.18-1.15,3.06-1.55,5-2.23,7.39-1.32,8.2-.84a4,4,0,0,1,.42.33l1.4-1.42A3.45,3.45,0,0,0,297.71,220.68ZM85.88,284.3V291c-1.17-.69-3-1.7-5.95-3.24-1.11-.59-2.25-1.19-2.44-1.32-7.6-5.13-13-10.46-16.62-16.3-5-8.11-5.51-17.33-1.55-26.77L74.7,267.28,73,261.08c0-.14-3.8-14.14-7-28.82A62.67,62.67,0,0,1,71.67,226c19.66-19.12,45-29.09,75.46-29.63C157,212.23,162,224.65,162,233.25c0,32.78-22.72,54.2-25,56.27-6.44,1.4-23.09,4-26.91.21l-1.41,1.41,3,3.05c-7.65-1.05-21.25-3.63-24-7.4Zm141.43-63.38c-.08,0-9,1.4-13.64-5-4.79-6.56-11.86-9.32-14.88-10.5l-.74-.29a10.88,10.88,0,0,1-2.87-2.58l5.64,1.38c9.73,2.33,20.74,5,28.6,9.67a35.29,35.29,0,0,0,1.15,6.75Z" style="fill:none;stroke:#fff;stroke-miterlimit:10;stroke-width:2px"/></g></g></svg>