<svg xmlns="http://www.w3.org/2000/svg" viewBox="0 0 396.4 258.8"><title>Crawling-Claw</title><g id="a7a86bc2-f3dc-4145-87a4-d5430e5ae87a" data-name="Layer 2"><g id="b452cdce-f008-4a5f-8007-e92cdbd22e42" data-name="Layer 1"><path d="M322,55c.15-4.1.52-8,1-11.6.13-.9.25-1.78.39-2.64.2-1.29.42-2.54.64-3.72s.45-2.33.68-3.41c.14-.66.29-1.28.42-1.88.06-.24.11-.46.16-.69.12-.45.22-.89.32-1.3.06-.21.11-.42.16-.62s.17-.67.25-1c.71-2.7,1.33-4.67,1.68-5.71a2.49,2.49,0,0,1,.1-.32l.12-.35a1.3,1.3,0,0,0,.05-.14v0s0,0,0,.06l.09.26a1.71,1.71,0,0,1,.07.18c0,.09.08.21.14.34s.15.35.24.54a2.1,2.1,0,0,0,.15.3l.15.31.16.32c.07.11.12.21.18.31l.19.32a.05.05,0,0,1,0,0l.28.39c.1.14.21.28.31.4.73.81,1.56,1.23,2.43.46a2.11,2.11,0,0,1,.66-.34l.47-.13a43.89,43.89,0,0,1,8.05-.71h.89c1.31,0,2.67,0,4,0h1.15c.19,0,.38,0,.57,0h1.12l1.46,0h.7l.86,0,3.77.1.49,0,.46,0,.3,0h.94l.31,0a.48.48,0,0,1,.12,0h.15S334.4,52.33,322,55Z" style="fill:#5e2424"/><path d="M320.94,56.2l0-1.28c.14-3.78.48-7.72,1-11.7.13-.91.25-1.8.39-2.66.21-1.3.43-2.56.65-3.75s.45-2.35.69-3.44c.1-.48.2-1,.31-1.41l.14-.63c0-.18.09-.35.13-.53l.32-1.33c.07-.26.12-.43.16-.6l.25-1c.7-2.63,1.31-4.59,1.7-5.77,0-.12.08-.26.12-.37l0-.06a1.54,1.54,0,0,1,.09-.24h0l0-.3,1-.9.83.86.08.26a2,2,0,0,1,.1.27,1.26,1.26,0,0,1,.07.16l0,.08a1.11,1.11,0,0,0,.07.16l.11.25a2.14,2.14,0,0,0,.12.28l.45.9a.92.92,0,0,1,.07.13l.07.11.15.26.12.18.16.23.27.35a1.6,1.6,0,0,0,.67.52c.06,0,.14,0,.35-.15a3,3,0,0,1,1-.54l.49-.14a42.13,42.13,0,0,1,8.32-.75h.91c1.31,0,2.68,0,4,0h1.16a5.55,5.55,0,0,1,.58,0h1.11l2.27,0,.74,0,1.19,0,2.6.08h.93l.35,0h.51l.74,0h.2l2,.14-1.29,1.53c-1,1.13-24.83,27.73-37.43,30.39Zm7.17-31.86c-.33,1.08-.72,2.42-1.14,4-.08.31-.17.64-.25,1l-.14.56-.34,1.36c0,.17-.08.36-.13.56l-.13.59c-.1.45-.21.91-.31,1.39-.23,1.07-.46,2.2-.67,3.38s-.44,2.42-.64,3.7c-.14.85-.26,1.73-.39,2.62-.46,3.44-.77,6.85-.93,10.14,10.51-3.41,28.46-22.23,33.65-27.84h-.09a3.21,3.21,0,0,1-.52,0l-2.59-.07-1.17,0-.78,0-2.24,0h-1.1c-.19,0-.35,0-.52,0h-1.2c-1.34,0-2.69,0-4,0h-.9a42.47,42.47,0,0,0-7.81.67l-.4.12a1.26,1.26,0,0,0-.32.14,2.27,2.27,0,0,1-2.19.58A3.56,3.56,0,0,1,329.22,26a4.88,4.88,0,0,1-.38-.49,4.07,4.07,0,0,1-.28-.39l-.11-.18a2.75,2.75,0,0,1-.17-.29l-.07-.12ZM327,21.89s0,0,0,.06Z" style="fill:#fff"/><path d="M386.67,37.14c-6.69,1-21.12,8.51-22.12,9.4-1.15,1-16.86,15.62-33.28,24a31.33,31.33,0,0,0-7.06,4.94A91.56,91.56,0,0,1,322,51c12.42-2.62,36.9-30.07,36.9-30.07C366.65,8.56,374.4,3.4,378.1,1.47a4.22,4.22,0,0,1,4.17.18l.68.42a4.24,4.24,0,0,1,2,3.5l.14,4.32a4.16,4.16,0,0,0,.86,2.44l2,2.57a2.39,2.39,0,0,0,.21.26,4.22,4.22,0,0,0,3.1,1.43,4.26,4.26,0,0,1,3.86,5.88l-5,12.08A4.33,4.33,0,0,1,386.67,37.14Z" style="fill:#9c875e"/><path d="M323.64,77.42l-.4-1.67A92.19,92.19,0,0,1,321,50.92l0-.78.77-.17c11.68-2.47,35-28.26,36.29-29.7C365.88,8,373.68,2.64,377.64.58a5.2,5.2,0,0,1,5.15.22l.69.42A5.26,5.26,0,0,1,386,5.54l.14,4.32a3.13,3.13,0,0,0,.65,1.86l1.95,2.58.16.19a3.26,3.26,0,0,0,2.38,1.1A5.25,5.25,0,0,1,396,22.85l-5,12.08a5.33,5.33,0,0,1-4.2,3.2h0c-6.54.93-20.69,8.4-21.6,9.16l-.31.28c-5.28,4.77-19.07,16.66-33.18,23.89a30.17,30.17,0,0,0-6.83,4.79ZM323,51.74a90.65,90.65,0,0,0,1.85,21.91,32.51,32.51,0,0,1,6-4c13.89-7.12,27.53-18.87,32.75-23.59l.33-.3c1.16-1,15.72-8.66,22.64-9.64a3.33,3.33,0,0,0,2.63-2l5-12.08a3.26,3.26,0,0,0-2.95-4.5,5.26,5.26,0,0,1-3.83-1.77,4.15,4.15,0,0,1-.27-.32l-1.94-2.57a5.15,5.15,0,0,1-1.06-3L384,5.6a3.24,3.24,0,0,0-1.54-2.68l-.68-.42a3.2,3.2,0,0,0-3.18-.14c-3.79,2-11.27,7.07-18.84,19.05l-.1.13C358.63,22.65,335.73,48.22,323,51.74Z" style="fill:#fff"/><path d="M308.58,22.65c-5.58,2.78-11.36,7-14.1,11.76,0,0-22.31,4.07-25.43,13.66,0,0-14.82-6-17.76.72s-18.53,19.15-31.53,12.93c0,0-26-.13-32.5,4.91s-6-2.18-22-.25S151.62,58,129.94,63.52c0,0-22.41-12.21-40.44-7.15,0,0-15.47-7.44-23.71-2.88s-22-1-32.75,9.24l8.27.85S63.92,72.18,83,73c-.8.34-26.48,11-36,10.11s-14,4.22-14,4.22S8.86,91.64,3.88,102.2c0,0,24.22,11.2,29.39,10.1-.87.44-37.27,18.71-31.69,22,1.4.8,19.76,2.27,19.76,2.27s10.94,4.64,15,3.08,42-7.22,47.93-9c4.2-1.29,29.63,0,44,.84a4.25,4.25,0,0,1,2.66,7.35c-6.8,6.37-16.4,15.26-19.24,17.34,0,0-9.3,4.14-10.71,9.49,0,0-33.79,20.38-37.4,26.31,0,0-14.73,10.32-16,12.78,0,0-18.86,16.43-16.69,18.88.33.38,14.19,10.63,34.14-2.27,0,0,44.94-19.35,48.47-23.84,0,0,9.58-3,12.39-7.57,0,0,63.68-42.09,88.78-14.52,0,0,1,14.17-17,35.51s-21.16,26.93-19.86,35.33l-1,11.15s24-8.31,34.34-23.61c0,0,16.79-2.59,23.77-16.28s11.51-34.76,11.51-34.76a33.42,33.42,0,0,0,8.66-12.15l14-33.86s22.67-16,27.05-22.6S315.41,95,315.41,95,317,81.76,327,72.49a91.56,91.56,0,0,1-2.23-24.56c.15-4.1.52-8,1-11.6.13-.9.25-1.78.39-2.64.2-1.29.42-2.54.64-3.72.17-.9.91-5.46,1.37-8.15a2,2,0,0,0-1.79-2.3C322.21,19.17,313.31,20.3,308.58,22.65Z" style="fill:#66725f"/><path d="M175.68,258.8l1.17-12.57c-1.3-8.61,1.94-14.39,20.09-36,16-19,16.75-32.24,16.76-34.47-23.78-25.38-83.38,12.46-87.07,14.85-2.85,4.29-10.94,7.17-12.54,7.71-4.74,4.89-43.68,21.75-48.57,23.85-20.78,13.4-35.25,2.19-35.36,2.05a1.72,1.72,0,0,1-.42-1.33c.25-4,14-16.16,17.08-18.86,1.74-2.72,13.25-10.9,16-12.84,4-6,33.61-24,37.3-26.26,1.74-5.29,10-9.2,11-9.69,3-2.28,13.23-11.73,19.06-17.2a3.25,3.25,0,0,0-2-5.63c-24.77-1.47-40.68-1.79-43.63-.88s-13.24,2.67-24.13,4.53c-10.69,1.83-21.75,3.72-23.73,4.48-4.18,1.6-13.91-2.32-15.61-3-5.68-.45-18.6-1.57-20-2.39A2,2,0,0,1,0,133.28c.13-4.43,18.84-14.69,29.66-20.26-8.26-1.69-24.1-8.94-26.2-9.91l-.91-.43.43-.91C7.85,91.44,29.41,87,32.49,86.4c1.1-1.14,5.69-5.17,14.61-4.29,7.14.69,23.82-5.41,31.54-8.43C61.38,72,42.78,65.2,41.08,64.56L30.78,63.5,32.35,62C39.11,55.58,47,55.14,53.9,54.76c4.29-.23,8.35-.45,11.4-2.15,8-4.42,21.87,1.59,24.29,2.7,17.11-4.59,37.46,5.57,40.48,7.15,12.3-3.1,17-1.08,21.6.87a22.46,22.46,0,0,0,13.42,2.06c8.3-1,12.41.42,15.12,1.35s3.66,1.27,6.44-.9c6.65-5.19,32-5.11,33.11-5.12H220l.2.1c5.49,2.62,11.12,1.5,14.89.1,7.23-2.69,13.57-8.6,15.29-12.53,2.86-6.51,14.65-2.85,18.11-1.61,4-8.69,22.18-12.64,25.37-13.27,3.69-6,11.18-10.21,14.29-11.75h0c5-2.5,14.22-3.59,18.35-3.23a3,3,0,0,1,2.11,1.14,2.93,2.93,0,0,1,.57,2.32c-.22,1.31-.51,3.08-.77,4.64s-.51,3.06-.6,3.52c-.22,1.18-.43,2.42-.64,3.7-.13.84-.25,1.71-.38,2.59-.52,3.94-.85,7.81-1,11.53A90.58,90.58,0,0,0,328,72.26l.14.57-.43.4C318,82.14,316.42,95,316.41,95.11l-.05.4-.3.25c-.15.13-14.8,12.47-19.06,18.88s-24.5,20.88-27.07,22.7L256,170.93a34,34,0,0,1-8.69,12.3c-.6,2.72-5,22-11.52,34.69-6.58,12.9-21.3,16.22-24.08,16.74-10.51,15.17-33.61,23.29-34.6,23.64Zm14.81-93.88c9.63,0,18.47,2.66,24.94,9.76l.23.26,0,.35c0,.59.77,14.82-17.22,36.22-17.74,21.13-20.86,26.62-19.63,34.54l0,.12v.12l-.89,9.56c5.34-2.08,23.8-10,32.37-22.67l.24-.36.43-.07c.17,0,16.38-2.69,23-15.74,6.84-13.41,11.37-34.31,11.42-34.52l.07-.32.24-.21a32.18,32.18,0,0,0,8.41-11.79L268.3,136l.24-.17c.23-.15,22.57-16,26.8-22.34,4.12-6.21,17-17.2,19.13-19,.35-2.31,2.46-13.75,11.44-22.32a92.83,92.83,0,0,1-2.12-24.27c.14-3.77.48-7.71,1-11.69.13-.93.25-1.81.39-2.67.21-1.3.43-2.55.65-3.74.08-.46.31-1.86.58-3.49s.56-3.33.78-4.65a1,1,0,0,0-.18-.75,1,1,0,0,0-.7-.38c-3.81-.32-12.65.72-17.29,3-6.27,3.12-11.38,7.37-13.68,11.36l-.23.4-.46.08c-.22,0-21.76,4.08-24.66,13l-.33,1-1-.4c-3.88-1.55-14.39-4.55-16.48.2-1.93,4.4-8.6,10.7-16.43,13.61-5.83,2.17-11.44,2.14-16.23-.08-2.52,0-25.86.17-31.66,4.7-3.63,2.83-5.6,2.15-8.32,1.21s-6.39-2.2-14.23-1.26a24.35,24.35,0,0,1-14.44-2.2c-4.51-1.93-8.78-3.74-20.7-.68l-.39.1-.34-.19c-.22-.12-22.27-12-39.69-7.06l-.37.1-.34-.17c-.15-.07-15.1-7.17-22.79-2.91-3.45,1.92-7.73,2.15-12.26,2.4-6,.33-12.7.7-18.55,5.21l6.2.68c.23.08,22.68,8.55,41.42,9.34l4.5.19-4.15,1.73C80.7,75.05,56.5,85,46.91,84.1c-9-.88-13,3.67-13.14,3.86l-.24.28-.35.06c-.23,0-22.29,4.1-27.91,13.43,9.65,4.41,24.35,10.32,27.8,9.59l7.53-1.59-6.88,3.46c-18,9.08-31.91,17.9-31.72,20.15l.08,0c1.12.5,12,1.55,19.34,2.14h.16l.15.07c2.94,1.24,11.23,4.23,14.26,3.07,2.17-.84,12.83-2.66,24.11-4.59,10.35-1.77,21.06-3.6,23.88-4.47,4.13-1.27,26.39-.27,44.34.79a5.25,5.25,0,0,1,3.28,9.09c-5.92,5.55-16.31,15.19-19.33,17.41l-.19.11c-.08,0-8.87,4-10.14,8.82l-.1.39-.35.21c-9.34,5.64-34.21,21.29-37.07,26l-.11.18-.17.12c-5.62,3.93-14.83,10.78-15.64,12.41l-.09.17-.15.13c-7.95,6.92-16.41,15.49-16.53,17.52,1.1.81,14,9.68,32.77-2.5l.15-.08c18-7.74,45.61-20.39,48.08-23.54l.19-.24.3-.09c.09,0,9.26-3,11.83-7.14l.12-.19.18-.12C127.31,187.76,162.29,164.92,190.49,164.92Z" style="fill:#fff"/></g></g></svg>