<svg xmlns="http://www.w3.org/2000/svg" viewBox="0 0 438.4 306.3"><title>Cultist_1</title><g id="eba927d6-33c8-4a11-9e56-ad8815817ddd" data-name="Layer 2"><g id="a8fb3b7c-f408-4e91-b327-f6eecc9b33ba" data-name="Layer 1"><path d="M239.23,217.18l-20,21.45-20.05-21.45-37.75,16.07,2.3,41.57a20.86,20.86,0,0,0,7.14,14.54l12.7,10.93a20.91,20.91,0,0,0,13.51,5h44.33a20.79,20.79,0,0,0,13.47-5l12.7-10.93a20.6,20.6,0,0,0,7.15-14.54L277,233.25Zm4.52,52a1,1,0,0,1-.29.17c-7.92.33-15.85.24-23.78.41-7.93-.17-15.86-.08-23.79-.41a.41.41,0,0,1-.2-.7l.2-.12a33.63,33.63,0,0,1,11.92-5.47,47.11,47.11,0,0,1,23.74,0,33.51,33.51,0,0,1,11.91,5.47l.21.12A.44.44,0,0,1,243.75,269.19Z" style="fill:#998076"/><path d="M241.37,306.3H197a21.92,21.92,0,0,1-14.16-5.25l-12.7-10.93a21.75,21.75,0,0,1-7.49-15.24l-2.34-42.28,39-16.61,19.8,21.17L239,216l39.09,16.61-2.39,42.28a21.46,21.46,0,0,1-7.49,15.24L255.5,301.05A21.74,21.74,0,0,1,241.37,306.3Zm-79-72.41,2.26,40.87a19.85,19.85,0,0,0,6.81,13.85l12.69,10.92A19.93,19.93,0,0,0,197,304.3h44.33a19.7,19.7,0,0,0,12.82-4.77l12.7-10.93a19.49,19.49,0,0,0,6.8-13.83l2.3-40.88-36.5-15.51-20.3,21.71-20.3-21.71Zm57.28,36.88c-3-.06-6-.09-8.95-.12-4.88,0-9.93-.09-14.9-.29l-.15,0A1.42,1.42,0,0,1,195,268l.19-.15.21-.12a34,34,0,0,1,12.18-5.58,48.09,48.09,0,0,1,24.26,0,34.1,34.1,0,0,1,12.24,5.62l.21.13a1.43,1.43,0,0,1,.38,1.78l-.19.26a1.72,1.72,0,0,1-.52.34l-.18.08-.25,0c-5,.2-10,.25-14.9.29C225.64,270.68,222.67,270.71,219.7,270.77Zm-21.9-2.34c4.34.14,8.71.18,13,.22,3,0,5.95.06,8.93.12s5.91-.09,8.89-.12c4.25,0,8.63-.08,13-.22A33.14,33.14,0,0,0,231.3,264a46.13,46.13,0,0,0-23.22,0A33.05,33.05,0,0,0,197.8,268.43Z" style="fill:#fff"/><path d="M218.14,79.06c-11.85-6.32-20.29,1.33-33.56-.8S167.2,52.33,161.65,27.13s-52.34-26-52.34-26,47.47,19.74,38.35,32.28c-13.73,18.9,2.67,42.61,11,59.35,4.49,9.06,5.94,19.33-7.73,16.21-28-6.41-50.16-54-50.16-54-1.58,45.43,18,58.1,18,58.1s39.71,46.25,23.67,39.22-79-12.8-79-12.8C2.1,122.58,8.32,86.16,9,82.87c-.74,1.28-4.57,3.93-5.48,5.45a22.59,22.59,0,0,0-2.37,9.11A51.79,51.79,0,0,0,4.61,120c6.61,16.08,32.78,28,48.13,33.38,25.48,8.9,47,19.65,69.11,35.41,13.7,9.77,26.35,22.3,40.54,31.21-.78-.37-6.69-2.89-22.28,4.21-16.82,7.63-30.77,2-30.77,2,1.55,13.84,50.38,11.66,73.74,9.81a101,101,0,0,1,25.63,1.26l10.39,1.85V79.66C218.79,79.46,218.5,79.25,218.14,79.06Zm-50.8,91.46s9.83-2.52,16.36-1.76A11.91,11.91,0,0,1,194.05,182c-.8,6.48-6.68,10.78-13.22,10.35C166.79,191.47,167.34,170.52,167.34,170.52Zm103.72,0s-9.83-2.52-16.36-1.76A11.91,11.91,0,0,0,244.35,182c.8,6.48,6.69,10.78,13.22,10.35C271.61,191.47,271.06,170.52,271.06,170.52Zm-3,11.91c-1.69,4.47-4.81,8.57-10.55,8.94-6.23.42-11.44-3.66-12.16-9.48a10.91,10.91,0,0,1,9.48-12.14,23.49,23.49,0,0,1,2.58-.14,62.63,62.63,0,0,1,12.65,1.69A35.38,35.38,0,0,1,268.05,182.43Z" style="fill:#8e9391"/><path d="M437.26,97.43a22.59,22.59,0,0,0-2.37-9.11c-.91-1.52-4.74-4.17-5.48-5.45.67,3.29,6.9,39.71-54.43,56.57,0,0-62.92,5.77-79,12.8S319.65,113,319.65,113s19.56-12.67,18-58.1c0,0-22.21,47.6-50.17,54-13.67,3.12-12.22-7.15-7.73-16.21,8.33-16.74,24.74-40.45,11-59.35C281.62,20.83,329.1,1.09,329.1,1.09s-46.83.84-52.35,26-9.67,49-22.93,51.13-21.71-5.52-33.56.8a12,12,0,0,0-1.06.67l-.1-.07V239.17l.1,0,10.49-1.87a101,101,0,0,1,25.63-1.26c23.36,1.85,72.19,4,73.74-9.81,0,0-13.95,5.63-30.77-2-15.59-7.1-21.5-4.58-22.28-4.21,14.19-8.91,26.85-21.44,40.54-31.21,22.13-15.76,43.63-26.51,69.11-35.41,15.35-5.35,41.52-17.3,48.13-33.38A51.79,51.79,0,0,0,437.26,97.43ZM254.82,169.75a23.49,23.49,0,0,1,2.58-.14,62.63,62.63,0,0,1,12.65,1.69,35.38,35.38,0,0,1-2,11.13c-1.69,4.47-4.81,8.57-10.55,8.94-6.23.42-11.44-3.66-12.16-9.48A10.91,10.91,0,0,1,254.82,169.75Z" style="fill:#565656"/><path d="M272.06,170.49l0-.76-.73-.18c-.41-.11-10.09-2.56-16.73-1.78a12.9,12.9,0,0,0-11.22,14.37c.81,6.56,6.43,11.26,13.27,11.26.33,0,.67,0,1,0C272.47,192.41,272.06,170.71,272.06,170.49Zm-26.72,11.4a10.91,10.91,0,0,1,9.48-12.14,23.49,23.49,0,0,1,2.58-.14,62.63,62.63,0,0,1,12.65,1.69,35.38,35.38,0,0,1-2,11.13c-1.69,4.47-4.81,8.57-10.55,8.94C251.27,191.79,246.06,187.71,245.34,181.89Zm-61.53-14.13c-6.63-.77-16.31,1.68-16.72,1.79l-.73.18,0,.76c0,.22-.41,21.92,14.43,22.88.33,0,.67,0,1,0a13.7,13.7,0,0,0,8.9-3.17,12.52,12.52,0,0,0,4.37-8.09A12.92,12.92,0,0,0,183.81,167.76Zm9.25,14.13c-.72,5.82-5.94,9.9-12.16,9.48-11.46-.74-12.47-16.4-12.55-20.07,2.4-.55,10-2.16,15.23-1.55a10.91,10.91,0,0,1,9.56,10.81A12,12,0,0,1,193.06,181.89Zm79-11.4,0-.76-.73-.18c-.41-.11-10.09-2.56-16.73-1.78a12.9,12.9,0,0,0-11.22,14.37c.81,6.56,6.43,11.26,13.27,11.26.33,0,.67,0,1,0C272.47,192.41,272.06,170.71,272.06,170.49Zm-26.72,11.4a10.91,10.91,0,0,1,9.48-12.14,23.49,23.49,0,0,1,2.58-.14,62.63,62.63,0,0,1,12.65,1.69,35.38,35.38,0,0,1-2,11.13c-1.69,4.47-4.81,8.57-10.55,8.94C251.27,191.79,246.06,187.71,245.34,181.89Zm-61.53-14.13c-6.63-.77-16.31,1.68-16.72,1.79l-.73.18,0,.76c0,.22-.41,21.92,14.43,22.88.33,0,.67,0,1,0a13.7,13.7,0,0,0,8.9-3.17,12.52,12.52,0,0,0,4.37-8.09A12.92,12.92,0,0,0,183.81,167.76Zm9.25,14.13c-.72,5.82-5.94,9.9-12.16,9.48-11.46-.74-12.47-16.4-12.55-20.07,2.4-.55,10-2.16,15.23-1.55a10.91,10.91,0,0,1,9.56,10.81A12,12,0,0,1,193.06,181.89Zm-9.25-14.13c-6.63-.77-16.31,1.68-16.72,1.79l-.73.18,0,.76c0,.22-.41,21.92,14.43,22.88.33,0,.67,0,1,0a13.7,13.7,0,0,0,8.9-3.17,12.52,12.52,0,0,0,4.37-8.09A12.92,12.92,0,0,0,183.81,167.76Zm9.25,14.13c-.72,5.82-5.94,9.9-12.16,9.48-11.46-.74-12.47-16.4-12.55-20.07,2.4-.55,10-2.16,15.23-1.55a10.91,10.91,0,0,1,9.56,10.81A12,12,0,0,1,193.06,181.89Zm79-11.4,0-.76-.73-.18c-.41-.11-10.09-2.56-16.73-1.78a12.9,12.9,0,0,0-11.22,14.37c.81,6.56,6.43,11.26,13.27,11.26.33,0,.67,0,1,0C272.47,192.41,272.06,170.71,272.06,170.49Zm-26.72,11.4a10.91,10.91,0,0,1,9.48-12.14,23.49,23.49,0,0,1,2.58-.14,62.63,62.63,0,0,1,12.65,1.69,35.38,35.38,0,0,1-2,11.13c-1.69,4.47-4.81,8.57-10.55,8.94C251.27,191.79,246.06,187.71,245.34,181.89Zm26.72-11.4,0-.76-.73-.18c-.41-.11-10.09-2.56-16.73-1.78a12.9,12.9,0,0,0-11.22,14.37c.81,6.56,6.43,11.26,13.27,11.26.33,0,.67,0,1,0C272.47,192.41,272.06,170.71,272.06,170.49Zm-26.72,11.4a10.91,10.91,0,0,1,9.48-12.14,23.49,23.49,0,0,1,2.58-.14,62.63,62.63,0,0,1,12.65,1.69,35.38,35.38,0,0,1-2,11.13c-1.69,4.47-4.81,8.57-10.55,8.94C251.27,191.79,246.06,187.71,245.34,181.89Zm-61.53-14.13c-6.63-.77-16.31,1.68-16.72,1.79l-.73.18,0,.76c0,.22-.41,21.92,14.43,22.88.33,0,.67,0,1,0a13.7,13.7,0,0,0,8.9-3.17,12.52,12.52,0,0,0,4.37-8.09A12.92,12.92,0,0,0,183.81,167.76Zm9.25,14.13c-.72,5.82-5.94,9.9-12.16,9.48-11.46-.74-12.47-16.4-12.55-20.07,2.4-.55,10-2.16,15.23-1.55a10.91,10.91,0,0,1,9.56,10.81A12,12,0,0,1,193.06,181.89ZM438.25,97.35a23.13,23.13,0,0,0-2.5-9.54,16.76,16.76,0,0,0-3.14-3.17,17.16,17.16,0,0,1-2.34-2.27l-3-5.2,1.2,5.9c.8,3.94,6.08,38.93-53.63,55.38-3.63.34-63.33,5.93-79.22,12.88a6.09,6.09,0,0,1-2.24.65h-.15c-1.3-2.56,13.05-21.79,27.13-38.2,1.85-1.28,19.84-14.82,18.31-58.89l-.14-4.17-1.76,3.78c-.22.47-22.31,47.23-49.48,53.45-4.41,1-7.33.64-8.7-1.09-1.81-2.3-1-7.42,2.09-13.69,1.13-2.27,2.4-4.66,3.75-7.19,8.64-16.2,19.39-36.37,7.16-53.2a4.81,4.81,0,0,1-.75-4.38C294,16.87,329.13,2.16,329.48,2l4.85-2-5.25.09c-1.95,0-47.69,1.15-53.3,26.82-.42,1.9-.83,3.8-1.24,5.68-4.78,22-9.29,42.82-20.88,44.68-5.43.87-10,.06-14.5-.74-6.28-1.12-12.22-2.17-19.37,1.64-.21.12-.41.24-.59.36-.18-.12-.37-.24-.59-.36-7.15-3.81-13.09-2.76-19.37-1.64-4.46.79-9.07,1.61-14.5.74-11.59-1.86-16.1-22.66-20.88-44.69-.41-1.87-.82-3.77-1.24-5.67C157,1.24,111.27.13,109.32.09L104.07,0l4.85,2c.36.14,35.44,14.85,38.68,26.38a4.81,4.81,0,0,1-.75,4.38c-12.23,16.83-1.48,37,7.16,53.2,1.35,2.53,2.62,4.92,3.75,7.19,3.12,6.27,3.9,11.39,2.09,13.69-1.36,1.73-4.29,2.1-8.7,1.09C124,101.73,101.89,55,101.67,54.5l-1.76-3.77-.14,4.16C98.24,99,116.23,112.5,118.08,113.78c14.09,16.42,28.44,35.66,27.17,38.16,0,0-.5.24-2.43-.61-15.89-7-75.59-12.54-79.22-12.88C3.89,122,9.17,87,10,83.07l1.2-5.9-3,5.2a16.63,16.63,0,0,1-2.34,2.26,16.62,16.62,0,0,0-3.15,3.21A23,23,0,0,0,.15,97.35a52.85,52.85,0,0,0,3.53,23.07C11.23,138.8,42.89,151,52.41,154.36c26.23,9.17,47.47,20,68.86,35.28,5.79,4.14,11.51,8.86,17,13.43,6.33,5.22,12.83,10.59,19.61,15.23-3.67,0-9.49,1.06-18.22,5-16.21,7.35-29.85,2-30,2l-1.55-.63.18,1.67c1.61,14.31,47.57,12.84,74.82,10.69a99.48,99.48,0,0,1,25.37,1.25l10.67,1.9,10.67-1.9a99.53,99.53,0,0,1,25.38-1.25c27.25,2.15,73.2,3.62,74.81-10.69l.19-1.67-1.56.63c-.14,0-13.74,5.38-30-2-8.73-4-14.55-5-18.22-5,6.78-4.64,13.29-10,19.61-15.23,5.53-4.57,11.25-9.29,17-13.43,21.39-15.23,42.63-26.11,68.86-35.28,9.52-3.32,41.18-15.56,48.73-33.94A52.85,52.85,0,0,0,438.25,97.35Zm-5.38,22.31c-7.24,17.61-38.21,29.56-47.54,32.81-26.41,9.24-47.81,20.2-69.36,35.54-5.85,4.18-11.6,8.92-17.15,13.51-7.49,6.19-15.24,12.59-23.34,17.68l1,1.75c.61-.29,6.38-2.65,21.44,4.21a43.48,43.48,0,0,0,29.68,2.65c-4,7.83-30.5,10.55-72.16,7.26a101.64,101.64,0,0,0-25.88,1.27l-10.32,1.84-.1,0-10.22-1.82A101.67,101.67,0,0,0,191,234.75q-4,0-8,.32c-41.66,3.29-68.13.57-72.16-7.26a43.51,43.51,0,0,0,29.69-2.65c15.05-6.85,20.82-4.5,21.43-4.21l1-1.75c-8.1-5.09-15.84-11.49-23.33-17.67-5.56-4.59-11.31-9.34-17.16-13.52-21.55-15.34-42.95-26.3-69.36-35.54-9.32-3.25-40.3-15.2-47.54-32.81A50.78,50.78,0,0,1,2.14,97.52a21.2,21.2,0,0,1,2.23-8.68,16.9,16.9,0,0,1,2.73-2.7c.18-.15.35-.29.51-.44-.77,10.07,1.78,39.92,55.55,54.7l.17,0c.63.06,62.94,5.84,78.69,12.73,1.55.68,3.75,1.43,4.8,0,.77-1,2.38-3.22-12.48-22.54-7.14-9.28-14.75-18.16-14.83-18.25l-.22-.19c-.18-.12-17.9-12.08-17.61-53.16,5.89,11.42,25.2,45.42,49,50.88,5.22,1.2,8.82.58,10.71-1.81,3.19-4,.2-11.64-1.87-15.81-1.14-2.3-2.42-4.7-3.77-7.24C147.4,69.33,137,49.77,148.47,34a6.79,6.79,0,0,0,1.06-6.1C146.8,18.15,125,7.14,114.86,2.45c12.43,1.15,41.65,5.87,45.81,24.89q.63,2.85,1.24,5.67c5.14,23.69,9.58,44.16,22.51,46.24,5.77.92,10.55.07,15.17-.75,6.19-1.1,11.54-2,18.08,1.44a6.8,6.8,0,0,1,.66.41l.77.5.1.06.87-.56a6.8,6.8,0,0,1,.66-.41c6.54-3.49,11.89-2.54,18.08-1.44,4.62.82,9.4,1.67,15.17.75C266.91,77.17,271.35,56.7,276.49,33c.41-1.87.82-3.77,1.24-5.67,4.16-19,33.37-23.73,45.81-24.88-10.19,4.68-31.94,15.69-34.67,25.4a6.79,6.79,0,0,0,1.06,6.1C301.42,49.77,291,69.33,282.62,85c-1.35,2.54-2.63,4.94-3.77,7.24-2.07,4.17-5.06,11.76-1.87,15.81,1.89,2.4,5.49,3,10.72,1.81,23.82-5.46,43.13-39.46,49-50.88.28,40.95-17.43,53-17.61,53.16l-.22.19c-.08.09-7.69,9-14.83,18.25-14.86,19.32-13.25,21.5-12.48,22.54,1.05,1.43,3.24.68,4.8,0,15.75-6.89,78.07-12.67,78.69-12.73l.18,0c53.76-14.78,56.31-44.63,55.54-54.7l.51.44A17.68,17.68,0,0,1,434,88.81a16.28,16.28,0,0,1,1.47,3.78,30.08,30.08,0,0,1,.77,4.93A50.78,50.78,0,0,1,432.87,119.66ZM272,169.73l-.73-.18c-.41-.11-10.09-2.56-16.73-1.78a12.9,12.9,0,0,0-11.22,14.37c.81,6.56,6.43,11.26,13.27,11.26.33,0,.67,0,1,0,14.84-1,14.43-22.66,14.43-22.88Zm-26.7,12.16a10.91,10.91,0,0,1,9.48-12.14,23.49,23.49,0,0,1,2.58-.14,62.63,62.63,0,0,1,12.65,1.69,35.38,35.38,0,0,1-2,11.13c-1.69,4.47-4.81,8.57-10.55,8.94C251.27,191.79,246.06,187.71,245.34,181.89Zm-61.53-14.13c-6.63-.77-16.31,1.68-16.72,1.79l-.73.18,0,.76c0,.22-.41,21.92,14.43,22.88.33,0,.67,0,1,0a13.7,13.7,0,0,0,8.9-3.17,12.52,12.52,0,0,0,4.37-8.09A12.92,12.92,0,0,0,183.81,167.76Zm9.25,14.13c-.72,5.82-5.94,9.9-12.16,9.48-11.46-.74-12.47-16.4-12.55-20.07,2.4-.55,10-2.16,15.23-1.55a10.91,10.91,0,0,1,9.56,10.81A12,12,0,0,1,193.06,181.89Zm-9.25-14.13c-6.63-.77-16.31,1.68-16.72,1.79l-.73.18,0,.76c0,.22-.41,21.92,14.43,22.88.33,0,.67,0,1,0a13.7,13.7,0,0,0,8.9-3.17,12.52,12.52,0,0,0,4.37-8.09A12.92,12.92,0,0,0,183.81,167.76Zm9.25,14.13c-.72,5.82-5.94,9.9-12.16,9.48-11.46-.74-12.47-16.4-12.55-20.07,2.4-.55,10-2.16,15.23-1.55a10.91,10.91,0,0,1,9.56,10.81A12,12,0,0,1,193.06,181.89Zm79-11.4,0-.76-.73-.18c-.41-.11-10.09-2.56-16.73-1.78a12.9,12.9,0,0,0-11.22,14.37c.81,6.56,6.43,11.26,13.27,11.26.33,0,.67,0,1,0C272.47,192.41,272.06,170.71,272.06,170.49Zm-26.72,11.4a10.91,10.91,0,0,1,9.48-12.14,23.49,23.49,0,0,1,2.58-.14,62.63,62.63,0,0,1,12.65,1.69,35.38,35.38,0,0,1-2,11.13c-1.69,4.47-4.81,8.57-10.55,8.94C251.27,191.79,246.06,187.71,245.34,181.89Zm26.72-11.4,0-.76-.73-.18c-.41-.11-10.09-2.56-16.73-1.78a12.9,12.9,0,0,0-11.22,14.37c.81,6.56,6.43,11.26,13.27,11.26.33,0,.67,0,1,0C272.47,192.41,272.06,170.71,272.06,170.49Zm-26.72,11.4a10.91,10.91,0,0,1,9.48-12.14,23.49,23.49,0,0,1,2.58-.14,62.63,62.63,0,0,1,12.65,1.69,35.38,35.38,0,0,1-2,11.13c-1.69,4.47-4.81,8.57-10.55,8.94C251.27,191.79,246.06,187.71,245.34,181.89Zm-61.53-14.13c-6.63-.77-16.31,1.68-16.72,1.79l-.73.18,0,.76c0,.22-.41,21.92,14.43,22.88.33,0,.67,0,1,0a13.7,13.7,0,0,0,8.9-3.17,12.52,12.52,0,0,0,4.37-8.09A12.92,12.92,0,0,0,183.81,167.76Zm9.25,14.13c-.72,5.82-5.94,9.9-12.16,9.48-11.46-.74-12.47-16.4-12.55-20.07,2.4-.55,10-2.16,15.23-1.55a10.91,10.91,0,0,1,9.56,10.81A12,12,0,0,1,193.06,181.89Z" style="fill:#fff"/></g></g></svg>