<svg xmlns="http://www.w3.org/2000/svg" viewBox="0 0 269.45 318.8"><title>Cyclops</title><g id="a3af238c-3320-4ee8-a301-35b337f0f3fb" data-name="Layer 2"><g id="f8a3dd8f-a710-4911-a96f-98f08284eeb9" data-name="Layer 1"><path d="M234.73,123s15.23,6.24,24.94,4.15c7-1.49-5.75,13.09-13.46,21.39-1.09,1.17-4.45,4.59-8.36,8.47-7,7-15.6,15.52-15.6,15.52l-49.37-15.6c3.4-1.23,6.84-2.28,10.29-3.21a86.3,86.3,0,0,1-15.88-5.51,122.92,122.92,0,0,1,15.88-5.34c-13.08-3.18-24.37-9.07-35.09-16.94a19.61,19.61,0,0,0-12.32-3.74,19.5,19.5,0,0,0-12.32,3.74c-10.75,7.87-22,13.76-35.09,16.94a120.2,120.2,0,0,1,15.85,5.37,88.2,88.2,0,0,1-15.85,5.48c3.12.84,6.27,1.79,9.36,2.85L44.87,176.68S33,166.37,28.26,157.82c-1.76-3.18-2.55-6.11-1.41-8.17C33,138.39,30.71,91.41,2.59,85.55c0,0,33.27-21.47,56.12-9,0,0,21.5-34.63-12.45-43,0,0,96.53-9.58,89.5,16.34,0,0,40.05-12.19,29-26s-4.15-22.17-4.15-22.17S171,19,177.2,19.74,198,53,184.82,58.52c0,0,50.89-6.7,45.38-22.72,2.69,6.49,19.13,48.93-5.18,56,0,0,.7,10.39,33.27,9S234.73,123,234.73,123Z" style="fill:#6f574b"/><path d="M44.67,177.83l-.45-.4c-.49-.42-12-10.52-16.83-19.13-2.15-3.87-2.63-6.94-1.41-9.13,3.79-6.91,4.16-28.6-3.12-44.4-3.24-7-9.43-15.94-20.47-18.24L0,86l2.05-1.32c1.36-.88,33.23-21.13,56.28-9.5,1.94-3.47,9.09-17.46,4.66-28.3-2.46-6-8.18-10.2-17-12.36l-5.67-1.39,5.81-.58c3.06-.3,75.16-7.25,88.69,8.73a9.07,9.07,0,0,1,2.21,7.13c5.81-1.95,25.67-9.19,28.33-17.8A6.31,6.31,0,0,0,164,24.52c-11.48-14.35-4.44-23.08-4.14-23.44l.9-1.08.73,1.2c2.82,4.7,11.17,17,15.86,17.55s11.91,14.1,13.52,25.09c.84,5.78,0,10.27-2.25,13.09,9.7-1.62,34.55-6.56,40-15.4a6,6,0,0,0,.65-5.4l1.87-.71c2.2,5.31,12.8,32.58,5.44,47.91a17.19,17.19,0,0,1-10.29,9.11c1,2.18,6.32,8.45,32,7.36,7.2-.3,10.64.55,11.14,2.79.44,2-1.09,5.23-16.9,13.26-5.89,3-11.9,5.67-15.07,7.06,4.57,1.6,14.94,4.77,22,3.24,1.48-.32,2.48,0,3,.82.59,1,1.95,3.43-15.49,22.22-1.18,1.27-4.7,4.84-8.38,8.5-7,7-15.61,15.52-15.61,15.52l-.43.43L169.76,157l2.78-1q3.28-1.19,6.83-2.24a87.85,87.85,0,0,1-12.5-4.63l-2.06-1,2.09-.88a118.17,118.17,0,0,1,12.46-4.39c-11-3.15-21.22-8.34-31.87-16.16a18.52,18.52,0,0,0-11.69-3.55A18.46,18.46,0,0,0,124,126.71c-10.69,7.83-20.91,13-31.89,16.16a113.87,113.87,0,0,1,12.45,4.42l2.09.89-2.07.94a89.24,89.24,0,0,1-12.47,4.6c2,.6,4,1.23,5.89,1.88l2.62.89ZM5.16,85.18c8.3,2.52,15,9,19.52,18.75,7.79,16.93,7,39,3.05,46.2-.85,1.53-.36,4,1.41,7.2,4.09,7.37,13.75,16.24,15.94,18.2l49.65-18.92c-2.16-.69-4.38-1.34-6.64-2l-3.77-1,3.79-.92a86.83,86.83,0,0,0,13.53-4.48,123.22,123.22,0,0,0-13.55-4.44l-3.78-1,3.8-.92c12.08-2.94,23.12-8.26,34.74-16.77a20.34,20.34,0,0,1,13-3.94,20.42,20.42,0,0,1,12.86,3.93c11.59,8.51,22.62,13.83,34.74,16.78l3.81.92-3.78,1a124.58,124.58,0,0,0-13.58,4.42,87.15,87.15,0,0,0,13.55,4.5l3.81.93-3.78,1c-2.54.68-5,1.41-7.36,2.19L222,171.36c1.83-1.8,9.12-9,15.17-15.09,4.16-4.13,7.34-7.37,8.34-8.44,12.24-13.2,15.31-18.59,15.22-19.8a2.52,2.52,0,0,0-.82.07c-9.9,2.14-24.9-3.94-25.53-4.2l-2.23-.92,2.22-.93c16.43-6.89,33.75-16.13,33.1-19,0-.06-.46-1.59-9.11-1.22-33.18,1.42-34.28-9.48-34.31-9.94l-.06-.81.78-.22a15.41,15.41,0,0,0,10-8.37c5.68-11.82-.31-32.08-3.66-41.49a8.62,8.62,0,0,1-.8,1.61C223,54.37,186.5,59.31,185,59.51l-7.37,1,6.86-2.88c5-2.09,5.14-8.48,4.41-13.47-1.63-11.15-8.72-23.07-11.76-23.4C171.43,20.09,163.33,8,160.58,3.62c-1.33,2.68-3.16,9.53,4.94,19.65a8.29,8.29,0,0,1,1.78,8c-3.42,11.06-30.12,19.3-31.25,19.64l-1.73.53.47-1.74a7.28,7.28,0,0,0-1.46-7.06c-10.87-12.83-64.92-9.76-81.88-8.46,6.69,2.57,11.18,6.6,13.4,12C70.3,59.52,60,76.36,59.56,77.07l-.5.8-.83-.45C39.35,67.12,12.67,80.87,5.16,85.18Z" style="fill:#fff"/><circle cx="135.64" cy="153.8" r="26.33" style="fill:#e1d6ce"/><path d="M246.21,159.36a21.79,21.79,0,0,0-8.36-2.38c-.57,0-1.14-.06-1.74-.06h-.27c-2.6-68.09-46.4-90.72-100.08-90.72S38.25,88.83,35.64,157c-.38,0-.78,0-1.16,0a9.79,9.79,0,0,0-1.33.06,21,21,0,0,0-4.89.84,22.17,22.17,0,0,0,6.22,43.45,20.87,20.87,0,0,0,4.69-.52C51,261.73,89.73,317.8,135.76,317.8s84.72-55.93,96.53-116.86a22,22,0,0,0,3.82.33,22.17,22.17,0,0,0,10.1-41.91ZM175.6,256.47c-13.6-.76-32.24-4.35-38.21-3.7-6-.65-24.62,2.94-38.21,3.7-8.36.46,18-42.42,38.21-39.76C157.58,214.05,184,256.93,175.6,256.47Zm-2.72-99.57a93.13,93.13,0,0,0-13.57,6,6.41,6.41,0,0,0-.65.38c-7.24,4-14.22,10.06-22.63,10.15h-.54c-8.66-.09-15.83-6.49-23.29-10.53-.35-.19-.73-.41-1.11-.57a97.72,97.72,0,0,0-13.38-5.76c-3.09-1.06-6.24-2-9.36-2.85a88.2,88.2,0,0,0,15.85-5.48,109.45,109.45,0,0,0,19.24-11.45A19.45,19.45,0,0,1,135.76,133a19.56,19.56,0,0,1,12.32,3.75,107,107,0,0,0,19.21,11.42,86.3,86.3,0,0,0,15.88,5.51C179.72,154.62,176.28,155.67,172.88,156.9Z" style="fill:#dfb17c"/><path d="M135.76,318.8c-22.08,0-43.49-12.47-61.93-36C57,261.26,44.46,232.59,38.38,201.93a22.46,22.46,0,0,1-3.9.34A23.17,23.17,0,0,1,28,156.86,21.65,21.65,0,0,1,33.1,156c.48-.06,1.06,0,1.59-.06C38,81,91.42,65.2,135.76,65.2s97.73,15.78,101,90.73l1.1,0a22.65,22.65,0,0,1,8.77,2.5,23.16,23.16,0,0,1-10.55,43.79,23.64,23.64,0,0,1-3-.2c-6.07,30.65-18.65,59.29-35.46,80.76C179.2,306.36,157.81,318.8,135.76,318.8ZM40,199.54l.19,1C51,256.91,88.24,316.8,135.76,316.8c21.41,0,42.26-12.17,60.29-35.2,16.79-21.44,29.31-50.16,35.26-80.85l.18-1,1,.17a22.14,22.14,0,0,0,3.66.31,21.17,21.17,0,0,0,9.63-40h0a20.59,20.59,0,0,0-8-2.28c-.52,0-1.08-.05-1.65-.05h-1.24l0-1C232,82.77,179.39,67.2,135.76,67.2S39.48,82.78,36.64,157l0,1-1-.07c-.35,0-.73,0-1.09,0a9.48,9.48,0,0,0-1.21.05,20.29,20.29,0,0,0-4.73.81,21.17,21.17,0,0,0,5.94,41.49,20.14,20.14,0,0,0,4.47-.49Zm135.77,57.93h-.19c-6.22-.34-13.59-1.29-20.1-2.13-7.61-1-14.81-1.9-17.95-1.56h-.21c-3.14-.35-10.33.58-18,1.56-6.5.84-13.88,1.79-20.1,2.13A2.29,2.29,0,0,1,97,256.33c-1.59-2.8,2.19-10.26,6.26-16.3,8.19-12.17,22-25.81,34.16-24.33,12.11-1.48,26,12.16,34.15,24.34,4.07,6,7.85,13.49,6.26,16.29A2.25,2.25,0,0,1,175.73,257.47Zm-.08-2c.33,0,.38-.07.41-.13.64-1.12-.85-6.27-6.18-14.18-8.53-12.68-21.85-24.83-32.36-23.46l-.13,0-.14,0c-10.54-1.39-23.83,10.78-32.36,23.44-5.33,7.92-6.82,13.07-6.18,14.2,0,.06.08.14.41.13,6.15-.35,13.48-1.29,19.95-2.12,8-1,14.91-1.92,18.32-1.58,3.41-.34,10.32.55,18.31,1.58,6.47.83,13.8,1.77,20,2.12ZM135.49,174.4c-6.7-.07-12.46-3.7-18-7.21-1.88-1.19-3.82-2.41-5.73-3.44l-.2-.11a9.23,9.23,0,0,0-.83-.42,97.25,97.25,0,0,0-13.32-5.73c-3-1-6.09-2-9.29-2.83l-3.77-1,3.79-.92a86.78,86.78,0,0,0,15.67-5.42A107.12,107.12,0,0,0,122.85,136a20.34,20.34,0,0,1,13-3.94A20.43,20.43,0,0,1,148.66,136a106.28,106.28,0,0,0,19.05,11.32,85.94,85.94,0,0,0,15.69,5.45l3.81.92-3.78,1c-3.59,1-7,2-10.21,3.18h0a92.59,92.59,0,0,0-13.43,5.91,4.48,4.48,0,0,0-.57.33c-1.78,1-3.52,2.09-5.2,3.14-5.55,3.5-11.3,7.11-18,7.18ZM92.14,153.72c2,.6,4,1.22,5.89,1.88a99.06,99.06,0,0,1,13.52,5.81c.27.11.62.3.94.47l.19.11c2,1.06,3.94,2.31,5.84,3.51,5.34,3.36,10.85,6.84,17,6.9H136c6.11-.06,11.61-3.52,16.93-6.87,1.7-1.07,3.46-2.18,5.21-3.16.23-.14.46-.28.7-.4a95.07,95.07,0,0,1,13.67-6c2.18-.78,4.47-1.53,6.84-2.23a88,88,0,0,1-12.51-4.63,107.6,107.6,0,0,1-19.38-11.53A18.63,18.63,0,0,0,135.8,134,18.45,18.45,0,0,0,124,137.57a110,110,0,0,1-19.42,11.55A89.24,89.24,0,0,1,92.14,153.72Z" style="fill:#fff"/></g></g></svg>