<svg xmlns="http://www.w3.org/2000/svg" viewBox="0 0 336.49 439.89"><title>Darkmantle</title><g id="b2faef5c-e262-4b4d-a072-e00c1209b056" data-name="Layer 2"><g id="b6344553-bbbc-45f9-ad4f-b93a23fdd75d" data-name="Layer 1"><path d="M258.68,177.66s26.11-7.4,24.81-17.84l-4.79-3.48s18.28-10.45,7.4-30c0,0,23.93,20.45-6.1,54.4s-30.46,20.89-30.46,20.89Z" style="fill:#766759"/><path d="M252.14,205.06a4.09,4.09,0,0,1-1.34-.22,3.56,3.56,0,0,1-2.26-3.21v-.2l.07-.19,9.32-24.4.48-.14c6.91-2,24.43-8.65,24.12-16.34l-5.67-4.12,1.34-.77c.71-.41,17.28-10.21,7-28.68l-2.69-4.85,4.22,3.61a30.36,30.36,0,0,1,9.31,20.07c.79,11.35-4.36,23.38-15.31,35.75C266.83,197.11,257.23,205.06,252.14,205.06Zm-1.58-3.33a1.56,1.56,0,0,0,.94,1.23c1.71.59,7.86-.43,27.76-22.91,10.56-12,15.54-23.47,14.81-34.25a29.31,29.31,0,0,0-4.36-13.44c3.67,13.24-5.76,21.48-9.26,24l4,2.9.06.43c1.31,10.46-21.3,17.66-25,18.78Z" style="fill:#fff"/><path d="M230.83,274.71s13,13.05,18.71,43.52L246.06,320s11.75,30,11.75,28.72S263,312.57,261.73,313a39,39,0,0,0-4.35,2.18s-9.58-56.57-28.73-65.28S230.83,274.71,230.83,274.71Z" style="fill:#766759"/><path d="M257.67,349.75c-.84,0-1.41-1.41-6.84-15-2.88-7.21-5.7-14.42-5.7-14.42l-.33-.85,3.62-1.81c-5.61-29.29-18.17-42.13-18.3-42.26l-.13-.17c-2.3-3.6-13.52-21.82-9.36-26.61,1.45-1.67,4.22-1.56,8.44.36,17.94,8.16,27.41,55.66,29.05,64.64a27.49,27.49,0,0,1,3.29-1.58l.53-.17.49.37c.8.66,1,2.18-2.69,29.35-.49,3.6-.92,6.7-.93,7.1l0,.8-.8.21A1.76,1.76,0,0,1,257.67,349.75Zm-10.34-29.3c3.14,8,7.65,19.38,9.9,24.72.14-1,.31-2.27.53-3.84,1-7.63,3.09-22.66,3.19-26.91-1.1.53-2.49,1.29-3.08,1.63l-1.24.71-.24-1.41c-.1-.56-9.7-56.15-28.15-64.54-3.17-1.44-5.34-1.75-6.1-.86-2.33,2.68,4.12,15.69,9.48,24.13,1.21,1.25,13.42,14.45,18.91,44l.13.74Z" style="fill:#fff"/><path d="M154.24,291.24s-16.54,35.69,2.17,60.06l4.79-.44s3.48,37.43-5.22,51.36c0,0,3-26.55-10.88-45.7l5.66-.87s-29.6-45.69-5.23-68.32S154.24,291.24,154.24,291.24Z" style="fill:#766759"/><path d="M154.48,406.49l.5-4.39c0-.26,2.84-26.39-10.69-45l-1-1.33,5.78-.89c-4.74-7.8-26.92-47.24-4.25-68.3,10.5-9.75,13.21-10.07,14.58-9,2.36,1.9-1.67,9.62-4.3,14.09-.64,1.4-15.57,35.32,1.75,58.54l5.22-.47.1,1c.14,1.54,3.41,37.92-5.37,52Zm-7.64-49.23c9.46,14,10.52,31.5,10.39,40,5.14-14.13,3.47-39.92,3.06-45.3l-4.33.39-.34-.43c-18.86-24.57-2.46-60.72-2.29-61.09l0-.08c3.08-5.24,5.31-10.66,4.76-11.6h0c-.25,0-2.42.11-11.91,8.92-23.47,21.8,5.09,66.6,5.39,67.05l.83,1.29Z" style="fill:#fff"/><path d="M333.1,275.14s-11.75,15.67-33.07,8.27l2.6-3.92s-21.75-13.05-26.54-35.68-18.72-23.93-18.72-23.93-16.79,9.44-22.05,35.24h0A85.17,85.17,0,0,0,234,278.66h0c.06,1,.16,2,.26,3a91.55,91.55,0,0,1-8.7,44.39l-.44,8.27,3.05-2.62s-3.8,40.66-5.66,35.69c-1.31-3.48-13.06-24.37-7-36.55l2.61,1.73s.87-13.05,4.78-15.66c2.3-1.53,3.24-9.27,3.64-15.46a8.32,8.32,0,0,0-8.95-8.85c-11.88,1-31.67,9.94-37.33,57.38,0,0-1.31,11.76,5.22,28.29a84.85,84.85,0,0,1,5.66,32.21l6.09-2.19s-17,35.28-17,30c0-3.92,3.92-20.46,0-32.21l3.92,1.74s-8.71-36.12-13.49-41.34-3.92-47-.87-50c1.79-1.79-1.08-13.33-17.41-20.88a62.25,62.25,0,0,0-10.91-3.81c-8.84-2.23-20.17-3.38-34.57-2.53a19.77,19.77,0,0,0-16.75,11.55s0,.52,0,1.46c0,6.86,1,36.12,17.86,46.85l1.31-8.28S126,363.49,119,387c0,0-3-21.32-18.72-33.51S82,305.17,82.43,302.56c.4-2.42-16-48.76-42.16-40.21a12.72,12.72,0,0,0-8.79,10.48c-1.13,8.89,1.8,24.75,29.2,40.6l3.91-8.26s9.14,31.77-1.74,40c0,0,.87-18.29-2.17-22.63-2.81-4-110.15-62.28-30-124a92.81,92.81,0,0,1,45-18.48c20.48-2.6,50-8.09,47.69-18.11-1.71-7.51-4.06-12.48-4.08-17.41a15.74,15.74,0,0,1,2.73-8.74,48.08,48.08,0,0,1,7.88-9.1s5.22-32.64-10-19.15c0,0,2.18-19.58,15.67-33.07,0,0-3.05-13,4.34-18.27,0,0-10.44-1.75-.43-13.93S161.2,3.59,161.2,3.59,165.41,32.88,176,47.1c4.4,5.92,6.44,15,9.26,21.84,2.56,6.2,5.39,12.11,6.84,12.11,3,0-1.74,5.22-11.75.88,0,0-1.31,3.91-3.48,3.91s10,30.9,9.57,37.86a7.91,7.91,0,0,1,3.52,2.38c2,2.13,3.94,6.08,3.64,13.25,0,.84-.09,1.71-.2,2.64,0,0,1.31,4.79-3,6.1s13.06,20.45,19.14,22.63c0,0,44.39-40.47,54.83,4.78l.11.24h0c.53,1.31,3.12,7.78,5.63,15.62h0a127.29,127.29,0,0,1,4.73,18.89,120.86,120.86,0,0,0,6.87,26.42c5.52,14.09,13.9,32.2,22.27,38,0,0,4.11-.82,2.74-6.07C307.54,271.4,313,285.38,333.1,275.14Z" style="fill:#8d5e59"/><path d="M180.67,439.89a1.34,1.34,0,0,1-.35-.05c-.29-.07-1-.35-1-1.5a43.92,43.92,0,0,1,.51-4.8c.92-6.86,2.46-18.34-.46-27.09l-.72-2.15,4.13,1.83C180.05,395,173.59,371.08,170,367.2c-5.16-5.63-4.38-47.89-.84-51.42.08-.09.33-.73,0-2.2-.95-4.65-6-11.92-17.15-17.07a61.16,61.16,0,0,0-10.74-3.74c-9.64-2.43-21.16-3.27-34.26-2.5a18.73,18.73,0,0,0-15.82,10.78c0,.23,0,.65,0,1.23,0,5.68.79,33.91,16.12,45.13l1.43-9.09,1.42,1.94c.17.23,16.75,23.31,9.72,47l-1.29,4.38-.65-4.53c0-.21-3.18-21.07-18.34-32.86C83.18,341.45,81.1,304.49,81.45,302.4c0-1.71-8-25.27-22-35.48-6.13-4.5-12.5-5.71-18.92-3.62A11.68,11.68,0,0,0,32.47,273c-1,7.91,1.3,23.43,27.77,39.07l4.58-9.67.73,2.54c.38,1.33,9.2,32.53-2.1,41.11l-1.7,1.3.1-2.14c.24-5,.34-18.67-2-22a52.13,52.13,0,0,0-4.59-3.32C40.41,309.61.94,282.46,0,248.16c-.48-17.71,9.61-34.66,30-50.37a93.8,93.8,0,0,1,45.49-18.68c25.9-3.29,42.27-8.12,46.1-13.6a4,4,0,0,0,.75-3.3c-.64-2.78-1.38-5.26-2-7.44-1.11-3.74-2.07-7-2.08-10.19a16.83,16.83,0,0,1,2.88-9.27,48.5,48.5,0,0,1,7.79-9.06c1.1-7.14,1.55-18.79-1.86-20.67-1.75-1-4.53,1-6.55,2.76l-2,1.72.29-2.58c.09-.8,2.34-19.72,15.58-33.28-.48-2.44-1.95-12.17,3.42-17.56a6.22,6.22,0,0,1-3.4-3.4c-1.1-2.93.32-6.82,4.21-11.55,9.81-11.94,21.5-38.24,21.61-38.51L161.69,0l.5,3.45c0,.29,4.29,29.2,14.61,43.06,3.12,4.18,5,9.78,6.89,15.2.83,2.44,1.62,4.74,2.49,6.84,4.11,9.94,5.66,11.31,6,11.5a1.6,1.6,0,0,1,1.15,2.9c-1.34,1.31-5.59,3-12.43.28-.55,1.2-1.64,3.06-3.29,3.51.18,2,2.26,8.53,4,13.9,2.69,8.5,5.72,18.07,5.87,22.37a9.64,9.64,0,0,1,3.26,2.4c2,2.12,4.22,6.27,3.9,14,0,.77-.08,1.6-.18,2.53.48,2,.27,5.91-3.77,7.12a3.82,3.82,0,0,0,.48,1.55c2.51,5.39,13.45,16.71,18.18,19,3.5-3.08,24.38-20.59,40.37-15.61,7.64,2.39,12.89,9.53,15.61,21.24l.15.37c1,2.43,3.32,8.44,5.58,15.51l.05.15a123.74,123.74,0,0,1,4.72,18.91,120.15,120.15,0,0,0,6.81,26.19c5.4,13.78,13.47,31.31,21.51,37.3a3,3,0,0,0,1.4-1.16,4.58,4.58,0,0,0,.2-3.55l1.93-.55c.45,1.46,2.33,6.4,7.35,8.51,4.56,1.93,10.5,1,17.66-2.6l3.84-2-2.59,3.45c-.12.17-12.44,16.17-34.2,8.61l-1.22-.42,2.76-4.15c-4.17-2.77-21.86-15.59-26.13-35.77-4.19-19.81-15.53-22.73-17.53-23.09-2.19,1.38-16.51,11.18-21.26,34.31l0,.1A83.92,83.92,0,0,0,235,277.67h0l.06.93q.11,1.47.27,3c0,.23,2.06,22.61-8.71,44.74l-.3,5.74,3.14-2.71-.23,2.47c0,.09-.85,9.07-1.92,18-2.25,18.75-3.21,18.88-4.24,19-.29,0-1,0-1.43-1.06-.17-.46-.57-1.32-1.08-2.4-3.38-7.2-11.28-24.07-5.84-35l.51-1,2.15,1.43c.39-3.81,1.64-12.44,5.08-14.73.55-.37,2.41-2.51,3.19-14.69a7.32,7.32,0,0,0-7.87-7.79c-11.19.9-30.8,9.43-36.42,56.5,0,.11-1.19,11.73,5.16,27.8a87.56,87.56,0,0,1,5.76,31.14l7-2.51-1.05,2.2c0,.08-3.78,7.84-7.71,15.46C183.21,438.4,181.63,439.89,180.67,439.89Zm1.24-32c2.22,8.82.8,19.38-.07,25.89-.13,1-.25,1.82-.33,2.56,2.72-4.13,8.56-15.41,13.85-26.3l-5.21,1.87.08-1.51a84.47,84.47,0,0,0-5.59-31.78c-6.54-16.58-5.34-28.27-5.29-28.77,5.8-48.49,26.45-57.31,38.25-58.26a9.32,9.32,0,0,1,10,9.9c-.91,14.12-3.3,15.71-4.08,16.23-2.87,1.92-4.11,11.41-4.34,14.9l-.12,1.72-3.06-2c-4,10.11,3.45,26,6.32,32.17l.51,1.09c1.16-4.59,2.85-18.36,4.13-31.5l-2.94,2.52.57-10.81.09-.18c10.63-21.69,8.63-43.63,8.61-43.85-.08-.71-.14-1.4-.2-2.1h-.07v-1A86.35,86.35,0,0,1,234.32,255l0-.11C239.63,229,256.18,219.4,256.88,219l.27-.15.31,0c.6.06,14.72,1.64,19.61,24.72,4.64,22,25.86,34.9,26.08,35l.9.54-2.46,3.7c13.19,4.1,22.36-.85,27.06-4.69-5.59,2-10.43,2.2-14.44.52a14.6,14.6,0,0,1-6.67-5.85,5.32,5.32,0,0,1-.35.67,5.09,5.09,0,0,1-3.06,2.17l-.42.08-.35-.24c-8.58-6-17-24.24-22.62-38.5a122.33,122.33,0,0,1-6.93-26.63,122.5,122.5,0,0,0-4.69-18.73l-.05-.16c-2.29-7.13-4.65-13.14-5.56-15.41l0-.08-.06-.16-.05-.15c-2.54-11-7.34-17.7-14.27-19.87-16.05-5-38.69,15.39-38.91,15.6l-.45.41-.57-.21c-5.5-2-20.62-17.86-20.49-22.63a1.92,1.92,0,0,1,1.4-1.9c3.29-1,2.47-4.48,2.37-4.88l-.05-.18,0-.19c.1-.94.17-1.78.19-2.56.29-7-1.67-10.69-3.38-12.54a7,7,0,0,0-3-2.09l-.79-.21,0-.82c.22-3.46-3.11-14-5.78-22.4C176,89.52,175.1,86.43,175.9,85.33a1.19,1.19,0,0,1,1-.49c1.09,0,2.19-2.22,2.53-3.23l.34-1,1,.44c5.59,2.43,9.26,1.67,10.67.9-1.21-.51-3.06-2.86-7.09-12.59-.89-2.16-1.69-4.49-2.54-7-1.8-5.27-3.66-10.72-6.59-14.66-8.63-11.59-13-32.59-14.46-40.7-3.39,7.34-12.43,26.11-20.53,36-3.35,4.08-4.69,7.39-3.87,9.58s3.67,2.72,3.7,2.72l2.4.4-2,1.4c-6.77,4.78-4,17.11-3.95,17.23l.13.54-.4.4c-10.26,10.26-13.87,24.31-15,30,2.73-1.91,4.95-2.36,6.77-1.36,5.82,3.2,3.15,21,2.83,23.07l-.06.34-.24.23a47.26,47.26,0,0,0-7.73,8.9,15,15,0,0,0-2.57,8.21c0,2.93.89,5.88,2,9.62.66,2.21,1.41,4.72,2.06,7.57a6,6,0,0,1-1.06,4.89c-5.33,7.62-28.76,12.06-47.48,14.43a92,92,0,0,0-44.53,18.28C11.39,214.67,1.56,231.07,2,248.1c.89,33.29,39.76,60,54.38,70.08,3.46,2.38,4.68,3.24,5.09,3.82,2.55,3.64,2.58,15.35,2.45,20.71,6.09-8,2.1-27.51.37-34.62l-3.19,6.75-.94-.54c-28.36-16.4-30.77-33.1-29.69-41.6A13.64,13.64,0,0,1,40,261.4c7.85-2.57,15.56-.67,22.89,5.63,13,11.16,21,33.24,20.57,35.69-.32,1.95,2,37.92,17.46,50,11.6,9,16.38,22.69,18.16,29.7,3-17.1-5.56-33.18-9-38.81l-1.14,7.22-1.29-.82c-17-10.82-18.32-39.24-18.32-47.69,0-1,0-1.49,0-1.49v-.2l.09-.19A20.71,20.71,0,0,1,107,288.28c13.3-.79,25,.07,34.87,2.55a64.05,64.05,0,0,1,11.09,3.87c12.05,5.57,17.4,13.57,18.32,18.74.3,1.71.08,3-.63,3.75-.93,1-2.21,9.66-2.21,23.53,0,13,1.25,23.1,3.11,25.13,4.9,5.36,13.37,40.3,13.73,41.79l.47,2Z" style="fill:#fff"/><path d="M135.47,145.89s8.7,7,10-3-7.4-7.4-7.4-7.4S131.12,139.8,135.47,145.89Z" style="fill:#d3b53a"/><path d="M141.16,149.25c-3.06,0-6.16-2.45-6.31-2.58l-.19-.2a7.41,7.41,0,0,1-1.49-5.9c.72-3.65,4.23-5.88,4.38-6l.24-.11c.17-.05,4.15-1.21,6.76,1,1.73,1.47,2.38,4,1.92,7.48-.41,3.16-1.59,5.16-3.51,5.93A4.68,4.68,0,0,1,141.16,149.25Zm-5-4.05c1.12.85,4.08,2.64,6,1.86,1.19-.49,2-1.95,2.27-4.34.36-2.77-.05-4.69-1.23-5.69-1.56-1.34-4.15-.81-4.76-.66-.55.38-2.89,2.13-3.37,4.6A5.5,5.5,0,0,0,136.2,145.2Z" style="fill:#fff"/><path d="M161.37,135.46c-.75,3.8.12,9.66,3.62,9.9,5,.33,7.67-4.54,6.69-9.05-.9-4.2-6.47-7.19-9.34-3.34A6.35,6.35,0,0,0,161.37,135.46Z" style="fill:#d3b53a"/><path d="M165.46,146.37a4.87,4.87,0,0,1-.54,0,4.15,4.15,0,0,1-3.06-1.72c-1.73-2.27-2.05-6.43-1.47-9.37h0a7.32,7.32,0,0,1,1.15-2.89,5.17,5.17,0,0,1,5.43-2.05,7.81,7.81,0,0,1,5.69,5.78,9.21,9.21,0,0,1-1.81,7.84A7,7,0,0,1,165.46,146.37Zm-3.11-10.71c-.48,2.43-.26,6,1.1,7.76a2.17,2.17,0,0,0,1.6.94,5,5,0,0,0,4.29-1.72,7.18,7.18,0,0,0,1.37-6.12,5.81,5.81,0,0,0-4.17-4.24,3.16,3.16,0,0,0-3.4,1.28,5.72,5.72,0,0,0-.79,2.1Z" style="fill:#fff"/><path d="M193.6,139.33a12.82,12.82,0,0,1-8.94,0,5.72,5.72,0,0,1-2.62-8.1,9.58,9.58,0,0,1,7.92-5.13C191.92,128.21,193.9,132.16,193.6,139.33Z" style="fill:#d3b53a"/><path d="M188.88,141.13a11.7,11.7,0,0,1-4.61-.9,6.63,6.63,0,0,1-3.64-4,6.85,6.85,0,0,1,.54-5.56,10.57,10.57,0,0,1,8.73-5.63l.47,0,.33.35c2,2.13,4.22,6.28,3.9,14l0,.7-.66.21A16.33,16.33,0,0,1,188.88,141.13Zm.66-14a8.5,8.5,0,0,0-6.63,4.59,4.81,4.81,0,0,0-.38,3.92,4.53,4.53,0,0,0,2.52,2.76,11.49,11.49,0,0,0,7.57.19C192.75,132.45,191.1,129,189.54,127.12Z" style="fill:#fff"/><path d="M129,143.72c-3.5,4-7.13,2.8-9.74.86a15.74,15.74,0,0,1,2.73-8.74C131.76,135.41,129,143.72,129,143.72Z" style="fill:#d3b53a"/><path d="M123.92,147.37a8.86,8.86,0,0,1-5.26-2l-.4-.3v-.5a16.83,16.83,0,0,1,2.88-9.27l.28-.45.52,0c3.43-.15,5.85.7,7.23,2.52,2.06,2.73.83,6.52.78,6.68l-.07.19-.13.15A7.76,7.76,0,0,1,123.92,147.37Zm-3.65-3.3c2.91,2,5.49,1.71,7.83-.85.18-.67.69-3.05-.53-4.66-.9-1.18-2.55-1.73-5-1.74A14.78,14.78,0,0,0,120.27,144.07Z" style="fill:#fff"/></g></g></svg>