<svg xmlns="http://www.w3.org/2000/svg" viewBox="0 0 278.44 369.43"><title>Death-Knight</title><g id="a137026a-0d51-487e-91aa-a06460c37f28" data-name="Layer 2"><g id="a85b583b-dec9-4c33-95ed-b8e13270f607" data-name="Layer 1"><path d="M278.13,288.27C226.07,276.07,199.29,334,199.29,334,23.27,400.6,9.51,349.9,9.51,349.9c45.62-18.13,42-43.47,42-43.47l-.74-37L58,268s25.36,39.86,141.26-20.26c-5.79,7.94,18.1,29,18.1,29C234.27,274.6,275.75,287.51,278.13,288.27Z" style="fill:#5b4d70"/><path d="M57.27,369.43c-17,0-28.45-2.95-36.09-6.85-10.63-5.42-12.56-12.14-12.63-12.42l-.24-.86.83-.33c44.24-17.58,41.43-42.15,41.4-42.4v-.12l-.76-37.8,8.73-1.75.37.58c.06.09,6.48,9.7,26.75,12,18.85,2.13,53.8-1.79,113.21-32.61l3.77-2-2.51,3.43c-4.23,5.81,11,21.41,17.63,27.33,17.86-1.94,60.29,11.51,60.72,11.64l-.54,1.93c-21.21-5-40.72,1.07-58,18a104.92,104.92,0,0,0-19.74,27.16l-.17.37-.38.15C130.42,361.09,85.9,369.43,57.27,369.43Zm-46.46-19c.86,1.86,3.68,6.52,11.47,10.44,11.87,6,29.69,7.84,53,5.5,32-3.22,73.5-14.4,123.31-33.23a107.49,107.49,0,0,1,19.93-27.34c10.22-10,26.08-20.75,47-20.2-14.08-3.88-36.65-9.33-48-7.9l-.44.06-.34-.3c-2.28-2-20.44-18.32-19.28-27.65-58.7,30.09-93.48,33.82-112.37,31.6-18.44-2.17-25.77-10.08-27.49-12.31l-5.78,1.16.72,36.08C52.75,308.1,55,332.55,10.81,350.45Z" style="fill:#fff"/><path d="M79,151.4s-4.34-34.76,7.25-39.11S103,62.31,45,87.66c0,0-18.83,5.07-23.9-7.24,0,0-21.74,10.14-16.67-8.7,0,0-19.55-34.77,34.77-18.83,0,0,15.94,5.07,5.07-18.83,0,0-5.06-15.94,13.76-12.32-.8-.15,2.19-10.08,2.49-10.73C63.76,4,69.34.1,77.28,1.19c27.13,3.73,48.36,27.18,63.13,48.5C156.57,73,158.53,101.77,152.93,129,138.44,199.21,79,151.4,79,151.4Z" style="fill:#706951"/><path d="M118.18,168.31c-19.46,0-38.8-15.35-39.76-16.13l-.32-.25,0-.4c-.18-1.45-4.3-35.61,7.89-40.18,3-1.13,5.68-5.65,6.47-11,1-6.5-1.08-12.38-5.47-15.73-5.4-4.13-17-6.8-41.54,3.94l-.14,0c-.78.21-18.82,4.9-24.67-6.9C17.74,82.91,9.13,86,4.94,82.5c-2.35-2-2.87-5.55-1.57-10.65-1.13-2.13-6.29-12.8-1.09-19.33,4.92-6.19,17.44-6.39,37.21-.59.06,0,4.44,1.36,6.46-.92,1.49-1.68,2.24-5.91-2.59-16.54l0-.11c-.09-.28-2.18-7,1.5-11.17,2.36-2.65,6.45-3.54,12.17-2.65a70.59,70.59,0,0,1,2.62-9.95C63.24,2.69,69.39-.92,77.42.2c22.25,3.05,43.12,19.06,63.81,48.92,18.59,26.84,17.15,58.33,12.68,80-4.2,20.35-12.58,32.92-24.92,37.36A32,32,0,0,1,118.18,168.31ZM80,150.87c3.09,2.38,28.23,21,48.33,13.75,11.63-4.18,19.59-16.25,23.63-35.87,4.4-21.32,5.82-52.24-12.37-78.49C119.23,20.88,98.81,5.16,77.15,2.18c-7.06-1-12.5,2.23-15.72,9.24-.36.84-2.68,8.8-2.53,10a.85.85,0,0,0-.68-.62l-.38,2h0c-5.62-1.08-9.5-.47-11.52,1.8-2.78,3.12-1.28,8.6-1.11,9.18,4.22,9.29,5,15.56,2.23,18.64-2.89,3.25-8.31,1.58-8.54,1.5C15.37,46.94,6.84,50,3.84,53.76-1,59.85,5.24,71.12,5.31,71.23l.2.36L5.4,72c-1.21,4.49-.93,7.52.83,9,3.31,2.79,11.55-.11,14.44-1.46l.95-.44.4,1c4.53,11,21.44,7,22.65,6.67,25.39-11.09,37.66-8.11,43.49-3.66,5,3.8,7.3,10.38,6.23,17.61-.91,6.12-4,11.17-7.75,12.57C77.87,116.51,78.83,141.12,80,150.87Z" style="fill:#fff"/><path d="M189.17,213.73,174.67,226c-32.6-13.79-89.08.71-89.08.71l-21.73-14.5C163.1,176.05,189.17,213.73,189.17,213.73Z" style="fill:#030304"/><path d="M85.4,227.83,61.66,212l1.85-.68C115,192.52,146.57,194,164,198.45c19.06,4.93,25.74,14.31,26,14.71l.52.74-15.66,13.3-.57-.24c-31.9-13.49-87.88.62-88.44.76ZM66.06,212.52l19.72,13.15c5.32-1.3,57.62-13.52,88.71-.79l13.29-11.28c-1.94-2.25-9.07-9.33-24.53-13.28C146.34,196,115.81,194.68,66.06,212.52Z" style="fill:#fff"/><ellipse cx="156.43" cy="213.19" rx="10.14" ry="11.65" style="fill:#bd4022"/><path d="M156.43,225.84c-6.14,0-11.14-5.68-11.14-12.65s5-12.65,11.14-12.65,11.14,5.67,11.14,12.65S162.57,225.84,156.43,225.84Zm0-23.3c-5,0-9.14,4.77-9.14,10.65s4.1,10.65,9.14,10.65,9.14-4.78,9.14-10.65S161.47,202.54,156.43,202.54Z" style="fill:#fff"/><ellipse cx="102.28" cy="213.19" rx="10.14" ry="11.65" style="fill:#bd4022"/><path d="M102.29,225.84c-6.15,0-11.15-5.68-11.15-12.65s5-12.65,11.15-12.65,11.14,5.67,11.14,12.65S108.43,225.84,102.29,225.84Zm0-23.3c-5.05,0-9.15,4.77-9.15,10.65s4.1,10.65,9.15,10.65,9.14-4.78,9.14-10.65S107.33,202.54,102.29,202.54Z" style="fill:#fff"/><path d="M192.77,245.59s-1.44-18.84,4.37-20.29l-.73-21s-10.13-57.23.73-74.62l.71-21.73-11.57,12.31v10.3a4.71,4.71,0,0,1-6,4.54c-2.72-.76-5.76-7.91-4.65-10.49l5.56-8-1.45-25.33L162.36,113l.94,8.43a7.51,7.51,0,0,1-3,6.92,15,15,0,0,1-17.45-.14L145,108.67,134.1,86.23l-9.42,19.55L125.82,119a11,11,0,1,1-21.88,2.18l-.25-6L93,102.49l-4.54-5.4L86.3,112.3l5.78,10.13V131a10.12,10.12,0,0,1-19.34,4.17l-.2-3.29,4.34-4.34L58,104.33l-3.6,28.26L61,134l-1.39,14.39a1.35,1.35,0,0,1-2.47.48L43.6,121.07c.54,2,10,37.19,7.94,47.75l3.61,79.66,5.07,8L58,268S83.4,307.89,199.3,247.77ZM174.67,226c-32.6-13.79-89.08.71-89.08.71l-21.73-14.5c99.24-36.2,125.31,1.48,125.31,1.48Z" style="fill:#96948a"/><path d="M94.61,282a81.57,81.57,0,0,1-9.52-.53C64,279,57.46,269,57.2,268.57l-.22-.34,2.19-11.57-5-7.87-3.62-80,0-.12c2-10.31-7.52-45.79-7.93-47.29l1.87-.7L58,148.4a.33.33,0,0,0,.35.13.32.32,0,0,0,.26-.27l1.3-13.44-6.55-1.45,4-31.48,20.88,25.69-4.66,4.66.16,2.65A9.12,9.12,0,0,0,91.08,131V122.7l-5.82-10.2,2.55-17.76,16.86,20.07.27,6.3a10,10,0,1,0,19.88-2l-1.16-13.49L134.1,83.93,146,108.49l-2.12,19.28a13.93,13.93,0,0,0,15.81-.2,6.46,6.46,0,0,0,2.62-6l-1-8.83,19.28-24.1,1.62,28.29-5.7,8.16c-.36,1,.12,3.38,1.14,5.54s2.2,3.32,2.9,3.52a3.72,3.72,0,0,0,4.72-3.58V119.88l13.66-14.53L198.13,130l-.14.23c-10.54,16.87-.7,73.35-.6,73.92l0,.13.76,21.81-.79.2c-3.52.87-4.11,11.58-3.66,18.57l8.13,2.73-2.09,1.08C148.49,275.25,115.17,282,94.61,282ZM59.1,267.79c1.27,1.66,8.3,9.63,26.53,11.7,18.64,2.12,53-1.69,111.11-31.52l-4.91-1.64-.05-.66c-.15-1.93-1.23-18.25,4.34-21l-.71-20.21c-.56-3.18-9.88-57.39.74-75l.62-18.82-9.49,10.09v9.9a5.71,5.71,0,0,1-7.26,5.5c-2.05-.57-3.59-3.39-4.16-4.58-1-2.17-2-5.37-1.14-7.27l.1-.18,5.36-7.69L178.9,94l-15.5,19.37.89,8a8.46,8.46,0,0,1-3.45,7.84,15.93,15.93,0,0,1-18.62-.15l-.46-.34,2.18-19.86L134.1,88.53,125.7,106l1.11,12.92A12,12,0,1,1,103,121.24l-.25-5.66L89.15,99.45,87.34,112.1l5.74,10.06V131a11.13,11.13,0,0,1-6.69,10.19,10.94,10.94,0,0,1-4.43.91,11.13,11.13,0,0,1-10.13-6.52l-.08-.16-.24-3.93,4-4L58.74,106.77l-3.2,25,6.5,1.44-1.47,15.26a2.35,2.35,0,0,1-4.32.92l0-.09L47,130.41c2.87,11.81,6.95,30.88,5.53,38.48l3.58,79.28,5.15,8.08Zm26.3-40L61.66,212l1.85-.68C115,192.52,146.57,194,164,198.45c19.06,4.93,25.74,14.31,26,14.71l.52.74-15.66,13.3-.57-.24c-31.91-13.5-87.88.62-88.44.76ZM66.06,212.52l19.72,13.15c5.32-1.29,57.62-13.52,88.71-.79l13.29-11.28c-1.94-2.25-9.07-9.33-24.53-13.28C146.34,196,115.81,194.68,66.06,212.52Z" style="fill:#fff"/></g></g></svg>