<svg xmlns="http://www.w3.org/2000/svg" viewBox="0 0 336.02 324.62"><title>Death-Tyrant_1</title><g id="aad9dddf-dcab-4555-bc5c-d78327aca8af" data-name="Layer 2"><g id="a0dbfe1d-4c54-47f0-8327-c9358b76c6c3" data-name="Layer 1"><circle cx="171.31" cy="126.49" r="36.4" style="fill:#a40a1b"/><path d="M171.3,163.88a37.4,37.4,0,1,1,37.4-37.39A37.43,37.43,0,0,1,171.3,163.88Zm0-72.79a35.4,35.4,0,1,0,35.4,35.4A35.44,35.44,0,0,0,171.3,91.09Z" style="fill:#fff"/><circle cx="26.04" cy="88.45" r="9.58" style="fill:#a40a1b"/><path d="M26,99A10.58,10.58,0,1,1,36.62,88.45,10.59,10.59,0,0,1,26,99Zm0-19.15a8.58,8.58,0,1,0,8.58,8.57A8.59,8.59,0,0,0,26,79.88Z" style="fill:#fff"/><circle cx="101.09" cy="10.58" r="9.58" style="fill:#a40a1b"/><path d="M101.09,21.15a10.58,10.58,0,1,1,10.57-10.57A10.59,10.59,0,0,1,101.09,21.15Zm0-19.15a8.58,8.58,0,1,0,8.57,8.58A8.59,8.59,0,0,0,101.09,2Z" style="fill:#fff"/><circle cx="304.88" cy="88.45" r="9.58" style="fill:#a40a1b"/><path d="M304.88,99a10.58,10.58,0,1,1,10.57-10.58A10.58,10.58,0,0,1,304.88,99Zm0-19.15a8.58,8.58,0,1,0,8.57,8.57A8.59,8.59,0,0,0,304.88,79.88Z" style="fill:#fff"/><circle cx="27.54" cy="290.38" r="9.58" style="fill:#a40a1b"/><path d="M27.54,301a10.58,10.58,0,1,1,10.58-10.57A10.59,10.59,0,0,1,27.54,301Zm0-19.15a8.58,8.58,0,1,0,8.58,8.58A8.59,8.59,0,0,0,27.54,281.8Z" style="fill:#fff"/><circle cx="312.67" cy="290.38" r="9.58" style="fill:#a40a1b"/><path d="M312.67,301a10.58,10.58,0,1,1,10.58-10.57A10.59,10.59,0,0,1,312.67,301Zm0-19.15a8.58,8.58,0,1,0,8.58,8.58A8.59,8.59,0,0,0,312.67,281.8Z" style="fill:#fff"/><circle cx="10.58" cy="205.27" r="9.58" style="fill:#a40a1b"/><path d="M10.58,215.85a10.58,10.58,0,1,1,10.57-10.58A10.59,10.59,0,0,1,10.58,215.85Zm0-19.16a8.58,8.58,0,1,0,8.57,8.58A8.59,8.59,0,0,0,10.58,196.69Z" style="fill:#fff"/><circle cx="325.44" cy="205.27" r="9.58" style="fill:#a40a1b"/><path d="M325.44,215.85A10.58,10.58,0,1,1,336,205.27,10.6,10.6,0,0,1,325.44,215.85Zm0-19.16a8.58,8.58,0,1,0,8.58,8.58A8.59,8.59,0,0,0,325.44,196.69Z" style="fill:#fff"/><circle cx="242.94" cy="10.58" r="9.58" style="fill:#a40a1b"/><path d="M242.94,21.15a10.58,10.58,0,1,1,10.58-10.57A10.58,10.58,0,0,1,242.94,21.15Zm0-19.15a8.58,8.58,0,1,0,8.58,8.58A8.58,8.58,0,0,0,242.94,2Z" style="fill:#fff"/><path d="M288.13,153.26,269.41,142.6a11.21,11.21,0,0,1-5.62-11.71c3.62-19.73,1.39-72.16-44.52-85.23a29.87,29.87,0,0,0-18.84.86c-5.19,2-14.06,4.23-28.27,4.83h-1.71c-14.21-.6-23.08-2.84-28.27-4.83a29.87,29.87,0,0,0-18.84-.86c-45.91,13.07-48.14,65.5-44.52,85.23A11.21,11.21,0,0,1,73.2,142.6L54.48,153.26A12.85,12.85,0,0,0,49.3,164l.47,12.36a13,13,0,0,0,6.78,10.81c44.05,24.59,6.89,87.71,6.89,87.71,9.16,4.38,26.47-1.94,26.47-1.94l-8.65,25.23s13.45-8.31,19-6.36-1,30.08-1,30.08l19.35-16.49,7.64,9.22,8.66-5.34c15.27,8.74,26.48,3.39,26.48,3.39l.1,0,.12.06a25.59,25.59,0,0,0,9.21,1.85,3.46,3.46,0,0,0,.45,0,3.24,3.24,0,0,0,.44,0,25.59,25.59,0,0,0,9.21-1.85l.12-.06.1,0s11.21,5.35,26.48-3.39l8.66,5.34,7.64-9.22,19.35,16.49s-6.62-28.14-1-30.08,19.06,6.36,19.06,6.36l-8.66-25.23s17.31,6.32,26.47,1.94c0,0-37.16-63.12,6.89-87.71a13,13,0,0,0,6.78-10.81l.48-12.36A12.88,12.88,0,0,0,288.13,153.26Zm-192.52,35c-18.2,6.37-27-8.06-30-14.88A2.68,2.68,0,0,1,68,169.67c15.58-1,25.17,9.33,29,14.52A2.67,2.67,0,0,1,95.61,188.3ZM228,277a9.37,9.37,0,0,1-2,3.45c-.72.74-1.47,1.45-2.24,2.14l-9.67-14.69,2.16,19.62.4,3.68-1.57-3.15-7.9-15.79-1.1,17.54-.35,5.76-3-5.9-7.24-14.47-.81,14-.28,4.9-2.54-5-7.29-14.29v21.46l-1.52-4L177,275.92l-2.55,17-2.55-17L165.12,294l-.87,2.3V274.83l-8,15.78-1.79,3.5-.29-4.86-.81-14.05-7.06,14.1-3.13,6.27-.39-6.07-1.07-17.23-9.46,18.94.17-1.54,2.38-21.76L125,282.84l-.63,3.63a33.85,33.85,0,0,1-7.73-6,9.37,9.37,0,0,1-2-3.45c-3.26-9.47,2.89-28,5.52-35.45,2.75-7.85,1.41-17.14,1-26.08l7.93,4.08-2.91-8.8,7.34,2.2-3-9.47,11.73,4.34-6.6-13.77,13.1,9.38-2.15-16.7L160.34,202l1.46-17.48,8.86,13.66,8.87-13.66L181,202l13.77-15.3-2.17,16.7,13.12-9.38-6.62,13.77,11.73-4.34-3,9.47,7.34-2.2-2.92,8.8,9.25-4.76c-.36,9.14-1.84,18.72,1,26.76C225.15,249,231.31,267.54,228,277Zm-1.51-142.84c-16.66,9.47-36.35,11.11-55.14,10.65-18.45-.46-38.89-1.31-55.3-10.65-11.56-6.57,8.12-37.88,14.67-42.54,21.22-15.08,59.85-15.11,81.1,0C218.4,96.29,238.08,127.6,226.53,134.17ZM277,173.42c-3,6.82-11.79,21.25-30,14.88a2.67,2.67,0,0,1-1.3-4.11c3.78-5.19,13.37-15.54,29-14.52A2.68,2.68,0,0,1,277,173.42Z" style="fill:#e2dfdc"/><path d="M245,324.62l-20.89-17.81-7.55,9.11-8.91-5.49c-13.84,7.69-24.28,4.2-26.47,3.31a26.57,26.57,0,0,1-9.4,1.86h-.9a26.58,26.58,0,0,1-9.41-1.86c-2.19.89-12.63,4.38-26.47-3.31l-8.91,5.49-7.55-9.11L97.63,324.62l.7-3c3.08-13.11,4.59-27.89,1.66-28.9-4.22-1.46-14.58,4-18.21,6.26l-2.38,1.47,8.91-26c-4.87,1.53-17.62,4.92-25.3,1.25l-1-.47.55-.94c.21-.34,20.27-34.9,12.87-62.17-2.83-10.44-9.35-18.56-19.38-24.16a13.94,13.94,0,0,1-7.29-11.64L48.3,164a13.9,13.9,0,0,1,5.58-11.57l.11-.07,18.72-10.66a10.15,10.15,0,0,0,5.12-10.66c-1.9-10.37-2.07-28.55,3.73-45.61,7.12-21,21.47-35.06,41.5-40.76a31,31,0,0,1,19.48.88c4.78,1.84,13.51,4.16,28,4.77h1.67c14.4-.61,23.13-2.93,27.91-4.77a31.1,31.1,0,0,1,19.48-.88c20,5.7,34.38,19.8,41.5,40.76,5.8,17.06,5.63,35.24,3.73,45.61a10.13,10.13,0,0,0,5.13,10.66l18.82,10.73A13.93,13.93,0,0,1,294.31,164l-.47,12.36A13.94,13.94,0,0,1,286.55,188c-10,5.6-16.55,13.72-19.38,24.16-7.4,27.27,12.66,61.83,12.87,62.17l.55.94-1,.47c-7.68,3.67-20.43.28-25.3-1.25l8.91,26L260.83,299c-3.63-2.24-14-7.73-18.2-6.26-2.94,1-1.43,15.79,1.65,28.9ZM98.32,290.51a7.06,7.06,0,0,1,2.32.35c5.3,1.83,2.19,19.53.3,28.32L118.77,304l7.73,9.33,8.43-5.2.52.3c14.59,8.35,25.44,3.41,25.55,3.36l.44-.21.52.24.14.06a24.35,24.35,0,0,0,8.77,1.75h.88a24.46,24.46,0,0,0,8.84-1.78l.58-.28.44.22c.11.05,11,5,25.55-3.36l.52-.3,8.43,5.2,7.73-9.33,17.83,15.21c-1.89-8.79-5-26.49.3-28.32,4.6-1.6,13.31,2.71,17.57,5.08l-8.46-24.67,2,.72c.16.06,15.79,5.68,24.7,2.4-3.35-6-19.5-36.92-12.51-62.72,3-11,9.82-19.52,20.33-25.39a12,12,0,0,0,6.28-10l.47-12.36a11.93,11.93,0,0,0-4.75-9.86l-18.66-10.62a12.29,12.29,0,0,1-6.1-12.76c3.24-17.65,2.15-71-43.81-84.09a29.06,29.06,0,0,0-18.21.83c-4.92,1.89-13.88,4.28-28.59,4.9h-1.75c-14.75-.62-23.71-3-28.63-4.9a29.06,29.06,0,0,0-18.21-.83c-46,13.09-47,66.44-43.81,84.09a12.1,12.1,0,0,1-6.1,12.75L55,154.09A11.93,11.93,0,0,0,50.29,164l.47,12.35a12,12,0,0,0,6.28,10c10.51,5.87,17.35,14.41,20.33,25.39,7,25.8-9.16,56.71-12.51,62.72,8.9,3.28,24.54-2.34,24.71-2.4l2-.72-8.46,24.67C86.69,293.93,93.52,290.51,98.32,290.51Zm63.55,21.25Zm19.21-.07a.93.93,0,0,0-.29.05Zm-17.83-9.9V279l-9.61,18.84L152.55,279l-10.18,20.34-1.45-23.28-10.31,20.62,2.71-24.74-7.42,11.28-.84,4.83-1.23-.7a34.84,34.84,0,0,1-8-6.19,10.07,10.07,0,0,1-2.25-3.81c-2.35-6.8-.44-19.29,5.51-36.12,2.17-6.16,1.71-13.49,1.26-20.58-.11-1.71-.21-3.42-.29-5.11l-.07-1.72,7.28,3.74-2.74-8.29,7.37,2.2-3-9.61L140.26,206,133,191l14.4,10.31-2.27-17.6,14.37,16,1.5-18.09,9.62,14.82,9.62-14.81,1.52,18.08,14.37-16-2.28,17.6L208.31,191,201.07,206l11.33-4.18-3,9.61,7.38-2.2L214,217.55l8.6-4.42-.07,1.71c-.08,1.9-.2,3.85-.32,5.73-.45,7.12-.92,14.47,1.25,20.65,5.95,16.83,7.86,29.32,5.52,36.11h0a10.33,10.33,0,0,1-2.25,3.81c-.68.71-1.43,1.42-2.3,2.19l-.86.77-8-12.18,2.7,24.73L208,276l-1.46,23.3L196.33,279l-1.09,18.87L185.63,279v22.8l-8.22-21.9-3,19.76-3-19.77Zm-20.8-33.29,1.45,23.3,10.21-20.4,1.1,19,.12-.24,9.92-19.5v20.14L172.31,272l2.13,14.22L176.58,272l7,18.84V270.66l10,19.71,1.1-19L205,291.79l1.45-23.28,8.64,17.25-2.4-21.86L224,281.07c.48-.45.92-.88,1.33-1.31a8.23,8.23,0,0,0,1.8-3.08h0c2.19-6.36.28-18.39-5.52-34.79-2.31-6.57-1.82-14.13-1.36-21.44.09-1.31.17-2.65.24-4l-9.89,5.09,3.09-9.3-7.31,2.19,2.92-9.32-12.14,4.48,6-12.48-11.81,8.45,2-15.79L180.2,204.43l-1.42-16.87-8.12,12.49-8.11-12.49-1.4,16.87L148,189.8l2,15.79-11.8-8.45,6,12.48-12.13-4.48,2.93,9.32-7.31-2.19,3.07,9.3-8.55-4.41c.06,1.12.13,2.24.2,3.36.45,7.28.93,14.82-1.37,21.37-5.8,16.4-7.71,28.43-5.52,34.79a8.23,8.23,0,0,0,1.8,3.08,33.68,33.68,0,0,0,6.27,5.11l.42-2.41,12.21-18.56-2.39,21.86ZM255.7,190.9a27.16,27.16,0,0,1-9-1.66,3.66,3.66,0,0,1-2.32-2.4,3.58,3.58,0,0,1,.55-3.24c3.52-4.84,13.5-16,29.82-14.93a3.76,3.76,0,0,1,3,1.8,3.62,3.62,0,0,1,.22,3.35h0C275.4,179.49,268.72,190.9,255.7,190.9Zm16.86-20.3c-14.14,0-22.87,9.81-26.05,14.18a1.62,1.62,0,0,0-.25,1.47,1.68,1.68,0,0,0,1.07,1.1c17.5,6.13,25.94-8,28.75-14.34h0a1.62,1.62,0,0,0-.1-1.51,1.76,1.76,0,0,0-1.39-.84C273.9,170.62,273.23,170.6,272.56,170.6ZM86.91,190.9c-13,0-19.7-11.41-22.21-17.08a3.62,3.62,0,0,1,.22-3.35,3.76,3.76,0,0,1,3-1.8c16.32-1.07,26.3,10.09,29.83,14.93a3.61,3.61,0,0,1,.54,3.24,3.66,3.66,0,0,1-2.32,2.4h0A27.16,27.16,0,0,1,86.91,190.9ZM70,170.6c-.66,0-1.33,0-2,.06a1.76,1.76,0,0,0-1.39.84,1.62,1.62,0,0,0-.1,1.51c2.81,6.35,11.24,20.47,28.75,14.34a1.68,1.68,0,0,0,1.07-1.1,1.59,1.59,0,0,0-.25-1.46C92.92,180.41,84.19,170.6,70,170.6Zm107.14-24.71c-2,0-3.93,0-5.81-.07-16.25-.4-38.5-.95-55.77-10.78-2.51-1.43-3.88-3.93-4-7.42-.61-11.93,13.09-32.86,18.63-36.8,21.53-15.31,60.73-15.31,82.26,0,5.54,4,19.24,24.89,18.63,36.81-.18,3.49-1.54,6-4,7.41h0C211,144.17,192.55,145.89,177.18,145.89Zm-5.87-64.6c-14.76,0-29.51,3.72-40,11.16-5.14,3.66-18.36,24-17.79,35.06.14,2.82,1.13,4.71,3,5.79,16.83,9.58,38.79,10.12,54.83,10.52s36.89-.45,54.62-10.52c1.9-1.08,2.89-3,3-5.77.57-11.11-12.64-31.42-17.79-35.08C200.82,85,186.06,81.29,171.31,81.29Z" style="fill:#fff"/></g></g></svg>