<svg xmlns="http://www.w3.org/2000/svg" viewBox="0 0 354.54 326.64"><title>Death-Tyrant</title><g id="a56429b6-c905-4926-8056-370f6d8c7ee0" data-name="Layer 2"><g id="bbfcd362-18a9-41ae-a944-9f36a3221bb2" data-name="Layer 1"><circle cx="191.83" cy="128.5" r="36.4" style="fill:#a40a1b"/><path d="M191.83,165.9a37.4,37.4,0,1,1,37.4-37.4A37.45,37.45,0,0,1,191.83,165.9Zm0-72.8a35.4,35.4,0,1,0,35.4,35.4A35.44,35.44,0,0,0,191.83,93.1Z" style="fill:#fff"/><circle cx="60.08" cy="52.07" r="9.58" style="fill:#a40a1b"/><path d="M60.08,62.64A10.58,10.58,0,1,1,70.65,52.07,10.58,10.58,0,0,1,60.08,62.64Zm0-19.15a8.58,8.58,0,1,0,8.57,8.58A8.59,8.59,0,0,0,60.08,43.49Z" style="fill:#fff"/><circle cx="170.72" cy="14.94" r="9.58" style="fill:#a40a1b"/><path d="M170.72,25.52A10.58,10.58,0,1,1,181.3,14.94,10.59,10.59,0,0,1,170.72,25.52Zm0-19.15a8.58,8.58,0,1,0,8.58,8.57A8.58,8.58,0,0,0,170.72,6.37Z" style="fill:#fff"/><circle cx="321.4" cy="92.1" r="9.58" style="fill:#a40a1b"/><path d="M321.4,102.68A10.58,10.58,0,1,1,332,92.1,10.59,10.59,0,0,1,321.4,102.68Zm0-19.15A8.58,8.58,0,1,0,330,92.1,8.59,8.59,0,0,0,321.4,83.53Z" style="fill:#fff"/><circle cx="41.15" cy="255.16" r="9.58" style="fill:#a40a1b"/><path d="M41.15,265.74a10.58,10.58,0,1,1,10.58-10.58A10.6,10.6,0,0,1,41.15,265.74Zm0-19.16a8.58,8.58,0,1,0,8.58,8.58A8.59,8.59,0,0,0,41.15,246.58Z" style="fill:#fff"/><circle cx="10.58" cy="159.07" r="9.58" style="fill:#a40a1b"/><path d="M10.58,169.65a10.58,10.58,0,1,1,10.57-10.58A10.59,10.59,0,0,1,10.58,169.65Zm0-19.15a8.58,8.58,0,1,0,8.57,8.57A8.58,8.58,0,0,0,10.58,150.5Z" style="fill:#fff"/><circle cx="51.34" cy="116.85" r="9.58" style="fill:#a40a1b"/><path d="M51.34,127.43a10.58,10.58,0,1,1,10.58-10.58A10.6,10.6,0,0,1,51.34,127.43Zm0-19.15a8.58,8.58,0,1,0,8.58,8.57A8.58,8.58,0,0,0,51.34,108.28Z" style="fill:#fff"/><circle cx="343.97" cy="220.22" r="9.58" style="fill:#a40a1b"/><path d="M344,230.79a10.58,10.58,0,1,1,10.57-10.57A10.58,10.58,0,0,1,344,230.79Zm0-19.15a8.58,8.58,0,1,0,8.57,8.58A8.59,8.59,0,0,0,344,211.64Z" style="fill:#fff"/><circle cx="294.47" cy="10.58" r="9.58" style="fill:#a40a1b"/><path d="M294.47,21.15A10.58,10.58,0,1,1,305,10.58,10.58,10.58,0,0,1,294.47,21.15Zm0-19.15A8.58,8.58,0,1,0,303,10.58,8.59,8.59,0,0,0,294.47,2Z" style="fill:#fff"/><path d="M308.65,155.27l-18.72-10.66a11.19,11.19,0,0,1-5.61-11.7c3.62-19.73,1.38-72.16-44.52-85.24a30,30,0,0,0-18.85.86c-5.19,2-14,4.23-28.27,4.83l-.42,0-.43,0-.43,0-.43,0c-14.21-.6-23.08-2.83-28.26-4.83a30,30,0,0,0-18.85-.86C98,60.75,95.72,113.18,99.34,132.91a11.19,11.19,0,0,1-5.61,11.7L75,155.27A12.87,12.87,0,0,0,69.82,166l.47,12.36a13,13,0,0,0,6.79,10.8c44,24.59,6.88,87.71,6.88,87.71,9.17,4.38,26.47-1.93,26.47-1.93l-8.65,25.23s13.46-8.31,19.06-6.36-1,30.08-1,30.08l19.34-16.5,7.64,9.23,8.67-5.35C170.75,320,182,314.67,182,314.67a.19.19,0,0,0,.1,0l.13.06a25.55,25.55,0,0,0,9.21,1.85h.88a25.55,25.55,0,0,0,9.21-1.85l.13-.06a.19.19,0,0,0,.1,0s11.2,5.35,26.47-3.39l8.67,5.35,7.64-9.23,19.34,16.5s-6.61-28.14-1-30.08,19.06,6.36,19.06,6.36L273.23,275s17.3,6.31,26.47,1.93c0,0-37.16-63.12,6.88-87.71a13,13,0,0,0,6.79-10.8l.47-12.36A12.87,12.87,0,0,0,308.65,155.27Zm-192.52,35c-18.2,6.37-27-8.05-30-14.88a2.7,2.7,0,0,1,2.34-3.75c15.58-1,25.17,9.34,29,14.53A2.66,2.66,0,0,1,116.13,190.31ZM248.57,279a9.23,9.23,0,0,1-2,3.45c-.71.74-1.47,1.46-2.24,2.14l-9.66-14.68,2.15,19.61.4,3.68-1.57-3.15-7.9-15.78-1.09,17.53-.36,5.76-3-5.9-7.24-14.47-.82,14-.28,4.91-2.54-5-7.28-14.3v21.47l-1.53-4.05-6.11-16.32-2.55,17-2.56-17L185.64,296l-.87,2.31V276.84l-8,15.78-1.8,3.51-.28-4.86-.82-14.06-7,14.1-3.14,6.27-.38-6.07-1.07-17.22-9.47,18.93.17-1.54,2.38-21.75-9.82,14.92-.63,3.64a34.35,34.35,0,0,1-7.72-6,9.1,9.1,0,0,1-2-3.45c-3.26-9.46,2.9-28,5.52-35.45,2.75-7.84,1.41-17.14,1-26.07l7.92,4.07-2.91-8.79L154,215l-3-9.46,11.73,4.33-6.6-13.77,13.1,9.38-2.15-16.69,13.77,15.29,1.45-17.47,8.87,13.65,8.86-13.65,1.47,17.47,13.77-15.29-2.16,16.69,13.11-9.38-6.61,13.77,11.73-4.33-3,9.46,7.35-2.19-2.93,8.79,9.25-4.76c-.35,9.14-1.83,18.72,1,26.76C245.67,251,251.83,269.56,248.57,279Zm-1.52-142.83c-16.66,9.46-36.35,11.1-55.13,10.64-18.45-.45-38.89-1.31-55.3-10.64-11.56-6.58,8.11-37.88,14.67-42.54,21.21-15.08,59.84-15.11,81.1,0C238.93,98.31,258.6,129.61,247.05,136.19Zm50.47,39.24c-3,6.83-11.79,21.25-30,14.88a2.66,2.66,0,0,1-1.29-4.1c3.77-5.19,13.37-15.54,28.95-14.53A2.7,2.7,0,0,1,297.52,175.43Z" style="fill:#e2dfdc"/><path d="M265.5,326.64l-20.89-17.82-7.55,9.11-8.9-5.49c-13.84,7.69-24.29,4.2-26.47,3.31a26.41,26.41,0,0,1-9.41,1.86h-.89a26.42,26.42,0,0,1-9.42-1.86c-2.18.89-12.62,4.38-26.47-3.31l-8.9,5.49-7.55-9.11-20.89,17.82.69-3c3.08-13.11,4.59-27.89,1.66-28.91-4.22-1.46-14.57,4-18.21,6.27l-2.37,1.47,8.9-26c-4.87,1.52-17.62,4.91-25.3,1.25l-1-.47.55-.94c.2-.35,20.26-34.9,12.86-62.18-2.83-10.43-9.35-18.56-19.37-24.16a13.94,13.94,0,0,1-7.3-11.64L68.82,166a13.91,13.91,0,0,1,5.58-11.56l.11-.08,18.72-10.66a10.14,10.14,0,0,0,5.13-10.66c-1.91-10.37-2.07-28.54,3.72-45.61,7.12-21,21.47-35,41.51-40.76a31.08,31.08,0,0,1,19.47.89c4.79,1.84,13.52,4.15,28,4.76h1.66c14.4-.61,23.13-2.92,27.91-4.76a31.11,31.11,0,0,1,19.48-.89c20,5.71,34.39,19.8,41.51,40.76,5.79,17.07,5.63,35.24,3.72,45.62a10.13,10.13,0,0,0,5.13,10.65l18.82,10.74A13.89,13.89,0,0,1,314.84,166l-.47,12.36a13.94,13.94,0,0,1-7.3,11.64c-10,5.6-16.54,13.73-19.37,24.16-7.4,27.28,12.66,61.83,12.86,62.18l.55.94-1,.47c-7.68,3.66-20.44.27-25.3-1.25l8.9,26L281.35,301c-3.63-2.24-14-7.74-18.2-6.27-2.94,1-1.43,15.8,1.66,28.91ZM118.84,292.53a6.87,6.87,0,0,1,2.33.35c5.29,1.83,2.19,19.53.29,28.31L139.29,306l7.74,9.33,8.43-5.2.52.29c14.58,8.35,25.43,3.41,25.54,3.36l.44-.21.53.24a.86.86,0,0,1,.14.07,24.51,24.51,0,0,0,8.77,1.74h.87a24.46,24.46,0,0,0,8.84-1.78l.58-.27.45.21c.1.05,11,5,25.54-3.36l.52-.29,8.43,5.2,7.74-9.33,17.83,15.2c-1.9-8.78-5-26.48.29-28.32,4.6-1.6,13.31,2.71,17.57,5.09l-8.46-24.67,2,.72c.16.06,15.8,5.68,24.7,2.39-3.35-6-19.5-36.92-12.5-62.72,3-11,9.81-19.51,20.33-25.38a12,12,0,0,0,6.27-10l.47-12.36a11.93,11.93,0,0,0-4.74-9.86l-18.66-10.63a12.28,12.28,0,0,1-6.11-12.75c3.24-17.66,2.15-71-43.81-84.09a29.06,29.06,0,0,0-18.21.82c-4.92,1.9-13.88,4.28-28.58,4.9h-.21a4.68,4.68,0,0,1-.53,0h-.32a4.68,4.68,0,0,1-.53,0H191c-14.75-.62-23.7-3-28.62-4.9a29.09,29.09,0,0,0-18.22-.82c-45.95,13.08-47,66.43-43.8,84.09a12.13,12.13,0,0,1-6.11,12.75L75.56,156.11A12,12,0,0,0,70.82,166l.47,12.36a12,12,0,0,0,6.27,10c10.52,5.87,17.36,14.41,20.33,25.38,7,25.8-9.15,56.72-12.5,62.72,8.9,3.28,24.54-2.33,24.7-2.39l2-.72L103.6,298C107.22,295.94,114.05,292.53,118.84,292.53Zm63.55,21.25h0Zm19.22-.08a.88.88,0,0,0-.29.05Zm-17.84-9.89V281l-9.6,18.84L173.07,281,162.9,301.34l-1.46-23.28-10.31,20.62,2.72-24.74-7.43,11.29-.83,4.82-1.24-.69a35.35,35.35,0,0,1-7.95-6.19,10.24,10.24,0,0,1-2.25-3.82c-2.35-6.8-.44-19.29,5.52-36.11,2.16-6.17,1.7-13.49,1.26-20.58-.11-1.71-.22-3.42-.29-5.12l-.08-1.72,7.29,3.75-2.75-8.3,7.38,2.21-3-9.62,11.33,4.19L153.56,193,168,203.3l-2.26-17.59,14.36,16,1.51-18.09,9.62,14.82,9.62-14.82,1.52,18.09,14.37-16-2.29,17.6L228.83,193l-7.23,15.06,11.32-4.19-3,9.62,7.38-2.21-2.75,8.29,8.59-4.42-.07,1.71c-.07,1.9-.19,3.85-.32,5.74-.45,7.11-.92,14.46,1.25,20.65,6,16.82,7.86,29.31,5.52,36.11h0a10.24,10.24,0,0,1-2.25,3.82c-.68.7-1.43,1.42-2.29,2.19l-.87.77-8-12.19,2.71,24.74-10.3-20.63L227,301.36,216.86,281l-1.1,18.87L206.16,281V303.8l-8.23-21.9-3,19.76-3-19.76ZM163,270.52l1.45,23.3,10.22-20.4,1.09,19,.13-.23,9.91-19.5V292.8L192.83,274,195,288.2,197.1,274l7.06,18.83V272.67l10,19.71,1.1-19,10.2,20.39L227,270.52l8.63,17.25-2.4-21.86,11.3,17.17c.48-.44.92-.88,1.33-1.3a8.31,8.31,0,0,0,1.8-3.08h0c2.19-6.37.29-18.4-5.51-34.8-2.31-6.57-1.83-14.13-1.36-21.44.08-1.3.17-2.64.24-4l-9.9,5.09,3.09-9.29-7.3,2.18,2.92-9.32-12.14,4.49,6-12.49-11.81,8.45,2-15.79-13.17,14.63-1.42-16.87-8.11,12.5-8.11-12.49-1.41,16.86L168.5,191.81l2,15.79-11.8-8.45,6,12.48-12.14-4.48,2.94,9.32-7.31-2.18,3.07,9.29-8.56-4.4c.06,1.11.13,2.23.2,3.35.46,7.29.93,14.82-1.37,21.37-5.8,16.4-7.71,28.43-5.51,34.8a8.18,8.18,0,0,0,1.8,3.08,33.75,33.75,0,0,0,6.27,5.11l.41-2.41,12.22-18.57-2.39,21.87Zm113.25-77.61a27.48,27.48,0,0,1-9-1.65,3.68,3.68,0,0,1-1.77-5.65c3.53-4.84,13.5-16,29.82-14.93a3.79,3.79,0,0,1,3,1.8,3.59,3.59,0,0,1,.21,3.35h0C295.92,181.51,289.25,192.91,276.22,192.91Zm16.87-20.3c-14.15,0-22.87,9.81-26,14.19a1.65,1.65,0,0,0-.26,1.47,1.69,1.69,0,0,0,1.08,1.1c17.5,6.13,25.93-8,28.74-14.34h0a1.59,1.59,0,0,0-.1-1.51,1.7,1.7,0,0,0-1.39-.84C294.43,172.63,293.75,172.61,293.09,172.61Zm-185.65,20.3c-13,0-19.7-11.4-22.21-17.08a3.59,3.59,0,0,1,.21-3.35,3.79,3.79,0,0,1,3-1.8c16.32-1.06,26.3,10.09,29.83,14.94a3.64,3.64,0,0,1,.55,3.24,3.7,3.7,0,0,1-2.32,2.4h0A27.38,27.38,0,0,1,107.44,192.91Zm-16.87-20.3c-.67,0-1.34,0-2,.07a1.73,1.73,0,0,0-1.39.84,1.61,1.61,0,0,0-.09,1.51c2.81,6.35,11.23,20.46,28.74,14.34a1.69,1.69,0,0,0,1.08-1.1,1.67,1.67,0,0,0-.25-1.47C113.44,182.42,104.71,172.61,90.57,172.61Zm107.13-24.7c-2,0-3.93,0-5.81-.08-16.25-.4-38.5-1-55.76-10.78-2.52-1.42-3.88-3.92-4.06-7.42-.6-11.92,13.1-32.86,18.64-36.8,21.52-15.3,60.73-15.3,82.25,0,5.55,4,19.24,24.9,18.63,36.81-.17,3.49-1.53,6-4,7.41h0C231.48,146.18,213.08,147.91,197.7,147.91Zm-5.86-64.6c-14.76,0-29.51,3.72-40,11.15-5.15,3.66-18.36,24-17.8,35.07.14,2.81,1.14,4.7,3,5.79,16.84,9.57,38.8,10.12,54.83,10.51s36.89-.45,54.62-10.51c1.9-1.09,2.89-3,3-5.78.56-11.1-12.65-31.41-17.79-35.08C221.35,87,206.59,83.31,191.84,83.31Z" style="fill:#fff"/></g></g></svg>