<svg xmlns="http://www.w3.org/2000/svg" viewBox="0 0 289.17 410"><title>Demilich</title><g id="e4d55ff0-a932-48e2-85f9-93934a17ba06" data-name="Layer 2"><g id="a5771ac7-daa9-45d6-836a-a4b35e7020a8" data-name="Layer 1"><path d="M185.81,175.4l-4.26-25.56L207.11,132l34.07,14.48L248,173.7s-23,20.44-25.56,19.59S185.81,175.4,185.81,175.4Z" style="fill:#5c7d0d"/><path d="M103.43,175.47l4.26-25.56L82.13,132,48.05,146.5l-6.81,27.27s23,20.44,25.56,19.59S103.43,175.47,103.43,175.47Z" style="fill:#5c7d0d"/><path d="M284.34,197.84l-.42-1.65c-2.12-8.41-11.13-46.85-4.89-66.5,2.62-8.21-1.17-22.59-9-38.51-13.23-27.06-38-58.5-62.5-71.38C168.72-.66,144,1,144,1v0c-5.32,0-28.46.91-62.38,18.78C56.36,33.18,30.7,66.31,17.82,94,10.91,108.79,7.67,122,10.14,129.76c5.34,16.78-.45,47.25-3.57,61-1,4.42-1.73,7.12-1.73,7.12-8.6,28.76-.82,43.16,5.69,49.72a22,22,0,0,0,6.67,4.8c-4.41,20.46,14.11,29.82,14.11,29.82,5.34,8.35,6.14,50.21,6.21,70.23a20.36,20.36,0,0,0,9.21,16.84l2.67,1.77,27.83,18.5c28.23,31.53,54.7,15.33,54.7,15.33,7.14,2.77,11.4,1.64,12.77,1.1,1.53.55,5.72,1.49,12.54-1.17,0,0,26.48,16.2,54.72-15.33l21.69-14.43h0l8.77-5.84a20.41,20.41,0,0,0,9.23-16.83c.07-20,.85-61.88,6.19-70.24,0,0,18.54-9.36,14.13-29.81a22.36,22.36,0,0,0,7-5.16C285.44,240.49,292.8,226.1,284.34,197.84ZM144.65,160.47c16.48,12,45.61,37.71,32,62.08-12.73,22.81-25,7.88-31.5-3.74v-2.1c-.18.35-.37.72-.57,1.07-.21-.38-.42-.77-.6-1.13v2.23c-6.47,11.61-18.78,26.55-31.5,3.74C98.9,198.19,128.16,172.42,144.65,160.47ZM25.14,190.24s-11.48-70.71,76.78-74.11c0,0,38.84,42.59,3.54,66.45S48.08,214.94,25.14,190.24ZM159.91,323.07c-5.7,4.32-10.84,5.21-14.73,4.91v-.07a1.33,1.33,0,0,1-.28,0,6.38,6.38,0,0,1-.89-.1v.2c-3.89.3-9-.56-14.73-4.9,0,0-71.61,8.44-57.36-14.48,1.37-2.21-2.23-18.56,7.21-29.33a24,24,0,0,1,5.2-4.43c9.8-6.13,27.53-7.95,59.68,1.62v.27l.47-.13.7.2v-.42c27.83-8.29,44.86-8,55.27-3.82a25.4,25.4,0,0,1,8.23,5.22c11.14,10.68,7.15,28.45,8.59,30.75C231.52,331.51,159.91,323.07,159.91,323.07ZM264,190.17c-22.92,24.71-45,16.2-80.31-7.66s3.55-66.45,3.55-66.45C275.51,119.46,264,190.17,264,190.17Z" style="fill:#a4a58d"/><path d="M199.55,272.62c2.8-11.61,9.59-29.38,24.66-27.06,13,2,35.38,3.4,53.88,1.65a22.4,22.4,0,0,1-7,5.16c4.4,20.45-14.13,29.81-14.13,29.81-5.34,8.36-6.13,50.22-6.19,70.24a20.41,20.41,0,0,1-9.23,16.83l-8.77,5.84c.8-2.9,1.65-5.07,1.65-6,0-4.25-11.08-80.08,2.57-88.6,0,0,14.91-20.89-29.22-2.64Z" style="fill:#2a3327;opacity:0.85"/><path d="M270.16,93.74c7.8,15.91,11.59,30.3,9,38.5-6.24,19.66,2.77,58.1,4.89,66.5-4.87-4.48-8.69-7.49-9.41-7.72C272.07,190.17,234.45,117.46,270.16,93.74Z" style="fill:#2a3327;opacity:0.85"/><path d="M11.66,188.47a17,17,0,0,0-3.19,2.32c3.12-13.78,8.91-44.25,3.57-61-2.47-7.74.77-21,7.68-35.81C49.13,120.1,14.09,187.65,11.66,188.47Z" style="fill:#2a3327;opacity:0.85"/><path d="M85.23,274.91c-2.44-11.37-9.08-31.84-25.18-29.35a251.59,251.59,0,0,1-48.63,2.07,22,22,0,0,0,6.68,4.8c-4.41,20.46,14.11,29.82,14.11,29.82,5.34,8.36,6.14,50.21,6.21,70.23a20.36,20.36,0,0,0,9.21,16.84l2.66,1.77a9.18,9.18,0,0,1-.45-2c0-4.25,11.07-80.08-2.57-88.6,0,0-15.68-22,32.75-1.15Z" style="fill:#2a3327;opacity:0.85"/><path d="M222.45,194.28a1.11,1.11,0,0,1-.33,0c-2.59-.87-35.37-17.25-36.76-18l-.46-.22-4.44-26.69L207,130.81l.51.22L242,145.71,249.12,174l-.46.4C238.36,183.6,225.65,194.28,222.45,194.28Zm-35.74-19.55c9.66,4.83,33.44,16.64,36,17.58,2.09-.27,13.8-9.73,24.21-19l-6.55-26.19-33.1-14.07L182.64,150.3Z" style="fill:#fff"/><path d="M66.79,194.36c-3.2,0-15.91-10.69-26.22-19.85l-.45-.4,7.08-28.33,35.05-14.9,26.53,18.57-4.45,26.69-.45.22c-1.4.7-34.17,17.09-36.77,17.95A1,1,0,0,1,66.79,194.36ZM42.36,173.42c10.41,9.23,22.12,18.69,24.21,19,2.52-.94,26.3-12.75,36-17.58l4.07-24.43L82,133.16,48.9,147.23Z" style="fill:#fff"/><path d="M114.75,410c-10.35,0-24.11-4-38.18-19.65l-30.39-20.2a21.35,21.35,0,0,1-9.66-17.66c-.06-18.06-.76-60.73-5.92-69.49-2.25-1.26-18.16-10.91-14.54-30a25,25,0,0,1-6.24-4.68C2.42,240.88-4.61,226,3.88,197.62c0,0,.73-2.71,1.72-7.05,2.85-12.62,8.92-43.76,3.59-60.51-2.44-7.63.31-20.61,7.72-36.53C29,67.55,54.29,33.13,81.17,19,114.13,1.61,136.91.09,143.65.07l.29,0C145,0,169.38-1.44,208,18.91,233.76,32.46,258.68,65.65,271,90.75c8.43,17.16,11.63,31.1,9,39.24-6.21,19.58,3,58.38,4.91,66l.41,1.63c8.38,28,1.59,42.83-5.58,50.32a25.3,25.3,0,0,1-6.59,5c3.63,19.09-12.3,28.73-14.56,30-3.62,6.19-5.77,31.44-5.9,69.49A21.44,21.44,0,0,1,243,370.08l-30.38,20.2c-26.45,29.45-51.82,17.61-55.46,15.67-6.44,2.41-10.64,1.69-12.45,1.13-1.81.61-6.05,1.41-12.7-1.06A38,38,0,0,1,114.75,410Zm42.59-6.26.42.26c1.06.64,26.13,15.36,53.46-15.15l.19-.16,30.48-20.27a19.46,19.46,0,0,0,8.78-16c.08-22.84,1-62.4,6.35-70.77l.14-.23.25-.12c.73-.37,17.79-9.28,13.6-28.71l-.17-.83.78-.31a22,22,0,0,0,6.66-4.92c6.8-7.11,13.22-21.27,5.1-48.39v0s-.15-.58-.42-1.66c-1.93-7.66-11.25-47-4.87-67,2.4-7.54-.85-21.3-8.92-37.76C257,66.81,232.43,34,207.09,20.68,173.1,2.78,149.84,1.94,145,2v0l-1,0C137.88,2,115.27,3.27,82.1,20.75,55.63,34.69,30.69,68.69,18.72,94.38c-7.09,15.24-9.87,28-7.63,35.07,5.28,16.6.05,45.69-3.54,61.56-1,4.39-1.74,7.13-1.75,7.16-8.65,29-.3,43,5.44,48.75a21.1,21.1,0,0,0,6.33,4.58l.78.32-.17.82c-4.2,19.48,13.41,28.62,13.58,28.71l.25.13.15.23c5.36,8.39,6.28,47.94,6.36,70.77a19.41,19.41,0,0,0,8.76,16L50,370.25l27.94,18.58.08.09c27.36,30.56,53.18,15.3,53.44,15.15l.42-.26.46.18c6.92,2.68,11,1.52,12,1.1l.35-.14.35.13c1.39.5,5.32,1.38,11.85-1.16ZM142.58,329.1A22.62,22.62,0,0,1,129,324.18c-5.16.58-51.4,5.44-58.88-6.33-1.71-2.69-1.39-6,.95-9.72A17.63,17.63,0,0,0,71.3,304c0-6,0-17.26,7.08-25.35a24.37,24.37,0,0,1,5.42-4.61c11.85-7.43,32.2-6.93,60.5,1.5l.16.05.43-.13c24.94-7.43,43.76-8.71,55.94-3.79a26.65,26.65,0,0,1,8.54,5.43c8.51,8.15,8.52,20.3,8.52,26.83a17.63,17.63,0,0,0,.23,4.11c2.34,3.76,2.66,7,.95,9.73-7.48,11.77-53.72,6.9-58.88,6.32-4.9,3.62-10,5.26-15.09,4.86H145l-.92.07C143.59,329.08,143.08,329.1,142.58,329.1Zm-16-93.58c-5.32,0-10.35-4.17-14.94-12.41-13.8-24.76,14.39-50.38,32.42-63.45l.59-.42.58.42c18,13.07,46.09,38.67,32.32,63.38-4.6,8.24-9.63,12.42-14.94,12.42h0c-7.49,0-13.86-8.36-18-15.61C140.49,227.11,134.1,235.52,126.58,235.52Zm108-29.48a40,40,0,0,1-6.2-.5c-14.16-2.24-30.1-12-45.21-22.2-8.88-6-13.93-13.71-15-22.91-2.58-21.74,17.54-44.1,18.4-45l.32-.35.46,0c29.53,1.14,51.18,9.88,64.35,26,17.62,21.54,13.41,49,13.36,49.3l0,.3-.2.22C255.24,201.11,245.52,206,234.57,206Zm-46.86-89c-2.54,2.91-19.91,23.7-17.59,43.12,1,8.6,5.79,15.82,14.16,21.48,35.81,24.19,56.79,31.58,78.81,8,.39-3,3.1-27.79-13-47.44C237.38,126.74,216.39,118.27,187.71,117.08ZM54.44,206c-10.64,0-20.3-4.63-30-15.11l-.21-.23-.05-.29c0-.28-4.26-27.76,13.37-49.3,13.16-16.09,34.82-24.83,64.36-26l.46,0,.32.34c.86.94,21,23.3,18.39,45-1.1,9.21-6.15,16.91-15,22.92C85.21,197.46,68.91,206,54.44,206ZM26.09,189.78c22,23.55,43,16.16,78.81-8,8.37-5.66,13.14-12.89,14.16-21.49,2.32-19.42-15-40.2-17.58-43.12-28.7,1.19-49.7,9.68-62.42,25.23C23,162,25.69,186.82,26.09,189.78Z" style="fill:#fff"/></g></g></svg>