<svg xmlns="http://www.w3.org/2000/svg" viewBox="0 0 357.55 428.12"><title>Deva</title><g id="aa9ba434-1980-4af2-8544-874c25a9a7d3" data-name="Layer 2"><g id="a3292b4e-31d4-4daa-bf72-fffa6c2b6944" data-name="Layer 1"><path d="M54.06,1.6a191.15,191.15,0,0,0-32.3,49l88.89,83.42L101,144.33,16,64.51A231.89,231.89,0,0,0,2.28,123.19l87.57,44.27L83.49,180l-82.3-41.6a259.19,259.19,0,0,0,4.1,56.66l75.79,6.27-1.15,14-71.6-5.92c.56,2.33,1.14,4.67,1.77,7a268.83,268.83,0,0,0,12.34,35.76c6.61-1.21,13.43-2.46,21-3.88,20.17-3.8,40-7.59,40-7.59l2.64,13.83S66.2,258.42,46,262.22L28.52,265.5a252.39,252.39,0,0,0,22.36,36.94l45.87-25.85,6.91,12.28-44,24.83A229.72,229.72,0,0,0,89.5,343.86l12.93-15.34c1-15.48,3.74-28.44,10.84-39A46.35,46.35,0,0,1,133.74,273a115.33,115.33,0,0,1-14.42-32.68c-10.95-40.82.44-81.79,27.45-104.11L54.06,1.6Zm249.43,0L210.78,136.2c27,22.32,38.43,63.28,27.47,104.11A114.94,114.94,0,0,1,224,272.71c9.3,4.06,16.25,10.18,20.73,17.83,5.89,10,7.91,21.95,8.6,35.79l14.77,17.53A230.27,230.27,0,0,0,298,313.7l-44-24.83,6.92-12.28,45.87,25.85a251,251,0,0,0,22.36-36.94l-17.5-3.28c-20.2-3.8-40.08-7.61-40.08-7.61l2.64-13.83s19.88,3.79,40.05,7.59c7.39,1.39,14.48,2.71,21,3.91a268.35,268.35,0,0,0,12.35-35.79c.62-2.33,1.21-4.67,1.76-7l-71.59,5.92-1.16-14,75.79-6.26a257.93,257.93,0,0,0,4.08-56.66L274.06,180l-6.36-12.58,87.6-44.27a231.8,231.8,0,0,0-13.69-58.71l-85.05,79.85-9.66-10.28,88.89-83.42a191.15,191.15,0,0,0-32.3-49Zm-126,196.82c-7.88,0-15.21,4-20.95,11.4s-9.54,18-9.54,29.92,3.8,22.55,9.54,29.93,13.07,11.42,20.95,11.42,15.18-4,20.92-11.42,9.54-18,9.54-29.92-3.81-22.55-9.54-29.93-13-11.4-20.92-11.4Zm29.87,83.83c-7.81,8.4-18.27,13.83-29.87,13.83-11.28,0-21.48-5.13-29.22-13.13q-3,.75-5.61,1.65c-8.64,3-13.86,7.14-17.67,12.8-6.92,10.3-8.7,27.93-9,52.2h123.5c-.1-23.78-.87-41.6-6.93-51.94-3.33-5.7-8-9.77-16.26-12.87a60.72,60.72,0,0,0-9-2.54Z" style="fill:#a6a29b"/><path d="M240.48,350.6H115v-1c.27-23.9,1.93-42,9.14-52.75,4.15-6.16,9.75-10.23,18.17-13.18,1.7-.6,3.61-1.16,5.7-1.68l.56-.14.4.42c8,8.26,18.11,12.82,28.5,12.82,10.69,0,21-4.8,29.14-13.51l.38-.42.55.12a61.5,61.5,0,0,1,9.13,2.59c8.07,3,13.08,7,16.76,13.29,6.38,10.88,7,30.19,7.07,52.45ZM117,348.6H238.47c-.1-21.54-.75-40.15-6.78-50.44-3.43-5.86-8.14-9.58-15.75-12.43a59.45,59.45,0,0,0-8.28-2.39c-8.42,8.86-19.13,13.74-30.21,13.74-10.76,0-21.22-4.62-29.53-13-1.81.47-3.48,1-5,1.49-8,2.8-13.28,6.62-17.17,12.41C118.94,308.12,117.29,325.56,117,348.6Zm-27.37-3.34-.77-.64a231.54,231.54,0,0,1-30-30.28l-.76-.92,44.2-24.93L96.37,278,50.6,303.75l-.53-.72a254.09,254.09,0,0,1-22.45-37.09L27,264.75l1.3-.24c5.57-1,11.44-2.13,17.48-3.27,17.44-3.28,34.83-6.61,39.09-7.42L82.64,242c-4.23.81-21.52,4.1-39,7.4-6.21,1.17-11.94,2.22-17.45,3.24l-4.31.79-.32-.73a271.73,271.73,0,0,1-12.39-35.9c-.56-2.11-1.13-4.34-1.77-7L7,208.38l72,6,1-12.05L4.45,196l-.14-.75A259.93,259.93,0,0,1,.19,138.4l.06-1.56,82.8,41.86,5.45-10.79L1.21,123.78l.07-.69A232.51,232.51,0,0,1,15,64.15l.53-1.4L101,142.91l8.27-8.81L20.55,50.86l.3-.65A192.08,192.08,0,0,1,53.32.93L54.17,0l93.94,136.39-.7.58c-27.24,22.5-37.88,63-27.12,103.08a114.4,114.4,0,0,0,14.29,32.4l.64,1-1.08.47a45.46,45.46,0,0,0-20,16.18c-6.21,9.24-9.5,21.11-10.67,38.51l0,.32ZM61.16,314a228.71,228.71,0,0,0,28.21,28.47l12.08-14.33c1.22-17.58,4.61-29.67,11-39.15a47,47,0,0,1,19.83-16.42,116.89,116.89,0,0,1-13.91-32c-10.87-40.52-.25-81.44,27.07-104.55L54,3.21A190.25,190.25,0,0,0,23,50.39L112.07,134l-11,11.73L16.37,66.26a231.44,231.44,0,0,0-13,56.35L91.19,167l-7.26,14.37L2.14,140a257.46,257.46,0,0,0,4,54.13l76,6.28-1.32,16L9.63,210.6c.51,2.09,1,3.9,1.43,5.63a269.55,269.55,0,0,0,12,34.9l2.74-.51c5.51-1,11.23-2.07,17.44-3.24,20.17-3.79,40-7.58,40-7.58l1-.19,3,15.79-1,.19c-.2,0-20.12,3.86-40.08,7.61l-16.18,3a250.23,250.23,0,0,0,21.16,34.89l46-25.9,7.89,14ZM268,345.26l-15.63-18.55,0-.33c-.8-16-3.33-26.56-8.46-35.34-4.48-7.64-11.3-13.5-20.27-17.42l-1.08-.47.64-1a114.33,114.33,0,0,0,14.15-32.12c10.76-40.1.1-80.57-27.14-103.08l-.71-.58.52-.76L303.38,0l.85.93A191.74,191.74,0,0,1,336.7,50.21l.3.65-.52.5L248.31,134.1l8.29,8.81L342,62.73l.53,1.4a232.8,232.8,0,0,1,13.74,59l.07.69L269.05,167.9l5.46,10.8,82.79-41.86.06,1.56a260.52,260.52,0,0,1-4.09,56.88l-.14.75-75.56,6.25,1,12.05,72-6-.32,1.35c-.63,2.63-1.21,4.92-1.78,7a270.41,270.41,0,0,1-12.39,35.92l-.31.74-.79-.15c-6.5-1.2-13.59-2.52-21-3.91-17.53-3.3-34.83-6.59-39.07-7.4l-2.27,11.87c4.26.81,21.66,4.14,39.09,7.42,6,1.14,11.93,2.24,17.51,3.27l1.3.24-.59,1.19A253.22,253.22,0,0,1,307.5,303l-.52.72L261.2,278l-5.94,10.53,44.23,24.92-.76.92a231.06,231.06,0,0,1-30,30.29Zm-13.67-19.32,13.91,16.51A228.77,228.77,0,0,0,296.42,314l-43.89-24.73,7.91-14,46,25.9a251.19,251.19,0,0,0,21.16-34.89l-16.21-3c-20-3.75-39.88-7.57-40.08-7.61l-1-.19,3-15.79,1,.19s19.88,3.79,40.05,7.58c7.08,1.34,13.9,2.61,20.17,3.77a268.7,268.7,0,0,0,12-34.92c.46-1.71.93-3.56,1.44-5.63l-71.22,5.88-1.32-16,1-.08,75-6.2a258.85,258.85,0,0,0,4-54.14l-81.8,41.36L266.36,167l87.87-44.41a230.74,230.74,0,0,0-13-56.37l-84.69,79.5-11-11.73.73-.68,88.36-82.94a189.88,189.88,0,0,0-31-47.18L212.12,136c27.33,23.12,38,64,27.1,104.55a116.16,116.16,0,0,1-13.78,31.7A44,44,0,0,1,245.57,290C250.85,299,253.46,309.79,254.29,325.94Zm-76.84-43.85c-8.1,0-15.81-4.19-21.74-11.81-6.2-8-9.75-19.1-9.75-30.53s3.55-22.57,9.75-30.54c5.91-7.6,13.63-11.79,21.74-11.79h0c8.2,0,15.71,4.08,21.71,11.79,6.19,8,9.75,19.1,9.75,30.54s-3.56,22.56-9.75,30.53C193.15,278,185.64,282.09,177.45,282.09Zm0-82.67c-7.58,0-14.55,3.81-20.16,11-5.93,7.62-9.33,18.3-9.33,29.31s3.4,21.68,9.33,29.3c5.62,7.23,12.59,11,20.16,11s14.51-3.81,20.13-11c5.93-7.62,9.33-18.3,9.33-29.3s-3.4-21.69-9.33-29.31c-5.61-7.21-12.57-11-20.13-11Z" style="fill:#fff"/><path d="M305.44,394.9c-10.5-3.94-18.82-7.9-24.94-12.09V407C286.62,402.8,294.94,398.84,305.44,394.9Z" style="fill:#a6a29b"/><path d="M272.89,382c-9.14-4.43-15.31-10.08-18.8-16.9l-1.38-2.71L250.23,364c-12.52,8.24-21.08,13.09-32.73,17.21l.38,25.57c11.78,4.47,20.5,9.58,33.27,18.2l2.52,1.7L255,424c3.28-6.72,9.28-12.19,18.29-16.35Zm-22-12c4.08,6.57,10.38,12,18.69,16.19a24.18,24.18,0,0,1-15.79-7.61l-1.18-1.17-1.55.49c-11.67,3.73-23.37,7.37-31.9,8.43C230.58,382.22,239.44,377.35,250.9,369.91Zm-28.61,25.91,45.77,1.51.08,2a26.93,26.93,0,0,0-15.79,7l-.44.39-.79-.27c-10.06-3.49-20.47-7.1-29-8.66Zm-.11-4.58c8.66-1.32,18.87-4.6,29.16-7.9a29.92,29.92,0,0,0,16.58,7.77ZM251.63,419c-11.69-7.78-20.7-12.92-32.23-17.29,8.57,1.32,20.38,5.31,32.17,9.4l1.56.54,1.15-1.14a22.66,22.66,0,0,1,15.57-7.14C261.66,407.37,255.52,412.57,251.63,419Z" style="fill:#a6a29b"/><path d="M251.34,383.33a29.91,29.91,0,0,0,16.58,7.78h0l-45.75.13c8.67-1.33,18.87-4.61,29.17-7.91m-.31-.95-.22.07c-10,3.2-20.26,6.5-28.79,7.8l.15,2,45.75-.13.14-2A28.89,28.89,0,0,1,252,382.6l-1-.22Z" style="fill:#fff"/><path d="M254.06,428.12l-3.48-2.34c-12.19-8.23-21.07-13.55-33.06-18.1l-.63-.24-.41-27,.68-.24c11.85-4.18,20.57-9.24,32.52-17.1l3.41-2.24,1.89,3.7c3.41,6.68,9.58,12.21,18.34,16.45l.55.27.41,27-.59.28c-8.62,4-14.61,9.31-17.82,15.87Zm-35.19-22.07c11.85,4.56,20.73,9.9,32.83,18.07l1.57,1.06.8-1.64c3.34-6.83,9.46-12.39,18.19-16.53l-.37-24.44c-8.86-4.4-15.15-10.14-18.69-17.07l-.88-1.71-1.54,1c-11.85,7.8-20.57,12.87-32.28,17.08Z" style="fill:#fff"/><path d="M250.59,371.29a44,44,0,0,0,13,12.5,24.69,24.69,0,0,1-9.06-6l-1.18-1.18-.43-.43-.58.19-1.55.49c-7.52,2.41-14.84,4.7-21.3,6.32a160.52,160.52,0,0,0,21.13-11.88m.3-1.38c-11.46,7.43-20.32,12.3-31.72,16.33,8.53-1.06,20.23-4.7,31.9-8.43l1.55-.5,1.17,1.18a24.18,24.18,0,0,0,15.8,7.61c-8.32-4.24-14.61-9.62-18.7-16.19Zm18.7,16.19Z" style="fill:#fff"/><path d="M230,405.18c6.44,1.81,13.74,4.29,21.24,6.89l1.56.54.6.2.44-.44,1.14-1.14a22.52,22.52,0,0,1,9.08-5.79,40.26,40.26,0,0,0-12.73,12.18A176.15,176.15,0,0,0,230,405.18m-10.6-3.45c11.53,4.37,20.54,9.51,32.23,17.29,3.89-6.45,10-11.65,18.22-15.63h0a22.65,22.65,0,0,0-15.58,7.13l-1.14,1.14-1.56-.54c-11.79-4.08-23.61-8.07-32.17-9.39Z" style="fill:#fff"/><path d="M279.5,408.89v-28l1.56,1.07c5.88,4,14,7.95,24.73,12l2.49.94-2.49.94c-10.76,4-18.84,8-24.73,12Z" style="fill:#fff"/><path d="M281.5,384.67v20.46a120.92,120.92,0,0,1,21.13-10.23A119.86,119.86,0,0,1,281.5,384.67Z" style="fill:#a6a29b"/><path d="M252,407.31l-1.06-.37c-10.05-3.48-20.43-7.09-29-8.65l-.46-.08.31-2.9h.46l46.24,1.52.12,2.92-.46.05a26.51,26.51,0,0,0-15.52,6.9Zm-29.4-9.91c8.53,1.61,18.76,5.16,28.66,8.6l.51.17.22-.2a27.36,27.36,0,0,1,15.61-7.1l0-1.06-44.84-1.48Z" style="fill:#fff"/><polygon points="209.75 373.29 202.28 373.29 202.28 413.11 209.75 413.11 209.75 408.61 209.75 377.79 209.75 373.29" style="fill:#a6a29b"/><rect x="169.93" y="383.66" width="25.71" height="19.08" style="fill:#a6a29b"/><rect x="155" y="377.02" width="7.47" height="32.35" style="fill:#a6a29b"/><rect x="123.48" y="383.66" width="24.05" height="19.08" style="fill:#a6a29b"/><rect x="108.55" y="377.02" width="7.47" height="32.35" style="fill:#a6a29b"/><polygon points="101.09 383.66 61.66 383.66 52.12 393.2 61.66 402.74 101.09 402.74 101.09 383.66" style="fill:#a6a29b"/><polyline points="210.75 396.89 210.75 414.11 201.28 414.11 201.28 372.29 210.75 372.29 210.75 396.89" style="fill:#fff"/><rect x="203.28" y="374.29" width="5.47" height="37.82" style="fill:#a6a29b"/><rect x="154" y="376.02" width="9.47" height="34.35" style="fill:#fff"/><rect x="156" y="378.02" width="5.47" height="30.35" style="fill:#a6a29b"/><rect x="107.55" y="376.02" width="9.46" height="34.35" style="fill:#fff"/><rect x="109.55" y="378.02" width="5.46" height="30.35" style="fill:#a6a29b"/><rect x="122.48" y="382.66" width="26.05" height="21.08" style="fill:#fff"/><rect x="124.48" y="384.66" width="22.05" height="17.08" style="fill:#a6a29b"/><rect x="168.93" y="382.66" width="27.71" height="21.08" style="fill:#fff"/><rect x="170.93" y="384.66" width="23.71" height="17.08" style="fill:#a6a29b"/><polygon points="102.09 403.74 61.24 403.74 50.7 393.2 61.24 382.66 102.09 382.66 102.09 403.74" style="fill:#fff"/><polygon points="62.07 401.74 100.09 401.74 100.09 384.66 62.07 384.66 53.53 393.2 62.07 401.74" style="fill:#a6a29b"/></g></g></svg>