<svg xmlns="http://www.w3.org/2000/svg" viewBox="0 0 435.92 435.12"><title>Dinosaur - (Herbivore)</title><g id="fdc38b76-18c6-4ae6-912a-e27d2ab668ed" data-name="Layer 2"><g id="ad9d0326-a107-486a-8286-652fcdae4d1a" data-name="Layer 1"><path d="M302,1.4c-18.38.13-38,6.16-44.7,23.52-11,3.47-17.66,9.71-17.68,16.44,0,10.1,14.88,18.47,34,19.15,16.42,4,39.61-3.54,52.23-23.34,20.87,9,46.53,20.17,52.52,43.76,12.07,47.54-17.86,136.76-35.47,142.8-50.52,17.33-106.24,19.64-141.42,42.38-40.6,26.24-66.93,76.29-103.65,85.76C68,359.57,8.8,345.16,1.51,368.57c-1.11,8.07,5.58,15.43,24,.07,26.6,7.22,98.5,32.78,166.2-21.47q6.41,4,13.17,7.33c.92,25.8,7.52,53.43,11.62,79.23h43.32l-4.56-41.24c4.63-15.12,10.21-23.79,13.63-40.2l16.39,3.21c-1.87,9.51-3.63,11.39-7,20.48a244.37,244.37,0,0,0,31.43-1c-7.15-16.48-11-38.53-14.73-53.21l16.18-4.09c5.12,20.24,13.31,48.37,16.68,55.93,3,6.74,10.49,60.07,10.49,60.07h34.52l7-79.52c26.52-15.7,35.33-34.44,40.47-55.86,18-74.8,22.16-156.52-6.91-226.17-18.19-43.6-53.2-56.36-85.21-66.79A79.53,79.53,0,0,0,302,1.4ZM417.42,342.11a115.84,115.84,0,0,1-21.7,20.66c-1.84,22.87-3.56,47.89-5.45,71h30.39s-1.83-52.79-3.24-91.62ZM311.14,391.26a229.16,229.16,0,0,1-36.95.27l4.49,42.2h38.76Z" style="fill:#59961e"/><path d="M422.1,435.12H388.76l.12-1.5c1-12.29,2-25.33,2.93-37.93.82-11,1.66-22.35,2.52-33l.06-.63.51-.38a115.19,115.19,0,0,0,21.43-20.41l2.34-2.91.14,3.73c1.4,38.38,3.22,91.1,3.24,91.63Zm-30.32-2.78h27.44c-.29-8.44-1.81-52.19-3.06-86.54a119.41,119.41,0,0,1-19.1,17.71c-.85,10.49-1.68,21.62-2.48,32.39C393.68,408,392.74,420.48,391.78,432.34Zm-17.62,2.78h-37l-.17-1.19c-2.57-18.38-8.06-54.51-10.38-59.71-3.3-7.4-11.27-34.65-16.41-54.8l-13.5,3.41c.83,3.33,1.66,7,2.53,10.86,3,13.38,6.48,28.54,11.8,40.79l.77,1.77-1.93.17a242.18,242.18,0,0,1-31.62.95l-1.9-.09.66-1.78c1.07-2.86,2-5,2.77-6.9a55.9,55.9,0,0,0,3.9-12L270,353.92c-2,9.23-4.73,16-7.58,23.06-1.91,4.79-3.9,9.74-5.72,15.64l4.7,42.5H215.35l-.19-1.17c-1.18-7.42-2.59-15.17-4-22.66-3.4-18.54-6.9-37.7-7.64-55.91-4-2-7.91-4.18-11.71-6.51-27.29,21.61-58.48,32.87-92.73,33.48-28.64.49-53.41-6.55-68.22-10.76l-5-1.42C13.86,380,7.33,379.88,4,378c-3-1.67-4.44-5.27-3.83-9.63l0-.22C5.09,352.4,30.26,352.68,56.91,353c14.63.17,29.77.34,40.62-2.46,20.54-5.3,38-23.82,56.57-43.43,14.29-15.13,29.08-30.77,46.67-42.15C222.33,251,251.4,244.69,282.18,238c19.92-4.33,40.52-8.8,60.32-15.6,8-2.75,19.78-25.84,28-54.9,9.39-33.29,11.86-65.53,6.6-86.24-5.74-22.6-30.4-33.61-50.64-42.36-13.39,20-37.09,26.8-52.95,23-20.06-.76-35.18-9.57-35.21-20.54,0-7.3,6.74-13.83,18-17.56C264.94,2.57,291.1.08,302,0h0a80.56,80.56,0,0,1,26.64,4.08c28.24,9.2,66.95,21.82,86,67.56,13.7,32.84,20.83,70.41,21.19,111.68.32,35.93-4.46,74.74-14.21,115.36C417,318.14,408.86,338.43,381.18,355Zm-34.59-2.78h32l6.92-79,.62-.36c25.77-15.25,34.56-33,39.83-55,20.83-86.77,18.46-164.68-6.84-225.32-17.2-41.21-48.38-54.27-84.36-66a78.15,78.15,0,0,0-25.73-3.92h0c-10.46.07-35.63,2.43-43.42,22.63l-.24.62-.63.2c-10.29,3.26-16.69,9.06-16.7,15.12,0,9.3,14.36,17.11,32.66,17.76l.28,0c15.19,3.72,38.14-3,50.73-22.74l.64-1,1.09.47c21,9.07,47.13,20.37,53.31,44.7,5.37,21.15,2.89,53.93-6.62,87.68-7.23,25.66-19.24,53.17-29.75,56.78-19.95,6.84-40.63,11.33-60.63,15.68-30.52,6.63-59.36,12.89-80.49,26.55C185,278.47,170.3,294,156.12,309c-18.81,19.91-36.57,38.72-57.9,44.21-11.21,2.9-26.53,2.72-41.35,2.56-24.38-.27-49.6-.56-54,13.11-.4,3.12.5,5.62,2.44,6.7,1.75,1,7.14,2.14,19.34-8l.56-.46.69.19q2.61.7,5.76,1.61c28.86,8.22,96.46,27.46,159.21-22.82l.77-.62.83.52c4.22,2.62,8.62,5.07,13.06,7.26l.74.37,0,.83c.65,18.26,4.2,37.62,7.62,56.34,1.31,7.12,2.65,14.46,3.8,21.55h40.58l-4.43-40,.09-.28c1.88-6.13,3.91-11.21,5.88-16.13,2.93-7.33,5.7-14.25,7.72-23.95l.28-1.34L287,354.4l-.27,1.36a59.11,59.11,0,0,1-4.35,13.92c-.61,1.45-1.28,3.05-2,5a247.09,247.09,0,0,0,27.43-.86c-5-12.14-8.29-26.64-11.21-39.51-1-4.36-1.93-8.49-2.85-12.14l-.34-1.35L312.2,316l.34,1.35c5.1,20.16,13.28,48.26,16.6,55.7C332,379.44,338.41,424.2,339.57,432.34Zm-20.52,2.78H277.43L272.64,390l1.65.11a227.15,227.15,0,0,0,36.71-.26l1.32-.13Zm-39.12-2.78h35.9L310,392.77a231.43,231.43,0,0,1-34.21.26Z" style="fill:#fff"/></g></g></svg>