<svg xmlns="http://www.w3.org/2000/svg" viewBox="0 0 323.88 322.76"><title>Dinosaur - (Carnivore)</title><g id="a198b27b-a520-43ea-a6e1-0add58efa91d" data-name="Layer 2"><g id="b9fcdf61-231b-4bea-b4f1-f1e20f7cea51" data-name="Layer 1"><path d="M156.71,1.5a76.75,76.75,0,0,0-29.63,6.19q-7.83-.6-15.16-.61c-61,0-96.35,31.37-110.42,85.07V321.26H129c-3.49-36.72,3.53-76.81,18.37-104.13a437.79,437.79,0,0,0-57.81-6.21l-5.15-.18-.82-5.12c-6.39-39.71-6.82-80.16,14.85-118.84l11,6.15C90.44,126.78,89.89,162,95.3,198.7c55.06,2.75,114.63,17,161.2,36.93,15.31-3.86,22.78-20,28.18-44.11l-21.53,14.56-6.75-29.92L225.63,197l-7.26-32.13-29.13,19.67-7.19-31.86L152.54,172.6l-10.1-44.72,47.71-32.26,7.2,31.88,29.5-20,7.26,32.14L263.24,120,270,149.9l30.75-20.8L305.92,152c14-18.17,23.72-44.81,9.7-57.43a403.51,403.51,0,0,0-53.48-40.79C257.72,37,221.05,1.89,199,21.58,189.28,7.16,173.1,1.46,156.71,1.51Zm1.47,14.57a21.92,21.92,0,0,1,21.95,22.07,22.38,22.38,0,0,1-.86,6.17,12.72,12.72,0,1,0-19,15.82c-.7.07-1.4.09-2.11.09a22.08,22.08,0,0,1,0-44.15Z" style="fill:#cd7b47;fill-rule:evenodd"/><path d="M130.64,322.76H0l.05-231C15,34.63,52.66,5.63,111.92,5.58c4.63,0,9.67.2,14.9.59A78.74,78.74,0,0,1,156.7,0h1.51V0c17.69.32,32.17,7.15,41.09,19.37,6.63-5.21,15-6.47,24.37-3.67,17.77,5.35,36,24.49,39.76,37.15A403.2,403.2,0,0,1,316.62,93.5c14.11,12.7,5.89,39.52-9.52,59.46l-1.94,2.52-5.4-23.9L269,152.37l-6.75-29.91-29.13,19.7L225.87,110,196.37,130l-7.2-31.89-45,30.46,9.39,41.58L183,150.18,190.22,182l29.13-19.68,7.26,32.14,30.77-20.82,6.75,29.93L287,188.16l-.82,3.69c-4.45,19.84-11.4,40.73-29.28,45.24l-.49.12-.46-.2C208.17,216.6,148.1,202.83,95.22,200.2L94,200.13l-.18-1.21c-4.36-29.6-6.71-68.23,13.58-105.41L99,88.82c-22.38,40.94-19.24,83.75-14,116.56l.62,3.9,3.93.15a438,438,0,0,1,58,6.22l2.06.36-1,1.84C134,244.91,127,284.48,130.49,321.12ZM3,319.76H127.35c-3.1-35.91,3.63-74.42,17.71-101.5a433.91,433.91,0,0,0-55.56-5.84l-6.39-.23-1-6.33c-5.4-33.65-8.59-77.68,15-119.81l.73-1.31,13.6,7.61-.73,1.31C90.38,130,92.38,168,96.6,197.26c52.74,2.8,112.42,16.51,160,36.79,12.08-3.3,19.88-15.12,25.73-39.14l-20.18,13.65-6.75-29.93-30.77,20.82-7.26-32.14L188.26,187l-7.19-31.87-29.51,20-10.81-47.87,50.38-34.06,7.2,31.88,29.5-20,7.26,32.14,29.13-19.7,6.75,29.9,30.75-20.79,4.94,21.9c13.32-18.49,20.13-41.85,8-52.8a401.27,401.27,0,0,0-53.28-40.64l-.5-.31-.15-.57C257.9,43.62,240.77,24,222.81,18.6c-9-2.72-16.71-1.34-22.8,4.1l-1.28,1.15-1-1.43C189.32,9.9,174.81,3,156.91,3H156a75.65,75.65,0,0,0-28.31,6.06l-.34.14-.37,0c-5.25-.41-10.28-.61-14.94-.61h-.1C54.26,8.63,17.61,36.8,3,92.34Zm155.18-258a23.58,23.58,0,0,1,0-47.15h0a23.53,23.53,0,0,1,23.45,23.57,24,24,0,0,1-.92,6.58l-1.07,3.74L177.92,45a11.22,11.22,0,1,0-16.74,14l3.15,2.34-3.9.36C159.76,61.69,159.05,61.72,158.18,61.72Zm0-44.15a20.58,20.58,0,0,0-1.55,41.09,14.07,14.07,0,0,1-3-8.73,14.22,14.22,0,0,1,24.87-9.44,20.61,20.61,0,0,0-20.32-22.92Z" style="fill:#fff"/></g></g></svg>