<svg xmlns="http://www.w3.org/2000/svg" viewBox="0 0 402.67 400.5"><title>Dinosaur - (Aquatic)</title><g id="e360ebb1-d22a-4beb-a4b9-ff1fe80fd644" data-name="Layer 2"><g id="a0c88f0e-b02a-4bd5-90de-4a16031960db" data-name="Layer 1"><path d="M347.61,2c-24.77,3.15-43.35,8.6-43.08,31.89.67,19.66,3.32,56.25,5.86,74.28l43.22,27.6c-3.8-22.76-6.86-60.59-11.75-82.12,15.64,3.65,58,2.27,59.25-13.7,0-4.21-4.27-8.25-11.82-11.21a13,13,0,0,0,.58-3.63C389.87,12.3,370.76-1,347.61,2Z" style="fill:#3290a0"/><path d="M355.73,138.93,309,109.05l-.1-.71c-2.52-17.88-5.18-54-5.88-74.44C302.68,8.25,324.76,3.29,347.41.41l.2,1.55-.2-1.55c13.54-1.72,27.4,2,36.18,9.75,5.05,4.45,7.84,9.75,7.84,14.91a14.4,14.4,0,0,1-.3,2.7c7.44,3.19,11.53,7.47,11.54,12.14V40c-.25,3.39-2.09,6.36-5.45,8.83C385.57,57.4,357.64,58,343.9,55.61c2.69,12.78,4.81,30.23,6.86,47.15,1.47,12.13,2.86,23.58,4.39,32.72ZM311.84,107.2l39.69,25.35c-1.33-8.55-2.56-18.72-3.86-29.42-2.17-17.89-4.42-36.39-7.32-49.17l-.56-2.43,2.43.57c11.8,2.75,41.68,2.66,53.15-5.76,2.57-1.88,4-4.06,4.18-6.48-.05-3.5-4-7-10.83-9.71l-1.34-.53.42-1.38a11,11,0,0,0,.51-3.19c0-4.23-2.41-8.7-6.78-12.55-8.13-7.16-21-10.61-33.72-9-26.61,3.39-42,9.43-41.73,30.33C306.77,53.84,309.36,89.18,311.84,107.2Z" style="fill:#fff"/><path d="M1.56,132.72v16.43c15.45-6.54,33-11.33,42.44-9.37,16.23,9.06,23.71,34.59,41.6,37.37,8.19.9,15.64-1.71,21.85-5.5s11.49-8.72,16.55-13.49c10.11-9.54,19.1-17.65,27.8-18.24,13-.88,26.34,7.91,41.09,18.05s31.08,21.71,51,19.17c14-1.8,22.45-12.69,29.78-21.37s13.49-15.14,20.07-15.88c32.5,2.44,54.47,35.9,83.06,37.31,7.73.2,15.94-1.83,23.88-4.69V156.18c-9,3.49-18.07,6.08-23.48,5.93-12.11-.32-24.42-9.09-37.91-18.8S310.69,122.8,292,124.9c-20.41.48-35.07,34.86-50.07,37.27-35-2-60.25-38.65-91.16-37.3-16.18,1.09-27.23,13-37.13,22.31-7.48,6.71-16.52,15.91-26.41,15-23.3-11.44-24-36.76-47-38C26.7,124.05,12.41,128.35,1.56,132.72Z" style="fill:#0fd9ed"/><path d="M238.28,179.05c-17.53,0-32.28-10.16-45.45-19.22l-.82-.58c-15.88-10.92-28-18.57-40.1-17.78-7.94.54-16.49,8.06-26.84,17.82-4.83,4.56-10.3,9.72-16.81,13.69-7.58,4.62-15.26,6.55-22.83,5.72-10.81-1.68-18-11-24.91-20.06-5.11-6.68-10.4-13.58-17.07-17.38-8.19-1.57-24,2-41.29,9.33L0,151.5V131.67l1-.39c10-4,24.91-8.8,39.3-8.69,13.41.73,19.71,9.21,26.38,18.19,5.42,7.31,11,14.86,21,19.85,8.24.61,16-6.5,22.9-12.77l2-1.84c.8-.75,1.63-1.55,2.48-2.36,9.47-9,20.2-19.31,35.59-20.35,16.13-.68,30.32,8.33,45.36,17.88,14.22,9,28.93,18.38,45.81,19.41,6.08-1.08,12.5-8.27,19.29-15.87,8.81-9.88,18.79-21.06,30.77-21.39,19.31-2.14,34.69,8.94,48.25,18.71,13,9.35,25.26,18.19,37,18.5,4.68.08,13-2,22.86-5.83l2.12-.82v19.7l-1,.37c-9.43,3.41-17.43,5-24.45,4.78-14.46-.71-26.89-9.09-40.05-18s-26.81-18.07-42.94-19.33c-6.2.79-12.48,7.69-18.91,15.31l-1.18,1.4c-7,8.35-15.71,18.74-29.59,20.51A45.52,45.52,0,0,1,238.28,179.05ZM153.69,138.3c12.35,0,24.51,7.68,40.08,18.39l.83.57c14.13,9.73,30.14,20.75,49.05,18.33,12.67-1.62,20.61-11.08,27.61-19.42l1.18-1.4c7.16-8.5,13.69-15.59,21.08-16.43h.3c17,1.28,31,10.73,44.6,19.87,12.78,8.62,24.87,16.76,38.42,17.43,6.33.18,13.63-1.21,22.24-4.23v-13c-9.29,3.46-17.2,5.37-22,5.23-12.74-.34-25.39-9.45-38.78-19.1-13.12-9.45-28-20.16-46.15-18.13h-.14c-10.65.25-19.77,10.47-28.59,20.35-7.23,8.1-14.06,15.75-21.28,16.91l-.16,0h-.17c-17.77-1-32.87-10.62-47.48-19.9s-28.41-18.06-43.52-17.4c-14.22,1-24.52,10.81-33.61,19.49-.85.81-1.69,1.62-2.52,2.4l-2,1.86c-7.07,6.44-15.88,14.46-25.58,13.53l-.28,0-.25-.13c-10.84-5.32-17-13.6-22.42-20.91-6.48-8.74-12.09-16.29-24-16.94-13.35-.1-27.36,4.25-37.06,8.08v13c13.85-5.64,31.33-10.61,41.21-8.56l.23.05.21.11c7.33,4.09,12.87,11.33,18.24,18.32,6.86,8.95,13.33,17.4,22.84,18.87,6.8.74,13.82-1,20.8-5.29,6.23-3.8,11.57-8.84,16.29-13.29,11.17-10.55,19.78-18.05,28.77-18.66C152.36,138.32,153,138.3,153.69,138.3Z" style="fill:#fff"/><path d="M318.85,162.89c2.69,18,6,34.38,8.09,51.92,1.58,7.12-2.87,16.25-9.66,14.77-114.79-36.25-195.4-22-260.66,17.32-11,7.18-43.32.38-53.2,11.11-3.54,4.65,33.09,21,42.35,32A75.18,75.18,0,0,0,59.63,303.2a220.19,220.19,0,0,1,27-23.9l9.08,12c-22.65,17.09-40,37-49,55.5-8,16.55-9.37,31.15-3.48,43.14,19.53-3.33,37.18-9,49.41-20.74,13.29-12.77,21.65-33.06,19.24-69.29l15.06-1a158.54,158.54,0,0,1-.85,31.9c28,6.23,59.66,8.74,90.57,7.1q8.1-.43,16.1-1.27c5.27-13.13,13.44-27,24.28-41.56l12.11,9c-17,22.9-26.19,43-27.95,59.14-1.58,14.46,2.09,25.65,12,35.36,18-8.78,34.35-19.65,43.66-34.91,10.07-16.53,13.17-38.6.69-72.56l14.17-5.2A150.86,150.86,0,0,1,319,313c52.64-36.53,48-73.52,42.17-122.38-15.29-10-27.85-18.3-42.33-27.68Z" style="fill:#3290a0"/><path d="M252.85,400.5l-.79-.77c-10.12-10-14.07-21.59-12.42-36.64,1.8-16.46,11.25-36.71,27.33-58.65l-9.62-7.14c-10.42,14.2-18.21,27.64-23.16,40l-.35.88-.93.09c-5.55.57-11,1-16.18,1.27a341.34,341.34,0,0,1-91-7.13l-1.4-.31.2-1.42a155.94,155.94,0,0,0,.94-30l-12,.79c1.89,32.23-4.42,54.16-19.82,69-10.88,10.44-26.84,17.17-50.23,21.15l-1.14.2-.52-1c-6-12.29-4.87-27.26,3.48-44.5,9.07-18.72,26.16-38.25,48.21-55.12l-7.22-9.56a219.22,219.22,0,0,0-25.53,22.79l-.95,1-1.11-.83A76.24,76.24,0,0,1,44.55,291C40.39,286.08,30,279.7,20.79,274.08,9,266.86,2.3,262.62,1.67,259.28a2.71,2.71,0,0,1,.51-2.21l.09-.11c5.91-6.42,18.52-7,30.71-7.56,9.38-.43,18.23-.83,22.79-3.8,35.42-21.35,72.19-33.53,112.46-37.25,45.26-4.19,94.14,2.27,149.45,19.72a5.09,5.09,0,0,0,4.83-1.61c2.57-2.58,3.79-7.34,2.91-11.32l0-.15c-1.28-10.71-3-20.81-4.78-31.51-1.11-6.58-2.25-13.38-3.3-20.36l-.51-3.42,2.9,1.88c14.34,9.3,26.59,17.34,42.34,27.69l.6.4.17,1.4c5.73,48.19,10.25,86.26-42.91,123.16l-2,1.41-.4-2.43A149.89,149.89,0,0,0,310.75,288l-11.24,4.13c10.8,30.16,10.36,53.21-1.36,72.44-8.23,13.5-22.31,24.78-44.31,35.5Zm3.86-107.56,14.61,10.85-.93,1.26c-16.31,22-25.88,42.16-27.65,58.38-1.5,13.63,1.92,24.24,10.73,33.3,20.87-10.3,34.24-21.07,42-33.84,11.37-18.65,11.55-41.28.56-71.2l-.54-1.46L312.6,284l.54,1.46a156.12,156.12,0,0,1,7,24.86c49.5-35.35,45.34-70.45,39.6-118.8-14.38-9.45-25.87-17-38.81-25.39.9,5.76,1.85,11.4,2.77,16.88,1.81,10.71,3.51,20.83,4.8,31.59,1.08,5-.46,10.8-3.76,14.11A8.26,8.26,0,0,1,317,231.1l-.13,0C213.44,198.42,131,203.88,57.42,248.24c-5.22,3.4-14.48,3.82-24.3,4.27-11.41.53-23.2,1.07-28.35,6.34.71,2.21,10.47,8.18,17.64,12.57,9.39,5.75,20,12.26,24.55,17.63a72.62,72.62,0,0,0,12.51,12.07,223.15,223.15,0,0,1,26.19-23.07l1.24-.93,11,14.53-1.25.94c-22.26,16.79-39.49,36.3-48.51,54.93-7.67,15.83-9,29.52-4,40.72,22.11-3.9,37.2-10.31,47.42-20.13,14.93-14.34,20.9-36,18.77-68.06l-.1-1.55,18.16-1.2.11,1.55a162.5,162.5,0,0,1-.68,30.78,338.55,338.55,0,0,0,88.76,6.76c4.84-.26,9.92-.65,15.09-1.16,5.21-12.69,13.32-26.49,24.12-41Z" style="fill:#fff"/><path d="M330.86,323.63q-5.06,2.92-10.3,5.47c-1.16,19.58-4.8,35.13-15.44,49.15a36.3,36.3,0,0,0,16,7c8.43-21.69,16.3-41.45,9.78-61.65Z" style="fill:#3290a0"/><path d="M322.07,387l-1.25-.21a38,38,0,0,1-16.63-7.32l-1.25-.94.94-1.25c9.45-12.46,13.83-26.45,15.12-48.3l.05-.92.83-.39c3.44-1.68,6.87-3.5,10.2-5.42l1.67-1,.59,1.83c6.6,20.47-1.21,40.57-9.48,61.85Zm-14.76-9.11a34.9,34.9,0,0,0,12.79,5.59c7.75-20,15-38.86,9.83-57.56-2.59,1.45-5.23,2.84-7.87,4.15C320.7,351.37,316.39,365.42,307.31,377.92Z" style="fill:#fff"/><path d="M123,345.64c-3.45,12.21-8.86,22.15-15.81,30.12a35.49,35.49,0,0,0,8.63,10.87c15.52-10.24,28.71-21.7,35.61-36C141.75,349.34,132.24,347.68,123,345.64Z" style="fill:#3290a0"/><path d="M115.74,388.57l-.89-.75a37.19,37.19,0,0,1-9-11.34l-.5-.94.7-.81a75.57,75.57,0,0,0,15.49-29.51l.4-1.42,1.44.32c9.1,2,18.62,3.68,28.29,4.93l2.14.27-.93,1.95c-6.18,12.81-17.67,24.46-36.17,36.66ZM109.11,376a33.66,33.66,0,0,0,6.88,8.71c16.49-11,27.09-21.51,33.1-32.82-8.51-1.16-16.89-2.62-25-4.37A78.76,78.76,0,0,1,109.11,376Z" style="fill:#fff"/></g></g></svg>