<svg xmlns="http://www.w3.org/2000/svg" viewBox="0 0 435.22 395.55"><title>Displacer-Beast</title><g id="a517b630-219f-451d-9946-0bdb3568c231" data-name="Layer 2"><g id="aad1960e-56a4-4a4e-9402-b648f88b7973" data-name="Layer 1"><path d="M429.06,281.82C412.9,245.21,351,239.87,315.41,249q-3.8-10.87-7.66-21.66C277,141.77,216.06,123.75,194.94,120c-.48-1.07-1-2.15-1.46-3.25C182.81,93.07,157.46,38,192.12,21c11.52-5.65,26.15-5.6,37.77-.29,21.33,9.75,35.85,29.72,52.7,45.24,10.77,9.91,22.33,21.93,35.71,28.32,3.7,1.76,8.59,2.28,14.09,1.94l4.73,8.61V95.78c.51-.06,1-.14,1.56-.22l7.15,7.91.45-9.38.18,0,6.72,8.06L354.26,92l1.53-.45,5.19,9.64.41-11.42.58-.2L366,98.89V88.15l1.29-.47,6.05,9.83V85.4c11.86-4.64,20.65-9,20.65-9s-39-6.88-53.23-14.68-27.08,4.13-27.08,4.13c-11.5-2.92-22.57-9.83-31.79-17C263,34,253.7,10,228.71,4c-27.51-6.68-78-4.57-78.75,33.8-.27,14.07,3.21,27,8.92,39.49a297.66,297.66,0,0,0,13.71,26.49c-7.4-4.89-13.21-4.84-18.11-7.15-2.91-1.37-9.15-1.08-15.82-.17-.71-1-1.33-1.86-1.74-2.54-4.6-7.67-8.77-15.3-14.36-22.36-13.42-17-32.49-34.86-54.62-38.41-20.48-3.27-41.58,5.16-53.15,22.58C3.11,73.3-.76,94.52,1.7,115.32c1.53,13,5,26.6,11.25,38.18,0,0,5.51,17.44-4.13,20.19s18.35,36.25,18.35,36.25,1.89-3.62,4.23-8.71l3.76,5.5-1.95-9.51c.38-.87.76-1.76,1.14-2.66l4,5.74L36,190.62c.37-.94.73-1.89,1.08-2.83l5,4.71-3.33-9.76c1.88-6.18,2.58-11.45.39-13.18-6.94-5.46-13.57-9.51-17.92-17.64-8.25-15.44-8-36-6.27-52.91,1.16-11.3,4.4-23.38,11.38-32.77C34.21,55.6,45.06,52.07,57.72,50.43,85,46.88,107.17,76.51,121.86,99.54c-4.09.92-6.85,1.64-6.85,1.64-13.31-.92-27.07,19.73-30.74,25.24s-28.46.92-28.46.92c0,13.76,21.11,32.12,21.11,32.12-1.37,5.51,0,20.19,0,20.19-11.47,22.49,21.57,82.14,21.57,82.14-4.13,11.48-.46,28-.46,28s6.43,17.43,4.59,33S106.29,343,106.29,343c-5.05,3.21-1.83,9.18-1.83,9.18s3.67,3.67-6,11.47-10.55,17.44-10.55,17.44c6,10.09,14.68,4.13,14.68,4.13,8.26,3.67,17-4.13,17-4.13,5.51.91,14.23-6.89,14.23-6.89a7.46,7.46,0,0,0,6-8.72C143.92,362.75,137,354,137,354a14.79,14.79,0,0,0-3.67-12.39s-.92-26.61,5.5-34.87S143,281.53,143,281.53c14.23-2.3,29.83,27.53,29.83,27.53l-1.38,23.86s2.3,25.7-1.83,25.24-8.72,11.47-8.72,11.47c-6-.46-13.31,6-13.31,6-11.93,5.51-1.37,11.47-1.37,11.47,3.21,4.13,16.06,3.21,16.06,3.21,3.67,3.67,17.89.92,17.89.92,5.51,5.05,21.11-.92,21.11-.92,6.43,5.05,110.6,1.38,110.6,1.38,5.26-.18,11.41,2.75,17,2.88a67.31,67.31,0,0,0,17.59-2c11.61-2.86,22.44-8.41,32.33-15a188.92,188.92,0,0,0,39.56-35.2C433.33,324.35,439.28,305,429.06,281.82ZM104.29,183.38c-6.4,3.81-11.27-13.29.58-7.71C108.08,177.18,109.88,180.06,104.29,183.38Zm37.49-6.64c-6.34-1.41-5.54-4.71-3-7.14C148.34,160.59,149.06,178.35,141.78,176.74Zm63.13,189,4.22-19c3.52,9.15,24.61,21.1,24.61,21.1ZM402.34,305c-4.26,15.11-16,27.45-26.67,38.44-4.56,4.7-10.61,11.33-17.95,9.17-3.4-1-5.26-4.56-6.66-7.81-11.65-27-21.46-55-31.18-82.95,4.8-.66,9.64-1.14,14.48-1.44,16.4-1,34.7-.77,49.72,6.78C398.46,274.43,406.82,289.1,402.34,305Z" style="fill:#161618"/><path d="M330.28,395.55h-1.45a39.29,39.29,0,0,1-8.45-1.5,32.3,32.3,0,0,0-8.47-1.38c-10.47.37-100.8,3.4-110.72-1.28-2.63.95-15.65,5.31-21.3.89-2.74.5-13.95,2.27-18-1-2.52.14-13,.49-16.37-3.47-.88-.54-4.78-3.11-4.64-6.58.1-2.46,2.17-4.65,6.14-6.51.95-.81,7.39-6.11,13.18-6.14,1.24-3.07,5.21-11.92,9.5-11.44,1.48-.76,1.83-11.83.73-24.16v-.15l1.36-23.58c-1.48-2.72-15.26-27.53-27.71-26.87.4,3.87,1.31,17.57-4.45,25s-5.38,30.64-5.3,33.86a15.69,15.69,0,0,1,3.74,12.53c1.08,1.44,4.51,6.34,4,9.87a4,4,0,0,1-1.2,2.3,8.35,8.35,0,0,1-6.54,9.19c-1.32,1.14-8.89,7.52-14.4,7-1.75,1.44-9.48,7.25-17.2,4.21a11.8,11.8,0,0,1-8.07,1.4c-3-.67-5.55-2.74-7.56-6.15l-.17-.28,0-.32c0-.41,1.07-10.15,10.92-18.12,5-4,6.14-6.73,6.27-8.31a2.36,2.36,0,0,0-.4-1.7l-.15-.21c-1.17-2.17-2.26-6.8,1.24-9.8-1.57-2.05-4.65-7.78-3.19-20.16,1.78-15.19-4.47-32.41-4.54-32.58l0-.13c-.16-.68-3.6-16.54.34-28.12-3.09-5.65-32.35-60.27-21.5-82.42-.18-2.07-1.18-14.08-.08-19.64-3.16-2.83-21-19.39-21-32.48v-1.2l1.19.21c9.33,1.73,25,3.12,27.43-.49,11.72-17.57,22.32-26.17,31.48-25.69.56-.14,2.55-.64,5.34-1.29-15.53-24.14-36.53-50.8-62.4-47.46-11.08,1.44-22.48,4.3-30.75,15.42C19.55,77,16.85,90,15.92,99.11c-2.36,23.06-.35,40.18,6.16,52.34,3.51,6.57,8.68,10.49,14.16,14.65,1.14.87,2.31,1.75,3.48,2.67,2.3,1.81,2.32,6.37.05,14L44.28,196l-6.84-6.42c-.14.38-.29.76-.44,1.14l3.66,14.61-6.09-8.69-.32.72,2.89,14.06-5.57-8.15c-2,4.21-3.49,7.13-3.51,7.16l-.69,1.34-1-1.16C24.07,207.78,3.6,183,6,175.15a3.52,3.52,0,0,1,2.53-2.42,5.87,5.87,0,0,0,3.72-3c2.82-5.24.06-14.83-.24-15.83C4.84,140.43,1.9,125.56.7,115.44-1.91,93.36,2.8,72,14,55.14c11.55-17.39,32.8-26.43,54.14-23C91.38,35.85,111,55.27,123.35,70.9A156.19,156.19,0,0,1,135.18,89c.86,1.45,1.72,2.91,2.6,4.38.32.54.81,1.23,1.34,2,7.93-1,13.1-.93,15.78.34a35.52,35.52,0,0,0,5.64,1.89,44.3,44.3,0,0,1,9.3,3.39c-4.18-7.38-8.17-15.2-11.87-23.3-6.32-13.8-9.27-26.86-9-39.93.21-11.19,4.56-20.13,12.93-26.57C178.47-1.61,208.27-2,229,3c16.29,4,26.22,15.58,35.81,26.82,5.42,6.35,11,12.91,17.78,18.21,11,8.57,21.35,14.2,30.92,16.73,2.4-2,14.59-11.16,27.81-3.91,13.92,7.63,52.53,14.51,52.92,14.58l3,.52-2.73,1.36c-.08,0-8.65,4.27-20.09,8.78v15L367,89.11V103.7l-4.75-10.93-.44,12.13-6.55-12.17-.11,0-1.26,11.79-6.75-8.1-.45,9.49-8.43-9.31-.17,0v12.09l-6.3-11.47c-5.78.28-10.47-.42-13.95-2.08C306.43,89.74,296.56,80.46,287,71.48c-1.72-1.62-3.42-3.22-5.1-4.77-4.81-4.43-9.52-9.31-14.07-14-11.44-11.87-23.28-24.14-38.37-31a44.17,44.17,0,0,0-36.91.27c-33.33,16.35-9,70.41,1.4,93.49l1.67,3.73c10.6,1.92,31.07,7.45,52.67,23,26.77,19.32,47.08,47.87,60.39,84.86,2.26,6.3,4.67,13.12,7.36,20.8,19.11-4.74,43.42-5,63.69-.56,17.75,3.86,40.87,12.91,50.23,34.14,9.57,21.65,6.12,41.19-10.86,61.49a189.32,189.32,0,0,1-39.77,35.39c-11.31,7.6-22,12.57-32.65,15.19A69.06,69.06,0,0,1,330.28,395.55Zm-17.93-4.9a36,36,0,0,1,8.51,1.46,38.5,38.5,0,0,0,8,1.43,65.66,65.66,0,0,0,17.33-2c10.43-2.57,20.9-7.44,32-14.91a187.74,187.74,0,0,0,39.36-35C434,322,437.37,303.1,428.14,282.22h0c-15.61-35.37-76.42-41.5-112.49-32.21l-.89.22-.3-.86c-2.8-8-5.31-15.12-7.65-21.66-30.14-83.79-88.4-102.53-112-106.7l-.52-.09-2.1-4.68c-10.63-23.62-35.53-78.92-.46-96.11a46.18,46.18,0,0,1,38.62-.3c15.44,7.06,27.41,19.47,39,31.47,4.53,4.69,9.21,9.55,14,13.94,1.68,1.55,3.39,3.16,5.11,4.78,9.44,8.88,19.2,18,30.35,23.37,3.3,1.58,7.87,2.21,13.6,1.85l.64,0,3.15,5.74v-6l.86-.12,1.55-.22.53-.07L345,101l.37-7.74,1.5-.33.41.46,5.2,6.25.91-8.42,2.94-.88,3.83,7.11.3-8.43.66-.22.57-.19.88-.31L365,94.08V87.45l2.72-1L372.37,94V84.72l.63-.25c7.8-3,14.31-6,17.81-7.64-9.51-1.8-38.46-7.63-50.5-14.24-13.44-7.37-25.79,3.87-25.92,4L314,67l-.52-.13c-10-2.53-20.8-8.33-32.16-17.23-6.92-5.42-12.59-12.06-18.07-18.48-9.82-11.5-19.1-22.37-34.76-26.18C208.25,0,179.17.37,163.11,12.75c-7.86,6.06-12,14.48-12.15,25-.25,12.76,2.64,25.54,8.83,39.06a297,297,0,0,0,13.67,26.4l2.17,3.7L172,104.57a38.72,38.72,0,0,0-12-5.07,36.27,36.27,0,0,1-6-2c-1.62-.77-5.58-1.41-15.26-.09l-.59.08-.36-.49c-.69-1-1.34-1.88-1.77-2.6-.89-1.47-1.75-2.94-2.61-4.4a155.35,155.35,0,0,0-11.68-17.86c-12.13-15.35-31.35-34.41-54-38-20.56-3.29-41,5.4-52.15,22.15C4.73,72.66.13,93.6,2.69,115.2c1.18,10,4.07,24.63,11.14,37.83l.07.17c.15.45,3.48,11.22.12,17.47a7.83,7.83,0,0,1-4.93,4,1.55,1.55,0,0,0-1.17,1.09C6.24,181.22,20.29,200,27,208.13c.76-1.5,2.05-4.13,3.52-7.32l.74-1.6,1.95,2.85-1-4.95.12-.29c.38-.87.76-1.75,1.14-2.65l.7-1.67,2,2.8-1.19-4.75.12-.3c.37-.93.73-1.87,1.07-2.8l.52-1.42,3.2,3-2.14-6.27.1-.31c2.7-8.9,1.61-11.4.72-12.1-1.17-.92-2.32-1.8-3.46-2.66-5.66-4.29-11-8.34-14.72-15.29-6.69-12.53-8.78-30-6.38-53.5,1-9.36,3.74-22.73,11.57-33.25C34.23,53.9,46.62,50.86,57.59,49.44,85,45.86,106.79,74.06,122.7,99l.77,1.21-1.39.31c-4,.9-6.79,1.62-6.82,1.63l-.15,0h-.17c-5.81-.4-15.7,3.57-29.84,24.79-3.56,5.34-22.73,2.51-28.23,1.57,1.16,13,20.51,30,20.71,30.17l.46.4-.15.59c-1.32,5.28,0,19.71,0,19.86l0,.29-.14.26c-11.1,21.76,21.23,80.61,21.56,81.2l.22.4-.16.42c-3.86,10.73-.67,26.27-.44,27.38.5,1.37,6.43,18.1,4.62,33.43-1.73,14.74,3.28,19.27,3.33,19.32l1,.87-1.12.73c-4,2.52-1.9,7.05-1.54,7.77a4.31,4.31,0,0,1,.85,2.95c-.16,2.9-2.52,6.22-7,9.86A27.77,27.77,0,0,0,89,380.89c1.69,2.74,3.74,4.39,6.1,4.91a10,10,0,0,0,7-1.39l.46-.31.51.22c7.58,3.37,15.82-3.88,15.9-4l.36-.32.47.08c4.13.69,11.07-4.56,13.4-6.64l.18-.17.24-.06c6.35-1.58,5.28-7.31,5.23-7.55l-.13-.66.56-.37a1.85,1.85,0,0,0,.83-1.34c.42-2.62-2.61-7.15-3.82-8.68l-.28-.36.08-.44a13.77,13.77,0,0,0-3.39-11.5l-.28-.28v-.39c0-1.11-.86-27.08,5.71-35.53,6.09-7.83,3.95-24.32,3.93-24.49l-.13-1,1-.15c14.77-2.37,30.23,26.81,30.88,28.06l.13.24-1.39,24.07c.34,3.92,1.82,22.58-1.32,25.66a2,2,0,0,1-1.63.59c-2.32-.26-5.88,6.18-7.68,10.83l-.26.7-.75-.06c-5.48-.4-12.5,5.66-12.57,5.72l-.24.16c-3.27,1.51-5,3.17-5.1,4.82-.09,2.17,2.71,4.25,3.8,4.87l.17.1.13.16c2.36,3,11.77,3.07,15.2,2.83l.45,0,.32.33c2.71,2.7,13.19,1.38,17,.64l.5-.1.37.34c4.14,3.8,15.9.49,20.08-1.11l.53-.2.44.35c4.5,3.53,68.22,2.63,109.94,1.16ZM238.1,369.21l-34.41-2.52,5.18-23.35,1.19,3.1c3.35,8.7,24,20.46,24.17,20.58Zm-32-4.35,23.48,1.72c-5.55-3.45-15.89-10.44-20.1-16.91ZM360.6,354a11.09,11.09,0,0,1-3.16-.46c-3.73-1.11-5.79-4.86-7.3-8.38-12-27.73-22.18-57.1-31.21-83l-.4-1.15,1.21-.17c4.88-.67,9.78-1.16,14.56-1.45,16.13-1,34.72-.91,50.23,6.89s23.13,23.51,18.77,39c-4.42,15.67-16.89,28.53-26.91,38.86l-.51.53C372,348.7,366.82,354,360.6,354Zm-39.38-91.35c8.92,25.6,19,54.47,30.76,81.72,1.39,3.25,3.09,6.38,6,7.25,6.48,1.91,12-3.8,16.43-8.38l.51-.53c9.87-10.17,22.14-22.83,26.43-38l1,.27-1-.27c4.09-14.52-3-29.24-17.75-36.64-15.08-7.59-33.34-7.64-49.21-6.68C330.09,261.67,325.65,262.1,321.22,262.68ZM102.39,184.94a4.94,4.94,0,0,1-3.67-1.81c-1.92-2.12-2.88-5.88-1.25-8.08.82-1.1,2.91-2.6,7.83-.29,2.24,1.06,3.51,2.55,3.59,4.2.09,1.84-1.28,3.62-4.09,5.28h0A4.68,4.68,0,0,1,102.39,184.94Zm-1.6-9.4a2,2,0,0,0-1.71.7c-.9,1.21-.36,3.91,1.12,5.55a2.68,2.68,0,0,0,3.58.73h0c2.06-1.22,3.16-2.45,3.12-3.47-.05-.86-.94-1.77-2.45-2.48A9.27,9.27,0,0,0,100.79,175.54Zm41.9,2.31a5.5,5.5,0,0,1-1.12-.13h0c-3.19-.71-5-2-5.54-3.75-.44-1.59.31-3.4,2.1-5.1,4-3.73,6.41-3,7.53-2.18,2.24,1.58,2.5,5.45,1.34,8.07A4.68,4.68,0,0,1,142.69,177.85Zm-.69-2.08a2.67,2.67,0,0,0,3.17-1.82c.89-2,.57-4.75-.67-5.63-1.05-.74-2.87,0-5,2-1.22,1.15-1.78,2.29-1.55,3.12.27,1,1.7,1.81,4,2.33Z" style="fill:#fff"/><path d="M104.29,183.38c-6.41,3.81-11.27-13.29.58-7.71C108.08,177.18,109.88,180.06,104.29,183.38Z" style="fill:#debd53"/><path d="M141.78,176.74c-6.34-1.41-5.54-4.71-3-7.14C148.34,160.59,149.06,178.35,141.78,176.74Z" style="fill:#debd53"/></g></g></svg>