<svg xmlns="http://www.w3.org/2000/svg" viewBox="0 0 266.19 387.03"><title>Doppelganger</title><g id="b31ce030-ad93-42bc-a97b-7049c92aace4" data-name="Layer 2"><g id="ac825d73-bfc1-490b-af8e-f270879af34f" data-name="Layer 1"><path d="M32.76,261.92s6.42,49.91.18,62.39c0,0,75.59,133.14,191.39,8.32,0,0-9-90.83,7.62-115.1S32.76,261.92,32.76,261.92Z" style="fill:#1b2330"/><path d="M126.93,387a85.17,85.17,0,0,1-9.84-.57c-52.94-6.16-84.7-61.1-85-61.65l-.26-.47.24-.48c6-12.06-.22-61.32-.29-61.81l-.1-.83.79-.25c.48-.15,48.15-15.3,96.37-28.7C227,205,231.75,211.39,233.31,213.49c.62.84,1,2.32-.53,4.6-16.25,23.69-7.55,113.54-7.46,114.44l.05.45-.31.33C192,369,159,387,126.93,387ZM34.07,324.26c3.12,5.21,33.84,54.47,83.26,60.21,34.37,4,70-13.56,106-52.19-.75-7.73-8.39-91.65,7.84-115.32.72-1.05.91-1.82.57-2.28-2-2.76-18.07-3.89-102.34,19.52-44.77,12.44-89.08,26.39-95.51,28.42C34.68,269.33,39.63,311.72,34.07,324.26Z" style="fill:#fff"/><path d="M264.55,169.69l-18.5,1.95a5.55,5.55,0,0,1-6-6.84L243.69,150a41.61,41.61,0,0,1,4.48-11.24A78.79,78.79,0,0,0,258,108.46a91.68,91.68,0,0,0,.57-10.06,84.24,84.24,0,0,0-10.06-40.25c-14.18-26.28-43.22-60-98.42-57C60.7,6,41.26,51.1,41.26,51.1S19.75,81.61,26,109.35l-7,14.42a31.11,31.11,0,0,0-2.36,20.54l5.17,22.61L1.06,160l1,22.28a31,31,0,0,0,6.11,17.32l8.07,11A44.73,44.73,0,0,1,24.89,234a73.75,73.75,0,0,0,7.86,28L72,316.18c8.6,7.43,37.25,4.53,47.1-1.15l101.75-84.32,25-19.88a31.42,31.42,0,0,0,11.81-25.91ZM51.24,186.39a8.23,8.23,0,0,1-9.89,0c-4.69-3.34-11-9.09-11-15.56,0-10.35,7.13-18.74,15.92-18.74s16,8.39,16,18.74C62.24,177.3,55.93,183.05,51.24,186.39Zm74.38,83.43a.53.53,0,0,1-.36.17l-7.41.1-7.41,0c-4.93,0-9.87-.14-14.8-.21s-9.87-.26-14.8-.46l-7.4-.33-7.4-.44a.48.48,0,0,1-.27-.86l.3-.24A29.39,29.39,0,0,1,69.83,265c1.25-.72,2.5-1.33,3.74-1.9A49.84,49.84,0,0,1,81,260.52a54.6,54.6,0,0,1,14.85-1.65,55.42,55.42,0,0,1,14.75,2.35,49,49,0,0,1,7.34,2.93c1.22.62,2.44,1.28,3.66,2.06a28.47,28.47,0,0,1,3.64,2.68l.28.24A.49.49,0,0,1,125.62,269.82ZM131,186.63a11.11,11.11,0,0,1-11.65,0c-5.5-3.34-12.92-9.08-12.92-15.56a18.72,18.72,0,1,1,37.44,0C143.88,177.55,136.47,183.29,131,186.63Z" style="fill:#4d729d"/><path d="M91,321.69c-8.21,0-15.8-1.38-19.7-4.75l-.16-.17-39.32-54.4a74.41,74.41,0,0,1-8-28.32,43.61,43.61,0,0,0-8.49-22.9l-8.07-11A31.79,31.79,0,0,1,1,182.31L0,158.58l20.46,6.83-4.77-20.88a32.23,32.23,0,0,1,2.43-21.2l6.82-14.1c-5.92-27.31,14-56.5,15.45-58.62.55-1.22,5.71-12,21.18-23.45,14.74-10.91,42.06-24.45,88.5-27,54.85-3,84.31,29.61,99.35,57.49A85.52,85.52,0,0,1,259.6,98.4a93.41,93.41,0,0,1-.57,10.17,79.39,79.39,0,0,1-10,30.65,40.59,40.59,0,0,0-4.37,11L241,165a4.56,4.56,0,0,0,4.91,5.61l20.24-2.14-7.56,16.61a32.44,32.44,0,0,1-12.2,26.49l-25,19.88-101.8,84.36-.08,0C113.7,319.29,101.84,321.69,91,321.69ZM72.73,315.5c8.15,6.85,36.12,4.22,45.79-1.29l101.69-84.27,25-19.89A30.47,30.47,0,0,0,256.62,185v-.24l6.31-13.85-16.76,1.76a6.44,6.44,0,0,1-5.63-2.2,6.53,6.53,0,0,1-1.43-5.87l3.62-14.83a42.44,42.44,0,0,1,4.59-11.5A77.49,77.49,0,0,0,257,108.35a91.9,91.9,0,0,0,.56-9.95,83.46,83.46,0,0,0-9.94-39.77C232.9,31.26,204-.74,150.18,2.19,104.34,4.67,77.41,18,62.89,28.67,47.19,40.25,42.23,51.39,42.18,51.5l-.1.18C41.87,52,20.9,82.15,27,109.13l.07.34-7.12,14.74a30.15,30.15,0,0,0-2.28,19.88l5.56,24.34-21.07-7L3,182.23A29.94,29.94,0,0,0,8.94,199L17,210a45.58,45.58,0,0,1,8.87,23.94,72.48,72.48,0,0,0,7.72,27.5Zm45.14-44.41-7.43,0c-3.28,0-6.61-.07-9.83-.13l-5-.08-5.58-.16c-3.08-.09-6.17-.18-9.25-.3l-7.4-.33L66,269.63a1.44,1.44,0,0,1-1-.49,1.47,1.47,0,0,1-.37-1.1,1.39,1.39,0,0,1,.55-1.05l.3-.24a30.39,30.39,0,0,1,3.89-2.61c1.1-.64,2.28-1.23,3.82-1.94a50.82,50.82,0,0,1,7.63-2.65,56,56,0,0,1,15.13-1.68,57,57,0,0,1,15,2.39,49.47,49.47,0,0,1,7.5,3,40,40,0,0,1,3.75,2.11,30,30,0,0,1,3.76,2.76l.27.24a1.49,1.49,0,0,1,.19,2.08l0,.05a1.57,1.57,0,0,1-1,.49Zm-50.39-3.38,6,.36,7.39.33c3.07.13,6.14.21,9.22.3l5.56.16,5,.08c3.21.06,6.54.12,9.8.13l7.41,0,6-.08a27.23,27.23,0,0,0-2.74-1.95,40.55,40.55,0,0,0-3.59-2,47.88,47.88,0,0,0-7.19-2.87,55,55,0,0,0-14.47-2.3,53.89,53.89,0,0,0-14.58,1.62A48.08,48.08,0,0,0,74,264c-1.47.68-2.6,1.25-3.65,1.86A27.93,27.93,0,0,0,67.48,267.71Zm-1.4-.08h0Zm59.1-78.35a12.1,12.1,0,0,1-6.34-1.8c-6.11-3.71-13.4-9.57-13.4-16.41a19.72,19.72,0,1,1,39.44,0c0,6.82-7.26,12.69-13.34,16.41h0A12.16,12.16,0,0,1,125.18,189.28Zm0-35.95a17.76,17.76,0,0,0-17.74,17.74c0,6.22,7.8,11.88,12.44,14.71a10.11,10.11,0,0,0,10.61,0h0c4.63-2.83,12.39-8.51,12.39-14.71A17.74,17.74,0,0,0,125.18,153.33ZM46.28,189a9.34,9.34,0,0,1-5.52-1.83c-4.25-3-11.41-9.2-11.41-16.37,0-10.88,7.59-19.74,16.92-19.74s17,8.86,17,19.74c0,7.17-7.15,13.33-11.41,16.37A9.45,9.45,0,0,1,46.28,189Zm0-35.94c-8.22,0-14.92,8-14.92,17.74,0,6.28,6.63,11.93,10.58,14.75a7.25,7.25,0,0,0,8.73,0h0c4-2.82,10.58-8.47,10.58-14.75C61.24,161.05,54.53,153.09,46.27,153.09Z" style="fill:#fff"/></g></g></svg>