<svg xmlns="http://www.w3.org/2000/svg" viewBox="0 0 319.17 459.5"><title>Dracolich</title><g id="f99a2554-27db-4e63-b354-48fed8a1eaed" data-name="Layer 2"><g id="a30fa337-72ee-42e5-8fa0-6069ff30895a" data-name="Layer 1"><path d="M174.63,417.64c-13.31-28.85-28.85-18.9-28.88-18.9-2.29-14.59.06-26.93,12.14-31.46C189.87,391.53,174.63,417.64,174.63,417.64Z" style="fill:#efe7e6"/><path d="M296.76,302.15,305.64,291l-7.77-35.54,2.22-33.33H273.42l-8.87-8.91,8.87-55.55-35.54,12.24-8.91-10-17.76,3.33S197.87,131,180.08,136.58L103.44,4.36s-10,48.89,1.11,73.34l-4.47,8.91s8.91,57.77-14.42,76.63c0,0-8.88,13.35-6.66,20l-14.46,18.9s-4.37-18.64,5.35-24.35c-3.91,1.83-66.48,32-67.56,98.79,0,0,4.44,27.78,30,44.42,0,0-5.55-26.66,3.33-30,0,0-8.88-11.1,4.43-16.65l3.33,13.32,12.24-12.21s-1.11,27.78,15.54,41.09l15.57-47.78s-13.35-56.66,35.54,7.8l10-10,8.88,8.91,11.09-12.24L159,271l16.65-11.13a0,0,0,0,1,0,0,33.72,33.72,0,0,0,2.06-5c7.28-22.36-19.85-27.19-19.85-27.19l0,0h0c5.65-2.19,9.5-4.57,12-7a16.56,16.56,0,0,0,1.86-2.06,12.18,12.18,0,0,0,1.8-3.13,13.72,13.72,0,0,0,.52-1.83,1.4,1.4,0,0,0,.1-.39c1.11-6.85-4.57-12.63-5.22-13.25.06,0,.09.07.16.1l0,0c4.25,2.61,8,2.78,11.2,1.6,7.77-2.81,12.3-13.38,12.92-15a.65.65,0,0,1,.07-.16l-10-15.54,0,0,8.85-8.88c40.08,24.81,64.39,50.72,78.72,75.07C297.35,282,289.74,321.47,284,339.09a68.67,68.67,0,0,1-3.85,9.7l0,0,.42,1.24a4.73,4.73,0,0,1,.27.78A206.49,206.49,0,0,0,289.25,371l0,0,.82-1L289,354.37l3.33-8.91-2.22-8.88,12.21-17.79ZM144.6,201.85c-9,.33-19.22-8.55-12.83-17.62.27-.36.53-.75.82-1.11,3.17-4.31,8.09-9.86,12-12.76,9.4-6.83,31.17-1.18,34.73,10.38C183.93,195.59,154.2,201.49,144.6,201.85Z" style="fill:#efe7e6"/><path d="M169,303.24l-15.57,1.11L155.67,321l-13.35,1.14s5.81,20.33-5.19,26.63l1.86,5.58c28.36-16.64,36.52-43.9,38.19-64.85A29.32,29.32,0,0,1,169,303.24Z" style="fill:#efe7e6"/><path d="M134.55,349.91c-.09.95-.19,1.83-.29,2.71-.2,1.28-.39,2.48-.59,3.59a10,10,0,0,0,.23-1.14c.1-.55.2-1.11.26-1.7,0-.13,0-.26.07-.39s0-.26.06-.36c.1-.85.2-1.76.3-2.71Z" style="fill:#efe7e6"/><path d="M87.1,412.51,74.5,429.94c-4.86-11-2.71-23.92.23-33.39C78.55,401.87,82.66,407.26,87.1,412.51Z" style="fill:#efe7e6"/><path d="M234.43,293.68a51.27,51.27,0,0,0-16.55.65c-.36.13-.72.3-1.08.43-8.91,3.65-8,7.8-4.57,12.17a31.91,31.91,0,0,0,5.65,7.7c.32-.26.65-.49,1-.75a81.72,81.72,0,0,1,16.22-9.72L253.42,296Z" style="fill:#efe7e6"/><path d="M208.48,322.66a28.65,28.65,0,0,0-3.53-3c-22.29-19.06-15.5,8.39-14,13.77-.06-.34-.12-.81-.18-1.36.23,1.37.44,2.26.44,2.26L199,342.1l8.91-18.87s.09-.1.32-.32h0Z" style="fill:#efe7e6"/><path d="M189,362.09c-16.68-7.77-28.89,4.44-28.89,4.44s-1.4-8.85,1.14-15.57a12.15,12.15,0,0,1,3.07-4.77,8.68,8.68,0,0,1,2.38-1.56,6.94,6.94,0,0,1,1.44-.56,15.64,15.64,0,0,1,8.62.23s.09,0,.13.07C185.73,348.9,189,362.09,189,362.09Z" style="fill:#efe7e6"/><path d="M134.59,349.88v0a54.79,54.79,0,0,1-1.9,10.42c-1.43,4.79-3.39,7.14-5.64,7.86-3.92,1.21-8.62-2.58-12.8-7.44l.33.23c-10-24.45,2.22-38.87,2.22-38.87C119,334.31,120.13,354.32,134.59,349.88Z" style="fill:#efe7e6"/><path d="M87.91,368.75a44.06,44.06,0,0,1-1.79,7.05c-1.63,4.73-3.75,6.92-6,7.5s-4.37-.29-6.46-1.76c-6.07-15.11-3.52-51.67-3.52-51.67l17.75,38.84Z" style="fill:#efe7e6"/><path d="M296.53,423.3c-.39-1.47-.82-2.94-1.27-4.41a58.51,58.51,0,0,1-1.93-6.2,48.27,48.27,0,0,1-1.83-12.63,16.07,16.07,0,0,1,.95-6.07,6.35,6.35,0,0,1,3.07-3.36l23.5,29.8c-3.23-4.6-17-26.57-19.49-30.52a175.23,175.23,0,0,1-9-16.38v0c-.42-.88-.81-1.73-1.21-2.57-5-10.61-7.44-17.07-8.51-20.08a4.73,4.73,0,0,0-.27-.78l-.39-1.27a68.67,68.67,0,0,0,3.85-9.7C289.77,321.5,297.38,282,271,237.2c-14.3-24.35-38.61-50.26-78.69-75.1l0,0L183.47,171l10,15.53,0,0a.64.64,0,0,1-.07.16c-.62,1.6-5.15,12.17-12.92,15-3.23,1.14-7.05,1-11.36-1.76l.13.13,0,0c1.11,1.14,6.14,6.66,5,13.12a1.4,1.4,0,0,1-.1.39,8.3,8.3,0,0,1-.52,1.83,12.18,12.18,0,0,1-1.8,3.13,16.56,16.56,0,0,1-1.86,2.06c-2.54,2.45-6.39,4.83-12,7,1.11.23,27,5.32,19.78,27.22a33.72,33.72,0,0,1-2.06,5,.3.3,0,0,0,0,.1,109.9,109.9,0,0,1,1.51,29.5,98.81,98.81,0,0,1-3.89,21,.1.1,0,0,1,0,.06c-.2.72-.42,1.44-.69,2.16-.45,1.47-1,2.9-1.56,4.34a75,75,0,0,1-11,19.19c-1,1.34-2.15,2.64-3.36,3.95A75.54,75.54,0,0,1,139,354.34l-1.86-5.58a0,0,0,0,0,0,0,13.6,13.6,0,0,1-2.55,1.11v0c0,.42-.1.85-.16,1.24a.11.11,0,0,1,0,.13v0c0,.3-.07.56-.1.82a.77.77,0,0,1,0,.26.47.47,0,0,1,0,.23c0,.13,0,.23,0,.33s0,.29-.06.42c-.07.42-.13.85-.2,1.27a4.19,4.19,0,0,1-.13.69,1.76,1.76,0,0,1-.06.39c0,.33-.1.65-.17,1-.19.95-.39,1.79-.62,2.58-.1.36-.19.72-.29,1-.17.52-.33,1-.49,1.47a5.56,5.56,0,0,1-.39,1,12.22,12.22,0,0,1-1.73,3.1,4.32,4.32,0,0,1-.56.69,7.2,7.2,0,0,1-.88.81,5.78,5.78,0,0,1-1.6.82c-3.91,1.2-8.61-2.58-12.79-7.44l-10.77-7.54L99,366.54l-5.1-7-3.78-5.22-2.22,14.42c-.26,1.41-.52,2.68-.82,3.85a29.73,29.73,0,0,1-1,3.2,8.59,8.59,0,0,1-.49,1.31c-.13.32-.26.62-.39.91a11.84,11.84,0,0,1-2.51,3.72,5.23,5.23,0,0,1-.62.56c-.2.16-.39.26-.56.39a.91.91,0,0,1-.26.13,4.2,4.2,0,0,1-.52.26c-2.32,1-4.8.1-7.11-1.53a13.57,13.57,0,0,0,3.16,5,76.41,76.41,0,0,0-3.52,8,250,250,0,0,0,31.33,36.75c0,.07.06.13.13.13,8,6.76,16.84,13.06,23.14,14l2.25-18.87,10-2.25,1.11-12.2a26.67,26.67,0,0,0,6-5.81v0c-.62-2.54-1.15-5.06-1.54-7.5-.16-1.15-.32-2.26-.42-3.37-.1-.65-.16-1.27-.2-1.92s-.06-1.18-.09-1.73c0-.75-.07-1.5-.07-2.22a38.37,38.37,0,0,1,.46-6c.09-.65.23-1.27.36-1.89.09-.42.19-.85.32-1.27s.23-.78.36-1.18c.07-.19.13-.39.2-.58.13-.36.26-.69.39-1a15.93,15.93,0,0,1,1.47-2.81,6.41,6.41,0,0,1,.68-1,10.55,10.55,0,0,1,.75-1,8.76,8.76,0,0,1,.75-.85,17.48,17.48,0,0,1,5.49-3.92,11.91,11.91,0,0,1,1.69-.72c.72-.29,1.47-.52,2.26-.75a39.71,39.71,0,0,1,.13-11.81c.06-.43.16-.85.26-1.28s.19-.71.29-1.07.3-.95.46-1.41a18.59,18.59,0,0,1,1.27-2.57,12.2,12.2,0,0,1,1.8-2.19,8.4,8.4,0,0,1,2.61-1.67,4.55,4.55,0,0,1,1-.39.6.6,0,0,1,.23-.06,7.88,7.88,0,0,1,1.66-.36,17.28,17.28,0,0,1,6.95.59c21.12,5.58,14.46-10,14.46-10a.45.45,0,0,1,0-.16c-.07-.17-.13-.43-.23-.75-.2-.66-.46-1.64-.72-2.81-.13-.59-.26-1.18-.42-1.83a.49.49,0,0,0,0-.23c-.78-4-1.46-9.07-.49-12.33a4.47,4.47,0,0,1,2.16-2.88,1,1,0,0,1,.49-.16c2.41-.75,6.46.85,13,6.46.46.39.75.62,1,.85,0,0,0,0,0,0a6.9,6.9,0,0,1,.58.46l.13.13a1,1,0,0,1,.33.26.54.54,0,0,1,.2.2c.26.22.65.58,1.2,1.14a1.59,1.59,0,0,1,.13.13L219,314.06l-.17-.16c-.45-.46-1.86-1.8-3.78-3.82a35.85,35.85,0,0,1-3.69-4.34c-.23-.36-.46-.72-.65-1.08a7.94,7.94,0,0,1-.82-2.09,5.13,5.13,0,0,1,0-2c0-.16.1-.32.13-.49a5.47,5.47,0,0,1,.75-1.37c.13-.16.26-.33.39-.46a9.87,9.87,0,0,1,1.7-1.46,9.54,9.54,0,0,1,1.34-.82,15.47,15.47,0,0,1,1.63-.82c.62-.29,1.31-.55,2-.81l0,0a60.29,60.29,0,0,0,15-8.81,69.17,69.17,0,0,1,1.5,8.16l19,2.35-.07,0-18.27,8.1v0c.06,10.45-1.6,23-6.11,37.93,0,0-12.2,5.58-2.22,15.57l-4.44,15.53s-14.42,1.14-8.87,14.46l-7.8,20s19-7.87,37.4,7.67c.13.62.26,1.24.42,1.82.3,2.65.89,5.16,1.41,7.77s1.11,5.22,1.69,7.9a52.35,52.35,0,0,0,2.09,8.16h.66a49.22,49.22,0,0,0,1.82-8.39,58.52,58.52,0,0,0,.23-8.39A81.41,81.41,0,0,1,259,436.55s4.08-6.92,8.74-16a22.64,22.64,0,0,0,1.24,9.3c1,3.07,3.24,5.49,5.06,8.1a81.55,81.55,0,0,0,5.85,7.5,80.52,80.52,0,0,0,6.65,6.79l.49-.39c-1.53-2.74-3.07-5.45-4.44-8.22s-2.74-5.52-4-8.29-1.93-5.85-3.69-8.36a29.44,29.44,0,0,0-6.46-7.21l-.3.13v0l.3-.13v-.46c2.87-5.71,5.9-12.08,8.35-18.15,3.49,5.42,6.89,10.9,10,16.55,1,1.79,1.92,3.62,2.8,5.48a31.93,31.93,0,0,0,1.18,3.79,40.71,40.71,0,0,0,5.71,10.34c.07.1.1.2.16.3,3.36,6.59,6.5,13.18,9.89,20.1l.66-.13c.09-7.8-1.9-15.44-4.61-22.65A69.18,69.18,0,0,0,296.53,423.3ZM290.69,393a18.43,18.43,0,0,0-2.42,6.73,50,50,0,0,0-.39,10.57q-4.65-6.62-9.63-13c2.48-6.82,3.92-12.86,3-16.32l3.59-4.47,10.06,13.25A7.53,7.53,0,0,0,290.69,393Z" style="fill:#233356"/><path d="M304.49,459.5l-.53-1.08c-1.15-2.32-2.26-4.6-3.36-6.85-2.22-4.56-4.32-8.86-6.55-13.22l-.09-.19a41.72,41.72,0,0,1-5.83-10.62,24.37,24.37,0,0,1-1.19-3.81c-1-2.13-1.88-3.76-2.71-5.27-2.35-4.3-5.08-8.88-8.3-13.93-2.05,4.77-4.28,9.25-6.47,13.61a26.47,26.47,0,0,1,4.18,5.76c.48.81.93,1.58,1.38,2.24a23.32,23.32,0,0,1,2.66,5.63c.38,1,.74,2,1.18,3,1.3,2.81,2.65,5.59,4,8.24,1.12,2.28,2.34,4.44,3.62,6.73l1.45,2.59-2.57,2.06-1-.88a87.11,87.11,0,0,1-12.75-14.58c-.43-.61-.88-1.21-1.34-1.82a22.31,22.31,0,0,1-3.92-6.71c-.22-.68-.4-1.35-.57-2a11.33,11.33,0,0,0-1-2.84c-3.87,7.61-5.46,11.57-5.48,11.61L258,440.37l-1.55-3.12a77.06,77.06,0,0,0-4.62-8.06,29.68,29.68,0,0,1-.26,3.63,50.76,50.76,0,0,1-1.89,8.66l-.36,1.11-2.89-.07-.36-1a54.22,54.22,0,0,1-2.16-8.39c-.18-.86-.38-1.74-.58-2.63-.39-1.73-.8-3.52-1.1-5.3-.11-.54-.23-1.13-.36-1.72-.41-1.94-.83-4-1.06-6-.1-.41-.19-.83-.29-1.25-17.32-14.3-35.23-7.16-35.41-7.09l-3.38,1.39,8.9-22.83c-1.59-4.15-1.53-7.67.18-10.48,2.33-3.8,7-5,9.16-5.4l3.91-13.69c-2.95-3.19-4.16-6.36-3.61-9.42.76-4.22,4.69-6.79,6.27-7.66a130.24,130.24,0,0,0,5.83-34.44,85.6,85.6,0,0,0-13.64,8.65l-10.32,8.65-10.33,21.35L196.6,343s-.89-1.33-2.13-2.9a5.8,5.8,0,0,1-.83,5.19c-1.71,2.08-5.3,2.88-11.43,2.5a42.19,42.19,0,0,1,7.21,14l.8,3.18-3-1.38c-12.53-5.84-22.29,1.21-25.58,4.15,30.82,24.53,13.31,50.61,13.13,50.87l-1.56,2.25-1.14-2.48c-6.47-14-12.7-18.37-16.78-19.52a9.24,9.24,0,0,0-6.93.59,25.05,25.05,0,0,0-.66,6.29l0,1.11-.27.38a27.13,27.13,0,0,1-5.83,5.8l-1.14,12.62-10,2.26-2.32,19.38-1.59-.25c-5.62-.87-13.61-5.66-23.75-14.25a1.71,1.71,0,0,1-.5-.45c-1.52-1.45-3-2.83-4.48-4.18A151.68,151.68,0,0,1,86.14,416.5L73,432.94l-1-2.35c-5.52-12.44-2.85-26.24-.59-33.74a6,6,0,0,1-.28-.85,2.23,2.23,0,0,0-.2-.58l-.48-.68.29-.78c1.27-3.32,2.44-5.81,3.09-7.12a16.9,16.9,0,0,1-2.71-4.69C65,367,66.69,341.33,67.41,330.38l.29-4.33,2.48,2.81c3.34,3.79,8.16,14.68,12.41,24.29,1.34,3,2.64,6,3.71,8.24.63-3.51,1.15-7.22,1.16-7.27l.53-3.83,9.37,12.9,4.08-12.13,1.59.76s3.25,1.56,7,3.41c-5.43-21.3,4-33.54,4.45-34.08l2.14-2.69.62,3.38c.26,1.48.52,3.07.78,4.71,1.29,8.14,2.9,18.26,7.93,21.4,1.89,1.19,4.21,1.33,7.07.46a10,10,0,0,0,2.22-1c9.86-5.64,4.56-24.68,4.5-24.87l-.52-1.82,13.61-1.16-2.26-16.67,16.67-1.19a27.77,27.77,0,0,0,7.32-12.5,101.14,101.14,0,0,0-1.13-25.67L157.57,273l-6.39-7.46-11,12.15-8.94-9-10.18,10.18L120,277.5c-22.74-30-30-31-32-30-3.5,1.65-2.53,13.21-.73,20.89l.1.43-.13.41L70.89,319.17l-1.76-1.41C55.62,307,53.37,287.42,53,279.18L41.48,290.7,38,276.56c-2.5,1.35-4,3-4.53,5-1,4,2.33,8.39,2.36,8.43l1.35,1.68-2,.76c-5.55,2.08-4.39,18.41-2.35,28.21h0l-3,.64h0a1,1,0,0,0,.15.37,21.87,21.87,0,0,0-3.19-2.19A18.2,18.2,0,0,1,25,318.36c-1.65-1.32-3.25-2.73-4.77-4.2a70.11,70.11,0,0,1-7.85-9,75.25,75.25,0,0,1-9.67-18C-1.51,276-.06,265.36,2.14,255.52a101.78,101.78,0,0,1,6.77-20.07A114.48,114.48,0,0,1,31.63,203a139.85,139.85,0,0,1,23.83-19.39,58.93,58.93,0,0,1,9.45-5.09l5-2.32-1,3.37a90.39,90.39,0,0,0-3.53,17.6L76.2,182.88c-1.55-7.29,6.15-19.16,7.06-20.54l.14-.19.18-.15c22.38-18.09,14-74.62,13.87-75.19l-.08-.49,4.37-8.69C91,52.81,100.41,6,100.82,4l.83-4,78.09,134.73c16.5-3.81,28.7,20.89,31.32,26.72l17.4-3.27,8.8,9.91,37-12.75-9.16,57.33,7.86,7.89h27.68l-2.31,34.77,7.88,36-8.81,11.05L302.94,319l-12.25,17.84,2.17,8.67-3.38,9,1.13,15.82-.63.77.79,1.67a172.65,172.65,0,0,0,9,16.27c2.46,4,16.22,25.87,19.43,30.44l-2.5,1.86-22.6-28.69a5,5,0,0,0-1.28,1.87A14.24,14.24,0,0,0,292,400a47.45,47.45,0,0,0,1.77,12.29,56.49,56.49,0,0,0,1.9,6.1c.47,1.46.88,2.9,1.24,4.31a71.78,71.78,0,0,1,6,11.72c3.29,8.81,4.78,16.18,4.7,23.2l0,1.25ZM275.3,397.81l1.64,2.52c4,6.13,7.25,11.56,10,16.63.87,1.6,1.75,3.31,2.85,5.55l.11.33a22.51,22.51,0,0,0,1.1,3.55,38.8,38.8,0,0,0,5.5,10l.29.52c2.26,4.42,4.36,8.73,6.59,13.3.23.48.47,1,.7,1.45a66.31,66.31,0,0,0-10-27.52l-.13-.21-.06-.23c-.36-1.43-.77-2.88-1.22-4.31a56.64,56.64,0,0,1-2-6.33,50.2,50.2,0,0,1-1.87-13c0-.27,0-.56,0-.84-.05.25-.09.5-.13.74a49.23,49.23,0,0,0-.36,10.25l-2.83,1a55.2,55.2,0,0,1-3.71-6.37,42.49,42.49,0,0,0-4.25-7l-.54-.69.3-.82c2.79-7.57,1.83-12.94,1.29-14.9l-.21-.77,5.34-6.65,11.92,15.65,3.7,4.7-2.26-3.62A176.33,176.33,0,0,1,288,374.17c-.43-.89-.82-1.74-1.22-2.6l-.4-.88,1.07-1.32-1.09-15.26,3.28-8.77-2.28-9.09,12.17-17.73-5.57-16.71,8.94-11.21-7.65-35v-.22l2.11-31.66H271.68l-9.89-9.93L270.38,160l-34.07,11.73-9-10.13L209.17,165l-.49-1.17c-.13-.31-13-30.84-29.23-25.78l-1.19.38-.62-1.08L103.13,8.78C101.05,21,96,57.41,104.88,77l.31.68-4.58,9.13c.88,6.09,7.76,58.81-14.87,77.44-2.43,3.7-7.95,13.68-6.35,18.45l.26.79-15,19.55-2.8-.94a84,84,0,0,1,3-20.2,49.21,49.21,0,0,0-7.74,4.26,137.15,137.15,0,0,0-23.31,18.95,111.63,111.63,0,0,0-22.1,31.62A97.68,97.68,0,0,0,5.19,256.2c-2.1,9.37-3.5,19.47.4,29.84a71.9,71.9,0,0,0,9.27,17.24,67.46,67.46,0,0,0,7.5,8.64c1.45,1.4,3,2.75,4.55,4,.18.14.83.54,1.4.89l.67.42c-1.16-7.42-2.59-22.19,3.35-26.77-1.2-2-2.92-5.77-1.93-9.66.87-3.4,3.56-6.06,8-7.91l1.68-.69,3.1,12.4,13.11-13.07-.16,4c0,.26-.81,25.15,13.22,38.32l14.71-45.14c-1-4.31-4.23-20.81,2.53-24,3.87-1.82,11.67-.69,34.79,29.51l9.86-9.87,8.82,8.86,11.18-12.34,7,8.15,17.34-10.39.48,2.24a101.1,101.1,0,0,1,1.59,28.76l-.06.29A30.79,30.79,0,0,1,169,304.36l-.41.38-14.46,1,2.25,16.63-13.16,1.12c1.19,5.36,3.63,20.86-6.37,26.59a12.76,12.76,0,0,1-2.89,1.28c-3.73,1.14-7,.87-9.64-.79-6.24-3.9-7.9-14.34-9.36-23.56,0-.13,0-.25-.07-.38-2.45,5.22-5.67,16-.87,31.08l1.12,3.55-3.32-1.68c-3.21-1.63-6.59-3.28-8.51-4.21L98.4,369.9,90,358.34c-.41,2.57-1,5.88-1.53,8l-.88,3.46-1.94-3c-1.23-1.9-3.29-6.55-5.9-12.44-3-6.82-6.59-14.91-9.46-19.88C69.54,346.62,68.78,368,74,381a12,12,0,0,0,2.76,4.41l.91.82-.58,1.08a74.54,74.54,0,0,0-3.19,7.14c.1.27.17.53.23.75a3.08,3.08,0,0,0,.21.6l.46.63-.23.74c-2,6.45-4.6,18.52-.7,29.73l12.23-15.29,1.23,1.46A135.74,135.74,0,0,0,99.92,425.8c1.52,1.4,3.07,2.83,4.65,4.33l.15.15c8.63,7.31,15.73,11.85,20.7,13.26l2.18-18.25,10-2.25,1.08-11.82.62-.41a25.39,25.39,0,0,0,5.36-5.07v-.15a25.86,25.86,0,0,1,1-7.71l.17-.54.49-.3a12.19,12.19,0,0,1,9.93-1.25c6.33,1.79,12.2,8,17.47,18.52,3.37-6.77,9.79-26.26-15.29-45.27L157,368l1.12-1.27c.11-.13,11.35-12.52,27.19-7.35a42.48,42.48,0,0,0-7.88-12.5l-2.81-3.08,4.15.48c9.21,1.07,11.75-.19,12.45-1s.17-2.86-.43-4.69a12.89,12.89,0,0,1-.85-4l.1-3.16,2.45,2a35,35,0,0,1,5.14,5.65l8.28-17.13,10.9-9.14a82,82,0,0,1,16.54-10.07l2.17-.94v2.36c.07,11.69-2,24.62-6.17,38.42l-.2.67-.64.3s-4.52,2.13-5.16,5.73c-.4,2.21.75,4.67,3.39,7.31l.65.65-5,17.46-1.08.09c-.05,0-5.68.51-7.85,4.07-1.23,2-1.14,4.8.29,8.23l.24.58-6.85,17.57c6.39-1.6,21.23-3.38,35.81,9l.41.34.11.53c.12.59.25,1.18.39,1.75l0,.22a58,58,0,0,0,1,5.83c.12.6.25,1.19.37,1.8.29,1.74.67,3.41,1.07,5.18.2.89.41,1.79.6,2.7.26,1.42.53,2.69.83,3.88.25-1.21.47-2.52.68-4a44.35,44.35,0,0,0,.22-6.67l0-1.48,2.8-1a76.23,76.23,0,0,1,6.23,9.65c1-2.29,2.74-5.87,5.27-10.74l.8-1.55,1.45,1c2.41,1.61,3,3.81,3.56,5.95.16.58.32,1.2.53,1.83a19.79,19.79,0,0,0,3.44,5.79c.48.64,1,1.27,1.41,1.92a86.79,86.79,0,0,0,5.76,7.38l.4.44c-.09-.19-.18-.37-.28-.56-1.36-2.67-2.73-5.47-4.05-8.32-.49-1.06-.89-2.15-1.28-3.2a21.26,21.26,0,0,0-2.29-4.93c-.52-.76-1-1.57-1.51-2.42-1.26-2.13-2.56-4.33-4.38-5.72l-1-.79.58-1.15c2.76-5.47,5.61-11.13,8.06-17.23Zm5.22-1.22a51.7,51.7,0,0,1,4,6.8c.19.37.38.74.58,1.11a47.34,47.34,0,0,1,.47-5,19.93,19.93,0,0,1,2.63-7.29l0,0a9.2,9.2,0,0,1,3.07-3l-7.67-10.09-1.86,2.32C282.46,384.3,282.93,389.57,280.52,396.59ZM217.07,295.85l-.83-3a58.82,58.82,0,0,0,14.64-8.6l1.89-1.44.57,2.31a70.62,70.62,0,0,1,1.54,8.34l.24,2-2-.28A50.08,50.08,0,0,0,217.07,295.85Zm10.29-4.14c1.41,0,2.8.06,4.15.18-.19-1.24-.41-2.47-.67-3.7q-2.73,2-5.34,3.55Z" style="fill:#fff"/><polygon points="234.58 305.58 233.38 302.7 247.42 296.84 234.26 295.21 234.65 292.12 253.64 294.46 254.05 297.45 234.58 305.58" style="fill:#fff"/></g></g></svg>