<svg xmlns="http://www.w3.org/2000/svg" viewBox="0 0 358.77 353.04"><defs><style>.cls-1{fill:#c63109;}.cls-2{fill:#fff;}</style></defs><g id="Layer_2" data-name="Layer 2"><g id="Layer_1-2" data-name="Layer 1"><path class="cls-1" d="M132.87,4.27C129,24.06,136.26,45.35,158,68c8.25-5.37,23.29-8.06,36.85-6-33.9-16.44-49-34.73-62-57.75ZM15.24,8.87c10.59,34.24,38.25,75.3,74,104.41-26.6-1.69-58.72-11.2-81.69-18.64,18.4,25.94,47.29,39,76.16,48.86-18.4,13-40.61,26.31-76.23,28.52,40.27,14.15,79.25,6.56,96.79.52-13.19,25.72-74.22,48.78-90.14,56.74,39.26,3.1,89.7-8.1,123.09-24.24,7.36,18.12-1.18,39.2-7.45,57.33-1.4,3.32-2.8,6.56-4.2,9.8,3.76-2.58,7.44-5.16,11-7.81,17.39-11.94,35.23-23.51,43.85-43.33,19.24,23,46.21,45.76,78.86,62.93,12.82,16.29,20.85,36.12,25.2,54.39,6.12-14.07,10.17-29.62,7.15-44.44,18.05-2.65,26.23-21.88,26.16-40.09-9.28,4.57-11.13,4.65-23,6.05,0-7.45.44-9.22-2.21-21.16a38.34,38.34,0,0,1-22.7,8.7c1.55-5.6,2.21-14.37,2.73-20.12-9.59,5.23-14.15,7.15-22.19,8-.29-8-.07-14.74-3-22.4-21.81,14-35.82,1.1-50.11-15.7,14.59-12.53,71-16.07,70.08,5.23,10.32-5.38,13.86-8.25,17.4-11.72,6.7,6.27,9.87,15.41,11.12,23.15,6.86-6.93,7.59-7.74,12.61-17.54,4.2,7.44,6.48,12.52,7.88,22.55,6.27-4.57,11.35-9.66,14.59-15.77,5.53,11.42,6.12,11.79,9.14,24.32,13.12-9.66,16.07-23,16.8-35.08,1.48-24.32-.22-79.74-22.84-105.32,1.25,26.76-9.66,51.59-24.91,59.48-9.29,3.61-71.12-55-101.41-68.76-17.32-7.52-35.45,5.23-50,6.85C102.06,67.52,55.32,41.53,15.24,8.87Zm196.7,93c9.8,15.4,23.73,27.19,44.29,40.53-14.29,2.14-48.49-4.93-57.26-17.68C194.92,118.88,204.21,109,211.94,101.86ZM126.82,224.42A192.27,192.27,0,0,1,94.55,235c-1.77,2.65-3.4,5.23-4.94,7.73,10.9,3.91,23.21,5.16,32.5,2.07a98.58,98.58,0,0,0,4.71-20.34ZM76.71,238.49l-7.52,1.11c-23.44,27-45.61,76-35.55,111.94H60.27C52.07,323.76,48.09,287.35,76.71,238.49ZM83,254.34A173.73,173.73,0,0,0,72.8,278c9.51,4.94,21.45,6.56,33,6.05,3.39-7.74,7.22-16.07,10.76-24.54-11.35,1.32-23.14-1-33.61-5.16Zm82.1,4.86A295.93,295.93,0,0,1,136.4,281c5.16,25.05,24.62,46.72,54.47,70.52h61.39c-42.16-23.43-69.72-54-87.19-92.34ZM69.27,291a101.32,101.32,0,0,0-2.21,24.25c27.49,10.46,46.06,9.94,71.85,3a96.51,96.51,0,0,1-12.45-23.81C102.36,301.43,85.63,298.7,69.27,291Zm78.56,38.62c-28.08,8-50.71,9.72-79.23.22a158.33,158.33,0,0,0,5.53,21.66H170a215.09,215.09,0,0,1-22.18-21.88Z"/><path class="cls-2" d="M258,353h-67.7l-.41-.32c-33.79-27-50.24-48.31-55-71.4l-.21-1,.83-.56a292.93,292.93,0,0,0,28.52-21.71l1.52-1.32.84,1.83c17.88,39.24,46.19,69.22,86.54,91.65Zm-66.65-3H246.6c-37.72-22.07-64.6-51.05-82-88.4a298.83,298.83,0,0,1-26.47,20.05C142.93,303.58,159,324.11,191.39,350ZM174,353H73l-.34-1a157.74,157.74,0,0,1-5.57-21.87l-.43-2.47,2.38.79c29.7,9.9,52.8,7.07,78.34-.24l.92-.26.62.73a213.81,213.81,0,0,0,22,21.73Zm-98.8-3H166a208.53,208.53,0,0,1-18.71-18.68c-25,7.07-47.86,9.82-76.79.72A159.07,159.07,0,0,0,75.23,350Zm-13,3H32.51L32.2,352c-9.93-35.39,11.07-84.81,35.86-113.34l.37-.41,11.15-1.65L78,239.25c-29,49.61-24,85.84-16.29,111.87Zm-27.48-3H58.27c-7.38-26-11.63-61.59,15.59-109.61L70,241C46.1,268.7,25.92,315.92,34.79,350Zm249.25-7-1-4.38c-3.43-14.41-10.5-35.38-24.73-53.56a264.21,264.21,0,0,1-77.49-61.34c-8.72,18.06-25.16,29.32-41.08,40.22l-2.3,1.58c-3.83,2.87-7.88,5.68-11,7.81l-4.29,2.94,2.06-4.77c1.4-3.24,2.8-6.48,4.2-9.79.45-1.32,1-2.74,1.45-4.18,5.71-16.27,12.16-34.65,6.55-50.52C100.71,224,50.67,233.66,14,230.78l-5.38-.43,4.82-2.41c2.78-1.39,6.79-3.18,11.87-5.44,22.15-9.87,62.34-27.8,75.63-47.33-13.62,4.07-52.24,12.93-94-1.74L0,171l7.39-.46C41.78,168.39,63.23,156,80.45,144c-26.6-9.29-55.7-22.48-74.12-48.45L3.71,91.82,8,93.21C28.83,100,58.86,109,84.65,111.41,52.14,83.75,24.58,44.14,13.81,9.31L12.34,4.57l3.85,3.14c42.19,34.38,88.55,59,141.72,75.31,4.57-.56,9.57-2.25,14.85-4,11-3.72,23.47-7.93,35.58-2.68,15,6.81,37.52,24.41,57.42,39.94,18.13,14.15,38.68,30.18,42.78,28.82,14.89-7.77,25.21-32.68,24-58l-.2-4.25L335.18,86c27,30.5,23.69,98.72,23.22,106.4-.69,11.4-3.3,25.81-17.41,36.19l-1.82,1.34-.53-2.19c-2.63-10.91-3.34-12.36-7.28-20.43l-.52-1.06A52,52,0,0,1,317.25,220l-2,1.47-.34-2.48a51.59,51.59,0,0,0-6.36-19.57c-3.95,7.58-5.19,9-11.58,15.41l-2.07,2.1-.48-2.91c-.83-5.16-3.19-14.57-9.66-21.29-3.61,3.38-7.6,6.22-16.68,11l-2.31,1.21.12-2.6c.18-4.18-2.21-7.51-7.12-9.9-15.32-7.46-47.74-3.35-59.32,5,13.59,15.79,26.7,27.35,47.15,14.21l1.55-1,.66,1.72c2.65,6.89,2.83,13.15,3,19.78,0,.49,0,1,.05,1.49,6.78-.88,11.24-2.81,20-7.6l2.46-1.35-.4,4.47a145.62,145.62,0,0,1-2.12,16.64,36.61,36.61,0,0,0,19.8-8.19L293.5,236l.53,2.37c2.34,10.51,2.31,13.27,2.26,18.77v1c10.27-1.21,12.22-1.47,20.82-5.7l2.15-1.06v2.4c.07,18.17-7.92,37.68-25.91,41.31,2.21,12.75-.26,27.11-7.52,43.82ZM180,218.2l1.56,1.86c14.54,17.39,39.94,42.35,78.4,62.58l.29.15.19.25c13.3,16.88,20.52,36.11,24.38,50.56,5.92-15,7.67-27.93,5.33-39.39l-.32-1.55,1.57-.23c16.49-2.42,24.23-19.54,24.84-36.2-7.39,3.49-10.1,3.81-19.93,5l-3,.35v-1.68c0-1,0-1.9,0-2.74,0-4.85.07-7.47-1.69-15.78A39.91,39.91,0,0,1,270,248.91l-2.1.13.56-2c1.28-4.63,1.95-11.62,2.44-17.07-8.23,4.37-12.77,6-20.3,6.8l-1.59.16-.06-1.59c0-1.07-.07-2.11-.09-3.13-.18-6.05-.33-11.34-2.22-17.08-22.06,13.11-36.47-.53-50.47-17l-1-1.13,1.13-1c11.21-9.62,46.72-14.59,63.76-6.29,5.05,2.46,8,6,8.67,10.24,8.95-4.8,12-7.46,15-10.37l1-1,1,1c6.53,6.1,9.61,14.42,11.05,21.14,4.86-5,5.9-6.48,10.32-15.13l1.27-2.48,1.37,2.43c4.06,7.19,6.27,12.16,7.68,20.58,5.6-4.39,9.59-8.9,12.17-13.77l1.38-2.61,1.29,2.66,1.75,3.58c3.68,7.55,4.66,9.55,6.95,18.79,11.54-9.53,13.77-22.33,14.4-32.57,1.58-26.18-1-75.55-19.75-100.86-.05,25.26-10.55,48.55-25.82,56.45l-.15.07c-5.29,2.05-20.08-9.19-45.78-29.24-19.77-15.42-42.17-32.91-56.79-39.56-11-4.78-22.4-.94-33.4,2.78-5.56,1.88-10.81,3.65-15.78,4.2l-.31,0-.29-.09c-52-15.9-97.57-39.72-139.09-72.76,12,34.41,39.79,72.72,71.94,98.9l3.63,3-4.68-.3C63.8,113.17,33.57,104.51,11.57,97.5c18.69,23.71,47.06,35.83,72.63,44.58L87,143l-2.39,1.69C66.7,157.4,45.91,169.45,15,172.87c43,12.54,81.2.85,88.74-1.75l3.53-1.22-1.7,3.32c-11.16,21.75-55.33,41.44-79.06,52-2.33,1-4.52,2-6.46,2.89,36,1.51,83-8.25,116.47-24.45L138,203l.6,1.48c7,17.25.14,36.85-5.93,54.14-.5,1.43-1,2.85-1.48,4.25q-1.09,2.59-2.17,5.1c2.13-1.5,4.41-3.13,6.63-4.8l2.36-1.61c16.2-11.1,33-22.57,41-41.12ZM106.22,324.89c-11.93,0-24.39-2.38-39.7-8.2l-.93-.36,0-1a102.44,102.44,0,0,1,2.24-24.6l.39-1.85,1.71.8c18.1,8.48,34.89,9.49,56.14,3.38l1.37-.39.46,1.34a94.8,94.8,0,0,0,12.27,23.44l1.23,1.75-2.07.55C127.55,322.91,117.11,324.89,106.22,324.89ZM68.53,314.24c27.17,10.16,45.19,9.07,67.94,3.16a97.08,97.08,0,0,1-11-21.07c-20.7,5.71-37.38,4.76-55.15-3.14A99.09,99.09,0,0,0,68.53,314.24Zm33.22-28.61c-8.77,0-19.94-1.27-29.64-6.3l-1.14-.6.41-1.22a174,174,0,0,1,10.26-23.86l.62-1.2,1.27.49c7.94,3.14,20.09,6.56,32.88,5.07l2.54-.3-1,2.37c-2.37,5.68-4.87,11.28-7.28,16.7-1.19,2.67-2.36,5.3-3.49,7.86l-.37.86-.93,0C104.58,285.59,103.2,285.63,101.75,285.63Zm-27.1-8.39c10.09,4.86,21.74,5.62,30.17,5.34,1-2.3,2.06-4.64,3.12-7,2.08-4.67,4.22-9.47,6.29-14.34-9.56.68-20-1-30.54-5A171.75,171.75,0,0,0,74.65,277.24ZM110.28,248a64,64,0,0,1-21.18-3.87l-1.74-.63,1-1.57c1.3-2.12,3-4.91,5-7.79l.33-.49.58-.13a190.81,190.81,0,0,0,32-10.46l2.36-1-.27,2.56a100.78,100.78,0,0,1-4.79,20.66l-.24.7-.71.24A39,39,0,0,1,110.28,248Zm-18.41-6.09c10.5,3.43,21.18,4.05,29.06,1.67A101.78,101.78,0,0,0,125,226.81a193.33,193.33,0,0,1-29.54,9.47C94.15,238.27,92.92,240.21,91.87,241.89Zm158.77-97.64c-16.3,0-44.75-6.83-52.9-18.69-4.79-6.88,5.23-17.45,13.19-24.8l1.32-1.22,1,1.51c9,14.08,21.66,25.7,43.84,40.08l3.32,2.16-3.91.59A40.11,40.11,0,0,1,250.64,144.25Zm-39-40.07c-10.06,9.53-13.91,16.14-11.46,19.67,7.32,10.64,35.55,17.89,51.59,17.41C232.19,128.2,220.29,117.19,211.66,104.18ZM157.77,70l-.86-.9C135.8,47,127.22,25.15,131.4,4l.78-4,2,3.54c13.12,23.27,28,40.94,61.33,57.13L204.38,65l-9.76-1.48c-12.86-1.94-27.58.44-35.8,5.79ZM133.69,8.72c-2.1,18.59,6.14,37.88,24.56,57.4,7.18-4.23,18.24-6.53,29-6.26C159.65,45.16,145.65,29.05,133.69,8.72Z"/></g></g></svg>