<svg xmlns="http://www.w3.org/2000/svg" viewBox="0 0 300.26 427.88"><title>Dretch</title><g id="fdac786e-1d31-41b3-9c0b-cc423f0080d5" data-name="Layer 2"><g id="b6b06a42-9db8-4613-a066-0aee2688b18d" data-name="Layer 1"><path d="M223.32,10.54S262.21,14,275.56,4.73c0,0-17.41,15.1-25.54,12.19,0,0-1.16,8.71,5.23,12.77,0,0-15.1-9.28-18-2.32s-7,5.23-7,5.23Z" style="fill:#ac7d6f"/><path d="M231.45,33.79a4,4,0,0,1-1.56-.28l-.42-.18L221.92,9.41l1.49.13c.39,0,38.68,3.35,51.58-5.63l1.23,1.58c-.7.6-16.39,14.08-25.27,12.69,0,2.36.37,7.83,4.83,10.67l-1.06,1.69C252,28.86,244,24.75,240.07,26a2.88,2.88,0,0,0-1.89,1.74c-1.24,2.95-2.85,4.85-4.79,5.64A5.06,5.06,0,0,1,231.45,33.79Zm-.38-2c.94.12,3.3-.09,5.26-4.78a4.84,4.84,0,0,1,3.12-2.87c3.13-1,7.73.5,11.25,2.07a17,17,0,0,1-1.67-9.4l.16-1.22,1.17.41c4.26,1.52,12-2.75,17.93-6.9-14.6,4.34-37.46,3-43.57,2.57Z" style="fill:#fff"/><path d="M295.87,303.67s-4.05-19.73-11.6-20.9c0,0-13.93-30.76-18.58-29,0,0-6.67-13.93-15.67-31.92-.58-1.16.58-30.19-8.13-36A56.75,56.75,0,0,0,234.35,129L224.08,95.38l-1.24-4.06h0l-1.85-6-4.05-13.22L220,67.41l4.72-7.15,5.59-8.46c0-.31,0-.63,0-.95,0-3.36,1.15-6.09,2.58-6.09a1.81,1.81,0,0,1,1.42,1l1.8-2.74s4.06-8.12-1.74-9.86c0,0,0-.52-.17-1.38C233.5,27,230.69,11,223.32,10.53c0,0-28.69-22.82-59.76,1.91A87.12,87.12,0,0,0,147.3,30c-6.16,8.6-12.23,19.53-18,33.37,0,0-34.83,23.22-33.09,41.21,0,0-18,22.64-12.77,53.41,0,0-16.83,30.76-12.76,41.2,0,0-16.84,26.71-19.17,25,0,0-43.52,55.72-22.63,96.94l2.32,11.6s-6.38,5.22-5.22,25S21.32,396,21.32,396s-24.38,8.13-19.73,25.55c0,0,7-12.78,9.86-8.13s6.39,10.44,6.39,10.44l7.55-7.54,6.38,8.7,9.86-9.28,5.23,9.86,4.64-10.44s.59,4.06,7-3.48S75.3,397.7,73,390.15a167.49,167.49,0,0,1-4.64-24.37c0-1.75,7.54-10.45,8.12-18,0,0,10.45-20.91,8.71-30.19L91.56,335,98,327.46l-1.17,9.87,7.54-9.29s13.94-15.66,14.52-20.89l5.22,7.55S109,343.14,120,357.08l2.9-12.78s7.55-3.48,8.71-6.39c0,0-4.64,25.54,2.33,30.19s-2.33,36-2.33,36-11.61,11-4.64,15.66,31.34-3.47,44.11,4.07,19.74-1.15,19.74-1.15,8.52,1.59,9.74,4.27c-.52-1.58-2.75-7.86-5.82-10.94l7.68,6.67s2.9-14.52-11-19.74c0,0-10.77,5.57-12.2.58-1.16-4.07-4.64-48.76,4.07-56.89,0,0,11-1.74,8.71-32.5,0,0,1.16-21.49-22.65-43,0,0,33.09-30.18,37.15-53.4,0,0,12.78,25,16.26,48.18,0,0,12.77,18.58,29.61,25.54,0,0,3.48,16.83-.59,20.9l4.65,4.64s2.32,37.15-15.1,19.73c0,0-1.16,21.49,19.74,11,0,0-6.38,13.92-16.83,7.54,0,0,1.16,13.35,27.86,0,0,0,0,9.28-12.19,11,0,0,18,12.19,31.35-19.16,0,0-2.91-31.92,6.39-13.93C297.63,333.27,302.26,313,295.87,303.67ZM222.16,40.14c2.25,0,4.07,3.24,4.07,7.26s-1.82,7.25-4.07,7.25-4.06-3.24-4.06-7.25S219.92,40.14,222.16,40.14Zm-16.38-6.9c-4.64,4.37-7.56-.39-7.22-2.77.24-1.68,3.72-1.14,6.34-.48A1.93,1.93,0,0,1,205.78,33.24Z" style="fill:#727a5f"/><path d="M181,427.88a20.38,20.38,0,0,1-10.41-3.2c-6.92-4.08-17.48-3.39-26.79-2.78-7.54.49-14,.91-17.38-1.31a5.62,5.62,0,0,1-2.65-4.3c-.44-5.16,5.74-11.53,7-12.73,3.49-11.88,7.25-31.57,2.66-34.63-5.94-4-4.36-20.35-3.31-27.77a35.63,35.63,0,0,1-6.3,3.84l-3.26,14.34-1.29-1.64c-10.58-13.38,1.57-38.77,3.67-42.93l-3.7-5.35c-2.7,6.35-12.84,17.85-14.12,19.29l-9.69,11.93,1.18-10L91.21,337l-5.08-13.86c-1.32,9.79-7.8,23.16-8.69,24.95-.47,5.17-3.92,10.7-6.21,14.38a20.87,20.87,0,0,0-1.9,3.37c0,1.55,2.31,16.55,4.61,24.05,1.87,6.07-3.4,11.14-9,16.52-2,1.91-4,3.88-5.74,5.91-3.2,3.78-5.47,5.31-7.15,4.83a1.52,1.52,0,0,1-.32-.12l-4.82,10.85-5.58-10.53-9.73,9.17-6.36-8.68-7.63,7.63-.66-1.1c0-.06-3.51-5.86-6.37-10.43-.35-.56-.64-.55-.77-.55C8,413.41,4.4,418.44,2.47,422l-1.2,2.2-.65-2.42C-3.83,405.08,17,396.51,20.51,395.19c.87-3,5.5-19.88,4.46-37.48-1-17.18,3.62-23.7,5.13-25.35l-2.19-10.94C19.3,304.3,20.52,282,31.43,256.76a171,171,0,0,1,19.28-33.23l.6-.77.56.41c2.21-1.06,10.56-12.84,17.69-24.11-3.39-10.68,11-37.87,12.83-41.26C77.66,129.1,93,107.17,95.17,104.28,94,86.58,125.09,65,128.48,62.69a170.75,170.75,0,0,1,18-33.28,88.46,88.46,0,0,1,16.45-17.75c29.8-23.73,57.84-4.25,60.75-2.1,7.67.9,10.58,15.71,11.49,22.1q.06.46.09.78A4.85,4.85,0,0,1,238,35.05c1.47,3.41-.9,8.24-1,8.44l-.06.1-2.66,4-.83-1.31c-.26-.41-.48-.56-.57-.56-.46,0-1.58,1.78-1.58,5.09,0,.29,0,.59,0,.87l0,.34L218,72.22l17.23,56.26a58.34,58.34,0,0,1,7.87,57c6.74,5.64,7.38,24.43,7.65,32.6.06,1.52.11,2.95.17,3.34,7.8,15.59,13.91,28.25,15.33,31.2,1.91.12,5,2.76,11.32,14.47,3.47,6.37,6.55,13,7.37,14.76,7.43,1.91,11.26,18.61,11.84,21.38,6.4,9.61,2,29.38,1.79,30.23l-.61,2.66-1.25-2.43c-2.54-4.91-3.62-5-3.64-5h0c-1.3.54-1.71,9.11-.87,18.34l0,.25-.1.23c-5.11,12-11.51,19.19-19,21.41a17.22,17.22,0,0,1-13.81-1.81l-2.15-1.45,2.56-.37c8-1.15,10.37-5.74,11.06-8.3-11,5.23-18.93,6.53-23.7,3.85a7.44,7.44,0,0,1-3.87-5.51l-.17-2,1.68,1a8.47,8.47,0,0,0,7.09,1.2c3-.93,5.38-3.62,6.78-5.68-5.44,2.17-9.8,2.22-13,.13-5.76-3.78-5.33-13-5.31-13.42l.12-2.24L242,336c2.49,2.5,6,5.23,8.55,4.08,4.9-2.21,5.18-16.75,4.86-22.66l-5.09-5.08.71-.71c2.92-2.92,1.38-14.58.42-19.48-16.66-7.13-29-24.92-29.56-25.68l-.13-.19,0-.23c-2.77-18.51-11.62-38.37-14.91-45.31-5.51,21-31,45.7-36,50.38,22.64,20.9,22.24,41.38,22.17,42.95,2.14,28.59-7.22,32.84-9.21,33.41-8,8.12-4.85,51.36-3.61,55.72a1.63,1.63,0,0,0,1,1.1c2.14.92,7.16-.92,9.82-2.3l.39-.2.42.16c14.55,5.45,11.69,20.71,11.65,20.86l-.33,1.69-3.67-3.18a46.53,46.53,0,0,1,2.11,5.26l-1.86.72c-.65-1.44-5.18-2.92-8.48-3.6A14.45,14.45,0,0,1,181,427.88Zm-26.57-8.44c6.31,0,12.44.73,17.17,3.52,11.82,7,18.18-.6,18.45-.92l.37-.46.59.1a33,33,0,0,1,7.35,2.25,24.28,24.28,0,0,0-4.32-7.22l1.36-1.46,6.26,5.42c.25-3.83-.34-12.72-10.2-16.65-1.74.86-7.78,3.59-11.13,2.15a3.59,3.59,0,0,1-2.08-2.38c-1-3.35-5.1-49.09,4.35-57.9l.22-.21.31-.05c.08,0,10.06-2.25,7.86-31.44v-.12c0-.21.81-21.3-22.32-42.17l-.81-.73.81-.75c.33-.3,32.89-30.22,36.84-52.83l.51-3,1.36,2.66c.13.25,12.81,25.21,16.32,48.26,1.38,1.94,13.57,18.6,29,25l.49.2.11.52c.35,1.69,3.14,15.86-.23,21l4.28,4.28,0,.38c.13,2.21,1.14,21.75-6,25-2.47,1.12-5.5.16-9-2.83.23,2.75,1.12,7.23,4.34,9.34s7.76,1.5,13.88-1.56l2.54-1.26L262,348.21c-.14.3-3.51,7.53-9.54,9.37a9.67,9.67,0,0,1-6.36-.25,5.76,5.76,0,0,0,2.06,1.87c3,1.68,9.59,2.2,23.53-4.77l1.44-.72v1.62c0,.09-.12,8.57-10.1,11.4a15.38,15.38,0,0,0,9.63.34c6.85-2,12.77-8.78,17.61-20-.53-5.92-1.29-19.13,2.33-20.19,1.41-.41,2.84.66,4.61,3.54,1-5.73,2.62-19.28-2.11-26.15l-.11-.17-.05-.2c-1.09-5.3-5.15-19.24-10.77-20.11l-.54-.09-.22-.49c0-.08-3.52-7.75-7.52-15.11-7.62-14-9.78-13.4-9.79-13.39l-.86.32-.4-.82c-.06-.14-6.77-14.12-15.67-31.9-.19-.4-.23-1-.33-4.09-.26-7.43-.93-27.17-7.45-31.52l-.73-.48.38-.79a56.2,56.2,0,0,0-7.43-55.85l-.11-.14-17.6-57.5L229.3,51.52c0-.22,0-.44,0-.67,0-3.52,1.23-7.09,3.58-7.09a2.21,2.21,0,0,1,1.28.42l1.08-1.64c.58-1.2,1.83-4.61.92-6.7a3,3,0,0,0-2.08-1.71l-.64-.19-.07-.65s-.06-.51-.17-1.36c-1.35-9.62-4.68-20-9.94-20.4l-.31,0-.24-.19c-1.15-.92-28.46-22-58.52,1.9a86.47,86.47,0,0,0-16.06,17.36c-6.43,9-12.45,20.12-17.91,33.16l-.12.28-.25.17c-.34.23-34.31,23.1-32.65,40.29l0,.4-.25.32c-.18.22-17.65,22.66-12.56,52.61l.06.34-.17.31c-.17.3-16.57,30.47-12.71,40.36l.18.47-.27.43c-3.66,5.81-15.89,24.82-19.44,25.48l-.13,0c-4,5.4-41.56,57.19-22.18,95.41l.09.26,2.44,12.2-.47.38c-.05,0-6,5.3-4.85,24.13,1.16,19.69-4.64,38.47-4.7,38.66l-.15.49-.48.16c-.22.08-21,7.21-19.56,21.78,1.83-2.92,5-7.25,7.7-7.33a2.77,2.77,0,0,1,2.52,1.49c2.12,3.39,4.59,7.45,5.74,9.36l7.47-7.47,6.4,8.74,10-9.41,4.88,9.21L52,411.55l.5,3.42s.07.21.14.23,1.28.28,5.07-4.21c1.79-2.1,3.87-4.11,5.88-6.05,5.12-4.94,10-9.6,8.45-14.49a164.79,164.79,0,0,1-4.69-24.67c0-.84.67-2,2.19-4.4,2.22-3.56,5.57-8.94,5.94-13.67v-.19l.09-.18c.1-.2,10.28-20.71,8.62-29.56l1.92-.53,5.8,15.8,7.42-8.77L98.18,334l5.37-6.61c3.84-4.32,13.85-16.34,14.3-20.37l.29-2.66,7.09,10.25-.29.54c-.14.26-13.39,25.62-5.41,39.44l2.5-11,.45-.21c2.78-1.28,7.46-4,8.2-5.85l1.91.55c-1.26,6.92-3.36,25.67,1.9,29.18,7.36,4.91-1,33.82-1.93,37.11l-.07.25-.19.19c-1.94,1.83-6.88,7.45-6.54,11.3a3.62,3.62,0,0,0,1.76,2.8c2.78,1.85,9.26,1.43,16.13,1C147.15,419.67,150.81,419.44,154.42,419.44ZM222.16,55.65c-2.84,0-5.06-3.63-5.06-8.25s2.22-8.26,5.06-8.26,5.07,3.63,5.07,8.26S225,55.65,222.16,55.65Zm0-14.51c-1.45,0-3.06,2.57-3.06,6.26s1.61,6.25,3.06,6.25,3.07-2.57,3.07-6.25S223.61,41.14,222.16,41.14Zm-20-5.12a4,4,0,0,1-1.88-.46,5.45,5.45,0,0,1-2.73-5.23,2,2,0,0,1,.9-1.43c.72-.48,2.2-1,6.67.12a2.94,2.94,0,0,1,2.13,2.12,2.84,2.84,0,0,1-.81,2.83h0A6.32,6.32,0,0,1,202.18,36Zm-1.38-5.67c-1,0-1.24.23-1.25.24a3.54,3.54,0,0,0,1.67,3.2c1.34.69,2.85-.31,3.87-1.27h0a.85.85,0,0,0,.25-.87.94.94,0,0,0-.68-.68A16.82,16.82,0,0,0,200.8,30.35Z" style="fill:#fff"/><path d="M158.57,68.84S162.63,48,168.44,46.2s33.08-11.6,12.19-29.6c0,0-11-4.06-21.48-1.16,0,0-43.54-9.87-52.82,5.22,0,0,1.16,1.17,11.61-1.16,0,0,10.44,7,21.47,3.49l2.33,6.38s17.41,1.16,5.22,15.09c0,0,12.19-5.22,13.93-.58C160.89,43.88,152.76,63,158.57,68.84Z" style="fill:#ac7d6f"/><path d="M159.19,70.88l-1.33-1.33c-5.78-5.78.72-22.66,1.93-25.63a1.74,1.74,0,0,0-.8-.64c-2.77-1.17-9.34,1.12-11.64,2.1l-4,1.73,2.9-3.31c3.39-3.88,4.71-7.1,3.79-9.32-1.49-3.6-8.26-4.11-8.33-4.11l-.65-.05-2.23-6.11c-10,2.67-19.09-2.45-21-3.64-4.94,1.08-10.88,2.05-12.13.8l-.56-.56.42-.67c9.28-15.09,49.73-6.59,53.64-5.73,10.57-2.83,21.39,1.08,21.85,1.25l.17.06.14.12c6.29,5.42,8.94,10.7,7.88,15.69-2.06,9.66-17.39,14.72-20.44,15.63-3.8,1.14-7.64,14-9.17,21.87ZM157,41a7.29,7.29,0,0,1,2.82.48,3.62,3.62,0,0,1,2.06,2.09l.14.38-.16.36c-1.93,4.56-5.83,16.28-3.71,22,1.31-5.83,4.89-19.44,10.05-21,1.75-.53,17.19-5.4,19-14.14.89-4.18-1.49-8.77-7.08-13.63-1.4-.48-11.38-3.67-20.7-1.08l-.25.07-.24,0c-.42-.1-40.41-9-50.86,3.54a49.67,49.67,0,0,0,9.65-1.43l.42-.1.35.24c.1.07,10.2,6.65,20.62,3.36l.92-.29,2.43,6.7c2,.24,7.73,1.27,9.39,5.27,1,2.37.33,5.25-1.94,8.6A24.55,24.55,0,0,1,157,41Z" style="fill:#fff"/><path d="M236.09,43S228,35.5,226.81,28.53c0,0-9.29-11.61-15.68-2.32,0,0-14.51-12.77-16.83,2.32s-1.74,9.28-1.74,9.28-10.45,4.65-2.9,23.23c0,0-12.2,14.51,4.64,27.28,0,0,2.32,11,5.23,11.6s1.73-5.21,1.73-5.21l3.93,8.7a1.41,1.41,0,0,0,2.58,0L210.55,97l4.57,16a1.19,1.19,0,0,0,2.29,0c1.51-6,4.28-16,5.91-16,0,0,.32-.62.76-1.65a33.5,33.5,0,0,0,2.59-9.62h0a24,24,0,0,0,.06-3.06,13.55,13.55,0,0,0-1.66-6s-.78-3.86.24-6.44A3.26,3.26,0,0,1,228.55,68a17.89,17.89,0,0,0,6-3.94C238.25,60.42,241.35,53.86,236.09,43Zm-30.31-9.8c-4.64,4.37-7.56-.39-7.22-2.77.24-1.68,3.72-1.14,6.34-.48A1.93,1.93,0,0,1,205.78,33.24Zm16.38,21.41c-2.24,0-4.06-3.24-4.06-7.25s1.82-7.26,4.06-7.26,4.07,3.24,4.07,7.26S224.41,54.65,222.16,54.65Zm10.71,2.29c-1.29,0-2.36-2.22-2.55-5.14,0-.31,0-.63,0-.95,0-3.36,1.15-6.09,2.58-6.09a1.81,1.81,0,0,1,1.42,1,10.05,10.05,0,0,1,1.15,5.07C235.44,54.22,234.29,56.94,232.87,56.94Z" style="fill:#ac7d6f"/><path d="M216.27,114.89a2.18,2.18,0,0,1-2.11-1.58L210.35,100l-1.67,3.82a2.42,2.42,0,0,1-4.41,0l-2.08-4.62a2.88,2.88,0,0,1-.66,1.11,2.29,2.29,0,0,1-2.2.6c-3.17-.64-5.26-8.93-5.93-12-5.33-4.13-8.32-8.86-8.91-14.09-.76-6.82,2.82-12.3,4-13.92-6.89-17.49,1.78-23,3.39-23.86.25-1.36.67-3.9,1.4-8.64.65-4.24,2.31-6.87,4.94-7.83,4.57-1.66,10.53,2.51,12.71,4.22a7.75,7.75,0,0,1,5.81-3.16c5.56-.17,10.61,6,10.82,6.29l.16.21,0,.25c1.09,6.56,8.91,13.88,9,14l.14.13.08.17C242.54,54,239.12,61,235.27,64.78a18.61,18.61,0,0,1-6.4,4.17l-.16.06h-.16a2.28,2.28,0,0,0-2.32,1.63,12.59,12.59,0,0,0-.21,5.73,14.44,14.44,0,0,1,1.71,6.27,24.94,24.94,0,0,1-.06,3.19A34.5,34.5,0,0,1,225,95.77c-.45,1.06-.78,1.69-.79,1.72l-.28.54h-.44c-.35.36-1.91,2.57-5.11,15.22a2.17,2.17,0,0,1-2.07,1.64Zm-5.52-20.81,5.33,18.68a.14.14,0,0,0,.19.13.15.15,0,0,0,.17-.13c3.39-13.38,5.12-16.06,6.19-16.6.13-.27.31-.67.53-1.18a32.52,32.52,0,0,0,2.52-9.31,22.48,22.48,0,0,0,0-2.92,12.44,12.44,0,0,0-1.53-5.54l-.08-.14,0-.16c0-.17-.82-4.19.29-7a4.24,4.24,0,0,1,4-2.89,17.08,17.08,0,0,0,5.5-3.65c3.37-3.33,6.33-9.45,1.41-19.72-1.12-1.06-8.13-8-9.4-14.67-.83-1-4.82-5.36-8.83-5.36h-.2c-1.87.07-3.47,1.1-4.88,3.16l-.64.93-.85-.74c-1.95-1.72-7.84-5.87-11.54-4.53-1.89.69-3.11,2.79-3.65,6.25-1.74,11.38-1.75,11.37-2.89,11.23a.92.92,0,0,1-.67-.36c-2.34,1.91-6.64,7.57-1.13,21.11l.22.56-.38.46c-.05.06-4.76,5.78-4,12.92.54,4.75,3.37,9.1,8.42,12.92l.3.23.07.36c1.06,5,3.1,10.56,4.45,10.83.29.06.36,0,.39,0,.48-.48.48-2.49.17-4l-1.72-8.64L206.1,103a.38.38,0,0,0,.37.24.4.4,0,0,0,.38-.25ZM232.87,58c-1.88,0-3.31-2.45-3.55-6.09,0-.32,0-.66,0-1,0-3.52,1.23-7.09,3.58-7.09a2.69,2.69,0,0,1,2.26,1.49,10.83,10.83,0,0,1,1.31,5.6C236.44,54.38,235.21,58,232.87,58Zm0-12.19c-.46,0-1.58,1.78-1.58,5.09,0,.29,0,.59,0,.87.19,2.93,1.2,4.23,1.55,4.23s1.57-1.79,1.57-5.1a9.08,9.08,0,0,0-1-4.53C233.18,45.91,233,45.76,232.87,45.76Zm-10.71,9.89c-2.84,0-5.06-3.63-5.06-8.25s2.22-8.26,5.06-8.26,5.07,3.63,5.07,8.26S225,55.65,222.16,55.65Zm0-14.51c-1.45,0-3.06,2.57-3.06,6.26s1.61,6.25,3.06,6.25,3.07-2.57,3.07-6.25S223.61,41.14,222.16,41.14Zm-20-5.12a4,4,0,0,1-1.88-.46,5.45,5.45,0,0,1-2.73-5.23,2,2,0,0,1,.9-1.43c.72-.48,2.2-1,6.67.12a2.94,2.94,0,0,1,2.13,2.12,2.84,2.84,0,0,1-.81,2.83h0A6.32,6.32,0,0,1,202.18,36Zm-1.38-5.67c-1,0-1.24.23-1.25.24a3.54,3.54,0,0,0,1.67,3.2c1.34.69,2.85-.31,3.87-1.27h0a.85.85,0,0,0,.25-.87.94.94,0,0,0-.68-.68A16.82,16.82,0,0,0,200.8,30.35Z" style="fill:#fff"/><polygon points="223.88 84.78 234.47 77.73 225.78 96.23 218.72 89.17 211.66 92.7 207.27 84.01 198.4 80.19 211.48 73.9 212.14 81.44 220.06 79.53 223.88 84.78" style="fill:#917d46"/><path d="M226.08,98l-7.56-7.56L211.21,94l-4.67-9.26L196,80.24l16.36-7.87.69,7.82,7.44-1.79,3.64,5,12.78-8.51Zm-7.16-10,6.56,6.57,6.57-14-8.42,5.61-4-5.49-8.4,2-.64-7.26-9.8,4.72,7.19,3.1,4.1,8.12Z" style="fill:#fff"/><path d="M208.23,61.62,210.55,68l6.39-5.8,5.8,9.87L228.55,68l4.64,4.07,2.32-7.55S211.71,52.91,208.23,61.62Z" style="fill:#917d46"/><path d="M233.69,73.84l-5.21-4.57-6,4.24-5.73-9.74-6.58,6-3-8.15.14-.35A5.62,5.62,0,0,1,210.67,58c7.62-2.94,24.56,5.24,25.28,5.59l.77.38ZM217.17,60.63l5.88,10,5.56-3.9,4.08,3.57,1.61-5.24c-3.38-1.56-17-7.47-22.91-5.17a3.73,3.73,0,0,0-2.08,1.77l1.67,4.6Z" style="fill:#fff"/></g></g></svg>