<svg xmlns="http://www.w3.org/2000/svg" viewBox="0 0 178.21 312.58"><defs><style>.drui-1{fill:#df0b13;}.drui-2{fill:#fff;}</style></defs><title>Druid</title><g id="Layer_2" data-name="Layer 2"><g id="Layer_1-2" data-name="Layer 1"><path class="drui-1" d="M174,27.32a109.59,109.59,0,0,0-46.45-10.7C96.71,16.5,65.54,35.45,54.88,65c-10,27.8,5.76,66.38,38.89,66,0,0-.26,1.21-.81,8.47-.32,4.28-.57,8.59-1.22,12.83-.53,3.45-.26,6,2.47,8.86,1.73,1.82,1.53,5.82,1.52,8.84-.1,19.33-.46,38.65-.59,58-.11,15.94,0,31.87,1,48,6.35-3.74,10.81-7.72,11.22-15.31.29-5.15,2.46-10.19,4-16.17-3.68-3.59-8.58-8-6.94-15.95l8.07.8c-3.68-5.52-8.86-10.66-4.55-17,1.17-1.72,6-1,10-1.41a52,52,0,0,1-.52-5.25c-.06-4.25-.52-8.62.3-12.72a11.82,11.82,0,0,1,4.86-7.24c1.19-.7,4.45,2.16,7.45,3.78,1.9-3.39,4.11-7.43,6.42-11.41,2.05-3.53,4.78-8.58,9.38-8.93,3-.23,5.72,1.92,7.11,4.56,1.95,3.69,2.36,25.89,5.75,26.75,7.33,1.86,9.6,6,5.15,14.26-2.5,4.62-6.93,8.21-10.61,12.16a46.09,46.09,0,0,1-4.75,3.79,11.2,11.2,0,0,1,2.26,1.7c1.69,2.37,4.78,5,4.48,7.17-.32,2.37-3.43,5.36-6,6.22-4.9,1.68-10.24,2.06-16.06,3.1,3.2,4.15,1.24,6.45-2.43,8.5-4.29,2.4-9.17-.14-12.92,3-2.24,1.86-1.27,6.22-2.49,8.58a8,8,0,0,1-1.22,1.73c-3.42,3.77-10.59,6-14.33,8.8s-3.93,4.44-3.12,8.85a38.41,38.41,0,0,1,.54,12.59c-.67,4.35-2.7,7.48-6.93,9.19-8.89,3.6-17.87.76-23.25-7-4.4-6.39-5.6-15.43.06-21.47,4-4.22,7.27-19.61,4.53-24.16-1.63-2.7-10.1-3.55-12.67-5.6-4.89-3.92-3.48-9.67-10.26-11.45-5.39-1.41-10.18-5.61-14.8-9.14-1.31-1-1.11-4-1.83-7-2.89-.45-7.12-.82-11.21-1.83a18.23,18.23,0,0,1-7.27-3.44c-4.35-3.67-2.79-7.83,4.86-12.42-3.1-2.58-6.31-4.74-8.86-7.51-2.72-2.95-5.52-6.19-7-9.83-3.32-7.88-1.29-11.3,6.32-13.08,1.12-7.43,1.91-14.73,3.41-21.89.85-4.07,1.92-9,7.48-9.17,5.08-.19,8,3.34,10.2,7.47,2.37,4.4,4.8,8.76,7,12.7,2.94-1.64,6.69-4.52,7.33-3.94,2.4,2.16,4.73,5.27,5.34,8.37.79,4.08,0,8.48-.23,12.74-.07,1.62-.31,3.24-.36,3.76,4.09.82,9,.39,10.22,2.29,3.84,6.22-1,11.25-5,16.67l8-.94c2.06,7.91-3,12.27-6.66,16,1.56,6,3.86,11.25,4.06,16.54.34,8.82,2,11.87,12.18,15.24,0-4.25,0-8.22,0-12.19-.24-23.63-.62-47.25-.59-70.88,0-2.53,2-5.36,3.73-7.52,5-6.19,3.93-12.5-2.52-16.9-9.78-6.68-20.76-12.45-28.53-21C3.67,78.78,50.47,7.68,102.81,1.56A86.14,86.14,0,0,1,159,14.86,73,73,0,0,1,174,27.32Z"/><path class="drui-2" d="M82.69,312.58a19.87,19.87,0,0,1-16.47-9c-4.32-6.26-6.11-16,.15-22.73,3.63-3.87,7-18.71,4.4-22.95-.72-1.2-3.92-2.16-6.48-2.93s-4.69-1.4-6-2.41a15.22,15.22,0,0,1-4.15-5.76c-1.25-2.56-2.23-4.58-5.75-5.5-4.81-1.26-9-4.57-13.15-7.77l-2-1.55c-1.19-.91-1.43-2.66-1.7-4.68-.1-.73-.2-1.49-.35-2.26l-1.94-.25a80.61,80.61,0,0,1-8.68-1.48A19.23,19.23,0,0,1,13,219.68c-2-1.66-2.89-3.48-2.73-5.4.21-2.6,2.34-5.19,6.51-7.89-.59-.48-1.19-.95-1.78-1.41a49.07,49.07,0,0,1-6.09-5.32c-2.66-2.88-5.63-6.28-7.25-10.12-1.8-4.27-2.08-7.35-.89-9.68,1.08-2.14,3.4-3.61,7.25-4.6.29-2,.56-3.94.83-5.9.7-5.07,1.43-10.32,2.49-15.39.86-4.1,2-9.72,8.42-10,5.95-.21,9.05,4.16,11.12,8,1.68,3.11,3.38,6.2,5,9.14l1.46,2.65c.69-.42,1.41-.88,2.11-1.32,3-1.92,4.5-2.88,5.5-2,1.42,1.28,4.83,4.71,5.65,8.92a33.87,33.87,0,0,1,.05,9.38c-.1,1.19-.21,2.41-.26,3.59s-.16,2.14-.26,2.9c1,.16,2.11.26,3.16.35,3.09.29,5.76.53,6.81,2.23,3.76,6.08,0,11.09-3.61,15.93L63,203l.22.84c2.08,8-2.52,12.56-6.22,16.24l-.29.29c.45,1.7,1,3.35,1.46,5,1.2,3.86,2.34,7.51,2.48,11.25.31,8,1.65,10.83,10.18,13.87v-2.61c0-2.78,0-5.48,0-8.17q-.09-8.79-.2-17.59c-.2-17.47-.42-35.53-.39-53.3,0-2.92,2.26-6.05,4-8.14,2.25-2.78,3.22-5.65,2.84-8.29s-2.17-5.14-5.14-7.16c-2.48-1.7-5.09-3.37-7.62-5-7.48-4.78-15.21-9.72-21.09-16.23-16-17.7-19.78-40.86-10.62-65.21C44,28.47,73.48,4,102.7.56A86.65,86.65,0,0,1,159.49,14a72.81,72.81,0,0,1,15.28,12.63l3.44,3.88-4.64-2.32a108.63,108.63,0,0,0-46-10.59h-.27c-31.47,0-61.5,20.05-71.48,47.75-5.58,15.49-2.93,34.9,6.6,48.3,7.51,10.58,18.48,16.39,30.92,16.39H95l-.27,1.23s-.27,1.37-.79,8.32l-.15,2c-.26,3.58-.53,7.28-1.08,10.9-.49,3.18-.28,5.4,2.21,8,1.86,2,1.82,5.75,1.79,8.79v.75c0,10.32-.18,20.82-.31,31-.11,8.85-.22,18-.28,27-.1,14.59-.06,30.26.9,46.27,5.52-3.47,9-7.15,9.33-13.65a45.33,45.33,0,0,1,2.46-10.94c.48-1.57,1-3.18,1.44-4.87-3.59-3.48-8.49-8.26-6.81-16.46l.18-.88,6.82.67-.42-.59c-3.43-4.8-7-9.77-2.91-15.81,1.08-1.58,3.71-1.62,6.75-1.66,1,0,2,0,2.93-.09,0-.05,0-.11,0-.16a34.61,34.61,0,0,1-.38-4.18c0-1,0-2-.09-3a42.61,42.61,0,0,1,.41-9.9,12.79,12.79,0,0,1,5.34-7.92c1.33-.77,3.1.38,5.55,2,.66.44,1.35.88,2,1.29l1.2-2.15c1.44-2.59,3.07-5.53,4.73-8.39l.24-.42c2.11-3.64,5-8.63,9.94-9,3.56-.28,6.62,2.36,8.07,5.09.87,1.66,1.4,6.11,2,11.26s1.7,14.32,3.11,15c4,1,6.51,2.7,7.58,5.14,1.17,2.67.58,6.12-1.81,10.55-1.9,3.51-4.85,6.44-7.71,9.27-1,1-2.08,2-3.05,3.1a22.1,22.1,0,0,1-3.16,2.62l-.61.44a4.77,4.77,0,0,1,1.37,1.17c.45.63,1,1.29,1.6,2,1.63,1.92,3.33,3.91,3,5.89-.39,2.86-3.82,6.08-6.63,7A62.57,62.57,0,0,1,138.45,249c-1.16.17-2.36.35-3.57.55a5.55,5.55,0,0,1,.84,3.91c-.46,2.24-2.63,3.71-4.47,4.74a13.64,13.64,0,0,1-6.68,1.33c-2.34.05-4.36.09-6.1,1.52-1,.84-1.19,2.61-1.36,4.33a11.3,11.3,0,0,1-.87,3.94,8.94,8.94,0,0,1-1.37,1.94c-2.19,2.42-5.66,4.16-9,5.85a41.55,41.55,0,0,0-5.47,3.08c-3.35,2.48-3.5,3.63-2.73,7.87A38.79,38.79,0,0,1,98.21,301c-.77,5-3.24,8.22-7.55,10A21.29,21.29,0,0,1,82.69,312.58ZM20.15,146h-.37c-4.46.17-5.56,3.73-6.53,8.37-1.05,5-1.74,10-2.46,15.25-.31,2.19-.61,4.38-.94,6.58l-.1.68-.66.15c-3.64.85-5.73,2-6.59,3.73s-.6,4.3,1,8c1.49,3.54,4.33,6.78,6.87,9.54a48,48,0,0,0,5.85,5.09c1,.75,1.94,1.52,2.91,2.33l1.08.9-1.2.72c-4.26,2.55-6.59,5-6.76,7.09-.1,1.26.56,2.47,2,3.71a17,17,0,0,0,6.86,3.23,76.75,76.75,0,0,0,8.45,1.44l2.67.37.66.1L33,224c.26,1.08.4,2.16.53,3.1.2,1.45.4,2.95.93,3.36l2,1.56c3.94,3.08,8,6.26,12.43,7.42s5.75,3.9,7,6.55a13.27,13.27,0,0,0,3.6,5.08c1,.76,3.15,1.42,5.27,2.06,3.34,1,6.5,1.94,7.62,3.8,3,5-.47,20.9-4.65,25.36-5.5,5.88-3.84,14.6,0,20.22,5.18,7.52,13.63,10.08,22,6.67,3.65-1.47,5.66-4.15,6.33-8.41a37.28,37.28,0,0,0-.54-12.26c-.85-4.63-.77-6.68,3.5-9.84a42.53,42.53,0,0,1,5.77-3.26c3.18-1.6,6.48-3.26,8.42-5.4a7.17,7.17,0,0,0,1.07-1.52,9.81,9.81,0,0,0,.66-3.22c.2-2,.44-4.31,2.08-5.67,2.27-1.87,4.84-1.93,7.32-2,2,0,4-.08,5.75-1.08,2.18-1.22,3.25-2.26,3.49-3.39s-.25-2.18-1.36-3.63l-1-1.3,1.62-.29c1.76-.32,3.48-.57,5.15-.82a60.58,60.58,0,0,0,10.76-2.24c2.33-.8,5.05-3.58,5.3-5.42.15-1.1-1.31-2.82-2.59-4.33-.6-.69-1.21-1.42-1.71-2.12a4.31,4.31,0,0,0-1-.74c-.32-.2-.68-.44-1.08-.74l-1.06-.78,1-.81c.61-.48,1.19-.91,1.76-1.32a19.8,19.8,0,0,0,2.88-2.37c1-1.07,2.07-2.13,3.1-3.15,2.76-2.73,5.6-5.55,7.36-8.8,2.05-3.79,2.64-6.76,1.74-8.8-.81-1.84-2.86-3.15-6.26-4-2.42-.61-3.29-5.81-4.59-16.69-.53-4.54-1.09-9.24-1.79-10.56-1.14-2.16-3.49-4.24-6.15-4-3.89.3-6.37,4.58-8.35,8l-.25.42c-1.65,2.85-3.28,5.78-4.72,8.36-.58,1.06-1.15,2.07-1.69,3l-.48.86-.86-.46c-1-.55-2-1.22-3-1.87-1.19-.78-3-2-3.52-1.9a10.87,10.87,0,0,0-4.31,6.55,41.15,41.15,0,0,0-.37,9.44c0,1,.07,2,.09,3.07a33.85,33.85,0,0,0,.36,3.93c.06.46.12.87.15,1.22l.11,1-1,.11a40.84,40.84,0,0,1-4.14.2c-2.06,0-4.63.06-5.12.78-3.3,4.89-.44,8.9,2.88,13.53.56.8,1.13,1.6,1.67,2.4l1.18,1.76-9.26-.91c-1,6.58,2.95,10.38,6.41,13.75l.83.8-.15.57c-.5,1.93-1.07,3.75-1.61,5.51a44.66,44.66,0,0,0-2.38,10.46c-.43,7.9-5,12.15-11.71,16.11l-1.4.83-.11-1.63c-1-16.64-1.1-32.93-1-48,.06-9,.17-18.17.28-27,.13-10.15.26-20.64.31-30.95v-.75c0-2.69.06-6-1.24-7.4-3-3.19-3.3-6.08-2.74-9.71s.81-7.19,1.07-10.74l.14-2c.31-4.05.53-6.24.67-7.39-12.81-.22-24.08-6.3-31.84-17.22C50.9,100.92,48.15,80.77,53.94,64.7c5.21-14.46,15.29-26.85,29.17-35.85a81.94,81.94,0,0,1,44.46-13.23,107,107,0,0,1,25.51,3.17,115.37,115.37,0,0,1,16.45,5.37A80.76,80.76,0,0,0,158.4,15.7,84.6,84.6,0,0,0,102.93,2.55c-28.52,3.34-57.31,27.29-68.47,57-8.88,23.61-5.24,46,10.23,63.16,5.7,6.3,13.32,11.17,20.69,15.88,2.53,1.63,5.16,3.3,7.67,5,3.44,2.35,5.51,5.29,6,8.52s-.65,6.61-3.25,9.83c-1.51,1.87-3.51,4.61-3.51,6.89,0,17.76.19,35.81.39,53.27q.11,8.8.2,17.6c0,2.7,0,5.4,0,8.19v5.39l-1.32-.44c-10.68-3.54-12.5-7-12.86-16.14-.13-3.47-1.23-7-2.39-10.73-.55-1.8-1.13-3.66-1.63-5.6l-.15-.56,1.11-1.1c3.36-3.34,7.15-7.11,5.88-13.47l-9.43,1.11,1.36-1.85c.43-.59.87-1.18,1.31-1.76,3.58-4.74,6.67-8.83,3.6-13.8-.53-.85-3.06-1.08-5.29-1.28-1.41-.13-2.87-.27-4.28-.54l-.89-.18L48,186c0-.12,0-.31.07-.54.09-.73.24-1.95.29-3.17s.17-2.46.27-3.67a33,33,0,0,0,0-8.83,15.29,15.29,0,0,0-4.78-7.58,25.6,25.6,0,0,0-3.33,1.94c-1,.66-2.09,1.34-3.09,1.89l-.88.49-2.43-4.43c-1.62-2.94-3.33-6-5-9.15C26.46,148.11,23.77,146,20.15,146Z"/></g></g></svg>
