<svg xmlns="http://www.w3.org/2000/svg" viewBox="0 0 342.81 342.3"><defs><style>.cls-1{fill:#00aa18;}.cls-2{fill:#fff;}.cls-3{fill:#0077f9;}.cls-4{fill:#c63109;}</style></defs><g id="Layer_2" data-name="Layer 2"><g id="Layer_1-2" data-name="Layer 1"><path class="cls-1" d="M96.63,83.11A27.63,27.63,0,1,1,77.06,75,27.59,27.59,0,0,1,96.63,83.11Z"/><path class="cls-1" d="M218.16,34h0l-.14-.14A118.27,118.27,0,0,0,167.43,5.64a119.91,119.91,0,0,0-33.2-4.12L132,1.59C81.55,3.4,36,37.3,22.24,88.62a56.16,56.16,0,0,0,39.58,68.63v0a55.52,55.52,0,0,0,68-39.56c5.73-21.4,16.53-36.77,31.56-45S194.88,63.8,215,69.18a70.9,70.9,0,0,1,20.66,9.16,72,72,0,0,1,9.84-4.23A115.87,115.87,0,0,0,218.16,34Zm-112,97.82-2,2H104A41.18,41.18,0,1,1,77.05,61.54h0a41.16,41.16,0,0,1,29.12,70.31Z"/><path class="cls-2" d="M76.25,160.64a56.9,56.9,0,0,1-12.93-1.49v0l-1.88-.48A57.6,57.6,0,0,1,20.8,88.23,117.57,117.57,0,0,1,62.45,25.35,121.15,121.15,0,0,1,132,.09l2.2-.07A120.78,120.78,0,0,1,218.93,32.7l.27.24a116.6,116.6,0,0,1,27.66,40.6l.61,1.47-1.51.52a70.52,70.52,0,0,0-9.63,4.14l-.78.41-.74-.49a69.9,69.9,0,0,0-20.22-9C194,65.11,176.32,66.26,162.07,74c-14.58,7.94-25.24,23.17-30.83,44a57.11,57.11,0,0,1-26.49,34.81A56.35,56.35,0,0,1,76.25,160.64Zm-15-5.11,1,.25a53.36,53.36,0,0,0,41-5.5,54.17,54.17,0,0,0,25.1-33c5.81-21.67,17-37.54,32.3-45.89C175.58,63.24,194,62,215.36,67.73a73,73,0,0,1,20.36,8.88,74.82,74.82,0,0,1,7.76-3.38,113.65,113.65,0,0,0-26.17-37.95l-.12-.09L217,35a117.17,117.17,0,0,0-49.9-27.87A119,119,0,0,0,134.26,3l-2.17.07C80.53,4.94,37,39.47,23.69,89A54.6,54.6,0,0,0,61.24,155.53ZM77,145.33a42.64,42.64,0,1,1,30.24-12.42l-2.41,2.4h-.29A42.7,42.7,0,0,1,77,145.33ZM77.06,63A39.68,39.68,0,1,0,103,132.68l.42-.37h.17l1.53-1.52A39.66,39.66,0,0,0,77.06,63Z"/><path class="cls-1" d="M96.63,122.28a27.73,27.73,0,1,1,0-39.17A27.6,27.6,0,0,1,96.63,122.28Z"/><path class="cls-2" d="M180.75,80.08a43,43,0,0,0-12.93,4.49,41.7,41.7,0,0,0-8.93,6.58,84.46,84.46,0,0,1,47.59,14.79,66.45,66.45,0,0,1,7.84-11.35,96.75,96.75,0,0,0-33.57-14.51Z"/><path class="cls-3" d="M286.16,121a27.57,27.57,0,1,1-19.58-8.16A27.59,27.59,0,0,1,286.16,121Z"/><path class="cls-3" d="M307.25,100.26a56.26,56.26,0,0,0-39.9-16.32A57.4,57.4,0,0,0,246.05,88a55.3,55.3,0,0,0-18.58,12.24c-21.74,21.75-20.82,57.07,1,78.83,15.67,15.67,23.59,32.79,23.17,50s-9.09,33.58-23.81,48.3A67,67,0,0,1,204,292.43a67.84,67.84,0,0,1-1.68,7.59A116.59,116.59,0,0,0,306,267.47C352.25,221.22,353.48,146.47,307.25,100.26Zm-11.53,69.47a41.17,41.17,0,1,1,0-58.28A41.32,41.32,0,0,1,295.72,169.73Z"/><path class="cls-2" d="M223,303.36a118.55,118.55,0,0,1-20.94-1.86l-1.62-.29.44-1.59a66,66,0,0,0,1.64-7.42l.13-.86.82-.31a65,65,0,0,0,23.25-14.74c15.09-15.09,23-31,23.37-47.28.41-16.68-7.45-33.58-22.73-48.86a58.32,58.32,0,0,1-17.24-40.45,55.51,55.51,0,0,1,16.28-40.5A56.45,56.45,0,0,1,245.5,86.63a58.52,58.52,0,0,1,21.85-4.19,57.42,57.42,0,0,1,41,16.76h0a117,117,0,0,1,34.5,84.67A120.86,120.86,0,0,1,307,268.53,118.93,118.93,0,0,1,223,303.36Zm-18.81-4.54a115.85,115.85,0,0,0,100.72-32.41,117.93,117.93,0,0,0,34.89-82.58,114.08,114.08,0,0,0-33.62-82.51h0a54.47,54.47,0,0,0-38.84-15.88,55.72,55.72,0,0,0-20.74,4,53.65,53.65,0,0,0-18.08,11.91,52.52,52.52,0,0,0-15.4,38.33A55.34,55.34,0,0,0,229.49,178c15.88,15.87,24,33.53,23.61,51.06-.43,17.07-8.59,33.67-24.25,49.32a67.52,67.52,0,0,1-23.49,15.11C205.07,295.17,204.7,296.89,204.2,298.82Zm62.38-115.54a42.61,42.61,0,1,1,30.2-12.49h0A42.55,42.55,0,0,1,266.58,183.28Zm0-82.36a39.67,39.67,0,1,0,0,79.34h0a39.43,39.43,0,0,0,28.08-11.59h0a39.67,39.67,0,0,0-28.08-67.75Z"/><path class="cls-2" d="M160.07,123.73a52.26,52.26,0,0,0-19.22,3.68A69.41,69.41,0,0,1,109.3,164a52,52,0,0,0,13.92,48.65c.57.57,1.15,1.11,1.74,1.65a70.14,70.14,0,0,1,45.12,8.07l.56.23,5.3,2.84a52.24,52.24,0,0,0,36-44.87,70.7,70.7,0,0,1-13.77-40.21c-.43-.46-.86-.93-1.31-1.38a51.89,51.89,0,0,0-36.82-15.28Z"/><path class="cls-4" d="M189.77,267.84a54.58,54.58,0,0,0-17.16-27.4l-.15-.14a56.54,56.54,0,0,0-51.3-11.39C99.77,234.65,81,233,66.3,224.12s-24.61-24.53-30-44.65a68.76,68.76,0,0,1-2-21.81A72.36,72.36,0,0,1,25.67,150a117.08,117.08,0,0,0-20,102.22c16.92,63.2,81.09,101.48,144.22,84.57h0C179.65,328.79,197.73,297.57,189.77,267.84ZM163,311.42a41.16,41.16,0,1,1,0-58.28A41.32,41.32,0,0,1,163,311.42Z"/><path class="cls-2" d="M119.54,342.3a117.64,117.64,0,0,1-59.87-16.46A120.66,120.66,0,0,1,4.2,252.6c-9.75-36.36-2.35-74.09,20.29-103.52l1.06-1.39L26.76,149a70.5,70.5,0,0,0,8.39,7.5l.64.48,0,.8a67.72,67.72,0,0,0,2,21.35c5.51,20.58,15.38,35.3,29.33,43.75,14.25,8.63,32.81,10.22,53.69,4.62a58,58,0,0,1,52.66,11.7l.17.14a56.17,56.17,0,0,1,17.62,28.15h0a58.25,58.25,0,0,1-40.94,70.78l-.21.06A119,119,0,0,1,119.54,342.3Zm-93.72-190C4.57,180.77-2.25,216.94,7.1,251.83a117.68,117.68,0,0,0,54.09,71.42,114.32,114.32,0,0,0,88.29,12.09l.21,0a54.92,54.92,0,0,0,38.63-67.06h0a53.06,53.06,0,0,0-16.68-26.65l-.17-.14a54.93,54.93,0,0,0-49.92-11.08c-21.69,5.82-41.06,4.11-56-5-14.63-8.86-24.95-24.18-30.67-45.54a70.55,70.55,0,0,1-2.14-21.49A72.67,72.67,0,0,1,25.82,152.29ZM133.89,325a42.69,42.69,0,1,1,30.2-12.49h0A42.58,42.58,0,0,1,133.89,325Zm0-82.35A39.66,39.66,0,1,0,162,254.2,39.44,39.44,0,0,0,133.89,242.62Z"/><path class="cls-2" d="M61,171a97.73,97.73,0,0,0,4.88,35.85,41.29,41.29,0,0,0,19.06,10.58A84.46,84.46,0,0,1,74.1,172.6,68.66,68.66,0,0,1,61,171Z"/><path class="cls-2" d="M235.16,212.25A85.31,85.31,0,0,1,197.73,251a68.4,68.4,0,0,1,5,12.86,97,97,0,0,0,25.64-18.4A98.1,98.1,0,0,0,237.42,235a40.69,40.69,0,0,0,.66-6.28,42.44,42.44,0,0,0-2.92-16.46Z"/><path class="cls-4" d="M153.47,301.86a27.69,27.69,0,1,1-19.59-47.31h0a27.73,27.73,0,0,1,19.58,47.31Z"/></g></g></svg>