<svg xmlns="http://www.w3.org/2000/svg" viewBox="0 0 373.85 530.66"><title>Erinyes_1</title><g id="f0af241a-0c82-4b06-b423-8f338914d135" data-name="Layer 2"><g id="ad26fbb2-2f6b-4ad8-b5a8-55f37a425651" data-name="Layer 1"><polygon points="226.78 124.69 226.81 125.35 227.53 124.63 240.3 123.69 248.44 114.42 243.71 108.47 244.15 108.04 248.9 107.62 253.41 101.52 250.36 101.83 257.35 94.86 254.44 93.36 251.99 96.02 254.31 93.26 252.46 90.56 246.44 98.38 246.35 95.31 240.88 100.57 241.07 105.33 240.7 105.82 234.19 101.89 226.03 111.15 226.73 123.93 226.11 124.73 226.78 124.69" style="fill:#dcd8dc"/><path d="M225.93,127.64l-.1-1.88-1.87.14,1.76-2.29L225,110.79l9-10.19,6,3.65-.17-4.09L247.29,93l.07,2.51,5.15-6.67L255,92.55l4,2-6,6,2.5-.25-6.13,8.28-4.07.35,4.38,5.52-9,10.21-12.8.94Zm1.13-16.14.66,12.11,12.1-.88,7.32-8.34-4.76-6,1.32-1.32,4.66-.4,2.9-3.93-3.59.37,8-8-1-.52-1.93,2.1-1.5-1.32,1.83-2.18-.64-.94-6.91,8.95-.09-3.61L241.89,101l.2,4.67L241,107.14l-6.56-4Z" style="fill:#fff"/><path d="M268.55,300.36l6.64-11.75-2-8.17,3-.81c8-1.12,16.39,4.9,16.39,4.9l-12.25,6.12c.08,1,.89,1.52,2.23,1.76l2.36,9,.72-.12c-7.27,7,11,5.22,11,5.22l-14.3,13.28,4.08-8.17-8.17-1.53-8.1,5.08Z" style="fill:#848383"/><path d="M256.77,94.37a2,2,0,0,1-1.53-3.28,75.07,75.07,0,0,1,10.87-10.72c11.29-9,23.87-12.7,37.41-11.16a2,2,0,0,1-.45,4c-12.45-1.42-24.05,2-34.47,10.32a70.74,70.74,0,0,0-10.29,10.16A2,2,0,0,1,256.77,94.37Z" style="fill:#42b2af"/><path d="M256.77,95.37a3,3,0,0,1-2.3-4.92,76.13,76.13,0,0,1,11-10.87c11.5-9.11,24.32-12.94,38.15-11.37a3,3,0,0,1,2.64,3.32A3,3,0,0,1,303,74.18c-12.18-1.39-23.53,2-33.74,10.11a69.17,69.17,0,0,0-10.14,10A3,3,0,0,1,256.77,95.37Zm40.9-25.5c-11.1,0-21.48,3.78-30.93,11.28A74.14,74.14,0,0,0,256,91.73a1,1,0,0,0,.76,1.64,1,1,0,0,0,.77-.35A71.71,71.71,0,0,1,268,82.72c10.64-8.44,22.48-12,35.2-10.53a1,1,0,0,0,1.11-.88,1,1,0,0,0-.21-.74,1,1,0,0,0-.67-.37A50.6,50.6,0,0,0,297.67,69.87Z" style="fill:#fff"/><path d="M325,75c-.95,13.84-8,13.49-8,13.49l.51,3.58-7.15,16.34c0,33.19-7.66,29.61-7.66,29.61l-7.15,14.3c.45,18.28-13.12,15.15-16.57,14.06l-.62-.2-.17-.07h0c-6.11,4.58-11.21,4.58-11.21,4.58,23.49,12.26,6.13,32.69,6.13,32.69,2.55,9.7,2,22.46,2,22.46l-.34-.17-3.75-1.87v8.68l10.21-3.06h0c5.38,1.79,8.71,3.59,10.7,5.24,5.39,4.5,1,8,1,8,3.58,11.24-7.15,12.77-7.15,12.77-3.83,3.62-6.06,4.22-7.37,3.69h0c-1.81-.74-1.81-3.68-1.81-3.68l-6.64,6.64a1.3,1.3,0,0,1,.8-.12c3.36.54,2.43,16.08,2.29,18.25,0,.16,0,.25,0,.25l2,8.17-6.64,11.75s4.88,22.44,12.73,30.13q.18.18.36.33c.06.07.13.12.19.18l9.91-4.46.3-.14,2,14.3c14.3,30.13-2.55,42.38-2.55,42.38l-6.64,16.85-.31-.2-6.84-4.39-.06.07-15.77,18.82c-25,19.26-27.41,37.37-27.06,45.09a19,19,0,0,0,.51,3.93H225.15l-13.79,25-9.7,37.79-10.73,4.59-.05-.22c-.71-3.07-8.45-37.3-4.54-42.67,4.08-5.62,4.08-13.79,4.08-13.79h-4.08v-.1l1.48-11,1.06-7.82,12.26-5.62L205,431.74l.25-1.16,1,14,0,.31,13.28-8.17c-1-16.34,17.36-53.11,17.36-53.11,7.66,1,11.24-6.64,11.24-6.64l-.52-4.59c5.11-1.53-.51-8.68-.51-8.68l7.66-3.07a4.07,4.07,0,0,1-.49-.05,13.84,13.84,0,0,1-2.87-.6c-7.43-2.34-14-10.07-14-10.07l-.07.2-6.06,17.16-4.08,1.53L217,380.54l7.15,3.57c-11.24-1-13.28,9.7-13.28,9.7s-2,18.9-15.32,23S181.23,428,181.23,428l-.28-.37-3.29-4.23-.15.14L158.76,441.3c-13.76,7.83-19.61,16-21.76,22.91h0a21.83,21.83,0,0,0,1.34,16.91c-1.53,3.58-14.3,3.58-14.3,3.58-4.6.51-.51,5.1-.51,5.1-3.06,1-14.3,33.71-14.3,35.24,0,1.29-4,6.21-7.08,5h0a3.67,3.67,0,0,1-1.57-1.39c-3.06-4.59-1-36.76-1-36.76H95.44v-.11l-1-26.45,10.22-5.61,1-17,0-.9,4.54,15.65,0,.18,5.62-1.53c1.07.36,3.37-1.09,5.86-3.44,4.65-4.4,10-12,9-17-1.48-7.42,19-32.55,20.35-34.14l.07-.08,4.34,2.89.26.18a55.87,55.87,0,0,1,12.77-8.68L168,388.2c8.17-.51,4.08-8.17,4.08-8.17l9.19,2.55,2.56-16.85c2.55-3.07,8.17-19.41,8.17-19.41l-2.56-3.06c7.15-3.57,6.13-12.25,6.13-12.25l-9.25-11.1.57-.14,5.11-8.68-.38-.06c-2.19-.33-13.43-1.93-22.6-1.47a4,4,0,0,1-1.65-.22c-5.79-2.51,12.88-24.29,12.88-24.29l-4-2.83,23.44-24.75L196,254.41l15.32-9.7L180.21,234l2-17.87-4.08-9.19,2.55-3.06-.51-20.94-4.6-3.06L171,169.13c-17.87-21.44-60.26-29.1-60.26-29.1-1-1.74-.76-6.86-.12-12.54l.12.28,1.46-3.88.08-.2,6.88,7.87.26.3,2-4.5,0-.1,10.9,7.44.33.22.5-4v0l12.45,6,.32.15,2.39-4.31.16-.28c.91,2.42,6.86,5.39,13,7.5,1,.34,2,.65,2.93.93a43.49,43.49,0,0,0,8.54,1.78c3.7.26,5.08-8.91,5.54-17.82l6.21-4.14-1.54-5.1,6.13,3.06v-5.11l-10.7-4.56c0-.35,0-.54,0-.54-26.55-9.19-23-49.53-17.87-52.09,4.72-2.36,4.63-17,4.59-19.13v-.27c7.66,8.17,4.09,14.81,4.09,14.81-7,28.11,5.21,34.68,8.77,36l.3.1c.4.13.63.18.63.18s19.91,8.17,21.45-28.08c0,0,17.36,35.74,31.66,14.29,9.19-15.83,0-25,0-25-2.37-2.37-4.39-4.59-6.1-6.66-9-10.82-9.89-17.75-9.64-20.92,0-.18,0-.35.05-.5a23.79,23.79,0,0,0,4.14,5.55A222.46,222.46,0,0,0,237.4,42.49C264,66,241.49,91,241.49,91l-.29.68c-1.52,3.65-8.23,20.38,1.82,8.51v16.85l-5.11-2.56L241,130.32l5.61,2.56s2-4.6,8.17,3.57l5.56.5.33,0c.14.56.22.91.23,1v0l10.21,2.56c-2.34-5.62,2.19-10.38,3-11.14l.11-.1,5.29,4.81.33.3.59-6.82v0l.43-4.91c21.95-27.57,18.38-36.25,18.38-36.25l2-2.55c-9.7-7.15-2.55-16.85-2.55-16.85l1.62-.81,5.53-2.77c1.23-4.7,2.45-6,3.48-5.78,1.28.21,2.26,2.64,2.56,3.46l.09.28,2.77-1.85.29-.19.49,2.95,0,.11h4.08l1.45,2.88.09.18,3.25-.93.32-.09A60.82,60.82,0,0,1,325,75Z" style="fill:#111"/><path d="M196,254.4l3.57,3.06-23.44,24.75-1.07-.75c2.05-8.17-2.55-11.74-2.55-11.74-2.08.78-3.77,6.07-4.92,11.07-1.1,4.81-1.72,9.35-1.72,9.35l-5.1-11.74-8.68,22.47L148.55,281l-3.06,7.66-3.07-7.15L136.3,292.7l3.57,7.66-2.55,19.91-4.6-19.4-5.11-10.73-.51,18.39L123,308c5.11,25-1,22-1,22-1-7.66-17.87-27.57-17.87-27.57s-2-1.53,0,11.23-1.54,13.79-1.54,13.79L82.68,292.19c-4.09,6.12.51,33.19.51,33.19l-7.66-8.68c2.55,6.64,1.53,28.59,1.53,28.59l-5.62-4.59L75,350.91l-5.11,24.51-6.12-16.85-1-13.28-6.63,13.79c9.19,23,7.66,40.34,7.66,40.34,8.68,15.32,14.8,39.83,14.8,39.83L72,434.14l6.63,12.26L74,462.23l-9.19-13.79-.51-7.15-6.64-6.12-.51,11.23-7.66-14.3c-7.15-32.68-15.32-38.81-15.32-38.81-36.26-53.61-28.09-119-28.09-119L2,280.44c-9.19-39.83,16.34-114.89,16.34-114.89l-7.66,12.76c-2.53-25.34,47.73-96.94,48.5-98l-5.61,2.55c8-6.49,44.22-79.22,45.9-82.6C83.87,35.89,95.55,83.92,104,109.67h0c3.21,9.76,6,16.31,6.6,17.77h0s0,0,0,0c-.64,5.68-.85,10.8.12,12.54,0,0,42.39,7.66,60.26,29.1l4.59,10.73,4.6,3.06.51,20.94-2.55,3.06,4.08,9.19-2,17.87,31.15,10.73Z" style="fill:#a81707"/><path d="M232.3,74.14C218,95.59,200.64,59.85,200.64,59.85c-1.54,36.25-21.45,28.08-21.45,28.08-3.58-34.72,20.42-74.55,20.42-74.55Z" style="fill:#a81707"/><path d="M260.65,137l-5.89-.53c-6.12-8.17-8.17-3.57-8.17-3.57L241,130.31l-3.07-15.83L243,117V100.19c-11.23,13.27-1.53-8.19-1.53-8.19l.51,6.14C249.89,94.89,259.05,130.5,260.65,137Z" style="fill:#a81707"/><path d="M195.53,331a366.6,366.6,0,0,1-48.39,15.76h0c-32.27,7.8-45,4.15-45,4.15,14-13.06,77.54-29.33,84.2-31Z" style="fill:#848383"/><path d="M341.06,280.44l-10.19,10.19-3-1.53-2.11,3.64-7.36-.44c-.75-1.89-1.94-4.8-3.06-7.51l.74-.26,5.11-4.62,4.61,2.06.49-2.57Z" style="fill:#dc4f2f"/><path d="M318.36,292.3l-.28-.11L288,299.34a20.67,20.67,0,0,0-2.35,1.92l-.72.12-2.36-9c7,1.28,28.51-6.11,32.77-7.62C316.42,287.5,317.61,290.41,318.36,292.3Z" style="fill:#a85f5d"/><path d="M327.24,170.18a52.14,52.14,0,0,1-24.67-6.53,49.21,49.21,0,0,1-24.11-30.52A70,70,0,0,1,276,109c.08-1.32,1.17-9.88,2.7-18.23,3-16.39,5-19.73,7.12-19.73a2,2,0,0,1,.66,3.89c-2.48,3.29-6.25,30.6-6.49,34.32A66,66,0,0,0,282.3,132a45.24,45.24,0,0,0,22.18,28.13c12,6.53,25.53,7.86,36.13,3.56,8.37-3.4,14.33-10.13,17.24-19.47,7.11-22.9-12-45-29.31-59.46h0A46,46,0,0,0,324,81.66a2,2,0,1,1,2.08-3.41,49.54,49.54,0,0,1,5,3.43c18.25,15.29,38.35,38.73,30.58,63.74-3.28,10.52-10,18.12-19.56,22A39.48,39.48,0,0,1,327.24,170.18Z" style="fill:#42b2af"/><path d="M327.24,171.18a53.06,53.06,0,0,1-25.15-6.65A49.93,49.93,0,0,1,294,159a50.8,50.8,0,0,1-16.47-25.63A71.23,71.23,0,0,1,275,109c.09-1.32,1.18-9.94,2.72-18.34,3.17-17.27,5.29-20.55,8.1-20.55a3,3,0,0,1,1.33,5.69c-2.17,3.71-5.88,29.09-6.16,33.58a64.77,64.77,0,0,0,2.23,22.4,44.83,44.83,0,0,0,14.53,22.69,44.13,44.13,0,0,0,7.17,4.84c11.75,6.39,24.94,7.7,35.27,3.51,8.09-3.28,13.85-9.79,16.66-18.84,7-22.37-11.93-44.1-29-58.4h0a48,48,0,0,0-4.44-3,3,3,0,0,1-1-4.13,3,3,0,0,1,4.13-1,51.29,51.29,0,0,1,5.13,3.51c18.49,15.48,38.85,39.28,30.91,64.81-3.36,10.82-10.33,18.64-20.13,22.62A40.18,40.18,0,0,1,327.24,171.18ZM285.86,72.06c-2.67,0-5.27,14.24-6.13,18.92-1.53,8.31-2.61,16.8-2.69,18.1a68.71,68.71,0,0,0,2.38,23.77,48.75,48.75,0,0,0,15.81,24.65,47.79,47.79,0,0,0,7.82,5.27,50.91,50.91,0,0,0,24.19,6.41,38.45,38.45,0,0,0,14.5-2.7c9.23-3.75,15.79-11.13,19-21.36,7.61-24.48-12.26-47.59-30.27-62.67a47.6,47.6,0,0,0-4.9-3.35,1,1,0,0,0-.76-.12,1,1,0,0,0-.62.45,1,1,0,0,0,.34,1.38A46.45,46.45,0,0,1,329.17,84c17.54,14.69,36.91,37.11,29.63,60.54-3,9.63-9.16,16.58-17.82,20.1-10.87,4.41-24.7,3.06-37-3.61a46.25,46.25,0,0,1-22.66-28.73A67,67,0,0,1,279,109.21c.21-3.29,3.91-31.17,6.69-34.86l.18-.24.29-.1a1,1,0,0,0-.33-2Z" style="fill:#fff"/><polygon points="179.7 108.91 190.4 113.47 190.4 118.58 184.27 115.52 185.81 120.62 179.6 124.76 179.7 108.91" style="fill:#a81707"/><polygon points="314.16 452.22 301.82 452.09 300.39 459.55 299.78 459.5 296.37 456.17 288.8 456.72 291.02 458.83 281.18 458.08 281.94 461.26 285.55 461.38 281.94 461.42 281.11 464.58 290.96 464.06 288.69 466.12 296.24 466.85 299.73 463.6 300.34 463.56 301.6 471.06 313.94 471.22 323.7 461.83 314.16 452.22" style="fill:#dcd8dc"/><path d="M314.34,472.22l-13.59-.17-1.16-6.95-3,2.79-10.26-1,1.86-1.69-8.41.44,1.14-4.32-1-4.35,8.4.64-1.82-1.73,10.28-.75,2.92,2.86,1.33-6.92,13.58.15,10.55,10.62Zm-11.89-2.15,11.09.14,8.73-8.39-8.53-8.6-11.09-.12-1.45,7.52-1.86-.15L296,457.2l-4.86.35,2.61,2.49-11.27-.86.27,1.11,2.84.09,0,2-2.85,0-.29,1.1,11.29-.6L291,465.34l4.86.47,3.42-3.19,1.87-.1Z" style="fill:#fff"/><path d="M233.82,146.66s0-18.38-4.08-25l-.26-10.21s-5.87-8.17-9.95-8.43l-4.34,4.85-4.86-3.57a5.23,5.23,0,0,1-5.87.51l-1.79,5.1s-4.85-2.55-6.89-.76.26,10.47.26,10.47l1.78,3.06c.29.48.1,1.87.15,2.42a38,38,0,0,0,1.1,6,27.11,27.11,0,0,0,4.34,9.18,29,29,0,0,0,8,7.35c2.31,1.34,4.49,1,6.93.21.24-.08,3.76-1.42,3.76-1.42l1.53,2.3A12.62,12.62,0,0,0,233.82,146.66Z" style="fill:#f4f0ea"/><path d="M199.83,17.42l31,57.57,3.49.06c9.85-17,.1-27-.32-27.44-9.18-9.18-12.91-16-14.34-20.56,3.07,3.69,8.2,9,16.69,16.81,10.21,9.36,14,19.84,11.28,31.14a37.45,37.45,0,0,1-7.34,14.56l-.5,1.48.51,7.15,2.75,1.7a.74.74,0,0,1,.28-.06c.39,0,4,.53,10.19,18.64,3.34,9.81,5.7,19.76,5.72,19.86l1.46,1.48,10.21,2.56,2.34-2.71c-1.31-3.15.17-6,1.37-7.62l4.11,3.74,3.34-1.31,1-11.14c18-22.7,19-33.07,18.59-36.51L303.05,85l-.38-2.86c-7.11-5.24-3.53-11.91-2.38-13.68L307,65.11l1-1.29a16.23,16.23,0,0,1,1.4-3.89,10.05,10.05,0,0,1,.88,2l3,1.06.49-.33v0l2,1.67h2.85l1,2,2.34,1,1.25-.35c.86,11.52-1.5,16.1-3.05,17.83a4.18,4.18,0,0,1-2.74,1.58l-2.07,2.28.43,3-6.92,15.82-.17.8c0,26.54-5,27.73-5,27.73a1,1,0,0,1,.21.08l-2.63.92-7.15,14.3-.21.94c.12,5-.85,8.6-2.88,10.69a8.17,8.17,0,0,1-6.08,2.22,17.48,17.48,0,0,1-5.66-1l-1.94.26c-5.45,4.08-10,4.19-10,4.19l-.92,3.78c6.3,3.29,10,7.46,11,12.39,1.7,8.65-5.36,17.14-5.43,17.22l-.41,1.8c1.69,6.45,2,14.43,2,18.74l-1.23-.61-2.89,1.79v8.68l2.57,1.92,9.61-2.88c9.62,3.3,11.18,6.22,11.4,7.34a2.66,2.66,0,0,1-.88,2.28l-.65,2.16c.92,2.88.84,5.21-.23,6.93-1.65,2.66-5.27,3.24-5.29,3.25l-1.1.52c-3.25,3.08-4.72,3.32-5.09,3.32-.53,0-.72-1.48-.72-1.86l-3.42-1.42-6.64,6.64,2.23,3.24a.55.55,0,0,1-.2,0,.81.81,0,0,1-.52-.18c1.09,1.16,1.55,8.9,1,16.56l2.75,2a11.28,11.28,0,0,1,4.3-.8,23.44,23.44,0,0,1,10.18,2.88l-9,4.49-1.1,1.95c.13,1.71,1.3,3.76,6.13,3.76,9.65,0,31.37-7.83,32.29-8.16l.8-.54,4-4.45,4.24,2.31,2.94-2-.14-.95,8.2,1.13-5.12,5.12-.66-.49-2.78.38-4.2,5.46-5.24-2-1.18-.08-30.13,7.15-.71.32c-2.68,1.93-5.65,4.52-4.72,7.39.76,2.36,3.63,3.47,9.28,3.57l-3.44,3.19-1.11-2.24L278.88,308l-1.62.41-5.11,4.08-.53,2.48,8.68,16.85,2.6.91,7.79-3.51,1.67,11.67.17.57c5.56,11.71,7,22.33,4.1,30.72a20.35,20.35,0,0,1-6,9.19l-.69.89-5.74,14.58-5.1-3.28-2.62.4-15.69,18.73c-17.45,13.48-23.91,26.47-26.25,35a35.94,35.94,0,0,0-1.27,13.47H225.4l-1.75,1-13.79,25-.18.47-9.46,36.84-7.62,3.26c-3.8-17-6.48-36-4.39-38.93,4.42-6.08,4.47-14.61,4.47-15l-2-2h-1.8l2.1-15.53,11.25-5.16,1.13-1.4,1.13-5.23,0,.36,3.05,1.56,13.27-8.17.95-1.83c-.87-14,13.46-44.47,16.57-50.89h.18c7.89,0,11.51-7.56,11.66-7.88l.18-1.07-.36-3.18a4.4,4.4,0,0,0,1.78-2.35c.69-2.2-.36-4.77-1.4-6.58l5.37-2.15-.62-3.86c-7.72-.45-15.88-9.92-16-10l-3.41.63L230,365.6l-3.21,1.21-.81.56-10.21,11.74.62,3.1,1.32.66a14.48,14.48,0,0,0-8.52,10.46l0,.15c0,.18-2.08,17.65-13.92,21.29-8.44,2.59-12.36,6.47-14.17,9.29l-1.54-2-3-.22-18.72,17.7c-12.72,7.29-20.4,15.76-22.83,25.18a24.29,24.29,0,0,0,1.21,16c-1.74,1-7,1.86-11.91,1.87h-.22c-2.41.27-3.36,1.47-3.72,2.42a5.19,5.19,0,0,0,.81,4.48c-1.39,2-3.61,6.44-7.55,16.91-2,5.29-5.81,16.08-6.1,18.29-.34.93-2.58,3.4-4.06,3.4-.15,0-.51,0-1-.71-1.68-2.52-1.67-20-.69-35.53l-2-2.13H97.62l-.9-23.39,9.14-5,1-1.64.35-6.23,1.35,4.63,2.44,1.37,5.2-1.42h.26c3.85,0,9.67-7,10.33-7.76,2.2-2.68,7.19-9.53,6.07-15.11C132,430.74,143,414.79,151.76,404l3.09,2.06,2.46-.19a54.58,54.58,0,0,1,12.25-8.34l1.16-1.95-.39-5.81a6.17,6.17,0,0,0,4.24-2.95,6.62,6.62,0,0,0,.69-4L181,384.4l2.51-1.63,2.48-16.36c2.79-4.05,7.6-17.91,8.16-19.55l-.35-1.93-1.09-1.3c6-4.59,5.16-12.6,5.11-13L195.05,329c-45.38,18-71.47,20.63-83,20.63-1.87,0-3.43-.07-4.71-.16,19.71-12.78,79.58-27.74,80.23-27.9l1.24-.93,5.1-8.68-1.4-3a145,145,0,0,0-19.82-1.64c-1.25,0-2.46,0-3.58.09h-.2a2.07,2.07,0,0,1-.45,0c0-.53.1-3.22,6-11.52,3.59-5.06,7.48-9.61,7.51-9.65l-.37-2.94-4-2.82c1.52-8.38-3.34-12.27-3.56-12.44l-1.93-.3c-1.65.62-3.84,2.57-6.09,12.21-.25,1.07-.48,2.14-.68,3.14l-2.43-5.59-3.7.08-6.11,15.81-2.32-12.89-3.82-.39-1.27,3.17-1.16-2.71-3.6-.17-6.13,11.24,0,1.8,3.33,7.14L137,309l-2.07-8.72-.14-.39-5.1-10.73-3.81.81-.45,16.18-1.9-.24-2.21,2.38c2.13,10.4,2.18,15.4,1.86,17.76-3.75-8.95-15.73-23.25-17.26-25.06l-.33-.31a2.33,2.33,0,0,0-1.38-.46,2.38,2.38,0,0,0-1.81.85c-.83,1-1.57,2.83,0,12.76a30.53,30.53,0,0,1,.41,9.36L84.67,291.1l-3.4-.12c-3.17,4.75-1.92,19.17-.79,27.92l-3.2-3.63-3.36,2c1.62,4.23,1.71,16.31,1.53,23.77l-2.48-2-3.16,2.21,3.39,9.68L69.64,368,66,358l-1-13-3.79-.72-6.64,13.79-.06,1.61c8.89,22.21,7.54,39.26,7.53,39.42l.25,1.16c5.93,10.47,10.71,25.52,13,33.63l-1.92-1.47-3,2.54,6.25,11.53-3.17,10.91L67,447.67l-.47-6.62-.64-1.33-6.64-6.13L55.91,435l-.18,4-4.09-7.65c-6.53-29.68-14.07-37.94-15.7-39.44C17.57,364.59,11,334.21,8.79,313.49c-2.46-22.57-.49-38.87-.47-39L4.67,273.1,3.3,275.16c-6.13-39.8,16.94-108.35,17.19-109.07l-3.61-1.67L13.53,170c5.89-29.24,47.09-88,47.55-88.67l-1.81-2.19C67.37,67.31,82,39.52,91.79,20.28c-3.72,22-.66,45.41,3.23,63.13a267.89,267.89,0,0,0,14.17,45.05l3.7-.1.36-1,4.94,5.65,3.34-.5,1.07-2.41,9.25,6.31,3.11-1.4.17-1.33,10.26,4.92,2.61-.83,1.16-2.09c5.45,4.51,18.57,8.34,24,8.73h.29a4.32,4.32,0,0,0,3.17-1.44c5.3-5.54,4.51-30,4.29-34.86l-1.34-1.81c-14-4.82-18.16-18.73-19.43-26.6-1.82-11.26.37-20.65,1.83-21.82,3.92-2,5.18-9.36,5.55-15,2,4.45.52,7.51.44,7.67l-.18.46c-3.42,13.67-2.87,24.21,1.64,31.33a16.18,16.18,0,0,0,9.61,7.37l2.38-2.16c-2.89-28.15,13-60.23,18.4-70.21M99.78,0S62,76.08,53.83,82.72l5.61-2.55s-51.06,72.51-48.51,98l7.66-12.76S-6.94,240.51,2.25,280.34l4.09-6.13s-8.17,65.36,28.08,119c0,0,8.17,6.13,15.32,38.81l7.66,14.3.51-11.24,6.64,6.13.51,7.15,9.19,13.79,4.6-15.83L72.21,434l6.64,5.11S72.72,414.64,64,399.32c0,0,1.53-17.36-7.66-40.34L63,345.19l1,13.28,6.13,16.85,5.1-24.51L71.7,340.6l5.62,4.59s1-22-1.54-28.59l7.66,8.68s-4.59-27.07-.51-33.2l19.92,35.24s3.57-1,1.53-13.79c-1.65-10.29-.64-11.29-.18-11.29a.33.33,0,0,1,.18.06s16.85,19.91,17.87,27.57a1.41,1.41,0,0,0,.58.12c1.4,0,4.55-2,.44-22.08l4.09.52.51-18.39L133,300.77l4.59,19.4,2.56-19.92-3.58-7.65,6.13-11.24,3.06,7.15,3.07-7.66,3.57,19.92,8.68-22.47L166.17,290s2.55-18.89,6.64-20.42c0,0,4.59,3.57,2.55,11.74l5.11,3.58s-21,24.51-11.54,24.51h.3q1.71-.09,3.48-.09a142.84,142.84,0,0,1,19.5,1.62l-5.11,8.68S117.15,337,102.34,350.81c0,0,3,.85,9.73.85,12.75,0,38.94-3.06,83.71-20.77,0,0,1,8.68-6.12,12.26l2.55,3.06s-5.62,16.34-8.17,19.41l-2.55,16.85-9.19-2.56s4.08,7.66-4.09,8.17l.51,7.66A56.12,56.12,0,0,0,156,404.43l-4.59-3.07s-22,26.55-20.43,34.21c1.48,7.39-10.82,20.48-14.44,20.48a1,1,0,0,1-.36-.05l-5.62,1.53-4.6-15.83-1,17.87-10.21,5.62,1,26.55h4.08s-2,32.17,1,36.77a3.11,3.11,0,0,0,2.64,1.6c2.88,0,6-4,6-5.17,0-1.54,11.23-34.22,14.29-35.24,0,0-4.08-4.59.52-5.1,0,0,12.76,0,14.29-3.58,0,0-12.76-20.94,20.43-39.83l18.89-17.87,3.58,4.59s1-7.14,14.29-11.23,15.32-23,15.32-23,1.86-9.77,11.8-9.77c.48,0,1,0,1.48.07l-7.15-3.57,10.21-11.75,4.09-1.53,6.13-17.36S246.34,360,255,360.51l-7.66,3.06s5.62,7.15.51,8.68l.51,4.6s-3.14,6.73-9.85,6.73a11.14,11.14,0,0,1-1.38-.09s-18.39,36.76-17.37,53.11l-13.27,8.17-1-14.3-4.09,18.89L189.15,455l-2.56,18.89h4.09s0,8.17-4.09,13.79,4.6,42.89,4.6,42.89L201.91,526l9.7-37.79,13.79-25h10.21s-6.63-23.49,26.56-49L278,395.23l7.15,4.6L291.78,383s16.86-12.26,2.56-42.38l-2-14.3-10.22,4.59L273.4,314l5.11-4.08,8.17,1.53-4.09,8.17,14.3-13.28s-2,.2-4.47.2c-5.49,0-13.05-1-4.21-7.35l30.13-7.15,6.64,2.56,5.1-6.64,2.05,1.53,9.19-9.19-14.81-2,.51,3.57-5.62-3.06-5.1,5.62s-22.2,8-31.61,8c-2.45,0-4-.55-4.14-1.92l12.26-6.12s-7.05-5-14.35-5a13.13,13.13,0,0,0-5.06.95s1.39-18.52-2.45-18.53a1.47,1.47,0,0,0-.61.15l6.64-6.64s0,3.86,2.72,3.86c1.36,0,3.4-1,6.47-3.86,0,0,10.72-1.53,7.15-12.77,0,0,8.17-6.64-11.75-13.27l-10.21,3.06v-8.68l4.08,2s.51-12.76-2-22.47c0,0,17.36-20.42-6.13-32.68,0,0,5.11,0,11.24-4.59a19.34,19.34,0,0,0,6.4,1.17c5.08,0,11.26-2.52,11-15l7.15-14.3a1.66,1.66,0,0,0,.64.11c1.83,0,7-2.41,7-29.73l7.15-16.34-.51-3.57h0c.75,0,10.07-.47,7.62-24l-3.58,1-1.53-3.06h-4.09l-.51-3.07-3.06,2.05s-1.19-3.77-2.83-3.77c-1,0-2.14,1.38-3.3,5.81l-7.15,3.57s-7.15,9.71,2.56,16.85l-2.05,2.56S303,95,281.06,122.55l-1,11.75-5.62-5.11s-5.61,5.11-3.06,11.24l-10.21-2.56s-9.42-40-17.86-40a2.76,2.76,0,0,0-1,.21l-.51-7.15s22.05-24.55-4.08-48.51c-21.74-19.92-20.43-23-20.43-23S212.64,29.11,232.55,49c0,0,9.19,9.19,0,25L199.87,13.28s-24,39.83-20.43,74.55c0,0-17.87-3.58-9.7-36.26,0,0,3.58-6.63-4.08-14.8,0,0,.51,16.85-4.6,19.4s-8.68,42.89,17.87,52.08c0,0,1.51,34.22-5.46,34.22h-.15c-7.15-.51-23-6.13-24.51-10.22l-2.56,4.6-12.76-6.13-.51,4.09-11.24-7.66-2,4.59-7.15-8.17L111,127.66S77.32,51.06,99.78,0Z" style="fill:#fff"/><path d="M161.58,475.27c-26,0-46.18-14.3-54.32-38.78C97.82,408.13,110,378.07,140.72,354c9.82-7.69,20.8-13.63,31.42-19.37,4.66-2.52,9.47-5.12,14.12-7.83a582.23,582.23,0,0,0,48.84-31.91,204.48,204.48,0,0,0,44.66-44c16.06-21.44,38.79-37.2,54.48-47.18,10-6.37,27.62-20.07,33.11-40.32,4.54-16.72-.91-34.71-16.64-55a2,2,0,1,1,3.16-2.45c16.33,21,22.16,40.73,17.35,58.49-5.85,21.55-24.33,36-34.83,42.65C321,217,298.63,232.43,283,253.34a208.5,208.5,0,0,1-45.52,44.8,586.18,586.18,0,0,1-49.18,32.13c-4.7,2.75-9.54,5.37-14.23,7.9-10.47,5.66-21.3,11.52-30.86,19-13.85,10.86-44.73,40.2-32.13,78.06,7.91,23.76,28,37.2,53.85,36,11-.53,22.1-2.55,32.86-4.5,7.4-1.33,15-2.72,22.6-3.62,17.72-2.1,35.9-2.24,53.47-2.36l8.48-.07a2,2,0,1,1,0,4l-8.49.07c-17.47.12-35.52.25-53,2.34-7.43.88-15,2.25-22.36,3.58-10.89,2-22.15,4-33.37,4.55C163.92,475.24,162.74,475.27,161.58,475.27Z" style="fill:#42b2af"/><path d="M161.58,476.27c-26.39,0-47.05-14.75-55.27-39.47-9.58-28.78,2.74-59.24,33.79-83.56,9.88-7.74,20.9-13.7,31.56-19.46,4.65-2.52,9.45-5.11,14.09-7.82,16.71-9.76,33.12-20.48,48.76-31.86A203.44,203.44,0,0,0,279,250.35c16.16-21.57,39-37.4,54.75-47.42,9.88-6.29,27.28-19.82,32.68-39.74,4.45-16.4-.94-34.1-16.47-54.12a3,3,0,0,1-.61-2.21,3,3,0,0,1,1.14-2,3,3,0,0,1,4.21.54c16.53,21.3,22.42,41.28,17.52,59.36-5.93,21.88-24.63,36.47-35.25,43.23-15.37,9.77-37.6,25.17-53.16,45.95A209.32,209.32,0,0,1,238,299c-15.81,11.5-32.38,22.33-49.26,32.19-4.74,2.76-9.58,5.38-14.26,7.91-10.44,5.64-21.23,11.48-30.72,18.91-13.69,10.72-44.2,39.69-31.8,77,7.76,23.31,27.51,36.53,52.86,35.28,10.89-.53,22-2.54,32.72-4.48,7.41-1.34,15.07-2.73,22.66-3.63,17.78-2.11,36-2.25,53.57-2.37l8.49-.07a3,3,0,1,1,.06,6l-8.49.07c-17.45.12-35.47.25-52.92,2.33-7.41.88-15,2.25-22.3,3.57-10.92,2-22.21,4-33.5,4.57C164,476.24,162.75,476.27,161.58,476.27Zm190.71-370a1,1,0,0,0-.61.21,1,1,0,0,0-.38.67,1,1,0,0,0,.2.74c15.94,20.55,21.44,38.82,16.82,55.86-5.58,20.58-23.41,34.46-33.54,40.9-15.63,9.95-38.26,25.63-54.21,46.93a205.87,205.87,0,0,1-44.89,44.18,582.48,582.48,0,0,1-48.92,32c-4.67,2.73-9.49,5.33-14.14,7.85-10.59,5.73-21.54,11.64-31.29,19.28-30.34,23.77-42.42,53.43-33.12,81.36,7.93,23.86,27.88,38.1,53.37,38.1,1.14,0,2.31,0,3.47-.09,11.16-.54,22.39-2.57,33.24-4.53,7.35-1.33,15-2.71,22.42-3.6,17.56-2.08,35.64-2.22,53.13-2.34l8.5-.07a1,1,0,1,0,0-2l-8.47.07c-17.56.12-35.7.26-53.37,2.36-7.53.89-15.16,2.27-22.53,3.61-10.8,1.95-22,4-33,4.51-26.27,1.26-46.79-12.44-54.85-36.65-12.8-38.46,18.44-68.17,32.47-79.16,9.62-7.53,20.49-13.41,31-19.09,4.67-2.52,9.49-5.13,14.2-7.88a583.27,583.27,0,0,0,49.09-32.08,207.46,207.46,0,0,0,45.31-44.59c15.76-21,38.19-36.58,53.68-46.44,10.38-6.6,28.65-20.84,34.4-42.06,4.73-17.45-1.05-36.83-17.17-57.62a1,1,0,0,0-.66-.38Z" style="fill:#fff"/></g></g></svg>