<svg xmlns="http://www.w3.org/2000/svg" viewBox="0 0 351.13 346.22"><defs><style>.cls-1{fill:#fce53f;fill-rule:evenodd;}.cls-2{fill:#fff;}</style></defs><g id="Layer_2" data-name="Layer 2"><g id="Layer_1-2" data-name="Layer 1"><path class="cls-1" d="M30.56,1.82C5.08,52.92-3.16,100.73,4,136.63s28.39,60,64.64,67.14a85.18,85.18,0,0,0,2.31,17s0,0,0,0c-20.62,20.26-31.5,45-31.89,71.15,35.47,9.87,60.5,2.92,78.14-13.86a86,86,0,0,0,30.54,8.18c.12.7.24,1.39.37,2.08,5.09,27,21.19,47.7,54.4,56.16,12.53-21.65,15.64-46.92,8-79.12A85.28,85.28,0,0,0,221,254.45c16.48,10.49,31.73,14.32,45.58,12.9,14.18-1.44,27.27-8.36,39-20.73,22.92-24.14,39.76-69.49,43.92-129.7-17.87-8.47-35.31-12.27-52.06-12.22-18,.07-35.24,4.53-51.35,12.17a155.19,155.19,0,0,0-33.23,21.61,85,85,0,0,0-76.86-21.31C118.77,65.33,82.91,18.4,30.56,1.82Zm17.56,48.9A24.64,24.64,0,1,1,23.46,75.35,24.52,24.52,0,0,1,48.12,50.72ZM30.24,111.24a13.44,13.44,0,1,1-13.42,13.45,13.34,13.34,0,0,1,13.42-13.45Zm114.51,18.24a62.69,62.69,0,1,0,81,79.28,73.19,73.19,0,0,1-2,10.7,71.94,71.94,0,1,1-79-90Zm158.34,12.07a24.65,24.65,0,1,1-24.65,24.66,24.55,24.55,0,0,1,24.65-24.66ZM43,151.2a11.62,11.62,0,1,1-11.61,11.62A11.52,11.52,0,0,1,43,151.2Zm250.12,52.7a13.44,13.44,0,1,1-13.43,13.43,13.33,13.33,0,0,1,13.43-13.43Zm-30.29,27.25a11.62,11.62,0,1,1-11.62,11.62,11.54,11.54,0,0,1,11.62-11.62ZM68.08,258.72a11.62,11.62,0,1,1-11.62,11.61,11.52,11.52,0,0,1,11.62-11.61ZM188,296.87a11.62,11.62,0,1,1-11.62,11.62A11.53,11.53,0,0,1,188,296.87Z"/><path class="cls-2" d="M203.25,346.22l-1.1-.28C171,338,152.33,318.71,146.65,288.6c-.07-.32-.13-.64-.18-1a87.11,87.11,0,0,1-29-7.78c-19.54,18.08-46,22.63-78.83,13.51l-1.11-.31,0-1.15c.39-26.58,11.37-51.32,31.75-71.61A87.1,87.1,0,0,1,67.2,205C32.33,197.75,10,174.23,2.54,136.92-5,99,4.45,50.81,29.22,1.15L29.8,0,31,.39c47.74,15.13,86.33,57,106,115a85.25,85.25,0,0,1,13.72-1.68A87.1,87.1,0,0,1,213,136.48a155.56,155.56,0,0,1,32.53-21c17.09-8.11,34.58-12.25,52-12.32s35.27,4.1,52.71,12.36l.92.44-.07,1c-4,57.54-20.13,105.15-44.34,130.63-12,12.58-25.39,19.71-40,21.2s-29.74-2.71-45.4-12.42a87.15,87.15,0,0,1-9.16,9.46c7.22,31.17,4.47,57.13-8.38,79.35Zm-86.33-70,.94.44a84.23,84.23,0,0,0,30,8l1.17.09.19,1.17c.12.68.23,1.36.36,2,5.39,28.5,22.94,46.9,52.19,54.7,12.26-21.78,14.57-46.29,7.3-77l-.21-.89.69-.59a84.28,84.28,0,0,0,10.3-10.72l.85-1,1.13.72c15.47,9.85,30.49,14.11,44.62,12.67,13.83-1.41,26.64-8.23,38.09-20.28C328.14,220.75,344,174.23,348,117.84c-16.6-7.72-33.46-11.64-50.11-11.64h-.37c-17,.06-34,4.11-50.72,12a153.35,153.35,0,0,0-32.9,21.4l-1,.86-1-.92a83.6,83.6,0,0,0-75.5-20.94l-1.32.29-.43-1.28c-19.1-57.25-56.71-98.72-103.31-114C7.29,52.3-1.9,99.38,5.48,136.33c7.27,36.44,29.21,59.24,63.46,66l1.17.23,0,1.19a83.61,83.61,0,0,0,2.27,16.68l.06.25v.1l.07.58-.52.52c-19.89,19.54-30.74,43.36-31.43,68.94,31.59,8.51,57,3.87,75.58-13.81ZM188,321.6a13.12,13.12,0,1,1,0-26.23h0a13.12,13.12,0,1,1,0,26.23Zm0-23.23a10.12,10.12,0,1,0,10.14,10.12A10.07,10.07,0,0,0,188,298.37ZM68.08,283.45a13.12,13.12,0,1,1,0-26.23h0a13.12,13.12,0,1,1,0,26.23Zm0-23.23A10.12,10.12,0,1,0,78.2,270.33a10,10,0,0,0-10.12-10.11Zm86.36,14.11A73.5,73.5,0,0,1,144.55,128l13.3-1.76-12.58,4.65a61.2,61.2,0,1,0,79.07,77.39l4.44-12.85-1.54,13.51a75.19,75.19,0,0,1-2.05,10.92,73.42,73.42,0,0,1-70.75,54.48ZM132.75,133.69a70.51,70.51,0,1,0,89,87.28,64.19,64.19,0,1,1-89-87.28Zm130,122.19a13.12,13.12,0,1,1,0-26.23h0a13.12,13.12,0,1,1,0,26.23Zm0-23.23a10.12,10.12,0,1,0,10.14,10.12A10,10,0,0,0,262.79,232.65Zm30.29-.37A14.94,14.94,0,1,1,308,217.33,14.78,14.78,0,0,1,293.08,232.28Zm0-26.88A11.94,11.94,0,1,0,305,217.33,11.8,11.8,0,0,0,293.08,205.4Zm10-13.06a26.15,26.15,0,1,1,26.14-26.13A26.17,26.17,0,0,1,303.09,192.34Zm0-49.29a23.15,23.15,0,1,0,23.14,23.16A23.18,23.18,0,0,0,303.09,143.05ZM43,175.93a13.12,13.12,0,1,1,13.12-13.11A13,13,0,0,1,43,175.93Zm0-23.23a10.12,10.12,0,1,0,10.12,10.12A10,10,0,0,0,43,152.7ZM30.24,139.62a14.94,14.94,0,0,1,0-29.88h0a14.94,14.94,0,0,1,0,29.88Zm0-26.88a11.94,11.94,0,1,0,11.93,12,11.81,11.81,0,0,0-11.93-12Zm17.88-11.25a26.14,26.14,0,0,1-.36-52.27h.36a26.14,26.14,0,0,1,0,52.27Zm0-49.27a23,23,0,1,0,.22,0Z"/></g></g></svg>