<svg xmlns="http://www.w3.org/2000/svg" viewBox="0 0 308.87 311.96"><defs><style>.cls-1{fill:#fff;}.cls-2{fill:#6a1c1b;}</style></defs><g id="Layer_2" data-name="Layer 2"><g id="Layer_1-2" data-name="Layer 1"><path class="cls-1" d="M299.66,71.25c-13.33-31.34-41.1-54.73-78.56-60a59.55,59.55,0,0,0-3.46-8L215.93,0H92.72L91.08,3.57a59.41,59.41,0,0,0-2.87,7.63c-37.7,5.14-65.62,28.59-79,60.05-16.14,38-11.7,87.31,18.5,130.63L40,219.43l-1.23-21.37c-1.47-26,4.15-49.72,16.21-68.67a33.46,33.46,0,0,0,3.6,8.57c4.53,7.76,12,15,21.63,20.5a63.7,63.7,0,0,0,21.29,7.86L90.57,266.64l-.41,3.74,3.15,2.05,57.6,37.39,3.31,2.14,3.33-2.14,58-37.38,3.17-2-.41-3.75L207.43,166.42a63.07,63.07,0,0,0,22-8c9.59-5.54,17.1-12.74,21.63-20.5a34.26,34.26,0,0,0,3.38-7.73c11.69,18.81,17.13,42.18,15.68,67.83l-1.21,21.37,12.24-17.55C311.39,158.56,315.8,109.24,299.66,71.25ZM50.71,114.39,60.06,85,35,105.92l5.12-32.09-20.47,33L16.43,87a100.12,100.12,0,0,1,3.94-11c11.42-26.86,33.78-46.84,65.4-52.28-1.58,17.85,4.16,36.73,13.64,56.13C79.14,87.19,62.71,99.11,50.71,114.39Zm41.5,18.8a13,13,0,0,0-12.68,10.12A42.75,42.75,0,0,1,69.06,131.8a19.56,19.56,0,0,1-2.61-6.68h.06a18.31,18.31,0,0,1,1-5.89c1.62-2.25,5.16-3.92,11-3.88,6.32,0,14.59,2.25,22.56,6.86s14,10.65,17.21,16.1,3.34,9.57,1.89,12.07-5.07,4.4-11.39,4.36a34,34,0,0,1-6.33-.65,13,13,0,0,0-10.28-20.9ZM204,265.46l-46.44,30-3.32,2.14-3.32-2.14-46.12-30,.06-.07-1.78-1.15,10.58-97.59a25.12,25.12,0,0,0,12.86-5.17c6.76,26.85,9.4,66,5.94,107.37l11.61,7.55c5.67-55.46,1.22-107.47-12.22-137.66a35.5,35.5,0,0,0-3-6.59c-4.55-7.76-12-15-21.64-20.5-8.74-5-17.82-7.9-26.15-8.41,7.36-5.17,17.34-9.73,29.07-13.06l7.26-2.06-3.55-6.68C99.72,54.88,93.49,32,100.73,12.2H208.35c8.22,19.29,3.5,45-12.59,68.24l-4.86,7,8.22,2.32c12,3.37,22.21,8.08,29.67,13.42-8.4.47-17.54,3.34-26.36,8.42-9.6,5.54-17.12,12.74-21.66,20.5-.27.46-.53.92-.78,1.39v0c-15.37,29.09-20.75,83.85-14.8,142.5l11.63-7.51c-3.43-41.32-.77-80.44,6-107.22a24.57,24.57,0,0,0,12.33,5.26l10.59,97.7L204,265.39ZM240.56,131.8a43.72,43.72,0,0,1-11.29,12.13,13,13,0,0,0-25.76,2.26,12.8,12.8,0,0,0,2.81,8,32.7,32.7,0,0,1-5.52.53c-6.32,0-10-1.87-11.39-4.36s-1.29-6.61,1.89-12.07,9.27-11.5,17.24-16.1,16.21-6.83,22.54-6.86c5.9,0,9.46,1.63,11.08,3.89,0,0,0,0,0,0a18.65,18.65,0,0,1,1,5.85h.06A19.56,19.56,0,0,1,240.56,131.8Zm45-24.49L246.07,79.88l21.86,30.22-20.69-7.55c-2.39-2.22-4.91-4.32-7.54-6.33a.07.07,0,0,0-.06,0A76.57,76.57,0,0,0,225.38,87l-.25-.15c-.21-.12-.44-.21-.65-.32a117.09,117.09,0,0,0-14.19-6.36C221.11,61.85,226.3,42,224,23.9c31.12,5.68,53.16,25.51,64.46,52.1a100,100,0,0,1,4.9,14.56L268.63,70Z"/><path class="cls-2" d="M120.21,150.38c-1.44,2.49-5.07,4.4-11.39,4.36a34,34,0,0,1-6.33-.65,13,13,0,0,0-10.28-20.9,13,13,0,0,0-12.68,10.12A42.75,42.75,0,0,1,69.06,131.8a19.56,19.56,0,0,1-2.61-6.68h.06a18.31,18.31,0,0,1,1-5.89c1.62-2.25,5.16-3.92,11-3.88,6.32,0,14.59,2.25,22.56,6.86s14,10.65,17.21,16.1S121.66,147.88,120.21,150.38Z"/><path class="cls-2" d="M243.17,125.12a19.56,19.56,0,0,1-2.61,6.68,43.72,43.72,0,0,1-11.29,12.13,13,13,0,0,0-25.76,2.26,12.8,12.8,0,0,0,2.81,8,32.7,32.7,0,0,1-5.52.53c-6.32,0-10-1.87-11.39-4.36s-1.29-6.61,1.89-12.07,9.27-11.5,17.24-16.1,16.21-6.83,22.54-6.86c5.9,0,9.46,1.63,11.08,3.89,0,0,0,0,0,0a18.65,18.65,0,0,1,1,5.85Z"/><path class="cls-2" d="M285.59,107.31,246.07,79.88l21.86,30.22-20.69-7.55c-2.39-2.22-4.91-4.32-7.54-6.33a.07.07,0,0,0-.06,0A76.57,76.57,0,0,0,225.38,87l-.25-.15c-.21-.12-.44-.21-.65-.32a117.09,117.09,0,0,0-14.19-6.36C221.11,61.85,226.3,42,224,23.9c31.12,5.68,53.16,25.51,64.46,52.1a100,100,0,0,1,4.9,14.56L268.63,70Z"/><path class="cls-2" d="M205.73,264.24,204,265.39l.06.07-46.44,30-3.32,2.14-3.32-2.14-46.12-30,.06-.07-1.78-1.15,10.58-97.59a25.12,25.12,0,0,0,12.86-5.17c6.76,26.85,9.4,66,5.94,107.37l11.61,7.55c5.67-55.46,1.22-107.47-12.22-137.66a35.5,35.5,0,0,0-3-6.59c-4.55-7.76-12-15-21.64-20.5-8.74-5-17.82-7.9-26.15-8.41,7.36-5.17,17.34-9.73,29.07-13.06l7.26-2.06-3.55-6.68C99.72,54.88,93.49,32,100.73,12.2H208.35c8.22,19.29,3.5,45-12.59,68.24l-4.86,7,8.22,2.32c12,3.37,22.21,8.08,29.67,13.42-8.4.47-17.54,3.34-26.36,8.42-9.6,5.54-17.12,12.74-21.66,20.5-.27.46-.53.92-.78,1.39v0c-15.37,29.09-20.75,83.85-14.8,142.5l11.63-7.51c-3.43-41.32-.77-80.44,6-107.22a24.57,24.57,0,0,0,12.33,5.26Z"/><path class="cls-2" d="M99.41,79.85c-20.27,7.34-36.7,19.26-48.7,34.54L60.06,85,35,105.92l5.12-32.09-20.47,33L16.43,87a100.12,100.12,0,0,1,3.94-11c11.42-26.86,33.78-46.84,65.4-52.28C84.19,41.57,89.93,60.45,99.41,79.85Z"/></g></g></svg>