<svg xmlns="http://www.w3.org/2000/svg" viewBox="0 0 245.87 229.53"><defs><style>.cls-1{fill:#df0b13;}.cls-2{fill:#fff;}</style></defs><title>Fighter</title><g id="Layer_2" data-name="Layer 2"><g id="Layer_1-2" data-name="Layer 1"><path class="cls-1" d="M115.83,225.73c-9.12-8.08-18.34-16.69-28-24.7-10.31-8.53-12-20-12-32.12-.11-39.79,0-79.59,0-119.39V39.11c7.19,3,13.8,6.72,20.9,8.34,8,1.81,14.59-1.9,19.1-9.86,4.59,7.81,11.23,11.8,19.38,9.85,7-1.68,13.59-5.43,20.6-8.37.06,1.09.25,2.85.25,4.6,0,34.66.07,69.31-.05,104,0,10.23-.81,20.47-.78,30.7,0,9.69-5,16.58-11.6,22.64C134.28,209.47,124.8,217.74,115.83,225.73Z"/><path class="cls-2" d="M115.83,227.73l-1-.88q-4.17-3.69-8.36-7.48c-6.35-5.72-12.91-11.62-19.64-17.19-11-9.07-12.5-21.34-12.53-33.26-.08-28.86-.07-58.21-.06-86.58q0-16.41,0-32.82V36.87l2.07.85c2.26.93,4.46,1.94,6.6,2.92C87.72,42.83,92.24,44.9,97,46c9,2,14.46-3.84,17.46-9.14l1.29-2.26,1.31,2.24c3.15,5.36,8.79,11.3,17.75,9.15,4.71-1.13,9.18-3.2,13.92-5.4,2.09-1,4.25-2,6.44-2.89l2-.82.12,2.11c0,.31.05.66.08,1.06.08,1,.18,2.32.18,3.63V65.13c0,27.05,0,55-.06,82.51,0,4.94-.21,10-.39,14.8-.2,5.21-.41,10.61-.39,15.9,0,11.21-6.45,18.58-12.09,23.74-6.53,6-13.2,11.89-19.65,17.59l-8.09,7.18ZM77.26,41.38v8.14q0,16.41,0,32.82c0,28.37,0,57.71.06,86.57,0,11.19,1.44,22.68,11.44,31,6.78,5.6,13.37,11.53,19.74,17.27q3.69,3.31,7.34,6.58l7.1-6.29c6.44-5.7,13.1-11.59,19.62-17.56,7.7-7.05,11.13-13.69,11.11-21.52,0-5.36.19-10.78.39-16,.18-4.82.37-9.8.39-14.69.09-27.5.08-55.46.06-82.49V43.68c0-.82,0-1.64-.09-2.4-1.49.66-3,1.35-4.42,2-4.66,2.16-9.48,4.4-14.49,5.6-7.7,1.84-14.62-1.17-19.71-8.5-4.9,7.26-11.74,10.27-19.46,8.51-5-1.15-9.71-3.28-14.64-5.54C80.23,42.71,78.76,42,77.26,41.38Z"/><path class="cls-1" d="M189,97.8c2.19-3.82,4.65-7.42,6.41-11.33C200.16,75.9,200,65.61,192.83,56c-1.2-1.62-2.36-3.27-3.55-4.88-4.25-5.72-6.26-5.87-11.57-.7-4.86,4.74-9.63,9.56-14.46,14.33-1.26,1.23-1,1.31-2.95,3.08-.14-5.54,0-12.69,0-12.69s22.89-23.55,33.41-34.67c5.26-5.57,8.21-5.34,12.9.28-3.84,4.82-.85,8.1,2.81,11.38,10.45,9.38,21.2,13.68,34.8,13.73C242.26,65.57,208.82,97.79,189,97.8Z"/><path class="cls-2" d="M186.39,99.3l1.29-2.24c.7-1.22,1.42-2.41,2.14-3.6A73.73,73.73,0,0,0,194,85.85c4.85-10.75,4.06-20.23-2.41-29L189.9,54.5c-.61-.84-1.21-1.68-1.83-2.51-1.93-2.6-3.19-3.74-4.24-3.82s-2.6.9-5.07,3.31c-2.84,2.76-5.65,5.56-8.45,8.35q-3,3-6,6a10.37,10.37,0,0,0-.94,1,18.32,18.32,0,0,1-2.05,2.1l-2.43,2.21-.08-3.28c-.13-5.51,0-12.69,0-12.76V54.5l.42-.43c.23-.23,23-23.67,33.39-34.65,3.07-3.25,5.41-4.59,7.8-4.52s4.55,1.53,7.34,4.87l.79.94-.77,1c-2.76,3.47-1.42,5.68,2.64,9.32,10.24,9.19,20.66,13.31,33.81,13.35h1.65L245.71,46C243.64,66.9,209.18,99.29,189,99.3Zm-2.71-54.14h.39c2.36.19,4.27,2.15,6.41,5,.62.84,1.24,1.69,1.85,2.54s1.13,1.57,1.71,2.34c7.07,9.57,8,20.34,2.72,32A76.16,76.16,0,0,1,192.38,95c-.21.36-.43.72-.65,1.08,18.45-2.66,47.44-30.28,50.76-48.79-13.13-.39-23.71-4.77-34.08-14.09-2.82-2.53-7.44-6.67-3.72-12.4-1.78-2-3.15-2.89-4.38-2.93-1.44-.06-3.17,1.1-5.52,3.59-9.63,10.18-29.86,31-33,34.25,0,1.36-.06,4.83,0,8.38.13-.13.27-.29.44-.45,2-2,4-4,6-5.95q4.22-4.22,8.47-8.38C179.29,46.76,181.41,45.16,183.68,45.16Z"/><path class="cls-1" d="M40.71,46.27,1.91,8.46A24.94,24.94,0,0,1,4,5.2C8.24-.09,10.71.27,13.47,6.42a8.7,8.7,0,0,0,1.66,2.77c10.39,10,20.82,20,32.24,31,4.48-4.81,9.06-9.85,13.81-14.73.9-.92,3.36-1.91,3.52-1.69,1.11,1.49,1.79,3.29,1,4.25C62,31.41,58.16,34.65,54.77,38.33c-2.87,3.12-1.19,6.06,2,7.46,9.93,5.7,13.71,12.58,13.71,22.55,0,4.14,0,8.27,0,14-7.63-7.21-11-11-17.22-17.3-2.82-2.85-4.61-6.71-7.44-9.53-1.38-1.38-5.07-2.65-6-1.89-4,3.33-10,5.45-9.4,12.94l-7.88-1.83C29,58.15,34.78,52.3,40.71,46.27Z"/><path class="cls-2" d="M72,85.86l-2.53-2.39c-5.3-5-8.61-8.43-12.11-12-1.59-1.64-3.23-3.35-5.15-5.29a34.66,34.66,0,0,1-3.85-4.93,33,33,0,0,0-3.58-4.59,7.64,7.64,0,0,0-4.11-1.68c-.84.68-1.74,1.31-2.61,1.92-3.5,2.43-6.52,4.53-6.11,9.63l.16,2L19.6,65.63l19-19.34L0,8.7l.63-1c.07-.11.15-.27.26-.47a19.23,19.23,0,0,1,1.9-2.95C4.52,2.11,6.87-.31,9.48,0s4.23,3.27,5.35,5.78a8.2,8.2,0,0,0,1.34,2.3c8.26,8,16.55,15.92,25.34,24.34L47.31,38l2.44-2.63c3.35-3.63,6.82-7.38,10.36-11a8.85,8.85,0,0,1,4.61-2.17l.69,0,.5.58c1.78,2.4,2.12,4.69.92,6.12l-.12.13c-1.11,1-2.24,2.07-3.37,3.09-2.53,2.3-5.15,4.67-7.47,7.19a3,3,0,0,0-1,2.59,4.05,4.05,0,0,0,2.53,2.48l.15.07C67.66,50.31,72,57.44,72,68.34ZM40.76,51.94a10.33,10.33,0,0,1,6.12,2.55,34.64,34.64,0,0,1,3.93,5A32.64,32.64,0,0,0,54.32,64c1.93,2,3.58,3.66,5.18,5.31,2.88,3,5.63,5.83,9.48,9.54V68.34c0-9.79-3.73-15.94-12.89-21.21a6.85,6.85,0,0,1-4.19-4.57,5.82,5.82,0,0,1,1.76-5.25c2.42-2.61,5.08-5,7.66-7.37,1.08-1,2.16-2,3.22-3A2.91,2.91,0,0,0,64,25.42a6.54,6.54,0,0,0-1.76,1c-3.52,3.62-7,7.35-10.31,11l-3.48,3.76-1,1.11-8-7.67c-8.78-8.42-17.08-16.37-25.34-24.34A10.15,10.15,0,0,1,12.1,7c-1.51-3.35-2.53-4-3-4s-1.64.26-4,3.14a13.68,13.68,0,0,0-1.34,2L42.83,46.24,25.49,63.91l3.43.8c.38-5.44,4.24-8.12,7.4-10.33.92-.63,1.78-1.23,2.56-1.87A2.89,2.89,0,0,1,40.76,51.94Z"/><path class="cls-1" d="M70.79,157c-17.19,16.73-35.11,34.88-52,51.91-2.28,2.31-3.9,5.27-6.16,7.6C11.41,217.76,9,219.43,8,219a11.09,11.09,0,0,1-5-5c-.44-1,1.25-3.37,2.51-4.56,2.36-2.23,5.35-3.8,7.65-6.08,17.93-17.81,34.72-35.69,52.52-53.64a56,56,0,0,0,5-6.81Z"/><path class="cls-2" d="M8.37,220.54a2.44,2.44,0,0,1-1-.21,12.66,12.66,0,0,1-5.72-5.76c-1.15-2.47,2.8-6.25,2.84-6.29a35.21,35.21,0,0,1,3.84-3,30.57,30.57,0,0,0,3.78-3c10.09-10,20-20.24,29.58-30.13,7.45-7.69,15.16-15.65,22.93-23.49a35,35,0,0,0,3.64-4.85c.42-.62.82-1.22,1.2-1.77l2.69-3.83.18,19.47-.46.45c-15.54,15.11-31.6,31.31-47.12,47L19.85,210a33.14,33.14,0,0,0-3,3.7,36.62,36.62,0,0,1-3.14,3.89S10.76,220.54,8.37,220.54Zm-3.94-7.07a9.57,9.57,0,0,0,4,4.06,8.44,8.44,0,0,0,3.08-2.07,33.92,33.92,0,0,0,2.89-3.58,35.36,35.36,0,0,1,3.29-4l4.87-4.92c15.38-15.52,31.28-31.56,46.7-46.57l-.08-8.71a25.23,25.23,0,0,1-2.49,3.06c-7.76,7.83-15.46,15.78-22.91,23.46-9.59,9.91-19.5,20.14-29.61,30.18a33.26,33.26,0,0,1-4.15,3.33,34.93,34.93,0,0,0-3.53,2.78A8.59,8.59,0,0,0,4.43,213.47Z"/><path class="cls-1" d="M160.82,161.7s32.87,31.7,49,46.6c6,5.5,13.5,9.25,20,14.18-19.93-28.34-44.57-51.51-68.36-77.14Z"/><path class="cls-2" d="M236.6,229.53l-7.71-5.86c-2.56-1.95-5.36-3.75-8.06-5.5a85.31,85.31,0,0,1-12-8.77c-16-14.74-48.7-46.3-49-46.62l-.49-.47.79-20.64,2.46,2.65c5.93,6.39,12,12.71,17.86,18.83,18.31,19.08,35.6,37.11,50.63,58.46Zm-74.26-68.45c4.14,4,33.63,32.38,48.5,46.12a84.67,84.67,0,0,0,11.61,8.45l1,.64c-13.66-18.18-29-34.21-45.21-51.06C173.17,159.94,168,154.51,162.8,149Z"/><path class="cls-1" d="M229.8,222.48Z"/><rect class="cls-2" x="229.65" y="221.05" width="0.18" height="3" transform="translate(-88.92 250.19) rotate(-49.05)"/><path class="cls-1" d="M229.8,222.48Z"/><path class="cls-2" d="M228.94,223.48l.86-1-1.13-1,0,0,.09-.1h0a1.51,1.51,0,0,1,1.42-.5l.85.16.29.82a1.52,1.52,0,0,1-.29,1.48h0l-.08.09,0,0-1.13-1Z"/></g></g></svg>