<svg xmlns="http://www.w3.org/2000/svg" viewBox="0 0 337.45 244.35"><title>Flying-Sword</title><g id="bfc5be64-fbf5-408c-b11b-d10515de2d4a" data-name="Layer 2"><g id="a53448f1-4f7e-41b2-a4c9-3cae155dacb4" data-name="Layer 1"><polygon points="82.45 8.42 124.33 44.4 166.22 80.38 171.66 72.84 177.1 65.31 129.78 36.86 82.45 8.42" style="fill:#c4c4c4;fill-rule:evenodd"/><path d="M166.39,81.85,81.8,9.18,83,7.56,178.55,65ZM92.08,15.38l74,63.53,9.61-13.31Z" style="fill:#fff"/><path d="M154.54,133.91a281.52,281.52,0,0,0-17.94,36.16l-14.66-10.58,24.27-33.6L76.51,66,.65.86l85.71,51.5,21.51,12.93.35.21,56.9,34.19,25-34.69,14.66,10.58a193,193,0,0,0-29,28.12c59.33,42.88,112.59,82.62,158.51,138.46C268,218,213.52,176.57,154.54,133.91Z" style="fill:#c4c4c4;fill-rule:evenodd"/><path d="M337.45,244.35,334,243.1c-61.6-22.4-112.89-59.64-167.19-99.06l-12-8.68a284.27,284.27,0,0,0-17.32,35.09l-.48,1.17-16.49-11.91,24.31-33.66-69-59.29L0,1.62,1.17,0,164.85,98.36,190,63.6l16.54,11.95-1.05.82a192.47,192.47,0,0,0-28.14,27.15c62,44.86,113.1,83.62,157.82,138ZM154.24,132.45l.89.65q6.47,4.67,12.86,9.33c53.16,38.58,103.42,75.07,163.22,97.5-44.22-53-94.74-91.17-156-135.42l-.87-.63.69-.82a194.88,194.88,0,0,1,28.09-27.44L190.4,66.4l-25,34.62L10.28,7.81,77.16,65.25l70.39,60.48-24.21,33.53,12.82,9.26a282.47,282.47,0,0,1,17.52-35.12Z" style="fill:#fff"/><polygon points="26.83 74.49 71.16 112.56 115.48 150.64 121.24 142.66 127 134.69 76.92 104.59 26.83 74.49" style="fill:#c4c4c4;fill-rule:evenodd"/><path d="M115.66,152.11,26.18,75.25l1.17-1.62,101.1,60.76ZM36.46,81.45l78.85,67.72L125.56,135Z" style="fill:#fff"/></g></g></svg>