<svg xmlns="http://www.w3.org/2000/svg" viewBox="0 0 295.8 366.58"><defs><style>.cls-1{fill:#14acdb;}.cls-2{fill:#fff;}</style></defs><g id="Layer_2" data-name="Layer 2"><g id="Layer_1-2" data-name="Layer 1"><path class="cls-1" d="M121.87,4.71c-14.94,16.53-19.2,35.55-17.43,55.12,2.29,25.35,15.63,51.39,31,70,3.36,3.43,6.22,4.21,9.07,4a13.49,13.49,0,0,0,8.47-4.23,16.1,16.1,0,0,0,4.53-9.21,11.58,11.58,0,0,0-3.15-9.52l-.39-.44-.31-.51C137.25,83,115.76,45,121.87,4.71ZM222.72,5.9c4.66,28.19-3.61,54.87-13.45,78.13a211.72,211.72,0,0,1,20,18.7c5.83-13.88,10.15-28.63,11.09-43C241.67,40.49,237.43,22.14,222.72,5.9ZM176.53,82.16c-.22,0-.43,0-.65,0-4.17.41-10.71,3.15-18,8,2.4,4.21,4.83,8.27,7.21,12.17a26.05,26.05,0,0,1,6,19.48,29.29,29.29,0,0,1-8.37,17.31,26.92,26.92,0,0,1-17.35,8.3c-6.81.43-14.15-2.33-19.92-8.31l-.17-.18-.16-.19c-2.33-2.8-4.55-5.67-6.69-8.62a210,210,0,0,0-17.95,29.23c4-.32,7.42-.59,12.61-1,17-1.37,39.46-3.21,61.9-5.05,36.79-3,61.39-5,73.42-6a341.06,341.06,0,0,0-27-33c-9.37-10-18.8-18.61-27-24.33-7.72-5.36-14.42-7.76-17.85-7.78ZM165.1,102.4c-.15-.18-.3-.37-.46-.55l.71,1-.25-.4Zm92.27,57.9L176.14,167,114.23,172l-20.06,1.62c-1.54,4-2.89,7.9-4,11.8l174.17-13.88Q261,165.86,257.37,160.3Zm-86.75,31.35-82.23,7.48c-20,32.71-40.54,59.86-86.89,79a44.51,44.51,0,0,0,4.88,21.56,356.87,356.87,0,0,0,40.27-9.56c-9.37,8.22-19.08,16.16-30,23a90,90,0,0,0,10.83,9C47.82,312,75.37,296.74,87,288.85L41.13,330.77c4.07,2.31,8.36,4.57,12.83,6.81,7.86-3.49,15.07-7.42,20.72-12.39A87,87,0,0,1,67,343.89q6.29,3,12.58,5.85c18-12.06,37-26.82,49.8-37.38-6.5,12.91-19.36,30.8-31.94,45.74,4.53,2.16,9.08,4.38,13.6,6.69,20.9-17.87,32.94-29.37,46.36-37.14,12.41-7.2,26.49-11.06,49.13-14.7-23.85-38.86-38.68-74.32-35.9-121.3Zm91.63,1.94q-7.24,2.82-14.51,5.6-6.28,2.42-12.6,4.77c-.68.26-1.14.42-1.75.64a61.27,61.27,0,0,1,7.12,16c.11.43.2.86.29,1.29l13.23.26c13.1.26,19.1-1.64,23.61-4.25-3.66-7.63-9.47-16.42-15.4-24.34Zm-78.35,8.25a156.71,156.71,0,0,0,2.1,27.55,32.43,32.43,0,0,0,5.69,4.35c7.33,4.53,18.89,9,31,12.22.65.18,1.3.33,2,.5.28-1,.55-2.06.82-3.15,1.75-7.17,2.65-16,1.81-19.24-1.43-5.49-5.9-13.3-11.1-20.35l-32.28-1.88ZM241,223.15c1.3,7.87-.51,16.18-2.28,23.4l0,.15c4.13-3.71,8-7.25,11.85-10.7L241,223.15Zm29.18,13.76c-15.82,13.7-36.75,35.17-62,52q1.74,3.14,3.54,6.24a160.51,160.51,0,0,0,17.56-4.29c21.87-6.72,41.89-18.33,51.74-32.14a35.1,35.1,0,0,0-3-14C276.17,241.07,273.83,238.42,270.21,236.91Zm-79.66,11.78a189.53,189.53,0,0,0,11.18,27.9c7.45-5.11,14.62-10.69,21.47-16.4q-2-.48-4-1A149.72,149.72,0,0,1,190.55,248.69Zm85.81,34.2C264.2,292.21,249,299.15,233.29,304q-7,2.13-14,3.71,2.08,3.38,4.22,6.72l5.71,8.94-10.51,1.5c-11.57,1.66-20.63,3.21-28.15,4.92,3.69,5.92,6.89,11.93,10.65,16.78,4.5,5.8,9.35,9.91,17.53,11.54,5.86,1.17,11.42,2,16.68,2.6-7.88-13.27-14.29-25.45-12.68-25.77a221.91,221.91,0,0,0,26,26.69,117.29,117.29,0,0,0,12.82-.36c-5-8.13-8.42-16.74-2.54-27.93.62,5,9.73,15.64,18.9,24.88,8.11-2.58,13.36-6.32,16.29-10.2-1.5-5-2.47-9.68-3.82-13.6a26.06,26.06,0,0,0-9.45-13.31l-3.1-2.44.56-3.91c1.45-10.1,0-20.73-2-31.84Z"/><path class="cls-2" d="M111.24,366.58l-.89-.45c-4.06-2.07-8.37-4.2-13.57-6.68L95,358.61l1.25-1.48c11.22-13.32,21.47-27.5,28.07-38.74C115,325.93,98.17,339.07,80.41,351l-.7.47L79,351.1q-6.32-2.89-12.59-5.85l-1.44-.67.75-1.4a91,91,0,0,0,6.15-13.79A93.7,93.7,0,0,1,54.57,339l-.65.29-.64-.32c-4.8-2.41-9-4.65-12.89-6.85l-1.8-1L74.12,298.6c-13.22,7.76-31.13,17.48-46,24.86l-.8.4-.74-.53a92.57,92.57,0,0,1-11-9.14l-1.35-1.33,1.61-1a212.53,212.53,0,0,0,24.69-18.42c-11.54,3.22-22.68,5.75-33.88,7.71l-1.08.19-.51-1a46.19,46.19,0,0,1-5-22.28v-1l.92-.38c47.31-19.51,67.76-48.2,86.18-78.36l.39-.64,81.69-7.43.26-4.32,3.49,7-.9.08c-2.43,46.51,12.54,81.3,35.76,119.13l1.17,1.91-2.21.36c-23.8,3.83-37,7.77-48.62,14.52-10.45,6.05-20.31,14.62-34,26.47-3.73,3.23-7.75,6.73-12.18,10.51Zm-11.42-9c4.09,2,7.64,3.72,11,5.42,4.11-3.53,7.89-6.8,11.39-9.85,13.78-12,23.72-20.6,34.43-26.8,11.61-6.74,24.61-10.73,47.44-14.52C181.3,274.37,166.7,239.58,169,193.31l-79.75,7.25C70.81,230.73,50.15,259.4,3,279.1A43.05,43.05,0,0,0,7.21,298a353.34,353.34,0,0,0,39-9.33l6.56-2-5.14,4.52A241.23,241.23,0,0,1,19,313.36a93.88,93.88,0,0,0,8.55,7c21-10.46,47.65-25.35,58.59-32.76L88,290,43.67,330.48c3.15,1.75,6.55,3.54,10.33,5.44,8.66-3.9,14.93-7.67,19.69-11.86l3.73-3.27-1.29,4.79a86.68,86.68,0,0,1-7.07,17.62q5.18,2.43,10.38,4.83c22.36-15.08,43.11-32,49-36.82l5.51-4.56L130.71,313C124.81,324.76,113.05,341.7,99.82,357.58Zm152,5.55-3.12,0h-.53l-.41-.35a205.84,205.84,0,0,1-21.2-21.08c2.06,4.15,5.4,10.26,10.15,18.26l1.53,2.58-3-.33c-5.45-.6-11.11-1.48-16.8-2.62C209,357.67,204,352.63,200,347.46a113.5,113.5,0,0,1-7.51-11.58c-1.05-1.76-2.12-3.54-3.23-5.32l-1.11-1.79,2-.47c7.23-1.65,16.21-3.22,28.28-4.94l8.2-1.17-4.45-7c-1.43-2.23-2.84-4.48-4.24-6.73l-1.11-1.8,2.06-.45c4.67-1,9.36-2.28,13.94-3.69,16.82-5.16,31.55-12.36,42.6-20.83l1.95-1.5.44,2.42c2.21,12.27,3.4,22.46,2,32.33l-.44,3.05,2.43,1.9a27.68,27.68,0,0,1,9.94,14c.79,2.29,1.44,4.81,2.14,7.47.52,2,1.06,4.06,1.69,6.19l.22.73-.46.61c-3.45,4.57-9.34,8.28-17,10.72l-.88.27-.64-.65c-5.68-5.71-14.61-15.26-18-21.94-3.18,8.47-.72,15.48,4,23.16l1.27,2.07-2.42.2C258.49,363,255.18,363.13,251.77,363.13Zm-2.52-3c3.35.07,6.62,0,9.73-.19-4.37-7.72-7.08-16.41-1.34-27.31l2.22-4.23.59,4.75c.47,3.73,7.27,12.64,17.83,23.34,7.8-2.62,12-6.11,14.21-8.8-.56-1.91-1-3.75-1.5-5.54-.68-2.61-1.33-5.07-2.08-7.25a24.59,24.59,0,0,0-9-12.62l-3.78-3,.68-4.77c1.27-8.83.34-18-1.54-29-11.18,8.14-25.15,14.81-41.58,19.85-4,1.22-8,2.32-12.11,3.27,1,1.65,2.06,3.29,3.11,4.92l7,10.91-12.8,1.83c-10.87,1.55-19.21,3-26,4.44.73,1.2,1.44,2.39,2.14,3.58a114.52,114.52,0,0,0,7.31,11.27c3.66,4.71,8.2,9.3,16.65,11,4.57.91,9.11,1.66,13.55,2.22-12.66-21.57-11.8-23.52-11.42-24.36a1.75,1.75,0,0,1,1.27-1l.88-.18.57.69A217,217,0,0,0,249.25,360.11ZM211,296.86l-.53-.92c-1.2-2.06-2.39-4.17-3.55-6.27l-.67-1.2,1.15-.77c18.49-12.34,35-27.46,48.23-39.62,4.86-4.45,9.45-8.66,13.65-12.3l.7-.61.86.36c3.72,1.56,6.44,4.29,8.55,8.61,2.58,5.29,3.1,11.41,3.18,14.58v.5l-.29.41c-9.48,13.29-29.11,25.52-52.52,32.7A164.24,164.24,0,0,1,212,296.67Zm-.79-7.44c.77,1.37,1.54,2.75,2.32,4.1a158.21,158.21,0,0,0,16.36-4.06c22.55-6.92,41.44-18.55,50.66-31.17a33.25,33.25,0,0,0-2.86-12.84c-1.63-3.33-3.55-5.45-6.17-6.77-4,3.46-8.3,7.43-12.86,11.61C244.56,262.27,228.38,277.1,210.16,289.42Zm-9-10.61-.77-1.56a189.22,189.22,0,0,1-11.26-28.12l-1-3.37,3.14,1.59a147.26,147.26,0,0,0,28.33,10.37l4,1,2.89.7-2.28,1.9c-7.67,6.4-14.73,11.79-21.58,16.49ZM193,251.57a188.84,188.84,0,0,0,9.28,22.79C208,270.43,213.76,266,220,260.93l-1.17-.31A158.87,158.87,0,0,1,193,251.57Zm43-.42,1.3-5c1.81-7.42,3.49-15.32,2.25-22.78l-.22-1.16c-.08-.41-.17-.82-.27-1.22a59.93,59.93,0,0,0-7-15.63l-.94-1.56,2.39-.87,1.07-.39c4.24-1.59,8.48-3.19,12.58-4.77q7.26-2.78,14.5-5.6l1.06-.42.69.92c4.77,6.39,11.35,15.84,15.54,24.59l.6,1.25-1.2.7c-4.28,2.48-10.2,4.73-24.39,4.45l-10.87-.21,9.45,12.73-3.88,3.52-9,8.1Zm7-22.86a62.3,62.3,0,0,1-1.71,14.1l5.43-4.9,1.86-1.69Zm-1-7.85,12.05.24c12.09.25,17.75-1.4,21.6-3.38a159.39,159.39,0,0,0-13.94-21.9Q255,198,248.28,200.59c-4.11,1.58-8.36,3.19-12.61,4.78l-.07,0A60.72,60.72,0,0,1,242,220.25,1.05,1.05,0,0,0,242,220.44Zm-16.3,27.84-2.15-.55-1.25-.32c-12.7-3.39-24.15-7.91-31.41-12.4a34.4,34.4,0,0,1-6-4.55l-.35-.34-.08-.48a157,157,0,0,1-2.12-27.81l0-1.58,34.55,2,.42.57c5.72,7.75,10,15.55,11.34,20.86,1,3.83-.14,13.16-1.8,20-.27,1.1-.55,2.16-.83,3.18ZM187.4,228.66a31.81,31.81,0,0,0,5.08,3.8c7,4.35,18.17,8.74,30.61,12l.5.13q.21-.82.42-1.68c1.74-7.12,2.57-15.6,1.81-18.51-1.25-4.84-5.14-12-10.43-19.27l-30-1.75A154,154,0,0,0,187.4,228.66ZM88.15,187.11l.58-2.07c1.08-3.79,2.44-7.8,4-11.93l.34-.88.93-.07,20-1.62L176,165.48l79.66-6.54,2.45-.2.49.74c2.43,3.72,4.79,7.53,7,11.33l1.21,2.06Zm7.08-12c-1.14,3-2.14,5.91-3,8.71l169.61-13.51c-1.69-2.82-3.45-5.64-5.24-8.4l-.67.06-79.67,6.54-61.91,5.06ZM98,161.13l1.19-2.38a209.52,209.52,0,0,1,18.08-29.44l1.22-1.67,1.21,1.67c2.1,2.91,4.33,5.78,6.62,8.54l.25.28c5.23,5.43,12,8.29,18.76,7.86a25.4,25.4,0,0,0,16.37-7.85,28,28,0,0,0,7.95-16.43,24.65,24.65,0,0,0-5.44-18l-.05,0-.7-1,.07-.06c-2.69-4.43-4.9-8.16-6.93-11.7l-.69-1.22,1.16-.78c7.16-4.8,14-7.82,18.69-8.29a7,7,0,0,1,.8,0h0c4.35,0,11.69,3.18,18.7,8,8.09,5.62,17.53,14.1,27.28,24.53a343.4,343.4,0,0,1,27.14,33.21l1.55,2.15-5.07.42-71,5.82-61.91,5.06Zm20.49-28.39a206.38,206.38,0,0,0-15.4,25l9.93-.8,61.9-5.06,70.76-5.8a337,337,0,0,0-25.34-30.76c-9.6-10.28-18.87-18.61-26.79-24.12-7.44-5.16-13.91-7.5-17-7.51h0a2.64,2.64,0,0,0-.48,0c-3.93.39-9.89,3-16.14,7,1.89,3.27,4,6.75,6.44,10.81A27.77,27.77,0,0,1,172.62,122a31,31,0,0,1-8.8,18.2A28.4,28.4,0,0,1,145.5,149c-7.57.48-15.26-2.71-21.1-8.76l-.41-.46C122.1,137.48,120.25,135.13,118.47,132.74Zm25.32,2.63c-3.44,0-6.37-1.42-9.4-4.51l-.08-.09C116.76,109.57,105,83.1,102.94,60c-2-22,4-41,17.81-56.27L124.1,0l-.75,4.93C117,47,141.69,87.41,155,109.15l.24.39.31.35A13.14,13.14,0,0,1,159,120.56a17.7,17.7,0,0,1-5,10.1,15,15,0,0,1-9.45,4.68Zm-7.21-6.57c3.3,3.35,5.82,3.68,7.85,3.54a12,12,0,0,0,7.5-3.78,14.65,14.65,0,0,0,4.11-8.32,10.18,10.18,0,0,0-2.78-8.37l-.55-.65-.31-.51c-13-21.2-36.61-59.95-32.64-101.19-11.08,14-15.61,30.51-13.83,50.18C108,82.23,119.42,108.06,136.58,128.8Zm93.23-23.38-1.58-1.65a209.19,209.19,0,0,0-19.9-18.57l-.88-.71.44-1c8.75-20.69,18.17-48.17,13.35-77.31l-.83-5,3.42,3.78c13.6,15,19.51,33,18.08,54.92C241,73,237.27,87.67,230.7,103.31ZM211.09,83.58A210.49,210.49,0,0,1,228.81,100c5.9-14.54,9.3-28.13,10.1-40.43,1.26-19.21-3.32-35.22-14-48.79C228,38.28,219.35,63.87,211.09,83.58Z"/></g></g></svg>