<svg xmlns="http://www.w3.org/2000/svg" viewBox="0 0 568.71 445.67"><title>Glabrezu</title><g id="b3ba8f7b-35a8-4b5b-b42a-417c0bb37d7c" data-name="Layer 2"><g id="a25aa9c4-de71-42de-9e66-62dfc532ed47" data-name="Layer 1"><path d="M529.77,166c-2,6.63-12.76,21.95-17.87-2.05s16.34-15.32,16.34-15.32c13.79-38.29,38.3-16.85,38.3-16.85-25-72.51-70,11.24-70,11.24-3.57,2.55-13.28-5.11-13.28-5.11l-2.55,2.55-2-12.76-9.19,18.38c-8.68-6.13-21.45,1.53-21.45,1.53-1.53-3.57-6.64-2.55-6.64-2.55-1-2.55-6.64-7.15-6.64-7.15a36.44,36.44,0,0,0-8.17-9.7c1.54-4.09-12.76-17.87-12.76-17.87,4.08-3.07,30.64,3.57,30.64,3.57-10.22-15.32-46.47-26-46.47-26-2.56-4.09,14.3-12.26,14.3-12.26-8.69-5.1-35.75,4.09-35.75,4.09l3.06-10.21L362.28,79.72l-1-4.09-9.7,4.6-6.64-6.13c19.41-4.08,12.26-24.51,12.26-24.51.51,12.26-7.66,9.19-7.66,9.19L348,51.12c-2.05,8.68-7.66,12.26-7.66,12.26-20.94-5.11-9.71-26-9.71-26,2.56-3.07,8.68,5.61,8.68,5.61l5.62-10.21,6.13,4.08c1.53-5.61-2-10.72-2-10.72L347,19l-16.34-1c-4.08-1-7.15-10.72-7.15-10.72l-3.57,3.57c-15.32-13.79-26-5.1-26-5.1-12.26-9.71-34.73-2-44.94,3.57a32.85,32.85,0,0,1-20.42,3.57c5.61,9.71,20.93,5.11,20.93,5.11,24-9.19,34.21,1,34.21,1-13.27-4.59-23,11.75-23,11.75l5.61-3.07,8.17,5.11c-7.15,1-14.81,11.74-14.81,11.74C278,35.8,274.45,47,274.45,47s-17.87,5.1-18.89,12.76l8.68-2.55-2.55,3.06,3.57,3.07S260.16,79.21,253,79.72s-11.24-2.56-23.49,2.55-14.3-2.55-14.3-2.55,1,10.72,6.13,11.74c0,0,.51,6.13-24.51-6.12,0,0,1.53,12.25,11.23,20.93,0,0-4.6,8.68-13.28,5.11l6.64,6.13s-16.85,9.19-16.85,14.29c0,0-19.05,6.52-20.89,12.11a.88.88,0,0,0-.05.15s-16.85-8.17-21.95-5.62l-1.51-1.71-6.15-7-4.09,6.64s-3.57,3.06-6.64-1.53-4.59-27.58-4.59-27.58l-8.17,21.45-14.3-25.53-5.11,10.21-8.9-30.27a17.62,17.62,0,0,0-4.64-7.68L53,51.59a17.72,17.72,0,0,0-14.71-4.81C27.78,48.21,11.48,52.29,8.41,63.89c0,0,17.36-2,23.49,8.17l15.32,8.17L62.54,119l11.74-5.62s16.85,21.45-6.12,40.85L61,147.12S28.34,175.71,1.78,114c.17,1.46,6.06,48.17,25.49,73.73A17.39,17.39,0,0,0,38,194.2l17.56,3.25a17.67,17.67,0,0,0,16.14-5.36L84.5,178.27l2.55,8.17,19.4-5.1,8.17,28.59,6.13-25s8.68,11.23,17.87,10.72c0,0,4.6,8.68,29.62,3.58,0,0,0,2,19.92-4.6S213.69,190,213.69,190s18.89-3.58,29.1-14.81c0,0,3.07,4.59,8.68,1,0,0-1.68,12.25-2.7,17.36,0,0-12.25,8.17-13.27,15.32,0,0-18.77,2.94-22.86,11.11l-3.06-3.58-19.4,5.11s-4.6-10.73-12.26-8.17l-12.76,1L162.6,219a5.41,5.41,0,0,0-4.91,5.37,6,6,0,0,0,.05.73l2.85,14c.3,2.2.92,5,3.08,5.52,6.15,1.48,18.61,3.48,25-2.53l4.59,1,20.43-4.59,2-3.58s20.43,0,26-10.72c0,0,20.43-11.24,19.92-21.45L275,208.91l9.71,26.55s-100.6,42.9-59.24,91.41c0,0,20.94,6.12,22,12.25,0,0-16.34,16.34-16.34,20.43,0,0-22-6.13-24.51,5.1l2.56.16a6,6,0,0,1,5.61,6s-23.1,17.45-23.1,27.42a5.69,5.69,0,0,0,.12,1.18l46-10.22s-5.62,22-19.92,24.52c0,0,32.68,5.1,46.47-40.34l11.23-12.77s4.09,15.32-1.53,17.87c0,0,12.26-1,9.19-39.32l.45-2.8a16,16,0,0,0-3.24-12.39l-4.89-6.21a16,16,0,0,0-10.57-6l-1.66-.21-1-6.13s41.87-8.68,49.53-14.81c0,0,17.36,4.6,21.45,3.07,0,0,44.93,51.57,59.23,48.51l8.17,16.34s-19.4,20.93-11.23,33.7c0,0,7.66-15.83,11.74-12.77,0,0-1,13.28-5.62,16.85,0,0-15.83,11.24-1.53,31.15,0,0,8.17-23.49,12.26-18.38h6.13s12.76,28.6,23.49,34.72c0,0-4.09-30.64,6.12-31.15s20.43,1,29.62,16.86c0,0,2-32.69-14.3-43.41l-6.64-13.28,5.62,5.11-2.95-10.5a17.17,17.17,0,0,0-6.13-9c-7.89-6-23.91-20-29.22-38.17,0,0,5.11-5.62-14.3-22.47,0,0-47.48-62.3-47.48-90.89,0,0,.51,9.7,26.55-13.28a22.24,22.24,0,0,0,15.58-7,27,27,0,0,0,5.35-8.35l10.22-14.81,2-12.26c11.89,5,21.34,10.87,21.53,16.86,0,0,12.25-23.49,24.51-14.3,0,0,16.85,10.21,26,4.6,0,0,29.19-9.44,13,38.67l2.3,7.28L518,203.8c1-2.55,14.81-10.21,14.81-10.21,20.93,20.94,29.1-18.38,29.1-18.38C541,194.1,529.77,166,529.77,166Zm-250-108.74h0l3.87-8.19,13.79,10.21-10.21,4.6,17.36-1.53-2,8.68,13.28-3.58-2.05,6.64L326,69.51s5.1,17.36,2,23.48c-1.66,3.33-12.2,9.06-21.82,15.25Zm94.16,109.18-3,7.22h0c-.42.13-7.21,2.34-9.86,4.49l5.8-14.72c2.55,1.53,7.66,1.53,7.66,1.53Zm8.78-9.12s-1.48,1.32-3.41,3.24c-11.07-9-26.71-12.91-48.77-5.6l-7.2-13.86c17.1.74,40.55.7,44.06-4.72,0,0,5.86,1.29,14.2,3.53a18.19,18.19,0,0,0-.41,7.7l4.59-1S379.64,153.25,382.71,157.34Z" style="fill:#6a1c1b"/><path d="M437.08,445.67l-1.75-1c-10.15-5.79-21.7-30.33-23.64-34.59h-6l-.3-.37c-.31-.4-.51-.36-.62-.35-2.57.45-7.34,11.05-9.91,18.43l-.63,1.82-1.13-1.56c-5-6.91-6.94-13.57-5.9-19.82a20.69,20.69,0,0,1,7.67-12.73c3.24-2.52,4.74-11.41,5.14-15.43a1.21,1.21,0,0,0-.41,0c-2.72.66-7.2,8.05-9.38,12.56l-.77,1.61-1-1.51c-7.85-12.28,7.85-31,10.87-34.4l-7.54-15.08-.64,0c-15.26,0-53.66-43.16-58.36-48.5-4.75.95-17.85-2.32-20.89-3.11-8,5.73-42.3,13.17-48.6,14.5l.74,4.45.92.12a16.91,16.91,0,0,1,11.23,6.33l4.89,6.21a17.07,17.07,0,0,1,3.44,13.17l-.43,2.68c3.08,38.73-9.57,40.23-10.11,40.28l-5.76.48,5.26-2.39c3.43-1.55,2.4-10.13,1.42-14.84l-9.81,11.15c-13.92,45.52-47.19,40.88-47.52,40.83l-5.9-.92,5.88-1.05c11.3-2,17.05-17.19,18.65-22.19L191,400.58l-.2-1a6.37,6.37,0,0,1-.15-1.39c0-9.7,19.82-25.38,23.08-27.89a5,5,0,0,0-4.65-4.5l-3.73-.23.26-1.15a8.36,8.36,0,0,1,4-5.5c6.2-3.7,17.3-1.43,20.71-.6,1.83-5,12.76-16.27,16-19.51-1.5-3.93-13.56-8.78-21.13-11l-.28-.08-.2-.23c-8.81-10.33-11.94-21.24-9.31-32.43,7.61-32.39,60.3-56.74,68.05-60.17l-9.24-25.27-11.54-5.34c-1.27,9.68-17.72,19.3-20.11,20.65-5.51,10-22.73,10.9-26.2,11l-2,3.47-21.07,4.74-4.31-1c-6.73,5.81-18.83,4-25.52,2.42-2.72-.66-3.48-3.75-3.84-6.36l-2.84-14a8.35,8.35,0,0,1-.07-.93,6.46,6.46,0,0,1,5.28-6.29l2.58-4.62,13.18-1c6.26-2,11,3.94,13,8l19.2-5.05,2.56,3c4.81-6.8,18.81-9.68,22.15-10.28,1.56-6.68,11.22-13.65,13.22-15,.76-3.94,1.85-11.46,2.35-15a6.68,6.68,0,0,1-7.44-1.32c-10.44,10.71-28.13,14.17-28.9,14.32l-.27.05-.26-.1s-5.79-1.76-24.87,4.6c-16.52,5.51-19.63,5.15-20.5,4.73-21.71,4.32-28.35-1.71-29.87-3.64H138c-7.31,0-14-6.53-16.75-9.59l-6.56,26.77-8.94-31.27-19.38,5.09-2.32-7.43L72.43,192.77a18.58,18.58,0,0,1-17.06,5.67l-17.56-3.25a18.36,18.36,0,0,1-11.33-6.89C6.58,162.12.85,114.56.79,114.08L0,107.28l2.7,6.29C12.42,136.16,24,149.12,37,152.09s23.24-5.63,23.34-5.72l.7-.61,7.15,7.15c19.09-16.75,8.3-34.59,5.76-38.23l-12,5.73L46.43,80.94,31.19,72.81l-.14-.23C25.32,63.05,8.7,64.86,8.53,64.89l-1.46.17.38-1.42c3.26-12.33,20.62-16.48,30.68-17.85a18.64,18.64,0,0,1,15.54,5.08L78.29,74.76a18.52,18.52,0,0,1,4.9,8.11l8.19,27.83,4.81-9.62,14.18,25.31,9-23.73.3,4.57c.42,6.32,2,23.5,4.43,27.09a4.14,4.14,0,0,0,2.71,2.06,3.43,3.43,0,0,0,2.34-.66l4.7-7.63,8.09,9.17c5.32-1.6,17.44,3.73,21.16,5.46,3-5.2,17.05-10.43,20.53-11.66,1.05-4.82,11.82-11.34,16.07-13.75l-9.72-9,5.15,2.12c6.49,2.67,10.42-2.17,11.63-4a37.94,37.94,0,0,1-11-21l-.23-1.84,1.66.81c15.66,7.67,20.8,7.83,22.36,7.44-4.37-2.47-5.31-11-5.41-12.06l2-.35a5.09,5.09,0,0,0,2.65,2.89c2.39,1.15,5.95.8,10.3-1,8.78-3.66,13.48-3.23,18-2.82a33.3,33.3,0,0,0,5.78.2c5.07-.37,9.57-10.43,11.16-15l-3.8-3.27,1.07-1.29-7,2.06.2-1.53c1-7.5,15.89-12.45,19.05-13.42.16-.82.32-2.48-.69-3.36s-4-1.69-12.86,2.5L256.6,47l2.23-3.13c.29-.4,6.48-9,13.15-11.53l-5.73-3.58L258,33.34l1.86-3.15c.09-.14,7.79-12.87,18.92-13-4.92-2.08-14.31-3.88-28.94,1.72-.73.22-16.21,4.73-22.15-5.55l-1.11-1.91,2.17.43a32.15,32.15,0,0,0,19.74-3.46C258.58,2.8,280.92-5.06,293.9,4.45c2.61-1.63,12.7-6.49,26,5l4.07-4.07.5,1.57c1.11,3.51,3.81,9.29,6.36,10L347.73,18l2.2,7.68c.61.92,3.59,5.89,2.09,11.41l-.36,1.33-6.38-4.24-5.87,10.66-.92-1.31c-1.69-2.39-4.8-5.78-6.46-5.84a.63.63,0,0,0-.57.22c-.53,1-4.82,9.88-1.73,16.78,1.64,3.68,5.14,6.24,10.4,7.61A20.25,20.25,0,0,0,347,50.89l1.06-4.46L350.38,58a4.51,4.51,0,0,0,3.61-.57c1.6-1.16,2.36-3.85,2.2-7.77l-.28-6.73,2.22,6.35c.14.41,3.46,10.13-.86,17.79-2.07,3.67-5.53,6.21-10.3,7.58L351.75,79l10.19-4.83,1,4,18.4-10.82-3.24,10.82c6.33-2,27-8,34.75-3.41l1.61,1-1.68.81c-5,2.41-13.13,7.28-13.95,10.1a1,1,0,0,0,0,.44c4.44,1.36,36.76,11.62,46.56,26.31l1.43,2.15-2.51-.63c-9.1-2.27-23.83-5.14-28.61-4.19,3.6,3.58,12.33,12.74,12.06,17.13a37.07,37.07,0,0,1,7.87,9.44c.95.79,4.95,4.19,6.43,6.72,1.48-.15,4.74-.15,6.45,2.28,3-1.6,12.94-6.14,20.67-1.62l10.08-20.17,2.22,13.9,1.8-1.79.69.55c3.69,2.9,9.71,6.34,11.91,5.19,2.06-3.78,23.9-42.81,45.82-41,10.53.85,19.22,11,25.84,30.17l1.22,3.54-2.82-2.46c-.09-.08-9-7.75-18.75-5.23-7.43,1.93-13.47,9.22-18,21.66l-.35,1-1-.39c-.09,0-8.67-3.43-13.07.26-2.75,2.31-3.39,7-1.92,13.93,1.65,7.74,4.11,12.08,6.93,12.2,3.76.15,7.88-6.58,9-10.24l.83-2.7,1.05,2.62c0,.13,5.17,12.62,14.5,14.78,5,1.16,10.41-.85,16.07-6l2.28-2.05-.63,3c-.18.88-4.61,21.61-15.57,24.88-4.55,1.36-9.48-.48-14.67-5.47-6.31,3.55-13.19,8-13.72,9.35l-.24.6-16.22.56L499.87,197l.11-.31c7.54-22.43,4.83-31.49,1.23-35.14-4.47-4.53-11.94-2.57-12.9-2.29-9.61,5.72-26.26-4.23-27-4.66a8.59,8.59,0,0,0-7.37-1.77c-8.48,1.93-15.67,15.54-15.74,15.68l-1.76,3.38-.12-3.81c-.11-3.23-3.65-8.5-19.75-15.47l-1.79,11.22-10.29,14.91a28.22,28.22,0,0,1-5.51,8.55,23.24,23.24,0,0,1-15.93,7.28c-13,11.47-21.7,16.53-25.79,15.06,2.76,28.54,45.19,84.93,47.08,87.43,12.15,10.56,14.95,17,15.16,20.48a5.4,5.4,0,0,1-.51,2.82c5.25,17.39,20.23,30.77,28.74,37.23a18.33,18.33,0,0,1,6.49,9.55L458.15,381l-4.24-3.85,4.13,8.25c16.39,11.05,14.61,42.8,14.52,44.16l-.2,3.29L470.7,430c-9.27-16-19.68-16.83-28.71-16.37a3.8,3.8,0,0,0-2.81,1.51c-5.26,6.31-2.39,28.29-2.36,28.51Zm-30.44-37.59H413l.27.6c.12.26,11.38,25.34,21.33,33.08-.6-5.92-1.75-22.1,3.06-27.88a5.77,5.77,0,0,1,4.25-2.23c9.05-.45,19.38.33,28.75,14.47,0-8.5-1.28-30.89-13.92-39.18l-.23-.15-9.16-18.31,7,6.37-2-7.15a16.25,16.25,0,0,0-5.77-8.5c-8.77-6.66-24.28-20.54-29.58-38.69l-.15-.53.37-.42s3.85-5.37-14.21-21l-.14-.15c-2-2.56-47.69-62.9-47.69-91.5l2-.05a1.16,1.16,0,0,0,.78.93c1.5.6,6.85.32,24.11-14.91l.3-.26h.4a21.41,21.41,0,0,0,14.82-6.66,26.06,26.06,0,0,0,5.15-8l.1-.19,10.09-14.62L415,149.79l1.17.49c12.43,5.25,19.53,10.21,21.55,15.07,2.54-4.18,8.57-12.81,15.77-14.45a10.47,10.47,0,0,1,8.93,2.06c.09,0,16.36,9.78,24.92,4.55l.22-.1c.38-.12,9.39-2.95,15,2.75,5.79,5.85,5.57,18.26-.64,36.88l2,6.25,13.52-.47c2.19-2.91,11.81-8.39,14.89-10.1l.66-.37.53.54c4.83,4.83,9.28,6.68,13.23,5.5,7.53-2.25,11.83-14.67,13.44-20.44-5.34,4.08-10.53,5.57-15.47,4.42-7.92-1.83-12.89-9.87-14.9-13.81-1.87,4.09-5.72,9.41-9.92,9.41h-.21c-3.93-.17-6.88-4.81-8.79-13.79-1.65-7.71-.77-13.05,2.59-15.87,4.38-3.68,11.53-1.8,14.13-.94,4.69-12.53,11.08-19.93,19-22,7.43-1.92,14.22,1.36,17.84,3.68-6.16-16.37-13.9-25-23-25.77-21.3-1.71-43.8,39.8-44,40.22l-.11.2-.18.14c-3.59,2.56-11.07-2.57-13.78-4.6l-3.31,3.31L478.22,131l-8.32,16.64-.95-.67c-8-5.67-20.24,1.5-20.36,1.57l-1,.59-.45-1.05c-1.2-2.8-5.49-2-5.53-2l-.81.17-.31-.78c-.76-1.89-4.84-5.51-6.35-6.74l-.15-.13-.09-.17A35.83,35.83,0,0,0,426,129l-.57-.45.26-.68c.81-2.14-5.87-10.39-12.52-16.8l-.84-.81.93-.71c3.68-2.76,21.16,1,28.75,2.74C430.3,98.6,398.09,89,397.75,88.85l-.36-.11-.2-.32a2.83,2.83,0,0,1-.29-2.34c1.06-3.7,9.18-8.33,13.07-10.37-9.74-2.88-32.81,4.88-33.06,5l-1.84.62L378,71.67l-16.32,9.59-1.05-4.2-9.21,4.37-8.56-7.91,1.9-.4c5.14-1.08,8.77-3.45,10.8-7.05A17.81,17.81,0,0,0,357.39,56,6.59,6.59,0,0,1,355.15,59a6.85,6.85,0,0,1-6,.68l-.52-.2-.88-4.41a20.07,20.07,0,0,1-6.9,9.12l-.36.23-.41-.11c-6.15-1.5-10.25-4.47-12.2-8.85-3.66-8.2,1.62-18.21,1.84-18.63l.12-.17a2.75,2.75,0,0,1,2.25-1c2.51.1,5.5,3.43,7.07,5.42l5.39-9.8,5.79,3.85a13.77,13.77,0,0,0-2.16-8.48l-.1-.14-1.9-6.63-15.82-1c-3.57-.89-6.22-6.9-7.33-9.85l-3.11,3.11-.7-.63c-14.46-13-24.34-5.4-24.75-5.07l-.62.5-.63-.49c-11.18-8.86-32.34-2.66-43.83,3.66a34,34,0,0,1-18.74,4C236.59,20.62,249,17,249.15,17c24.26-9.3,34.77.83,35.2,1.27l3.07,3.07-4.1-1.42c-8.5-2.95-15.58,3.45-19.19,7.77l2.19-1.19,11,6.87-2.7.38c-4.27.61-8.87,5.08-11.62,8.22,5.54-2.15,9.25-2.33,11.27-.56,2.36,2.07,1.21,5.8,1.16,6l-.17.51-.51.15c-4.34,1.23-15.07,5.29-17.65,10.3l10-2.94-4,4.83,3.33,2.86-.2.63c-.22.67-5.4,16.48-13.13,17a36.6,36.6,0,0,1-6.11-.19c-4.3-.4-8.75-.81-17.07,2.67-5,2.08-9,2.39-12,.93a7.64,7.64,0,0,1-1-.57c.79,3,2.24,6.45,4.62,6.92l.74.15.06.75a2.19,2.19,0,0,1-1,1.93c-2.77,1.89-10.54-.19-23.11-6.2.86,3.7,3.47,12.09,10.54,18.42l.58.52-.36.69c0,.08-3.76,6.89-10.69,6.49l4.87,4.49-1.23.67c-6.31,3.45-16.33,10.13-16.33,13.41v.72l-.67.23c-5.17,1.77-18.88,7.28-20.27,11.48l0,.09-.25,1.28-1.15-.64c-4.57-2.21-17.25-7.54-21.07-5.62l-.69.34-7.27-8.24-3.59,5.72a5.48,5.48,0,0,1-4,1.2,6,6,0,0,1-4.1-2.93c-2.34-3.52-3.78-16.63-4.4-23.63l-7.35,19.3L96.29,105.35l-5.4,10.79L81.28,83.43a16.78,16.78,0,0,0-4.38-7.24L52.28,52.31A16.65,16.65,0,0,0,38.4,47.77c-9.16,1.25-24.68,4.85-28.58,15,4.45-.25,17.34-.17,22.79,8.53L48,79.52l15.06,38.16,11.5-5.5.49.63c.18.22,17.18,22.43-6.26,42.23l-.7.59-7.17-7.16c-2.65,2-12.13,8.35-24.34,5.58-12.39-2.81-23.4-14-32.78-33.23C6.2,135,13,167.3,28.07,187.09a16.38,16.38,0,0,0,10.1,6.13l17.57,3.25A16.59,16.59,0,0,0,71,191.41l14-15.08,2.78,8.9,19.43-5.1,7.4,25.9,5.73-23.37,1.26,1.64c.09.11,8.47,10.76,17,10.34l.64,0,.3.56c0,.07,4.79,7.91,28.53,3.07l1.2-.24v.53c1.19,0,5.3-.42,18.61-4.86,17.76-5.92,24.43-5,25.88-4.66,2.12-.45,19.05-4.26,28.32-14.46l.86-.95.72,1.07c.26.38,2.7,3.66,7.31.73l1.82-1.16-.29,2.14c0,.12-1.7,12.34-2.72,17.42l-.08.4-.34.24c-.12.07-11.89,8-12.84,14.63l-.1.73-.73.11c-.18,0-18.31,3-22.12,10.57l-.68,1.35-3.63-4.25-19.62,5.17-.34-.79c-.05-.1-4.35-9.85-11-7.62l-.24,0-12.22,1-2.56,4.58-.52.05a4.44,4.44,0,0,0-4,4.37,4.18,4.18,0,0,0,.05.61l2.83,13.94c.26,1.9.78,4.37,2.34,4.75,5.18,1.25,17.91,3.52,24.08-2.29l.39-.36,4.88,1.09L213,237.65l2.11-3.7h.58c.2,0,19.9-.12,25.16-10.18l.14-.27.26-.14c.2-.11,19.88-11.06,19.41-20.53l-.09-1.65,15.15,7L285.94,236l-.87.37c-.6.26-59.95,25.92-67.76,59.17-2.46,10.45.47,20.7,8.69,30.45,3.24,1,21.33,6.63,22.38,13l.09.51-.37.36c-6.66,6.66-16,17.19-16,19.72v1.32l-1.26-.35c-.14,0-13.67-3.75-20.16.12a6.36,6.36,0,0,0-2.75,3.09l1.29.08a7,7,0,0,1,6.54,7v.5l-.39.3c-.23.17-22.64,17.21-22.71,26.58l46.46-10.33-.41,1.58c-.2.8-4.55,17.3-15.38,23.33a37.06,37.06,0,0,0,12.26-3.15c12.62-5.66,22.21-18.3,27.75-36.54l.06-.2L276,358.51l.48,1.8c.31,1.18,2.28,8.92,1.13,14.29,3-3.94,6.34-13.3,4.57-35.4v-.12l.47-2.92a15.09,15.09,0,0,0-3-11.61l-4.89-6.21a14.87,14.87,0,0,0-9.91-5.58l-2.4-.31-1.3-7.81.94-.2c.42-.08,41.72-8.7,49.11-14.61l.39-.31.49.13c6.86,1.81,18.06,4.14,20.84,3.1l.65-.25.46.53c12.39,14.22,47,50.57,58.27,48.19l.75-.17,8.83,17.65-.47.51c-.18.2-17.18,18.76-12,30.85,1.87-3.54,6.18-11,9.83-11.89a2.91,2.91,0,0,1,2.53.49l.44.33,0,.55c0,.56-1.11,13.77-6,17.56a19.06,19.06,0,0,0-6.89,11.49c-.86,5.22.64,10.83,4.46,16.7,1.93-5.22,6.76-17.2,10.8-17.9A2.49,2.49,0,0,1,406.64,408.08ZM358.76,181.36,366.39,162l1,.61c1.89,1.13,5.8,1.38,7.14,1.38H376l-4.41,10.69h-.5c-1.61.51-7.21,2.49-9.42,4.28Zm8.66-16.53-4.31,10.93a59,59,0,0,1,7.1-2.88l2.86-6.94A19.69,19.69,0,0,1,367.42,164.83Zm11.95-2.9-.7-.57c-12.31-10-28.4-11.86-47.82-5.43l-.81.27-8.39-16.15,1.73.07c25,1.08,40.72-.47,43.17-4.26l.38-.58.68.15c.06,0,6,1.32,14.24,3.54l1,.26-.29,1a16.59,16.59,0,0,0-.5,6.2l6.62-1.48-2.16,2.35c-1.55,1.68-5.1,6.65-3,9.45l.56.74-.69.61s-1.48,1.33-3.37,3.2Zm-27.32-11.77a42.85,42.85,0,0,1,27.18,9.09c.92-.9,1.69-1.62,2.2-2.09-1.53-3,.29-6.66,1.86-9l-3,.66-.15-1.08a20.05,20.05,0,0,1,.19-7.13c-6.23-1.65-11-2.75-12.59-3.12-3.75,4.07-18.12,5.64-42.77,4.67l6,11.58A68.88,68.88,0,0,1,352.05,150.16Zm-46.18-40.48L282.81,65.29l-1.38.12,1.17-.53-3.83-7.35v-.48l4.49-9.49L299.4,59.5,293,62.38l12.85-1.13-2,8.39L317.31,66l-2,6.42,11.36-4.25.3,1c.22.73,5.18,17.81,2,24.21-1.37,2.75-7.36,6.44-15,11.12-2.37,1.47-4.82,3-7.23,4.52ZM285,65.1l21.68,41.71c2.11-1.35,4.26-2.67,6.33-4,6.74-4.15,13.09-8.07,14.21-10.31,2.21-4.42-.34-16.32-1.81-21.72l-13.15,4.92,2.11-6.85-13.14,3.54,2.1-9Zm-4.07-7.84,3.53,6.8,11.05-5L284,50.61Z" style="fill:#fff"/><path d="M382.71,157.34s-1.48,1.32-3.41,3.24c-11.07-9-26.71-12.91-48.77-5.6l-.93.31a34,34,0,0,0-7,11.51c-4.14,10.67-6.16,28.68,8,53.63,6.23,11,4.62,25-4.4,33.89-8.78,8.62-22.48,10.49-41.52-18.86-6.42-9.9-8.74-24.25-14.79-35-3.93-7-6.27-28.35-13.55-24.71-13.28,6.64-19.13,5.32-27.62,9.29a64.7,64.7,0,0,1-15,5s-5.62-2.05-25.53,4.59-19.92,4.6-19.92,4.6c-25,5.1-29.62-3.58-29.62-3.58-9.19.51-17.87-10.72-17.87-10.72l-6.13,25-8.17-28.59-19.4,5.1-2.55-8.17s.51-53.62,14.29-47,21.45,24.51,31.15,13.79c0,0,5-4.49,10.24-8.35l1.51,1.71c5.1-2.55,21.95,5.62,21.95,5.62a.88.88,0,0,1,.05-.15c6.53,7.46,14.09,15.47,19.87,15.47,0,0,26.55-54.13,76.08-11.75,0,0,15.32-4.08,10.22-22.47L261,111.38a13.19,13.19,0,0,1-.82-12.72l18.92-40,.65-1.38,3.87-8.19,13.79,10.21-10.21,4.6,17.36-1.53-2,8.68,13.28-3.58-2.05,6.64L326,69.51s5.1,17.36,2,23.48c-1.66,3.33-12.2,9.06-21.82,15.25-1.95,1.25-3.87,2.53-5.66,3.8-5.65,4-10.11,8-10.82,11.59-2,10.22-3.57,29.62,15.32,16.34,0,0,2.69.24,7,.53,3.08.21,7,.44,11.29.62,17.1.74,40.55.7,44.06-4.72,0,0,5.86,1.29,14.2,3.53a18.19,18.19,0,0,0-.41,7.7l4.59-1S379.64,153.25,382.71,157.34Z" style="fill:#dcd8de"/><path d="M314.09,260.88c-.59,0-1.18,0-1.78-.09-8.86-1-18.44-9.32-28.47-24.78-3.49-5.37-5.81-12.09-8-18.59-2-5.67-4-11.53-6.78-16.5-1.31-2.35-2.42-6.1-3.59-10.08-1.73-5.85-3.87-13.14-6.68-14.36a2.18,2.18,0,0,0-2,.14,70.5,70.5,0,0,1-17.59,6.14,46.06,46.06,0,0,0-10.05,3.16A65.41,65.41,0,0,1,213.88,191l-.27.05-.26-.1s-5.79-1.76-24.87,4.6c-16.52,5.51-19.63,5.15-20.5,4.73-21.71,4.32-28.35-1.71-29.87-3.64H138c-7.31,0-14-6.53-16.75-9.59l-6.56,26.77-8.94-31.27-19.38,5.09-2.88-9.23v-.16c0-1.7.51-41.69,10.2-47.71a5.46,5.46,0,0,1,5.53-.16c5,2.43,9.28,6.31,13,9.74,4.37,4,8.16,7.47,11.72,7.3,1.77-.09,3.48-1.07,5.24-3l.07-.07s5.07-4.57,10.32-8.41l.74-.54,1.65,1.87c5.31-1.6,17.35,3.69,21.12,5.44l.26-.67,1.09,1.23c6.61,7.55,13.42,14.57,18.52,15.09,2-3.72,13-23,33-27.17,13.78-2.84,28.56,2.32,43.93,15.33a15.66,15.66,0,0,0,8.14-6.66c2.16-3.8,2.48-8.6.93-14.27l-8.76-13.66a14.1,14.1,0,0,1-.88-13.68l18.92-40s.38-.8.55-1.18h0l4.49-9.49L299.4,59.5,293,62.38l12.85-1.13-2,8.39L317.31,66l-2,6.42,11.36-4.25.3,1c.22.73,5.18,17.81,2,24.21-1.37,2.75-7.36,6.44-15,11.12-2.37,1.47-4.82,3-7.23,4.52-2.08,1.34-4,2.61-5.62,3.78-6.45,4.59-9.85,8.18-10.42,11-2,9.93-1.36,17,1.66,19,2.33,1.52,6.52.25,12.11-3.68l.3-.21.36,0s2.73.24,6.93.53c2.55.17,6.57.42,11.27.61,25,1.08,40.72-.47,43.17-4.26l.38-.58.68.15c.06,0,6,1.32,14.24,3.54l1,.26-.29,1a16.59,16.59,0,0,0-.5,6.2l6.62-1.48-2.16,2.35c-1.55,1.68-5.1,6.65-3,9.45l.56.74-.69.61s-1.48,1.33-3.37,3.2l-.64.64-.7-.57c-12.31-10-28.4-11.86-47.82-5.43l-.1,0-.6.19a34.5,34.5,0,0,0-6.59,11c-4.08,10.51-6,28.2,7.9,52.78A29.11,29.11,0,0,1,326.9,255C322.94,258.92,318.64,260.88,314.09,260.88Zm-56.15-86.57a4,4,0,0,1,1.59.33c3.67,1.6,5.77,8.73,7.8,15.63,1.14,3.87,2.22,7.52,3.43,9.67,2.87,5.13,4.93,11.08,6.92,16.83,2.31,6.68,4.49,13,7.83,18.15,9.69,14.94,18.78,23,27,23.88,4.59.5,9-1.24,13-5.19a27.1,27.1,0,0,0,4.23-32.68c-14.3-25.27-12.26-43.58-8-54.49a35.06,35.06,0,0,1,7.22-11.87l.16-.15.2-.07.86-.29.1,0c19.74-6.54,36.22-4.78,49,5.22.92-.9,1.69-1.62,2.2-2.09-1.53-3,.29-6.66,1.86-9l-3,.66-.15-1.08a20.05,20.05,0,0,1,.19-7.13c-6.23-1.65-11-2.75-12.59-3.12-3.84,4.16-18.79,5.72-44.5,4.6-4.72-.19-8.76-.44-11.31-.62-3.34-.23-5.73-.42-6.61-.5-6.34,4.39-10.94,5.54-14.05,3.51-5.18-3.38-3.81-14.65-2.53-21.07.68-3.37,4.24-7.25,11.22-12.21,1.67-1.18,3.59-2.47,5.7-3.83,2.42-1.55,4.88-3.07,7.26-4.54,6.74-4.15,13.09-8.07,14.21-10.31,2.21-4.43-.34-16.32-1.81-21.72l-13.15,4.92,2.11-6.85-13.14,3.54,2.1-9-21.86,1.93,14-6.33L284,50.61l-3.35,7.09h0c-.09.23-.28.62-.64,1.38l-18.92,40a12.09,12.09,0,0,0,.76,11.75l9,14.06c1.74,6.28,1.37,11.65-1.1,16a17.5,17.5,0,0,1-9.83,7.73l-.51.13-.4-.34c-15-12.85-29.36-18-42.63-15.25-20.66,4.25-31.79,26.46-31.9,26.68l-.27.56h-.63c-6.13,0-13.62-7.83-20.22-15.35l-.13-.07c-4.57-2.21-17.25-7.54-21.07-5.62l-.69.34-1.41-1.6c-4.66,3.48-8.95,7.32-9.39,7.71-2.12,2.34-4.28,3.52-6.6,3.63-4.38.22-8.46-3.51-13.16-7.82-3.63-3.33-7.75-7.1-12.53-9.41a3.51,3.51,0,0,0-3.6.06c-7.24,4.5-9.13,34.48-9.25,45.88l2.21,7.1,19.43-5.1,7.4,25.9,5.73-23.37,1.26,1.64c.09.11,8.47,10.76,17,10.34l.64,0,.3.56c0,.07,4.78,7.91,28.53,3.07l1.2-.24v.53c1.14,0,5.29-.42,18.61-4.86,17.78-5.93,24.45-5,25.88-4.66a63.66,63.66,0,0,0,14.56-4.89,48.81,48.81,0,0,1,10.45-3.3,68.93,68.93,0,0,0,17.15-6A4.52,4.52,0,0,1,257.94,174.31Z" style="fill:#fff"/><path d="M500.92,197l-.76-2.42-4.09,3.07-11.23-3.58-2,18.38-10.21-17.36-30.64,9.19-6.12-7.66s-31.66-1-37.28-9.7a3.59,3.59,0,0,0-.25-.33,27,27,0,0,0,5.35-8.35l10.22-14.81,2-12.26c11.89,5,21.34,10.87,21.53,16.86,0,0,12.25-23.49,24.51-14.3,0,0,16.85,10.21,26,4.6C487.9,158.36,517.09,148.92,500.92,197Z" style="fill:#dcd8de"/><path d="M483.46,215.58l-11.34-19.27-30.54,9.16-6.25-7.83c-4.12-.17-32.1-1.61-37.63-10.14a1.37,1.37,0,0,0-.18-.24l-.56-.68.61-.65a26.06,26.06,0,0,0,5.15-8l.1-.19,10.09-14.62L415,149.79l1.17.49c12.43,5.25,19.53,10.21,21.55,15.07,2.54-4.18,8.57-12.81,15.77-14.45a10.51,10.51,0,0,1,8.93,2.06c.09,0,16.36,9.78,24.92,4.55l.22-.1c.38-.12,9.39-2.95,15,2.75,5.82,5.88,5.57,18.4-.75,37.19l-1,2.92-1.26-4-3.37,2.53-10.56-3.36Zm-10.41-21.64,9.08,15.45L484,192.78l11.9,3.79,4.8-3.61.25.79c6.33-20.29,3.7-28.7.26-32.19-4.48-4.54-11.93-2.56-12.89-2.28-9.61,5.72-26.26-4.23-27-4.66a8.59,8.59,0,0,0-7.37-1.77c-8.47,1.92-15.67,15.54-15.74,15.68l-1.76,3.38-.12-3.81c-.11-3.23-3.65-8.5-19.75-15.47l-1.79,11.22-10.29,14.91a28.63,28.63,0,0,1-4.95,7.94c4.83,6.53,27.74,8.68,36.28,9l.46,0,6,7.49Z" style="fill:#fff"/><path d="M384.08,160.74c-.24,5.4,1.3,15.18,15.83,14a3.24,3.24,0,0,1,3.39,4c-1.38,5.51-5.89,14.16-20.59,14.85,0,0-13.76-9.19-13-19.4,0,0,1.87-12.5,10.86-16A2.6,2.6,0,0,1,384.08,160.74Z" style="fill:#c98711"/><path d="M382.43,194.61l-.27-.19c-.58-.38-14.24-9.64-13.46-20.3.08-.61,2.07-13.2,11.49-16.83a3.6,3.6,0,0,1,4.89,3.5h0c-.13,3,.32,7.22,3.21,10,2.47,2.38,6.35,3.37,11.54,2.95a4.14,4.14,0,0,1,3.56,1.48,4.19,4.19,0,0,1,.88,3.75c-1.38,5.52-6,14.88-21.51,15.61ZM381.49,159a1.7,1.7,0,0,0-.58.11c-8.35,3.22-10.21,15.07-10.23,15.19-.63,8.67,10.45,16.91,12.32,18.24,13.24-.75,17.82-8.05,19.33-14.08a2.23,2.23,0,0,0-2.34-2.76c-5.78.47-10.19-.71-13.08-3.5-3.44-3.31-4-8.1-3.83-11.54h0a1.55,1.55,0,0,0-.66-1.35A1.62,1.62,0,0,0,381.49,159Z" style="fill:#fff"/><path d="M191,224.63l-1,13.75a4.31,4.31,0,0,0,3.37,4.53h0a4.31,4.31,0,0,0,1.89,0l15.91-3.57a4.33,4.33,0,0,0,3.37-4.47l-.76-13.39a4.4,4.4,0,0,0-1-2.57l-.35-.4a4.32,4.32,0,0,0-4.39-1.38l-13.79,3.64A4.31,4.31,0,0,0,191,224.63Z" style="fill:#c98711"/><path d="M194.26,244a5.65,5.65,0,0,1-1.16-.13A5.35,5.35,0,0,1,189,238.3l1-13.74a5.34,5.34,0,0,1,3.95-4.76l13.8-3.63a5.35,5.35,0,0,1,5.4,1.68l.35.42a5.39,5.39,0,0,1,1.27,3.15l.76,13.4a5.31,5.31,0,0,1-4.15,5.49l-15.91,3.58A5.75,5.75,0,0,1,194.26,244ZM192,224.7l-1,13.75a3.35,3.35,0,0,0,2.59,3.49,3.54,3.54,0,0,0,1.45,0l15.91-3.58a3.32,3.32,0,0,0,2.59-3.43l-.76-13.39a3.34,3.34,0,0,0-.79-2l-.35-.41a3.35,3.35,0,0,0-3.37-1.05l-13.8,3.63a3.33,3.33,0,0,0-2.46,3Z" style="fill:#fff"/></g></g></svg>