<svg xmlns="http://www.w3.org/2000/svg" viewBox="0 0 327.4 301.17"><title>Goblin_1</title><g id="aae3685f-8fa3-43e1-b43e-b3932b69e750" data-name="Layer 2"><g id="b752fc6f-f53a-441d-a4ce-24164c8b1dd4" data-name="Layer 1"><path d="M163.7,1.5c-5.68,0-14.25,3.84-23.44,10.81s-19,16.75-28.19,27.25A374.34,374.34,0,0,0,79.71,82.74l33.14,24.86,32.92,8.23,1.53-4.59,11.41,3.81-10,30,15,37.47,15-37.47-10-30,11.41-3.81,1.53,4.59,32.92-8.23,33.14-24.86a374.34,374.34,0,0,0-32.36-43.18c-9.19-10.5-19-20.28-28.19-27.25S169.38,1.5,163.7,1.5ZM102.53,65.15l50.81,29.42-6,10.41L96.5,75.57Zm122.33,0,6,10.42L180.09,105l-6-10.41ZM4.06,77.46c21.26,22.05,42.26,49.08,51,74.78A56.4,56.4,0,0,1,58.61,147a127.55,127.55,0,0,1,11.45-12.8c-6-8.61-7.85-19.45-8.42-28.67-19.6-16.14-36-25.2-57.58-28Zm319.28,0c-21.53,2.84-38,11.9-57.58,28-.57,9.22-2.44,20.06-8.42,28.67A127.55,127.55,0,0,1,268.79,147a56.4,56.4,0,0,1,3.54,5.27c8.75-25.7,29.75-52.73,51-74.78ZM73.54,93.16a.47.47,0,0,1-.05.1c.09,10.95,1.34,29.48,8.89,37l4.26,4.25-4.26,4.25c-5.35,5.35-10.52,10.57-14.15,15.4-3.13,4.18-4.9,7.91-5.32,11l54.23,20.34a88.73,88.73,0,0,1,10.22-12.46l10.71-10.71-.45,15.14c-.16,5.64-.25,10.79-.15,15.65l20.62,7.74-22-55H102l-8.93,8.94-8.51-8.51,7.56-7.56-9-38.45Zm180.32,0-9.55,7.16-9,38.45,7.56,7.56-8.51,8.51-8.93-8.94H191.31l-22,55,20.62-7.74c.1-4.86,0-10-.15-15.65l-.45-15.14L200,173.07a88.73,88.73,0,0,1,10.22,12.46l36.9-13.84,17.33-6.5c-.42-3.09-2.19-6.82-5.32-11-3.63-4.83-8.8-10.05-14.15-15.4l-4.26-4.25,4.26-4.25c7.55-7.55,8.8-26.08,8.89-37a.47.47,0,0,1,0-.1ZM98.09,111.58l5.25,22.29H114.9V120.52l-7.32-1.83Zm131.22,0-9.49,7.11-7.32,1.83v13.35h11.56Zm-102.38,12v10.34h12.82l2.2-6.59Zm73.54,0-15,3.75,2.2,6.59h12.82ZM62.89,165.32c0,.27-.06.56-.08.84C68,191.18,86.2,225.3,107,252.57c10.48,13.76,21.62,25.84,31.81,34.28s19.56,12.82,24.91,12.82,14.72-4.39,24.91-12.82,21.33-20.52,31.81-34.28c20.78-27.27,39-61.39,44.17-86.41,0-.28,0-.56-.08-.84L232.4,213.48l-68.7,57.25L95,213.48Zm30.59,24.19L104,205.35l2,1.66a70.73,70.73,0,0,1,4.79-11Zm140.44,0L216.58,196a70.73,70.73,0,0,1,4.79,11l2-1.66Zm-108.39,5.17c-1.19,1.84-2.33,3.71-3.35,5.58a56,56,0,0,0-5.56,14.21l13.15,8.77A113.53,113.53,0,0,1,125.53,194.68Zm76.34,0a113.53,113.53,0,0,1-4.24,28.56l13.15-8.77a56,56,0,0,0-5.56-14.21C204.2,198.39,203.06,196.52,201.87,194.68ZM189,206.35l-19.3,7.24v36.46l5.21-4.34,4.78-9.57A89.42,89.42,0,0,0,189,206.35Zm-50.64,0a89.42,89.42,0,0,0,9.31,29.79l4.78,9.57,5.21,4.34V213.59Z" style="fill:#ba8b51"/><path d="M163.7,301.17c-6.15,0-16.06-5.05-25.87-13.17-10.18-8.43-21.26-20.37-32-34.52-22-28.89-39.46-63-44.45-87l0-.19v-.07l-.05,0,.13-1a.22.22,0,0,0,0-.08l.53-4,.33.5A33.27,33.27,0,0,1,67,153.29c3.55-4.72,8.36-9.63,14.29-15.56l3.19-3.19-3.19-3.19C73.81,123.84,72.1,106.5,72,93.27v-.39L73,91l1.44.94,10,7.49,9.36,39.79-7.09,7.09,6.39,6.39,8.31-8.31h35.72l23.63,59.07L136,194.2l0-1c-.09-4.28,0-9.13.16-15.73l.33-11.37-8,8a88.34,88.34,0,0,0-10,12.25l-.66,1L66.6,168.18l29.53,44.29,67.57,56.31,67.58-56.31,29.52-44.29-51.11,19.17-.66-1A88.34,88.34,0,0,0,199,174.13l-8-8,.34,11.37c.19,6.6.24,11.45.15,15.72l0,1-24.75,9.28,23.63-59.07H226l8.31,8.31,6.39-6.39-7.09-7.09L243,99.45l11.43-8.58,1,2,0,.44c-.11,13.23-1.82,30.57-9.33,38.08l-3.19,3.19,3.19,3.19c5.93,5.93,10.74,10.84,14.29,15.56a33.27,33.27,0,0,1,4.77,8.38l.35-.53.65,5-.05,0v.08l0,.18c-5,24-22.44,58.13-44.45,87-10.78,14.15-21.86,26.09-32,34.52C179.76,296.12,169.85,301.17,163.7,301.17ZM65.94,172.6c6.45,23,22.48,53.13,42.23,79.06,10.65,14,21.57,25.74,31.58,34,11.12,9.21,19.85,12.48,23.95,12.48s12.83-3.27,24-12.48c10-8.29,20.93-20.06,31.58-34C239,225.73,255,195.57,261.46,172.59l-27.93,41.9-.17.14L163.7,272.68,93.87,214.49l-.12-.18Zm73,19.51,16.48,6.18L139.67,158.9l-.55,18.65C138.94,183.58,138.89,188.13,139,192.11Zm48.77-33.21L172,198.29l16.48-6.18c.06-4,0-8.54-.17-14.56Zm.08-.19L201.11,172a89.13,89.13,0,0,1,9.72,11.71l51.95-19.49A26.85,26.85,0,0,0,258,155.1c-3.43-4.57-8.17-9.4-14-15.25l-5.32-5.31,5.32-5.31c5-5,8-16.7,8.4-33.07l-6.71,5-8.73,37.11,8,8L234.32,157l-9.55-9.55H192.32ZM64.62,164.23l51.95,19.48A88.92,88.92,0,0,1,126.3,172l13.3-13.3-4.52-11.3H102.63L93.08,157,82.45,146.33l8-8-8.73-37.11-6.71-5c.44,16.38,3.39,28.06,8.4,33.07l5.32,5.31-5.32,5.31c-5.84,5.85-10.58,10.68-14,15.25A26.85,26.85,0,0,0,64.62,164.23Zm103.6,89V212.55l22.6-8.48-.32,2.47a90.48,90.48,0,0,1-9.45,30.27l-4.92,9.85Zm3-38.63v32.22l2.51-2.09,4.64-9.29a88.48,88.48,0,0,0,8.81-26.83Zm-12,38.63-7.91-6.6-4.92-9.85a90.55,90.55,0,0,1-9.45-30.27l-.32-2.47,22.6,8.48Zm-5.51-8.5,2.51,2.09V214.63l-16-6A88.48,88.48,0,0,0,149,235.47Zm41.38-18,1.14-3.94a112.1,112.1,0,0,0,4.18-28.19l.15-4.8,2.61,4c1.32,2,2.43,3.9,3.4,5.68a57.55,57.55,0,0,1,5.72,14.63l.21,1Zm8.08-27.14a112.39,112.39,0,0,1-3,20.16l9-6A56.44,56.44,0,0,0,203.9,201C203.65,200.53,203.4,200.08,203.13,199.62Zm-70.78,27.14-17.41-11.6.21-1a57.55,57.55,0,0,1,5.72-14.63c1-1.76,2.07-3.62,3.4-5.68l2.61-4,.15,4.8a112.1,112.1,0,0,0,4.18,28.19Zm-14-13,9,6a113.28,113.28,0,0,1-3-20.16L123.5,201A56.44,56.44,0,0,0,118.31,213.8Zm102.32-4.22-.68-2.11a69.2,69.2,0,0,0-4.7-10.76l-.79-1.5,23.29-8.74-13.26,19.9Zm-1.95-12.76a72.69,72.69,0,0,1,3.4,7.65l.15-.13,7.86-11.79ZM106.77,209.58l-3.85-3.21-13.27-19.9,23.29,8.74-.79,1.5a69.34,69.34,0,0,0-4.7,10.76Zm-1.6-5.24.15.13a73.86,73.86,0,0,1,3.4-7.65l-11.41-4.27Zm58.53-17.78L147.11,145.1l9.7-29.1-8.56-2.86-1.5,4.49L112.2,109l-.25-.19L77.7,83.11l.74-1.17a378.19,378.19,0,0,1,32.5-43.37c10-11.48,19.87-21,28.41-27.46C148.67,4.05,157.54,0,163.7,0s15,4.05,24.35,11.11c8.54,6.49,18.36,16,28.41,27.46A378.19,378.19,0,0,1,249,81.94l.74,1.17L215.2,109l-34.55,8.64-1.5-4.49L170.59,116l9.7,29.1ZM150.31,145l13.39,33.48L177.09,145l-10.3-30.9,14.26-4.75,1.57,4.69,31.27-7.82,31.79-23.84A375.51,375.51,0,0,0,214.2,40.55c-9.91-11.33-19.58-20.68-28-27C177.56,6.93,169.14,3,163.7,3s-13.86,3.93-22.53,10.5c-8.38,6.36-18.06,15.71-28,27A376.55,376.55,0,0,0,81.72,82.38l31.79,23.84L144.78,114l1.57-4.69,14.26,4.75ZM272.7,155.83,271,153a55,55,0,0,0-3.45-5.13,128,128,0,0,0-11.32-12.65l-.88-.88.71-1c4.76-6.84,7.43-16,8.17-27.9l0-.65.5-.42C286.32,86.63,302.67,78.67,323.15,76l4.25-.56-3,3.08c-17.91,18.57-41.24,46.52-50.67,74.23ZM259.26,134A123.91,123.91,0,0,1,270,146.07c.7,1,1.36,1.87,2,2.76,9.61-25.69,30.27-51.18,47.26-69.22-17.76,3.12-32.76,10.86-52,26.64C266.43,117.85,263.82,127,259.26,134ZM54.7,155.83l-1.05-3.1C44.22,125,20.89,97.07,3,78.5L0,75.42,4.25,76c20.48,2.69,36.83,10.65,58.34,28.36l.5.42,0,.65c.74,11.93,3.41,21.06,8.17,27.9l.71,1-.88.88a129.13,129.13,0,0,0-11.32,12.65A55.61,55.61,0,0,0,56.36,153ZM8.18,79.61c17,18,37.66,43.53,47.26,69.22.61-.9,1.26-1.81,2-2.76A123.69,123.69,0,0,1,68.14,134c-4.56-7-7.17-16.14-8-27.74C40.94,90.47,25.94,82.73,8.18,79.61Zm217.07,55.76H211v-16l8.16-2,12.55-9.41Zm-11.25-3h8.87l4-17.12-6.42,4.82L214,121.69Zm-12,3h-15.4l-3.06-9.15L202,121.6Zm-13.24-3H199v-6.92l-11.59,2.89Zm-47.9,3h-15.4V121.6l18.46,4.62Zm-12.4-3h10.24l1.34-4-11.58-2.89Zm-12,3H102.15L95.69,107.9l12.55,9.41,8.16,2Zm-11.87-3h8.87V121.69l-6.48-1.62-6.42-4.82ZM147.86,107,94.46,76.11l7.53-13L155.39,94ZM98.55,75l48.22,27.91,4.52-7.81L103.08,67.2Zm81,32L172,94l53.4-30.92,7.54,13Zm-3.43-11.91,4.52,7.81L228.85,75l-4.53-7.82Z" style="fill:#fff"/></g></g></svg>