<svg xmlns="http://www.w3.org/2000/svg" viewBox="0 0 419.46 465.22"><title>Goristro</title><g id="e9d8d363-6817-4f5c-9c3b-f67fe9aefebb" data-name="Layer 2"><g id="ef402f5a-0a3f-4e9a-b18e-034024c9bca9" data-name="Layer 1"><path d="M341.6,63s23.16-1.16,26.64,9.84,9.26,38.22,47.48,8.69c0,0-8.68,57.33-49.8,42.27S341.6,63,341.6,63Z" style="fill:#af6425"/><path d="M379,127.33a39,39,0,0,1-13.39-2.58c-21.74-8-27.35-24.47-28.23-36.92a66.94,66.94,0,0,1,3.31-25.17l.23-.62.66,0c1,0,24-1.07,27.64,10.54.18.55.36,1.15.55,1.77,2,6.48,4.94,16.26,13.11,18.87,7.59,2.42,18.44-1.77,32.26-12.44l2-1.53-.38,2.47c-.19,1.25-4.86,30.8-23.29,41.72A27.9,27.9,0,0,1,379,127.33ZM342.32,64a66.48,66.48,0,0,0-3,23.76c1.23,17.22,10.29,29,26.92,35.12,9.89,3.63,18.68,3.23,26.13-1.18,14.59-8.64,20.3-30.38,21.86-37.79-13.56,10.07-24.05,13.73-32,11.19-9.17-2.92-12.33-13.31-14.42-20.19-.18-.61-.36-1.2-.53-1.75C364.4,64,346.09,63.91,342.32,64Z" style="fill:#fff"/><path d="M294.86,174.92a1.08,1.08,0,0,0-.17.32Z" style="fill:#3f2420"/><path d="M295.56,175.72l-1.82-.79a2,2,0,0,1,.38-.68l5.9-6.54Zm-.05-.22.1.09,0-.05Z" style="fill:#fff"/><path d="M406.74,320.12l-18.23-28.95v0c-.47-1-17.77-38.47-12.4-57.61,5.45-19.39-17.14-39.36-17.14-39.36a121.67,121.67,0,0,0-.12-37.31c-.07-.44-.15-.88-.23-1.34-1.1-6.12-2.82-4.44-5.44-10.52-.45-1-.93-2.07-1.43-3.09a62.65,62.65,0,0,0-3.2-5.76c-2.25-3.62-4.84-5.63-7.62-6.39a10.48,10.48,0,0,0-3.75-.33c-3.23.28-6.64,1.88-10.06,4.33a43.84,43.84,0,0,0-4.15,3.35q-1.6,1.41-3.16,3h0c-12.4,12.6-23.43,32.11-24.92,34.79.32-.35,1.05-.23,2.07,5.68a2.74,2.74,0,0,1,.08.43c.71,4,1.53,8.65,2.47,13.65.76,4.11,1.6,8.45,2.49,12.86,1,5.21,2.15,10.51,3.3,15.63,4,17.85,8.45,33.44,12,35,1.05.46,2.48,1.92,4.19,4.13h0l.34.44h0a.17.17,0,0,1,0,.05.31.31,0,0,0,.07.09v0a139,139,0,0,1,7.8,12c2.66,4.51,5.51,9.58,8.36,14.81,0,0,0,0,0,0,10.58,19.5,21.16,41.27,22.48,44,.09.18.13.28.13.28s27.8-28.66,24.31,26.93l8.69-4.34L392,375.71l13.9-12.16,4.34,20S431.07,355.73,406.74,320.12Z" style="fill:#3f2420"/><path d="M409.71,385.87l-4.45-20.45-14.51,12.69,1.8-19.81-8.63,4.32.11-1.74c1.49-23.87-2.91-31-6.86-32.71-6.5-2.87-15.65,6.44-15.74,6.54l-1,1.06-.6-1.35s-.05-.1-.12-.25c-.47-1-11.31-23.37-22.18-43.44h-.4V290c-3-5.49-5.75-10.39-8.22-14.56a136.28,136.28,0,0,0-7.7-11.85l-.24-.24v-.1l-.07-.11-.13-.17,0-.05c-2.09-2.71-3.22-3.57-3.8-3.82-2.18-.94-5.86-5.67-12.59-35.68-1.06-4.77-2.18-10-3.3-15.65-.9-4.47-1.74-8.8-2.49-12.88-1-5.15-1.83-10-2.47-13.66a3.06,3.06,0,0,0-.07-.37,29.49,29.49,0,0,0-1-4.49l-5.23,5.81,4.29-7.72c1.24-2.24,12.52-22.24,25.08-35l.31-.3c1-1,2-1.93,2.92-2.77a46.21,46.21,0,0,1,4.23-3.42c3.8-2.72,7.35-4.23,10.55-4.5a11.25,11.25,0,0,1,4.11.36c3.16.86,5.92,3.16,8.2,6.82a62.77,62.77,0,0,1,3.25,5.85c.5,1,1,2.09,1.45,3.14a16.29,16.29,0,0,0,2.8,4.59c1.1,1.31,2,2.45,2.71,6.15.08.47.16.92.23,1.36A124.89,124.89,0,0,1,360,193.8c3.18,2.93,22.24,21.47,17,40s11.4,54.86,12.32,56.88l18.2,28.89c24.43,35.78,3.66,64.27,3.44,64.55Zm-3.21-24.19,4.19,19.26c4-6.89,15.21-31-4.77-60.26l0,0-18.18-28.86-.21-.21v-.2c-2.19-4.79-17.6-39.49-12.36-58.12s-16.62-38.14-16.84-38.34l-.42-.37.1-.56a122,122,0,0,0-.13-37c-.06-.44-.14-.87-.22-1.31-.57-3.19-1.25-4-2.27-5.23a18.25,18.25,0,0,1-3.11-5.08c-.44-1-.92-2.05-1.41-3.05-1-2-2-3.87-3.14-5.67-2-3.22-4.38-5.22-7-6a9.61,9.61,0,0,0-3.4-.3c-2.85.24-6.06,1.63-9.57,4.14a44.86,44.86,0,0,0-4.06,3.28c-1,.9-2.06,1.9-3.12,3l-.3.3c-11.23,11.52-21.38,28.82-24,33.36.5.73,1,2.31,1.67,5.94a4.33,4.33,0,0,1,.08.45c.64,3.62,1.5,8.47,2.47,13.62.75,4.06,1.58,8.38,2.48,12.85,1.12,5.6,2.23,10.85,3.29,15.6,6.58,29.33,10.19,33.75,11.43,34.29s2.63,1.89,4.56,4.38l0,.07.53.73a135.87,135.87,0,0,1,7.78,12c2.44,4.12,5.16,8.94,8.1,14.34h0l.29.52c9.86,18.18,19.77,38.43,22,43.08,2.77-2.52,10.56-8.82,17-6s9.14,13.91,8.14,32.94l8.75-4.38-1.67,18.41Z" style="fill:#fff"/><path d="M376.1,233.54c-11.82-7.22-38.64-17-58.82,24.62,0,0,0,3,4.05,4,1.62.41,4.77,17.36,10.72,24.9,2.27,2.89,10.37,2.1,9.9,5.75-.35,2.7.42,5.35,5.44,4.1,0,0,29.53-21.43,41.12-5.79,0,0,6.08.17.58-9.27C385,275,376.35,254.68,381,247.74l.39-3.35A11.17,11.17,0,0,0,376.1,233.54Z" style="fill:#af6425"/><path d="M345.13,298.27a4.3,4.3,0,0,1-3-1c-1.07-.95-1.47-2.48-1.2-4.56.14-1.11-1.43-1.61-4-2.3-2.19-.58-4.46-1.18-5.66-2.71C327.54,283,325,275,323.08,269.1a40,40,0,0,0-2.18-6c-4.61-1.25-4.62-4.83-4.62-5v-.23l.1-.2c8.1-16.73,18.12-27,29.77-30.38,12.12-3.56,23.26.94,30.48,5.34a12.21,12.21,0,0,1,5.73,11.83l-.42,3.58-.13.2c-4.24,6.37,4,26,8.14,33.11,2.41,4.14,3,7.08,1.9,9a4,4,0,0,1-3.37,1.78l-.49,0-.29-.39c-10.86-14.66-39.43,5.8-39.72,6l-.16.11-.19.05A10.42,10.42,0,0,1,345.13,298.27Zm-26.84-39.91c.09.57.55,2.2,3.29,2.88,1.12.28,1.67,1.85,3.4,7.25,1.84,5.73,4.36,13.57,7.85,18,.79,1,2.73,1.52,4.6,2,2.76.73,5.89,1.56,5.51,4.48-.12.95-.13,2.22.55,2.82s1.8.61,3.48.22c2.62-1.87,30.09-20.88,42-5.91a1.75,1.75,0,0,0,1.18-.76c.4-.69.68-2.51-1.92-6.95-3.89-6.69-13-27.24-8.21-35l.37-3.11a10.21,10.21,0,0,0-4.8-9.89h0c-6.86-4.19-17.44-8.48-28.87-5.13C335.68,232.5,326.12,242.29,318.29,258.36Z" style="fill:#fff"/><path d="M345.07,427,330.3,417.4s-6.95-21.71-24.32-18.24c0,0-7.81-11.3-2.61-14.77l20.86-13s30.8-12.79,36.34-37.64c2.36-10.58.15-23.35-11-38.25h0a128.67,128.67,0,0,0-19.84-20.56c-1.61-1.37-3.3-2.75-5.07-4.16-13.57-10.8-31.6-22.42-55.16-34.88,0,0-10.73-28.72,12.29-47a54.58,54.58,0,0,1,14.31-8.05l.83-.19a95.56,95.56,0,0,0,16-5.26l.3-4.61-5.78,2.89.65-2.27,1.66-5.84-9.26,2.9c-4.64-8.1,9.26-22,9.26-22l5.22,9.27,2.31-7.53,4.63,10.43,1.75-8.69,4.05,9.85,5.21-8.69,4,9.36a65.46,65.46,0,0,0,7.26-7.67c.12-.14.22-.27.33-.42a56.39,56.39,0,0,0,8.66-15.3c.29-.77.56-1.55.81-2.36a58.88,58.88,0,0,0,2.8-15.2c.08-1.14.12-2.28.12-3.46.11-14.4-4.19-31.87-15.3-53L329.43,37l-4.34,8.68S286.87-3.88,253,7.4L232.14,1.33V13.49S174.82,16.09,167,30l-17.37-1.73L154,39.55s-14.76,2.6-20.84-5.21L128.79,49.1s-18.53,16.5-20.56,29.53h0l0,0,0,0h0l0,0C107.3,79.87,96.49,94.24,87.37,109h0a.15.15,0,0,1,0,.07l0,0h0c-5,8-9.41,16.23-11.49,22.47,0,0-26.06,20-25.19,28.65l-7-6.07-.86,21.71L31.5,171.58l1.73,28.67-7.81,2.61,4,22.28h0c.44.77,18.22,33-2.23,60.67l-.09.13S13.25,301.87,15,312.3c0,0-9.56,20.85-13.91,18.24L2,347.91l16.5,28.67L42.79,387l-4.34-9.56,11.28-1.73s-32.14-13.9-12.16-39.09S84.44,348.73,81,359.18c.44-.78,10.22-18.74,1.72-41.67a149.39,149.39,0,0,1-10.13-26.14h0c-2.07-7.93-2.92-15.83-.29-20.76,3.89-7.29,19.77-14.31,31.77-29.91,0,0,0,0,0,0,9.43-12.25,16.45-29.8,13.39-56.92l13.89-5.21S134,217.62,142.68,228c0,0-69.5,82.52-39.95,129.43,0,0,9.54,3.47,9.54,11.28,0,0-23.45,34.75-20,39.09,0,0-42.57,34.75-37.35,48.64,0,0,46.9,14.78,60.81,3.48l3.47-16.5s-.88-52.12,20.84-60.8,26.06-27.8,24.32-33.88c0,0,27.8-23.45,29.53-27.79,0,0,37.36.86,42.57-9.56,0,0,51.92,28.57,59.9,23.48-.93.81-17.23,15-13.86,25.16,0,0-7.82,7.82-12.16,4.34,0,0-10.42,13.9-6.09,20,0,0,26.06,28.67,19.12,46.91l10.42,10.42s-9.56,22.59,45.17,14.76c0,0,5.21-5.2,19.11,0C358.1,456.48,372.86,441.72,345.07,427Zm-38.59-304.6,3.54-.27a12.19,12.19,0,0,1,10.35,4.47,20.69,20.69,0,0,0,2.59,2.56,16.72,16.72,0,0,0,4.74,2.8,43.21,43.21,0,0,1-7.91.22h0c-8-.55-12.43-3.59-14.73-6.07A2.21,2.21,0,0,1,306.48,122.35Z" style="fill:#7c1c0d"/><path d="M98.23,465.22c-18.57,0-42.2-7.35-43.58-7.78l-.46-.15-.17-.46c-5.12-13.6,31.5-44.66,37-49.24-.5-1.7.14-6.23,9.08-21.43,4.86-8.26,10.13-16.18,11.15-17.7-.24-6.83-8.79-10-8.88-10l-.32-.12-.18-.28c-12.28-19.5-9.22-48.3,8.85-83.3A290,290,0,0,1,141.4,228c-7.59-10.3-10.38-41.16-10.92-48.09l-11.91,4.47c2.45,23-2,41.49-13.47,56.59v.08l-.24.26C98.2,250,90.36,256,84.06,260.88c-5.14,4-9.2,7.09-10.85,10.19-2.17,4.06-2,10.8.37,20l0,.13a150.9,150.9,0,0,0,10,25.82l.05.11c8.7,23.47-1.35,41.74-1.79,42.5l-1.82-.8c1.8-5.49-6.44-21.06-18-27.3-6.12-3.3-15.2-5-23.66,5.68-5.4,6.8-7.36,13.35-5.82,19.47,2.91,11.61,17.45,18,17.59,18.07l3.19,1.38-13.41,2.06,4.86,10.71-27-11.57-.16-.29L1,348.2,0,328.72l1.61,1a.73.73,0,0,0,.63,0C5.32,328.76,11,318.56,14,312.16,12.47,301.4,25.83,286,26.4,285.3c20.23-27.43,2.39-59.33,2.21-59.65l-.14-.23v-.19l-4.18-23,7.9-2.64-1.78-29.46,11.44,4.4.89-22.41,7,6.17C52,149,71.58,133.62,74.94,131c1.89-5.52,5.7-13,11.34-22.15v-.16l.31-.31c7.84-12.72,17-25.24,20.58-30l.13-.19c2.17-12.56,18.44-27.66,20.61-29.63l4.81-16.36,1.2,1.54c4.67,6,15.11,5.4,18.67,5l-4.47-11.62,18.36,1.83c8.59-12.91,57-16,64.66-16.4V0L253,6.36C284.42-3.79,318.58,36,324.9,43.78l4.56-9.12,13.05,27.93C352.84,82.2,358,100.18,357.9,116c0,1.18,0,2.34-.12,3.52A60,60,0,0,1,354.93,135c-.23.78-.51,1.57-.82,2.4a57.34,57.34,0,0,1-8.81,15.57q-.15.21-.36.45a65.88,65.88,0,0,1-7.35,7.76l-1,.94-3.79-8.84L327.54,162,324,153.3l-1.72,8.54L317.45,151l-2.21,7.2-5.7-10.11c-2.83,3.09-11.08,12.87-8.54,19.12l10.21-3.2L309,171.7l5.31-2.65-.46,7-.57.24a96.7,96.7,0,0,1-16.15,5.32l-.76.18a53.64,53.64,0,0,0-14,7.86c-20.82,16.56-13.19,42.26-12.1,45.55,22.31,11.82,40.81,23.53,55,34.8,1.91,1.52,3.57,2.89,5.09,4.18a130.5,130.5,0,0,1,19.95,20.67l.05.06c10.16,13.59,13.92,26.74,11.17,39.07-5.51,24.69-34.75,37.43-36.85,38.31l-20.8,13a2.9,2.9,0,0,0-1.23,1.95c-.61,3.21,2.25,8.5,3.78,10.87,16.32-2.73,23.68,15.89,24.68,18.69l14.45,9.34c10.46,5.57,16.27,11.82,17.29,18.58a15.56,15.56,0,0,1-4.06,12.52l-.45.45-.61-.22c-13-4.87-18-.27-18.06-.22l-.23.22-.32.05c-24.15,3.45-39.21,1.55-44.77-5.67a10.85,10.85,0,0,1-1.7-9.81l-10.43-10.44.23-.6c6.64-17.46-18.67-45.6-18.93-45.88l-.07-.1c-4.7-6.6,5.66-20.57,6.1-21.16l.62-.82.81.64c2.8,2.25,8.1-1.7,10.4-3.86-2.17-8.33,6.91-18.53,11.85-23.32-13.2-.45-49-19.65-56.39-23.68-6.52,9.34-37.42,9.29-42.35,9.23-3.33,5.31-24.74,23.54-29,27.15,1.45,7.17-3.41,25.78-25.06,34.44-20.84,8.33-20.22,59.34-20.22,59.86v.11l-3.57,17-.28.22C112.33,464,105.69,465.22,98.23,465.22Zm-42.49-9.54c5,1.5,46.21,13.56,59.12,3.72l3.37-16c0-3.41-.34-52.92,21.47-61.64,20.86-8.34,25.43-26.75,23.73-32.67l-.18-.62.5-.42c11.1-9.36,28-24.39,29.25-27.4l.25-.64h.7c10.22.25,37.61-.92,41.65-9l.47-.94.91.51c20.66,11.37,53.39,27,58.88,23.51l1.19,1.6c-1.71,1.49-16.64,14.85-13.57,24.09l.2.58-.44.44c-.32.32-7.6,7.52-12.61,5-3,4.21-8.5,13.76-5.56,18,1.55,1.72,25.73,28.87,19.49,47.27L295,441.49l-.26.62a8.9,8.9,0,0,0,1.22,8.5c3.5,4.51,13.73,9,42.59,4.92,1.27-1,6.93-4.63,19.25-.22a13.61,13.61,0,0,0,3.07-10.37c-.92-6.1-6.4-11.86-16.28-17.1l-.07,0-15.07-9.74-.11-.34c-.27-.85-6.9-20.81-23.17-17.57l-.64.13-.38-.54c-.22-.32-5.41-7.9-4.45-12.91a4.88,4.88,0,0,1,2.11-3.26l21-13.12c.3-.13,30.39-12.89,35.75-36.94,2.61-11.72-1-24.29-10.77-37.37l-.06-.07a128.69,128.69,0,0,0-19.68-20.4c-1.51-1.27-3.16-2.63-5-4.14-14.14-11.25-32.64-22.95-55-34.77l-.34-.18-.13-.36c-.11-.29-10.72-29.61,12.6-48.16a56.14,56.14,0,0,1,14.57-8.2l.17,0,.79-.18a93.48,93.48,0,0,0,15.26-5l.14-2.25-6.25,3.12,2.43-8.51L300,169.6l-.4-.7c-5-8.66,8.83-22.62,9.42-23.21l.93-.94,4.72,8.39,2.41-7.86,4.44,10,1.79-8.85,4.54,11.06,5.19-8.66,4.23,9.86a64.92,64.92,0,0,0,6.11-6.6c.13-.15.21-.26.31-.39a55.73,55.73,0,0,0,8.53-15.06c.3-.8.56-1.55.79-2.3a58.05,58.05,0,0,0,2.75-15c.09-1.15.12-2.26.12-3.41.12-15.48-5-33.14-15.18-52.5L329.4,39.25l-4.12,8.25-1-1.26c-.38-.49-38.18-48.81-71-37.89l-.3.1L233.14,2.66V14.45l-.95,0c-.57,0-56.85,2.73-64.31,16l-.33.57-16.4-1.63,4.19,10.91-1.19.21c-.59.1-13.69,2.31-20.56-4.21l-3.92,13.33-.21.19c-.18.16-18.21,16.35-20.23,28.86v.35l0,0v.57h-.5C105.06,84.55,96,96.9,88.3,109.43v.14l-.22.21c-5.71,9.28-9.53,16.74-11.34,22.17l-.09.29-.25.19c-7.12,5.46-25.47,21.09-24.8,27.75l.25,2.52-7.28-6.36-.83,21L32.6,173.07,34.28,201l-7.72,2.58,3.87,21.28c1.38,2.55,17.82,34.23-2.38,61.6l-.1.14c-.18.21-13.61,15.74-12,25.58l0,.3-.13.28c-.81,1.77-8.08,17.36-13.08,18.9a3.34,3.34,0,0,1-.67.14L3,347.62l16.21,28.17,21.65,9.28L37,376.65l9.5-1.45c-4.65-2.59-13.55-8.63-15.9-18-1.7-6.76.39-13.89,6.19-21.21,7.28-9.16,16.57-11.36,26.18-6.19s17.54,16.73,19.08,24.64a52.37,52.37,0,0,0-.22-36.54,150.31,150.31,0,0,1-10.18-26.28l0-.14c-2.51-9.68-2.57-16.87-.17-21.36,1.86-3.48,6.07-6.72,11.4-10.83,6.16-4.75,13.8-10.64,20.26-19v0l.21-.27c11.46-14.89,15.78-33.27,13.19-56.2l-.09-.77,15.88-6,.09,1.34c0,.38,2.69,38.88,11.07,48.93l.54.65-.54.64c-.69.81-68.42,82.17-40,128,1.78.73,9.86,4.44,9.86,12.09v.31l-.17.25c-11.08,16.42-21.88,35.58-20,37.91l.62.77-.76.63C81.41,418,52.61,444.55,55.74,455.68ZM322.4,133.22c-.93,0-1.82,0-2.68-.09-8.37-.57-13-3.79-15.4-6.39a3.2,3.2,0,0,1,2.08-5.38h0l3.54-.28a13.27,13.27,0,0,1,11.19,4.83,19.51,19.51,0,0,0,2.46,2.43A15.66,15.66,0,0,0,328,131l4.28,1.45-4.49.5A49.24,49.24,0,0,1,322.4,133.22Zm-15.84-9.87a1.18,1.18,0,0,0-1,.75,1.21,1.21,0,0,0,.24,1.29c2.16,2.32,6.36,5.22,14.06,5.74a37.47,37.47,0,0,0,4.27.06,20.88,20.88,0,0,1-1.79-1.3,22.34,22.34,0,0,1-2.72-2.69,11.26,11.26,0,0,0-9.5-4.12Z" style="fill:#fff"/><path d="M163.24,164.35s-72.38-8.69-55-85.71c0,0-17.37,15.06-20.27,27.8s-.58,2.32-.58,2.32-4.63,62,53.28,66Z" style="fill:#af6425"/><path d="M140.85,175.79l-.26,0c-16.68-1.17-29.85-7.21-39.15-18-12.76-14.75-14.86-34.79-15.11-44h0c-.59-.13-.83-.19-.69-1.25h0l.15-.66c.14-.74.37-1.79.71-3.29h0c.15-.67.32-1.44.53-2.33,2.93-12.91,19.87-27.71,20.59-28.33l2.3-2-.67,3c-5.3,23.48-2.7,42.88,7.72,57.64,16.2,23,46.13,26.82,46.43,26.85l3.5.43ZM88.36,109.2c-.16,3.4-.87,29.43,14.6,47.31,8.89,10.27,21.51,16.07,37.51,17.24l19.45-9c-8.36-1.71-31.09-7.95-44.62-27.11-10.3-14.59-13.22-33.48-8.7-56.17-4.77,4.55-15.5,15.63-17.66,25.16C88.72,107.64,88.52,108.48,88.36,109.2Z" style="fill:#fff"/><path d="M348.55,191.57l-4.35,32.14-3.47-13.91-9.56,24.33S326,210.68,319,209.8c-4-.49-9.61,6.91-13.75,13.37-3.11,4.88-5.36,9.22-5.36,9.22L302,207.55l1-11.72.43-5.14h.22l23.52.46h.49l6.82.13,5.42.11,6.85.13Z" style="fill:#7c1c0d"/><path d="M330.91,237.54l-.71-3.2c-2-8.8-6.76-23-11.31-23.55-1.24-.15-5,.8-12.78,12.92-3,4.78-5.29,9.1-5.31,9.14l-2.3,4.42,4-47.58h1.14l46.09.9L344.5,229l-4-15.93Zm-12.27-28.76a4.19,4.19,0,0,1,.5,0c6.06.76,10.52,15.31,12.26,22L341,206.53l3,11.87,3.5-25.85-43.11-.84-3,36.12c.87-1.52,1.94-3.32,3.14-5.19C310.39,213.32,315.05,208.78,318.64,208.78Z" style="fill:#fff"/><path d="M101.1,231.57c-10.21-11.23-37.86-34.71-71.62-6.42,0,0-4.06,4.63,1.73,8.11L28.9,268S19.05,279,27.16,286c0,0,20.27-27.5,45.17,5.51,0,0,9.26-2.61,10.42-10.14,0,0,15-23.17,20.6-37.5A11.84,11.84,0,0,0,101.1,231.57Z" style="fill:#af6425"/><path d="M71.94,292.6l-.41-.54c-7.93-10.52-16.16-15.85-24.44-15.85H47c-11.3.05-19,10.24-19,10.34l-.63.86-.82-.7a9.54,9.54,0,0,1-3.53-6.8c-.37-5.59,3.88-11,4.94-12.31l2.25-33.82a6.37,6.37,0,0,1-3-4.24,6.84,6.84,0,0,1,1.56-5l.11-.11c34.37-28.79,62.51-5,73,6.52h0a12.75,12.75,0,0,1,2.44,13.29C99,257.78,85.11,279.5,83.7,281.69c-1.37,7.9-10.7,10.62-11.1,10.73ZM47.09,274.21c8.79,0,17.4,5.41,25.6,16.07,2-.73,8.2-3.41,9.07-9.11l0-.21.12-.18c.15-.23,15-23.25,20.51-37.32a10.77,10.77,0,0,0-2.06-11.21h0c-10.11-11.12-37.16-34-70.17-6.39a4.69,4.69,0,0,0-1.05,3.39,4.81,4.81,0,0,0,2.59,3.15l.52.31-2.38,35.7-.23.26c-.05.06-5,5.7-4.66,11.11a7.36,7.36,0,0,0,2.08,4.7c2.23-2.64,9.53-10.21,19.91-10.27Z" style="fill:#fff"/><path d="M353.12,162.73l.36,5.39,3.16-6.64L353.9,176l-15.75,21.7-11-6.52v-9.43l-9.84,4.64,1.16-9.26-5.8,2.31.28-4.07.3-4.62-5.78,2.9.64-2.27,1.67-5.84-9.26,2.9c-4.64-8.11,9.26-22,9.26-22l5.22,9.26,2.31-7.53,4.63,10.44,1.74-8.69,4.05,9.84,5.22-8.68,4,9.35,1.2,2.8,6.07-10.46c.12-.14.22-.28.33-.42l2.29,12L352,152.19Z" style="fill:#160f0e"/><path d="M364.76,129.6a28.68,28.68,0,0,0-2-7.07h0c-1.19-2.66-3-5.34-5.83-6.54a8.7,8.7,0,0,0-5.41-.4h0c-2.88.61-6.37,2.47-10.56,6.18-.73.62-1.46,1.32-2.22,2,0,0-.56-.91-1.54-2.38-4.29-6.33-16.82-22.8-28.57-19.05,0,0-16.8-5.78-16.22-13.89,0,0-12.73,5.2-4.05,21.42,0,0-.61.49-1.61,1.36h0l-.86.81a59,59,0,0,0-5.79,6.17c-3.57,4.41-7.09,10.17-7.79,16.31a18.56,18.56,0,0,0,.34,6.2,18.34,18.34,0,0,0,2.4,5.63c11,17.38,13.32,20.86,13.32,20.86s1,11.14,7.78,13.53a6.78,6.78,0,0,0,.91.25l.58.11a59.84,59.84,0,0,0,6,9.55c3.37,4.28,7.8,8.4,12.52,8.4,0,0,18.9,7.74,28.59-1.61a16.1,16.1,0,0,0,3.83-5.92L352.11,179s-9.74,9.85-12.27,12.36c-1.71,1.68-3.34,3.07-4,3.07s-1.13-1.45-1.38-3.17a46.86,46.86,0,0,1-.35-5.51l-6.46,5.37-.49.41v-9.84l-9.85,4.64,1.16-9.27-5.79,2.31.27-4.07.3-4.61-5.78,2.89.65-2.27,1.66-5.84-9.26,2.9c-4.64-8.1,9.26-22,9.26-22l5.22,9.27,2.31-7.53,4.63,10.43,1.75-8.69,4.05,9.85,5.21-8.69,4,9.36,1.2,2.8,6.06-10.47.31-.53,0,.11,2.29,12L352,152.19l1.09,10.53.36,5.39,3.17-6.64,2.2-4.61.18-.37c.16.79.32,1.41.52,1.48C363,159.13,369.39,144.08,364.76,129.6Zm-45,2.53h0c-8-.55-12.43-3.59-14.73-6.07a2.21,2.21,0,0,1,1.43-3.71l3.54-.27a12.19,12.19,0,0,1,10.35,4.47,20.69,20.69,0,0,0,2.59,2.56,16.72,16.72,0,0,0,4.74,2.8A43.21,43.21,0,0,1,319.79,132.13Z" style="fill:#ac5857"/><path d="M331.33,203.13a45.67,45.67,0,0,1-15.4-3c-4.19-.09-8.6-3-13.11-8.78a61.37,61.37,0,0,1-5.9-9.27l-.07,0a7.47,7.47,0,0,1-1.06-.29c-6.79-2.4-8.23-12.35-8.43-14.13-.64-1-3.7-5.66-13.2-20.67a18.79,18.79,0,0,1-2.89-12.47c.61-5.37,3.3-11,8-16.84a58.72,58.72,0,0,1,5.89-6.27l.84-.8.33-.28.72-.61c-2.82-5.57-3.49-10.5-2-14.65A13.28,13.28,0,0,1,292,87.57l1.49-.61-.12,1.6c-.42,5.89,10.58,11.1,15.25,12.77,12.16-3.53,24.57,12.46,29.37,19.54q.54.81.9,1.38c.46-.43.92-.86,1.39-1.25,4-3.54,7.7-5.7,11-6.4l.11,0a9.8,9.8,0,0,1,5.91.48c2.59,1.12,4.7,3.44,6.28,6.91l.08.16a29.61,29.61,0,0,1,2.08,7.25c4,12.72-.05,25.13-3.48,28.51-1.28,1.26-2.35,1.26-3,1a1,1,0,0,1-.21-.1L352.73,172l-.61-9.2-.7-6.67-5,11.62L344,155l-6,10.4-5.22-12.19L327.54,162,324,153.3l-1.72,8.54L317.45,151l-2.21,7.2-5.7-10.11c-2.83,3.09-11.08,12.87-8.54,19.12l10.21-3.2L309,171.7l5.31-2.65-.58,8.84,5.89-2.35-1.15,9.14,9.63-4.53v9.28l6.95-5.78v2.13a47.6,47.6,0,0,0,.34,5.37,7.87,7.87,0,0,0,.56,2.23,17.69,17.69,0,0,0,3.17-2.7c2.5-2.47,12.16-12.25,12.26-12.35l2.74-2.77-4.63,16.28a17.29,17.29,0,0,1-4.11,6.37C341.51,202,336.3,203.13,331.33,203.13Zm-44.06-91-.74.7a57.8,57.8,0,0,0-5.7,6.07c-4.46,5.51-7,10.82-7.57,15.8a16.79,16.79,0,0,0,2.59,11.18c10.85,17.15,13.28,20.8,13.31,20.84l.14.21,0,.25c0,.11,1,10.53,7.12,12.68a5.24,5.24,0,0,0,.76.21c.21,0,.37.08.54.1l.52.08.23.48a60.45,60.45,0,0,0,5.9,9.37c4.19,5.31,8.14,8,11.73,8h.2l.18.08c.19.07,18.42,7.38,27.52-1.41a15.15,15.15,0,0,0,3.59-5.56l2.48-8.7c-3.09,3.12-7.88,8-9.54,9.6-3,3-4.06,3.36-4.75,3.36-1.58,0-2.09-2.15-2.37-4-.17-1.2-.26-2.51-.3-3.57l-7,5.84V183.3L316.06,188l1.17-9.39-5.69,2.27.56-8.52-6.25,3.12,2.43-8.51L300,169.6l-.4-.7c-5-8.66,8.83-22.62,9.42-23.21l.93-.94,4.72,8.39,2.41-7.86,4.44,10,1.79-8.85,4.54,11.06,5.19-8.66,5.2,12.13L345,149.34l.5,2.79,1.67,8.81,5.45-12.68,1.49,14.36.11,1.62,5.2-10.85.58,2.9c.07.32.12.54.16.69a2.59,2.59,0,0,0,.7-.51c2.95-2.92,6.67-14.93,2.95-26.56l0-.18a27.65,27.65,0,0,0-1.89-6.68l-.06-.12c-1.38-3.08-3.16-5.1-5.31-6a7.67,7.67,0,0,0-4.8-.34l-.12,0c-2.93.65-6.29,2.65-10,5.93-.74.62-1.48,1.34-2.19,2l-.9.86-.65-1s-.56-.91-1.52-2.35c-3.58-5.28-16.14-22.26-27.43-18.65l-.32.1-.31-.11c-.67-.23-15.36-5.38-16.8-13.2a11.28,11.28,0,0,0-4.53,5.58c-1.35,3.78-.59,8.4,2.27,13.73l.39.73-.65.52s-.61.49-1.58,1.34Zm35.13,21.11c-.93,0-1.82,0-2.68-.09h0c-8.39-.59-13-3.8-15.4-6.39a3.2,3.2,0,0,1,2.08-5.38l3.55-.28a13.25,13.25,0,0,1,11.19,4.83,19.51,19.51,0,0,0,2.46,2.43A15.66,15.66,0,0,0,328,131l4.28,1.44-4.49.51A49.24,49.24,0,0,1,322.4,133.22ZM311,123a8.25,8.25,0,0,0-.86,0l-3.55.27a1.18,1.18,0,0,0-1,.75,1.21,1.21,0,0,0,.24,1.29c2.16,2.32,6.36,5.22,14.06,5.74h0a39.61,39.61,0,0,0,4.25.05,20.88,20.88,0,0,1-1.79-1.3,22.34,22.34,0,0,1-2.72-2.69A11.33,11.33,0,0,0,311,123Z" style="fill:#fff"/><path d="M268.92,100.41c5.76-4.94,12.91-7.22,16-14.89,9.52-23.85-24-26.08-37.67-20-26.11,11.75-31.74,59.23-4.24,72.71,18.28,9,43.83-11.15,53.07-26a11.81,11.81,0,0,0,1.54-2.89c-.54,1.88-15.38,2.14-17.06,2.09C275.4,111.3,262.14,106.24,268.92,100.41Z" style="fill:#af6425"/><path d="M253,141.54a23.57,23.57,0,0,1-10.49-2.36c-12-5.87-19-18.82-18.71-34.64.3-17.8,9.53-33.83,23-39.88,9.2-4.13,28-4.89,36.63,3.34,3.14,3,6.11,8.56,2.38,17.89-2.24,5.61-6.6,8.51-10.81,11.32a54.94,54.94,0,0,0-5.44,4h0c-2,1.69-1.55,2.89-1.41,3.28,1.09,3,8.5,5.88,12.4,6,3.41.1,14.94-.44,16.17-1.56a.37.37,0,0,0-.1.19l1.92.55a10.06,10.06,0,0,1-1.34,2.66l-.32.49C289.4,124.85,270.36,141.54,253,141.54Zm10.1-77.88c-5.9,0-11.67,1.1-15.5,2.83-12.75,5.73-21.51,21-21.8,38.08-.25,15,6.33,27.29,17.59,32.82,18.05,8.84,43.3-12,51.78-25.68l.23-.38c-5.15,1.24-14.79,1.11-14.92,1.1-4-.1-12.71-3-14.23-7.31-.47-1.31-.5-3.33,2-5.47h0a57,57,0,0,1,5.63-4.1C278,92.79,282,90.18,284,85.15c2.66-6.66,2-12-1.91-15.71C277.73,65.3,270.33,63.66,263.13,63.66Z" style="fill:#fff"/></g></g></svg>