<svg xmlns="http://www.w3.org/2000/svg" viewBox="0 0 398.43 303.03"><title>Green-Dragon_1</title><g id="b989ea56-f98a-42e1-af3a-7babfa6c994b" data-name="Layer 2"><g id="a7941d8f-9765-4b53-9f8a-a60c8b145a12" data-name="Layer 1"><circle cx="288.55" cy="134.06" r="5.6" style="fill:#19a511"/><path d="M35.53,226.91s37.77-40.44-11.11-49.32c0,0,68-39.56,52.43-72.44,0,0,56,4.89,61.33-40,0,0,52.44,7.56,63.11-22.22,0,0,48.88,36.89,64.43,26.67,0,0,15.11,16.44,32,10.22l-8.44,33.77L101.74,221.14Z" style="fill:#90a13b"/><path d="M33,228.14l1.77-1.91c.18-.19,17.54-19,12.86-33.13-2.41-7.25-10.28-12.14-23.41-14.53l-2.67-.49,2.34-1.36c.67-.39,67-39.46,52-71.14L75.21,104l1.73.15A85.3,85.3,0,0,0,105.28,101c19-5.71,29.75-17.81,31.91-36l.12-1,1,.14c.52.08,51.76,7.1,62-21.56l.46-1.28,1.09.81c.48.37,48.49,36.35,63.28,26.63l.71-.47.58.63c.15.16,14.86,15.88,30.91,10l1.78-.65-9,36-.37.21L102.05,222.11l-.22,0Zm-5.87-51c12.38,2.7,19.91,7.86,22.4,15.37,4.18,12.65-7.2,27.92-11.64,33.22l63.52-5.54,187-107.22,7.9-31.61c-14.74,4.17-27.88-7.66-30.75-10.47a14.1,14.1,0,0,1-6.8,1.5c-18.28,0-50.59-23.1-57-27.84-11,26.87-55.22,22.67-62.71,21.76-2.51,18.23-14,30.9-33.24,36.66a87.53,87.53,0,0,1-27.38,3.31C90.32,136.17,38.84,169.92,27.15,177.11Z" style="fill:#fff"/><path d="M388.39,129.8l-14.67-18.64s.65,41.33-27.34,24.65S327.71,104.48,313,92.49c0,0,2.69,24.65-3.32,18a20,20,0,0,0-5.24-3.94c-10.77-6.05-4.75-25-3.79-35.27-6.3,13.1-5.33,23.73-21.2,17-17.75-7.54.42-30.62-20-51.95.39,1.48,9.55,37,.42,43.08-6.58,4.38-25.15,3.44-35.49,2.53a9.74,9.74,0,0,1-8.61-7.34C212.6,61.79,203.15,32.91,180,11.4c1,1.62,37.6,60.13,27.52,71.54-6.66,7.49-21.54,11.43-31.17,13.29a12.73,12.73,0,0,1-13.16-5.57C148.87,67.85,140,59.86,105,37.72c3.21,2.53,55.38,44.46,53.21,63C156.7,113.46,144,124.81,135.63,131a10.93,10.93,0,0,1-13.42-.34C105.63,117.16,85.3,95.36,37.31,98c0,0,55.53,4,81.77,44.46,0,0,.89,18.2-11.57,26.21,0,0-58.22-18.22-96.88,13.76,0,0,55.19-21.07,83.36-5.56a10.74,10.74,0,0,1,5.56,10.18l-.81,11.62a10.26,10.26,0,0,1-8,9.3c-19.27,4.2-69.79,17.15-80.55,39.37,0,0,51.57-35.56,74.67-17.34s37.55,71.88,98.43,71c0,0-18.22-109.86,39.09-86.55-.63,0,.7,15.43,1.17,16.68,4.83,12.77,18.8,14.91,30.94,13.58,7.6-.84,14.93-3,22.14-5.51,11.07-3.84,19.61-8.54,31.12-3.29,5.07,2.32,23.13,11.52,13.32,18.54-14,10-18,10-18,10l16,2-15.33,14s45.32.65,67.33-40.67l-12.66.67S369,225.8,369,221.13s-3.34,6.68-16,8.67,2-4.65-4-17.34c0,0-13.31,18.67-30.65,8.67-14.42-8.32-23.3-23.81-31.18-37.9-7.1-12.71-17.4-30.66-35.47-24.08.37-.14,1.37-2.23,1.7-2.61a13.65,13.65,0,0,1,7.2-4c14.41-3.39,24.58,5.88,35.92,12.37,10.68,6.11,24.92,3.23,35.83-.48,31.33-10.65,35.32,4.68,35.32,4.68l-10.65,6.65,18-6-6,10S414.37,177.81,388.39,129.8Zm-114.72,3.07c17.81-24.11,29.31,9.2,29.31,9.2C282.31,145.51,273.67,132.87,273.67,132.87Z" style="fill:#56742d"/><path d="M180,11.4c23.16,21.51,32.61,50.39,35.85,63.18a9.74,9.74,0,0,0,8.61,7.34c4.33.38,10.09.77,15.81.77,8,0,15.85-.75,19.68-3.3,9.13-6.11,0-41.6-.42-43.08,20.39,21.33,2.22,44.41,20,52a21.56,21.56,0,0,0,8.1,2.09c7.69,0,8.14-8.78,13.1-19.08-1,10.23-7,29.22,3.79,35.27a20,20,0,0,1,5.24,3.94c.72.79,1.31,1.14,1.8,1.14,3.61,0,1.52-19.13,1.52-19.13,14.67,12,5.35,26.66,33.34,43.32,4.7,2.8,8.59,4,11.82,4,16,0,15.52-28.61,15.52-28.61l14.67,18.64c26,48-19.35,50-19.35,50l6-10-18,6,10.65-6.65s-2.2-8.44-16.14-8.44c-4.84,0-11.1,1-19.18,3.76-6.33,2.15-13.78,4-21,4A29.62,29.62,0,0,1,296.56,165c-9.67-5.54-18.49-13.09-29.82-13.09a26.45,26.45,0,0,0-6.1.72,13.65,13.65,0,0,0-7.2,4c-.33.38-1.33,2.47-1.7,2.61a21.77,21.77,0,0,1,7.49-1.41c13.54,0,21.93,14.65,28,25.49,7.88,14.09,16.76,29.58,31.18,37.9a20.53,20.53,0,0,0,10.36,2.94c12,0,20.29-11.61,20.29-11.61,5.3,11.19-5.49,17.69.58,17.69a24.28,24.28,0,0,0,3.42-.35c10.54-1.66,14.62-9.78,15.69-9.78.22,0,.31.33.31,1.11,0,4.67-10.65,19.34-10.65,19.34l12.66-.67c-21.33,40.06-64.58,40.67-67.2,40.67h-.13l15.33-14-16-2s4,0,18-10c9.81-7-8.25-16.22-13.32-18.54a24.37,24.37,0,0,0-10.29-2.33c-6.93,0-13.29,3-20.83,5.62-7.21,2.48-14.54,4.67-22.14,5.51a55.42,55.42,0,0,1-6.07.34c-10.41,0-20.83-3.24-24.87-13.92-.47-1.25-1.8-16.68-1.17-16.68a38.76,38.76,0,0,0-14.49-3.25c-39.49,0-24.6,89.8-24.6,89.8h-1.49c-59.62,0-74-52.93-96.94-71-4.71-3.72-10.61-5.2-17-5.2-25,0-57.66,22.54-57.66,22.54C20.94,225.15,71.46,212.2,90.73,208a10.26,10.26,0,0,0,8-9.3l.81-11.62A10.74,10.74,0,0,0,94,176.9c-7.58-4.17-17.11-5.7-27-5.7-26.87,0-56.36,11.26-56.36,11.26,18.07-15,40.41-18.93,59.09-18.93a140,140,0,0,1,37.79,5.17c12.46-8,11.57-26.21,11.57-26.21C92.84,102.05,37.31,98,37.31,98q4.06-.23,7.88-.23c42.4,0,61.38,20.12,77,32.81a11,11,0,0,0,6.94,2.47,10.84,10.84,0,0,0,6.48-2.13c8.33-6.14,21.07-17.49,22.56-30.23,2.17-18.54-50-60.47-53.21-63,35,22.14,43.89,30.13,58.2,52.94a12.61,12.61,0,0,0,10.71,5.8,13.63,13.63,0,0,0,2.45-.23c9.63-1.86,24.51-5.8,31.17-13.29C217.59,71.53,181,13,180,11.4M296.06,142.67a41.34,41.34,0,0,0,6.92-.6s-6.2-18-16.55-18c-3.74,0-8,2.35-12.76,8.76,0,0,6.69,9.8,22.39,9.8M170.66,0l7.63,12.44.12.21c2.47,4,11.08,18.15,18.24,32.84,13.25,27.17,11,34.31,9.36,36.12-6.4,7.21-21.58,11-30,12.65a11.08,11.08,0,0,1-2.07.2,10.56,10.56,0,0,1-9-4.87C150.4,66.52,141.6,58.51,106.05,36l-2.31,3.26a374.18,374.18,0,0,1,28.45,25.34c16.29,16.22,24.82,29,24,35.85-1.42,12.22-14.24,23.32-21.75,28.86a9,9,0,0,1-11-.28c-1.62-1.31-3.25-2.69-5-4.15C103.9,112.63,83.91,95.8,45.19,95.8c-2.6,0-5.29.08-8,.23l0,4a131.37,131.37,0,0,1,30.63,7c15.22,5.38,36.06,16,49.3,36.08,0,2.84-.44,16.65-9.91,23.42a143.25,143.25,0,0,0-37.46-5c-24.5,0-44.81,6.52-60.37,19.39L0,188.66l11.34-4.33c.29-.11,29.47-11.13,55.65-11.13,10.71,0,19.47,1.84,26,5.45a8.81,8.81,0,0,1,4.53,8.3l-.81,11.61A8.22,8.22,0,0,1,90.3,206c-21,4.57-70.88,17.67-81.92,40.46l-3.3,6.81,6.24-4.3c.32-.22,32.46-22.18,56.52-22.18,6.46,0,11.76,1.61,15.77,4.77,6.39,5,12.32,13.18,18.59,21.8C118.3,275.51,138.32,303,181.79,303h1.52l2.32,0-.38-2.3c-.09-.59-9.69-60,7.83-80.63a18.39,18.39,0,0,1,14.8-6.84,35.65,35.65,0,0,1,12.32,2.55c0,1.32.09,3.45.37,7,.15,1.82.66,7.87,1.1,9.05,3.77,9.95,13,15.21,26.74,15.21a59.5,59.5,0,0,0,6.29-.35c8.13-.9,16-3.34,22.57-5.61,1.57-.54,3.09-1.1,4.55-1.64,5.63-2.08,10.48-3.87,15.63-3.87a22.44,22.44,0,0,1,9.46,2.15c7.22,3.31,14.66,8.28,15,11.9,0,.41.15,1.63-2,3.19-12.77,9.13-16.79,9.62-17,9.63H303l-.25,4,11.71,1.47L302.37,279l-3.72,3.39,5,.08h.16A84,84,0,0,0,331.13,277a77,77,0,0,0,41.69-36.29l1.66-3.13-3.53.19-8.56.46c3.36-4.92,8.65-13.29,8.65-17.13,0-2.81-1.61-3.11-2.31-3.11h0c-1.17,0-1.89.8-3,2-2.06,2.33-5.9,6.66-13,7.78-1.12.18-2,.28-2.66.32.1-.24.21-.49.31-.71,1.35-3,3.86-8.67.47-15.83l-1.46-3.08-2,2.78c-.08.1-7.86,10.77-18.67,10.77a18.62,18.62,0,0,1-9.36-2.68c-14.27-8.23-23.23-24.26-30.43-37.14-5.9-10.56-14.82-26.51-29.73-26.51-.54,0-1.09,0-1.63.07a14.39,14.39,0,0,1,3.5-1.28,24.4,24.4,0,0,1,5.64-.67c8.27,0,15.18,4.35,22.49,9,2.06,1.29,4.18,2.63,6.34,3.86a31.46,31.46,0,0,0,15.82,3.82c6.3,0,13.58-1.39,21.64-4.13,7.14-2.43,13.38-3.66,18.54-3.66,8.92,0,12.37,3.65,13.6,5.67L356,174.11,341.72,183l16-5.33,12.86-4.29-3.22,5.36L365.41,182l3.72-.16c.77,0,18.86-1,26.27-14.06,5.36-9.45,3.59-22.54-5.25-38.89l-.08-.15-.11-.14-14.67-18.64-3.66-4.65.09,5.92c0,.17.16,16.76-6.67,23.69a9.18,9.18,0,0,1-6.85,2.89c-3.06,0-6.69-1.24-10.8-3.68-16-9.54-19.25-18.12-22.38-26.42-2.23-5.92-4.34-11.52-10.71-16.73l-3.79-3.09.53,4.86c.76,7,.78,13.88.12,16.38a22.06,22.06,0,0,0-5.73-4.3c-7.4-4.16-5.39-16.42-3.77-26.27.42-2.56.81-5,1-7.07l1.05-11.12L298.89,70.4c-1.38,2.87-2.42,5.63-3.34,8.06-2.53,6.68-3.92,9.89-8,9.89a19.79,19.79,0,0,1-7.32-1.93c-7.41-3.15-7.56-9.44-7.76-18.15-.22-9.71-.5-21.79-11.55-33.35l-5.35-5.59,2,7.48c3.61,13.73,7.14,37,1.24,40.91-2,1.35-6.89,3-18.56,3-4.66,0-9.92-.26-15.63-.76a7.77,7.77,0,0,1-6.85-5.84c-3-11.92-12.61-42-36.43-64.16L170.66,0ZM277,132.8c3.32-4.06,6.49-6.11,9.43-6.11,5.72,0,10.51,7.92,12.91,13.25-1.12.09-2.21.14-3.28.14-10.64,0-16.68-4.83-19.06-7.28Z" style="fill:#fff"/></g></g></svg>