<svg xmlns="http://www.w3.org/2000/svg" viewBox="0 0 282.88 350.74"><title>Grick</title><g id="a8eda79a-f15f-466b-9f54-cd7a3ebe6f07" data-name="Layer 2"><g id="a7560e7b-03d2-4e06-b476-a5e74deb6cb1" data-name="Layer 1"><path d="M282.68,124.82a64.91,64.91,0,0,1-4.8,19.9c-15.67,37.7-52.22,65.41-81.71,91.91-15.88,14.27-69.33,55.26-33,75.42,27.33,15.19,3.31,29.74-16.29,34.57-10.82,2.67-22.17,4.46-33.06,2.07-52.4-11.51-48.13-98.63-9.2-123,56.63-35.52,105.6-51.84,105.6-51.84s45.12-18.25,19.19-63.37c-13.5-23.5-25.44-32.15-33.78-35-4.35,2.63-7.15,6.78-7.49,13-1.93,33.61-25,50.89-53.77,34.57,0,0-52.8-39.36-9.6-74.88,21.43-17.63,52-22,78.71-17.1C245,38.59,286.11,81.13,282.68,124.82Z" style="fill:#696a41"/><path d="M37.61,281.73l-3.2-5.12s-5.12,10.56-7.68-2.88c0,0-8,4.48-4.48-20.8,0,0-36.76,32.6,16,52.12l24.92-9.88Z" style="fill:#c6c6c6"/><path d="M230,308.21s5.76,20.16-17.92,5.12c0,0-8.64,11.52-27.52-3.52,0,0-.64,44.48,65.92,7.36L254,290.61Z" style="fill:#c6c6c6"/><path d="M204.33,10.7s-4.8,4.48-4.8,8c0,0-4.8-12.48-9.6,2.88,0,0-15.68-12.16-23.68,24,0,0-9.28-29.76,6.4-40,0,0,9.94,4.78,14.9-4l15.82.5Z" style="fill:#c6c6c6"/><path d="M30.61,60.58l-2,3.88S17.77,56.14,21,71.82c0,0-13.44-10.56-12.48,16.32,0,0-26.56-26.26,15-45.14l21.76,7.06Z" style="fill:#c6c6c6"/><path d="M203.45,115.25c-12,13.92,8.16,36.64,8.16,36.64l0,0-.07,0a2.63,2.63,0,0,1-.23.16l-.18.11a1.08,1.08,0,0,1-.18.11c-2,1.27-7,4.37-12.88,4.37-5.51,0-12.26-2.45-14.75-12.65-3.74-15.22-15.32-20.59-23-22.48l0-.08s-1.92-12,36-58.07-8.7-61.86-8.7-61.86c20.16-5.4,36.1,3.51,44,22.78a88.18,88.18,0,0,1,5.27,21.13c2.08,14.86-5.93,27-13,39.36C217.77,95.34,211.37,106.07,203.45,115.25Z" style="fill:#635558"/><path d="M140.73,122.62s-6.08,3.52-14.08-16.64S78.13,25.7,22.45,43.3c0,0,16.48,5.44,8.16,17.28,0,0,17-6.44,30.44,10.84s24.64,70.08,64.32,89Z" style="fill:#635558"/><path d="M138.49,167.74s6.72,13.76-17,17.28S87.29,234.3,87.29,234.3s-10.24,48.63-50.88,48.63c0,0,18.2,16,1.88,22.12,0,0,46.44,7,74-29.16s30.4-50.23,30.4-50.23l12.8-46.72Z" style="fill:#635558"/><path d="M250.49,317.17a12.12,12.12,0,0,0-1.16-5.56h0l-.08-.16c-.1-.19-.2-.37-.31-.54s-.2-.3-.31-.44l-.21-.29a5.87,5.87,0,0,0-.41-.46c-.15-.16-.3-.31-.47-.46a6.23,6.23,0,0,0-.7-.57l-.51-.34-.54-.31a11.82,11.82,0,0,0-1.1-.48,3,3,0,0,0-.42-.15c-.24-.09-.49-.16-.73-.23L243,307l-.54-.11-.35-.05-.51-.08c-.43,0-.85-.08-1.28-.1l-.51,0h-.51c-.9,0-1.78.06-2.63.14l-.77.1c-.16,0-.31,0-.46.06l-.67.11A35.16,35.16,0,0,0,230,308.2c1.5-3.72,2.79-7.27,3.91-10.67.28-.81.53-1.62.78-2.42.54-1.7,1-3.36,1.45-5,.31-1.12.59-2.22.85-3.29.16-.62.3-1.23.43-1.85.25-1.1.48-2.2.69-3.26,0-.16.05-.31.08-.46.36-1.9.64-3.72.87-5.47a1.24,1.24,0,0,1,0-.27c.26-2.19.43-4.27.49-6.24a52.36,52.36,0,0,0-.24-7.34,38.94,38.94,0,0,0-.8-4.72c-.27-1.1-.58-2.14-.91-3.11a25.37,25.37,0,0,0-1.6-3.6c-.14-.27-.3-.53-.46-.78a18.48,18.48,0,0,0-1.53-2.16,16.58,16.58,0,0,0-1.11-1.24,14.83,14.83,0,0,0-7.42-4.07q-.71-.15-1.38-.33c-.34-.08-.67-.18-1-.28l-.22-.06c-.31-.09-.61-.18-.91-.29l-.29-.1c-.34-.11-.67-.24-1-.36s-.55-.2-.81-.32c-.47-.19-.92-.39-1.38-.6l-1-.5-1.12-.58c-.29-.16-.58-.32-.86-.49l-.49-.29c-.23-.12-.45-.26-.67-.4l-.68-.44-.65-.44c-.55-.37-1.07-.74-1.58-1.13l-.65-.49c-.64-.5-1.24-1-1.8-1.49l-1-.94-.1-.1-1.06-1c-.65-.67-1.2-1.26-1.62-1.74-.25-.28-.45-.52-.61-.72-.33-.4-.5-.63-.5-.63l0-.15c0-.2-.07-.39-.12-.57-4-19-17.09-15-17.09-15l-1.22-11.78h0L184,185.13l-.2-1.95-.8-7.77S198,163.5,204,160.26c2.33-1.27,3.27-1.21,1.38,1.4a13,13,0,0,0-1.78,3.36c-.06.16-.11.33-.16.49a4.1,4.1,0,0,0-.14.5c0,.19-.09.37-.13.55l-.09.45-.06.5a10.34,10.34,0,0,0-.1,1.46,9.1,9.1,0,0,0,0,.91,8.73,8.73,0,0,0,.1.91h0a6,6,0,0,0,.15.85,17,17,0,0,0,1,3.16l.06.14h0a.19.19,0,0,0,0,.08,7.41,7.41,0,0,0,.31.7l0,.09,0,.05.4.79h0c.12.25.25.48.38.72a.41.41,0,0,1,.07.11c.38.68.77,1.31,1.16,1.91.16.22.3.44.45.65s.18.27.27.39c.9,1.29,1.72,2.3,2.16,3a1.37,1.37,0,0,0,.16.18,1.66,1.66,0,0,0,.24.18l.24.11a2.08,2.08,0,0,0,.3.12,10.54,10.54,0,0,0,1.32.33l.34.07a62.09,62.09,0,0,1,7.74,1.73c.24.06.48.14.72.22l1.26.43.55.2a48.32,48.32,0,0,1,8.24,4c.32.18.64.38,1,.59.77.49,1.56,1,2.36,1.57.41.27.81.56,1.21.87,1,.71,2,1.47,3,2.3l.71.58v0l.7.59c.25.21.49.42.74.65l1.27,1.15q1.84,1.69,3.76,3.7c.38.39.76.8,1.14,1.22,1.22,1.3,2.44,2.69,3.68,4.17l1,1.25c1.51,1.86,3,3.85,4.59,6,.22.29.43.59.65.89,1.11,1.57,2.24,3.22,3.37,4.95C286.65,262.45,250.49,317.17,250.49,317.17Z" style="fill:#635558"/><path d="M162.65,137.34,131,146l1,19.68s21.12,3.32,5.28,40.76l16.32,13.48L179,208.38l12-40.8Z" style="fill:#8c1511"/><path d="M183.29,144.06c-5.76-23.52-30.24-23.52-30.24-23.52-47.52,2.4-24,52.32-24,52.32l9.12-20.16,2.88,2.88,3.36-6.72,5.76,2.4c5.76-6.72,12-2.4,12-2.4,33.12,7.2,13.92,51.36,7.2,58.08s-8.64,0-8.64,0c-17.67,12.85-23.59-3.52-25.44-7.2,1.46,2.83,0,9.79.79,13.31a26.36,26.36,0,0,0,3.67,9.12,19.79,19.79,0,0,0,12.37,8.31c13.12,2.89,27.83-7,34.73-17.64,1.85-2.86-.19-4.94.2-8.52.8-7.48,4.17-14.87,7.28-21.62a260.51,260.51,0,0,1,17.28-30.8S189.05,167.58,183.29,144.06Z" style="fill:#824e26"/><path d="M236.63,44.41c-.06-.37-.11-.76-.18-1.13a83.46,83.46,0,0,0-4.94-18.94C225.17,8.81,213.59,0,198.78,0a43.34,43.34,0,0,0-11.23,1.56c-2.46,4.36-5.91,5.16-9.08,5.16a15.94,15.94,0,0,1-5.81-1.15c-8.26,5.39-9.59,16.19-9,25.21-14.22,2.56-27.79,8.15-38.91,17.28-11.39,9.37-16.11,19-16.87,28.12l-.85-1C92,57.46,69.59,40.08,42.47,40.07a65.85,65.85,0,0,0-20,3.23C-17.94,62.16,8.5,88.13,8.5,88.13c-.54-15,3.44-18.35,7-18.35a10.14,10.14,0,0,1,5.43,2c-1.55-7.61.22-9.56,2.43-9.56,2.37,0,5.25,2.2,5.25,2.2l2-3.89a33.66,33.66,0,0,1,8.08-.81c6.29,0,15,2.14,22.36,11.66C74.43,88.61,85.58,141,124.77,160.07a70.88,70.88,0,0,0,4.28,12.78l3.22-7.13a13.18,13.18,0,0,1,6.93,4.44c.73,4.1-.22,12.26-17.67,14.86-23.68,3.51-34.23,49.26-34.23,49.27-.28,1.18-.58,2.34-.92,3.5a86.52,86.52,0,0,1-3.13,8.83,80.74,80.74,0,0,1-5.87,11.54A61.86,61.86,0,0,1,68.2,269.8a46.25,46.25,0,0,1-13,9.12,43.08,43.08,0,0,1-7.42,2.64c-1.35.33-2.7.61-4.07.82-1.93.3-4,1-5.66-.43A12.25,12.25,0,0,1,35.92,279c-.49-.81-1-1.62-1.51-2.43,0,0-1.91,3.95-4,3.95-1.32,0-2.7-1.6-3.7-6.83a2.83,2.83,0,0,1-1.29.31c-2.1,0-5.79-2.44-3.18-21.11,0,0-36.77,32.6,16,52.12a23.33,23.33,0,0,0,7.86,1,96.65,96.65,0,0,0,28.61-4.3c.14,1,.29,2,.46,2.95,4.17,24.08,18.16,40.43,38.36,44.87a50.73,50.73,0,0,0,11,1.13,94.88,94.88,0,0,0,22.48-3.21c13.67-3.37,28-10.86,29.21-20,.77-5.71-3.5-11.19-12.69-16.29-7.21-4-11.17-9.12-11.8-15.21-1.87-18.08,25.2-41.51,39.75-54.09,2-1.75,3.8-3.28,5.26-4.6,2.76-2.47,5.55-4.94,8.41-7.44.42.48,1,1.07,1.62,1.74.32.33.67.67,1.06,1l.1.1c.33.31.68.62,1,.94.56.49,1.16,1,1.8,1.49l.65.49c.51.39,1,.76,1.58,1.13l.65.44.68.44c.22.14.44.28.67.4l.49.29c.28.17.57.33.86.49l1.12.58,1,.5c.46.21.91.41,1.38.6.26.12.53.22.81.32s.65.25,1,.36l.29.1c.3.11.6.2.91.29l.22.06c.32.1.65.2,1,.28s.91.23,1.38.33a14.83,14.83,0,0,1,7.42,4.07,16.58,16.58,0,0,1,1.11,1.24,17.37,17.37,0,0,1,1.53,2.16c.16.25.32.51.46.78a24.29,24.29,0,0,1,1.6,3.6,30.9,30.9,0,0,1,.91,3.11,37.08,37.08,0,0,1,.8,4.72,52.36,52.36,0,0,1,.24,7.34c0,2-.22,4.05-.49,6.24a1.24,1.24,0,0,0,0,.27c-.22,1.75-.5,3.57-.87,5.47,0,.15-.06.3-.08.46-.2,1.06-.44,2.16-.69,3.26-.13.62-.27,1.23-.43,1.85-.26,1.07-.54,2.17-.85,3.29-.43,1.6-.91,3.26-1.45,5-.24.8-.5,1.61-.78,2.42-1.12,3.4-2.41,7-3.91,10.67h0s3.06,10.7-4.43,10.7c-2.79,0-7.05-1.49-13.49-5.57a12.55,12.55,0,0,1-9.84,4.21c-4.37,0-10.22-1.8-17.68-7.74,0,0-.32,22.15,22.87,22.15,9.69,0,23.46-3.86,43.05-14.79,0,0,36.16-54.72,9.28-95.67-1.13-1.73-2.26-3.38-3.37-4.95-.22-.3-.43-.6-.65-.89-1.55-2.15-3.08-4.14-4.59-6l-1-1.25c-1.24-1.48-2.46-2.87-3.68-4.17-.38-.42-.76-.83-1.14-1.22q-1.92-2-3.76-3.7l-1.27-1.15c-.25-.23-.49-.44-.74-.65,15.87-15.66,30-32.82,38.33-52.8a64.91,64.91,0,0,0,4.8-19.9C285.17,93.12,264.22,62,236.63,44.41ZM198,1.89h.74c1,0,1.93,0,2.88.12l1.71.06,0,.14c11.72,1.64,21,9.6,26.38,22.85A79.06,79.06,0,0,1,234.34,42c.06.37.13.74.19,1.13s.13.84.18,1.28.13.75.18,1.12l0,.22c1.81,12.93-4.38,23.61-10.92,34.93-.63,1.08-1.25,2.16-1.87,3.24-1.25,2.2-2.56,4.48-3.92,6.78-.17.3-.35.59-.54.89s-.33.57-.5.85l-.52.86A152.34,152.34,0,0,1,202,114c-11.05,12.84,1,33.07,5.63,38.83-2.45,1.41-5.82,3.69-10.39,3.69-6,0-11.37-3.36-13.29-11.21-2.53-10.34-7.6-16.25-12.94-19.66-.29-.2-.59-.38-.88-.56s-.63-.37-1-.53-.67-.36-1-.52a29.19,29.19,0,0,0-5-1.93c.68-3.92,4.26-20.72,34.53-57.51,8.7-10.59,13.71-20.43,15-29.43.05-.31.09-.62.13-.93s.07-.66.1-1,0-.64,0-.95a28.85,28.85,0,0,0-1-9.45,30.23,30.23,0,0,0-7.66-12.83c-.69-.72-1.4-1.38-2.12-2A43.48,43.48,0,0,0,196,3.56c-.81-.5-1.6-.94-2.33-1.32A39.28,39.28,0,0,1,198,1.89Zm4.91,168a9.1,9.1,0,0,1,0-.91,10.34,10.34,0,0,1,.1-1.46l.06-.5.09-.45c0-.18.08-.36.13-.55s.08-.33.14-.5.1-.33.16-.49c2.59-4.48,5.28-8.87,8-13.11l0,0s-20.15-22.72-8.16-36.64A152.28,152.28,0,0,0,217.9,94.84c.18-.28.35-.57.52-.85a137.26,137.26,0,0,1,11,16.47c25.93,45.12-19.19,63.36-19.19,63.36s-2,.66-5.57,2l0-.09a7.41,7.41,0,0,1-.31-.7.19.19,0,0,1,0-.08.91.91,0,0,1-.07-.14,17,17,0,0,1-1-3.16,6.6,6.6,0,0,1-.15-.85h0A9,9,0,0,1,203,169.88Zm8.14-138.1-.05,1c-2.52-.72-5.06-1.32-7.6-1.79a115.21,115.21,0,0,0-20.6-1.87,109.3,109.3,0,0,0-11.29.58c4.09-8,8.71-10,12.29-10a10.85,10.85,0,0,1,6.09,2c1.83-5.84,3.66-7.66,5.22-7.66,2.54,0,4.38,4.79,4.38,4.79,0-2.46,2.35-5.39,3.75-6.93A26.94,26.94,0,0,1,211.09,31.78ZM172.92,7.68a18,18,0,0,0,5.55.92,12,12,0,0,0,10.4-5.4l2.77.14A43.9,43.9,0,0,1,202,10.44a23.17,23.17,0,0,0-2.85,3.77A5.32,5.32,0,0,0,195.15,12c-3.08,0-5,3.44-6.27,6.81a12.37,12.37,0,0,0-5-1.11c-4.36,0-9.87,2.44-14.48,12.18-.3.63-.61,1.3-.9,2-.72,1.72-1.42,3.64-2.08,5.77-.28-1.61-.54-3.43-.71-5.34-.06-.62-.11-1.25-.15-1.88C165,22.27,166.16,12.7,172.92,7.68Zm-47,41.83c10.24-8.42,23.3-14.19,37.87-16.85a71.43,71.43,0,0,0,2.45,12.92,72.74,72.74,0,0,1,4.36-13.93A109.08,109.08,0,0,1,182.84,31a111.87,111.87,0,0,1,20.26,1.85q3.89.72,7.75,1.83c-1,7.89-5.25,17.42-14.6,28.78-37.92,46.08-36,58.07-36,58.07l0,.08a33.22,33.22,0,0,0-7.23-1,47.63,47.63,0,0,0-12.34,2.1h-.06a2.47,2.47,0,0,1-.39.13s0,0,0,0a2.87,2.87,0,0,1-.65.07c-2.14,0-7-1.94-12.94-16.89-2.55-6.41-8.41-16.89-17-27.62C109.81,68,115.29,58.26,125.93,49.51ZM32.55,56.73l-2.42,1.71-.34.24-.21.36L28,61.8a10,10,0,0,0-4.6-1.42A4.41,4.41,0,0,0,19.87,62c-1.12,1.38-1.55,3.46-1.3,6.45a9.53,9.53,0,0,0-3-.53,6.93,6.93,0,0,0-5.09,2.17c-2.27,2.36-3.53,6.49-3.82,12.56C4,78.64,1,72.22,2.34,65.27c1.56-8.21,8.71-15.34,21.27-21.18l2.56.94C29.75,47.07,34.31,50.92,32.55,56.73Zm91.71,101c-26-13.47-39.47-42.7-49.34-64.18-4.43-9.66-8.27-18-12.38-23.29C54.57,60,45.17,57.88,38.69,57.88a28.8,28.8,0,0,0-4.88.4l-.17,0a11.22,11.22,0,0,0,.62-2.78,10.4,10.4,0,0,0-.41-3.92,12.6,12.6,0,0,0-2.92-4.84,19.66,19.66,0,0,0-2.44-2.17c-.38-.29-.76-.55-1.13-.8A63.81,63.81,0,0,1,42.47,42c23.84,0,43.12,14,55.1,25.8a136.78,136.78,0,0,1,9.25,10.08l.92,1.14,1,1.19c.35.43.68.87,1,1.3,8.12,10.48,13.14,20.08,15.18,25.21a67.08,67.08,0,0,0,4.61,9.6,31.9,31.9,0,0,0,2.16,3.24,14.47,14.47,0,0,0,5.25,4.62,1.33,1.33,0,0,0-.21.09c-.35.17-.7.34-1,.53C122.37,131.87,122.06,146.47,124.26,157.73Zm7.52,4.56-2.63,5.79a72.72,72.72,0,0,1-2.86-10c-.24-1.11-.45-2.27-.62-3.45-1-6.89-.86-14.62,2.81-20.74a20.7,20.7,0,0,1,8.84-7.92l.49-.22c.38-.18.75-.35,1.14-.51l.82-.33.43-.16q.65-.24,1.32-.45a46.29,46.29,0,0,1,11.57-1.94,34.49,34.49,0,0,1,8.82,1.56,33.86,33.86,0,0,1,3.48,1.28l.15.08,1.15.53c.35.17.71.36,1.06.55s.67.36,1,.56c6.54,3.81,10.81,9.7,12.72,17.53,2.95,12,10,14.53,15.4,14.53a21.83,21.83,0,0,0,5-.64,28.85,28.85,0,0,0,4-1.31c-.63,1-1.26,2.12-1.88,3.18s-1.32,2.25-2,3.38q-4.34,7.62-8,15.28c-.21.41-.39.82-.59,1.23s-.39.84-.58,1.26l-.24.51c-.11.24-.23.49-.34.75a104.9,104.9,0,0,0-5.39,13.38,48.17,48.17,0,0,0-1.27,5h0c-.19,1-.34,2-.45,3.06a25.25,25.25,0,0,0-.11,3.38c0,2,0,3.25-.91,4.7-5.46,8.42-16,16.92-27.16,16.92a20.75,20.75,0,0,1-4.47-.48,18,18,0,0,1-9.3-5.13,17.46,17.46,0,0,1-1.46-1.74c-.16-.21-.31-.43-.46-.65a24.27,24.27,0,0,1-3.4-8.49,19.43,19.43,0,0,1-.18-4.09c0-.36,0-.72,0-1.08,0-.08,0-.16,0-.24s0-.22,0-.33,0-.36,0-.52c.23.23.45.47.7.7s.46.45.7.68a19.83,19.83,0,0,0,5.42,3.56,17,17,0,0,0,1.78.63c.21.07.43.12.65.18a14.73,14.73,0,0,0,3.57.44,18,18,0,0,0,9.41-2.9,5.08,5.08,0,0,0,4.11,2.14c2,0,4.17-1.16,6.55-3.54s6.45-9.44,9.18-17.94c.29-.87.57-1.8.84-2.75.1-.38.21-.77.3-1.16s.2-.77.29-1.17.18-.74.26-1.12c1.42-6.29,2.08-13.74.1-20.51a24,24,0,0,0-2.75-6.15,21.33,21.33,0,0,0-5.36-5.73,28.32,28.32,0,0,0-10.66-4.64A10.63,10.63,0,0,0,149.69,149l-4.56-1.9-1.61-.67-.78,1.56-2.2,4.39-1-1-1.92-1.92-1.12,2.47-3,6.61Zm2,1.79-.07-1.43,4.51-10,2.87,2.89,3.36-6.72,5.76,2.39c2.52-2.93,5.13-3.76,7.28-3.76a9,9,0,0,1,4.72,1.37c19.6,4.25,20.87,21.48,17.24,36.2-.08.38-.17.76-.27,1.12s-.21.8-.32,1.2-.23.78-.35,1.17c-2.63,8.68-6.67,16-9.09,18.39-2.25,2.24-3.95,3-5.23,3-2.57,0-3.41-3-3.41-3-3.74,2.71-7.12,3.74-10.11,3.74a23.07,23.07,0,0,1-3.81-.23A9.43,9.43,0,0,1,145,210a2.6,2.6,0,0,1-.36-.13,13.85,13.85,0,0,1-4-2.87c-.24-.23-.49-.46-.74-.66l-.45-.39c.07-.19.16-.38.23-.57.18-.45.36-.89.52-1.34,4.82-12.48,6-23.44,3.54-30.57a14.78,14.78,0,0,0-1.43-3.08,1.5,1.5,0,0,0-.15-.23A14,14,0,0,0,133.74,164.08Zm-91,137a6.67,6.67,0,0,1-4.06,1.22c-1.81-.22-3.8-1.45-5.44-2.19-1.89-.85-3.74-1.79-5.55-2.8a43.46,43.46,0,0,1-8.59-6.16,21.56,21.56,0,0,1-6.73-11.45c-1.61-8.53,3.55-16.66,7.38-21.32-.71,8.17,0,13.39,2.18,15.87a4.55,4.55,0,0,0,3.36,1.67c.78,3.19,2.18,6.52,5.15,6.52a5.42,5.42,0,0,0,4-2.3c-.23.28,2.29,3.05,2.6,3.36,1.13,1.17,2.23,2.23,3.27,3.49C43,290.26,48.12,297.86,42.73,301.08Zm31.8-1.14a94.91,94.91,0,0,1-28.38,4.27c-.85,0-1.66,0-2.4,0a8.9,8.9,0,0,0,1.47-1.87,8.51,8.51,0,0,0,1.07-2.69l0-.13c1-4.77-2-10-4.76-13.56-.35-.46-.69-.89-1-1.28.73-.06,1.46-.14,2.17-.24,14.55-1.88,26.9-10.35,36-24.79l.52-.85A85.19,85.19,0,0,0,86.68,243a71.66,71.66,0,0,0,2.45-8.24c.1-.45,10.53-44.55,32.68-47.84,9.46-1.41,15.56-4.61,18.13-9.5a11.1,11.1,0,0,0,1.24-4.13c2.7,5.59,3.35,15.23-3.38,31.73-1-1.73-2.51-5.24-2.51-5.24a33.83,33.83,0,0,0-.23,7c0,.33.05.67.08,1s.07.68.1,1l.15,1a28,28,0,0,0,.69,3.24,30.22,30.22,0,0,0,3.67,9.13,18.05,18.05,0,0,0,1.4,1.83l-.31,1.15v.06l0,.05c0,.14-3.3,14.33-30,49.49a71.82,71.82,0,0,1-34.41,24.57C75.74,299.55,75.14,299.74,74.53,299.94Zm121-64c-1.46,1.31-3.21,2.83-5.24,4.59-14.81,12.8-42.37,36.64-40.39,55.69.69,6.74,5,12.34,12.76,16.67,8.44,4.69,12.39,9.53,11.74,14.4-1.1,8.22-15.18,15.32-27.79,18.43-9.22,2.27-21.26,4.56-32.64,2.07-19.42-4.27-32.87-20.07-36.91-43.35-.19-1.08-.35-2.16-.49-3.24a73.73,73.73,0,0,0,35.67-25.29c27.52-36.17,30.4-50.25,30.4-50.25l0-.06a20,20,0,0,0,9.46,4.89A22.9,22.9,0,0,0,157,231c11.5,0,23.81-8.84,29.85-18.16,4.07,0,13.9,1.47,17,14.5,0,.16.07.32.11.48s.08.37.12.57C201.17,230.93,198.35,233.42,195.54,235.93Zm53.79,75.68-.58,4.38c-16.93,9.35-30.82,14.09-41.31,14.09-6.48,0-11.59-1.84-15.18-5.46a21.11,21.11,0,0,1-5.35-10.75c5.47,3.7,10.62,5.56,15.34,5.56a15,15,0,0,0,10.14-3.7c5.57,3.41,9.91,5.06,13.19,5.06a6.32,6.32,0,0,0,5.36-2.44c2.12-2.81,1.62-7.16,1.19-9.36l2.61-1.91.67-.11c.15,0,.3,0,.46-.06l.77-.1c.85-.08,1.73-.14,2.63-.14h.51l.51,0c.43,0,.85.06,1.28.1l.51.08.35.05.54.11.57.13c.24.07.49.14.73.23a3,3,0,0,1,.42.15,11.82,11.82,0,0,1,1.1.48l.54.31.51.34a6.23,6.23,0,0,1,.7.57c.16.14.32.3.47.46a5.87,5.87,0,0,1,.41.46l.21.29c.11.14.21.29.31.44s.21.35.31.54l.08.16Zm8.87-89.09a60.09,60.09,0,0,1,9.58,31.22,94,94,0,0,1-4.34,30.32,140,140,0,0,1-11.94,27.77c-.07-.19-.15-.37-.23-.55a9.52,9.52,0,0,0-1.56-2.52c-2.19-2.6-5.73-4-10.44-4-.5,0-1,0-1.48,0a29.73,29.73,0,0,0-3.8.46l-.88.17c9.22-24.3,10.92-43.94,4.74-55.54-2.71-5.11-6.84-8.38-11.93-9.47-9.93-2.13-16.82-9-19.3-11.82-.25-.28-.45-.52-.61-.71s-.12-.14-.16-.2c0-.25-.11-.51-.17-.76s-.16-.7-.25-1c-3.49-13.9-12.24-15.46-16-15.46-.4,0-.79,0-1.13.05l-.89-8.91c1.22-6.55,4.16-13,6.89-18.91.17-.36.33-.73.51-1.09l.58-1.24c.21-.43.42-.85.62-1.27s.41-.83.62-1.25c1.38-2.78,2.84-5.55,4.35-8.3a17.94,17.94,0,0,0,1.44,6.06c.13.29.25.57.38.85s.27.58.42.86.29.56.44.84a44.9,44.9,0,0,0,3.43,5.12l.85,1.16c.85,1.28,2.36,1.55,4.88,2,4.61.81,13.1,2.33,23.93,11.18l.73.6.7.61c.24.2.49.42.73.64C244.81,204.67,251.31,212,258.2,222.52Zm22.61-97.84A63.49,63.49,0,0,1,276.15,144c-8.25,19.83-22.19,36.72-38,52.33-1-.83-2-1.59-3-2.3-.41-.31-.81-.59-1.21-.87-.8-.57-1.59-1.08-2.36-1.57-.32-.21-.64-.41-1-.59a48.32,48.32,0,0,0-8.24-4l-.55-.2-1.26-.43c-.24-.08-.48-.16-.72-.22a62.09,62.09,0,0,0-7.74-1.73l-.34-.07a10.54,10.54,0,0,1-1.32-.33,2.08,2.08,0,0,1-.3-.12l-.24-.11a1.66,1.66,0,0,1-.24-.18.9.9,0,0,1-.16-.18c-.44-.67-1.26-1.68-2.16-3-.09-.13-.19-.26-.27-.39s-.29-.43-.45-.65c-.38-.6-.78-1.23-1.16-1.91,3.34-1.24,5.19-1.87,5.28-1.9l.06,0,0,0c.81-.33,20-8.28,26.41-26.76,4.05-11.74,1.94-25-6.29-39.28a141.45,141.45,0,0,0-11.53-17.28c1.46-2.46,2.89-4.94,4.29-7.41,6.87-12,14.61-23.76,13.18-38a108.65,108.65,0,0,1,21.59,18.78C274.47,83.68,282.38,104.65,280.81,124.68Z" style="fill:#fff"/></g></g></svg>