<svg xmlns="http://www.w3.org/2000/svg" viewBox="0 0 239.35 153.63"><defs><style>.cls-1,.cls-3,.cls-4{fill:#df0b13;}.cls-2{fill:#fff;}.cls-3,.cls-4{fill-rule:evenodd;}.cls-4{stroke:#fff;stroke-miterlimit:2;stroke-width:2px;}</style></defs><title>Group_2</title><g id="Layer_2" data-name="Layer 2"><g id="Layer_1-2" data-name="Layer 1"><path class="cls-1" d="M73,123,61.36,99.52l-13.75,6.66v7.31h5.16l2.58,10.31H73.4ZM30.85,99.52l-12,24.28h18l2.58-10.31H44.6v-7.31Zm39-4.12L64.58,98l10.17,20.7a17.9,17.9,0,0,1,7.29-7A83.33,83.33,0,0,1,69.83,95.4Zm-53.38-3L2.7,113.06l13.11,9L27.63,98Zm-6.22-3.22L.77,97.59v12L13.23,90.71Zm39.53-9.67-3.44,1.72-3.44-1.72-3.43,20.2,6.87,3.43,6.87-3.43Zm15.7,7L54.84,90.87,56,98.24l12.09-6.1C67.12,90.27,66.25,88.4,65.46,86.51Zm-48.37-4-1.71-3.44H11.94V86L36.22,98.24l1.15-7.37Zm43-13.75H57.92L52.77,74v1.73h3.86l4.08-4.08C60.48,70.67,60.28,69.73,60.11,68.8Zm-25.82,0H28.7l6.87,6.88h3.88V74Zm-10.53,0H16.89l6.87,6.88h6.87Zm-11.82,0H8.5v6.88H18.6ZM58.7,38.39a32.53,32.53,0,0,0-5.93-.54V68.8l3.43-3.44h3.31A109.41,109.41,0,0,1,58.7,38.39Zm-46.76,27H36l3.44,3.44V37.85C23.26,37.85,11.94,49.17,11.94,65.36ZM42.88,31V75.68l3.44,1.71,3.44-1.71V31Z"/><path class="cls-2" d="M73.4,124.57H55.35L54.6,124l-2.43-9.73H47.61l-.77-.77v-7.31l.43-.69L61,98.83l1,.35,12,24.28ZM56,123H72.16L61,100.55l-12.63,6.12v6h4.39l.75.58Zm-19.08,1.54h-18l-.69-1.11,12-24.28,1-.35,13.75,6.66.44.69v7.31l-.77.77H40.05L37.61,124ZM20.06,123H36.27l2.43-9.73.75-.58h4.38v-6L31.2,100.55Zm-4.69-.31-13.1-9-.21-1.06L15.81,92l1-.26L28,97.33l.35,1L16.5,122.42ZM3.76,112.86,15.51,121,26.6,98.37l-9.88-5Zm71.66,6.24-1.36,0L63.89,98.36l.35-1,5.25-2.62,1,.3a82.74,82.74,0,0,0,12.09,16.2l-.23,1.23A17.34,17.34,0,0,0,75.42,119.1ZM65.61,98.37l9.22,18.77a19,19,0,0,1,6-5.6A84,84,0,0,1,69.53,96.41ZM1.41,110.05,0,109.63v-12L.26,97l9.46-8.38.85-.11,3,1.5.3,1.11Zm.13-12.11v9.12L12.11,91l-1.76-.88ZM46,103.86l-6.88-3.43-.41-.82,3.43-20.2,1.1-.56,3.1,1.55,3.09-1.55,1.11.56L54,99.61l-.41.82-6.87,3.43ZM40.3,99.31l6,3,6-3L49.17,80.69,46.67,82H46l-2.51-1.26Zm16-.39-1.1-.56L54.08,91l.47-.83L65.17,85.8l1,.41c.78,1.87,1.65,3.74,2.59,5.58l-.33,1Zm-.63-7.57.88,5.73L67.05,91.8c-.71-1.42-1.38-2.86-2-4.29ZM35.87,98.92,11.6,86.67,11.17,86V79.11l.77-.77h3.44l.68.43L17.65,82l20,8.21.47.83L37,98.36ZM12.71,85.51,35.62,97.07l.89-5.72L16.8,83.26l-.4-.37-1.5-3H12.71ZM46,78.08l-3.44-1.72-.43-.68V31l.77-.77h6.88l.77.77V75.68l-.43.68-3.43,1.72ZM43.65,75.2l2.67,1.33L49,75.2V31.74H43.65Zm13,1.24H52.77L52,75.68V74l.23-.54,5.15-5.15.54-.23h2.2l.75.63c.17.92.37,1.85.58,2.76l-.2.73-4.07,4.07Zm-3.09-1.53h2.78l3.54-3.55c-.14-.59-.27-1.19-.38-1.79H58.24l-4.7,4.7ZM39.45,76.44H35.57L35,76.22l-6.88-6.88L28.7,68h5.59l.54.22L40,73.41l.23.54v1.73Zm-3.56-1.53h2.79v-.64L34,69.57H30.55Zm-5.26,1.53H23.76l-.54-.22-6.88-6.88L16.89,68h6.87l.55.23,6.86,6.87Zm-6.55-1.53h4.7l-5.34-5.34h-4.7ZM18.6,76.44H8.5l-.77-.76V68.8L8.5,68h3.44l.55.23,6.66,6.88ZM9.27,74.91h7.52l-5.17-5.34H9.27ZM38.9,69.34l-3.21-3.22H11.94l-.77-.76c0-16.65,11.63-28.28,28.28-28.28l.77.77V68.8ZM12.72,64.59H36l.54.22,2.13,2.13V38.63C23.6,39,13.07,49.51,12.72,64.59Zm40.59,4.75L52,68.8V37.85l.77-.77a32.71,32.71,0,0,1,6.07.56l.62.82a108.65,108.65,0,0,0,.8,26.77l-.75.89h-3Zm.23-30.71V66.94l2.12-2.13.54-.22h2.41A110.11,110.11,0,0,1,57.87,39,30.83,30.83,0,0,0,53.54,38.63Z"/><path class="cls-1" d="M73.24.77C71.87.77,70.4,8.37,68.87,15L79.51,48.35,66.6,25.29c-1,4.75-1.79,9.47-2.31,14.15L78.56,58.69,63.74,46.52a71.49,71.49,0,0,0,.35,10.87l15,12.1L65.62,65.1a73.6,73.6,0,0,0,3.25,9L82.36,83l-9.94-1.42c4.57,8.91,9.86,17.26,12.8,24a51.2,51.2,0,0,1,3.61,9.31c1.28,5.19-1.5,11.89-7,12.67,4.06-4.72,4.38-7.77,3.64-10.75-4.38-.07-6.32,5.26-6.32,5.26s-4.14,7.76,5.2,19.63a28.52,28.52,0,0,0,22.21,11.23s-.74-18.2-.35-26.44S109,103.35,109,103.35s-6.62,0-14-5.22c-9.31-6.6-5.79-10.79-8.15-16.89C82,68.94,85.21,49.78,85.21,49.78S81.62,35.7,79.31,25.7C77.39,17.42,74.26.77,73.24.77Zm98.33,0c-1,0-4.16,16.65-6.07,24.93-2.31,10-5.9,24.08-5.9,24.08s3.22,19.16-1.55,31.46c-2.37,6.1,1.16,10.29-8.16,16.89-7.42,5.25-14,5.22-14,5.22s2.36,14.74,2.76,23.06-.34,26.44-.34,26.44a28.52,28.52,0,0,0,22.21-11.23c9.34-11.87,5.2-19.63,5.2-19.63s-1.94-5.33-6.32-5.26c-.74,3-.42,6,3.64,10.75-5.53-.78-8.32-7.48-7-12.67a50.46,50.46,0,0,1,3.61-9.31c2.94-6.71,8.22-15.06,12.8-24L162.45,83l13.49-8.9a73.6,73.6,0,0,0,3.25-9l-13.52,4.39,15-12.1a70.22,70.22,0,0,0,.36-10.87L166.25,58.69l14.27-19.25c-.52-4.68-1.34-9.4-2.31-14.15L165.3,48.35,175.94,15C174.41,8.37,172.94.77,171.57.77ZM122.4.92c-6.41,0-21.19,15-29.21,25C90.87,28.86,88,35.82,88,35.82l3,12.33s-.38,2.79-.86,10.08c-.36,5.48-.35,10.84-.35,10.84l17.42-5.58A178.53,178.53,0,0,1,113.91,38c2.32-6.66,8.49-19.36,8.49-19.36s6.35,12.11,8.62,18.55a183,183,0,0,1,6.57,26.34L155,69.07s0-5.36-.35-10.84c-.48-7.29-.86-10.08-.86-10.08l3-12.33s-2-6.41-4-9C144.89,16.09,128.81.92,122.4.92Zm0,25.49a133.86,133.86,0,0,0-5.08,16.76c-1.42,6.88-3.93,22-3.93,22s4,4,1.88,6-5.64-1.89-5.64-1.89L91,75l1.11,4.37L109.63,86s3.53-4,5.64-1.89S113.39,92,113.39,92s1.28,5.31,2,8c1.14,4.3,3.61,12.86,3.61,12.86l3.42,1,3.42-1s2.25-8,3.33-12c.78-2.92,2.27-8.79,2.27-8.79s-4-5.81-1.88-7.93S135.18,86,135.18,86l17.55-6.56,1.1-4.37-18.65-5.67s-3.56,4-5.64,1.89,1.88-6,1.88-6-2.5-14-3.93-21.76a115.22,115.22,0,0,0-5.09-17Zm0,45.09c1.66,0,3,2.7,3,6s-1.35,6-3,6-3-2.7-3-6S120.74,71.5,122.4,71.5Z"/><path class="cls-2" d="M138.7,153.63h-.46l-.76,0,0-.76c0-.18.74-18.26.35-26.37s-2.73-22.83-2.76-23l-.14-.89h.9c.08,0,6.49,0,13.59-5.08,6.12-4.34,6.42-7.45,6.77-11.06A19.69,19.69,0,0,1,157.33,81c4.64-12,1.54-30.86,1.51-31l0-.16,0-.16c0-.14,3.62-14.19,5.9-24.06.54-2.33,1.17-5.3,1.83-8.44C170.07.68,170.49,0,171.57,0,173.21,0,174,3.07,176,11.84c.22,1,.44,2,.67,2.95l0,.21-8.4,26.35,10.22-18.23.41,2c1.09,5.34,1.85,10,2.33,14.21l0,.3L170.58,54.14l11.2-9.2.06,1.55a72.92,72.92,0,0,1-.36,11l0,.32-12,9.67,10.91-3.54-.39,1.38a73.77,73.77,0,0,1-3.28,9l-.09.21L165.73,81.7l8-1.14-.68,1.32c-1.92,3.74-3.94,7.35-5.9,10.84-2.67,4.74-5.18,9.22-6.87,13.09a50.63,50.63,0,0,0-3.58,9.19,11.14,11.14,0,0,0,1.51,8.49,7.84,7.84,0,0,0,2.6,2.46c-2.91-4.13-2.81-7-2.21-9.41l.14-.57h.69c4.62,0,6.71,5.12,6.94,5.72.39.76,4,8.65-5.29,20.41A29.29,29.29,0,0,1,138.7,153.63Zm-1.95-49.56c.51,3.26,2.3,15.18,2.64,22.31s-.17,22.08-.31,25.7a28.29,28.29,0,0,0,20.81-10.94c8.87-11.28,5.16-18.72,5.12-18.79l0-.1s-1.63-4.3-5-4.72c-.49,2.61.05,5.31,3.62,9.45l1.33,1.55-2-.28a8.57,8.57,0,0,1-5.94-3.9,12.5,12.5,0,0,1-1.73-9.72,50.73,50.73,0,0,1,3.67-9.47c1.71-3.91,4.24-8.42,6.93-13.2,1.72-3.06,3.49-6.21,5.19-9.46l-11.86,1.7,16.17-10.67c1.1-2.58,2-5,2.7-7.24l-16.11,5.23L180,57a71.07,71.07,0,0,0,.36-8.88L161.91,63.25l17.81-24c-.4-3.55-1-7.41-1.86-11.73l-15.6,27.85,12.88-40.41c-.21-.91-.42-1.83-.62-2.75-.84-3.73-2-8.67-2.79-10.24-.84,2.26-2.44,9.8-3.64,15.47-.67,3.15-1.3,6.12-1.84,8.47-2.16,9.32-5.47,22.36-5.87,23.93.32,2,3,19.81-1.61,31.71a18.18,18.18,0,0,0-1,5.07c-.37,3.82-.71,7.42-7.41,12.16A28.26,28.26,0,0,1,136.75,104.07Zm-30.64,49.56a29.28,29.28,0,0,1-22.4-11.54c-9.25-11.76-5.68-19.65-5.29-20.41.22-.6,2.32-5.72,6.94-5.72H86l.15.57c.6,2.45.7,5.28-2.21,9.41a7.84,7.84,0,0,0,2.6-2.46,11.09,11.09,0,0,0,1.5-8.49,49.76,49.76,0,0,0-3.55-9.16c-1.71-3.9-4.22-8.38-6.89-13.12-2-3.49-4-7.1-5.9-10.84l-.68-1.32,8,1.14L68.25,74.56l-.09-.21a73.18,73.18,0,0,1-3.28-9l-.39-1.38L75.4,67.47l-12-9.67,0-.32a71.62,71.62,0,0,1-.36-11L63,44.94l11.2,9.2L63.49,39.65l0-.3c.48-4.23,1.24-8.88,2.33-14.21l.41-2L76.48,41.35,68.07,15l.05-.21c.23-1,.45-2,.67-2.94C70.77,3.07,71.6,0,73.24,0c1.08,0,1.5.68,5,17.08.67,3.15,1.3,6.12,1.84,8.45,2.28,9.87,5.86,23.92,5.9,24.06l0,.16,0,.16c0,.19-3.13,19.09,1.51,31.05a19.69,19.69,0,0,1,1.11,5.48c.34,3.61.64,6.72,6.77,11.06,7.1,5,13.51,5.08,13.58,5.08h.91l-.14.89c0,.15-2.36,14.8-2.76,23s.34,26.19.35,26.37l0,.76-.77,0Zm-21.28-36.1c-3.38.41-5,4.68-5,4.72l0,.1c0,.07-3.75,7.51,5.12,18.79a28.25,28.25,0,0,0,20.81,10.94c-.14-3.62-.66-18.51-.31-25.7s2.13-19,2.64-22.31a28.26,28.26,0,0,1-13.59-5.32c-6.7-4.74-7-8.34-7.41-12.16a18.18,18.18,0,0,0-1-5.07c-4.61-11.9-1.94-29.69-1.61-31.71-.4-1.57-3.71-14.61-5.87-23.93-.54-2.35-1.17-5.33-1.84-8.48-1.21-5.67-2.8-13.2-3.64-15.46-.84,1.57-2,6.51-2.79,10.24-.21.92-.41,1.84-.62,2.75L82.55,55.34,67,27.49c-.84,4.32-1.46,8.18-1.87,11.73l17.81,24L64.46,48.11A67.44,67.44,0,0,0,64.82,57L82.89,71.52,66.78,66.29a76.3,76.3,0,0,0,2.7,7.24L85.65,84.2,73.79,82.5c1.7,3.25,3.47,6.4,5.19,9.46,2.69,4.78,5.22,9.3,6.94,13.23a50.61,50.61,0,0,1,3.65,9.43,12.47,12.47,0,0,1-1.72,9.73,8.56,8.56,0,0,1-5.95,3.89l-2,.29L81.21,127C84.78,122.84,85.32,120.14,84.83,117.53Zm37.57-3-4-1.12-.12-.42c0-.08-2.48-8.61-3.61-12.88-.7-2.62-2-7.91-2-8l-.08-.34.19-.28c1.19-1.72,3.22-5.69,2-6.94a1.22,1.22,0,0,0-1-.4c-1.31,0-3,1.64-3.54,2.25l-.35.39L91.43,80l-1.38-5.47,19.83-6,.33.36c.54.61,2.25,2.2,3.57,2.24a1.27,1.27,0,0,0,.94-.38c.59-.59.5-1.56-.27-2.88a12.24,12.24,0,0,0-1.6-2.07l-.28-.28.06-.39c0-.15,2.53-15.24,3.94-22.06a133.14,133.14,0,0,1,5.12-16.88l.17-.45.47-.05c.69-.05.75-.07,2.82,6.2a93.73,93.73,0,0,1,3.09,11.46c1.42,7.69,3.91,21.63,3.94,21.77l.07.39-.29.29c-.88.88-3.13,3.69-1.87,5a1.23,1.23,0,0,0,.94.38c1.32,0,3-1.63,3.57-2.24l.33-.36,19.83,6L153.38,80,135,86.86l-.35-.4c-.54-.61-2.23-2.21-3.55-2.25a1.24,1.24,0,0,0-1,.4c-1.26,1.26.78,5.22,2,6.94l.2.29-.09.33c0,.06-1.5,5.91-2.27,8.81-1.06,4-3.3,12-3.33,12l-.11.41Zm-2.8-2.38,2.8.78,2.8-.78c.48-1.69,2.28-8.15,3.2-11.59.67-2.49,1.86-7.17,2.19-8.45-.89-1.37-3.86-6.33-1.59-8.61a2.76,2.76,0,0,1,2.1-.84c1.77,0,3.53,1.61,4.28,2.37l16.7-6.24.83-3.27-17.5-5.31c-.76.75-2.55,2.34-4.34,2.38a2.72,2.72,0,0,1-2.07-.83c-.79-.79-1.42-2.25,0-4.73A12.77,12.77,0,0,1,130.59,65c-.41-2.3-2.57-14.41-3.86-21.38a106.57,106.57,0,0,0-4.32-14.95,123.2,123.2,0,0,0-4.33,14.7c-1.28,6.18-3.47,19.24-3.87,21.62a12.75,12.75,0,0,1,1.56,2.1c1.46,2.48.83,3.94,0,4.73a2.67,2.67,0,0,1-2.07.83c-1.79,0-3.59-1.63-4.34-2.38L91.9,75.54l.82,3.27,16.7,6.24c.76-.76,2.51-2.32,4.28-2.37a2.78,2.78,0,0,1,2.11.84c2.27,2.28-.71,7.25-1.59,8.61.29,1.2,1.3,5.38,1.89,7.61C117.1,103.45,119.1,110.41,119.6,112.17Zm2.8-27.83c-2.15,0-3.77-2.93-3.77-6.81s1.62-6.8,3.77-6.8,3.78,2.92,3.78,6.8S124.56,84.34,122.4,84.34Zm0-12.07c-1.05,0-2.23,2.25-2.23,5.26s1.18,5.27,2.23,5.27,2.24-2.25,2.24-5.27S123.46,72.27,122.4,72.27Zm33.37-2.14-18.86-6-.08-.45A183.62,183.62,0,0,0,130.3,37.4c-1.78-5-6.16-13.73-7.87-17.08-1.66,3.48-6,12.64-7.79,17.89A178.53,178.53,0,0,0,108,63.62l-.08.46L89,70.13v-1c0-.06,0-5.45.35-10.9.42-6.4.77-9.32.85-10L87.17,35.76l.09-.24c.12-.28,3-7.09,5.33-10C100.42,15.69,115.44.15,122.4.15s23.31,15.75,31.07,26.17c2,2.71,4,9,4.1,9.27l.06.2-3,12.4c.08.67.42,3.59.84,10,.36,5.45.35,10.84.35,10.9ZM138.26,62.9l16,5.12c0-1.83-.08-5.77-.34-9.74-.47-7.16-.85-10-.86-10l0-.14,3-12.26c-.36-1.1-2.13-6.37-3.8-8.61C143.85,16,128.12,1.69,122.4,1.69c-6,0-20.63,14.77-28.6,24.75-2,2.49-4.5,8.22-5,9.44l3,12.23,0,.14s-.38,2.87-.85,10c-.26,4-.33,7.91-.34,9.74l16-5.12a179.56,179.56,0,0,1,6.65-25.19c2.3-6.63,8.46-19.32,8.52-19.45l.67-1.37.7,1.35c.26.5,6.4,12.24,8.67,18.65A183.66,183.66,0,0,1,138.26,62.9Z"/><path class="cls-3" d="M225.89,107c-7.2,7.33-16.52,11.78-26.78,11.78-10.75,0-20.47-4.89-27.81-12.86a75.62,75.62,0,0,0-5.66,7,19.08,19.08,0,0,1,5.33,9.41c11.72.89,21.82,5.57,27.91,12,9.17-8.23,24-12.86,39.47-10.22A73.3,73.3,0,0,0,225.89,107ZM181,95.39l4.81,16a30.69,30.69,0,0,0,25.63.48l5-16.86A119.79,119.79,0,0,1,181,95.39Zm-4.75-.8-1.72-.36q-1.43,2.51-3.08,5a40.41,40.41,0,0,0,8.88,8.92Zm45-.39L216.77,109a42.43,42.43,0,0,0,14.55-17.3Q226.36,93.17,221.21,94.2Zm-22.1-71.35A31.25,31.25,0,0,0,184,26.79a80,80,0,0,1,3.05,24.49c3.82-1.31,7.65-2.83,11.53-4.56l.95-.43.92.48a94.39,94.39,0,0,0,34.79,10.72C231.17,37.46,216.38,22.85,199.11,22.85Z"/><path class="cls-2" d="M198.84,135.4l-.51-.54c-6.21-6.52-16.46-10.91-27.41-11.75l-.57,0-.12-.55a18.28,18.28,0,0,0-5.13-9l-.47-.46.38-.54a76.93,76.93,0,0,1,5.72-7.07l.57-.62.57.62C179.35,113.55,189,118,199.11,118c9.6,0,18.92-4.1,26.23-11.55l.57-.57.54.58A74.64,74.64,0,0,1,239,123.76l-.81,1.11c-14.33-2.44-29.21,1.4-38.82,10Zm-27.25-13.77c11,.94,20.87,5.16,27.33,11.64,9.62-8.29,24-12.12,38-10.15a72.78,72.78,0,0,0-11.08-15c-7.52,7.38-17,11.44-26.76,11.44-10.26,0-20.1-4.43-27.79-12.49a72.06,72.06,0,0,0-4.68,5.78A19.81,19.81,0,0,1,171.59,121.63Zm27.52-6.38a31.72,31.72,0,0,1-13.67-3.12l-.31-.14-5.26-17.54,1.2.18a119.22,119.22,0,0,0,35.26-.33l1.21-.19L212,112.48l-.33.14A31.62,31.62,0,0,1,199.11,115.25Zm-12.7-4.36a29.89,29.89,0,0,0,24.36.46L215.37,96a120.19,120.19,0,0,1-33.33.31Zm30.79-1.25-1.16-.86,4.57-15.24.45-.09c3.4-.68,6.78-1.52,10-2.49L232,92A43.17,43.17,0,0,1,217.2,109.64Zm4.61-14.77-3.66,12.21a42.06,42.06,0,0,0,11.71-14.16C227.22,93.66,224.53,94.31,221.81,94.87Zm-42,13.94a40.66,40.66,0,0,1-9.05-9.09l-.31-.43.29-.44c1.06-1.63,2.09-3.31,3-5l.28-.49.69.15,1.57.32.45.09L181,108Zm-7.49-9.57a40.26,40.26,0,0,0,6.51,6.88l-3.25-10.87-.73-.15C174.07,96.49,173.22,97.88,172.35,99.24Zm63.87-40.87-1-.11a94.81,94.81,0,0,1-35.07-10.81l-.6-.3-.6.27c-3.9,1.74-7.81,3.29-11.6,4.59l-1.05.36,0-1.11a80,80,0,0,0-3-24.26l-.18-.59.54-.29a31.81,31.81,0,0,1,15.47-4c17.5,0,32.67,14.5,36.9,35.26ZM199.57,45.44l1.24.65a93.83,93.83,0,0,0,33.47,10.53c-4.36-19.49-18.7-33-35.17-33a30.21,30.21,0,0,0-14.19,3.55,81.58,81.58,0,0,1,2.94,23c3.41-1.21,6.92-2.61,10.42-4.18Z"/><path class="cls-4" d="M237.83,62a98.4,98.4,0,0,1-38.42-10.95c-4.22,1.86-8.42,3.47-12.6,4.86-.14,1.74-.35,3.54-.63,5.37H187V84.77h-4.31V75.91a97.27,97.27,0,0,1-6,14.27c19.16,3.73,42.47,2.07,61.4-5.44A35.93,35.93,0,0,1,237.83,62Zm-37.22,26.2h-4.32V58.71h4.32Zm13.14-3.44h-4.31V61.29h4.31Zm12.94-1.72h-4.32V64.74h4.32Z"/></g></g></svg>