<svg xmlns="http://www.w3.org/2000/svg" viewBox="0 0 387.81 249.63"><defs><style>.cls-1,.cls-3{fill:#df0b13;}.cls-2{fill:#fff;}.cls-3{fill-rule:evenodd;}</style></defs><title>Group_1</title><g id="Layer_2" data-name="Layer 2"><g id="Layer_1-2" data-name="Layer 1"><path class="cls-1" d="M118,199.9,99.08,161.71,76.74,172.54v11.87h8.38l4.19,16.75h29.33ZM49.5,161.71,30,201.16H59.28l4.19-16.75h8.37V172.54Zm63.35-6.7-8.54,4.26,16.53,33.63a29.16,29.16,0,0,1,11.84-11.34A134.47,134.47,0,0,1,112.85,155Zm-86.74-4.82L3.76,183.71l21.3,14.66,19.21-39.1ZM16,145,.62,158.57v19.56L20.87,147.4Zm64.24-15.72L74.65,132l-5.6-2.79-5.58,32.82,11.18,5.58,11.16-5.58Zm25.51,11.33-17.25,7.09,1.86,12,19.65-9.9Q107.66,145.16,105.74,140.57Zm-78.59-6.43-2.79-5.6H18.78v11.18l39.45,19.9,1.86-12Zm69.91-22.35H93.49l-8.37,8.37V123H91.4L98,116.35Q97.47,114.06,97.06,111.79Zm-42,0H46L57.18,123h6.29v-2.8Zm-17.1,0H26.81L38,123H49.14Zm-19.21,0H13.19V123H29.6Zm76-49.4a51.69,51.69,0,0,0-9.63-.89v50.29l5.58-5.59h5.36A178.69,178.69,0,0,1,94.75,62.39Zm-76,43.81h39.1l5.59,5.59V61.5C37.16,61.5,18.78,79.9,18.78,106.2ZM69.05,50.33V123l5.6,2.79L80.23,123V50.33Z"/><path class="cls-2" d="M118.64,201.79H89.31l-.6-.48L84.63,185H76.74l-.63-.63V172.54l.35-.57,22.35-10.82.83.29,19.56,39.45ZM89.8,200.54h27.83l-.17-.37L98.8,162.55,77.36,172.93v10.86h7.76l.61.47Zm-30.52,1.25H30l-.56-.9,19.55-39.45.83-.29L72.11,172l.36.57v11.87l-.63.63H64l-4.07,16.27ZM31,200.54H58.79l4.08-16.28.6-.47h7.75V172.93L49.78,162.55Zm-6.25-1.65L3.41,184.22l-.17-.86,22.35-33.52.8-.21,18.16,9.08.28.84-19.21,39.1ZM4.63,183.54l20.19,13.91,18.61-37.9L26.33,151Zm116.75,9.67-1.11,0-16.52-33.63.28-.84,8.54-4.26.82.25a134.83,134.83,0,0,0,19.74,26.43l-.19,1A28.84,28.84,0,0,0,121.38,193.21Zm-16.23-33.65,15.74,32a30.11,30.11,0,0,1,10.76-10.22,135.65,135.65,0,0,1-19.05-25.55Zm-104,18.91L0,178.13V158.57l.21-.46,15.37-13.62.69-.09,4.88,2.44.24.9Zm.1-19.62v17.2L20,147.64l-3.87-1.93Zm73.12,9.35-11.18-5.58-.33-.66,5.58-32.82.89-.45,5.32,2.65,5.3-2.65.89.45L86.42,162l-.33.66L74.93,168.2Zm-10.2-6.49L74.65,167l10.46-5.24-5.36-31.53-4.82,2.41h-.56l-4.84-2.41Zm26.46-1.53-.9-.46-1.86-12,.38-.67L105.51,140l.81.34c1.27,3,2.7,6.1,4.23,9.1l-.27.84Zm-1.45-12.13,1.65,10.63,18.33-9.24c-1.35-2.66-2.61-5.36-3.75-8.06ZM58,160.18,18.5,140.27l-.34-.55V128.54l.62-.62h5.58l.56.34,2.68,5.39,32.73,13.43.38.67-1.86,12ZM19.4,139.33l38.34,19.35,1.66-10.63L26.91,134.72l-.32-.3L24,129.17H19.4Zm55-13-5.6-2.79-.34-.56V50.33l.62-.63H80.23l.62.63V123l-.34.56-5.58,2.79Zm-4.69-3.73,5,2.48,4.95-2.48V51H69.68Zm21.72,1H85.12l-.63-.63v-2.8l.19-.44,8.37-8.37.44-.18h3.57l.61.51c.27,1.51.59,3,1,4.52l-.16.59-6.62,6.62Zm-5.66-1.25h5.4l6.19-6.19c-.29-1.23-.56-2.49-.79-3.74H93.75l-8,8Zm-22.27,1.25H57.18l-.44-.18L45.56,112.23l.44-1.06h9.09l.44.18,8.38,8.37.19.44V123Zm-6-1.25h5.41v-1.92l-8-8H47.51Zm-8.3,1.25H38l-.45-.18L26.37,112.23l.44-1.06H38l.44.18,11.16,11.17Zm-10.89-1.25h9.39l-9.91-9.93H28.32Zm-8.65,1.25H13.18l-.62-.63V111.79l.62-.62h5.6l.45.19,10.82,11.17Zm-15.79-1.25H28.13l-9.62-9.93h-4.7ZM63,112.23l-5.41-5.41H18.78l-.62-.62c0-26.69,18.63-45.32,45.31-45.32l.63.62v50.29Zm-43.62-6.66H57.88l.44.18,4.53,4.53V62.13C37.44,62.42,19.69,80.17,19.41,105.57Zm66.15,6.66-1.07-.44V61.5l.63-.62a52.94,52.94,0,0,1,9.75.89l.51.67a176.81,176.81,0,0,0,1.3,43.66l-.62.72H91Zm.18-50.1v48.15l4.52-4.53.44-.18h4.63A178.35,178.35,0,0,1,94.08,62.9,50.61,50.61,0,0,0,85.74,62.13Z"/><path class="cls-1" d="M118.38,1.25c-2.23,0-4.62,12.34-7.1,23.06l17.29,54.25-21-37.46c-1.58,7.7-2.91,15.38-3.77,23L127,95.37,102.94,75.59a116.74,116.74,0,0,0,.58,17.67L128,112.92l-22-7.14a119.35,119.35,0,0,0,5.28,14.53l21.92,14.48-16.15-2.32c7.43,14.48,16,28.06,20.79,39a81.6,81.6,0,0,1,5.87,15.13c2.09,8.43-2.43,19.31-11.43,20.59,6.6-7.68,7.12-12.63,5.92-17.48-7.11-.11-10.26,8.55-10.26,8.55s-6.73,12.61,8.44,31.89,36.09,18.25,36.09,18.25-1.21-29.57-.56-43,4.49-37.48,4.49-37.48-10.74,0-22.8-8.49c-15.13-10.71-9.41-17.52-13.25-27.44-7.75-20-2.51-51.11-2.51-51.11S132,58,128.25,41.77C125.13,28.31,120.05,1.25,118.38,1.25Zm159.77,0c-1.66,0-6.75,27.06-9.86,40.52C264.53,58,258.7,80.89,258.7,80.89S263.93,112,256.19,132c-3.85,9.92,1.88,16.73-13.25,27.44-12.06,8.54-22.81,8.49-22.81,8.49s3.84,24,4.49,37.48-.55,43-.55,43,20.91,1,36.09-18.26,8.44-31.89,8.44-31.89-3.15-8.66-10.27-8.55c-1.19,4.85-.68,9.8,5.92,17.48-9-1.28-13.52-12.16-11.43-20.59a82.32,82.32,0,0,1,5.87-15.13c4.77-10.9,13.36-24.48,20.79-39l-16.15,2.32,21.93-14.48a117.62,117.62,0,0,0,5.27-14.53l-22,7.14L293,93.26a116.74,116.74,0,0,0,.58-17.67L269.51,95.37,292.7,64.08c-.85-7.6-2.18-15.28-3.76-23L268,78.56l17.29-54.24C282.77,13.59,280.38,1.25,278.15,1.25Zm-79.88.25c-10.42,0-34.44,24.39-47.46,40.68-3.77,4.72-8.49,16-8.49,16l4.94,20s-.62,4.54-1.4,16.38c-.59,8.91-.57,17.62-.57,17.62l28.3-9.08a291.36,291.36,0,0,1,10.88-41.48c3.77-10.82,13.8-31.46,13.8-31.46s10.31,19.69,14,30.14c4.9,13.86,8.5,30.88,10.67,42.8l28.3,9.08s0-8.71-.57-17.62c-.77-11.84-1.39-16.38-1.39-16.38l4.93-20s-3.27-10.4-6.46-14.69c-12.95-17.37-39.07-42-49.48-42Zm0,41.41S192.51,58.05,190,70.15c-2.31,11.18-6.39,35.8-6.39,35.8s6.44,6.41,3,9.8-9.15-3.06-9.15-3.06l-30.32,9.2L149,129l28.53,10.67s5.72-6.51,9.15-3.07-3,12.88-3,12.88,2.08,8.62,3.22,12.91c1.85,7,5.87,20.91,5.87,20.91l5.56,1.54,5.56-1.54s3.65-13,5.39-19.53c1.27-4.75,3.7-14.29,3.7-14.29s-6.49-9.43-3.06-12.88,9.16,3.07,9.16,3.07L247.55,129l1.79-7.1L219,112.69s-5.77,6.46-9.16,3.06,3.06-9.8,3.06-9.8-4.06-22.74-6.4-35.36c-2.28-12.33-8.25-27.68-8.25-27.68Zm0,73.26c2.69,0,4.88,4.39,4.88,9.81s-2.19,9.81-4.88,9.81-4.89-4.39-4.89-9.81S195.57,116.17,198.27,116.17Z"/><path class="cls-2" d="M224.75,249.63c-.41,0-.66,0-.75,0l-1.23-.06,0-1.24c0-.29,1.19-29.67.56-42.84s-4.44-37.1-4.48-37.34l-.23-1.45h1.47c.12,0,10.53-.08,22.07-8.26,10-7,10.44-12.1,11-18a31.12,31.12,0,0,1,1.8-8.91c7.53-19.43,2.5-50.15,2.45-50.45l-.05-.26.07-.26c.06-.23,5.87-23,9.58-39.09.88-3.79,1.9-8.61,3-13.71C275.71,1.1,276.4,0,278.15,0c2.67,0,4,5,7.23,19.24.36,1.61.73,3.22,1.09,4.79l.08.34L272.9,67.19l16.59-29.63.68,3.29c1.77,8.67,3,16.22,3.77,23.09l.06.49L276.55,88,294.75,73l.09,2.51a116.93,116.93,0,0,1-.58,17.86l-.06.51-19.55,15.72,17.72-5.76-.64,2.25a119,119,0,0,1-5.32,14.69l-.15.34-17.59,11.61,13-1.87L280.6,133c-3.12,6.08-6.41,11.94-9.6,17.61-4.33,7.71-8.41,15-11.16,21.27a81.68,81.68,0,0,0-5.8,14.94,18.05,18.05,0,0,0,2.44,13.8,12.8,12.8,0,0,0,4.23,4c-4.73-6.71-4.57-11.31-3.59-15.29l.23-.94h1.11c7.51,0,10.91,8.32,11.28,9.29.63,1.24,6.44,14.06-8.6,33.17C247.18,248.63,228.73,249.63,224.75,249.63Zm-3.17-80.52c.82,5.29,3.73,24.66,4.29,36.24s-.28,35.87-.5,41.76a46,46,0,0,0,33.8-17.77c14.42-18.32,8.39-30.42,8.32-30.54l-.06-.15c0-.08-2.64-7-8.1-7.68-.8,4.24.08,8.62,5.87,15.36l2.17,2.52-3.29-.47a13.87,13.87,0,0,1-9.67-6.33,20.32,20.32,0,0,1-2.8-15.79,82.58,82.58,0,0,1,6-15.39c2.77-6.34,6.88-13.68,11.24-21.44,2.8-5,5.67-10.1,8.44-15.38L258,136.82l26.27-17.34a121.21,121.21,0,0,0,4.4-11.77l-26.18,8.5,29.35-23.6a111.1,111.1,0,0,0,.59-14.44l-29.95,24.6,28.94-39c-.67-5.77-1.66-12-3-19.07L263,89.93,284,24.26c-.34-1.47-.68-3-1-4.47-1.37-6.06-3.18-14.09-4.53-16.63-1.37,3.66-4,15.91-5.92,25.13-1.09,5.12-2.11,10-3,13.76C266,57.2,260.62,78.39,260,80.94c.53,3.28,4.87,32.19-2.62,51.51a30,30,0,0,0-1.65,8.25c-.59,6.2-1.16,12.06-12,19.76C233.87,167.39,225,168.82,221.58,169.11Zm-49.8,80.52c-4,0-22.42-1-36.38-18.75-15-19.11-9.23-31.92-8.61-33.17.37-1,3.77-9.29,11.29-9.29h1.11l.23.94c1,4,1.14,8.58-3.59,15.29a12.86,12.86,0,0,0,4.22-4,18,18,0,0,0,2.45-13.8A81.81,81.81,0,0,0,136.72,172c-2.77-6.34-6.86-13.62-11.18-21.33-3.19-5.66-6.48-11.53-9.6-17.61l-1.1-2.15,13,1.87-17.58-11.61-.15-.34a118.54,118.54,0,0,1-5.33-14.69l-.64-2.25,17.72,5.76L102.34,93.91l-.06-.51a116.89,116.89,0,0,1-.59-17.86l.1-2.51L120,88,102.54,64.43l0-.49c.77-6.87,2-14.42,3.78-23.09l.67-3.29,16.6,29.63L110,24.37l.08-.34c.36-1.57.72-3.18,1.08-4.78C114.36,5,115.72,0,118.38,0c1.75,0,2.44,1.1,8.1,27.75,1.08,5.11,2.11,9.94,3,13.74,3.71,16,9.53,38.86,9.59,39.09l.06.25,0,.27c0,.3-5.08,31,2.45,50.45a31.82,31.82,0,0,1,1.8,8.91c.56,5.86,1.05,10.92,11,18,11.54,8.18,22,8.26,22.08,8.26h1.46l-.23,1.45c0,.24-3.82,24-4.47,37.34s.55,42.55.56,42.84l.05,1.24-1.24.06C172.45,249.62,172.19,249.63,171.78,249.63ZM137.21,191c-5.48.68-8.07,7.6-8.1,7.68l-.07.16c-.06.11-6.09,12.21,8.32,30.53a45.85,45.85,0,0,0,33.81,17.77c-.22-5.88-1.07-30.08-.5-41.76s3.46-30.95,4.28-36.24c-3.4-.29-12.28-1.72-22.07-8.65-10.89-7.7-11.45-13.56-12-19.76a29.23,29.23,0,0,0-1.65-8.25c-7.49-19.32-3.15-48.23-2.62-51.51-.65-2.55-6-23.74-9.53-38.89-.88-3.82-1.91-8.65-3-13.78-2-9.21-4.55-21.45-5.91-25.11-1.36,2.54-3.17,10.57-4.53,16.63-.34,1.5-.67,3-1,4.47l20.93,65.67L108.16,44.66c-1.37,7-2.37,13.3-3,19.07l28.94,39-30-24.6a112.89,112.89,0,0,0,.59,14.44l29.36,23.6-26.18-8.5a120.24,120.24,0,0,0,4.4,11.77l26.26,17.34-19.26-2.77c2.76,5.28,5.64,10.41,8.43,15.38,4.36,7.77,8.48,15.1,11.28,21.49a82.48,82.48,0,0,1,5.93,15.33,20.3,20.3,0,0,1-2.8,15.8,13.86,13.86,0,0,1-9.66,6.33l-3.29.47,2.17-2.52C137.13,199.59,138,195.21,137.21,191Zm61.06-4.85-6.57-1.82-.19-.67c0-.14-4-14-5.88-20.93-1.13-4.25-3.2-12.86-3.23-12.94l-.13-.54.32-.46c1.92-2.8,5.23-9.24,3.2-11.28a2,2,0,0,0-1.58-.64c-2.14.06-4.88,2.65-5.76,3.64l-.57.65-29.94-11.2L145.69,121l32.22-9.78.54.6c.89,1,3.66,3.58,5.8,3.63a2.06,2.06,0,0,0,1.54-.62c1-1,.8-2.52-.45-4.66a19.8,19.8,0,0,0-2.6-3.38l-.46-.45.11-.64c0-.24,4.11-24.76,6.4-35.84,2.49-12.06,8.25-27.28,8.31-27.43l.28-.73.77-.07c1.12-.1,1.21-.11,4.58,10.07a152,152,0,0,1,5,18.63c2.31,12.48,6.36,35.13,6.4,35.36l.11.64-.46.46c-1.44,1.44-5.09,6-3.05,8a2,2,0,0,0,1.53.62c2.14,0,4.92-2.64,5.81-3.63l.53-.6L250.84,121l-2.24,8.89-29.95,11.2-.57-.65c-.87-1-3.62-3.58-5.76-3.64a2,2,0,0,0-1.57.64c-2,2,1.27,8.48,3.2,11.28l.32.46-.14.55c0,.1-2.44,9.6-3.7,14.31-1.73,6.46-5.37,19.41-5.4,19.54l-.19.68Zm-4.55-3.85,4.55,1.26,4.54-1.26c.78-2.76,3.71-13.24,5.21-18.83,1.08-4.05,3-11.66,3.55-13.74-1.45-2.22-6.27-10.29-2.59-14a4.54,4.54,0,0,1,3.42-1.37c2.88.09,5.73,2.61,7,3.86l27.13-10.15,1.34-5.31-28.44-8.63c-1.22,1.22-4.13,3.8-7,3.88a4.47,4.47,0,0,1-3.37-1.35c-1.28-1.28-2.3-3.66.06-7.7a20.84,20.84,0,0,1,2.54-3.39c-.67-3.74-4.19-23.42-6.28-34.73-1.62-8.76-5.17-19.17-7-24.29a200.55,200.55,0,0,0-7.05,23.87c-2.07,10-5.63,31.27-6.28,35.14a21,21,0,0,1,2.54,3.4c2.37,4,1.34,6.42.07,7.7a4.4,4.4,0,0,1-3.38,1.35c-2.91-.08-5.82-2.66-7-3.88l-28.44,8.63,1.34,5.31,27.14,10.15c1.23-1.25,4.08-3.77,6.95-3.86a4.61,4.61,0,0,1,3.43,1.37c3.68,3.7-1.16,11.79-2.6,14,.47,2,2.13,8.75,3.09,12.36C189.64,168.09,192.89,179.41,193.72,182.27ZM198.27,137c-3.5,0-6.13-4.76-6.13-11.06s2.63-11.06,6.13-11.06,6.13,4.76,6.13,11.06S201.76,137,198.27,137Zm0-19.62c-1.72,0-3.64,3.66-3.64,8.56s1.92,8.56,3.64,8.56,3.63-3.66,3.63-8.56S200,117.42,198.27,117.42ZM252.49,114l-30.64-9.83-.14-.73C219.55,91.54,216,74.53,211.1,60.77c-2.9-8.19-10-22.31-12.79-27.75-2.7,5.64-9.69,20.54-12.66,29.07a291.17,291.17,0,0,0-10.83,41.29l-.13.74L144.05,114v-1.71c0-.09,0-8.85.56-17.71.69-10.39,1.24-15.14,1.38-16.22L141,58.1l.16-.38c.19-.47,4.82-11.52,8.66-16.32C162.55,25.49,187,.25,198.27.25s37.87,25.59,50.48,42.51c3.28,4.41,6.52,14.63,6.66,15.07l.1.33-5,20.15c.14,1.08.7,5.82,1.38,16.22.58,8.86.57,17.62.57,17.71ZM224,102.2,250,110.52c0-3-.13-9.37-.55-15.82C248.66,83.06,248,78.45,248,78.4l0-.23,4.91-19.92c-.58-1.79-3.45-10.34-6.17-14C233.11,26,207.55,2.75,198.27,2.75c-9.78,0-33.52,24-46.49,40.21-3.24,4-7.3,13.36-8.15,15.35l4.9,19.86,0,.23s-.63,4.66-1.39,16.3c-.43,6.45-.53,12.85-.56,15.82l25.95-8.32a293.3,293.3,0,0,1,10.79-40.93C187,50.51,197,29.88,197.14,29.67l1.08-2.23,1.15,2.2c.43.8,10.4,19.89,14.08,30.3C218.27,73.57,221.84,90.3,224,102.2Z"/><path class="cls-1" d="M382.41,94.13l-.84-.08c-19.59-2-37.63-7.56-56.76-17.49l-1.23-.64-1.26.56c-6.33,2.83-12.65,5.33-18.79,7.45l-.85.29,0-.9a130.07,130.07,0,0,0-4.93-39.61l-.14-.48.44-.24a51,51,0,0,1,24.83-6.48c28.13,0,52.54,23.35,59.34,56.79Z"/><path class="cls-2" d="M383,94.69l-1.51-.15c-19.66-2-37.75-7.58-56.95-17.54l-1-.53-1,.46c-6.28,2.81-12.62,5.32-18.83,7.47l-1.53.52,0-1.62a129.13,129.13,0,0,0-4.91-39.45L297,43l.8-.43A51.48,51.48,0,0,1,322.9,36c28.38,0,53,23.51,59.83,57.19ZM323.6,75.36l1.45.75c19.07,9.9,37.05,15.44,56.58,17.44h.16l0-.16C375,60.19,350.8,37,322.9,37a50.57,50.57,0,0,0-24.58,6.41l-.09,0,0,.1a130,130,0,0,1,4.95,39.76v.18l.17-.06c6.19-2.13,12.49-4.63,18.75-7.43Z"/><path class="cls-1" d="M387.22,201.39l-.66.9c-23.48-4-47.85,2.3-63.61,16.45l-.45.4-.42-.44c-10.18-10.7-27-17.91-44.94-19.27l-.46,0-.1-.44a30.46,30.46,0,0,0-8.5-15l-.39-.38.31-.43a123.91,123.91,0,0,1,9.25-11.43l.46-.51.47.5c12.28,13.35,28.16,20.7,44.72,20.7,15.77,0,31.07-6.73,43.07-19l.46-.47.45.48C373.45,180.49,381,189.29,387.22,201.39Z"/><path class="cls-2" d="M322.48,219.83l-.76-.79c-10.1-10.62-26.78-17.77-44.61-19.12l-.83-.07-.18-.79a29.93,29.93,0,0,0-8.36-14.73l-.7-.69.56-.78a123.68,123.68,0,0,1,9.28-11.47l.83-.91.84.89c12.19,13.25,27.94,20.55,44.35,20.55,15.65,0,30.82-6.68,42.72-18.81l.82-.85.81.86c6.61,7.06,14.2,15.91,20.42,28l.14.27-1,1.4-.3-.05c-23.32-4-47.54,2.27-63.19,16.33Zm-45.39-20.91h.1c18.07,1.37,35,8.63,45.26,19.42l.08.09.09-.08c15.81-14.19,40.2-20.54,63.72-16.62l.3-.4c-6.14-11.88-13.61-20.58-20.12-27.53l-.09-.1-.1.1c-12.09,12.32-27.51,19.11-43.43,19.11-16.7,0-32.71-7.41-45.08-20.87l-.1-.1-.09.11a123.68,123.68,0,0,0-9.22,11.39l-.06.08.08.08a31,31,0,0,1,8.64,15.22Z"/><path class="cls-1" d="M375.81,149.27c-5.69,12-13.94,21.78-23.86,28.36l-.95-.7,7.32-24.39.37-.08c5.55-1.11,11.06-2.47,16.38-4.05Z"/><path class="cls-2" d="M351.94,178.24l-1.52-1.12,7.51-25,.66-.14c5.57-1.12,11.07-2.48,16.34-4l.31-.1,1.17,1.36-.14.29c-5.73,12.06-14,21.93-24,28.56Zm-.36-1.51.39.29c9.63-6.48,17.66-16,23.25-27.68l-.31-.36c-5.21,1.53-10.63,2.87-16.12,4h-.07Z"/><path class="cls-1" d="M352,153.69l-8.59,28.62-.26.12a50.45,50.45,0,0,1-42.16-.79l-.26-.12-8.18-27.28,1,.14a193.66,193.66,0,0,0,57.5-.54Z"/><path class="cls-2" d="M322.9,187.16a51.38,51.38,0,0,1-22.15-5.07l-.46-.22-8.47-28.24,1.75.25a193.34,193.34,0,0,0,57.35-.54l1.76-.27-8.88,29.6-.47.21A51.5,51.5,0,0,1,322.9,187.16Zm-21.78-6,.05,0a49.93,49.93,0,0,0,41.76.79l0,0,8.3-27.65-.2,0a194,194,0,0,1-57.65.54l-.19,0Z"/><path class="cls-1" d="M292.92,175.62l-1,.69a65.89,65.89,0,0,1-14.56-14.64l-.26-.34.24-.36c1.73-2.67,3.4-5.41,5-8.16l.22-.4.67.15,2.56.53.37.07Z"/><path class="cls-2" d="M292,176.92l-.29-.21A66.45,66.45,0,0,1,277,162l-.47-.61.44-.66c1.7-2.62,3.37-5.36,5-8.13l.4-.72,1,.23,2.55.53.67.12,6.93,23.09Zm-14.2-15.61,0,.05A65.57,65.57,0,0,0,292,175.69l.37-.27-6.55-21.83h-.07c-.86-.17-1.72-.35-2.57-.54l-.31-.06,0,.07c-1.6,2.79-3.28,5.55-5,8.19Z"/><path class="cls-3" d="M385.81,100.76c-22.15-1.59-42.26-7.53-62.42-17.79q-10.29,4.53-20.47,7.9-.35,4.25-1,8.73h1.39v38.14h-7V123.35a158.93,158.93,0,0,1-9.77,23.19c31.14,6.06,69,3.36,99.77-8.85A58.4,58.4,0,0,1,385.81,100.76Zm-60.47,42.57h-7V95.41h7Zm21.35-5.59h-7V99.6h7Zm21-2.79h-7V105.19h7Z"/><path class="cls-2" d="M320.33,150.2A178.87,178.87,0,0,1,286.41,147l-.66-.13.31-.59a159.72,159.72,0,0,0,9.74-23.12l1,.16v13.89h6V100.1h-1.47l.09-.58c.45-2.92.79-5.84,1-8.69l0-.33.32-.11c6.86-2.28,13.73-4.93,20.42-7.88l.22-.1.21.11c20.71,10.54,40.49,16.18,62.23,17.74l.64,0-.2.61a57.91,57.91,0,0,0,.46,36.62l.15.45-.44.17C366.5,146.07,343.26,150.2,320.33,150.2Zm-33.08-4c31.69,6,69.27,2.67,98.4-8.78a58.83,58.83,0,0,1-.5-36.18c-21.28-1.61-41.49-7.4-61.77-17.69-6.55,2.88-13.27,5.47-20,7.72-.22,2.58-.53,5.22-.92,7.86h1.3v39.14h-8V126.37A159.84,159.84,0,0,1,287.25,146.17Z"/><path class="cls-2" d="M368.22,135.45h-8V104.69h8Zm-7-1h6V105.69h-6Z"/><path class="cls-2" d="M347.19,138.24h-8V99.1h8Zm-7-1h6V100.1h-6Z"/><path class="cls-2" d="M325.84,143.83h-8V94.91h8Zm-7-1h6V95.91h-6Z"/></g></g></svg>