<svg xmlns="http://www.w3.org/2000/svg" viewBox="0 0 264.52 169.97"><defs><style>.cls-1,.cls-3,.cls-4{fill:#df0b13;}.cls-2{fill:#fff;}.cls-3,.cls-4{fill-rule:evenodd;}.cls-4{stroke:#fff;stroke-miterlimit:2;stroke-width:1.75px;}</style></defs><title>Group_1</title><g id="Layer_2" data-name="Layer 2"><g id="Layer_1-2" data-name="Layer 1"><path class="cls-1" d="M80.78,136.11l-12.89-26-15.22,7.37v8.08h5.71L61.24,137h20Zm-46.65-26L20.82,137h20l2.85-11.41h5.7v-8.08Zm43.13-4.57-5.81,2.91L82.7,131.34a19.83,19.83,0,0,1,8.07-7.72A91.3,91.3,0,0,1,77.26,105.54ZM18.2,102.26,3,125.09l14.5,10,13.08-26.62ZM11.31,98.7.85,108v13.32l13.78-20.93ZM55.05,88l-3.8,1.9L47.44,88l-3.8,22.35,7.61,3.8,7.6-3.8Zm17.38,7.71-11.75,4.83,1.26,8.15,13.38-6.75C74.26,99.87,73.3,97.8,72.43,95.71ZM18.91,91.33,17,87.52h-3.8v7.61l26.86,13.56,1.27-8.15Zm47.6-15.21H64.08l-5.7,5.69v1.91h4.28l4.5-4.5C66.91,78.18,66.7,77.14,66.51,76.12Zm-28.57,0H31.75l7.61,7.6h4.28V81.81Zm-11.65,0H18.68l7.61,7.6h7.6Zm-13.08,0H9.4v7.6H20.58ZM64.94,42.48a34.71,34.71,0,0,0-6.56-.6V76.12l3.8-3.81h3.65A121.63,121.63,0,0,1,64.94,42.48ZM13.21,72.31H39.83l3.81,3.81V41.88C25.73,41.88,13.21,54.4,13.21,72.31Zm34.23-38V83.72l3.81,1.9,3.8-1.9V34.27Z"/><path class="cls-2" d="M81.21,137.82h-20l-.83-.64-2.69-10.77h-5l-.85-.85v-8.08l.48-.77,15.22-7.37,1.13.39L82,136.59Zm-19.31-1.7H79.84L67.5,111.24l-14,6.77v6.7h4.86l.83.65Zm-21.11,1.7h-20l-.76-1.23,13.3-26.86,1.14-.39,15.21,7.37.48.77v8.08l-.85.85h-5l-2.69,10.77Zm-18.6-1.7H40.13l2.69-10.76.82-.65h4.85V118l-14-6.77ZM17,135.77l-14.5-10-.23-1.18L17.5,101.79l1.09-.29L31,107.69l.38,1.13L18.25,135.44ZM4.16,124.86l13,9,12.27-25L18.5,103.36Zm79.28,6.91-1.5-.05-11.25-22.9.38-1.13,5.81-2.91,1.12.34A91.27,91.27,0,0,0,91.38,123l-.26,1.37A19.16,19.16,0,0,0,83.44,131.77ZM72.59,108.83l10.2,20.77a21.18,21.18,0,0,1,6.59-6.2,93.44,93.44,0,0,1-12.46-16.74Zm-71,12.92L0,121.29V108l.29-.64,10.46-9.26.94-.13L15,99.6l.33,1.23Zm.14-13.4v10.1l11.7-17.76-2-1Zm49.17,6.56-7.61-3.8-.45-.91L46.6,87.86l1.22-.62L51.25,89l3.42-1.71,1.22.62,3.8,22.34-.46.91-7.6,3.8Zm-6.28-5,6.66,3.33,6.66-3.33L54.4,89.28l-2.77,1.38h-.76l-2.78-1.39Zm17.74-.42-1.23-.63-1.26-8.15.51-.92L72.1,94.93l1.11.45c.86,2.06,1.83,4.14,2.87,6.17l-.38,1.15Zm-.71-8.38,1,6.33,11.58-5.84c-.79-1.56-1.53-3.15-2.21-4.74Zm-21.93,8.38L12.83,95.89l-.47-.76V87.52l.85-.85H17l.76.47,1.76,3.53,22.13,9.08.52.92-1.27,8.15ZM14.06,94.61,39.41,107.4l1-6.33L18.59,92.12l-.44-.41-1.67-3.34H14.06Zm36.81-8.22-3.81-1.9-.47-.76V34.27l.85-.85h7.61l.85.85V83.73l-.47.76-3.8,1.9ZM48.29,83.2l3,1.47,3-1.47V35.12H48.29Zm14.37,1.38H58.38l-.85-.85V81.82l.25-.61,5.7-5.7.6-.24h2.43l.84.69c.18,1,.4,2.05.64,3.06l-.23.8-4.5,4.51Zm-3.43-1.71h3.08L66.23,79c-.16-.65-.3-1.32-.43-2H64.43l-5.2,5.2ZM43.64,84.58H39.36l-.6-.25-7.61-7.61.6-1.45h6.19l.6.24,5.7,5.7.25.61v1.91Zm-3.93-1.71h3.08v-.7L37.58,77H33.8Zm-5.82,1.71h-7.6l-.6-.25-7.61-7.61.6-1.45h7.61l.6.24,7.6,7.61Zm-7.25-1.71h5.2L25.94,77h-5.2Zm-6.06,1.71H9.4l-.85-.85V76.12l.85-.85h3.81l.61.25,7.37,7.61ZM10.25,82.87h8.32L12.85,77h-2.6ZM43,76.72l-3.56-3.56H13.21l-.85-.85C12.36,53.89,25.23,41,43.64,41l.85.85V76.12Zm-29-5.26H39.83l.61.25,2.35,2.35V42.74C26.11,43.12,14.46,54.78,14.07,71.46ZM59,76.72l-1.45-.6V41.88l.85-.85a36.13,36.13,0,0,1,6.72.61l.69.91a120.37,120.37,0,0,0,.88,29.62l-.84,1h-3.3Zm.25-34V74.06l2.35-2.35.6-.25h2.66A121.83,121.83,0,0,1,64,43.18,34.39,34.39,0,0,0,59.23,42.74Z"/><path class="cls-1" d="M81,.85c-1.52,0-3.15,8.41-4.83,15.71L88,53.49,73.69,28c-1.08,5.25-2,10.47-2.57,15.65l15.8,21.31L70.52,51.47a79,79,0,0,0,.39,12L87.56,76.89,72.6,72a82.33,82.33,0,0,0,3.59,9.89l14.93,9.86-11-1.58c5.05,9.86,10.9,19.1,14.15,26.52a56.37,56.37,0,0,1,4,10.3c1.42,5.75-1.66,13.15-7.78,14,4.49-5.22,4.84-8.6,4-11.9-4.85-.07-7,5.82-7,5.82s-4.59,8.59,5.75,21.72a31.57,31.57,0,0,0,24.57,12.43s-.82-20.14-.38-29.25,3-25.52,3-25.52-7.31,0-15.52-5.78c-10.3-7.29-6.41-11.93-9-18.68-5.28-13.61-1.71-34.8-1.71-34.8s-4-15.58-6.53-26.64C85.63,19.27,82.16.85,81,.85Zm108.79,0c-1.14,0-4.6,18.42-6.72,27.59-2.56,11.06-6.53,26.64-6.53,26.64s3.56,21.19-1.71,34.8c-2.62,6.75,1.28,11.39-9,18.68-8.21,5.82-15.53,5.78-15.53,5.78s2.61,16.31,3.06,25.52-.38,29.25-.38,29.25a31.57,31.57,0,0,0,24.57-12.43c10.33-13.13,5.75-21.72,5.75-21.72s-2.15-5.89-7-5.82c-.81,3.3-.46,6.68,4,11.9-6.12-.87-9.2-8.27-7.78-14a55.65,55.65,0,0,1,4-10.3c3.24-7.42,9.09-16.66,14.15-26.52l-11,1.58,14.94-9.86A80.57,80.57,0,0,0,198.24,72l-15,4.86L199.94,63.5a79,79,0,0,0,.39-12l-16.4,13.47,15.79-21.31c-.58-5.18-1.49-10.4-2.56-15.65L182.88,53.49l11.77-36.93C193,9.26,191.33.85,189.82.85ZM135.42,1c-7.09,0-23.44,16.61-32.31,27.7-2.57,3.21-5.78,10.91-5.78,10.91l3.36,13.64s-.42,3.09-1,11.15c-.4,6.07-.39,12-.39,12l19.27-6.18A198.41,198.41,0,0,1,126,42c2.56-7.37,9.39-21.43,9.39-21.43S142.45,34,145,41.1c3.33,9.43,5.78,21,7.26,29.14l19.27,6.18s0-5.93-.38-12c-.53-8.06-1-11.15-1-11.15l3.37-13.64s-2.23-7.09-4.41-10C160.3,17.8,142.51,1,135.42,1Zm0,28.2a147.4,147.4,0,0,0-5.62,18.54c-1.57,7.62-4.35,24.38-4.35,24.38s4.38,4.36,2.08,6.68-6.24-2.09-6.24-2.09L100.65,83l1.22,4.84,19.42,7.26s3.9-4.43,6.24-2.08-2.08,8.76-2.08,8.76,1.42,5.87,2.19,8.79c1.26,4.77,4,14.24,4,14.24l3.78,1,3.79-1s2.48-8.86,3.67-13.3c.87-3.24,2.52-9.73,2.52-9.73S141,95.35,143.32,93s6.23,2.09,6.23,2.09L169,87.83,170.2,83l-20.65-6.26s-3.93,4.4-6.23,2.09,2.08-6.68,2.08-6.68-2.76-15.48-4.35-24.07a127.22,127.22,0,0,0-5.63-18.85Zm0,49.88c1.84,0,3.33,3,3.33,6.68s-1.49,6.68-3.33,6.68-3.32-3-3.32-6.68S133.59,79.1,135.42,79.1Z"/><path class="cls-2" d="M153.46,170H153l-.85,0,0-.85c0-.2.81-20.2.38-29.17s-3-25.26-3.05-25.42l-.16-1h1c.08,0,7.17-.06,15-5.62,6.77-4.8,7.1-8.24,7.49-12.23a21.19,21.19,0,0,1,1.23-6.07c5.12-13.23,1.7-34.14,1.66-34.35l0-.18.05-.17c0-.16,4-15.7,6.52-26.62.6-2.58,1.29-5.86,2-9.34C188.15.75,188.63,0,189.82,0c1.81,0,2.74,3.4,4.92,13.1.24,1.09.49,2.19.74,3.26l.05.23-9.29,29.16,11.3-20.18.46,2.24c1.2,5.91,2,11.05,2.57,15.73l0,.33-11.89,16,12.39-10.18.07,1.71a79,79,0,0,1-.4,12.16l0,.35L187.43,74.65l12.07-3.93-.44,1.54a81.29,81.29,0,0,1-3.62,10l-.1.23-12,7.91,8.87-1.28-.75,1.47c-2.12,4.14-4.37,8.13-6.53,12-2.95,5.25-5.73,10.2-7.6,14.48a55.9,55.9,0,0,0-4,10.17,12.29,12.29,0,0,0,1.67,9.39,8.64,8.64,0,0,0,2.88,2.73c-3.22-4.57-3.11-7.7-2.45-10.41l.16-.64h.76c5.11,0,7.43,5.67,7.68,6.33.43.84,4.38,9.57-5.86,22.59A32.38,32.38,0,0,1,153.46,170Zm-2.16-54.83c.56,3.61,2.54,16.8,2.92,24.68s-.2,24.43-.35,28.43a31.26,31.26,0,0,0,23-12.1c9.82-12.47,5.71-20.71,5.67-20.79l-.05-.1s-1.79-4.77-5.51-5.23c-.55,2.89.05,5.87,4,10.46l1.47,1.71-2.24-.31a9.48,9.48,0,0,1-6.58-4.31,13.9,13.9,0,0,1-1.91-10.76,55.58,55.58,0,0,1,4.07-10.48c1.88-4.32,4.69-9.31,7.65-14.6,1.91-3.38,3.86-6.87,5.75-10.46l-13.12,1.88L194,81.35a82.22,82.22,0,0,0,3-8l-17.83,5.79,20-16.07a76.68,76.68,0,0,0,.4-9.84L179.14,70l19.7-26.58c-.45-3.93-1.13-8.19-2.06-13L179.52,61.23l14.25-44.71c-.23-1-.46-2-.69-3-.93-4.13-2.16-9.6-3.08-11.33-.93,2.49-2.7,10.84-4,17.12-.74,3.48-1.44,6.77-2,9.36-2.39,10.32-6.05,24.75-6.49,26.48.36,2.23,3.31,21.92-1.79,35.08a20,20,0,0,0-1.12,5.61c-.41,4.22-.79,8.21-8.2,13.46A31.33,31.33,0,0,1,151.3,115.14ZM117.39,170a32.35,32.35,0,0,1-24.77-12.76c-10.24-13-6.29-21.74-5.86-22.59.25-.66,2.56-6.33,7.68-6.33h.76l.15.64c.67,2.71.78,5.84-2.44,10.41a8.61,8.61,0,0,0,2.87-2.73,12.25,12.25,0,0,0,1.67-9.39,55.6,55.6,0,0,0-3.93-10.13c-1.89-4.32-4.67-9.27-7.62-14.52-2.17-3.86-4.41-7.85-6.53-12l-.75-1.47,8.87,1.28-12-7.91-.1-.23a81.91,81.91,0,0,1-3.63-10l-.43-1.54,12.06,3.93L70.1,63.94l0-.35a79,79,0,0,1-.4-12.16l.06-1.71L82.12,59.9l-11.88-16,0-.33c.52-4.68,1.37-9.82,2.57-15.73l.46-2.24,11.3,20.18L75.32,16.59l.05-.23c.25-1.07.49-2.17.74-3.25C78.29,3.4,79.22,0,81,0c1.19,0,1.66.75,5.51,18.9.74,3.48,1.44,6.76,2,9.35,2.52,10.92,6.48,26.46,6.52,26.62l0,.17,0,.18c0,.21-3.46,21.12,1.67,34.35A21.19,21.19,0,0,1,98,95.64c.38,4,.72,7.43,7.49,12.23,7.86,5.56,15,5.62,15,5.62h1l-.16,1c0,.16-2.6,16.37-3,25.42s.37,29,.38,29.17l0,.85-.84,0ZM93.85,130c-3.73.46-5.5,5.17-5.51,5.23l0,.1c0,.08-4.15,8.32,5.66,20.79a31.17,31.17,0,0,0,23,12.1c-.15-4-.73-20.48-.34-28.43s2.36-21.07,2.92-24.68a31.29,31.29,0,0,1-15-5.88c-7.41-5.25-7.8-9.24-8.2-13.46a20,20,0,0,0-1.13-5.61C90.09,77,93.05,57.34,93.41,55.11,93,53.38,89.3,39,86.92,28.63c-.6-2.6-1.3-5.89-2-9.38-1.33-6.27-3.1-14.61-4-17.1-.92,1.73-2.15,7.2-3.08,11.33-.23,1-.46,2-.69,3L91.33,61.23,74.07,30.41c-.93,4.78-1.61,9.05-2.06,13L91.71,70,71.31,53.22a76.71,76.71,0,0,0,.41,9.84l20,16.07L73.88,73.34a82,82,0,0,0,3,8L94.76,93.16,81.64,91.28c1.88,3.59,3.84,7.08,5.74,10.47,3,5.28,5.77,10.28,7.68,14.63a55.81,55.81,0,0,1,4,10.43,13.87,13.87,0,0,1-1.9,10.77,9.45,9.45,0,0,1-6.58,4.3l-2.24.32,1.47-1.71C93.79,135.9,94.39,132.92,93.85,130Zm41.57-3.3L131,125.49l-.13-.46c0-.09-2.75-9.53-4-14.25-.77-2.89-2.18-8.75-2.2-8.81l-.09-.37.22-.31c1.31-1.91,3.56-6.29,2.17-7.68a1.31,1.31,0,0,0-1.07-.44c-1.46,0-3.32,1.81-3.92,2.48l-.39.44-20.39-7.62-1.52-6,21.93-6.66.37.4c.6.68,2.49,2.44,3.95,2.48a1.42,1.42,0,0,0,1-.42q1-1-.3-3.18a12.77,12.77,0,0,0-1.77-2.3l-.31-.31.07-.43c0-.17,2.8-16.86,4.36-24.41a147.67,147.67,0,0,1,5.66-18.67l.19-.5.53-.05c.75-.06.82-.07,3.11,6.86a103.37,103.37,0,0,1,3.42,12.68c1.58,8.5,4.33,23.92,4.35,24.08l.08.44-.31.31c-1,1-3.46,4.08-2.08,5.48a1.43,1.43,0,0,0,1.05.42c1.45,0,3.34-1.8,3.95-2.48l.36-.4,21.94,6.66-1.53,6L149.3,96.09l-.39-.44c-.59-.67-2.46-2.44-3.92-2.48a1.4,1.4,0,0,0-1.07.44c-1.39,1.39.87,5.77,2.18,7.68l.22.31-.1.38c0,.06-1.66,6.54-2.52,9.74-1.17,4.4-3.65,13.22-3.67,13.31l-.13.46Zm-3.1-2.63,3.1.86,3.1-.85c.52-1.88,2.52-9,3.54-12.83.74-2.75,2.06-7.94,2.42-9.35-1-1.51-4.27-7-1.76-9.53a3.11,3.11,0,0,1,2.33-.93c2,.06,3.9,1.78,4.73,2.63l18.48-6.91.91-3.62L149.81,77.7c-.83.83-2.82,2.58-4.8,2.64a3.05,3.05,0,0,1-2.29-.92c-.87-.88-1.57-2.49,0-5.24a14.42,14.42,0,0,1,1.72-2.31c-.45-2.55-2.85-16-4.27-23.65a116.65,116.65,0,0,0-4.78-16.54,136.41,136.41,0,0,0-4.8,16.26c-1.41,6.84-3.83,21.28-4.27,23.92a15.69,15.69,0,0,1,1.73,2.32c1.61,2.75.91,4.36,0,5.24a3,3,0,0,1-2.3.92c-2-.06-4-1.81-4.79-2.64l-19.37,5.87.92,3.62,18.47,6.91c.84-.85,2.78-2.57,4.74-2.63a3.11,3.11,0,0,1,2.33.94c2.51,2.52-.79,8-1.77,9.52.32,1.33,1.45,5.95,2.1,8.42C129.55,114.45,131.76,122.16,132.32,124.1Zm3.1-30.79c-2.38,0-4.17-3.24-4.17-7.53s1.79-7.53,4.17-7.53,4.18,3.24,4.18,7.53S137.8,93.31,135.42,93.31Zm0-13.36c-1.16,0-2.47,2.49-2.47,5.83s1.31,5.83,2.47,5.83,2.48-2.5,2.48-5.83S136.59,80,135.42,80Zm36.92-2.36L151.48,70.9l-.09-.51c-1.48-8.06-3.92-19.64-7.23-29-2-5.58-6.81-15.2-8.71-18.9-1.83,3.85-6.6,14-8.62,19.8a197.39,197.39,0,0,0-7.37,28.11l-.09.51L98.51,77.59V76.42c0-.06,0-6,.39-12,.47-7.08.85-10.31.94-11.05L96.44,39.56l.1-.26c.14-.32,3.29-7.84,5.9-11.11,8.66-10.83,25.28-28,33-28s25.79,17.42,34.38,29c2.23,3,4.44,10,4.53,10.25l.07.23L171,53.32c.09.74.47,4,.94,11.05.39,6,.38,12,.38,12Zm-19.37-8,17.67,5.66c0-2-.09-6.38-.38-10.77-.52-7.93-.95-11.06-.95-11.1l0-.16,3.34-13.56c-.39-1.22-2.35-7-4.2-9.53-9.28-12.45-26.69-28.26-33-28.26-6.66,0-22.82,16.34-31.65,27.38-2.2,2.76-5,9.1-5.55,10.45l3.34,13.52,0,.16s-.43,3.17-1,11.1c-.29,4.39-.36,8.75-.38,10.77l17.67-5.66a199.49,199.49,0,0,1,7.35-27.87c2.55-7.33,9.36-21.38,9.43-21.52l.73-1.51.79,1.49c.28.55,7.08,13.54,9.58,20.63C149,50.09,151.48,61.49,153,69.59Z"/><path class="cls-3" d="M249.92,118.4c-8,8.12-18.28,13-29.63,13-11.9,0-22.65-5.41-30.77-14.23a84.14,84.14,0,0,0-6.27,7.74,21.05,21.05,0,0,1,5.91,10.41c13,1,24.13,6.17,30.88,13.26,10.14-9.11,26.5-14.23,43.66-11.31A81.53,81.53,0,0,0,249.92,118.4ZM200.2,105.53l5.33,17.76a34,34,0,0,0,28.35.53l5.6-18.65A132.47,132.47,0,0,1,200.2,105.53Zm-5.25-.88-1.9-.4q-1.59,2.77-3.4,5.58a44.43,44.43,0,0,0,9.82,9.87Zm49.79-.43-4.91,16.37a47,47,0,0,0,16.1-19.14Q250.43,103.09,244.74,104.22ZM220.29,25.28a34.51,34.51,0,0,0-16.7,4.36A89,89,0,0,1,207,56.74c4.22-1.45,8.46-3.14,12.76-5.06l1-.46,1,.53a104.57,104.57,0,0,0,38.5,11.86C255.76,41.44,239.39,25.28,220.29,25.28Z"/><path class="cls-2" d="M220,149.65l-.5-.52c-6.88-7.23-18.25-12.1-30.4-13l-.54,0-.13-.53a20.34,20.34,0,0,0-5.69-10l-.46-.45.37-.52a84.4,84.4,0,0,1,6.32-7.81l.55-.61.55.6c8.3,9,19,14,30.22,14,10.65,0,21-4.55,29.1-12.81l.54-.55.53.56A82.28,82.28,0,0,1,264.36,137l-.78,1.08c-15.89-2.71-32.39,1.55-43,11.12Zm-30.25-15c12.2,1,23.18,5.72,30.33,12.93,10.66-9.24,26.67-13.49,42.27-11.24a81.12,81.12,0,0,0-12.45-16.88c-8.31,8.2-18.8,12.71-29.61,12.71-11.36,0-22.25-4.92-30.76-13.87a83.46,83.46,0,0,0-5.3,6.56A21.86,21.86,0,0,1,189.75,134.66Zm30.54-7.25A34.89,34.89,0,0,1,205.21,124l-.3-.14-5.76-19.19,1.16.16a131.23,131.23,0,0,0,39.05-.36l1.17-.18-6,20.12-.32.13A34.93,34.93,0,0,1,220.29,127.41Zm-14.15-4.65a33.19,33.19,0,0,0,27.13.51l5.16-17.19a132.86,132.86,0,0,1-37.18.35Zm34.1-1.55-1.12-.83,5-16.8.43-.09c3.77-.75,7.51-1.68,11.13-2.75l.88,1A47.66,47.66,0,0,1,240.24,121.21Zm5.08-16.34-4.16,13.87a46.2,46.2,0,0,0,13.35-16.1C251.51,103.49,248.43,104.23,245.32,104.87ZM199,120.3a45,45,0,0,1-10-10l-.31-.42.28-.43c1.18-1.81,2.32-3.67,3.39-5.54l.27-.47.68.15c.58.12,1.15.25,1.73.36l.44.09,4.65,15.48Zm-8.48-10.5a44.35,44.35,0,0,0,7.54,7.91l-3.72-12.42-.94-.19C192.51,106.68,191.54,108.26,190.55,109.8Zm70.66-45.35-1-.1c-13.38-1.36-25.7-5.16-38.76-11.94l-.7-.37-.72.32c-4.31,1.93-8.63,3.64-12.82,5.08l-1,.35,0-1.07a88.39,88.39,0,0,0-3.35-26.87l-.16-.58.52-.28a35,35,0,0,1,17.06-4.45c19.3,0,36,16,40.72,38.92ZM220.79,50.39l1.33.7a103.83,103.83,0,0,0,37.22,11.67C254.54,41.08,238.6,26,220.29,26a33.47,33.47,0,0,0-15.82,4,89.92,89.92,0,0,1,3.26,25.67c3.83-1.35,7.75-2.92,11.68-4.68Z"/><path class="cls-4" d="M263.12,68.6a108.66,108.66,0,0,1-42.5-12.11q-7,3.07-13.94,5.38c-.16,1.93-.38,3.91-.7,5.94h1v26h-4.78V84a107.37,107.37,0,0,1-6.65,15.79c21.21,4.13,47,2.29,67.93-6A39.78,39.78,0,0,1,263.12,68.6ZM222,97.59h-4.78V65H222Zm14.54-3.81h-4.78v-26h4.78Zm14.31-1.9H246V71.62h4.77Z"/></g></g></svg>