<svg xmlns="http://www.w3.org/2000/svg" viewBox="0 0 310.92 199.8"><defs><style>.cls-1,.cls-3,.cls-4{fill:#df0b13;}.cls-2{fill:#fff;}.cls-3,.cls-4{fill-rule:evenodd;}.cls-4{stroke:#fff;stroke-miterlimit:2;stroke-width:2px;}</style></defs><title>Group_1</title><g id="Layer_2" data-name="Layer 2"><g id="Layer_1-2" data-name="Layer 1"><path class="cls-1" d="M95,160,79.81,129.44,61.92,138.1v9.5h6.71L72,161H95.46ZM40.12,129.44,24.47,161H48L51.3,147.6H58v-9.5Zm50.7-5.37L84,127.48,97.22,154.4a23.37,23.37,0,0,1,9.48-9.08A107.84,107.84,0,0,1,90.82,124.07ZM21.4,120.21,3.51,147l17,11.74,15.37-31.3ZM13.3,116,1,126.92v15.66L17.2,118Zm51.41-12.58-4.46,2.23-4.48-2.23L51.3,129.72l9,4.46,8.93-4.46Zm20.43,9.06-13.81,5.68,1.48,9.57,15.73-7.93C87.3,117.41,86.16,115,85.14,112.51Zm-62.91-5.15L20,102.89H15.53v8.94l31.58,15.93,1.49-9.57Zm56-17.88H75.33l-6.7,6.7v2.24h5L79,93.13C78.66,91.91,78.4,90.68,78.18,89.48Zm-33.59,0H37.32l9,8.94h5V96.18Zm-13.69,0H22l8.94,8.94h8.94Zm-15.37,0H11.05v8.94H24.19ZM76.34,49.93a41.79,41.79,0,0,0-7.71-.7V89.48L73.1,85h4.29A143.13,143.13,0,0,1,76.34,49.93ZM15.53,85h31.3l4.47,4.48V49.23C30.25,49.23,15.53,64,15.53,85ZM55.77,40.28V98.42l4.48,2.23,4.46-2.23V40.28Z"/><path class="cls-2" d="M95.46,162H72l-1-.76L67.85,148.6H61.92l-1-1v-9.5l.56-.9,17.89-8.66,1.33.45,15.66,31.58Zm-22.69-2H93.85l-14.5-29.24-16.43,7.95v7.88h5.71l1,.76ZM48,162H24.47l-.89-1.44L39.22,129l1.33-.45,17.89,8.66.56.9v9.5l-1,1H52.08l-3.16,12.65Zm-21.86-2H47.17l3.16-12.65,1-.76H57v-7.88l-16.43-7.95ZM20,159.6,3,147.86l-.27-1.37,17.89-26.83,1.28-.34,14.53,7.27.45,1.33-15.37,31.3ZM4.89,146.78,20.17,157.3,34.6,127.93,21.74,121.5Zm93.19,8.11-1.76,0L83.09,127.92l.45-1.33,6.84-3.42,1.31.4a107.12,107.12,0,0,0,15.73,21.06l-.31,1.6A22.58,22.58,0,0,0,98.08,154.89Zm-12.75-27,12,24.41a24.91,24.91,0,0,1,7.75-7.28,108.83,108.83,0,0,1-14.64-19.68Zm-83.5,15.2L0,142.58V126.92l.34-.75,12.3-10.89,1.11-.15,3.9,2,.39,1.45ZM2,127.37v11.87l13.75-20.87-2.29-1.15Zm57.8,7.71-8.94-4.47-.54-1.06,4.46-26.27,1.44-.73,4,2,4-2,1.43.73,4.46,26.27-.53,1.06-8.94,4.47Zm-7.39-5.93,7.84,3.91,7.82-3.91L64,105l-3.26,1.62H59.8l-3.27-1.63Zm20.85-.49-1.43-.74-1.49-9.58.61-1.08,13.81-5.67,1.3.54c1,2.42,2.15,4.86,3.37,7.25L89,120.73Zm-.82-9.85,1.15,7.44,13.61-6.86c-.93-1.84-1.8-3.71-2.6-5.58Zm-25.78,9.85L15.08,112.72l-.55-.89v-8.94l1-1H20l.89.55L23,106.58l26,10.68.6,1.08-1.48,9.58ZM16.53,111.21l29.8,15,1.16-7.44L21.85,108.29l-.52-.48-1.95-3.92H16.53Zm43.27-9.66-4.48-2.23-.55-.9V40.28l1-1h8.94l1,1V98.42l-.55.9-4.47,2.23Zm-3-3.75,3.48,1.74,3.46-1.74V41.28H56.77Zm16.89,1.62h-5l-1-1V96.18l.29-.71,6.7-6.7.71-.29h2.85l1,.82c.21,1.2.47,2.41.75,3.59l-.26.94-5.3,5.3Zm-4-2h3.61l4.61-4.61c-.18-.77-.34-1.55-.5-2.33H75.74l-6.11,6.11Zm-18.33,2h-5l-.71-.29-9-8.95.71-1.7h7.27l.71.29L52,95.47l.29.71v2.24Zm-4.62-2H50.3v-.83l-6.12-6.11H39.74Zm-6.84,2H30.9l-.7-.29-8.95-8.95.71-1.7H30.9l.71.29,8.93,8.94Zm-8.52-2h6.1l-6.93-6.94H24.38Zm-7.13,2H11.05l-1-1V89.48l1-1h4.48l.72.3,8.66,9Zm-12.14-2h9.78l-6.72-6.94H12.05ZM50.6,90.18,46.41,86H15.53l-1-1c0-21.65,15.12-36.77,36.77-36.77l1,1V89.48ZM16.54,84H46.83l.7.29,2.77,2.77V50.24C30.7,50.69,17,64.39,16.54,84Zm52.8,6.18-1.71-.7V49.23l1-1a42.75,42.75,0,0,1,7.9.72L77.34,50a141.26,141.26,0,0,0,1,34.82l-1,1.16H73.51Zm.29-39.94V87.06l2.76-2.77L73.1,84h3.12a143.88,143.88,0,0,1-1-33.24A39.93,39.93,0,0,0,69.63,50.24Z"/><path class="cls-1" d="M95.25,1c-1.78,0-3.7,9.88-5.68,18.46l13.84,43.42-16.79-30c-1.26,6.16-2.33,12.3-3,18.39l18.56,25L82.89,60.5a93.72,93.72,0,0,0,.47,14.14l19.57,15.74L85.35,84.67A95.7,95.7,0,0,0,89.56,96.3l17.56,11.59L94.19,106c6,11.59,12.82,22.45,16.64,31.18a65.59,65.59,0,0,1,4.7,12.11c1.67,6.75-2,15.45-9.15,16.48,5.28-6.15,5.7-10.11,4.74-14-5.7-.08-8.22,6.84-8.22,6.84s-5.39,10.1,6.76,25.53a37.08,37.08,0,0,0,28.88,14.61s-1-23.67-.44-34.38,3.59-30,3.59-30-8.6,0-18.25-6.79c-12.11-8.58-7.53-14-10.6-22-6.2-16-2-40.91-2-40.91s-4.67-18.31-7.67-31.31C100.66,22.66,96.58,1,95.25,1ZM223.13,1c-1.33,0-5.4,21.66-7.89,32.43-3,13-7.68,31.31-7.68,31.31s4.19,24.92-2,40.91c-3.07,7.94,1.51,13.39-10.6,22-9.66,6.83-18.25,6.79-18.25,6.79s3.06,19.18,3.59,30-.45,34.38-.45,34.38a37.11,37.11,0,0,0,28.89-14.61c12.14-15.43,6.76-25.53,6.76-25.53s-2.53-6.92-8.22-6.84c-1,3.88-.55,7.84,4.74,14-7.2-1-10.82-9.73-9.15-16.48a65.59,65.59,0,0,1,4.7-12.11c3.81-8.73,10.69-19.59,16.64-31.18l-12.93,1.86L228.82,96.3A94.12,94.12,0,0,0,233,84.67l-17.58,5.71L235,74.64a92.43,92.43,0,0,0,.46-14.14L216.21,76.33l18.57-25c-.68-6.09-1.75-12.23-3-18.39L215,62.88l13.84-43.42C226.83,10.88,224.92,1,223.13,1Zm-63.94.2c-8.33,0-27.56,19.52-38,32.56-3,3.78-6.79,12.83-6.79,12.83l4,16s-.5,3.63-1.12,13.11c-.47,7.13-.46,14.11-.46,14.11l22.65-7.27a233.52,233.52,0,0,1,8.71-33.2c3-8.66,11-25.19,11-25.19S167.45,40,170.4,48.31c3.92,11.09,6.8,24.72,8.54,34.26l22.65,7.27s0-7-.45-14.11c-.62-9.48-1.12-13.11-1.12-13.11l3.95-16s-2.62-8.33-5.17-11.76C188.44,20.92,167.53,1.2,159.19,1.2Zm0,33.15a172.61,172.61,0,0,0-6.61,21.8c-1.84,8.95-5.11,28.65-5.11,28.65s5.15,5.13,2.44,7.85-7.33-2.45-7.33-2.45l-24.26,7.36,1.43,5.69,22.83,8.53s4.59-5.21,7.33-2.45-2.44,10.3-2.44,10.3,1.67,6.91,2.58,10.34c1.48,5.6,4.69,16.73,4.69,16.73l4.45,1.23,4.45-1.23s2.93-10.41,4.32-15.63c1-3.8,3-11.44,3-11.44s-5.19-7.54-2.45-10.3,7.33,2.45,7.33,2.45l22.83-8.53,1.44-5.69L175.8,90.2s-4.62,5.17-7.33,2.45,2.45-7.85,2.45-7.85-3.25-18.2-5.12-28.3c-1.83-9.87-6.61-22.15-6.61-22.15Zm0,58.64c2.16,0,3.91,3.51,3.91,7.84s-1.75,7.86-3.91,7.86-3.91-3.52-3.91-7.86S157,93,159.19,93Z"/><path class="cls-2" d="M180.39,199.8h-.6l-1,0,0-1c0-.24,1-23.75.45-34.29s-3.55-29.7-3.58-29.89l-.19-1.16h1.18c.1,0,8.43-.07,17.67-6.61,8-5.64,8.35-9.69,8.8-14.38a25.32,25.32,0,0,1,1.45-7.13c6-15.55,2-40.13,2-40.38l0-.21.05-.2c0-.19,4.7-18.46,7.68-31.29.7-3,1.51-6.89,2.38-11C221.18.88,221.73,0,223.13,0c2.13,0,3.22,4,5.79,15.4.29,1.29.58,2.58.87,3.84l.06.26L218.93,53.78l13.28-23.72.54,2.64c1.42,6.94,2.41,13,3,18.48l0,.39-14,18.84,14.56-12,.08,2a92.66,92.66,0,0,1-.47,14.3l0,.41L220.33,87.75l14.18-4.61-.51,1.8a94.35,94.35,0,0,1-4.26,11.76l-.12.27-14.08,9.29L226,104.77l-.88,1.72c-2.5,4.86-5.13,9.55-7.68,14.09-3.46,6.17-6.74,12-8.94,17a65.91,65.91,0,0,0-4.64,12,14.4,14.4,0,0,0,2,11,10.28,10.28,0,0,0,3.38,3.21c-3.78-5.37-3.66-9.06-2.87-12.24l.18-.75h.89c6,0,8.74,6.66,9,7.44.5,1,5.15,11.25-6.89,26.55A38,38,0,0,1,180.39,199.8Zm-2.54-64.45c.66,4.24,3,19.75,3.44,29s-.23,28.71-.41,33.42a36.75,36.75,0,0,0,27.06-14.22c11.54-14.66,6.71-24.35,6.66-24.44l0-.12c0-.06-2.11-5.6-6.49-6.15-.63,3.4.07,6.9,4.71,12.3l1.73,2-2.63-.37a11.13,11.13,0,0,1-7.74-5.07,16.29,16.29,0,0,1-2.24-12.64,66.94,66.94,0,0,1,4.77-12.32c2.22-5.07,5.52-10.94,9-17.16,2.23-4,4.53-8.08,6.75-12.3L207,109.51l21-13.88a97,97,0,0,0,3.52-9.42L210.59,93l23.49-18.89a90.28,90.28,0,0,0,.48-11.56l-24,19.69L233.74,51c-.53-4.62-1.33-9.64-2.42-15.26L211,72l16.75-52.56c-.27-1.18-.54-2.38-.81-3.58-1.09-4.85-2.54-11.28-3.62-13.31-1.1,2.93-3.18,12.73-4.74,20.12-.87,4.09-1.69,8-2.4,11-2.8,12.13-7.11,29.08-7.63,31.13.42,2.62,3.9,25.76-2.1,41.23a23.31,23.31,0,0,0-1.31,6.59c-.48,5-.93,9.66-9.65,15.82A36.75,36.75,0,0,1,177.85,135.35ZM138,199.8a38.06,38.06,0,0,1-29.13-15c-12-15.3-7.39-25.56-6.89-26.55.3-.78,3-7.44,9-7.44h.88l.19.75c.78,3.18.91,6.87-2.88,12.24a10.23,10.23,0,0,0,3.39-3.21,14.46,14.46,0,0,0,2-11,65,65,0,0,0-4.63-11.9c-2.22-5.08-5.49-10.91-9-17.08-2.55-4.53-5.18-9.23-7.68-14.09l-.88-1.72,10.42,1.49L88.77,97l-.12-.27a96.14,96.14,0,0,1-4.27-11.76l-.51-1.8,14.19,4.61L82.41,75.17l0-.41a95.23,95.23,0,0,1-.47-14.3l.08-2,14.57,12-14-18.84,0-.39c.62-5.5,1.61-11.55,3-18.48l.54-2.64L99.46,53.78,88.53,19.5l.07-.26.87-3.83C92,4,93.12,0,95.25,0c1.4,0,2,.88,6.48,22.21.87,4.09,1.69,8,2.39,11,3,12.83,7.63,31.1,7.67,31.29l0,.2,0,.21c0,.25-4.07,24.83,2,40.38a24.94,24.94,0,0,1,1.44,7.13c.45,4.69.84,8.74,8.81,14.38,9.24,6.54,17.57,6.61,17.67,6.61h1.17l-.18,1.16c0,.19-3.07,19.24-3.58,29.89s.43,34,.44,34.29l0,1-1,0Zm-27.68-47c-4.39.54-6.46,6.09-6.48,6.15l-.06.12c0,.1-4.87,9.78,6.67,24.44a36.69,36.69,0,0,0,27.05,14.23c-.17-4.71-.85-24.08-.4-33.43s2.78-24.77,3.43-29a36.82,36.82,0,0,1-17.67-6.92c-8.71-6.16-9.16-10.85-9.64-15.82A23.35,23.35,0,0,0,111.9,106c-6-15.47-2.52-38.61-2.1-41.23-.52-2.05-4.82-19-7.63-31.13-.7-3.06-1.52-6.93-2.39-11C98.21,15.25,96.13,5.46,95,2.53,94,4.56,92.51,11,91.42,15.84c-.27,1.2-.54,2.4-.81,3.58L107.36,72,87.07,35.75C86,41.37,85.18,46.39,84.65,51l23.16,31.24-24-19.69a88.5,88.5,0,0,0,.48,11.56L107.8,93l-21-6.8a96.05,96.05,0,0,0,3.52,9.42l21,13.88L96,107.3c2.21,4.22,4.52,8.32,6.75,12.31,3.49,6.21,6.79,12.08,9,17.2a65.17,65.17,0,0,1,4.76,12.26,16.31,16.31,0,0,1-2.24,12.65,11.16,11.16,0,0,1-7.74,5.07l-2.63.37,1.73-2C110.26,159.75,111,156.25,110.32,152.85ZM159.19,149l-5.25-1.45-.16-.54c0-.11-3.23-11.21-4.7-16.75-.9-3.41-2.57-10.29-2.58-10.36l-.11-.44.25-.36c1.54-2.24,4.19-7.4,2.56-9a1.52,1.52,0,0,0-1.26-.51c-1.71,0-3.91,2.12-4.61,2.91l-.45.52-24-9-1.8-7.12,25.79-7.82.43.47c.71.79,2.93,2.87,4.65,2.91a1.64,1.64,0,0,0,1.22-.5c.77-.76.64-2-.36-3.73a15.07,15.07,0,0,0-2.08-2.7l-.36-.37.08-.5c0-.2,3.29-19.83,5.12-28.69a175.74,175.74,0,0,1,6.66-22l.22-.58.62-.06c.89-.07,1-.09,3.66,8.06a122.44,122.44,0,0,1,4,14.91c1.84,10,5.08,28.12,5.11,28.3l.09.52-.37.37c-1.15,1.15-4.07,4.8-2.44,6.44a1.67,1.67,0,0,0,1.23.49c1.71,0,3.94-2.12,4.65-2.91l.42-.47,25.79,7.82L199.48,104l-24,9-.46-.52c-.7-.79-2.89-2.86-4.61-2.92a1.66,1.66,0,0,0-1.26.52c-1.63,1.63,1,6.79,2.56,9l.26.37-.11.44c0,.07-1.95,7.68-3,11.45-1.38,5.17-4.3,15.54-4.33,15.64l-.15.55Zm-3.64-3.08,3.64,1,3.64-1c.62-2.21,3-10.6,4.17-15.07.86-3.24,2.41-9.34,2.84-11-1.16-1.78-5-8.24-2.07-11.2a3.6,3.6,0,0,1,2.74-1.09c2.3.07,4.58,2.09,5.56,3.08l21.72-8.12,1.08-4.25L176.1,91.33c-1,1-3.31,3-5.63,3.11a3.61,3.61,0,0,1-2.7-1.08c-1-1-1.84-2.93,0-6.16a16.21,16.21,0,0,1,2-2.72c-.54-3-3.35-18.74-5-27.8a137.88,137.88,0,0,0-5.62-19.44,161.52,161.52,0,0,0-5.64,19.11c-1.66,8.05-4.51,25-5,28.12a18.08,18.08,0,0,1,2,2.73c1.89,3.23,1.07,5.13.05,6.16a3.52,3.52,0,0,1-2.7,1.08c-2.33-.06-4.66-2.13-5.64-3.11l-22.76,6.91,1.07,4.25,21.72,8.12c1-1,3.27-3,5.57-3.08a3.61,3.61,0,0,1,2.74,1.1c2.95,3-.92,9.43-2.08,11.19.38,1.56,1.71,7,2.47,9.9C152.29,134.54,154.89,143.6,155.55,145.89Zm3.64-36.21c-2.79,0-4.91-3.8-4.91-8.85S156.4,92,159.19,92s4.91,3.8,4.91,8.84S162,109.68,159.19,109.68Zm0-15.69c-1.37,0-2.91,2.93-2.91,6.84s1.54,6.85,2.91,6.85,2.91-2.93,2.91-6.85S160.57,94,159.19,94Zm43.4-2.78-24.52-7.87-.11-.59c-1.73-9.48-4.61-23.1-8.5-34.11-2.31-6.55-8-17.86-10.23-22.21-2.16,4.52-7.76,16.44-10.14,23.27a232.27,232.27,0,0,0-8.66,33.05l-.11.59L115.8,91.21V89.84c0-.07,0-7.09.46-14.17.55-8.33,1-12.13,1.1-13l-4-16.18.13-.3c.16-.37,3.86-9.22,6.93-13.06C130.6,20.4,150.13.2,159.19.2s30.31,20.48,40.41,34c2.63,3.52,5.22,11.71,5.33,12.06l.08.26-4,16.13c.1.86.55,4.66,1.1,13,.46,7.08.45,14.1.45,14.17ZM179.82,81.8l20.77,6.66c0-2.37-.11-7.5-.45-12.66-.61-9.32-1.11-13-1.11-13l0-.18,3.93-16c-.46-1.43-2.76-8.28-4.93-11.2C187.08,20.78,166.62,2.2,159.19,2.2c-7.83,0-26.83,19.21-37.2,32.19-2.6,3.24-5.85,10.69-6.53,12.28l3.92,15.9,0,.18s-.5,3.73-1.12,13c-.33,5.16-.42,10.29-.44,12.66l20.77-6.66A235.09,235.09,0,0,1,147.21,49c3-8.61,11-25.13,11.08-25.29l.87-1.78.92,1.75c.34.65,8.32,15.92,11.27,24.26C175.2,58.88,178.06,72.28,179.82,81.8Z"/><path class="cls-3" d="M293.79,139.18c-9.37,9.54-21.49,15.33-34.84,15.33-14,0-26.62-6.36-36.16-16.73a99.68,99.68,0,0,0-7.37,9.1,24.84,24.84,0,0,1,6.94,12.24c15.24,1.16,28.37,7.25,36.3,15.58C270.58,164,289.81,158,310,161.41,305.46,152.59,300,145.8,293.79,139.18Zm-58.45-15.13,6.26,20.88a39.87,39.87,0,0,0,33.34.62l6.57-21.92A155.57,155.57,0,0,1,235.34,124.05Zm-6.17-1-2.23-.47c-1.25,2.18-2.58,4.36-4,6.56a52.53,52.53,0,0,0,11.55,11.6Zm58.53-.5-5.77,19.24a55.27,55.27,0,0,0,18.92-22.5Q294.39,121.18,287.7,122.52ZM259,29.72a40.55,40.55,0,0,0-19.63,5.12,104.53,104.53,0,0,1,4,31.86c5-1.71,9.94-3.69,15-5.94l1.23-.55,1.2.62C275.56,68.54,290,73.15,306,74.77,300.65,48.71,281.41,29.72,259,29.72Z"/><path class="cls-2" d="M258.6,176.09l-.67-.7c-8.06-8.48-21.39-14.19-35.64-15.27l-.74-.06-.16-.71a23.89,23.89,0,0,0-6.67-11.75l-.61-.59.49-.71a98.73,98.73,0,0,1,7.45-9.19l.73-.81.74.8c9.74,10.58,22.32,16.41,35.43,16.41,12.49,0,24.61-5.34,34.12-15l.73-.74.72.76A97.27,97.27,0,0,1,310.88,161l-1.06,1.44c-18.64-3.17-38,1.82-50.49,13Zm-35.44-17.91c14.28,1.24,27.14,6.72,35.55,15.14,12.51-10.78,31.2-15.75,49.46-13.2a95.13,95.13,0,0,0-14.41-19.5c-9.78,9.61-22.1,14.89-34.81,14.89-13.34,0-26.14-5.76-36.14-16.25a93.87,93.87,0,0,0-6.08,7.52A25.76,25.76,0,0,1,223.16,158.18ZM259,149.9a41.2,41.2,0,0,1-17.78-4.07l-.4-.19-6.84-22.8,1.56.23a154.87,154.87,0,0,0,45.87-.43l1.57-.25-7.17,23.9-.43.18A41.28,41.28,0,0,1,259,149.9Zm-16.52-5.69a38.84,38.84,0,0,0,31.68.61l6-20a156.78,156.78,0,0,1-43.35.4Zm40.05-1.62L281,141.47l5.94-19.81.59-.12c4.43-.89,8.82-2,13.06-3.24l1.19,1.39A56.15,56.15,0,0,1,282.48,142.59Zm6-19.21-4.76,15.88a54.42,54.42,0,0,0,15.22-18.41C295.52,121.81,292,122.66,288.48,123.38Zm-54.59,18.14a53.4,53.4,0,0,1-11.76-11.82l-.41-.56.38-.58c1.38-2.12,2.71-4.31,4-6.5l.36-.64.89.19,2,.43.59.11,5.49,18.27Zm-9.74-12.45a51.88,51.88,0,0,0,8.47,8.94l-4.24-14.13-.94-.2C226.39,125.5,225.28,127.3,224.15,129.07Zm83.06-53.16-1.35-.14c-15.75-1.6-30.24-6.07-45.61-14l-.77-.4-.79.35c-5.07,2.27-10.15,4.28-15.08,6l-1.36.47,0-1.44a103.88,103.88,0,0,0-3.93-31.55l-.22-.77.7-.39A41.37,41.37,0,0,1,259,28.72c22.76,0,42.49,18.85,48,45.86ZM259.55,59.1l1.62.84c14.69,7.63,28.56,12,43.53,13.69C299,48.29,280.37,30.72,259,30.72a39.27,39.27,0,0,0-18.45,4.62,105.9,105.9,0,0,1,3.82,29.94c4.44-1.57,9-3.4,13.55-5.44Z"/><path class="cls-4" d="M309.31,80.64a127.73,127.73,0,0,1-50-14.24Q251.11,70,243,72.73c-.19,2.26-.45,4.59-.82,7h1.11v30.52h-5.61V98.73a126.65,126.65,0,0,1-7.82,18.55c24.92,4.86,55.23,2.7,79.85-7.07A46.82,46.82,0,0,1,309.31,80.64ZM260.9,114.72h-5.61V76.36h5.61Zm17.1-4.48h-5.61V79.72H278ZM294.82,108h-5.61V84.19h5.61Z"/></g></g></svg>