<svg xmlns="http://www.w3.org/2000/svg" viewBox="0 0 309.93 199.8"><defs><style>.cls-1,.cls-3,.cls-4{fill:#df0b13;}.cls-2{fill:#fff;}.cls-3,.cls-4{fill-rule:evenodd;}.cls-4{stroke:#fff;stroke-miterlimit:2;}</style></defs><title>Group_1</title><g id="Layer_2" data-name="Layer 2"><g id="Layer_1-2" data-name="Layer 1"><path class="cls-1" d="M94.46,160,79.31,129.44,61.42,138.1v9.5h6.71L71.48,161H95ZM39.62,129.44,24,161H47.45L50.8,147.6h6.7v-9.5Zm50.7-5.37-6.83,3.41L96.72,154.4a23.37,23.37,0,0,1,9.48-9.08A107.84,107.84,0,0,1,90.32,124.07ZM20.9,120.21,3,147l17,11.74,15.37-31.3ZM12.8,116,.5,126.92v15.66L16.7,118Zm51.41-12.58-4.46,2.23-4.48-2.23L50.8,129.72l9,4.46,8.93-4.46Zm20.43,9.06-13.81,5.68,1.48,9.57L88,119.83C86.8,117.41,85.66,115,84.64,112.51Zm-62.91-5.15-2.23-4.47H15v8.94l31.58,15.93,1.49-9.57Zm56-17.88H74.83l-6.7,6.7v2.24h5l5.29-5.29C78.16,91.91,77.9,90.68,77.68,89.48Zm-33.59,0H36.82l9,8.94h5V96.18Zm-13.69,0H21.46l8.94,8.94h8.94ZM15,89.48H10.55v8.94H23.69ZM75.84,49.93a41.79,41.79,0,0,0-7.71-.7V89.48L72.6,85h4.29A143.13,143.13,0,0,1,75.84,49.93ZM15,85h31.3l4.47,4.48V49.23C29.75,49.23,15,64,15,85ZM55.27,40.28V98.42l4.48,2.23,4.46-2.23V40.28Z"/><path class="cls-2" d="M95,161.51H71.48l-.48-.38-3.26-13H61.42l-.5-.5v-9.5l.28-.45L79.09,129l.66.22,15.66,31.58Zm-23.08-1H94.15l-.14-.29L79.08,130.1l-17.16,8.31v8.69h6.21l.48.38Zm-24.43,1H24l-.44-.72,15.64-31.58.66-.22,17.89,8.66.28.45v9.5l-.5.5H51.19l-3.26,13Zm-22.67-1H47.06l3.26-13,.48-.38H57v-8.69L39.84,130.1Zm-5-1.32-17-11.74-.13-.69,17.88-26.83.64-.17L35.65,127l.23.66L20.51,159ZM3.7,146.91,19.86,158l14.9-30.33-13.69-6.85Zm93.45,7.74-.88,0L83,127.7l.23-.66,6.83-3.42.66.2A107.65,107.65,0,0,0,106.56,145l-.16.81A23,23,0,0,0,97.15,154.65Zm-13-26.94,12.6,25.64a24.08,24.08,0,0,1,8.61-8.17,109,109,0,0,1-15.25-20.46ZM.92,142.85,0,142.58V126.92l.17-.37,12.3-10.9.55-.07,3.91,2,.19.72ZM1,127.15v13.76l15-22.74-3.1-1.54Zm58.52,7.48-8.94-4.47-.27-.53,4.47-26.27.71-.36,4.26,2.12L64,103l.72.36,4.46,26.27-.27.53L60,134.63Zm-8.16-5.2,8.39,4.19,8.37-4.19L63.83,104.2,60,106.13h-.45l-3.87-1.93Zm21.18-1.22-.72-.37-1.49-9.58.31-.54,13.81-5.67.65.27c1,2.43,2.16,4.89,3.39,7.28l-.22.68Zm-1.16-9.71L72.7,127l14.67-7.4c-1.08-2.13-2.09-4.29-3-6.45Zm-25,9.71L14.81,112.28l-.28-.45v-8.94l.5-.5H19.5l.44.27L22.09,107l26.2,10.75.3.54-1.49,9.58ZM15.53,111.52,46.22,127l1.32-8.51-26-10.67-.26-.24-2.09-4.2H15.53Zm44-10.42-4.47-2.23-.28-.45V40.28l.5-.5h8.94l.5.5V98.42l-.27.45L60,101.1Zm-3.75-3,4,2,4-2V40.78H55.77Zm17.39.81h-5l-.5-.5V96.18l.15-.36,6.69-6.7.36-.14h2.85l.5.41c.21,1.21.47,2.42.76,3.62l-.13.47-5.3,5.29Zm-4.53-1H73l5-5c-.23-1-.44-2-.63-3H75l-6.41,6.4Zm-17.83,1h-5l-.36-.15-8.94-8.94.35-.85h7.27l.36.14,6.71,6.7.14.36v2.24Zm-4.83-1H50.3V96.38L43.89,90H38Zm-6.63,1H30.4l-.35-.15-8.94-8.94.35-.85H30.4l.36.14,8.93,8.95Zm-8.73-1h7.52L30.2,90H22.67Zm-6.92,1H10.55l-.5-.5V89.48l.5-.5H15l.36.15,8.66,8.94Zm-12.64-1H22.51L14.82,90H11.05Zm39.4-8.09L46.12,85.5H15l-.5-.5c0-21.36,14.92-36.27,36.27-36.27l.5.5V89.48ZM15.53,84.5h30.8l.35.15,3.62,3.62V49.73C30,50,15.76,64.17,15.53,84.5Zm53,5.33-.85-.35V49.23l.5-.5a42.46,42.46,0,0,1,7.8.71l.41.54a141.74,141.74,0,0,0,1,34.94l-.49.58H72.8Zm.15-40.1V88.27l3.61-3.62.36-.15h3.71a143,143,0,0,1-1-34.16A41.56,41.56,0,0,0,68.63,49.73Z"/><path class="cls-1" d="M94.75,1c-1.78,0-3.7,9.88-5.68,18.46l13.84,43.42-16.79-30c-1.26,6.16-2.33,12.3-3,18.39l18.56,25L82.39,60.5a93.72,93.72,0,0,0,.47,14.14l19.57,15.74L84.85,84.67A95.7,95.7,0,0,0,89.06,96.3l17.56,11.59L93.69,106c6,11.59,12.82,22.45,16.64,31.18a65.59,65.59,0,0,1,4.7,12.11c1.67,6.75-2,15.45-9.15,16.48,5.28-6.15,5.7-10.11,4.74-14-5.7-.08-8.22,6.84-8.22,6.84s-5.39,10.1,6.76,25.53A37.08,37.08,0,0,0,138,198.79s-1-23.67-.44-34.38,3.59-30,3.59-30-8.6,0-18.25-6.79c-12.11-8.58-7.53-14-10.6-22-6.2-16-2-40.91-2-40.91s-4.67-18.31-7.67-31.31C100.16,22.66,96.08,1,94.75,1ZM222.63,1c-1.33,0-5.4,21.66-7.89,32.43-3,13-7.68,31.31-7.68,31.31s4.19,24.92-2,40.91c-3.07,7.94,1.51,13.39-10.6,22-9.66,6.83-18.25,6.79-18.25,6.79s3.06,19.18,3.59,30-.45,34.38-.45,34.38a37.11,37.11,0,0,0,28.89-14.61c12.14-15.43,6.76-25.53,6.76-25.53s-2.53-6.92-8.22-6.84c-1,3.88-.55,7.84,4.74,14-7.2-1-10.82-9.73-9.15-16.48a65.59,65.59,0,0,1,4.7-12.11c3.81-8.73,10.69-19.59,16.64-31.18l-12.93,1.86L228.32,96.3a94.12,94.12,0,0,0,4.22-11.63L215,90.38l19.57-15.74A92.43,92.43,0,0,0,235,60.5L215.71,76.33l18.57-25c-.68-6.09-1.75-12.23-3-18.39l-16.79,30,13.84-43.42C226.33,10.88,224.42,1,222.63,1Zm-63.94.2c-8.33,0-27.56,19.52-38,32.56-3,3.78-6.79,12.83-6.79,12.83l4,16s-.5,3.63-1.12,13.11c-.47,7.13-.46,14.11-.46,14.11l22.65-7.27a233.52,233.52,0,0,1,8.71-33.2c3-8.66,11-25.19,11-25.19S167,40,169.9,48.31c3.92,11.09,6.8,24.72,8.54,34.26l22.65,7.27s0-7-.45-14.11c-.62-9.48-1.12-13.11-1.12-13.11l3.95-16s-2.62-8.33-5.17-11.76C187.94,20.92,167,1.2,158.69,1.2Zm0,33.15a172.61,172.61,0,0,0-6.61,21.8C150.24,65.1,147,84.8,147,84.8s5.15,5.13,2.44,7.85-7.33-2.45-7.33-2.45l-24.26,7.36,1.43,5.69,22.83,8.53s4.59-5.21,7.33-2.45-2.44,10.3-2.44,10.3,1.67,6.91,2.58,10.34c1.48,5.6,4.69,16.73,4.69,16.73l4.45,1.23,4.45-1.23s2.93-10.41,4.32-15.63c1-3.8,3-11.44,3-11.44s-5.19-7.54-2.45-10.3,7.33,2.45,7.33,2.45l22.83-8.53,1.44-5.69L175.3,90.2s-4.62,5.17-7.33,2.45,2.45-7.85,2.45-7.85-3.25-18.2-5.12-28.3c-1.83-9.87-6.61-22.15-6.61-22.15Zm0,58.64c2.16,0,3.91,3.51,3.91,7.84s-1.75,7.86-3.91,7.86-3.91-3.52-3.91-7.86S156.53,93,158.69,93Z"/><path class="cls-2" d="M179.89,199.8h-.6l-1,0,0-1c0-.24,1-23.75.45-34.29s-3.55-29.7-3.58-29.89l-.19-1.16h1.18c.1,0,8.43-.07,17.67-6.61,8-5.64,8.35-9.69,8.8-14.38a25.32,25.32,0,0,1,1.45-7.13c6-15.55,2-40.13,2-40.38l0-.21.05-.2c0-.19,4.7-18.46,7.68-31.29.7-3,1.51-6.89,2.38-11C220.68.88,221.23,0,222.63,0c2.13,0,3.22,4,5.79,15.4.29,1.29.58,2.58.87,3.84l.06.26L218.43,53.78l13.28-23.72.54,2.64c1.42,6.94,2.41,13,3,18.48l0,.39-14,18.84,14.56-12,.08,2a92.66,92.66,0,0,1-.47,14.3l0,.41L219.83,87.75,234,83.14l-.51,1.8a94.35,94.35,0,0,1-4.26,11.76l-.12.27L215,106.26l10.43-1.49-.88,1.72c-2.5,4.86-5.13,9.55-7.68,14.09-3.46,6.17-6.74,12-8.94,17a65.91,65.91,0,0,0-4.64,12,14.4,14.4,0,0,0,2,11,10.28,10.28,0,0,0,3.38,3.21c-3.78-5.37-3.66-9.06-2.87-12.24l.18-.75h.89c6,0,8.74,6.66,9,7.44.5,1,5.15,11.25-6.89,26.55A38,38,0,0,1,179.89,199.8Zm-2.54-64.45c.66,4.24,3,19.75,3.44,29s-.23,28.71-.41,33.42a36.75,36.75,0,0,0,27.06-14.22c11.54-14.66,6.71-24.35,6.66-24.44l0-.12c0-.06-2.11-5.6-6.49-6.15-.63,3.4.07,6.9,4.71,12.3l1.73,2-2.63-.37a11.13,11.13,0,0,1-7.74-5.07,16.29,16.29,0,0,1-2.24-12.64,66.94,66.94,0,0,1,4.77-12.32c2.22-5.07,5.52-10.94,9-17.16,2.23-4,4.53-8.08,6.75-12.3l-15.42,2.21,21-13.88A97,97,0,0,0,231,86.21L210.09,93l23.49-18.89a90.28,90.28,0,0,0,.48-11.56l-24,19.69L233.24,51c-.53-4.62-1.33-9.64-2.42-15.26L210.53,72l16.75-52.56c-.27-1.18-.54-2.38-.81-3.58-1.09-4.85-2.54-11.28-3.62-13.31-1.1,2.93-3.18,12.73-4.74,20.12-.87,4.09-1.69,8-2.4,11-2.8,12.13-7.11,29.08-7.63,31.13.42,2.62,3.9,25.76-2.1,41.23a23.31,23.31,0,0,0-1.31,6.59c-.48,5-.93,9.66-9.65,15.82A36.75,36.75,0,0,1,177.35,135.35ZM137.5,199.8a38.06,38.06,0,0,1-29.13-15c-12-15.3-7.39-25.56-6.89-26.55.3-.78,3-7.44,9-7.44h.88l.19.75c.78,3.18.91,6.87-2.88,12.24a10.23,10.23,0,0,0,3.39-3.21,14.46,14.46,0,0,0,2-11,65,65,0,0,0-4.63-11.9c-2.22-5.08-5.49-10.91-9-17.08-2.55-4.53-5.18-9.23-7.68-14.09l-.88-1.72,10.42,1.49L88.27,97l-.12-.27a96.14,96.14,0,0,1-4.27-11.76l-.51-1.8,14.19,4.61L81.91,75.17l0-.41a95.23,95.23,0,0,1-.47-14.3l.08-2L96,70.41l-14-18.84,0-.39c.62-5.5,1.61-11.55,3-18.48l.54-2.64L99,53.78,88,19.5l.07-.26L89,15.41C91.53,4,92.62,0,94.75,0c1.4,0,2,.88,6.48,22.21.87,4.09,1.69,8,2.39,11,3,12.83,7.63,31.1,7.67,31.29l0,.2,0,.21c0,.25-4.07,24.83,2,40.38a24.94,24.94,0,0,1,1.44,7.13c.45,4.69.84,8.74,8.81,14.38,9.24,6.54,17.57,6.61,17.67,6.61h1.17l-.18,1.16c0,.19-3.07,19.24-3.58,29.89s.43,34,.44,34.29l0,1-1,0Zm-27.68-47c-4.39.54-6.46,6.09-6.48,6.15l-.06.12c0,.1-4.87,9.78,6.67,24.44A36.69,36.69,0,0,0,137,197.79c-.17-4.71-.85-24.08-.4-33.43s2.78-24.77,3.43-29a36.82,36.82,0,0,1-17.67-6.92c-8.71-6.16-9.16-10.85-9.64-15.82A23.35,23.35,0,0,0,111.4,106c-6-15.47-2.52-38.61-2.1-41.23-.52-2.05-4.82-19-7.63-31.13-.7-3.06-1.52-6.93-2.39-11-1.57-7.38-3.65-17.17-4.74-20.1C93.46,4.56,92,11,90.92,15.84c-.27,1.2-.54,2.4-.81,3.58L106.86,72,86.57,35.75c-1.1,5.62-1.89,10.64-2.42,15.26l23.16,31.24-24-19.69a88.5,88.5,0,0,0,.48,11.56L107.3,93l-21-6.8a96.05,96.05,0,0,0,3.52,9.42l21,13.88L95.47,107.3c2.21,4.22,4.52,8.32,6.75,12.31,3.49,6.21,6.79,12.08,9,17.2A65.17,65.17,0,0,1,116,149.07a16.31,16.31,0,0,1-2.24,12.65,11.16,11.16,0,0,1-7.74,5.07l-2.63.37,1.73-2C109.76,159.75,110.46,156.25,109.82,152.85ZM158.69,149l-5.25-1.45-.16-.54c0-.11-3.23-11.21-4.7-16.75-.9-3.41-2.57-10.29-2.58-10.36l-.11-.44.25-.36c1.54-2.24,4.19-7.4,2.56-9a1.52,1.52,0,0,0-1.26-.51c-1.71,0-3.91,2.12-4.61,2.91l-.45.52-24-9-1.8-7.12,25.79-7.82.43.47c.71.79,2.93,2.87,4.65,2.91a1.64,1.64,0,0,0,1.22-.5c.77-.76.64-2-.36-3.73a15.07,15.07,0,0,0-2.08-2.7l-.36-.37.08-.5c0-.2,3.29-19.83,5.12-28.69a175.74,175.74,0,0,1,6.66-22l.22-.58.62-.06c.89-.07,1-.09,3.66,8.06a122.44,122.44,0,0,1,4,14.91c1.84,10,5.08,28.12,5.11,28.3l.09.52-.37.37c-1.15,1.15-4.07,4.8-2.44,6.44a1.67,1.67,0,0,0,1.23.49c1.71,0,3.94-2.12,4.65-2.91l.42-.47,25.79,7.82L199,104l-24,9-.46-.52c-.7-.79-2.89-2.86-4.61-2.92a1.66,1.66,0,0,0-1.26.52c-1.63,1.63,1,6.79,2.56,9l.26.37-.11.44c0,.07-1.95,7.68-3,11.45-1.38,5.17-4.3,15.54-4.33,15.64l-.15.55Zm-3.64-3.08,3.64,1,3.64-1c.62-2.21,3-10.6,4.17-15.07.86-3.24,2.41-9.34,2.84-11-1.16-1.78-5-8.24-2.07-11.2a3.6,3.6,0,0,1,2.74-1.09c2.3.07,4.58,2.09,5.56,3.08l21.72-8.12,1.08-4.25L175.6,91.33c-1,1-3.31,3-5.63,3.11a3.61,3.61,0,0,1-2.7-1.08c-1-1-1.84-2.93,0-6.16a16.21,16.21,0,0,1,2-2.72c-.54-3-3.35-18.74-5-27.8a137.88,137.88,0,0,0-5.62-19.44,161.52,161.52,0,0,0-5.64,19.11c-1.66,8.05-4.51,25-5,28.12a18.08,18.08,0,0,1,2,2.73c1.89,3.23,1.07,5.13.05,6.16a3.52,3.52,0,0,1-2.7,1.08c-2.33-.06-4.66-2.13-5.64-3.11L119,98.24l1.07,4.25,21.72,8.12c1-1,3.27-3,5.57-3.08a3.61,3.61,0,0,1,2.74,1.1c2.95,3-.92,9.43-2.08,11.19.38,1.56,1.71,7,2.47,9.9C151.79,134.54,154.39,143.6,155.05,145.89Zm3.64-36.21c-2.79,0-4.91-3.8-4.91-8.85S155.9,92,158.69,92s4.91,3.8,4.91,8.84S161.49,109.68,158.69,109.68Zm0-15.69c-1.37,0-2.91,2.93-2.91,6.84s1.54,6.85,2.91,6.85,2.91-2.93,2.91-6.85S160.07,94,158.69,94Zm43.4-2.78-24.52-7.87-.11-.59c-1.73-9.48-4.61-23.1-8.5-34.11-2.31-6.55-8-17.86-10.23-22.21C156.57,31,151,42.87,148.59,49.7a232.27,232.27,0,0,0-8.66,33.05l-.11.59L115.3,91.21V89.84c0-.07,0-7.09.46-14.17.55-8.33,1-12.13,1.1-13l-4-16.18.13-.3c.16-.37,3.86-9.22,6.93-13.06C130.1,20.4,149.63.2,158.69.2s30.31,20.48,40.41,34c2.63,3.52,5.22,11.71,5.33,12.06l.08.26-4,16.13c.1.86.55,4.66,1.1,13,.46,7.08.45,14.1.45,14.17ZM179.32,81.8l20.77,6.66c0-2.37-.11-7.5-.45-12.66-.61-9.32-1.11-13-1.11-13l0-.18,3.93-16c-.46-1.43-2.76-8.28-4.93-11.2C186.58,20.78,166.12,2.2,158.69,2.2c-7.83,0-26.83,19.21-37.2,32.19-2.6,3.24-5.85,10.69-6.53,12.28l3.92,15.9,0,.18s-.5,3.73-1.12,13c-.33,5.16-.42,10.29-.44,12.66l20.77-6.66A235.09,235.09,0,0,1,146.71,49c3-8.61,11-25.13,11.08-25.29l.87-1.78.92,1.75c.34.65,8.32,15.92,11.27,24.26C174.7,58.88,177.56,72.28,179.32,81.8Z"/><path class="cls-3" d="M293.29,139.18c-9.37,9.54-21.49,15.33-34.84,15.33-14,0-26.62-6.36-36.16-16.73a99.68,99.68,0,0,0-7.37,9.1,24.84,24.84,0,0,1,6.94,12.24c15.24,1.16,28.37,7.25,36.3,15.58,11.92-10.7,31.15-16.73,51.33-13.29C305,152.59,299.48,145.8,293.29,139.18Zm-58.45-15.13,6.26,20.88a39.87,39.87,0,0,0,33.34.62L281,123.63A155.57,155.57,0,0,1,234.84,124.05Zm-6.17-1-2.23-.47c-1.25,2.18-2.58,4.36-4,6.56A52.53,52.53,0,0,0,234,140.71Zm58.53-.5-5.77,19.24a55.27,55.27,0,0,0,18.92-22.5Q293.89,121.18,287.2,122.52Zm-28.75-92.8a40.55,40.55,0,0,0-19.63,5.12,104.53,104.53,0,0,1,4,31.86c5-1.71,9.94-3.69,15-5.94l1.23-.55,1.2.62c14.85,7.71,29.33,12.32,45.25,13.94C300.15,48.71,280.91,29.72,258.45,29.72Z"/><path class="cls-2" d="M258.13,175.4l-.33-.35c-8.15-8.57-21.6-14.34-36-15.43l-.36,0-.09-.36a24.3,24.3,0,0,0-6.8-12l-.31-.3.25-.35a99,99,0,0,1,7.41-9.14l.37-.41.37.4C232.48,148.13,245.2,154,258.45,154c12.62,0,24.87-5.39,34.48-15.18l.36-.37.36.38a96.61,96.61,0,0,1,16.28,22.35l-.53.72c-18.78-3.21-38.29,1.84-50.91,13.16Zm-35.87-16.75c14.49,1.18,27.54,6.76,35.93,15.36,12.62-11.1,31.8-16.13,50.39-13.25a96,96,0,0,0-15.3-20.86c-9.75,9.75-22.1,15.11-34.83,15.11-13.37,0-26.19-5.85-36.16-16.49a99.35,99.35,0,0,0-6.72,8.31A25.25,25.25,0,0,1,222.26,158.65Zm36.19-9.25a40.8,40.8,0,0,1-17.56-4l-.2-.09-6.55-21.84.78.11a155.13,155.13,0,0,0,46-.43l.79-.12-6.87,22.91-.22.09A40.63,40.63,0,0,1,258.45,149.4Zm-16.93-4.83a39.3,39.3,0,0,0,32.5.61l6.29-20.94a156,156,0,0,1-44.76.42Zm40.18-2.4-.75-.56,5.85-19.52.3-.06c4.44-.89,8.85-2,13.11-3.25l.59.69A55.61,55.61,0,0,1,281.7,142.17ZM287.59,123l-5.28,17.59a54.77,54.77,0,0,0,17.1-20.48C295.55,121.17,291.58,122.14,287.59,123Zm-53.91,18.16A52.62,52.62,0,0,1,222,129.4l-.2-.28.19-.29c1.38-2.13,2.72-4.32,4-6.52l.18-.32.54.11,2.05.43.29,0,5.4,18Zm-10.64-12a52.21,52.21,0,0,0,10,10.31l-4.78-16-1.59-.33C225.53,125.13,224.3,127.13,223,129.09Zm83-53.75-.68-.07c-15.68-1.6-30.12-6-45.43-14l-1-.51-1,.45c-5.06,2.26-10.11,4.27-15,6l-.68.24,0-.73A104.47,104.47,0,0,0,238.34,35l-.11-.38.35-.2a40.86,40.86,0,0,1,19.87-5.18c22.52,0,42.05,18.69,47.5,45.45ZM259,59.65l1.41.74c15,7.77,29.1,12.17,44.39,13.82-5.54-25.94-24.53-44-46.38-44a39.86,39.86,0,0,0-19,4.87A105.07,105.07,0,0,1,243.3,66c4.68-1.63,9.48-3.54,14.28-5.69Z"/><path class="cls-4" d="M308.81,80.64a127.73,127.73,0,0,1-50-14.24q-8.23,3.63-16.38,6.33c-.19,2.26-.45,4.59-.82,7h1.11v30.52h-5.61V98.73a126.65,126.65,0,0,1-7.82,18.55c24.92,4.86,55.23,2.7,79.85-7.07A46.82,46.82,0,0,1,308.81,80.64ZM260.4,114.72h-5.61V76.36h5.61Zm17.1-4.48h-5.61V79.72h5.61ZM294.32,108h-5.61V84.19h5.61Z"/></g></g></svg>