<svg xmlns="http://www.w3.org/2000/svg" viewBox="0 0 406.02 460.71"><title>Hezrou</title><g id="ace7bf17-065f-4e87-9b19-52d1333cbd2e" data-name="Layer 2"><g id="a5510bcb-70ac-4022-94b4-4fe5ad452f10" data-name="Layer 1"><path d="M315.54,217l-.77.41c-.23.1-.46.23-.68.35s-.61.34-.88.51-.28.17-.41.25v0c1.64-.94,3.48-1.84,5.46-2.75C317.25,216.19,316.35,216.59,315.54,217Zm19.17-10.41s0,0,0,0a36.64,36.64,0,0,1-3,2.78c.56-.29,1.12-.6,1.66-.92a4.79,4.79,0,0,1,.93-.41,3.39,3.39,0,0,1,.43-.11c.57-1.16,1.18-2.3,1.78-3.43a.06.06,0,0,1,0-.05C335.94,205.23,335.32,205.93,334.71,206.58Zm-15.27,72.24L297.3,257.08c.94-.25,1.85-.45,2.73-.62.28,0,.56-.11.83-.14l.78-.12c.33-.06.65-.11,1-.14l.49-.05.95-.09c.18,0,.37,0,.54,0l.82,0c-.77-.11-1.53-.17-2.26-.22-.28,0-.52,0-.79,0a31.05,31.05,0,0,0-5.72.28c1.57,6.72-14.24,14.63-14.24,14.63-3.16,0-3.16,13.43-3.16,13.43l-7.91-18.17c-1.52-2.29,4.91-14.29,9.72-22.61a15.28,15.28,0,0,1,11.33-7.37,14.35,14.35,0,0,0,2-.42,5,5,0,0,0,.58-.15l-.89.17c-.34.07-.68.14-1,.18-.72.13-1.41.24-2.09.33l-1.71.21c-3,.35-5.17.41-5.17.41C264.62,233.9,263.57,206,263.57,206s14.22-6.33,11.07-13.69,29.51-21.08,29.51-21.08a103.34,103.34,0,0,0,44.78,12.64,1.78,1.78,0,0,0-.65.48,3,3,0,0,0-.31.4,2.87,2.87,0,0,0-.2.39,7.8,7.8,0,0,0-.67,2.2,42.2,42.2,0,0,1,4.46-5.05c17.4-16.33-10.52-51.11-20-36.36s-30,7.39-30,7.39-4.21,22.12-50.06,31.08-64.28-49.53-79-54.27S155,157.5,155,157.5l-26.89,13.7,1.06,21.08,19,16.85L99.12,236.88l0,0c0,.14.06.28.08.42s0,.28.06.41.05.53.06.78c0,.08,0,.16,0,.24,0,.25,0,.5,0,.73s0,.31-.08.47a3,3,0,0,1-.08.35,1.66,1.66,0,0,1-.12.31,2.38,2.38,0,0,1-.23.41.05.05,0,0,0,0,0,1.24,1.24,0,0,1-.28.28,1.67,1.67,0,0,1-.39.23h0a1.34,1.34,0,0,1-.4.13.86.86,0,0,1-.28,0l-.23,0h-.61c-.07,0-.15,0-.25,0l-.24,0-.08,0a.52.52,0,0,1-.17,0,1.25,1.25,0,0,1-.26-.07,3.43,3.43,0,0,1-.58-.17,14.28,14.28,0,0,1-1.59-.64S11.71,288.16,71.26,343L83.9,358.25l-13.84,35.5a9.3,9.3,0,0,1-7.15,5.82C51.29,401.49,23.6,407.53,17,422c0,0-17.91,0-15.81,22.13l15.81-9s-2.64,22.13,2.12,24.24l10.52-20.54s13.19,13.17,33.2-5.28l1.58,21.08,7.38-7.91S76,452.57,85,442c5.81-6.84,15.39-9.24,21.41-10.08a9.39,9.39,0,0,0,7.51-6l3.76-10.23,3.65-4.56a9.38,9.38,0,0,0,1.9-7.42c-1.71-10.2-5-36.49,6-42.82,0,0,6.85,0,5.27-7.37h0v0l.06.06s0,0,.05.06a.73.73,0,0,1,.09.13l.22.28c.46.55,1.23,1.48,2.26,2.55l.45.45a3.19,3.19,0,0,0,.26.26,29.62,29.62,0,0,0,5.18,4.18,12.8,12.8,0,0,0,1.18.68,8.86,8.86,0,0,0,.87.44,5,5,0,0,0,.63.27,12,12,0,0,0,1.9.62l4.21,17.39,26.87,22.65s15.82,23.19,33.2-1.57c0,0-10,2.1-16.85-4.76,0,0,9-12.64-20.56-24.23L173,363.52s-11.6-30.57,17.9-3.7l6.86,19S213.51,380.91,214,393l10.54,9s30.57,2.1,7.38-37.94l-1.58,8.42s-5.8-20-17.16-22.88c0,0,2.4-39.82,19.8-31.91,0,0-2.64,8.42,10,13.17,0,0,5.26,17.38-2.65,20.55h.11a.34.34,0,0,0,.13,0c1.23-.17,7.3-1.13,10.52-4.08a6.83,6.83,0,0,0,1.36-1.69l24.95,34.92a9.15,9.15,0,0,1,1.67,4.36l.39,3.33a9.32,9.32,0,0,0,8.42,8.22c4.8.4,10.73,1.44,14.1,4,6.33,4.75,31.62,14.77,47.43,10s21.6,12.12,21.6,12.12.53-13.7-4.73-18.44c0,0,22.11,1.05,23.71,7.89l-4.23-16.85L380,393.55s-3.17-14.22-11.06-9.49c0,0-8.44-9-20.56-3.68,0,0-10-6.33-17.9-2.63l-14-17.23A9.32,9.32,0,0,1,321,345.74a9.36,9.36,0,0,0,3.72-2.21L335,333.64a9.38,9.38,0,0,0,2.75-8l-.38-2.68a9.34,9.34,0,0,1,1.61-6.7l3.7-5.21h0a4.35,4.35,0,0,1-1.73-.19c-9.88,14.23-22.14-3.16-22.14-3.16-15.4-13-10.27-21.34-10.27-21.34,5.92,11.86,16.31-.86,16.31-.86Zm-52.7,39.38A1.5,1.5,0,0,0,266,318a1.53,1.53,0,0,0-.36,0,1.33,1.33,0,0,0-.34.1s0,0-.07,0a1.31,1.31,0,0,0-.36.17,3.33,3.33,0,0,0-.68.45,1.6,1.6,0,0,0-.3.23,7,7,0,0,0-.65.6,3.38,3.38,0,0,0-.26.27,36.68,36.68,0,0,0-4.46,6.27c-.15.24-.29.51-.44.75-.67,1.13-1.26,2.22-1.72,3.11l-.58,1.09c-.1.21-.21.4-.29.57s-.22.43-.28.54a15.91,15.91,0,0,0,.95-6.39c0-.22,0-.45,0-.68a27.66,27.66,0,0,0-.51-3.84c-.06-.34-.14-.68-.21-1s-.16-.67-.23-1-.14-.57-.22-.85a53.8,53.8,0,0,0-1.89-5.55c-.26-.64-.51-1.21-.73-1.71,0,0,0-.07,0-.11a6.29,6.29,0,0,1-.31-.69c-.17-.36-.3-.64-.41-.82a.77.77,0,0,0-.1-.22.41.41,0,0,1,0-.08s0,0,0,0C268.32,310.82,270.43,320.31,266.74,318.2Z" style="fill:#765432"/><path d="M19.55,460.71l-.86-.39c-4.55-2-3.54-17.14-2.92-23.32L.32,445.76l-.14-1.53c-.73-7.66.79-13.61,4.51-17.7A17.77,17.77,0,0,1,16.33,421c7.27-14.53,34.81-20.53,46.42-22.45a8.33,8.33,0,0,0,6.38-5.19l13.63-35L70.53,343.66c-16.21-14.94-23.53-30.77-21.75-47,3.6-32.87,43.7-56.5,44.11-56.73l.45-.26.47.21a12.8,12.8,0,0,0,1.48.6,2.4,2.4,0,0,0,.43.13l.89.19H97l.59-.07.26-.11h0l.18-.19a1.5,1.5,0,0,0,.09-.18,1.45,1.45,0,0,0,.08-.18,1.6,1.6,0,0,0,0-.21l0-.26a2.56,2.56,0,0,1,0-.27c0-.06,0-.23,0-.4v-.28c0-.3,0-.53-.06-.76l0-.16c0-.09,0-.18,0-.26a2.5,2.5,0,0,0-.05-.29l-.11-.52.46-.52.14-.09L146.47,209l-18.24-16.2-1.11-22.15,27-13.74c.35-3.48,2.49-21.35,10.5-26.7a9,9,0,0,1,8.14-1c5,1.6,10,8.49,16.4,17.21,13.27,18.16,31.44,43,62.13,37,44.5-8.7,49.22-30.08,49.26-30.29l.23-1.14,1.09.39c.2.07,19.93,6.91,28.87-7a7.93,7.93,0,0,1,8.08-3.94c6.89.9,14.79,9.35,18,19.23,2.86,8.88,1.31,16.75-4.37,22.19h1.31l-2.37,1a43.43,43.43,0,0,0-3.44,4l-2.46,3.21.68-4a8.92,8.92,0,0,1,.71-2.39A107.35,107.35,0,0,1,304.1,172.3c-7.54,3.21-26.11,12.12-28.46,17.92a2.07,2.07,0,0,0-.08,1.66c3.13,7.31-8.08,13.31-10.95,14.71.32,4.14,2.82,26.6,19.57,28.94.41,0,2.41-.1,5-.4l1.41-.18.28,0c.66-.09,1.34-.2,2-.32.35,0,.66-.11,1-.18l.91-.17.5,1.93a6.59,6.59,0,0,1-.66.18,16.58,16.58,0,0,1-2.12.43,14.25,14.25,0,0,0-10.59,6.88c-10.82,18.7-9.9,21.32-9.76,21.56l.09.15,6.13,14.11c.31-4.44,1.21-9.61,3.74-9.95,4.06-2.07,13.49-7.88,13.63-12.57l-.42-.41.39-.1a1.86,1.86,0,0,0-.06-.34l-.24-1,1.05-.18a32,32,0,0,1,5.93-.29c.19,0,.46,0,.73,0,1,.06,1.73.13,2.42.23l-.14,2-.71,0h-.34l-.55.05-.57.05-.51.05c-.32,0-.62.08-.91.13l-.76.12c-.25,0-.4.06-.56.09l-.31.06-.91.19,20.92,20.56,5.88,7.27-.52.62c-.23.29-5.66,6.87-11.33,6.24a7.69,7.69,0,0,1-5.46-3.56c-.42,3,.38,9.45,10.63,18.13l.17.19c.06.08,6,8.33,12.47,8.33h0c2.94,0,5.62-1.75,8-5.17l.46-.65.73.29h0a3.79,3.79,0,0,0,1.3.12l2.11-.15-4.91,6.94a8.3,8.3,0,0,0-1.43,6l.38,2.68a10.37,10.37,0,0,1-3,8.89l-10.27,9.9a10.32,10.32,0,0,1-4.11,2.44,8.33,8.33,0,0,0-4,13.2l13.5,16.64c7.26-2.86,15.64,1.54,17.69,2.73a19.61,19.61,0,0,1,20.63,3.58,5.9,5.9,0,0,1,5.13-.29c4.09,1.76,6.08,8.18,6.61,10.19l5.79,1.58L391,411.63l0,.13-1.94.47,0-.11c-1.08-4-12.26-6.22-20.45-6.88,3.86,5.89,3.49,16.81,3.47,17.32l-.2,5.32-1.74-5c-.23-.65-5.69-15.88-20.38-11.49-16.12,4.85-41.49-5.05-48.31-10.17-3.27-2.44-9.19-3.4-13.58-3.76a10.34,10.34,0,0,1-9.33-9.1l-.39-3.33a8.34,8.34,0,0,0-1.49-3.9L252.5,347.32c-.21.24-.44.48-.68.71-3.32,3-9.19,4.07-11,4.33l-.21,0a.91.91,0,0,1-.22,0l-4-.4,3.67-1.52c5.61-2.25,3.59-14,2.2-18.87-10.44-4.12-10.63-10.89-10.32-13.32a7.43,7.43,0,0,0-6.85.37c-8.26,5-10.4,25.84-10.76,30.2,8.35,2.71,13.59,13.83,15.82,19.7l1.38-7.35,1.35,2.34c8.7,15,11,26.08,6.77,32.83-4.51,7.24-14.66,6.63-15.09,6.6l-.33,0-11.12-9.46,0-.43c-.48-11.15-15.31-13.26-15.46-13.28l-.6-.08-7-19.31c-12.55-11.4-16.27-11-17.29-10.34-2.08,1.42-.57,8.52,1.17,13.11l.05.19,1.49,8.91c12.33,4.93,19.55,10.67,21.46,17.06a10.5,10.5,0,0,1-.55,7.72c6.35,5.75,15.31,4,15.4,4l2.47-.51-1.45,2.06c-5.52,7.87-11.51,11.86-17.8,11.86h-.1c-9.4-.07-16-9-16.86-10.18l-27-22.78-4.15-17.12c-.5-.15-1-.32-1.45-.51a5,5,0,0,1-.7-.31,9.52,9.52,0,0,1-.91-.45,13.39,13.39,0,0,1-1.23-.72,30.14,30.14,0,0,1-5.34-4.31l-.08-.07a3,3,0,0,1-.25-.26l-.39-.38c-.29-.3-.55-.59-.8-.86a5.73,5.73,0,0,1-1.23,3.06,7.14,7.14,0,0,1-4.94,2.34c-10.38,6.36-6.71,33.47-5.33,41.67a10.39,10.39,0,0,1-2.1,8.2l-3.56,4.44-3.7,10.08a10.39,10.39,0,0,1-8.31,6.68c-5.3.74-15,3-20.78,9.73-3.88,4.56-7.47,6.77-10.63,6.68a5.68,5.68,0,0,1-3.27-1.16L63.57,457,62,435.68c-16.52,14.18-28.55,7.36-32,4.75ZM18.2,433.33l-.23,2c-1,8-1.23,19.51.81,22.54l10.58-20.64,1,1c.51.51,12.79,12.24,31.81-5.3l1.52-1.4,1.57,20.86,6.65-7.13.71,1a3.53,3.53,0,0,0,2.62,1.18h.12c1.75,0,4.68-1.07,8.86-6,5.85-6.9,15.21-9.47,22-10.42a8.39,8.39,0,0,0,6.71-5.39l3.81-10.38,3.76-4.7a8.39,8.39,0,0,0,1.7-6.62c-1.85-11-4.92-37.27,6.51-43.86l.23-.13h.27a5.31,5.31,0,0,0,3.68-1.62,5.09,5.09,0,0,0,.68-4.24l0-.08c0-.07,0-.15,0-.22l-.71-3.31,2.69,2.76,0,.06a2,2,0,0,1,.2.26c.43.5,1.19,1.41,2.17,2.44l.43.43.15.15.12.12a29,29,0,0,0,5,4,12.34,12.34,0,0,0,1.1.64,8.81,8.81,0,0,0,.81.41,5.06,5.06,0,0,0,.58.25,11.83,11.83,0,0,0,1.8.59l.59.15,4.28,17.65,26.72,22.54.08.11c.06.09,6.51,9.37,15.32,9.42H195c5.11,0,10.08-3.08,14.81-9.16-3.53.22-10.25-.17-15.39-5.32l-.6-.6.49-.68a8.17,8.17,0,0,0,.68-6.81c-1.22-4-5.82-10.05-20.78-15.92l-.53-.21L172,363.78c-.87-2.29-4.45-12.61-.39-15.37,3.21-2.19,9.54,1.21,19.94,10.67l.18.17,6.74,18.66c3,.56,15.75,3.6,16.56,14.63L225,401c1.66,0,9.48-.11,12.95-5.69s1.62-15.43-5.47-28.38l-1.85,9.85-1.17-4c0-.2-5.77-19.5-16.44-22.19l-.81-.2.05-.83c.07-1.08,1.71-26.51,11.78-32.58,2.81-1.69,6-1.75,9.43-.18l.8.36L234,318c-.09.3-2.13,7.6,9.41,11.93l.46.18.15.47c.19.62,3.87,13.06,0,19.11a16.05,16.05,0,0,0,6.51-3.12,5.62,5.62,0,0,0,1.17-1.43l.76-1.39,25.88,36.21a10.35,10.35,0,0,1,1.85,4.84l.38,3.32a8.33,8.33,0,0,0,7.52,7.33c4.65.39,11,1.43,14.61,4.16,5.83,4.38,30.89,14.56,46.54,9.86,11.3-3.38,17.79,3.72,20.79,8.62-.29-4.28-1.25-10.49-4.3-13.24L363.57,403l2.8.13c1.88.09,15.43.87,21.65,5l-3-12.1-5.8-1.58-.13-.59c-.48-2.15-2.43-8-5.6-9.38a4.2,4.2,0,0,0-4,.53l-.69.41-.55-.58a17.42,17.42,0,0,0-19.43-3.45l-.48.21-.45-.29c-.1-.06-9.65-6-16.95-2.57l-.71.33-14.47-17.83a10.32,10.32,0,0,1,5-16.37,8.3,8.3,0,0,0,3.31-2l10.26-9.89a8.36,8.36,0,0,0,2.46-7.18l-.38-2.67a10.29,10.29,0,0,1,1.78-7.42l.64-.9a10.13,10.13,0,0,1-6.68,2.67h0c-7.19,0-13.25-8-14-9.07-15.76-13.41-10.61-22.19-10.38-22.56l.94-1.52.8,1.6c1.37,2.75,3.08,4.25,5.08,4.48,3.67.41,7.63-3.4,9-4.92l-4.8-5.93-21.22-20.85c-2,6.25-13.16,12-14.62,12.76l-.21.11h-.23c-1,0-2.16,5.54-2.16,12.43v4.8l-9.79-22.49c-.61-.95-1.77-3.7,9.73-23.59a15.51,15.51,0,0,1,4.88-5.18l-.92,0H284c-20.1-2.71-21.41-31.22-21.42-31.51l0-.67.62-.28c.14-.06,13.29-6,10.56-12.39a4,4,0,0,1,.07-3.2c3.19-7.89,28.88-18.74,30-19.2l.44-.18.42.23a103.11,103.11,0,0,0,44.3,12.52h.63c.45-.47.88-.9,1.32-1.31,7-6.59,5.51-15.53,4-20.26-2.92-9.06-10.25-17.07-16.33-17.87a6,6,0,0,0-6.14,3c-8.56,13.3-25.8,9.37-30.19,8.1-1.48,4.66-9.79,22.83-50.56,30.8-31.92,6.24-50.54-19.22-64.13-37.81-5.92-8.09-11-15.08-15.4-16.49a7.07,7.07,0,0,0-6.41.77c-7.9,5.28-9.65,25.55-9.67,25.76l0,.55-26.81,13.66,1,20,19.71,17.5L100.2,237.42a.69.69,0,0,1,0,.2c0,.26,0,.53.07.78,0,.08,0,.15,0,.22v.2a6.37,6.37,0,0,1,0,.76l0,.28c0,.09,0,.19,0,.29a2.33,2.33,0,0,1-.1.43,1.66,1.66,0,0,1-.14.37,3.94,3.94,0,0,1-.2.41v0l-.19.26a2.29,2.29,0,0,1-.51.52,2.73,2.73,0,0,1-.56.33l-.24.08a1.9,1.9,0,0,1-.39.11,2.5,2.5,0,0,1-.38.06l-.34,0h-.61l-.2,0-.28-.05-.24,0a1.57,1.57,0,0,1-.27-.05,1.18,1.18,0,0,1-.27-.07,3.53,3.53,0,0,1-.67-.21c-.34-.11-.74-.26-1.17-.44-4.32,2.63-39.4,24.92-42.69,55-1.71,15.62,5.41,30.9,21.16,45.39l.1.1,13,15.73L71,394.12a10.4,10.4,0,0,1-7.92,6.44c-11.45,1.89-38.76,7.8-45.2,21.86l-.26.58H17a16.13,16.13,0,0,0-10.83,4.89c-3.07,3.39-4.44,8.29-4.1,14.59ZM96.33,240.71h0Zm159.78,92-1.8-.87a14.84,14.84,0,0,0,.88-6c0-.22,0-.43,0-.64a27.14,27.14,0,0,0-.5-3.72c0-.32-.13-.63-.19-.93l0-.1c0-.2-.08-.4-.13-.6l-.18-.71c0-.15-.07-.3-.11-.46a51.5,51.5,0,0,0-1.86-5.45c-.25-.62-.5-1.19-.71-1.68l0-.09c-.13-.28-.25-.53-.34-.75l-.09-.19c-.09-.2-.17-.37-.24-.49l-.1-.21-.18-.19v-1.53l1.09.11c11.34,1.06,16.75,5.8,17.62,8.74a1.9,1.9,0,0,1-.48,2.18,2,2,0,0,1-2.42-.09.33.33,0,0,0-.35,0l-.34.1-.14.07-.11.05a2.43,2.43,0,0,0-.47.33l-.14.09-.08.07-.09.08a4,4,0,0,0-.53.5l-.1.08-.08.09-.11.11a36,36,0,0,0-4.31,6.07l-.21.37c-.08.14-.16.28-.25.41-.72,1.23-1.31,2.34-1.67,3l-.07.12c-.19.36-.36.68-.5,1l-.15.27-.13.27C256.27,332.43,256.18,332.62,256.11,332.74Zm-3-22.3c0,.07.07.14.1.22l.05.1c.23.53.48,1.11.74,1.75a53.51,53.51,0,0,1,1.93,5.67l.14.53.17.7c.06.24.12.48.16.72s.16.69.22,1a29,29,0,0,1,.52,4c0,.25,0,.5,0,.74s0,.44,0,.65l0-.07c.09-.14.16-.26.22-.37s.16-.28.25-.42a36.36,36.36,0,0,1,4.58-6.42l.08-.09.21-.21a6.59,6.59,0,0,1,.68-.63,3.52,3.52,0,0,1,.39-.31,4.27,4.27,0,0,1,.77-.5,3.86,3.86,0,0,1,.41-.2l.28-.11a2.62,2.62,0,0,1,.38-.09,2.38,2.38,0,0,1,1.64.2,4.43,4.43,0,0,0-.64-1C265.61,315.17,262.15,311.66,253.12,310.44Zm58.67-90.17v-2.14l.64-.56.22-.14c.33-.2.63-.38,1-.55s.48-.27.74-.39.41-.22.68-.36l.07,0c.84-.42,1.78-.84,2.78-1.24l.79,1.84c-2.32,1.07-4,1.9-5.38,2.71Zm12.37-5.74,6.93-5.9c.94-.8,1.85-1.65,2.69-2.52l.2-.22c.56-.59,1.07-1.17,1.55-1.75v0l.31-.33.8.71.89,0v.25l-.12.22c-.59,1.12-1.19,2.26-1.76,3.41l-.24.49-.55.06-.22.06a3.39,3.39,0,0,0-.75.32c-.54.33-1.12.65-1.69.95Z" style="fill:#fff"/><path d="M343.71,310.81h0c1.86-.51,4.36-2.13,6.65-6.7,2.85-5.71,5.36-7.84,6.75-8.63.39-.6.78-1.22,1.18-1.87.15-2.69.88-8.62,4.33-12.49l0,0c1.58-2.37,3.63-4,6.3-3.45l2.74-8.49h0l3.05-9.43s5.8-14.22,4.22-19c0,0,11.59-39,21.59-40.58l-7.36-1.58s9.48-9.49,2.63-19.49c0,0,2.1-19-6.86-21.08,0,0-16.67-15.74-20-24.22a9.71,9.71,0,0,0-2.39-3.36l-8.4-7.85-5.51-5.13V90.57L345.24,99l-4.73-35.84L326.8,77.92s0-19.48-6.32-23.17L314.68,69,288.86,44.74l-3.16,9.49L273.06,37.88l-6.85,5.81-6.85-26.35L253,31.57l-19-25.29s-.53,20-2.11,20C232,26.29,213,1,208.78,1l-1.06,20.55-33.2-15.8.53,17.38L139.22,12.07l10.54,23.18L117.1,26.82l9.47,11.06h-15.8l11.59,14.23-30-4.21,6.31,15.8S70.2,61.07,64.92,65.28l19,10.54-25.82,5.8L79.67,93.74s-24.76,9.48-25.81,19c0,0,21.08-4.73,15.29,4.76s-16.87,13.17-14.77,25.81c0,0,31.63-14.75,10.54,15.81l9,1,4.73,14.22a.93.93,0,0,1,0,.13c-.39,1.33-3.41,13,9,20.43l7.39,20-2.11,7.36s.84,1.46,1.91,3.58a3.71,3.71,0,0,1,.24.49c.45.89.93,1.88,1.4,2.91.24.54.49,1.1.72,1.67a3.08,3.08,0,0,1,.16.38c.26.62.49,1.22.71,1.84.06.14.11.28.16.42.12.34.23.68.34,1s.24.79.34,1.17.2.76.26,1.12a7.7,7.7,0,0,1,.12,3.2v0c.64,11.55,4.34,51.31,25.77,75.44,0,0-6.84,24.77,9.49,37.94h0a16.82,16.82,0,0,1,3.39,3.81c2.47,2.45,6.05,5.33,9.76,6.19l4.21,17.38,26.87,22.66s15.82,23.19,33.2-1.57c0,0-10,2.1-16.85-4.76,0,0,9-12.64-20.56-24.24l-1.58-9.47s-11.59-30.57,17.91-3.7l6.86,19S213.51,380.9,214,393l10.54,9s30.57,2.1,7.38-37.94l-1.58,8.42s-5.8-20-17.16-22.88c0,0,2.4-39.82,19.79-31.91,0,0-2.63,8.42,10,13.17,0,0,5.26,17.38-2.65,20.55,0,0,7.15-.8,10.76-4.11A57.34,57.34,0,0,0,256.39,330c-.59,1.09-1,1.89-1.15,2.2,3.44-8.73-3.44-22.29-3.78-23,0,0,0,0,0,0s-.53-17.91-27.4-21.08c0,0-15.27,1.07-25.81-15.8S178.73,266,178.73,266,176.63,248.65,164,245c0,0-4.21-29-15.8-35.83l-19-16.85-1-21.09L155,157.5s2.63-32.15,17.38-27.4,33.2,63.23,79,54.27,50.05-31.08,50.05-31.08,20.56,7.36,30.05-7.39,37.41,20,20,36.36a41.34,41.34,0,0,0-4.46,5.05,30.38,30.38,0,0,0-.28,6L341,197a31.53,31.53,0,0,1-4.48,7.46,0,0,0,0,0,0,0,0,0,0,0,0,0,0q-.43.54-.9,1c-.31.35-.62.68-.93,1,0,0,0,0,0,0q-.76.81-1.5,1.5c-.5.45-1,.88-1.46,1.28a.07.07,0,0,1,0,0l0,0a27.82,27.82,0,0,1-4.87,3.36c-3.3,1-6,1.94-8.22,2.84l-.13,0-.2.09c-2.12,1-4.09,2-5.82,3a0,0,0,0,0,0,0c-5.27,3.52-4.62,6.77-6.69,10.92h0c-1.44,2.85-6,4.54-10.57,5.5a.58.58,0,0,1-.14,0l-.12,0a2.8,2.8,0,0,1-.36.1l-.1,0c-.21.06-.43.12-.64.16l-.14,0c-.42.1-.83.17-1.25.23a18.8,18.8,0,0,0-2.6.57c-.28.08-.55.18-.83.28a15.16,15.16,0,0,0-5.78,3.71,16.27,16.27,0,0,0-1.14,1.33,15,15,0,0,0-1,1.47c-.19.32-.37.65-.56,1l-1.11,2-1.28,2.31c-.14.26-.28.52-.43.78-.53,1-1.06,2-1.57,2.95-.6,1.17-1.19,2.32-1.73,3.44a.08.08,0,0,1,0,0c-.35.73-.68,1.45-1,2.14a0,0,0,0,1,0,0l-.66,1.51c-.27.68-.52,1.32-.74,1.92-.1.29-.2.56-.28.83-.18.55-.31,1.07-.41,1.52l-.06.33a4.89,4.89,0,0,0-.08,1,2.49,2.49,0,0,0,.05.5,1.32,1.32,0,0,0,.17.42L279.25,284a55.27,55.27,0,0,1,.89-9.76c.08-.38.18-.74.28-1.08.05-.17.11-.33.16-.49a7,7,0,0,1,.36-.86,3.34,3.34,0,0,1,.66-.91,1.23,1.23,0,0,1,.81-.33h0c.3-.15,7.17-3.63,11.29-7.9.19-.19.37-.39.54-.59a3.58,3.58,0,0,0,.26-.29q.25-.3.48-.6l.44-.6a5.91,5.91,0,0,0,1.21-4.64l.52-.07.42,0,.55-.06.44,0,.56,0a30.76,30.76,0,0,1,3.24,0h.39l.46,0c.74,0,1.51.11,2.31.22,7.43-.16,11.9,2.88,14.55,7.07h0c3.74,4.18,6.3,10.66,5.92,20.66,0,.16,0,.33,0,.49,0,.6-.06,1.21-.11,1.84,0,0-8.83,9.44-15,3.73l-.32-.31a8.75,8.75,0,0,1-.62-.71,7.69,7.69,0,0,1-.6-.83l-.29-.46c-.19-.32-.38-.66-.56-1a1.31,1.31,0,0,0-.11.2l-.06.12-.13.32c-.05.13-.1.27-.15.43a2.81,2.81,0,0,0-.08.31c0,.13-.07.27-.1.42l0,.16a2.38,2.38,0,0,1-.05.26.28.28,0,0,0,0,.09c0,.12,0,.25,0,.38s0,.27,0,.4a5,5,0,0,0,0,.68c0,.21,0,.44,0,.66s0,.2,0,.3,0,.2,0,.31a14.22,14.22,0,0,0,.24,1.43v0c.1.43.23.88.38,1.36a22.88,22.88,0,0,0,3.73,6.67c.32.41.66.84,1,1.27s.77.87,1.19,1.33.85.89,1.32,1.36c.93.91,2,1.86,3.13,2.85h0s.41.57,1.13,1.43c.25.29.53.61.84.95s.47.51.73.77.67.67,1,1,.45.42.69.62.65.55,1,.82c.51.39,1.05.77,1.61,1.12.38.24.77.46,1.17.67a15.39,15.39,0,0,0,1.82.79c.26.09.53.17.79.24a9.09,9.09,0,0,0,4.52.08c.24-.06.47-.13.7-.21a9.48,9.48,0,0,0,2.24-1.14,11.88,11.88,0,0,0,1.11-.86,17,17,0,0,0,2.74-3.13l.24.07c.11,0,.26.06.43.08a4.67,4.67,0,0,0,1.08,0ZM279.39,75.06,277.79,83l-8.42,3.16L268.85,83Zm-18.45,6.3-.53,3.16L252,81.36l-1.57-7.91ZM205.62,70C216.69,72.66,233,84.26,233,84.26,205.09,87.94,205.62,70,205.62,70Zm77.45,75.35-6.33-2.63L273.58,158l-3.68-3.15-5.28,11.06-3.16-5.8L256.73,167l-4.23-7.38-6.84,5.26L242,153.29l-8.44,2.1-4.74-20-6.85.53-1.58-12.12-7.38,1-1.06-8.94L193,109c0-7.91,21.07-7.91,21.07-7.91l10,8.44,1.06-8.44L236.7,112.7l4.22-10,10,11.07L254.1,108l6.31,9,4.74-9,6.33,7.91,3.68-10L281,119l5.79-4.75C295.19,119,283.07,145.38,283.07,145.38Zm-2.11-54S294.15,82,303.08,79.87C303.08,79.87,303.52,94.35,281,91.36Z" style="fill:#ab3f2c"/><path d="M195,414.42h-.1c-9.4-.07-16-9-16.86-10.18l-27-22.79-4.15-17.11c-3.79-1.09-7.31-4-9.63-6.3l-.13-.16a16,16,0,0,0-3.11-3.52l-.1-.07c-15.3-12.34-10.83-34.71-10-38.45-21.27-24.34-25-64-25.67-75.65V240l0-.17a6.93,6.93,0,0,0-.13-2.77c-.05-.32-.13-.61-.21-.92l0-.15c-.07-.29-.16-.59-.25-.89l-.08-.24-.32-1-.14-.36c-.23-.66-.46-1.24-.71-1.84l0-.11c0-.06,0-.12-.08-.19l0-.1c-.21-.51-.43-1-.65-1.51l0-.12c-.46-1-.94-2-1.38-2.87a2.89,2.89,0,0,0-.21-.43c-1.08-2.13-1.91-3.58-1.92-3.59l-.21-.37L93.92,215l-7.16-19.4C74.5,188,77,176.38,77.57,174.37l-4.43-13.32-10-1.17.95-1.37c8.07-11.7,7.53-15.51,6.49-16.74-2.18-2.59-10.84.1-15.79,2.41l-1.19.55-.22-1.3c-1.48-8.93,3.22-13.62,8.19-18.59a43.74,43.74,0,0,0,6.72-7.9c.6-1,1.19-2.31.63-3.1-1.49-2.07-9.58-1.35-14.85-.16l-1.37.3.16-1.39c.93-8.44,18.51-16.49,24.5-19L55.32,81.22l25.8-5.8-18-10,1.17-.93c4.87-3.89,26.29-2.47,32.82-1.94L90.77,46.67,120,50.77,108.67,36.88H124.4L114.28,25.06l33.7,8.7-10.59-23.3L174,21.76l-.54-17.62L206.8,20l1-20h.95c4.09,0,17.55,17.2,23,24.36.61-3.05,1.12-10.92,1.31-18.11l.08-2.87,19.66,26.23,6.8-15.29,7.17,27.58,6.43-5.46,12.13,15.69,3.07-9.19L314.3,67.25,320,53.31l1,.58c5.38,3.14,6.52,16,6.76,21.55l13.49-14.51,4.71,35.76,7.69-8.78V117l13.59,12.69a10.65,10.65,0,0,1,2.64,3.71c3.06,7.71,17.78,22,19.61,23.7,8.8,2.4,7.65,18.95,7.39,21.72,5.37,8.2.55,16.07-1.82,19.12l11,2.36-5.3.84c-7.63,1.2-17.44,28.71-20.71,39.59,1.34,5.18-3.74,17.88-4.33,19.34l-6,18.71-.88-.18c-1.86-.38-3.54.54-5.12,2.81v.07l-.25.29c-3.29,3.69-3.95,9.53-4.08,11.88v.25l-.14.21c-.4.66-.8,1.29-1.19,1.9l-.13.2-.22.12c-1.17.67-3.56,2.62-6.35,8.21-2.5,5-5.34,6.68-7.27,7.21l-.21,0-1,.17a5.76,5.76,0,0,1-1.39,0h-.11a16.84,16.84,0,0,1-2.5,2.75,12.54,12.54,0,0,1-1.21.94,10.3,10.3,0,0,1-2.47,1.26l-.78.23a10.06,10.06,0,0,1-5-.08l-.87-.26a17.09,17.09,0,0,1-1.94-.85c-.44-.23-.85-.46-1.25-.72a20.44,20.44,0,0,1-1.69-1.16c-.37-.29-.71-.57-1-.87s-.49-.42-.74-.66-.69-.66-1-1l-.72-.77c-.35-.38-.64-.71-.9-1-.57-.69-1-1.2-1.11-1.4-1.11-1-2.15-1.9-3.1-2.82-.49-.49-.93-.95-1.35-1.4s-.84-.92-1.22-1.36l-1.05-1.3a24.42,24.42,0,0,1-3.89-7c-.13-.43-.25-.83-.34-1.21l0,0L307,293a13.85,13.85,0,0,1-.25-1.53s0-.14,0-.24l0-.64c0-.17,0-.34,0-.5a6.78,6.78,0,0,1,0-.77v-.14a2.11,2.11,0,0,1,0-.26l0-.21c0-.05,0-.1,0-.15v-.08l.06-.24h0s0,0,0-.08l0-.24c0-.16.07-.31.11-.46a3,3,0,0,1,.08-.32c.08-.23.13-.39.19-.54l.06-.15.09-.22.07-.15a3.35,3.35,0,0,1,.18-.31l.95-1.43.77,1.53c.17.34.35.66.53,1l.07.1a3.21,3.21,0,0,0,.19.31,6.38,6.38,0,0,0,.54.75,8,8,0,0,0,.58.66l.27.26c4.85,4.5,12-2.06,13.35-3.43,0-.49.07-1,.08-1.43,0-.17,0-.32,0-.46.33-8.71-1.57-15.42-5.66-20l-.11-.15c-2.86-4.51-7.42-6.74-13.69-6.6h-.15c-.74-.1-1.49-.17-2.23-.21l-.41,0h-.39a27.47,27.47,0,0,0-3.17,0l-1.45.12a7.51,7.51,0,0,1-1.49,4.33l-.47.64c-.16.21-.33.43-.52.65l-.31.35c-.13.16-.33.38-.54.59-4,4.1-10.33,7.46-11.4,8l-.18.18h-.43a.39.39,0,0,0-.17.1,2.72,2.72,0,0,0-.41.61,4.33,4.33,0,0,0-.3.71l-.07.19a2.58,2.58,0,0,1-.08.26c-.09.32-.19.65-.26,1a54.35,54.35,0,0,0-.87,9.55v4.8l-9.8-22.51a2.38,2.38,0,0,1-.25-.65,3.34,3.34,0,0,1-.08-.74,6.16,6.16,0,0,1,.09-1.12l.07-.35c.14-.63.28-1.16.44-1.65,0-.18.13-.39.2-.61l.08-.23.76-2,.6-1.37v0l.29-.63.73-1.56h0l.06-.13,0,0,.07-.16c.53-1.08,1.1-2.19,1.68-3.32s1.06-2,1.59-3c.16-.28.3-.53.43-.78l2.61-4.64.36-.64a17.09,17.09,0,0,1,1-1.57,17.84,17.84,0,0,1,1.22-1.41,16.3,16.3,0,0,1,6.16-4c.36-.13.62-.22.9-.3a18.94,18.94,0,0,1,2.73-.6c.39-.06.77-.12,1.16-.21l.18,0,.56-.14.2,0,.22-.07.37-.09c5.31-1.12,8.82-2.88,9.88-5l.26-.53a26.13,26.13,0,0,0,1-2.8c.86-2.62,1.67-5.11,5.3-7.68v-.47h.74c1.5-.87,3.26-1.76,5.67-2.88l.53.86-.43-.9.27-.11c2.31-.94,5-1.87,8.22-2.85a26.88,26.88,0,0,0,4.49-3.1h0l.16-.14q.71-.6,1.44-1.26c.38-.36.77-.74,1.17-1.16h0l.3-.33c.29-.3.59-.62.89-1s.44-.5.65-.75v-.11l.28-.26a30.64,30.64,0,0,0,4.29-7.17l.12-.29,5.57-3.53a29.16,29.16,0,0,1,.32-5.66l0-.24.15-.2a41.92,41.92,0,0,1,4.57-5.17c7-6.6,5.51-15.53,4-20.27-2.92-9-10.25-17.07-16.34-17.86a6,6,0,0,0-6.13,3c-8.56,13.31-25.81,9.38-30.19,8.11-1.49,4.66-9.79,22.82-50.56,30.8-31.93,6.24-50.54-19.22-64.13-37.81-5.92-8.09-11-15.08-15.39-16.49a7.06,7.06,0,0,0-6.42.77c-7.9,5.28-9.65,25.56-9.66,25.76l0,.56-26.81,13.65,1,20,18.59,16.51c11,6.61,15.4,31.48,16.1,35.87,10.28,3.41,13.61,15.25,14.54,19.88a10.32,10.32,0,0,1,7.05-2.26c4.43.33,8.68,3.7,12.63,10C209.16,288,223.84,287.18,224,287.16h.19c25.47,3,28,19.3,28.26,21.74l0,.12c1.11,2.25,4.7,10.08,4.74,17.41L258,325l-.62,5.19a57.48,57.48,0,0,1-5.33,17.56l-.09.17-.14.14c-3.81,3.49-11,4.33-11.33,4.36l-7.32.82,6.84-2.74c5.6-2.24,3.6-14,2.2-18.86-10.45-4.12-10.64-10.88-10.33-13.32a7.38,7.38,0,0,0-6.84.38c-8.26,5-10.4,25.84-10.76,30.19,8.35,2.71,13.58,13.83,15.82,19.7l1.38-7.34,1.35,2.33c8.7,15,11,26.08,6.77,32.83-4.51,7.25-14.66,6.63-15.09,6.61l-.33,0-11.12-9.46,0-.44c-.49-11.15-15.31-13.25-15.46-13.27l-.6-.08-7-19.32c-12.55-11.39-16.26-11-17.28-10.33-2.08,1.41-.57,8.52,1.17,13.11l.05.19,1.48,8.91c12.34,4.93,19.56,10.67,21.47,17.07a10.55,10.55,0,0,1-.54,7.71c6.36,5.77,15.29,4,15.39,4l2.47-.52-1.45,2.07C207.23,410.43,201.24,414.42,195,414.42Zm-42.19-34.07,26.72,22.53.08.12c.06.09,6.51,9.37,15.32,9.42H195c5.11,0,10.08-3.08,14.8-9.16-3.52.22-10.24-.17-15.38-5.32l-.59-.6.49-.69a8.22,8.22,0,0,0,.68-6.8c-1.23-4-5.83-10.05-20.8-15.93l-.52-.21L172,363.78c-.86-2.29-4.45-12.61-.38-15.38,3.2-2.18,9.54,1.22,19.93,10.68l.19.17,6.74,18.66c3,.56,15.75,3.59,16.56,14.63L225,401c1.67,0,9.48-.11,12.94-5.69s1.62-15.43-5.47-28.38l-1.85,9.85-1.17-4c-.06-.2-5.77-19.5-16.44-22.19l-.81-.2.05-.83c.07-1.08,1.71-26.51,11.78-32.58,2.81-1.69,6-1.75,9.43-.18l.8.37L234,318c-.1.3-2.13,7.6,9.41,11.93l.47.18.14.47c.19.63,3.87,13.07-.05,19.11a16.4,16.4,0,0,0,6.38-3,58,58,0,0,0,4.74-14.47l-.75-.34c3.14-7.95-2.95-20.56-3.72-22.1l-.13-.2v-.33c0-.66-.89-17-26.43-20.07-1.48.07-16.22.38-26.63-16.28-3.59-5.75-7.32-8.81-11.08-9.08a8.89,8.89,0,0,0-6.82,2.88L178,268.42l-.27-2.26c0-.17-2.18-16.78-14-20.24l-.62-.18-.09-.64c0-.28-4.27-28.57-15.32-35.11l-.15-.11-19.3-17.13-1.1-22.16,27-13.73c.34-3.47,2.48-21.35,10.49-26.7a9,9,0,0,1,8.14-1c5,1.6,10,8.49,16.4,17.21,13.27,18.16,31.44,43,62.13,37,44.5-8.71,49.22-30.08,49.26-30.29l.22-1.14,1.1.39c.2.07,19.93,6.91,28.87-7a7.92,7.92,0,0,1,8.07-3.94c6.9.89,14.8,9.34,18,19.23,2.89,9,1.28,16.89-4.52,22.34a39.87,39.87,0,0,0-4.2,4.73,29.8,29.8,0,0,0-.23,5.55l0,.59-6,3.83a32.32,32.32,0,0,1-4.29,7.14v0l-.23.27c-.3.37-.62.74-.94,1.1s-.45.49-.68.74v0l-.27.29c-.53.55-1,1.07-1.54,1.54s-.91.81-1.34,1.17l-.06.13-.2.11a28.84,28.84,0,0,1-5,3.46l-.16.06c-3.2,1-5.86,1.89-8.13,2.81l-.32.13c-2.41,1.11-4.16,2-5.64,2.87l0,0c-3.44,2.3-4.11,4.35-5,7a25.44,25.44,0,0,1-1.39,3.59l-.12.18c-1.44,2.64-5.2,4.61-11.16,5.86l-.16,0a4.89,4.89,0,0,1-.49.12l-.08,0c-.22.06-.44.12-.66.16a13.53,13.53,0,0,1-1.43.27,17.43,17.43,0,0,0-2.46.54l-.69.23a14.52,14.52,0,0,0-5.48,3.49c-.38.41-.73.82-1.07,1.25a13.57,13.57,0,0,0-.91,1.37c-.12.2-.23.4-.34.6L279,248.88l-.44.8c-.52.95-1,1.94-1.55,2.91s-1.11,2.17-1.62,3.21V256l-.18.2c-.25.53-.5,1.05-.73,1.56l-.11.23v.2l-.16.17c-.21.46-.4.91-.59,1.34-.26.65-.5,1.28-.72,1.88l-.08.22c-.06.18-.13.36-.18.55a13.23,13.23,0,0,0-.39,1.45l-.06.29a4.47,4.47,0,0,0-.06.75,1.48,1.48,0,0,0,0,.33.25.25,0,0,0,0,.07l.08.15,6.16,14.17a40.08,40.08,0,0,1,.75-5.57c.08-.39.19-.78.29-1.14,0-.12.07-.23.11-.34l.06-.17a7.64,7.64,0,0,1,.42-1,4.15,4.15,0,0,1,.88-1.2,2.39,2.39,0,0,1,1.19-.57c1.06-.54,7.13-3.75,10.87-7.62.19-.19.35-.37.5-.55l.24-.26c.17-.21.32-.39.46-.58s.29-.38.42-.57a5,5,0,0,0,1.06-3.84l-.25-1,1.06-.18.57-.07a3.05,3.05,0,0,1,.47-.06l1.22-.1.34,0a33.12,33.12,0,0,1,3.33,0h.43l.45,0c.76,0,1.54.12,2.3.22,6.88-.15,12.05,2.39,15.3,7.48,4.42,5,6.47,12.16,6.12,21.3,0,.14,0,.34,0,.52,0,.58-.06,1.2-.11,1.85l0,.35-.24.25c-3.29,3.52-10.95,8.84-16.41,3.79l-.29-.29-.07-.07a8.87,8.87,0,0,1-.69-.79,5.88,5.88,0,0,1-.38-.5l-.07.75a3.51,3.51,0,0,0,0,.56c0,.16,0,.29,0,.42l0,.78c0,.33.1.68.17,1.07l.08.08v.28c.09.38.2.77.34,1.19a22,22,0,0,0,3.56,6.36c.31.4.65.82,1,1.24s.75.84,1.16,1.3.83.86,1.29,1.32c.85.83,1.79,1.69,2.79,2.56h.63v.67c.18.24.49.64.9,1.13l.81.92c.24.26.46.5.7.73s.64.65,1,1a8.56,8.56,0,0,0,.66.6c.32.29.64.54,1,.8.51.39,1,.75,1.53,1.06s.73.44,1.1.63a15.38,15.38,0,0,0,1.7.74l.71.22a8.19,8.19,0,0,0,4,.07,6.13,6.13,0,0,0,.61-.18,8.51,8.51,0,0,0,2-1,9.82,9.82,0,0,0,1-.79,16.24,16.24,0,0,0,2.57-2.94l.45-.64.72.27.13,0,.08,0,.23,0a3.43,3.43,0,0,0,.87,0l1-.16c1.55-.45,3.81-1.9,5.95-6.17,2.75-5.51,5.25-7.89,6.93-8.92l.91-1.44c.2-3.14,1-8.66,4.31-12.55v-.07l.25-.24c1.85-2.73,4-4,6.37-3.9l5.54-17.14c1.6-3.93,5.42-14.73,4.22-18.33l-.1-.3.09-.3c1.09-3.67,10.08-33.14,19.43-39.95l-6.24-1.34,1.29-1.3c.37-.36,8.81-9,2.52-18.21l-.21-.31,0-.37c0-.18,1.9-18.11-6.1-20l-.26-.06-.2-.18c-.68-.65-16.87-16-20.28-24.58a8.63,8.63,0,0,0-2.14-3L351.63,117.9V93.23l-7.09,8.1L339.8,65.41l-14,15V77.92c0-4.9-.91-17.6-4.89-21.57l-5.85,14.36L289.32,46.54l-3.26,9.79-13.15-17-7.27,6.16-6.53-25.12-5.86,13.17L235,9.17c-.61,18.12-2,18.12-3,18.12h-.5l-.3-.4c-8.09-10.78-17.91-22.34-21.45-24.52L208.64,23.1,175.57,7.36l.52,17.14-35-10.82,10.49,23.06-31.61-8.16,8.81,10.3H112.88l11.87,14.57L93.91,49.13l6.28,15.72-1.63-.15C91.45,64,73.27,63,67,65.3L86.68,76.22,60.84,82,82,93.91l-2,.76c-6.3,2.42-22.15,9.83-24.82,16.73,4-.77,13-2.05,15.34,1.28,1,1.34.78,3.12-.55,5.3a44.49,44.49,0,0,1-7,8.27c-4.53,4.53-8.47,8.47-7.79,15.56,3.65-1.55,13.59-5.28,16.92-1.33,2.42,2.86.64,8.69-5.44,17.8l8,.93,5,15.06-.05.27a2,2,0,0,1-.08.28C79.18,176,76.35,187,88.1,194.05l.3.19L96,214.9l-2.08,7.27c.31.57,1,1.74,1.72,3.26a4.14,4.14,0,0,1,.28.56c.42.83.91,1.83,1.38,2.87l.06.14c.22.5.45,1,.66,1.53a3.89,3.89,0,0,1,.16.38c.28.67.52,1.29.74,1.93,0,.09.1.24.15.39.14.38.25.72.36,1.07l.08.26c.1.33.2.65.28,1l0,.16c.09.37.18.71.24,1a8.84,8.84,0,0,1,.14,3.46c.65,11.62,4.41,51,25.51,74.72l.36.4-.15.53c-.06.24-6.43,24.2,9.07,36.82l.11.09a17.54,17.54,0,0,1,3.54,3.94c2.26,2.24,5.68,5,9.21,5.86l.6.14Zm156-91.55,0,.05Zm-52.1-120-4.45-7.76-7.06,5.43-3.83-12-8.51,2.12L228,136.42l-6.94.54-1.57-12.06-7.39,1L211,116.61l-19-6.89V109c0-8.66,19.81-8.91,22.07-8.91h.37l8.88,7.49L224.37,99l12,12,4.25-10.09,10.11,11.2,3.28-6,6.29,8.94,4.69-8.86,6.17,7.71,3.93-10.68,6.27,14.23,5.3-4.35.59.34c9,5-2,29.6-3.26,32.39l-.4.87-6.1-2.53-3.26,15.74-4-3.4-5.56,11.65L261.36,162Zm-3.85-10.74,4,7,4.75-6.89,3,5.51,5-10.47,3.39,2.9,3.06-14.8,6.55,2.72c3.29-7.43,9.31-24.39,4.25-28.55l-6.23,5.11-5.33-12.11-3.44,9.36-6.49-8.1-4.79,9-6.32-9-3.09,5.61-9.89-10.94L237,114.46l-11.19-11.2-1,8.24-11.13-9.39c-5.58,0-18.56,1.26-19.64,6.23l18.81,6.81,1,8.54,7.37-1,1.59,12.18,6.76-.52,4.7,19.88,8.37-2.09,3.53,11.11Zm33.93-65.34a44.82,44.82,0,0,1-5.9-.42L278.31,92l2.07-1.48c.55-.38,13.45-9.49,22.47-11.64l1.19-.29,0,1.23a12.14,12.14,0,0,1-4,8.79C297,91.38,292.53,92.77,286.73,92.77Zm-2.94-2.12c6.75.52,11.76-.66,14.92-3.51A10.29,10.29,0,0,0,302,81.21C295.64,83.13,287.62,88.12,283.79,90.65Zm-15.21-3.16-.81-4.95,13.12-9.86-2.23,11Zm1.36-4.08.22,1.36,6.76-2.54,1-4.79Zm-8.74,2.47L251.1,82.1l-2.19-11L262,80.93Zm-8.36-5.26,6.79,2.54.22-1.37-8-6Zm-27,5.14c-7.13,0-12.61-1.7-16.35-5.08A14.79,14.79,0,0,1,204.62,70l0-1.23,1.19.29C217,71.7,232.92,83,233.59,83.45l2.07,1.47-2.52.33A55.59,55.59,0,0,1,225.89,85.76Zm-19.16-14.4a13.15,13.15,0,0,0,4.18,7.87c4.07,3.65,10.56,5.11,19.31,4.33C225.66,80.52,215,73.75,206.73,71.36Z" style="fill:#fff"/><path d="M358.14,122.59a19.61,19.61,0,0,1-18-9.93C309.26,58,288.33,72.14,288.33,72.14l-20-21.08-6.86,5.8L255.15,50C201.92-10.07,120.79,66.35,120.79,66.35c-53.76,1.58-38.47,76.4-38.47,76.4-8.43,6.31-1.58,31.6-1.58,31.6l-2.16.13a.93.93,0,0,0,0-.13l-4.73-14.22-9-1C86,128.52,54.39,143.27,54.39,143.27c-2.11-12.64,9-16.34,14.76-25.81s-15.29-4.76-15.29-4.76c1-9.48,25.82-19,25.82-19L58.08,81.62l25.82-5.8-19-10.54c5.27-4.21,33.72-1.58,33.72-1.58L92.34,47.9l30,4.21L110.77,37.88h15.8L117.1,26.82l32.66,8.43L139.22,12.07l35.83,11.06-.53-17.38,33.2,15.8L208.78,1C213,1,232,26.29,232,26.29c1.58,0,2.11-20,2.11-20l19,25.29,6.33-14.23,6.86,26.35,6.84-5.81L285.7,54.23l3.16-9.49L314.68,69l5.8-14.23c6.32,3.69,6.32,23.17,6.32,23.17l13.71-14.75L345.25,99l7.38-8.44v26.89Z" style="fill:#1a1b0d"/><path d="M77.06,175.56l.5-1.24-4.42-13.27-10-1.17.94-1.37c8.07-11.7,7.53-15.51,6.49-16.74-2.19-2.59-10.84.1-15.78,2.41l-1.2.56-.21-1.3c-1.49-8.95,3.21-13.64,8.18-18.61a43.4,43.4,0,0,0,6.72-7.9c.6-1,1.19-2.31.63-3.09-1.49-2.07-9.58-1.34-14.85-.16l-1.37.31.15-1.4c.94-8.45,18.52-16.49,24.51-19L55.32,81.22l25.8-5.8-18-10,1.17-.93c4.87-3.89,26.29-2.47,32.82-1.93l-6.35-15.9L120,50.76,108.67,36.88H124.4L114.28,25.05,148,33.76,137.39,10.45,174,21.76l-.53-17.61L206.8,20l1-20h.95c4.08,0,17.55,17.2,23,24.36.61-3.05,1.12-10.92,1.31-18.11l.07-2.87,19.67,26.23,6.8-15.28,7.17,27.57,6.43-5.46,12.14,15.69,3-9.19,25.9,24.31L320,53.31l1,.58c5.38,3.14,6.51,16,6.75,21.56l13.49-14.51L346,96.69l7.68-8.78V117l6.91,6.45-2.35.12a20.71,20.71,0,0,1-18.95-10.44c-17.05-30.18-30.9-39-39.52-41.08-6.84-1.65-10.79.87-10.83.9l-.7.46-.58-.6-19.36-20.4-6.87,5.81-7-7.56C241.8,36.45,226.52,28.83,209,28c-43.45-1.94-87.08,38.62-87.52,39l-.28.26h-.37c-12.42.36-22.07,4.78-28.68,13.13-16.91,21.33-8.92,61.66-8.84,62.07l.13.62-.51.38c-7.79,5.83-1.28,30.29-1.21,30.54l.32,1.19ZM66.68,158.27l8,.94,4.73,14.22h.11c-1.25-5.1-5.45-24.69,1.75-31.07-1-5.34-7.2-42.23,9.33-63.1,6.94-8.76,17-13.43,29.82-13.89C124.14,61.93,164.56,26,205.92,26c1.06,0,2.1,0,3.15.07,18.1.82,33.85,8.66,46.83,23.3l5.65,6.14,6.85-5.8,20.13,21.21c1.58-.77,5.58-2.2,11.54-.8,9,2.14,23.45,11.17,40.91,42.08a18.78,18.78,0,0,0,14.57,9.38l-3.92-3.66V93.23l-7.09,8.1L339.8,65.41l-14,15.06V77.92c0-4.89-.91-17.6-4.89-21.57L315.05,70.7,289.32,46.54l-3.26,9.78-13.15-17-7.26,6.16-6.54-25.12-5.86,13.17L235,9.16c-.61,18.13-2,18.13-3,18.13h-.5l-.3-.4c-8.09-10.78-17.91-22.34-21.45-24.52L208.65,23.1,175.57,7.36l.52,17.14-35-10.82,10.49,23.06-31.61-8.16,8.82,10.3H112.88l11.87,14.57L93.9,49.13l6.29,15.72-1.63-.15C91.45,64,73.27,63,67,65.3L86.68,76.22,60.85,82,82,93.92l-2,.76c-6.3,2.41-22.15,9.81-24.82,16.72,4-.77,13-2.05,15.34,1.27,1,1.35.78,3.13-.55,5.31a45.15,45.15,0,0,1-7,8.27c-4.53,4.52-8.47,8.47-7.79,15.57,3.66-1.56,13.59-5.28,16.92-1.34C74.54,143.34,72.76,149.17,66.68,158.27Z" style="fill:#fff"/></g></g></svg>