<svg xmlns="http://www.w3.org/2000/svg" viewBox="0 0 292.91 306.21"><title>Hobgoblin</title><g id="b4a984fc-5120-4d9d-99fb-7da323669a35" data-name="Layer 2"><g id="bd9229e7-fffb-4ba0-82e9-4a7daae337ea" data-name="Layer 1"><path d="M250.74,172.57q-1.06-5.08-2.32-9.78c-7.83-30-20.06-48.74-33.3-60.34-.7-.6-1.37-1.2-2.08-1.78a70.86,70.86,0,0,0-23.72-12.74,72.8,72.8,0,0,0-7.22-1.83h0l-.17,0a5.31,5.31,0,0,0-.67,0c-1.81,0-3.64,0-5.45.1s-27.19,4.69-29.32,5c-2.14-.29-27.48-4.87-29.33-5s-3.64-.14-5.45-.1a5.31,5.31,0,0,0-.67,0l-.17,0h0a72.8,72.8,0,0,0-7.22,1.83,70.86,70.86,0,0,0-23.72,12.74c-.71.58-1.38,1.18-2.08,1.78-13.24,11.6-25.47,30.31-33.3,60.34q-1.26,4.69-2.32,9.78c-.09.45.93,3.61,2.21,7.65,2.9,9.15,4.42,17.83,11.74,24.58,4.8,4.43,10.75,7.84,14.52,13.3,4.51,6.51,7.53,14.06,10.07,21.53,5.43,15.94,8.52,32.58,12,49A19.51,19.51,0,0,0,113.2,304l32.05,1.18,1.21,0,1.2,0L179.71,304a19.51,19.51,0,0,0,20.46-15.39c3.33-15.63,6.32-31.41,11.25-46.64,4.48-13.87,11-25.12,22.14-34.54,9.06-7.64,11.49-16.28,15-27.24C249.81,176.18,250.83,173,250.74,172.57Zm-164.55,10c-7.09-8.05-20.79-25.91-19.1-38.8,14.15,9,27.23,17.93,43.15,23.28,2.28.77,26.61,7.82,26.61,7.82S108.32,207.68,86.19,182.55Zm56,61.58c-14.68-9.78-35.58-40.92-20-39.14S142.16,244.13,142.16,244.13Zm44.21,32.72a101.28,101.28,0,0,0-18.92-6.08,104.48,104.48,0,0,0-19.69-2.38l-.89,0H146l-.89,0a104.48,104.48,0,0,0-19.69,2.38,101.28,101.28,0,0,0-18.92,6.08l-.26-.6a49.78,49.78,0,0,1,18-10.65,71.7,71.7,0,0,1,10.15-2.79,45.83,45.83,0,0,1,5.24-.71c1.75-.16,3.53-.4,5.31-.43l1.06,0h.83l1.06,0c1.78,0,3.56.27,5.31.43a45.83,45.83,0,0,1,5.24.71,71.7,71.7,0,0,1,10.15,2.79,49.78,49.78,0,0,1,18,10.65Zm-35.62-32.72s4.47-37.36,20-39.14S165.43,234.35,150.75,244.13Zm56-61.58c-22.13,25.13-50.66-7.7-50.66-7.7s24.33-7,26.61-7.82c15.92-5.35,29-14.28,43.16-23.28C227.51,156.64,213.81,174.5,206.72,182.55Z" style="fill:#a84d3a"/><path d="M145.28,306.21,113.21,305a20.59,20.59,0,0,1-21.45-16.18q-.81-3.78-1.6-7.58c-2.86-13.71-5.82-27.88-10.4-41.32-2.28-6.72-5.25-14.5-9.94-21.28-2.41-3.49-5.86-6.2-9.19-8.82-1.74-1.37-3.54-2.79-5.19-4.31-6.32-5.83-8.44-13-10.67-20.58-.43-1.46-.87-2.94-1.34-4.43l-.28-.88c-1.82-5.74-2.08-6.69-2-7.27.72-3.46,1.51-6.77,2.33-9.84,7-27,18.35-47.47,33.61-60.84l.68-.59c.47-.41.94-.81,1.43-1.21A72,72,0,0,1,103.29,87a74.68,74.68,0,0,1,7.32-1.86h.09l.15,0a6.53,6.53,0,0,1,.83,0c1.74,0,3.6,0,5.51.11,1.1.06,9,1.44,19.24,3.23,4.79.84,8.95,1.57,10,1.73,1.07-.16,5.24-.89,10-1.73,10.23-1.79,18.14-3.17,19.24-3.23,1.91-.11,3.77-.15,5.53-.11a5.57,5.57,0,0,1,.78,0l.22.05h.05A73.77,73.77,0,0,1,189.61,87,72.11,72.11,0,0,1,213.67,99.9c.49.4,1,.81,1.44,1.22l.66.57c15.27,13.38,26.58,33.85,33.62,60.85.82,3.07,1.61,6.38,2.33,9.83h0c.12.58-.14,1.54-2,7.33l-.71,2.23c-3.31,10.5-5.93,18.79-14.83,26.29-10.27,8.66-17,19.17-21.83,34.07-4.14,12.8-7,26.22-9.67,39.2-.52,2.45-1,4.9-1.55,7.35A20.59,20.59,0,0,1,179.69,305l-32,1.18-1.27,0ZM113.18,303l32.11,1.19,1.14,0,1.26,0,32-1.19h.05a18.58,18.58,0,0,0,19.41-14.6q.78-3.68,1.55-7.35c2.73-13,5.55-26.5,9.72-39.4,4.95-15.29,11.87-26.08,22.45-35,8.45-7.13,11-15.17,14.22-25.36l.71-2.24c.89-2.83,1.82-5.75,1.9-6.42-.71-3.37-1.48-6.61-2.29-9.63-6.94-26.61-18-46.74-33-59.84l-.66-.58-1.39-1.18A69.84,69.84,0,0,0,182,87.1l-.24,0a3.26,3.26,0,0,0-.53,0c-1.74,0-3.54,0-5.4.1-1.07.07-11.43,1.88-19,3.21-5.25.92-9.39,1.65-10.24,1.76l-.13,0-.14,0c-.85-.11-5-.84-10.23-1.76-7.58-1.33-17.94-3.14-19-3.21-1.85-.1-3.65-.13-5.37-.1a3.57,3.57,0,0,0-.56,0l-.15,0h-.08a71.58,71.58,0,0,0-7,1.78A70,70,0,0,0,80.5,101.45c-.47.38-.92.78-1.38,1.17l-.68.59c-14.95,13.1-26,33.23-33,59.84-.81,3-1.58,6.26-2.29,9.63.08.67,1,3.56,1.88,6.36l.28.88c.48,1.51.92,3,1.36,4.48,2.15,7.31,4.19,14.21,10.11,19.67,1.59,1.47,3.36,2.86,5.07,4.2,3.45,2.72,7,5.52,9.6,9.26,4.82,7,7.86,14.93,10.19,21.78,4.61,13.55,7.58,27.78,10.46,41.55.53,2.53,1.06,5.05,1.6,7.58A18.57,18.57,0,0,0,113.13,303ZM106,278.18l-.93-2.16.49-.48c4.71-4.55,10.71-8.11,18.36-10.88a73.55,73.55,0,0,1,10.27-2.82,32.43,32.43,0,0,1,4.1-.6l1.25-.13L141,261c1.29-.13,2.64-.27,4-.3l1.08,0h.76l1.1,0c1.39,0,2.73.17,4,.3l1.4.14,1.26.13a32.74,32.74,0,0,1,4.12.6A73.49,73.49,0,0,1,169,264.67c7.63,2.76,13.63,6.32,18.33,10.87l.5.48-.94,2.16-.92-.41a99.32,99.32,0,0,0-18.73-6,103.67,103.67,0,0,0-19.5-2.36l-.89,0h-.73l-.89,0a103.89,103.89,0,0,0-19.55,2.36,99.45,99.45,0,0,0-18.72,6Zm40.44-10.84.48,0c.27,0,.58,0,.89,0a104.48,104.48,0,0,1,19.83,2.4,108,108,0,0,1,15.24,4.53,52.34,52.34,0,0,0-14.61-7.79,71.72,71.72,0,0,0-10-2.75,31.34,31.34,0,0,0-3.87-.56l-1.26-.13-1.4-.14c-1.26-.13-2.56-.26-3.82-.29l-1,0a6.67,6.67,0,0,1-.9,0c-.29,0-.66,0-1,0-1.22,0-2.51.16-3.77.29l-1.42.14-1.24.13a30.9,30.9,0,0,0-3.86.56,70.12,70.12,0,0,0-10,2.75A52.19,52.19,0,0,0,110,274.33a107.8,107.8,0,0,1,15.23-4.53,105.54,105.54,0,0,1,19.89-2.41c.25,0,.56,0,.88,0Zm3-21.17.26-2.15c.18-1.56,4.75-38.17,20.91-40,4.14-.47,5.69,1.28,6.26,2.84,2.81,7.68-13.35,29.95-25.63,38.13ZM172,205.92a9,9,0,0,0-1.1.07c-12.44,1.42-17.55,27.93-18.82,36,11.85-9,25.14-28.54,23-34.43C174.9,207.11,174.46,205.92,172,205.92Zm-28.58,40.25L141.6,245c-12.27-8.18-28.43-30.45-25.62-38.13.57-1.56,2.12-3.31,6.26-2.84,16.16,1.85,20.73,38.46,20.91,40Zm-22.49-40.25c-2.48,0-2.91,1.19-3.06,1.61C115.7,213.42,129,233,140.84,242c-1.27-8-6.39-34.55-18.82-36A9,9,0,0,0,120.92,205.92ZM187.61,193h-.08c-16.86-.06-31.61-16.81-32.23-17.52l-1-1.18,1.5-.44c.24-.07,24.34-7,26.57-7.8,14.19-4.77,26.08-12.39,38.66-20.45l4.28-2.73,1.33-.84.2,1.56c1.86,14.24-14.34,33.9-19.35,39.59C201.74,189.73,195.06,193,187.61,193ZM157.9,175.36c3.68,3.81,16.2,15.63,29.64,15.67h.07c6.85,0,13-3.08,18.36-9.14h0c4.68-5.31,19.39-23.12,19-36.4l-2.87,1.84C209.4,155.46,197.41,163.14,183,168,181,168.64,163.35,173.78,157.9,175.36ZM105.3,193c-7.45,0-14.13-3.3-19.86-9.81h0c-5-5.69-21.21-25.36-19.34-39.6l.2-1.55,1.33.84,4.31,2.76c12.57,8.05,24.44,15.65,38.62,20.42,2.23.75,26.32,7.73,26.57,7.8l1.5.44-1,1.18c-.62.71-15.36,17.46-32.22,17.52ZM68,145.49c-.41,13.28,14.31,31.09,19,36.4h0C92.28,188,98.45,191,105.3,191h.07c13.44,0,26-11.86,29.64-15.67-5.45-1.58-23.13-6.72-25.09-7.38-14.41-4.84-26.38-12.51-39.06-20.63Z" style="fill:#fff"/><path d="M66.37,67.39c-.37-.29-.74-.56-1.11-.83C40.24,48.41,8,64,8,64c20.14-4.38,32.24,24.76,36.81,38.66h0c1.39,4.25,2.08,7.07,2.08,7.07S91.53,86.83,66.37,67.39Z" style="fill:#a84d3a"/><path d="M46.26,111.17l-.3-1.23s-.7-2.84-2.06-7l0-.17C39.59,89.87,27.68,60.71,8.25,64.94L0,66.74l7.6-3.68c.33-.15,33-15.59,58.25,2.7.38.27.76.55,1.13.85,5.84,4.5,8.53,9.6,8,15.15C73.6,97,48.46,110.05,47.39,110.59Zm-.41-8.69c.83,2.53,1.4,4.54,1.72,5.74C52.45,105.51,71.87,94,73,81.57c.45-4.82-2-9.32-7.25-13.38h0c-.36-.28-.72-.54-1.08-.81-18.06-13.1-40.21-8.16-50.48-4.72,17.27,2,27.68,27.71,31.61,39.66Z" style="fill:#fff"/><path d="M227.65,66.56c-.37.27-.74.54-1.11.83C201.38,86.83,246,109.7,246,109.7s.69-2.82,2.08-7.07h0c4.57-13.9,16.67-43,36.81-38.66C284.87,64,252.67,48.41,227.65,66.56Z" style="fill:#a84d3a"/><path d="M246.65,111.17l-1.13-.58c-1.07-.54-26.21-13.6-27.61-28.83-.52-5.55,2.18-10.65,8-15.16.37-.29.75-.57,1.13-.84h0c25.21-18.29,57.92-2.85,58.24-2.7l7.61,3.68-8.25-1.8c-19.44-4.23-31.35,25-35.61,37.86l0,.15c-1.36,4.15-2,7-2.06,7Zm-18.41-43.8-1.08.81c-5.27,4.07-7.71,8.57-7.26,13.39C221,94,240.46,105.51,245.33,108.22c.33-1.2.9-3.21,1.73-5.74l.05-.17c3.93-11.94,14.34-37.67,31.6-39.66-10.27-3.44-32.43-8.37-50.47,4.72Z" style="fill:#fff"/><path d="M252.17,120.73a108.9,108.9,0,0,0-4.11-18.1h0a98.12,98.12,0,0,0-20.41-36.06c-14.16-15.85-33.31-26.7-55.24-32A23.09,23.09,0,0,0,174,26.16a23.45,23.45,0,0,0-4.44-13.64A28.87,28.87,0,0,0,146.87,1H146a28.87,28.87,0,0,0-22.68,11.51,23.45,23.45,0,0,0-4.44,13.64,23.09,23.09,0,0,0,1.58,8.36c-21.93,5.34-41.08,16.19-55.24,32a98.12,98.12,0,0,0-20.41,36.06h0a108.9,108.9,0,0,0-4.11,18.1c-5.78,41.84,3.64,59.49,3.64,59.49C57,114.53,87.93,93.68,103.59,87.93a31,31,0,0,1,7.22-1.83h0l.17,0a5.31,5.31,0,0,1,.67,0c1.81,0,3.64,0,5.45.1s3.71.28,5.53.51l1.87.25.36,0,1.15.18,1,.16,1.91.35.3.06c1.33.25,2.61.52,3.84.8l1.52.35,1.07.27c.63.15,1.21.3,1.77.45l.57.15,1.61.45c.69.19,1.34.39,2,.57l.86.27.42.13c.41.12.79.24,1.13.36l.66.22.31.1,1.08.37.32.12.09,0h0l.09,0,.32-.12,1.08-.37.31-.1.66-.22c.34-.12.72-.24,1.13-.36l.42-.13.86-.27c.62-.18,1.27-.38,2-.57l1.61-.45.57-.15c.56-.15,1.14-.3,1.77-.45l1.07-.27,1.52-.35c1.23-.28,2.51-.55,3.84-.8l.3-.06,1.91-.35,1-.16,1.15-.18.36,0,1.87-.25c1.82-.23,3.67-.4,5.53-.51s3.64-.14,5.45-.1a5.31,5.31,0,0,1,.67,0l.17,0h0a31,31,0,0,1,7.22,1.83c15.66,5.75,46.64,26.6,59.21,92.29C248.53,180.22,258,162.57,252.17,120.73Z" style="fill:#271716"/><path d="M248.08,183.19l-.53-2.78c-13-68-45.3-86.66-58.58-91.54a29.48,29.48,0,0,0-6.92-1.77l-.29,0a3.26,3.26,0,0,0-.53,0c-1.74,0-3.54,0-5.4.1s-3.67.28-5.46.51l-1.85.24-.21,0-2.28.36-1.87.35-.21,0c-1.33.26-2.58.52-3.9.82l-1.51.35-1,.26-1.76.45-.56.15-1.6.44-1.35.4-.61.18-.82.25-.11,0-.27.08c-.47.14-.83.25-1.16.37s-.44.14-.63.21l-.14,0-.15,0-.88.3-.26.09-.23.09-.33.11h-.33l-.28-.09-.3-.11-.25-.08-.82-.29-.22-.07-.14,0-.59-.2c-.37-.13-.73-.24-1.12-.36l-.34-.1-.11,0-.84-.27-.59-.17-1.35-.39-1.59-.45-.56-.14c-.57-.16-1.14-.3-1.76-.45l-1.08-.28-1.49-.34c-1.33-.3-2.57-.56-3.82-.79l-.21-.05-2-.36-2.27-.36-.23,0c-.59-.09-1.2-.16-1.83-.24-1.78-.23-3.62-.4-5.46-.51s-3.65-.13-5.37-.1a3.57,3.57,0,0,0-.56,0l-.15,0h-.15a30.17,30.17,0,0,0-6.91,1.77c-13.27,4.88-45.56,23.56-58.57,91.54l-.53,2.78L43.5,180.7c-.39-.74-9.51-18.42-3.75-60.1a109.34,109.34,0,0,1,4.1-18.12l0-.16A99.1,99.1,0,0,1,64.51,65.9c13.8-15.44,32.68-26.52,54.67-32.08a24,24,0,0,1-1.26-7.66A24.49,24.49,0,0,1,122.54,12,29.93,29.93,0,0,1,146,0a7.36,7.36,0,0,1,.93,0,29.86,29.86,0,0,1,23.42,11.92,24.07,24.07,0,0,1,3.37,21.88c22,5.56,40.87,16.64,54.67,32.08A99.1,99.1,0,0,1,249,102.32l.05.16a110.36,110.36,0,0,1,4.1,18.12h0c5.76,41.68-3.36,59.36-3.75,60.1ZM45.85,102.78l-.05.16a109.11,109.11,0,0,0-4.07,17.93c-4.36,31.56,0,49.3,2.32,55.89C57.65,110.44,89.87,91.91,103.24,87a31.86,31.86,0,0,1,7.43-1.89l.18,0a6.53,6.53,0,0,1,.83,0c1.74,0,3.6,0,5.51.11s3.77.28,5.59.51c.64.08,1.27.16,1.89.26l2.51.38,1.95.36.39.08c1.17.22,2.44.48,3.78.79l1.53.35,1.09.28c.62.14,1.21.3,1.78.45l.58.15c.56.15,1.1.3,1.62.46s.92.26,1.37.39l.59.18.87.27a5,5,0,0,1,.49.15c.35.1.75.23,1.1.35s.46.14.69.23a2.55,2.55,0,0,1,.33.11l.79.27.23.08.09,0,.1,0,.24-.09.85-.28a1.79,1.79,0,0,1,.27-.1l.72-.23,1.14-.37.36-.11.91-.28.61-.18,1.37-.4c.51-.15,1-.3,1.63-.45l.49-.13c.64-.17,1.23-.33,1.87-.48l1.06-.27,1.55-.35c1.33-.31,2.6-.57,3.86-.81l.39-.07c.55-.11,1.19-.23,1.84-.34l2.5-.39c.65-.1,1.28-.18,1.91-.26,1.83-.23,3.71-.4,5.6-.51s3.77-.15,5.53-.11a5.57,5.57,0,0,1,.78,0l.21,0A31.82,31.82,0,0,1,189.66,87c13.38,4.91,45.59,23.43,59.2,89.75,2.29-6.62,6.67-24.4,2.32-55.88h0a109.11,109.11,0,0,0-4.07-17.93l-.05-.16A97.14,97.14,0,0,0,226.9,67.23c-13.75-15.39-32.67-26.36-54.73-31.73l-1.1-.27.41-1.07a22.21,22.21,0,0,0,1.51-8,22.46,22.46,0,0,0-4.26-13.06A27.91,27.91,0,0,0,146.84,2h-.73a27.94,27.94,0,0,0-21.94,11.1,22.46,22.46,0,0,0-4.25,13.05,22.21,22.21,0,0,0,1.51,8l.41,1.07-1.1.27C98.68,40.87,79.75,51.84,66,67.23A97.26,97.26,0,0,0,45.85,102.78Z" style="fill:#fff"/><path d="M112.31,172.94l-10,12.17-5.41-18.72c-6-3.22-11.83-7-17.84-10.82-1.18,8.87,7.68,21.63,13.1,26.61,17.48,16,34.74-5.27,34.74-5.27A126.14,126.14,0,0,1,112.31,172.94Z" style="fill:#9f6822"/><path d="M180.6,172.94l10,12.17,5.41-18.72c6-3.22,11.82-7,17.84-10.82,1.17,8.87-7.68,21.63-13.1,26.61-17.48,16-34.74-5.27-34.74-5.27A126.14,126.14,0,0,0,180.6,172.94Z" style="fill:#9f6822"/></g></g></svg>