<svg xmlns="http://www.w3.org/2000/svg" viewBox="0 0 543.22 509.99"><title>Horned-Devil_1</title><g id="a76b5cc0-cbe6-47d9-a541-6b725f0b758d" data-name="Layer 2"><g id="e1ce3760-79f0-49b1-8170-7d7be9244180" data-name="Layer 1"><path d="M281.68,211.5s22.71-1.73,34.68-23.39,14.82-21.66,14.82-21.66,26.22-25.08,5.7-77.52c0,0-2.85-30.21-16.53-39.9,0,0,.57-18.81-12-22.8,0,0-3.42,0-5.7-9.69L287.86,1.72l15.39,3.42s24.51,5.7,33.06,16.53c0,0,155,107.16,204.06,244,0,0-25.08-30.21-6.84,51.3,0,0-34.2-73,1.71,71.82l-8-19.38-4.56,8-6.84-8s.57,14.82-7.41,20.52-31.92,38.19-31.35,51.3c0,0-5.13-88.92-15.39-68.4,0,0,6.84-43.32-25.65-100.89l-9.12,4s-10.83-10.26-21.66,31.35c0,0-15.39-31.35-22.23-29.07,0,0-4-4-5.13-7.41L375.07,281s-9.12-8.55-38.76,6.27l-11.43-.55L322,291.63l-5.56.84s-8.07-28-4.65-42.8S292.51,209.79,281.68,211.5Z" style="fill:#5d3314"/><path d="M238.84,214.33s-20.52,4.56-33.63-9.69a124.59,124.59,0,0,0-29.07-22.8s-18.81-34.77-9.12-76.38c0,0-8.55-23.37,5.7-46.74,0,0-4-10.26,8-25.08,0,0,4-9.12.57-9.12L193.24,8l-17.67,8.55s-19.38,1.14-39.9,35.91c0,0-17.67,6.84-22.8,23.94,0,0-66.69,71.25-96.9,188.1L2.29,312.94,12,301l5.7,5.7s4,33.06,7.41,35.34L23.38,362l6.84-16.53,6.27-2.28s6.27,23.37,2.85,43.32,2.85,31.35,2.85,31.35V448L49,423l5.13,5.13,5.7-3.42L61,418.39l4.56,5.7s-9.12,9.69,47.31,46.17l18.24,24.51-10.83-47.31s-13.68-37.62,1.14-27.93c0,0-20.52-61-8-110l17.1,4L145.93,334s10.26-30.78,17.1-32.49,7.41-10.83,7.41-10.83l8,8.55,46.17-7.41,4-5.13,5.7,5.7,33.06-4S225.73,242.26,238.84,214.33Z" style="fill:#5d3314"/><path d="M315.22,92.35c-9.69-7.41-8.55,2.28-8.55,2.28a6.54,6.54,0,0,0-.57,9.12l-2.28,1.71.12.51-3.26.62-.23-1-2.81-.48A6.56,6.56,0,0,0,293,97.24s-3.4-9.14-8.65,1.88c0,0-4.8,4.38-13-22.82l-4.44-9.89,5.4,4.28s3.73-9,5.52-8l-2.9-9.4-3,2.83s3.14-16.66-.65-27.13c3.79,8.28,11.73,26.74,11.44,35.68L286,67.48s-22.11,11.76,11.88,20.59C324.14,64.69,299.25,65,299.25,65L301,61c-4.34-7.82-5.7-27.88-6.1-37,1.4,11,11.81,24.43,11.81,24.43l-4-1.14L304.39,57c1.14-1.71,8.55,4.56,8.55,4.56l2.85-6.27.57,10.83C321.49,94.06,315.22,92.35,315.22,92.35Z" style="fill:#e5a128"/><path d="M317.25,159.66l16.33,65.93a51.7,51.7,0,0,0-5.16.62L313,159.84l-3.32-14.32-9-38.94L304,106l9.95,40.2Z" style="fill:#2c2317"/><path d="M327.65,227.35,299.48,105.79l5.21-1,30.15,121.71-1.2.07a50.34,50.34,0,0,0-5.06.61Zm-25.75-120,27.28,117.7c1.17-.18,2.21-.31,3.15-.4L303.2,107.13Z" style="fill:#fff"/><path d="M342,239.43c1.5,3.51-1.38,10.06-2.12,11.63l-6.31-25.47c8.87-.57,3.87,3.58,3.87,3.58C347.7,232.6,342,239.43,342,239.43Z" style="fill:#cb9e43"/><path d="M226.3,174.45s6.27,9.12-5.13,10.26-7.41-33.06,23.37-21.09c0,0,13.11,8.55,11.4,12l-17.1-8,15.39,13.11-15.39-4,12.54,13.11,8.55,1.71s8.55,13.11-5.7,14.25l-10.83,4.56-2.85-6.84-1.71,9.69s-17.1,4-18.81,21.66c0,0-15.39,12.54-13.11,20.52s.57,13.68.57,13.68,20.52,17.1,29.64,9.12c0,0,1.14,13.68,4.56,14.82,0,0-2.85,14.25,1.71,18.81l5.13-13.68,2.85,7.41,7.41,1.14,2.28-9.12,9.69,10.83s-3.42-15.39-9.69-17.67l-1.14-6.84s10.83,5.7,9.69,12c0,0-4.56,16,1.14,27.36,0,0-13.11,72.4-65,75.82s-39.33-79.81-27.36-83.23,11.4-2.85,22.23,12,43.89-17.67-2.28-51.3l8,16-1.71,6.84,7.41-3.42s13.11,17.67-2.28,28.5c0,0-3.42,8-18.81-15.95-4.33-6.73-18.64,4.18-21,7.3-7.36,9.89-9,23.86-9.89,35.73-1.74,23.18,7.74,52.87,34.35,56.63,24.27,3.42,48.92-15.11,65.77-30.43,8.81-8,25.79-19.9,20.79-33.9l5.7,16s-9.12,1.14,10.83,39.9c0,0,13.68,54.15,28.5,62.7,0,0,8,29.07,19.38,35.34l9.12,8-4-11.4s.57,2.28-8-22.23c0,0,4-8,10.83,3.42s10.26,5.7,10.26,5.7l8.55,6.84s-5.7-13.68-13.68-20.52c0,0-1.14-8.55-10.83-8.55,0,0-19.38-16-31.35-51.87,0,0,17.1,18.24,23.94-6.84,0,0-4.56-10.83-1.14-14.25s-15.39-34.21-15.39-34.21,31.35,13.12,29.07,18.82c0,0-22.23-9.12,0,13.68s50.73,35.34,50.73,35.34-5.7,9.69,37.62,19.95c0,0-35.91-21.66-6.84-15.39l12,2.28s-14.25-14.82-28.5-13.68l-39.33-28.5s12.54,6.27,11.4-8c0,0-9.69-41.62-41.61-55.3,0,0-4-5.15-21.66-13.68,0,0-14.25-16.53-6.84-27.36,0,0,12.54-12,20-28.5,0,0,4-8,2.28-12,0,0,5.7-6.84-4.56-10.26,0,0,6.84-5.7-9.69-2.85,0,0-10.26-6.84-4.56,5.7a14.5,14.5,0,0,0,3.42,16s-1.14,9.69-12.54,12.54c0,0,1.71-6.84-2.28-12,0,0,7.41-25.65-25.65-37.05,0,0,0-10.83,2.85-8.55l.57-10.26,4.56-1.14,17.1-16L293,182.43l15.39-14.82-13.68,5.7s17.1-29.64,43.32-1.71c0,0,2.28,12-6.84,4,0,0-5.13,16.53,12,7.42,5.2-2.78,2.51-14.25.61-18.4-2.8-6.13-8.8-10.38-14.66-13.3-11.27-5.6-27.79-8.9-39.62-3.09-3,1.47-16.47,13.77-13,17.68,0,0-38.19-43.32-71.25-5.13,0,0-17.67,26.79,14.82,30.78C220,191.55,245.68,187.56,226.3,174.45Z" style="fill:#cb9e43"/><path d="M376.88,416.67l-.88.13a3.58,3.58,0,0,1-4.05-2.72l-3.76-16.22L350.62,322,336,258.76c1.33-2.32,2.61-4.79,3.76-7.35,0,0,.07-.13.17-.35l18.78,75.78L378,405l1.8,7.27A3.6,3.6,0,0,1,376.88,416.67Z" style="fill:#2c2317"/><path d="M375.45,417.85a4.6,4.6,0,0,1-4.47-3.54L334.9,258.61l.19-.34c1.41-2.47,2.66-4.91,3.72-7.27l.17-.35,1.19-2.64,40.62,164a4.6,4.6,0,0,1-3.75,5.65h0l-.88.13A4.14,4.14,0,0,1,375.45,417.85ZM337,258.92l35.9,154.93a2.61,2.61,0,0,0,2.93,2l.88-.13a2.59,2.59,0,0,0,2.12-3.19L339.6,254C338.82,255.63,338,257.27,337,258.92Z" style="fill:#fff"/><path d="M356.74,510l-11.89-10.41c-11-6.17-18.63-31.87-19.66-35.51-14.68-9.15-27.71-59.56-28.59-63-13.46-26.19-14.06-35.92-12.18-39.47a3.74,3.74,0,0,1,1.06-1.28l-2.76-7.74c-1.51,9.34-10.82,17.37-18,23.59-1.36,1.17-2.64,2.28-3.79,3.32-25.67,23.34-47.45,33.38-66.58,30.67-25.68-3.63-37.15-31.76-35.21-57.69,1-13.1,2.88-26.57,10.09-36.25,1.83-2.46,11.33-10,17.78-9.86A5.72,5.72,0,0,1,191.8,309c10,15.5,14.46,16.89,15.94,16.77a1.38,1.38,0,0,0,1.11-.66l.11-.26.23-.17c3.9-2.74,6.21-6.19,6.86-10.24,1.14-7-3-14-4.35-16.18L203.55,302l.3-6-25.8,4.32-6.93-7.43c-.63,3-2.5,8.26-7.85,9.6-4.6,1.15-12.5,20.14-16.4,31.84l-.6,1.81L130,314.4l-15.78-3.68c-11.83,48,8,107.89,8.19,108.49l.92,2.74-2.41-1.58c-2.05-1.34-3.59-1.76-4.33-1.17-2.93,2.32,1,17.73,4.67,27.92l0,.12,11.89,51.94-21-28.18c-40.37-26.11-47.47-38.81-48.1-44.06a5.34,5.34,0,0,1,.28-2.75l-2.76-3.46-.83,4.56-6.76,4-4.46-4.46L41.19,455.5V418.07c-.91-1.79-6-13-2.84-31.77,2.93-17.12-1.42-37.06-2.57-41.83L31,346.22l-9.14,22.1,2.22-25.94c-3.3-4.14-6.37-27.38-7.33-35.25l-4.67-4.67L0,317.35l15-53.13c29.21-113,93.3-184.32,97-188.34,5-16.12,20.47-23.17,23-24.23,19.59-33,38-35.87,40.32-36.09l21.07-10.2L182.81,24.09a2.35,2.35,0,0,1,.36.41c1.45,2.23-.83,7.87-1.56,9.54l-.14.23c-11.4,14.12-7.86,24-7.82,24.09l.17.46-.25.42c-13.84,22.7-5.7,45.65-5.61,45.88l.1.28-.07.29c-9.06,38.89,7.24,72.19,8.89,75.42A127.26,127.26,0,0,1,205.94,204c11.29,12.28,28.49,10.12,32,9.52l2.19-12.38,3.77,9.07L254,205.94l.16,0c3.6-.28,5.9-1.39,6.82-3.27,1.41-2.86-.56-7.23-1.66-9.08l-8.44-1.69L235.68,176l14.59,3.78L232.56,164.7l22.28,10.4c-1.16-2.23-6-6.34-10.76-9.46-13.82-5.34-20.82-.71-23.77,2.53-4.12,4.53-4.83,11-3.12,14.37a3.77,3.77,0,0,0,3.88,2.3c3.05-.31,4.94-1.22,5.63-2.7,1.15-2.47-1.2-6-1.23-6l-3-4.33,4.35,2.93c5.82,3.94,8.3,7.47,7.56,10.78-1.34,6-12.92,7.93-14.24,8.14l-.14,0-.14,0c-10.06-1.23-16.5-4.77-19.15-10.5-4.38-9.5,3.29-21.32,3.62-21.82l.08-.1c9.19-10.62,19.66-16,31.11-16.09h.19c18.3,0,33.79,13.5,39.31,19,1.42-5.68,11.58-14.51,14-15.69,5.37-2.63,12.14-3.64,19.65-2.91l-9.05-39.06-3.23-.56.27-1a5.47,5.47,0,0,0-4-6.67l-.46-.14-.17-.46c-.27-.74-1.35-2.85-2.61-2.91-.58,0-2.08.41-4.2,4.87l-.08.17-.15.14a2.45,2.45,0,0,1-2.31.4c-3.74-1-7.87-9-12.27-23.61l-6.09-13.56,7.59,6c1-2.27,2.92-6.11,4.63-7.15l-2.09-6.79L270.36,59l.56-3c0-.17,3.06-16.52-.6-26.61l1.85-.76c4.35,9.49,11.55,26.58,11.54,35.64l4.11,3.41-1.31.71c-.07,0-7,3.8-6.51,8.2.32,2.7,3.65,6.68,17.65,10.39,10.79-9.71,12-14.65,11-17.08-1.24-3.2-7-3.89-9.29-3.89h-.11l-1.54,0,2.12-5c-4.14-8-5.53-26.53-6-37l2-.17c1.36,10.66,11.5,23.82,11.61,24l1.87,2.41-5.4-1.54,1.25,7c2,.14,5.44,2.68,7.39,4.24l4-8.81L317.35,66c2.76,15,2.71,24-.15,26.61a2.5,2.5,0,0,1-2.25.7l-.19,0-.15-.12c-3.92-3-5.47-2.69-5.95-2.41-1,.58-1.12,2.79-1,3.77l.06.48-.35.35a5.5,5.5,0,0,0-.52,7.75l.71.81-2.61,2L315,146.5a62.35,62.35,0,0,1,14.52,5,45.55,45.55,0,0,1,7.52,4.64c5.57-10.83,12.1-33.12-1.11-66.88l-.06-.27c0-.29-3-29.86-16.11-39.17l-.44-.31,0-.54c0-.18.39-18-11.16-21.78-1-.11-4.24-1.17-6.42-10.17l-17-17,18.74,4.16c1,.24,24.79,5.87,33.54,16.77,2.45,1.72,40.46,28.48,83.65,70.71,41,40.11,95.27,102.81,120.66,173.65l1.91,5.33-3.62-4.35c-1.4-1.68-6-6.19-8.68-4.87-3,1.45-6.43,10.57,3.58,55.31l2,8.91-3.88-8.26c-4.62-9.87-10.26-18.37-11.82-17.8-.24.08-2.23,1.31.24,18.36,2.17,15,7.27,38.76,15.17,70.59l-1.9.62-7.2-17.49-4.25,7.44-6-7.05c-.24,4.68-1.52,14.19-7.79,18.68-7.61,5.43-31.48,37.88-30.93,50.44l-2,.1c-2-33.93-6.71-69.58-11.28-70.52-.43-.11-1.23.52-2.22,2.51L459.72,379l1-6.36c.07-.43,6.33-43.28-25.09-99.46l-8.9,3.89-.48-.45a4,4,0,0,0-3.8-.65c-3.24,1-9.65,6.34-16.21,31.52l-.67,2.61-1.19-2.42c-6.23-12.69-16.9-29.93-21-28.56l-.58.2-.44-.44a30.93,30.93,0,0,1-4.17-5.29l-2.58,9.29-1.21-1.13c-.05-.05-6.52-5.56-25.56,1.23l11.06,44.63c23.22,17.16,30.9,49.19,31,49.52l0,.14c.37,4.64-.62,7.79-2.95,9.36a7.2,7.2,0,0,1-4.49,1.05l34.67,25.13c14.41-.88,28.34,13.4,28.93,14l2.17,2.26-15-2.87c-9.35-2-10.16-.7-10.16-.68-.6,1.5,7.84,8.29,17.7,14.23l5.48,3.31L441,441.59c-28.19-6.67-36.32-13.25-38.17-17.6a4.94,4.94,0,0,1-.42-2.77,186.34,186.34,0,0,1-22.43-12.64l.85,3.43a4.59,4.59,0,0,1-3.76,5.65l-.88.13a4.59,4.59,0,0,1-5.18-3.48l-3.36-14.53A151.61,151.61,0,0,1,352.12,386c-10.72-11-10.83-14.28-9.73-15.91,1.56-2.3,6.53-1,9.37.05-1.72-3.34-13.4-9.89-25.53-15.19,6.26,10.45,16.92,29.48,13.63,32.77-2.4,2.4.24,10.5,1.36,13.15l.13.32-.09.33c-2.17,7.95-5.61,12.55-10.25,13.71s-9.51-1.58-12.46-3.85c11,30.53,27.28,45.62,29.53,47.6,8.88.19,11,7.25,11.37,9,7.93,7,13.46,20.11,13.69,20.67l1.5,3.6-10.86-8.68a4,4,0,0,1-2.68,1.05c-2.64,0-5.52-2.56-8.55-7.61-2.85-4.75-5-5.71-6.21-5.65a3.68,3.68,0,0,0-2.67,1.82c6.63,19,7.61,21.4,7.75,21.67l-.69.35.77-.23Zm-69.9-148.18a1.66,1.66,0,0,0-.74.91c-1,2.19-1.73,10.22,12.33,37.54l.09.22c.13.53,13.74,53.83,28,62.08l.35.2.11.4c.08.28,8,28.73,18.9,34.73l.17.12,6.27,5.48-2.68-7.66a4.32,4.32,0,0,1-.29-.62c-.18-.47-.5-1.32-1.05-2.83-1.35-3.69-3.6-10.06-6.7-18.94l-.14-.4.19-.38c.07-.12,1.61-3.15,4.57-3.26,2.64-.08,5.32,2.13,8,6.62,3.45,5.75,5.75,6.62,6.82,6.64h0a2.13,2.13,0,0,0,1.71-1l.6-.95.88.69,5.2,4.16c-2.27-4.51-6.48-11.91-11.6-16.3l-.29-.25-.06-.38c0-.31-1.17-7.68-9.83-7.68h-.36l-.28-.23c-.2-.16-19.74-16.55-31.66-52.32L314,404.13l3.12,3.32c.07.07,7.09,7.45,13.44,5.86,3.82-.95,6.75-5,8.71-12-.86-2.12-4.34-11.47-.79-15,1.55-1.55-5.56-16.65-15.54-33l-1.61-2.63,2.85,1.19c7.57,3.16,32.07,14,29.61,20.1l-.37.94-.93-.38c-3.45-1.42-7.75-2.31-8.41-1.34-.15.22-1.15,2.47,9.5,13.39a150.73,150.73,0,0,0,15.56,13.79l.28.22,3.53,15.21a2.6,2.6,0,0,0,2.92,2l.89-.13a2.59,2.59,0,0,0,2.11-3.19L376.75,404l2.16,1.45A182.17,182.17,0,0,0,404,419.76l1,.45-.57,1a2.7,2.7,0,0,0,.27,2.18c1.37,2.95,7.24,8.6,30.66,14.78-6.52-4.3-14.44-10.28-13.22-13.35.82-2.08,4.53-2.24,12.42-.54l8.54,1.63c-4.63-4-15-11.87-25.2-11.05l-.37,0L377.9,386.14l1-1.7c.05,0,5,2.46,7.89.53,1.67-1.13,2.37-3.64,2.07-7.46-.41-1.68-8.17-32.22-30.49-48.5l-.29-.22-11.66-47.08.84-.31c16.37-6,24.32-3.51,27.18-2l3.36-12.09,1,3.1c.86,2.57,3.54,5.59,4.53,6.64h.33c6.64,0,17.23,19.45,21.27,27.37,5-18.4,10.74-28.62,17-30.4a6.1,6.1,0,0,1,5.12.7l9.41-4.12.45.79c27,47.77,26.91,86.25,26.12,97.91a2.6,2.6,0,0,1,2.17-.55c1.57.32,5.74,1.18,9.85,37.21,1.17,10.27,2,20.56,2.5,27.33,5.3-15.61,23.37-39.28,30.3-44.23,7.45-5.33,7-19.53,7-19.67l-.11-2.87,7.78,9.08,4.87-8.52,3.72,9c-6.13-25.5-10.19-44.95-12.06-57.93-2.45-16.89-.83-19.85,1.07-20.53,3-1.05,7.39,5.61,10.76,11.8-6.4-30.67-6.67-47-.85-49.87,2.6-1.27,5.61.39,7.86,2.2C512,193,459.34,132.27,419.28,93.09,375,49.76,336.12,22.76,335.74,22.49l-.22-.2C327.28,11.86,303.26,6.17,303,6.11L291,3.44,303.58,16l.07.28c2,8.5,4.75,8.92,4.78,8.92l.25.05c12,3.83,12.67,20,12.67,23.25,13.2,9.89,16.26,37.66,16.51,40.17,13.88,35.57,6.21,58.8.39,69.49l-.58,1.07-.94-.78a41.39,41.39,0,0,0-8.09-5.16,60.52,60.52,0,0,0-14.64-5l-.62-.12-10.69-43.16,2-1.51a7.37,7.37,0,0,1,.92-9.28c-.06-1.19,0-4.11,2-5.26,1.8-1,4.39-.26,7.88,2.35a1,1,0,0,0,.4-.3c1-1.1,2.92-5.7-.58-24.74v-.13L315,59.45l-1.7,3.73-1-.85c-2.94-2.49-6.19-4.57-7.17-4.62l-1.28,1.93-2.43-13.72,2.74.78A77.51,77.51,0,0,1,296.41,33c.76,9.55,2.31,21.9,5.43,27.51l.24.43-1.34,3.11c2.71.21,8.25,1.13,9.79,5.1,1.75,4.51-2.16,10.94-11.95,19.66l-.4.36-.52-.14C285,85.75,278.59,81.75,278,76.8c-.52-4.42,4-8,6.3-9.45l-2.62-2.18v-.49c.21-6.42-4-18.11-7.73-27a77.37,77.37,0,0,1-.62,15.71l2.07-1.93,4.11,13.31-2-1.13c-.85.48-2.79,3.82-4.27,7.38l-.51,1.22-3.22-2.55L272.31,76c5.57,18.55,9.38,21.76,10.76,22.28a.94.94,0,0,0,.5.08c1.92-3.91,3.87-5.78,5.94-5.68,2.33.1,3.72,2.66,4.21,3.75a7.38,7.38,0,0,1,5.06,7.84l2.49.43,10,43.12-1.42-.17c-7.69-.95-14.58-.06-19.94,2.57-2.49,1.23-12,9.88-13,14.58-.21,1,.13,1.42.25,1.55l-1.5,1.32c-.19-.2-18.39-20.53-40-20.53h-.18c-10.83.06-20.78,5.22-29.56,15.34-.54.84-7.23,11.65-3.44,19.83,2.33,5,8.2,8.18,17.44,9.34,3.3-.54,11.59-2.69,12.45-6.58.41-1.8-.87-4-3.7-6.41a6.43,6.43,0,0,1-.24,4.31c-1,2.17-3.45,3.47-7.25,3.85a5.74,5.74,0,0,1-5.87-3.39c-2-4.07-1.32-11.39,3.43-16.62,3.3-3.63,11.07-8.84,26.07-3l.18.09c3.25,2.12,13.71,9.35,11.75,13.26l-.44.87-11.28-5.27,13.08,11.14L242,179.7,251.88,190l8.65,1.73.23.36c.18.27,4.32,6.7,2,11.4-1.24,2.53-4,4-8.3,4.37l-11.61,4.89-1.92-4.61-1.23,7-.66.15c-.21,0-21.23,4.51-34.58-10a124.59,124.59,0,0,0-28.81-22.6l-.26-.14-.14-.26c-.19-.35-18.8-35.43-9.28-76.81-.92-2.79-7.51-24.94,5.64-46.92-.66-2.27-2.57-12.06,8.21-25.47,1.27-2.95,2.24-6.64,1.66-7.52,0,0-.05-.08-.22-.08h-2l10.79-14.9-14.28,6.91h-.2c-.18,0-19.15,1.63-39.09,35.42l-.18.3-.32.12c-.17.07-17.28,6.88-22.21,23.3l-.06.22-.16.17c-.67.72-66.87,72.43-96.67,187.67L4.57,308.53l7.33-9,6.73,6.73,0,.34c1.93,16,5.07,33.36,7,34.63l.49.33L24.92,355.6l4.54-11,7.71-2.8.28,1.05c.06.24,6.29,23.82,2.87,43.75C37,406,43,417.23,43.06,417.34l.12.22v23L48.51,421l5.8,5.79L59,424l1.45-8,6.48,8.09-.6.64h0a3.16,3.16,0,0,0-.2,2.22c.85,5,8.11,17.08,47.32,42.42l.15.1,15.51,20.84-9.76-42.61c-1.61-4.46-9.11-26.08-4-30.12,1.1-.87,2.58-.92,4.42-.15-3.58-11.76-18.33-64.91-7.25-108.21l.24-.94,18.41,4.29.21.29,14.26,19c2.46-7.08,10.79-29.75,17.19-31.35,6.06-1.51,6.65-9.84,6.66-9.92l.14-2.32,9.2,9.86L206,293.64l-.25,5.16,6.65-3.07.48.66c.27.36,6.67,9.11,5.18,18.34-.73,4.54-3.25,8.38-7.49,11.43a3.37,3.37,0,0,1-2.63,1.58c-4.06.36-10-5.61-17.79-17.68a3.7,3.7,0,0,0-3.21-1.69h-.22c-5.47,0-14.18,6.75-15.89,9.05-6.9,9.28-8.74,22.41-9.7,35.21-1.51,20.22,6.17,51.7,33.5,55.56,18.51,2.62,39.75-7.25,65-30.17,1.16-1.06,2.45-2.17,3.82-3.35,8.78-7.58,20.81-17.95,16.69-29.47h0l1.89-.68v0l6.11,17.11-1.24.15Zm-84.06,39.44c-18.69,0-31-11.86-34.79-33.71-3.9-22.39,2.63-49.42,10.15-51.57,11.88-3.39,12.42-2.66,21.38,9.68l1.93,2.66c2.82,3.86,7.56,4.4,12.07,1.39,6.74-4.5,13.36-18.33,2.44-36.28l-.79-1.31,8.88-1.2,4.43-5.7,6.16,6.16,5.69-.69.3.67c.66,1.46,1.18,1.77,1.37,1.83l.84.28-.17.87c-.68,3.39-1.72,12.17.45,16.5l5.39-14.39,3.59,9.33,5.94.91,2.51-10.06,8.3,9.27-1.25-3.29c-2.1-5.55-4.48-8.94-6.88-9.81l-.55-.2-.7-4.22,6.09-.73.34.29c3.66,3.16,5.24,6.27,4.7,9.23l0,.09a48.15,48.15,0,0,0-1.06,5.15L269,306l.11.12,0,.42c-.37,4.79-.22,11.68,2.61,17.33l.15.3-.06.33a145.09,145.09,0,0,1-13.14,36.91c-12.94,24.56-31.18,38.3-52.76,39.72C204.8,401.22,203.78,401.25,202.78,401.25Zm-16.34-85c-1.88,0-4.23.67-7.75,1.67-5.91,1.69-12.58,27.19-8.73,49.31,2.57,14.82,10.38,32.05,32.71,32.06,1,0,2,0,3-.11,48.75-3.21,63-69.47,64-74.67-2.28-4.72-3.18-10.65-2.7-17.64l-5.43-6.08-2,8.18-8.89-1.37-2.11-5.49-4.75,12.67-1.1-1.1c-4.32-4.32-2.65-15.94-2.12-19a5.57,5.57,0,0,1-1.44-1.82l-5.22.63-5.24-5.24-3.55,4.56-6.68.9c9.4,16.56,5.18,31.67-3.81,37.67-5.39,3.61-11.34,2.86-14.79-1.87l-1.94-2.66C192.12,318.87,190.19,316.22,186.44,316.22ZM262,291.14c2.25,1.07,4.32,3.63,6.2,7.63.23-1.11.43-1.82.48-2,.44-2.6-1.7-5.21-3.72-7l-3.13.38Zm89.31,33.24L327.18,308.1c-.64-.41-11.26-7.32-9.8-18L318,286l1.36,4c.76,2.2,1.38,2.31,1.39,2.31a.8.8,0,0,0,.44-.29l1.91-5.09,13-.59c1.83-.91,3.68-1.78,5.49-2.58l1.13-.49Zm-31.9-30.57c1.05,7.59,8.8,12.55,8.89,12.61l0,0,20,13.52-7.08-33.9c-1.48.67-3,1.38-4.47,2.13l-.19.09-12.09.55-1.61,4.2a2.73,2.73,0,0,1-2.41,1.23A2.32,2.32,0,0,1,319.37,293.81Zm-34.24-82.39,0-2.51c0-1.55.18-5.23,2-6.1a2,2,0,0,1,.93-.19l.53-9.6,5-1.26,13.23-12.34-18.05,6.77,15-14.49-11.5,4.79,1.48-2.56c.29-.5,7.26-12.35,19.31-14l.9-.13,5.66,24.41-.2.34c-.71,1.26-1.47,2.6-2.27,4-12.1,21.91-30.28,22.77-31.05,22.8Zm2.84-6.8c-.38.25-.81,2.38-.8,4.29v.37c4-.55,18.42-3.73,28.32-21.65.73-1.33,1.43-2.57,2.09-3.73l-2.23-9.66-20.72,19.34-4.1,1-.63,11.46-1.52-1.21A1,1,0,0,0,288,204.62Zm24.93-38.86-15.74,15.16,18.15-6.81-2.8-12.05c-7.16,1.35-12.39,6.76-15,10.12Zm8.61,15.3-5.29-21.36,1.39.11c4.63.39,9.37,2.36,14.08,5.86l1.56,1.15-1.84.6c-.13.05-2.25,1.1-8.65,11.6ZM318.85,162l3.46,14c3-4.7,5.38-7.95,7.07-9.48A25.81,25.81,0,0,0,318.85,162Z" style="fill:#fff"/></g></g></svg>