<svg xmlns="http://www.w3.org/2000/svg" viewBox="0 0 270.04 348.76"><defs><style>.cls-1{fill:#cec593;}.cls-2{fill:#fff;}</style></defs><g id="Layer_2" data-name="Layer 2"><g id="Layer_1-2" data-name="Layer 1"><path class="cls-1" d="M23.25,1.5c-3.12,0-6.46,17.27-9.93,32.27l24.19,75.9L8.16,57.26C6,68,4.09,78.77,2.9,89.41l32.45,43.78L1.65,105.51a161.36,161.36,0,0,0,.81,24.72l34.21,27.51-30.74-10a167.56,167.56,0,0,0,7.38,20.33L44,188.34l-22.6-3.24c10.4,20.26,22.42,39.25,29.09,54.5a114.35,114.35,0,0,1,8.21,21.17c2.92,11.8-3.4,27-16,28.81,9.24-10.75,10-17.67,8.29-24.46-10-.14-14.37,12-14.37,12s-9.42,17.64,11.81,44.62,50.5,25.54,50.5,25.54-1.69-41.38-.78-60.11c.92-18.91,6.28-52.43,6.28-52.43s-15,.07-31.91-11.88c-21.17-15-13.16-24.52-18.53-38.39-10.84-28-3.52-71.51-3.52-71.51s-8.16-32-13.42-54.74C32.69,39.36,25.58,1.5,23.25,1.5Zm223.54,0c-2.33,0-9.44,37.86-13.8,56.69-5.25,22.72-13.42,54.74-13.42,54.74s7.32,43.55-3.51,71.51c-5.38,13.87,2.63,23.4-18.54,38.39-16.87,11.95-31.9,11.88-31.9,11.88s5.36,33.52,6.28,52.43c.9,18.73-.78,60.11-.78,60.11s29.26,1.44,50.49-25.54,11.81-44.63,11.81-44.63-4.41-12.1-14.36-12c-1.67,6.79-.95,13.72,8.28,24.46-12.58-1.79-18.91-17-16-28.81a115,115,0,0,1,8.22-21.17c6.67-15.25,18.69-34.24,29.08-54.5l-22.6,3.24,30.69-20.25a165.81,165.81,0,0,0,7.37-20.33l-30.73,10,34.21-27.51a162.64,162.64,0,0,0,.81-24.72l-33.7,27.68,32.45-43.78C266,78.77,264.09,68,261.89,57.26l-29.36,52.41,24.2-75.9C253.26,18.77,249.91,1.5,246.79,1.5ZM135,1.85c-14.57,0-48.18,34.12-66.4,56.92-5.28,6.6-11.88,22.42-11.88,22.42l6.91,28s-.86,6.36-1.95,22.92c-.82,12.47-.79,24.66-.79,24.66l39.59-12.7a406.56,406.56,0,0,1,15.22-58C121,70.92,135,42,135,42s14.43,27.55,19.6,42.17c6.85,19.39,11.88,43.21,14.92,59.89l39.6,12.7s0-12.19-.79-24.66c-1.09-16.56-2-22.92-2-22.92l6.91-28s-4.58-14.57-9.05-20.56C186.14,36.32,149.59,1.85,135,1.85Zm0,57.94S127,81,123.47,97.9c-3.23,15.65-8.94,50.09-8.94,50.09s9,9,4.27,13.72S106,157.42,106,157.42L63.57,170.29l2.5,9.94L106,195.15s8-9.11,12.81-4.28-4.27,18-4.27,18S117.44,221,119,227c2.6,9.79,8.22,29.24,8.22,29.24l7.77,2.16,7.78-2.16s5.11-18.19,7.55-27.32c1.78-6.65,5.17-20,5.17-20s-9.08-13.19-4.27-18,12.81,4.28,12.81,4.28L204,180.23l2.51-9.94-42.42-12.87s-8.08,9.05-12.81,4.29S155.52,148,155.52,148s-5.68-31.81-9-49.47C143.38,81.27,135,59.79,135,59.79Zm0,102.51c3.78,0,6.83,6.14,6.83,13.72s-3,13.72-6.83,13.72-6.83-6.15-6.83-13.72S131.25,162.3,135,162.3Z"/><path class="cls-2" d="M171.71,348.76H171l-1.48-.08.06-1.48c0-.42,1.67-41.53.78-60-.9-18.62-6.21-51.94-6.26-52.27l-.28-1.75h1.76c.18,0,14.82-.12,31-11.6,14-9.92,14.7-17.06,15.5-25.31a43.57,43.57,0,0,1,2.51-12.4c10.56-27.25,3.51-70.29,3.44-70.73l-.06-.31.08-.3c.08-.32,8.22-32.26,13.41-54.71,1.23-5.3,2.66-12.05,4.17-19.19C243.2,3.33,244.42,0,246.79,0c3.53,0,5.51,7.33,9.88,26.74.5,2.24,1,4.49,1.52,6.69l.09.41L238.46,96l24.09-43,.81,4c2.47,12.11,4.2,22.67,5.28,32.28l.07.58-25.56,34.49,26.63-21.88.12,3a162.47,162.47,0,0,1-.82,25L269,131l-28.32,22.77,25.63-8.33-.76,2.71a165.74,165.74,0,0,1-7.45,20.51l-.17.41-25.47,16.82,18.84-2.71L250,185.78c-4.36,8.5-9,16.7-13.41,24.63-6.06,10.79-11.79,21-15.64,29.79a114.58,114.58,0,0,0-8.13,20.94,25.09,25.09,0,0,0,3.46,19.5,17.64,17.64,0,0,0,6.93,6.15c-7.19-9.76-7-16.36-5.6-22l.28-1.12,1.16,0h.2c10.38,0,15.08,11.59,15.56,12.86.82,1.63,9,19.46-12,46.16C203.11,347.65,176.26,348.76,171.71,348.76Zm-4.35-112.63c1.08,7,5.24,34.56,6,50.94s-.42,50.94-.71,58.67a64.41,64.41,0,0,0,47.75-25c20.29-25.78,11.76-42.83,11.67-43l-.08-.19c0-.11-3.82-10.12-11.77-10.93-1.21,6.07,0,12.31,8.23,21.93l2.6,3-4-.57a19.17,19.17,0,0,1-13.35-8.75,28.17,28.17,0,0,1-3.88-21.9,114.21,114.21,0,0,1,8.33-21.48c3.87-8.87,9.63-19.13,15.73-30,4-7.1,8.09-14.41,12-21.94l-26.34,3.78,35.9-23.7a170.8,170.8,0,0,0,6.33-17l-35.8,11.64,40.1-32.25A158.69,158.69,0,0,0,267,108.6l-40.75,33.47L265.59,89c-.95-8.29-2.39-17.32-4.38-27.46l-34.6,61.79,28.56-89.61c-.48-2.08-.95-4.2-1.43-6.31-2-8.9-4.67-20.77-6.61-23.81-1.87,4.5-5.66,22.35-8.49,35.69-1.52,7.16-2.95,13.92-4.18,19.25C229.53,79.83,222,109.66,221.11,113c.69,4.31,6.84,44.91-3.65,72a41.21,41.21,0,0,0-2.32,11.6c-.83,8.62-1.62,16.76-16.75,27.48C184.47,233.91,171.87,235.78,167.36,236.13Zm-69,112.63c-4.55,0-31.4-1.11-51.09-26.12-21-26.71-12.83-44.53-12-46.16.48-1.28,5.17-12.86,15.55-12.86H51l1.16,0,.27,1.12c1.4,5.67,1.59,12.27-5.59,22a17.58,17.58,0,0,0,6.93-6.16,25.08,25.08,0,0,0,3.45-19.5,114.21,114.21,0,0,0-8.09-20.86c-3.89-8.87-9.61-19.06-15.67-29.86-4.45-7.93-9-16.12-13.41-24.63l-1.33-2.58,18.85,2.71L12.11,169.09l-.18-.41a166.18,166.18,0,0,1-7.44-20.51l-.77-2.71,25.64,8.33L1,131,1,130.4a162.43,162.43,0,0,1-.82-25l.12-3L26.9,124.3,1.34,89.82l.06-.58C2.48,79.64,4.21,69.08,6.69,57l.81-4L31.59,96,11.77,33.83l.09-.4c.51-2.2,1-4.45,1.52-6.69C17.74,7.33,19.73,0,23.25,0c2.38,0,3.59,3.33,11.08,38.64,1.52,7.15,3,13.9,4.18,19.21,5.19,22.45,13.33,54.39,13.41,54.71l.08.3,0,.31c-.07.44-7.13,43.48,3.44,70.73a43.53,43.53,0,0,1,2.5,12.4c.8,8.25,1.49,15.39,15.5,25.31,16.21,11.48,30.85,11.6,31,11.6h1.77l-.28,1.74c-.06.33-5.36,33.65-6.26,52.27-.9,18.44.76,59.55.78,60l.06,1.48-1.49.08ZM49.8,266.67c-8,.8-11.73,10.82-11.77,10.93l-.09.19c-.08.17-8.62,17.21,11.67,43a64.47,64.47,0,0,0,47.76,25c-.3-7.73-1.52-42.15-.72-58.67s4.95-43.94,6-50.94c-4.52-.35-17.11-2.22-31-12.07-15.14-10.72-15.92-18.86-16.75-27.48A41.57,41.57,0,0,0,52.59,185c-10.5-27.08-4.35-67.68-3.65-72-.85-3.33-8.42-33.16-13.35-54.46-1.23-5.34-2.67-12.11-4.19-19.27C28.57,25.92,24.79,8.09,22.92,3.59c-1.94,3-4.61,14.91-6.62,23.8-.47,2.11-1,4.24-1.43,6.32l28.57,89.61L8.83,61.53C6.84,71.68,5.4,80.7,4.45,89L43.8,142.07,3.05,108.6a156.91,156.91,0,0,0,.83,20.85L44,161.7,8.18,150.06a166.83,166.83,0,0,0,6.33,17l35.89,23.7L24.06,187c3.94,7.53,8,14.85,12,21.94,6.1,10.86,11.85,21.12,15.76,30.06a114.44,114.44,0,0,1,8.3,21.4,28.23,28.23,0,0,1-3.89,21.91,19.19,19.19,0,0,1-13.35,8.75l-3.94.57,2.59-3C49.84,279,51,272.74,49.8,266.67ZM135,259.91l-9-2.49-.24-.81c0-.19-5.65-19.58-8.22-29.28-1.57-6-4.48-18-4.51-18.1l-.16-.65.38-.55c2.17-3.16,7.64-12.9,4.44-16.11a3.07,3.07,0,0,0-2.38-1c-3.09.09-7,3.77-8.24,5.18l-.68.78-1-.36-40.65-15.2-3.05-12.08,44.71-13.57.63.71c1.27,1.41,5.22,5.09,8.31,5.17a3,3,0,0,0,2.32-.94c3.57-3.58-4.18-11.52-4.26-11.6l-.55-.55.13-.76c0-.34,5.75-34.65,9-50.14,3.48-16.85,11.54-38.13,11.62-38.34l.33-.88.94-.08c1.25-.12,1.48-.14,6.13,13.92a211.57,211.57,0,0,1,7,26c3.23,17.46,8.89,49.16,8.94,49.47l.14.77-.55.56c-.08.08-7.84,8-4.27,11.6a3,3,0,0,0,2.33.94c3.08-.08,7-3.76,8.3-5.17l.64-.71.91.28,43.79,13.29-3.05,12.08-41.62,15.56-.68-.78c-1.24-1.41-5.15-5.09-8.24-5.18a3,3,0,0,0-2.38,1c-3.2,3.22,2.27,13,4.44,16.1l.39.56-.17.66c0,.14-3.41,13.44-5.17,20-2.42,9-7.51,27.16-7.56,27.34l-.23.81ZM128.45,255l6.57,1.82,6.56-1.82c1-3.64,5.2-18.57,7.32-26.48,1.53-5.73,4.3-16.58,5-19.34-1.93-2.93-8.79-14.25-3.72-19.34a6.09,6.09,0,0,1,4.61-1.85c4,.13,8,3.77,9.68,5.44l38.24-14.3,2-7.79-40.16-12.18c-1.62,1.63-5.72,5.35-9.79,5.46a6,6,0,0,1-4.54-1.82c-1.72-1.73-3.09-5,.13-10.46a29.65,29.65,0,0,1,3.6-4.81c-.88-4.9-5.86-32.75-8.81-48.71C142.76,86.15,137.55,71,135,64.12c-2.45,6.84-7.53,21.7-10.09,34.08-2.93,14.18-8,44.21-8.81,49.3a28.77,28.77,0,0,1,3.6,4.81c3.23,5.51,1.85,8.73.13,10.46a6.1,6.1,0,0,1-4.54,1.82c-4.07-.11-8.17-3.83-9.79-5.46L65.37,171.31l2,7.79,38.23,14.3c1.64-1.67,5.65-5.31,9.68-5.44a6,6,0,0,1,4.61,1.85c5.08,5.1-1.8,16.43-3.72,19.35.62,2.58,3,12.28,4.34,17.41C122.74,235.1,127.37,251.2,128.45,255ZM135,191.24c-4.67,0-8.33-6.69-8.33-15.22s3.66-15.22,8.33-15.22,8.33,6.68,8.33,15.22S139.69,191.24,135,191.24Zm0-27.44c-2.52,0-5.33,5-5.33,12.22s2.81,12.22,5.33,12.22,5.33-5,5.33-12.22S137.54,163.8,135,163.8Zm75.61-5-42.4-13.59-.16-.89C165,127.77,160,104,153.2,84.7c-4.13-11.7-14.4-32.05-18.13-39.31-3.6,7.53-13.7,29-17.93,41.16A404.62,404.62,0,0,0,102,144.35l-.16.89-42.41,13.6v-2.05c0-.12,0-12.38.8-24.76,1-14.7,1.75-21.31,1.93-22.73l-7-28.24.19-.45c.27-.66,6.74-16.09,12.08-22.78C85.21,35.61,119.27.35,135,.35s52.82,35.74,70.44,59.38c4.56,6.13,9.08,20.4,9.27,21l.13.4-7,28.16c.18,1.42,1,8,1.93,22.73.82,12.38.8,24.64.8,24.76Zm-39.77-15.9,36.77,11.79c0-4-.17-13.21-.78-22.5-1.07-16.29-1.94-22.75-1.95-22.81l0-.29,6.88-27.89c-.76-2.35-4.83-14.53-8.69-19.72-19.11-25.64-55-58.17-68-58.17C121.26,3.35,88,37,69.79,59.71c-4.59,5.74-10.35,19-11.47,21.6l6.86,27.82,0,.29c0,.06-.87,6.52-2,22.81-.61,9.29-.75,18.51-.78,22.5l36.77-11.79A411.66,411.66,0,0,1,114.3,85.56c5.24-15,19.23-43.9,19.37-44.19L135,38.7l1.38,2.63c.14.28,14.54,27.82,19.68,42.37C162.78,102.81,167.8,126.29,170.86,142.94Z"/></g></g></svg>