<svg xmlns="http://www.w3.org/2000/svg" viewBox="0 0 580.07 436.33"><title>Ice-Devil_1</title><g id="be70416e-f943-43cf-a802-4c614f15828d" data-name="Layer 2"><g id="facce8b5-de7b-4a72-a4bf-edb798a2c69e" data-name="Layer 1"><path d="M216.88,66.56v0c-12.39,6.08-14.52-2.35-14.52-2.35a12.07,12.07,0,0,1-2,3.37c-3.27-6.86-6.78-18.24-2.57-30.43h0a13.29,13.29,0,0,0,1.41-.69c8.81-10.26,23.31-3,23.31-3S199.72,40.56,216.88,66.56Z" style="fill:#b1987a"/><path d="M209,69.79a8.27,8.27,0,0,1-4.06-1,7.12,7.12,0,0,1-2.62-2.5,12,12,0,0,1-1.35,2l-.81,1-.55-1.17c-3.55-7.45-6.88-18.93-2.62-31.29l.22-.63h.44a11.78,11.78,0,0,0,1.06-.52c9.12-10.44,23.54-3.41,24.15-3.1l2.28,1.13-2.4.75c-.08,0-8.57,2.77-10.85,10.64-1.66,5.69.24,12.71,5.63,20.89l.18.26v1l-.53.26A19.15,19.15,0,0,1,209,69.79Zm-6.5-8.38.64,2.53A5.39,5.39,0,0,0,205.76,67c2.3,1.24,5.66.93,9.77-.9-5.25-8.3-7-15.61-5.23-21.72S217,35,220,33.49c-4.3-1.49-13.84-3.62-20.12,3.69l-.22.19s-.47.28-1.15.59c-3.58,10.79-1,20.9,2.07,27.88a12.94,12.94,0,0,0,1-2Z" style="fill:#fff"/><path d="M180.59,88.36C183.19,98,178,99.22,178,99.22h-4.67l-16.69,25.25c-9.7-15.85-18.64-16.38-24.11-16.17l-1.17-3,22.81-36.8c3.18,0,3.93.94,4.17-1.06,11.14,1.88,18.8,11.14,23.73,20.13A6.12,6.12,0,0,1,180.59,88.36Z" style="fill:#b1987a"/><path d="M156.61,126.15l-.67-1.1c-10-16.27-19-15.92-23.38-15.75l-.58,0-1.6-4.19,23.35-37.67h.44a20.94,20.94,0,0,1,2.32.14,7.53,7.53,0,0,0,.92.07,2.3,2.3,0,0,0,.07-.41l.12-1,.86.14C167.86,68,176.28,75.1,182.8,87l.47.86-.75.53a8.38,8.38,0,0,1-.89.57c.83,3.56.72,6.41-.35,8.5a5.15,5.15,0,0,1-3.11,2.76l-.17,0h-4.24Zm-22.48-18.89c4.77,0,13.44,1.31,22.53,15.54l16.25-24.58h5a3.55,3.55,0,0,0,1.93-1.84c.86-1.73.84-4.4-.06-7.72l-.26-1,.84-.28a3.61,3.61,0,0,0,.5-.24C174.79,76.5,167.44,70.23,159,68.52c-.49,1.32-1.54,1.2-2.65,1.08a16.56,16.56,0,0,0-1.72-.14l-22.25,35.91.73,1.91Z" style="fill:#fff"/><path d="M394.66,210.64c-12,9.38-21.3,30.94-21.3,30.94a14.44,14.44,0,0,0-1.58,4c-20.69-3.89-16-30-16-30,2.59,5.44,18.65-21.71,18.65-21.71.14-1,.31-2,.47-3l.93.21Z" style="fill:#b1987a"/><path d="M372.43,246.72l-.78-.15a19,19,0,0,1-13.5-9.16c-5.45-9.2-3.34-21.46-3.25-22l.47-2.64,1.12,2.36c.09.19.16.2.24.2,2.58.14,11.38-12.6,16.84-21.81.14-1,.29-1.9.45-2.78l.17-1,2,.45,19.87,20.51-.92.72c-11.72,9.13-20.92,30.34-21,30.55l-.05.1a13.19,13.19,0,0,0-1.46,3.7Zm-16-29.4c-.37,3.45-.8,12.26,3.18,19a17.22,17.22,0,0,0,11.61,8.15,16.12,16.12,0,0,1,1.43-3.36c.61-1.4,9.2-21,20.66-30.54l-17.75-18.32c-.1.6-.19,1.22-.28,1.86l0,.22-.11.19c-2.27,3.84-13.76,22.86-18.36,22.86h-.09A2.06,2.06,0,0,1,356.39,217.32Z" style="fill:#fff"/><polygon points="108.86 120.07 105.12 130.08 88.88 135.41 82.14 124.56 78 128.77 19.95 108.27 81.1 107.06 84.21 112.48 95.61 105.25 108.86 120.07" style="fill:#7d7a91"/><path d="M88.53,136.56,82,126l-3.79,3.86L14.47,107.37l67.09-1.32,2.93,5.12L95.76,104l14.12,15.81-4.13,11.09Zm-6.25-13.48,6.94,11.18,15.28-5,3.33-8.94L95.47,106.48,83.93,113.8l-3.28-5.73-55.21,1.09,52.35,18.49Z" style="fill:#fff"/><path d="M458.33,205.38c-36.26-6.63-7.24,13.28-7.24,13.28-11.92,4.82-45.61-7.85-45.61-7.85,21.77,3,17.1-9,17.1-9L415,200l3-13.48,6.19,1.33c16.06,6,17.61-13.27,17.61-13.27,9.86-1.81,132.15,53.69,132.15,53.69L465.59,215.63S494.61,212,458.33,205.38Z" style="fill:#7d7a91"/><path d="M580.07,230l-122.8-14.37,8.23-1c5-.62,9.68-2,10.2-3-.24-.49-2.17-2.49-17.5-5.29-15.06-2.75-17-.54-17.2.2-.63,2,5,7.42,10.52,11.23l1.6,1.09-1.75.71c-12.06,4.88-44.76-7.31-46.15-7.83l.37-2c10.66,1.48,14.49-.73,15.83-2.85a5.7,5.7,0,0,0,.52-4.33l-8-1.82,3.4-15.41,7.09,1.52c4.51,1.7,8.22,1.47,11-.68,4.75-3.64,5.46-11.64,5.47-11.73l.06-.77.66-.12a3.42,3.42,0,0,1,.59,0c13.31,0,127.08,51.57,132,53.8ZM472.17,215.4l95.53,11.18c-42.48-19.17-115-50.78-125.19-51-.33,2.35-1.62,8.89-6.12,12.34-3.26,2.5-7.45,2.82-12.46,1l-5.35-1.15L416,199.26l7.15,1.62.19.47a8.18,8.18,0,0,1-.57,6.8c-1.63,2.59-5,4-10,4.13,9.73,3.15,27.12,8,36.13,6-3.91-2.88-10.72-8.55-9.54-12.39.68-2.2,3.45-4.36,19.09-1.51h0c16.74,3.07,19,5.33,19,7.32C477.4,213.42,475,214.6,472.17,215.4Z" style="fill:#fff"/><path d="M132.53,108.3l.9,2.37s.52,7.85-10.36,4.84l-3.16,7.14-4.28,9.63-.85,1.93s2.07,9.65,8.81,7.84c0,0-.52,4.82,10.36,4.22,0,0,7.81,5.67,12.84-6.94A48.69,48.69,0,0,0,149.47,129c.2-1.21.38-2.47.55-3.83l6.56-.59.06-.1C146.94,108.62,138,108.09,132.53,108.3Zm276.61,76.37c-.15-6.75-1.29-12.35-4.69-11.86,0,0-9.33-.6-13.48,6.64,0,0-6.45-7.83-11.61-1.16-1.69,2.19-3.24,6-4.38,12q-.06.3-.12.63l.93.21,18.87,19.47c4.06-3.18,8.44-5,12.9-4,0,0,.49-3.38.94-8A126.6,126.6,0,0,0,409.14,184.67Zm23.8,189.61s-10.36,6.64-17.61-1.2c0,0-22.8-28.35-19.69-53.09,0,0,16.07,8.45,3.62-34.37,0,0-13.46-41-18.65-38.61l.52,10.25s-11.22-2.8-9.35-11.68c-20.69-3.89-16-30-16-30l-1.55-10.25,5.17-.6-1.55-9.05,4.67.6a74.79,74.79,0,0,1,2.64-7.57,49.69,49.69,0,0,1,6.7-12.09c2.87-3.56,6.34-6.06,10.35-5.67,0,0-1-41-17.1-72.39,0,0-.28-.06-.75-.21l-.35-.12c-.3-.1-.67-.23-1.08-.4l-.17-.08-.08,0a1.28,1.28,0,0,1-.24-.11h0c-.38-.17-.78-.34-1.21-.57L361,97l-.55-.3a.6.6,0,0,1-.11-.06c-.09,0-.18-.09-.27-.15l-.18-.11-.1-.06-.13-.08-.24-.14-.3-.2a.33.33,0,0,1-.1-.06l-.12-.08s0,0,0,0a14.47,14.47,0,0,1-1.33-1c-.08,0-.16-.13-.24-.18l-.23-.21a.75.75,0,0,1-.17-.14,2.35,2.35,0,0,1-.29-.26.87.87,0,0,1-.11-.09l-.34-.33a8.35,8.35,0,0,1-.59-.6v0c-.2-.21-.41-.43-.6-.66s-.37-.45-.54-.68-.21-.29-.31-.43L354,91c-.07-.1-.14-.22-.21-.33s-.22-.35-.33-.54a1,1,0,0,1-.1-.17l-.05-.07a11.92,11.92,0,0,1-.64-1.29,2.2,2.2,0,0,1-.15-.31c-.11-.26-.22-.54-.31-.82s-.19-.53-.28-.81-.09-.3-.13-.45,0-.1,0-.16,0-.13-.05-.19c-.07-.27-.13-.54-.18-.83s-.06-.31-.08-.47-.06-.33-.08-.5,0-.28,0-.42,0-.25,0-.38a.15.15,0,0,1,0-.07h0a1.33,1.33,0,0,1,0-.28,4.24,4.24,0,0,1,0-.51,1.48,1.48,0,0,1,0-.21c0-.26,0-.53,0-.81,0-3.83,1.06-8.49,3.74-14.1l0,0c.54-1.15,1.18-2.35,1.87-3.59,0,0,.51-10.85-3.11-12.66,0,0,.52-37.4,18.13-7.84,0,0-1,9.65,6.22,3,0,0-1.56-3-3.11-3,0,0-18.65-35-23.84,2.41,0,0-9.84-9.66-15.54-6,0,0-5.7-20.51-12.95-24.74,0,0,4.14,18.7-2.08,12.67,0,0-5.18-20.51-14-10.86,0,0-2.08,6,5.7,2.42,0,0,8.29,7.23,4.15,10.26s-10.88,3-23.84-25.94a26.66,26.66,0,0,0,2.07,11.45s8.81,9-25.91-12.66c0,0-17.61,6.63-20.72,17.5,0,0-5.7-7.85-15.55,7.23,0,0-6.73-1.81-9.85,6.63,0,0-22.84,7.1-5.68,33.1A41.7,41.7,0,0,0,221,64.23s5.18,9.65,11.92,5.43c0,0-2.08,8.45,6.74,6.64,0,0-5.18,9-.53,12.66l-7.24.6,10.36,9.66,4.14,22.31s-14.93-9.6-21.51-17.66c6.45,9.76,24.08,37.41,22.51,46.12-.39,2.28-2.11,3.27-5.66,2.31l-5.13-4.63-15.59-14c.17.31,3,5.45,6,12a135.4,135.4,0,0,1,5.3,13.08c2.54,7.53,3.58,14.25.1,15.92-8.8,4.22-17.62-13.27-17.62-13.27L221,185.48s-3.62,18.7-14,4.83l2.08,19.9s-11.93,32.57-9.33-14.48L191,212s-10.37-6-19.18,15.69c0,0-19.68,14.47-26.94,44l-19.18,3.63,2.6,9.65s-19.18-12.67-24.36-3.62L106,291.64s-5.18,8.45-20.73-1.81c0,0-7.76,4.83-2.07,13.28,0,0-12.43,1.81-20.2-4.23,0,0-5.7,7.24,1,10.86,0,0-7.77,6-19.17-6,0,0,5.18,18.1-15.54-3l-2.6,7.24S8,297.68,39.13,276c0,0,11.4-7.84,21.24,6.63,0,0,12.44-18.7-24.35-16.88l-5.7-4.83-4.67,7.84-2.58-6.64-8.81,17.5s-26.44,30.16-5.19,59.71c0,0-6.73,10.27,20.74,12.68,0,0,6.72,8.45,26.42,9,0,0,13.48,7.24,40.42-2.42l4.14,3s-9.33,33.17-25.91,30.76l-14,7.24s-11.4,10.86-19.17,4.82l-7.26,13.88s7.25,0,4.68,9c.31-.62,5.73-10.8,24.35-9.63l2.07,9.65s10.36-19.9,44-20.5c0,0,5.7,4.21-1.56-13.28,0,0-2.07-27.15,16.07-38.61l28-6.64,1,8.45,17.62-15.68,4.15,6s3.62-11.46,13.46-12.67,81.36-25.94,96.9-42.23l25.91,18.7-11.39-29.55s30.57,6,37.31,16.29l13.47-1.21s-1.56,13.27,14,16.29,34.2,44,29.54,61.52c0,0-8.29,10.26-14-3l-13,17.5,16.58-5.44s17.1-7.24,29,6h13.47l10.89,7.24-3.64-10.26s14-1.81,15.55,6.63C449,393,455.23,374.28,432.94,374.28ZM310.31,79.51c.76-8.36,4.72-10.82,8.16-11.34a6.24,6.24,0,0,1,4.29,1,7.78,7.78,0,0,1,2.92,3.49c6.13,14,3.42,22.47.24,27a5.68,5.68,0,0,1-9.2.63,1.07,1.07,0,0,1-.14-.16A27.71,27.71,0,0,1,310.31,79.51ZM197.83,37.17c-3.27,1.34-10.45,2.58-2.22-17.56-.21.32-3.76,5.47-8.28,7.22-4.67,1.81-2.07,16.89-10.88,24.13-8.64,7.1-1.83-13.07-1.56-13.86l-8.28,9.63-1.05-8.43s-5.69.6-6.73,16.88c-.45,7.2-.31,10.63-.49,12.21,11.14,1.88,18.8,11.14,23.73,20.13,2.32-1.66,6.8-6.32,9.41-18.46,0,0,5.12,3,8.92-1.46C197.13,60.74,193.62,49.36,197.83,37.17Z" style="fill:#6479b1"/><path d="M35.68,436.33l2.65-9.3c.71-2.52.67-4.45-.13-5.75a4.78,4.78,0,0,0-3.74-2H32.94L41.45,403l.75.58c7.15,5.55,18-4.66,18.14-4.76l.2-.14,14.21-7.35.24,0c14.35,2.08,23.27-24.54,24.76-29.35l-3.23-2.35c-25.41,9-38.78,3.16-40.48,2.32-17.89-.59-25.21-7.53-26.61-9.07-12.5-1.14-19.74-4.07-21.53-8.72A6.34,6.34,0,0,1,8,339.39c-20.21-28.89,3.9-58.47,5.54-60.43l9.59-19,2.65,6.79,4.31-7.23,6.16,5.23c14.82-.69,23.66,1.88,26.22,7.66,2.28,5.13-1.3,10.61-1.45,10.84l-.67,1-.68-1c-9.28-13.63-19.69-6.69-20.13-6.39C24.73,287.19,21.83,294.59,22,299a10.13,10.13,0,0,0,4.26,7.53L29,299l.89.92c10.71,10.91,13.51,10.24,14.11,9.77,1-.8.49-4.17.06-5.68l-1-3.62L45.41,303c8.1,8.57,14.14,7.7,16.73,6.67A6.12,6.12,0,0,1,60,305.92c-.65-3.8,2.26-7.56,2.38-7.71l.5-.64.61.48c5.9,4.58,14.72,4.46,18.17,4.21a10.22,10.22,0,0,1-1.24-6.73A10.55,10.55,0,0,1,84.84,289l.41-.26.42.27c12.81,8.46,18.21,3.73,19.37,2.4L103,281.19l.21-.36c4.6-8,18.53-.85,23.62,2.16l-2.26-8.43,19.62-3.71c7-27.52,24.78-42.13,26.94-43.82,3.56-8.69,7.81-14.08,12.63-16a9.39,9.39,0,0,1,6.87-.22l10.23-18.92-.21,3.92c-1.24,22.48,1,24.26,1.49,24.39,1.28.33,4.19-5,6.09-10.11l-2.39-22.88,1.84,2.46c2.76,3.68,5.18,5.25,7.21,4.65,3-.87,4.74-6.42,5.25-8.79l-8.2-31.82,3.61,7.16c.08.16,8.55,16.69,16.56,12.84,3.09-1.48,1.4-8.77-.58-14.63a129.86,129.86,0,0,0-5.26-13c-2.81-6.1-5.45-11-5.95-11.92l-2.61-4.81,24.43,22c1.69.43,3,.38,3.68-.16a2.1,2.1,0,0,0,.76-1.43c1.2-6.68-10.76-27.78-22.35-45.31l1.3-1.3c5.13,6.28,15.59,13.63,19.64,16.37l-3.67-19.77-11.83-11,7.56-.63c-.85-1.48-1.27-3.74-.37-7.14a23.34,23.34,0,0,1,1.23-3.45c-2.28.15-4-.46-5-1.84a6.84,6.84,0,0,1-1.18-4.41c-4.88,1.83-9.12-2.47-11.14-5.75a40.07,40.07,0,0,1-3.52,2l-.61.29-.4-.61c-5.77-8.74-7.75-16.39-5.9-22.76,2.32-7.93,9.79-11.1,11.64-11.77,2.86-7.2,8.34-7.12,10.1-6.89,4-6,7.87-9.08,11.48-9.19a6.11,6.11,0,0,1,4.08,1.38c4.13-10.41,20.11-16.52,20.82-16.79l.35-.13.32.2c16.27,10.18,22.44,13.23,24.77,14.1l-.05-.14a27.73,27.73,0,0,1-2.14-12L292,0l1.27,2.84c7.17,16,13.25,24.93,18.05,26.46a4.84,4.84,0,0,0,4.57-.9,1.63,1.63,0,0,0,.76-1.31c.06-2-2.64-5.16-4.59-7-3,1.3-4.94,1.35-6,.14-1.24-1.44-.47-3.81-.38-4.07l.07-.2.14-.16c2.22-2.43,4.46-3.32,6.66-2.62,5.17,1.63,8.13,11.69,8.65,13.62.87.8,1.3.82,1.37.77.88-.65.48-6.54-.86-12.6l-.47-2.12,1.68,1c6.61,3.85,11.79,20,13.08,24.28,4.95-2,11.74,3.21,14.43,5.56,1.58-9.91,4.38-15.39,8.34-16.32,7.09-1.65,15.14,12.15,16.61,14.79,1.7.43,3.06,2.9,3.34,3.43l.39.76-.59.54c-2.61,2.38-4.56,3.09-6,2.16-1.79-1.18-1.75-4.49-1.67-5.68-5.92-9.84-9.34-11.16-11.19-10.5-3.91,1.38-5,12.56-5.19,17.48,3.49,2.64,3.15,12.18,3.09,13.31v.26l-.12.23c-.59,1-1.27,2.3-1.84,3.52l-.07.16c-2.38,5-3.58,9.54-3.58,13.5,0,.26,0,.52,0,.76l-.85.19.85-.07v.14c0,.13,0,.25,0,.36v.15s0,0,0,.07v.21a2.48,2.48,0,0,0,0,.27v.11c0,.11,0,.22,0,.32s.05.34.08.48a3.53,3.53,0,0,0,.08.44c.05.29.1.53.16.77h0l0,.12.07.27c0,.08.05.2.09.32.09.31.17.55.26.78a8.08,8.08,0,0,0,.3.78,2.27,2.27,0,0,0,.12.26,9.41,9.41,0,0,0,.62,1.23l.19.32c.08.13.15.27.24.4l.3.45.32.44c.18.24.34.45.52.66s.37.42.56.62l.29.32c.08.09.17.17.26.26l.36.34h0l.13.11.21.19.42.36.12.09L358,94a15.45,15.45,0,0,0,1.27.92l.25.17,0,0,.15.11.06,0,.34.21.12.07.19.11.23.14.86.45c.38.2.72.35,1,.49h0l.51.23c.47.2.82.32,1.12.43l.22.07.12,0a6.15,6.15,0,0,0,.67.19l.37.09.2.38C381.8,129.33,383,170.56,383,171l0,1.11-1-.09c-3.29-.31-6.53,1.48-9.64,5.36a49.51,49.51,0,0,0-6.56,11.83,76.06,76.06,0,0,0-2.59,7.45l-.22.78-4.2-.55,1.51,8.79-5.2.61,1.42,9.38,0,.19c0,.12-2,12,3,20.45a17.34,17.34,0,0,0,12.35,8.3l.92.18-.22,1a6.85,6.85,0,0,0,.61,4.89c1.59,3,5.16,4.57,7,5.22l-.48-9.58.57-.27a2,2,0,0,1,1.85.1c5.95,3,16.72,35.4,17.93,39.08,5.48,18.88,6.24,30.57,2.26,34.78a5.63,5.63,0,0,1-6,1.29C394.2,345,415.73,372.12,416,372.4c6.68,7.22,16.47,1.07,16.57,1l.19-.13h.22c7.88,0,13.22,2.3,15.88,6.83,3.41,5.78,1.09,12.93,1,13.24l-1,3.12-.6-3.28C447,387.05,438,387,434.71,387.24l4.13,11.69L426,390.37H412.4l-.25-.28c-11.41-12.7-28-5.89-28.14-5.82l-19.39,6.36,15.67-21.15.57,1.35c1.6,3.72,3.53,5.8,5.74,6.17,3.15.53,6.08-2.51,6.73-3.24,2.19-8.76-1.58-24.83-9.22-39.25-6.26-11.82-13.63-19.58-19.7-20.76-13.36-2.6-14.7-12.68-14.75-16.2l-13,1.17-.28-.44c-5.59-8.5-28.85-14.16-35.18-15.57l11.88,30.8-27.76-20c-16.58,16.4-86.37,40.7-96.9,42-9.2,1.13-12.71,11.9-12.75,12l-.52,1.66-4.58-6.64-18.11,16.12-1.12-9.09-27,6.4c-16.56,10.57-15.65,35.08-15.52,37.4,4.49,10.87,4.06,13.43,3,14.49a2,2,0,0,1-2.54.05c-32.56.67-43,19.83-43.09,20l-1.07,2-2.41-11.25c-17.73-.88-22.72,8.75-22.92,9.17Zm24.91-19.7c.95,0,1.92,0,2.94.09l.64,0,1.77,8.29c3.48-5,15.51-18.68,43.64-19.18h.26l.22.16a1.35,1.35,0,0,0,.75.29s.92-1.54-3.54-12.29l-.07-.16v-.18c0-.28-1.91-27.94,16.51-39.58l.24-.1,28.88-6.85,1,7.81,17.12-15.23,3.8,5.5c1.41-3.31,5.47-10.76,13.58-11.75,9.19-1.12,81-25.87,96.42-42l.48-.5,24.07,17.37-10.91-28.28,1.59.31c1.24.25,30.17,6.06,37.55,16.24l14.08-1.26-.14,1.23c-.06.5-1.21,12.35,13.28,15.17,6.66,1.29,14.27,9.19,20.89,21.68,6.71,12.68,12.21,30.31,9.33,41.12l-.06.22-.14.17c-.15.2-3.92,4.76-8.36,4-2.5-.43-4.66-2.43-6.42-6L369.65,386.9l13.83-4.53c.12-.05,17.44-7.17,29.6,6h13.36l8.91,5.93-3.12-8.8,1.14-.15c.53-.07,11.63-1.41,15.4,4.6a13.71,13.71,0,0,0-1.37-8.72c-2.31-3.91-7.1-5.91-14.25-5.94-1.54.9-11.37,6.13-18.41-1.48-1-1.22-23.09-29-19.95-54l.17-1.32,1,.55s3.17,1.6,5.18-.53,4.13-9-2.73-32.61c-3.18-9.7-12.41-35.36-16.92-37.88l.52,10.46-1.1-.28c-.27-.07-6.61-1.7-9.18-6.46a9,9,0,0,1-1-5.39,18.85,18.85,0,0,1-12.63-9c-5.14-8.69-3.55-20.1-3.28-21.78l-1.69-11.14,5.16-.6-1.6-9.31,5.15.67c.37-1.24,1.19-3.82,2.45-6.92A51.52,51.52,0,0,1,371.2,176c3.19-4,6.57-6,10.06-6-.3-6.62-2.58-42.54-16.74-70.46l-.43-.13-.12,0-.27-.1c-.29-.1-.67-.23-1.09-.4l-.17-.08-.06,0a1.45,1.45,0,0,1-.28-.12h0c-.43-.19-.83-.37-1.25-.59l-.73-.38a.82.82,0,0,1-.17-.09,2.18,2.18,0,0,1-.31-.18l-.15-.09h0l-.09,0-.18-.12L359,97a2.4,2.4,0,0,1-.29-.19l-.09,0H358v-.43q-.47-.33-1-.72l-.14-.11-.31-.26-.23-.19-.27-.25-.1-.09-.39-.37c-.21-.2-.42-.42-.63-.65l-.27-.3-.35-.39c-.21-.24-.4-.49-.58-.74l-.32-.44a.77.77,0,0,1-.13-.17l-.24-.37c-.1-.16-.21-.33-.31-.51l0,0-.11-.17-.08-.15a12.69,12.69,0,0,1-.69-1.38,2.32,2.32,0,0,1-.16-.36c-.11-.25-.23-.55-.34-.87s-.19-.53-.28-.85c0-.1-.09-.29-.14-.47s0-.12-.05-.18l0-.08a10,10,0,0,1-.22-1c0-.15-.07-.32-.09-.5a5.05,5.05,0,0,1-.08-.53c0-.1,0-.25-.06-.41a1.79,1.79,0,0,1,0-.23l0,0v-.23c0-.1,0-.2,0-.29s0-.34,0-.52,0-.19,0-.28,0-.52,0-.81c0-4.34,1.3-9.25,3.85-14.59l.07-.14c.54-1.15,1.16-2.31,1.72-3.31.15-4-.41-10.34-2.6-11.43l-.53-.27v-.67c0-1.82.42-17.84,6.42-20,3.54-1.25,7.89,2.53,13.28,11.58l.19.31,0,.38c-.12,1.09-.08,3.53.77,4.09.31.2,1.22.41,3.42-1.42-.58-.89-1.38-1.79-1.94-1.79h-.48l-.25-.48c-2.35-4.4-9.62-15.55-15-14.28-3.36.78-5.86,6.43-7.23,16.32l-.24,1.75-1.16-1.14c-.09-.09-9.46-9.17-14.58-5.91L335,41l-.32-1.15c0-.18-4.75-16.89-10.79-22.8.82,4.38,1.62,10.81-.39,12.29-1.39,1-3-.58-3.58-1.1l-.2-.2-.08-.29c0-.11-2.85-11.09-7.53-12.56-1.56-.49-3.16.16-4.89,2-.13.5-.24,1.36.06,1.71.14.16,1,.87,4.58-.79l.45-.2.38.33c.59.52,5.79,5.16,5.65,9a3.65,3.65,0,0,1-1.56,2.91,6.3,6.3,0,0,1-5.93,1.14C306,29.67,300.3,22,293.61,7.8a30.34,30.34,0,0,0,1.69,6.36c1.08,1.17,1.4,2.14.95,2.89-.62,1.05-1.48,2.49-27.64-13.86-2.44,1-17.13,7.27-19.83,16.72l-.49,1.69-1-1.36a4.61,4.61,0,0,0-3.77-1.68c-2.17.08-5.74,1.69-10.43,8.87l-.34.51-.54-.14c-.24-.06-6.09-1.49-8.87,6.06l-.16.44-.41.13c-.08,0-8.57,2.77-10.85,10.64-1.62,5.54.14,12.36,5.23,20.27,1.05-.54,2.18-1.2,3.44-2l.71-.45.43.79c.19.36,4.84,8.81,10.79,5.09l1.79-1.12-.56,2.28s-.67,2.83.57,4.42c.88,1.14,2.68,1.47,5.19,1l2-.4-1.11,1.94c0,.09-4.66,8.26-.77,11.28l2.09,1.62-7.56.63L243,98.66l4.61,24.81L246,122.41a149.92,149.92,0,0,1-15.59-11.68c8.1,12.86,19.17,32.13,17.85,39.46a4,4,0,0,1-1.51,2.71c-1.17.88-2.87,1-5.18.38l-.19-.05-5.28-4.77-11.91-10.74c1,2.05,2.3,4.61,3.59,7.43a128.54,128.54,0,0,1,5.35,13.18c3.28,9.73,3.15,15.52-.37,17.21-6.17,3-12.13-3.55-15.61-8.57l4.77,18.47-.05.26c-.07.37-1.83,9.15-6.56,10.54-2.19.64-4.58-.4-7.11-3.1l1.8,17.22-.09.24c-1.08,2.94-4.86,12.47-8.16,11.53-1.84-.51-3.8-3.63-3-22.59l-7.45,13.78-.69-.41a7.54,7.54,0,0,0-6.33,0c-4.33,1.78-8.37,7-11.69,15.21l-.11.27-.21.15c-.19.15-19.5,14.64-26.57,43.46l-.15.61-18.74,3.54,2.95,11-1.89-1.25c-5.06-3.34-18.85-10.47-23-4.28l2.07,10.25-.23.37c-.22.37-5.71,8.9-21.41-1.23a8.48,8.48,0,0,0-3.21,5c-.37,2,.24,4.23,1.8,6.54l.93,1.39-1.5.22c-.51.08-12.17,1.69-20.12-3.9-.69,1.07-1.88,3.29-1.52,5.33a4.74,4.74,0,0,0,2.72,3.3l1.4.75-1.28,1c-.32.25-7.58,5.66-18.27-4.19.17,1.82,0,4-1.3,5-1.53,1.18-4.77,1.49-15.29-9l-2.48,6.93-.82-.45c-.23-.12-5.75-3.23-6-9.75-.3-7.17,5.89-15.24,18.4-24,.12-.09,11.57-7.73,21.59,5.79.8-1.62,2-4.8.69-7.64-1.55-3.47-7.13-7.43-24.92-6.55h-.3l-5.22-4.43-5,8.45L23,264.25l-8.11,16a62.51,62.51,0,0,0-10.39,18.5c-5.09,14.52-3.32,27.93,5.26,39.86l.44.62-.41.63a4.13,4.13,0,0,0-.28,3.53c.88,2.23,4.69,6.16,20.39,7.54l.34,0,.22.29c.07.08,6.81,8.15,25.82,8.73h.18l.16.09c.13.07,13.56,6.94,39.81-2.47l.37-.13,5,3.68-.21.74c-.38,1.38-9.64,33.59-26.58,31.48l-13.68,7.07c-1.17,1.09-11.49,10.33-19.33,5.33l-6.12,11.71a6,6,0,0,1,3.7,2.58,7.11,7.11,0,0,1,1,3.84C43.39,420.91,49.4,416.63,60.59,416.63Zm334-204.73L375.4,192.1l-1.57-.36.31-1.64c1.07-5.73,2.62-9.93,4.59-12.48a6.84,6.84,0,0,1,5.28-3h.12c2.93,0,5.5,2.15,6.72,3.36,4.41-6.4,12.62-6.19,13.57-6.15a3.23,3.23,0,0,1,2.79,1c1.73,1.74,2.65,5.61,2.79,11.85h0a127.57,127.57,0,0,1-.65,14c-.44,4.6-.94,8-1,8.06l-.14,1-.85-.17c-3.84-.78-8,.53-12.27,3.9Zm-18.69-21.73.3.07,18.55,19.14c4.17-3.12,8.24-4.43,12.1-3.92.18-1.32.51-3.88.8-7a125.38,125.38,0,0,0,.64-13.76h0c-.16-6.93-1.28-9.47-2.19-10.38a1.68,1.68,0,0,0-1.53-.52h-.16c-.08,0-8.89-.47-12.71,6.2l-.59,1-.75-.9s-3-3.54-6.22-3.54H384a5.29,5.29,0,0,0-4,2.36C378.28,181.19,376.89,185,375.89,190.17ZM138.08,148.54a8.5,8.5,0,0,1-4.34-1.26c-5.11.25-8.5-.65-10.1-2.66a4.43,4.43,0,0,1-.75-1.41c-5.38.76-8.19-5.28-8.94-8.76l-.08-.37,8.75-19.73.65.18c3.81,1.06,6.61.84,8.1-.61a4.48,4.48,0,0,0,1.21-3l-1.35-3.55,1.27,0c4.29-.17,14.34-.56,24.84,16.59l.36.6-.67,1-6.26.56c-.14,1.07-.29,2.08-.46,3.09a50.25,50.25,0,0,1-2.74,10.58c-1.82,4.56-4.22,7.38-7.12,8.38A7.14,7.14,0,0,1,138.08,148.54Zm-3.9-3.29.23.17a6.58,6.58,0,0,0,5.57.8c2.4-.84,4.43-3.3,6-7.31a47.2,47.2,0,0,0,2.61-10.11c.21-1.22.39-2.46.54-3.78l.1-.8,5.83-.52c-8.74-13.53-16.67-14.49-21.25-14.44l.44,1.17v.17a6.68,6.68,0,0,1-1.79,4.82c-1.85,1.84-4.86,2.25-9,1.23l-7.83,17.66c.43,1.64,2.47,8.17,7.7,6.77l1.2-.33-.16,1.42h0a1.91,1.91,0,0,0,.52,1.16c.75.87,2.9,2.28,9,1.94ZM321.1,103.33a6.7,6.7,0,0,1-5-2.34,1.24,1.24,0,0,1-.19-.2,28.7,28.7,0,0,1-6.48-21.38h0c.82-9.12,5.29-11.69,8.9-12.23a7,7,0,0,1,4.81,1.06,8.75,8.75,0,0,1,3.28,3.92c6.3,14.38,3.55,23.22.13,28.11a6.71,6.71,0,0,1-5.05,3Zm-9.94-23.71a26.53,26.53,0,0,0,6,19.79l.06.08a5.15,5.15,0,0,0,4.18,1.82,5.07,5.07,0,0,0,3.82-2.3c3.09-4.43,5.55-12.52-.33-25.94A6.86,6.86,0,0,0,322.35,70a5.57,5.57,0,0,0-3.77-.83c-4.35.66-6.85,4.18-7.42,10.46ZM181.8,88.89l-.45-.83C175,76.52,167.24,69.9,158.21,68.38l-.84-.14.11-1c.07-.6.09-1.57.12-2.92,0-2,.11-5,.38-9.24,1.07-16.93,7.24-17.77,7.5-17.8l.82-.09.91,7.4L177.16,33l-1.47,4.42c-2.59,7.75-3.25,13.16-2.4,13.94.2.18,1,.12,2.66-1.26,4.73-3.88,6-10.28,7.05-15.42.85-4.23,1.58-7.88,4.06-8.84,4.37-1.69,7.84-6.83,7.87-6.89l4.85-7.27L196.39,20c-4.68,11.44-4,15-3.12,16.07s3.09.6,4.28.12l1.79-.73-.71,2c-4,11.63-.85,22.5,2.52,29.57l.31.66-.45.53a7.68,7.68,0,0,1-8.95,2.11c-2.69,11.55-7.1,16.2-9.54,18ZM159.26,66.55c8.85,1.8,16.8,8.54,23.06,19.57,2.37-2,6.05-6.72,8.33-17.3l.26-1.22,1,.56c.18.1,4.23,2.38,7.46-.76-3.24-7.08-6.11-17.47-2.87-28.75-2,.45-3.49,0-4.46-1.2-1.66-2.15-1.34-6.53,1-13.32a16.51,16.51,0,0,1-5.36,3.64c-1.57.61-2.2,3.76-2.93,7.4-1.1,5.47-2.47,12.29-7.72,16.61-.79.64-3.17,2.6-4.72,1.19-1.81-1.65-.79-7.19.56-12L166,48.85l-1.14-9.2c-1.44,1-4.45,4.25-5.17,15.6-.27,4.22-.33,7.18-.37,9.14C159.3,65.28,159.29,66,159.26,66.55Z" style="fill:#fff"/><path d="M325.92,99.64a5.68,5.68,0,0,1-9.2.63,1.07,1.07,0,0,1-.14-.16,27.71,27.71,0,0,1-6.27-20.6c.76-8.36,4.72-10.82,8.16-11.34a6.24,6.24,0,0,1,4.29,1,7.78,7.78,0,0,1,2.92,3.49C331.81,86.6,329.1,95.08,325.92,99.64Z" style="fill:#c07038"/><path d="M321.1,103.33a6.7,6.7,0,0,1-5-2.34,1,1,0,0,1-.18-.2,28.66,28.66,0,0,1-6.49-21.38c.82-9.12,5.29-11.69,8.9-12.23a7,7,0,0,1,4.81,1.06,8.75,8.75,0,0,1,3.28,3.92c6.3,14.38,3.55,23.22.13,28.11h0a6.71,6.71,0,0,1-5.05,3Zm-1.75-34.22a6.49,6.49,0,0,0-.77,0c-4.35.66-6.85,4.18-7.42,10.46a26.53,26.53,0,0,0,6,19.79l.06.08a5.15,5.15,0,0,0,4.18,1.82,5.07,5.07,0,0,0,3.82-2.3h0c3.09-4.43,5.55-12.52-.33-25.94A6.86,6.86,0,0,0,322.35,70,5.63,5.63,0,0,0,319.35,69.11Z" style="fill:#fff"/><path d="M367.27,95.53l-.56.78a3.53,3.53,0,0,1-4.32,1.36c-5.58-2.41-17.21-10.12-7.5-30.42v0a3.59,3.59,0,0,1,5.21-1.76c13.53,8.76,9,25.15,7.81,28.81A4.76,4.76,0,0,1,367.27,95.53Z" style="fill:#c07038"/><path d="M363.72,99a4,4,0,0,1-1.62-.34c-3.17-1.36-8.8-4.67-10.94-11.42-1.8-5.66-.8-12.53,3-20.43A4.86,4.86,0,0,1,357,64.11a4.09,4.09,0,0,1,3.56.46c14.24,9.22,9.32,26.65,8.19,30.05a5.81,5.81,0,0,1-.79,1.55l-.56.78A4.52,4.52,0,0,1,363.72,99Zm-5.43-33a2.72,2.72,0,0,0-.84.13,3.07,3.07,0,0,0-1.79,1.66c-3.54,7.41-4.5,13.72-2.89,18.81,1.9,6,7,9,9.92,10.24a2.76,2.76,0,0,0,3.36-1.07l.56-.78a3.3,3.3,0,0,0,.5-1c1.47-4.4,5.26-19.38-7.42-27.58A2.55,2.55,0,0,0,358.29,65.9Z" style="fill:#fff"/><path d="M353.5,166.37c7.94-10.05,2.76-38.6,2.76-38.6l-.35-6.84c-5.87-5.22-19.35,0-19.35,0l-3.1,12.88s6.22,4.41,4.49,18.49,6.21,14.88,6.21,14.88c-27.29,5.23-22.1-53.48-22.1-53.48-3.46-3.27-5-8.12-5.34-13.43a5.68,5.68,0,0,0,9.2-.63c3.18-4.56,5.89-13-.24-27a7.78,7.78,0,0,0-2.92-3.49c.21-.56.34-.87.34-.87,11.39-6,16-2.41,16-2.41,6.87-1.27,12-.54,15.8,1.41-12.44,26,10.18,31.36,10.18,31.36-2.86,7.74-.69,17.09.36,20.75a12.76,12.76,0,0,1,.52,3.49C366.27,169.89,353.5,166.37,353.5,166.37Z" style="fill:#4667b2"/><path d="M340.85,168.51a14,14,0,0,1-10.72-4.84c-11.38-12.47-9.33-44.82-9-49.54-3.11-3.15-4.89-7.79-5.29-13.78l-.18-2.62,1.63,1.82a4.9,4.9,0,0,0,7.93-.54c3.09-4.43,5.55-12.52-.33-25.94A6.86,6.86,0,0,0,322.35,70l-.7-.44.33-.84c.21-.56.34-.87.34-.87l.13-.34.29-.16C332.92,62,338,64.06,339.25,64.8c6.38-1.14,11.76-.62,16,1.53l.87.45-.46,1c-3.75,7.84-4.6,14.47-2.53,19.73,3.14,7.94,12,10.14,12.13,10.16l1,.25L365.86,99c-2.73,7.4-.64,16.47.39,20a14.15,14.15,0,0,1,.56,3.8c.2,28.62-4.47,39-8.41,42.65-2.68,2.49-5,1.89-5.1,1.86l-1.43-.4,1-1.25c7.55-9.57,2.6-37.44,2.55-37.72l0-.15-.32-6.37c-5-3.93-15.56-.53-17.82.26l-2.82,11.69c1.57,1.49,5.86,6.79,4.36,19-.6,4.91-.07,8.63,1.59,11.07a5.89,5.89,0,0,0,3.85,2.66l6.81.69-6.75,1.29A18.19,18.19,0,0,1,340.85,168.51ZM317.8,102.38c.63,4.58,2.24,8.12,4.8,10.54l.36.34,0,.54c0,.36-3,35.91,8.39,48.41a12.49,12.49,0,0,0,9.28,4.29,9.31,9.31,0,0,1-1.55-1.74c-2-2.88-2.61-7.12-1.94-12.6,1.62-13.17-3.86-17.33-4.1-17.5l-.54-.4.17-.73,3.23-13.38.43-.17c.57-.22,14-5.32,20.14.15l.32.28.36,7.23c.33,1.86,4.53,26.28-1.75,37.55a6.11,6.11,0,0,0,2.05-1.34c2.95-2.82,7.88-11.89,7.68-41a12,12,0,0,0-.47-3.18c-1-3.61-3.11-12.58-.71-20.37-2.58-.84-9.47-3.71-12.35-11-2.23-5.63-1.52-12.54,2.12-20.55-3.86-1.68-8.71-2-14.46-.93l-.33.06-.28-.22s-4.31-3.06-14.58,2.2a8.87,8.87,0,0,1,2.42,3.29c6.3,14.38,3.55,23.22.13,28.11a6.71,6.71,0,0,1-5.05,3A6.3,6.3,0,0,1,317.8,102.38Z" style="fill:#fff"/><polygon points="119.91 122.65 115.64 132.28 105.46 129.98 105.12 130.08 108.86 120.07 109.08 120.33 119.91 122.65" style="fill:#443f47"/><path d="M116.1,133.41,105.49,131l-1.87.6,4.95-13.28.93,1.08,11.7,2.52Zm-9.7-4.24,8.77,2,3.44-7.77-9.31-2Z" style="fill:#fff"/><path d="M371.82,176.67l7.54,1.62c-1.69,2.19-3.24,6-4.38,12q-.06.3-.12.63l-6.75-1.53-3-.67L232.31,158.7l-52.58-11.91-15.29-3.46-17.65-4A48.69,48.69,0,0,0,149.47,129l8.23,1.77L184,136.39l43,9.23,9.6,2L247.4,150Z" style="fill:#443f47"/><path d="M375.52,192.12,365,189.74,145.54,140.07l.47-1.16a47.2,47.2,0,0,0,2.61-10.11l.16-1L247.56,149,381,177.63,380,179c-1.77,2.28-3.17,6.18-4.18,11.58ZM148,138.59l226.19,51.2A34.45,34.45,0,0,1,377.81,179L150.15,130.15A52,52,0,0,1,148,138.59Z" style="fill:#fff"/><path d="M418,186.56,415,200l-6.47-1.46a126.6,126.6,0,0,0,.64-13.91Z" style="fill:#443f47"/><path d="M415.6,201.2l-8-1.82.08-.91a125.69,125.69,0,0,0,.64-13.77l0-1.24L419,185.77Zm-6.16-3.43,4.9,1.11,2.55-11.53L410,185.88C410,190,409.74,194.45,409.44,197.77Z" style="fill:#fff"/></g></g></svg>