<svg xmlns="http://www.w3.org/2000/svg" viewBox="0 0 365.89 487.72"><title>Imp_1</title><g id="f36df4d1-68af-4d16-9be1-cfe917cb5f96" data-name="Layer 2"><g id="abe386ab-2033-4052-8bf5-1493736199b6" data-name="Layer 1"><path d="M173.35,229.91S150,241.2,147,254c0,0-6-3.76-12.79,6,0,0-1.5-5.27-9.78-2.26,0,0-8.27-9-15.8-6.77,0,0,6.77-8.28-2.26-13.54a21.71,21.71,0,0,0-3.76-21.07s4.52.75,6.77-14.3c0,0,36.87-88,67.72-76.74,0,0,27.09,0,36.12-10.54,0,0,16.55-7.52,12.79-16.55,0,0,12.79-6.77,8.27-18.06,0,0,7.53-24.83-3.76-21.07,0,0-30.85-23.32-33.1,14.3,0,0,6,12.79-12.8,17.31,0,0,6.78,9,24.08-9.79L223,69.65s1.5,7.52,3.76,8.28c0,0-9.78,6-6.77,15,0,0-12.79.76-13.55,12.79,0,0-7.52-7.52-15,.76,0,0-46.65,9.78-57.94,18.81S81.55,222.39,89.08,238.19c0,0-4.52,24.83,6,26.33,0,0,3,18.06,15.05,18.81,0,0,12.79,10.54,26.33,1.51,0,0,15.05,0,19.56-7.53,0,0,32.36-10.53,34.61-29.34S173.35,229.91,173.35,229.91Z" style="fill:#7e5f31"/><path d="M318.86,487.23s42.89-133.17,18.06-310c0,0-5.27-86.52-.76-100.82,0,0-3.76-9,6-28.59L336.92,35l-15.8,29.34s6,16.55,2.25,20.32c0,0-14.29,21.06-12,33.1,0,0-1.5,18.06-24.83,42.89,0,0-10.53-3-24.82,3l-34.62-12s4.52-16.55-27.83-25.58c0,0-16.56-11.29-15.81-18.81,0,0-16.55-17.31,6-61.7,0,0,5.27-9,3.77-17.3l7.52-24.83s-47.4,44.39-54.17,61.69c0,0-99.32,109.1-123.4,218.2,0,0-21.06,82.77-21.06,106.09,0,0,30.09-118.13,42.13-125.65L36,301.39l26.34-65.46,2.25,13.54L48,311.92l78.25-151.23,2.26,12.79s22.57-18.06,35.36-16.55,68.47,24.83,68.47,24.83-13.54,35.36-11.28,35.36,34.61-15.8,42.13,13.54.75,48.16.75,48.16,9-42.14,24.83-14.3c0,0,5.27,75.24-4.51,107.6,0,0,14.29-44.4,14.29-15.05l3.77,8.27-3,31.61,14.29-43.64,6.77,12-8.27,65.46,20.31-73.73S326.38,472.94,318.86,487.23Z" style="fill:#510d06"/><path d="M360.7,284.83h-6.78l-5.64-4.5-4.75-1.82-3.15-1.2c-5.65-9.77-18.43-15.8-18.43-15.8-10.91-18-21.08-24.45-21.08-24.45.76-7.91-9.4-24.45-9.4-24.45,5.28-32.36-10.9-36.5-10.9-36.5-1.87-8.06-5.44-13-8.28-15.71a16.68,16.68,0,0,0-4.14-3.09l4.52-12.42c6.4-6.77.37-13.55.37-13.55l2.64-2.63,3.76,7.91a22.61,22.61,0,0,1,8.64-3.39c5.65-1.13,5.65-17.31,5.65-17.31l3-2.63c-1.89-4.52,3.76-24.46,3.76-24.46-4.51,6.78-20.69,19.94-20.69,19.94s6-13.54,4.51-15.79,5.24-14.69,5.63-15.4L270,98.24l-3-.37,3.37-9.79-11.65,9.4-2.26-3.38-4.14,3.77-3-5.28L249,99.74h-4.14l-5.26-13.91c-4.52,13.54,2.63,22.94,2.63,22.94-2.26,8.65-9.77-11.29-9.77-11.29l.37,25.22,2.63.75s1.12,10.9,1.51,12,3-.75,3-.75l.75,8.65-8.65.75a28.45,28.45,0,0,0-8.29-2.72h0c-12.93-2.09-21.77,6.5-21.77,6.5a18.93,18.93,0,0,0-14.31,5.62c-19.7-.36-29.87,2.05-36,5.44,0,0,0,0,0,0-6.12,3.39-8.19,7.72-11.76,11.11-3.09,2.91-11.21,6.18-19.45,9-1.92.63-3.83,1.25-5.69,1.84-5.07,1.58-9.72,2.87-12.74,3.69l-3.51.92s-6-5.27-8.27-.75A9.75,9.75,0,0,1,83.82,190l-.38,4.14-5.26,2.64c-1,14.46,5.92,22,11.28,25.59a22.18,22.18,0,0,0,2.92,1.71,19.76,19.76,0,0,0,3.09,1.29c-.64-1.39-1.22-2.73-1.69-4a37,37,0,0,1-2.12-7.69c-1.17-7.57,1.26-12.41,5-15.46,3.29-2.68,7.6-4,11.47-4.67a48.36,48.36,0,0,1,5.29-.56,38.33,38.33,0,0,1,4.19,0c11.67,5.27,6.4,21.82,6.4,21.82,8.66-7.15,6.39-18.8,6.39-18.8-8.26-12.42,9.79-13.56,9.79-13.56,39.5-.75,33.49-9,33.49-9,7.94.29,21.88-2.89,26.8-4.09,1.14-.26,1.78-.44,1.78-.44a8.41,8.41,0,0,1,.82,1.45c4.24,9.34-1.12,34-13.22,34.67-12.81.75-22.21,19.56-22.21,19.56A46.63,46.63,0,0,0,166,234h0c-1.36,19.93,13.33,27.13,13.33,27.13a5.52,5.52,0,0,1,2.12,2.08c.93,2.12-2.57,3.43-5.28,4.11a27.46,27.46,0,0,1-2.86.57,10,10,0,0,0-.33,1.48c-1.53,10.16,9.73,28.24,9.73,28.24l.75,16.93c4.14-.75,2.64,13.55,2.64,13.55C191,339.38,187.27,339,187.27,339c-6.39,9,3.76,20.31,3.76,20.31,17.68,16.56,21.82,55.31,21.82,55.31-7.53,16.93-1.5,15.41-1.5,15.41,7.51-19.93,12-1.5,8.28,4.53s3,39.5,3,39.5l7.9-24.46a24.49,24.49,0,0,0,.37,12c2.23,10.77,1,13,.53,13.44,5.14-3.14,7-15.33,7-15.33,3.76-9,0-20.68,0-20.68s4.14-6-.37-9.79-6.78-13.91-6.78-13.91C224.5,414.25,209.09,365,209.09,365c2.26-6-.75-19.18-.75-19.18,21.81-6.4,20.31-11.66,20.31-11.66L247.08,324l1.5-15.41c6-25.59-22.94-56.43-22.94-56.43,2.64-3,1.13-18.07,1.13-18.07-3-18.43,20.31-16.93,20.31-16.93,1.09-.82,2.12-1.59,3.09-2.29,17.68-12.81,18.36-6.72,18.36-6.72,2.62,13.54,17.68,37.23,17.68,37.23l3,9.78c6.78,16.57,30.09,18.82,30.09,18.82,16.18,10.15,1.52,19.94,1.52,19.94-1.89,2.63,7.89,13.17,7.89,13.17L340,309.66l-7.15-7.51-1.5-6.78,8.65-.75a28.16,28.16,0,0,0,3.57,1c6.39,1.27,5.83-2.11,5.83-2.11,5.26-1.87,6,22.58,6,22.58l5.26-11.29c4.14-3.76,4.14-17.68,4.14-17.68ZM208.34,317.19s-4.89-.75-4.52-8.28c0,0-17.3-10.53-12.79-26.33a32,32,0,0,0,20.32,1.13s1.87,7.52,9.4,9l3,15.06S209.84,305.15,208.34,317.19Z" style="fill:#892b1c"/><path d="M223.87,480.93l6.83-6.6c.05-.05,1.38-1.78-.81-12.41a21.55,21.55,0,0,1-.84-4.3L222.4,478.2l-.79-3.92c-.7-3.47-6.75-34.08-2.87-40.27,1.74-2.78,1.44-8.71,0-11.1-.25-.41-.66-.9-1.1-.84s-2.36.61-5.27,8.34l-.2.52-.53.13a2.75,2.75,0,0,1-2.7-.9c-1.79-2.12-.85-7.26,2.88-15.69-.42-3.5-5.05-39-21.47-54.39-.5-.55-10.7-12.08-3.89-21.67l.35-.5.6.06c-.05,0,0-.05,0-.14.23-.44.76-2.39-2.25-9.32l-.1-.25,0-.27c.46-4.3.45-11-1-12.28a.43.43,0,0,0-.42-.12l-1.18.21-.8-17.86c-1.38-2.27-11.22-18.81-9.72-28.72a9.53,9.53,0,0,1,.36-1.63l.2-.63.65-.09a27.17,27.17,0,0,0,2.75-.56c3.72-.93,4.46-1.91,4.59-2.19a.48.48,0,0,0,0-.48,4.37,4.37,0,0,0-1.69-1.59c-1.11-.59-15.19-8.42-13.85-28.11a48.87,48.87,0,0,1,1.7-9.58l.08-.18c.39-.79,9.82-19.37,23.08-20.15,4.16-.24,7.08-3.7,8.81-6.55,4.58-7.59,6.28-20.54,3.51-26.64-.11-.25-.22-.47-.33-.67l-1.07.25c-5.18,1.26-17.61,4.06-25.67,4.13a3.46,3.46,0,0,1-.38,1.66c-2.23,4.48-13.82,6.95-34.46,7.34,0,0-8.43.59-10.48,4.73-.92,1.85-.4,4.28,1.55,7.2l.11.17,0,.21c.1.5,2.29,12.35-6.75,19.81L122,217.93l1.07-3.39c0-.15,4.8-15.56-5.66-20.47a38.68,38.68,0,0,0-3.89,0,45.5,45.5,0,0,0-5.16.55c-4.64.79-8.33,2.29-11,4.45-4.08,3.28-5.65,8.16-4.68,14.48A36.43,36.43,0,0,0,94.76,221c.44,1.19,1,2.51,1.66,3.92l1,2.08-2.21-.63a19.48,19.48,0,0,1-3.28-1.35,26.65,26.65,0,0,1-3-1.78c-5.88-4-12.7-11.81-11.74-26.53l0-.6,5.28-2.64.4-4.36.78-.14a8.66,8.66,0,0,0,5.65-4.7A4,4,0,0,1,92.15,182c2.58-.51,5.47,1.52,6.59,2.41l3-.8c3-.8,7.62-2.09,12.71-3.67,1.85-.59,3.76-1.2,5.67-1.84,12.61-4.26,17.33-7.1,19.06-8.74a40.23,40.23,0,0,0,3.07-3.39,30,30,0,0,1,8.78-7.8l.2-.21h.18c7.39-4,18.78-5.72,35.82-5.45a20,20,0,0,1,14.35-5.64,27.81,27.81,0,0,1,22.26-6.48h.09a29.82,29.82,0,0,1,8.34,2.69l7.31-.63-.52-6a3,3,0,0,1-2.1.33,1.52,1.52,0,0,1-1-1c-.36-1.07-1.18-8.75-1.48-11.56l-2.7-.77-.47-32,2.12,5.61c2.52,6.69,5.93,12.78,7.15,12.79A2.07,2.07,0,0,0,241,109c-1.39-2.08-6.61-11.06-2.47-23.46l.93-2.8,6.05,16H248l.52-9.72,4.12,7.24,4.08-3.71L259,96l13.6-11-4.14,12,1.2.15L294.56,71.3l-3.68,6.78c-3.6,6.62-6.19,13.19-5.67,14.33,1.23,1.85-.84,8-2.74,12.78,4.95-4.21,14-12.23,17.16-16.94l3.7-5.56-1.82,6.43c-2.22,7.87-5.07,20.7-3.79,23.77l.29.7-3.24,2.81c0,3.13-.57,16.67-6.48,17.86a22.12,22.12,0,0,0-8.23,3.2l-1,.76-3.67-7.72-.95.94c1.45,2.11,4.61,8.08-.84,14l-4.14,11.38a20.79,20.79,0,0,1,3.58,2.83c2.76,2.68,6.44,7.55,8.43,15.65,3.07,1.14,15.79,7.73,11.12,37.09,1.44,2.41,9.61,16.36,9.39,24.14,2.23,1.56,11.14,8.4,20.72,24.17,2,1,13,6.71,18.42,15.76l7.83,3.05,5.36,4.28H361l4.93,2.68v.62c0,1.45-.13,14.18-4.33,18.3l-7,15.1-.14-4.4c-.23-7.37-1.54-19.69-4.05-21.52a3,3,0,0,1-.77,1.24c-1.16,1.12-3.24,1.4-6.2.81a30.23,30.23,0,0,1-3.48-.94l-7.25.63,1.18,5.33,9.36,9.83-15-3.48-.21-.24c-3.12-3.35-10.14-11.48-8-14.49l.11-.16.16-.1c.06,0,5.7-3.89,5.63-8.9-.05-3.18-2.38-6.26-6.92-9.15-2.71-.31-24.07-3.23-30.7-19.44l-3-9.74c-1.29-2-15.18-24.25-17.75-37.47,0-.08-.08-.32-.48-.47-1.07-.41-4.79-.45-16.23,7.83-1,.71-2,1.47-3.08,2.29l-.31.24-.39,0c-.11,0-11.48-.65-16.76,5.18-2.34,2.58-3.16,6.13-2.44,10.53.25,2.47,1.26,14-.85,18.12,4.13,4.57,28.29,32.57,22.66,56.72l-1.55,15.9L229.7,334.73c-.25,2-2.94,6.6-20.13,11.78.64,3.13,2.43,13.05.63,18.47,6.33,20.19,17,48.66,21.26,49.37l.69.12.16.69c0,.09,2.23,9.84,6.42,13.33,3.91,3.27,2.39,8.22.84,10.75.68,2.34,3.27,12.51-.12,20.81-.23,1.41-2.21,12.72-7.47,15.93Zm5.67-31.64,2,.56a23.58,23.58,0,0,0,.35,11.47l0,.12a50.7,50.7,0,0,1,1.29,10.32c2.41-3.65,3.79-9.63,4.17-12.15l.07-.25c3.56-8.54,0-19.85,0-20l-.16-.49.3-.43c.14-.21,3.53-5.28-.18-8.38-4.16-3.46-6.44-11.68-7-13.93-7.2-3.64-19.78-42.84-22.3-50.9l-.11-.34.13-.34c2.12-5.64-.76-18.45-.79-18.58l-.22-1,1-.28c19.79-5.8,19.57-10.4,19.57-10.44l-.23-.81.75-.32,18-9.9,1.47-15c5.83-24.76-22.4-55.17-22.68-55.47l-.66-.7.63-.71c1.7-1.94,1.45-11.62.88-17.27-.82-5,.17-9.14,3-12.22,5.44-6,15.85-6,18.05-5.88,1-.74,1.92-1.44,2.81-2.08,9.19-6.66,15.37-9.37,18.38-8a2.63,2.63,0,0,1,1.63,2c2.55,13.11,17.38,36.55,17.53,36.79l.12.25,3,9.79c6.43,15.7,29,18.06,29.19,18.08l.24,0,.21.13c5.32,3.34,8,7,8.1,11,.08,5.61-5.18,9.69-6.34,10.52-.42,1.25,3.1,6.55,7.65,11.5l7.57,1.76-4.94-5.19-1.82-8.23,10.05-.87.21.06a27.49,27.49,0,0,0,3.43.94c3,.6,4,0,4.32-.23a.83.83,0,0,0,.28-.7l-.09-.82.78-.31a2.59,2.59,0,0,1,2.42.32c3.19,2.17,4.37,12.67,4.79,19l3.57-7.65L360,304c3-2.68,3.72-12.13,3.79-16.28l-3.35-1.83h-6.88l-5.8-4.63-8.09-3.1-.19-.32c-5.41-9.36-17.85-15.31-18-15.37l-.29-.14-.16-.27c-10.62-17.58-20.63-24-20.73-24.1l-.55-.34.06-.64c.71-7.48-9.15-23.65-9.25-23.82l-.2-.33.06-.38c5-30.89-10-35.28-10.13-35.32l-.61-.16-.15-.61c-1.85-7.95-5.36-12.65-8-15.2a16.29,16.29,0,0,0-3.85-2.89l-.87-.41,4.92-13.53.15-.16c5.64-6,.57-11.87.35-12.12l-.65-.74,4.38-4.39,3.88,8.19a26.19,26.19,0,0,1,8-2.9c3.5-.7,4.8-10.36,4.8-16.28v-.48l2.87-2.49c-.91-4,1.2-13.69,2.69-19.64-6.29,6.92-17.21,15.82-17.76,16.27l-3.39,2.76,1.77-4c3.07-6.92,5.17-13.7,4.59-14.8-1.05-1.59.57-6.12,2.48-10.28l-15.5,16.07-4.81-.59,2.6-7.56L258.51,99l-2.21-3.33-4.21,3.83-1.89-3.31-.24,4.58H244.1l-4.38-11.58a24.79,24.79,0,0,0,3.3,18.93l.31.4-.13.49c-.49,1.9-1.35,2.9-2.54,3-2.36.13-5.12-4.65-7.12-9l.28,19,2.57.73.08.71c.4,4,1.05,9.66,1.36,11.38a8.35,8.35,0,0,0,1.49-.84l1.5-1.07,1,11.53-10,.86-.26-.13a27.6,27.6,0,0,0-7.91-2.61l-.1,0c-12.29-2-20.8,6.14-20.88,6.22l-.33.31-.45,0a18,18,0,0,0-13.47,5.28l-.32.36h-.49c-17-.32-28.22,1.35-35.34,5.24l-.19.21h-.18a28,28,0,0,0-8.08,7.25,42.36,42.36,0,0,1-3.24,3.58c-2.74,2.58-9.42,5.68-19.83,9.2-1.93.64-3.85,1.26-5.71,1.85-5.13,1.59-9.78,2.89-12.79,3.7-2.19.59-3.52.93-3.52.93l-.53.13-.42-.36c-.86-.75-3.48-2.62-5.24-2.28a1.91,1.91,0,0,0-1.4,1.21,11,11,0,0,1-6.35,5.61l-.38,4-5.23,2.63c-.68,13.34,5.5,20.44,10.86,24.06a23.16,23.16,0,0,0,2.79,1.63c.22.12.44.22.64.31-.25-.59-.48-1.16-.68-1.71a38.23,38.23,0,0,1-2.18-7.9c-1.09-7.12.74-12.65,5.43-16.43,2.92-2.38,6.94-4,12-4.89a47.38,47.38,0,0,1,5.41-.57,40.72,40.72,0,0,1,4.34,0l.18,0,.17.07c8.85,4,8.63,14,7.76,19.44,4.74-6.05,3.8-13.76,3.6-15.07-2.29-3.51-2.81-6.58-1.56-9.1,2.59-5.23,11.88-5.87,12.27-5.89,26.79-.51,31.76-4.46,32.65-6.13a1.27,1.27,0,0,0,.05-1.25l-1.09-1.69,2,.05c7.72.27,21.1-2.74,26.51-4.05,1.11-.26,1.75-.44,1.76-.44l.7-.19.42.59a8.3,8.3,0,0,1,.92,1.63c3.06,6.73,1.33,20.36-3.63,28.58-2.84,4.71-6.47,7.33-10.48,7.56-11.62.68-20.58,17.54-21.28,18.91a45.62,45.62,0,0,0-1.61,9c-1.29,19,12.61,26.06,12.76,26.13l.1.06a6.49,6.49,0,0,1,2.51,2.53,2.57,2.57,0,0,1,0,2.25c-.68,1.39-2.63,2.47-6,3.31-.91.23-1.73.39-2.28.48,0,.22-.08.45-.12.7-1.46,9.67,9.47,27.36,9.58,27.54l.14.23.73,16.28a2.68,2.68,0,0,1,1,.59c2.59,2.41,1.9,11.35,1.67,13.76,2.49,5.83,3.1,9.49,1.86,11.2a2.28,2.28,0,0,1-1.19.85c-5.33,8.19,3.83,18.53,3.93,18.64,17.7,16.57,21.91,54.3,22.08,55.9l0,.28-.11.26c-4.74,10.66-3.74,13.21-3.32,13.73a.45.45,0,0,0,.16.15c2.27-5.8,4.48-8.74,6.75-9a3.22,3.22,0,0,1,3.08,1.82c1.87,3,2.26,9.76,0,13.32-2.56,4.08.36,23.77,2.37,34.74Zm-20.29-130.9-1.07-.16c-.05,0-5.54-1-5.43-8.77-2.92-2-16.95-12.4-12.73-27.17l.34-1.19,1.12.53a31.26,31.26,0,0,0,19.61,1.07l1-.26.25,1c.08.28,1.83,6.9,8.59,8.24l.69.14,3.45,17.27-1.53-.29c-.06,0-6.45-1.16-10.62,1.89a9.17,9.17,0,0,0-3.56,6.61ZM191.75,284c-3.11,14.21,12.45,23.91,12.61,24l.53.32,0,.62c-.21,4.4,1.5,6.14,2.66,6.8a10.78,10.78,0,0,1,4.19-6.75c3.61-2.63,8.34-2.64,10.73-2.44l-2.59-13a13.54,13.54,0,0,1-9.2-8.64A33.74,33.74,0,0,1,191.75,284Z" style="fill:#fff"/><path d="M318.74,487.72l-1.93-.81s1-3.14,2.57-8.88l2,.48C320.52,483,319.64,486,318.74,487.72Z" style="fill:#fff"/><path d="M263.87,279.17l-2-.57c0-.08.44-2,1.25-4.82l2,.51A38.38,38.38,0,0,1,263.87,279.17Z" style="fill:#fff"/><path d="M223.87,480.93l6.83-6.6c.05-.05,1.38-1.78-.81-12.41a22.37,22.37,0,0,1-.84-4.3L222.4,478.2l-.79-3.92c-.7-3.47-6.75-34.08-2.87-40.27,1.74-2.78,1.44-8.71,0-11.1-.25-.41-.66-.9-1.1-.84s-2.36.61-5.27,8.34l-.2.52-.53.13a2.75,2.75,0,0,1-2.7-.9c-1.79-2.12-.85-7.26,2.88-15.69-.42-3.49-5.05-39-21.47-54.39-.5-.55-10.7-12.08-3.89-21.67l.35-.5.6.06c-.05,0,0-.05,0-.14.23-.44.76-2.39-2.25-9.32l-.1-.25,0-.27c.46-4.3.45-11-1-12.28a.43.43,0,0,0-.42-.12l-1.18.21-.8-17.86c-1.29-2.11-9.94-16.66-9.88-26.65a93.46,93.46,0,0,1-15.1,6.9c-4.64,7.08-17.66,7.65-19.93,7.69-12.82,8.33-25.07-.05-27-1.53-11.2-1-14.84-15.46-15.56-18.94A7.23,7.23,0,0,1,90,262.48c-4.74-6.58-2.44-21.68-2-24.16a10.72,10.72,0,0,1-.63-2.23l-43.88,84.8,19-71.47-1.61-9.64-24.94,62-2-.62,7.44-33.8C30.63,283.45,9.77,359.42,2.06,389.68L0,397.78v-8.36c0-23.19,20.24-103,21.1-106.35C44.56,176.78,140.48,69.16,144.6,64.57,151.63,47.13,197,4.48,199,2.67L201.82,0l-8.59,28.33c1.41,8.49-3.71,17.39-3.93,17.77-21.87,43-6.32,60.28-6.16,60.45l.32.34,0,.34c3.79-.89,6.52-1.48,7.43-1.67a11.3,11.3,0,0,1,8-4,11.51,11.51,0,0,1,6.79,2.18c1.58-8.86,9.83-11.13,13-11.68-1.6-7.07,3.88-12.27,6.37-14.21-1.3-1.57-2.19-4.4-2.69-6.38L209.43,81.71c-7.73,8.38-14.45,12.5-20,12.21a7.56,7.56,0,0,1-5.64-2.58l-1-1.27,1.55-.37c6.25-1.5,10.29-4.07,12-7.62a10.44,10.44,0,0,0,.09-8.22l-.12-.24,0-.27c.68-11.35,4-18.48,9.94-21.2,9.4-4.33,21.88,4,24.41,5.81,2.12-.59,3.82-.27,5.05.94,4.33,4.2.46,18.37-.38,21.24,2.29,6.11-.14,11-3,14.25l1,2.72c2.52,6.69,5.93,12.78,7.15,12.79A2.07,2.07,0,0,0,241,109c-1.39-2.08-6.61-11.06-2.47-23.46l.93-2.8,6.05,16H248l.52-9.72,4.12,7.24,4.08-3.71L259,96l13.6-11-4.14,12,1.2.15L294.56,71.3l-3.68,6.78c-3.6,6.62-6.19,13.19-5.67,14.33,1.23,1.85-.84,8-2.74,12.78,4.95-4.21,14-12.23,17.16-16.94l3.7-5.56-1.82,6.43c-2.22,7.87-5.07,20.7-3.79,23.77l.29.7-3.24,2.81c0,3.13-.57,16.67-6.48,17.86a22.12,22.12,0,0,0-8.23,3.2l-1,.76-3.67-7.72-.95.94c1.45,2.11,4.61,8.08-.84,14l-4.14,11.38a20.6,20.6,0,0,1,3.2,2.47,36.92,36.92,0,0,1,12.47.24c21.36-22.92,23.92-40.06,24.12-41.69C307.06,105.5,320.87,85,321.46,84.11l.12-.15c2.4-2.4-.26-13.06-2.5-19.22l-.16-.44L336,32.59l6.28,15.28-.21.43c-9.38,18.77-6,27.64-6,27.72l.13.35-.11.36c-4.4,14,.75,99.59.8,100.45a804.35,804.35,0,0,1,7.67,100.61l4.35,1.72,5.36,4.28H361l4.93,2.68v.62c0,1.45-.13,14.18-4.33,18.3l-7,15.1-.14-4.4c-.23-7.37-1.54-19.69-4.05-21.52a3,3,0,0,1-.77,1.24c-1,1-2.66,1.3-5,1-.9,90.59-16.5,157.24-23.19,181.76l-2-.48c5-24.57,9-87.07,10.39-111.29l-17.71,64.27-2.05-.41,8.23-65.11-5.43-9.66-16.49,50.32,3.88-40.7-3.74-8.23v-.22c0-8.19-1.17-9-1.22-9-1.76.21-6.84,11.36-11,24.37l-2-.63c9.34-30.9,4.8-102.29,4.48-107-3.53-6.16-6.86-9.09-9.95-8.74-4.12.48-8.35,7.14-11.61,18.28l-2-.51c1.51-7.27,3.26-22.51-2-42.94-1.88-7.31-5.52-12.31-10.83-14.89q-1.23.9-2.58,1.92l-.31.24-.39,0c-.11,0-11.48-.65-16.76,5.18-2.34,2.58-3.16,6.13-2.44,10.53.25,2.47,1.26,14-.85,18.12,4.13,4.57,28.29,32.57,22.66,56.72l-1.55,15.9L229.7,334.73c-.25,2-2.94,6.6-20.13,11.78.64,3.13,2.43,13.05.63,18.47,6.33,20.19,17,48.66,21.26,49.37l.69.12.16.69c0,.09,2.23,9.84,6.42,13.33,3.91,3.27,2.39,8.22.84,10.75.68,2.34,3.27,12.51-.12,20.81-.23,1.41-2.21,12.72-7.47,15.93Zm5.67-31.64,2,.56a23.58,23.58,0,0,0,.35,11.47l0,.12a50.62,50.62,0,0,1,1.29,10.32c2.41-3.65,3.79-9.63,4.17-12.15l.07-.25c3.56-8.54,0-19.85,0-20l-.16-.49.3-.43c.14-.21,3.53-5.28-.18-8.38-4.16-3.46-6.44-11.68-7-13.93-7.2-3.64-19.78-42.84-22.3-50.9l-.11-.34.13-.34c2.12-5.65-.76-18.45-.79-18.58l-.22-1,1-.28c19.79-5.8,19.57-10.4,19.57-10.44l-.23-.81.75-.32,18-9.9,1.47-15c5.83-24.76-22.4-55.17-22.68-55.47l-.66-.7.63-.71c1.7-1.94,1.44-11.62.88-17.27-.82-5,.17-9.14,3-12.22,5.44-6,15.85-6,18.05-5.88,1-.74,1.92-1.44,2.81-2.08l.49-.36.55.25c6.22,2.77,10.44,8.33,12.55,16.54a106.23,106.23,0,0,1,3.33,34.09c2.5-5.47,5.8-10,10-10.48,4-.47,8.1,2.89,12.14,10l.11.2,0,.24c0,.65,3.9,57.21-1.43,93.19,2.66-6.35,5.6-11.64,8-11.64h.25c2.08.33,2.94,3.47,3,10.83l3.79,8.33-2.15,22.5,12.11-36.95,8.11,14.41,0,.35-6.45,50.95,19-68.92-.5,9.61c0,.74-3.21,61-7.76,99.71,7.43-32.86,17.27-89.6,17.88-161.25v-1l1.38,0c2.95.56,3.92,0,4.2-.28a.87.87,0,0,0,.27-.65l-.15-.87.83-.29a2.59,2.59,0,0,1,2.42.32c3.19,2.17,4.37,12.67,4.79,19l3.57-7.65L360,304c3-2.68,3.72-12.13,3.79-16.28l-3.35-1.83h-6.88l-5.8-4.63-5.25-2v-.71a800.91,800.91,0,0,0-7.66-101.14c-.22-3.6-5.16-85.7-.82-100.94-.61-1.94-2.68-11.13,6-28.66l-4.24-10.31-14.53,27c1.08,3.07,5.67,16.9,1.93,20.89-.91,1.36-13.91,21.12-11.82,32.25l0,.14v.14c-.06.75-1.8,18.71-25.11,43.52l-.43.46-.62-.17a33.79,33.79,0,0,0-12.73-.26l-.51.07-.37-.36a16.29,16.29,0,0,0-3.85-2.89l-.87-.41,4.92-13.53.15-.16c5.64-6,.57-11.87.35-12.12l-.65-.74,4.38-4.39,3.88,8.19a26.47,26.47,0,0,1,8-2.9c3.49-.7,4.8-10.36,4.8-16.28v-.48l2.87-2.49c-.91-4,1.2-13.69,2.69-19.64-6.29,6.92-17.21,15.82-17.76,16.27l-3.39,2.76,1.77-4c3.07-6.92,5.17-13.7,4.59-14.8-1.05-1.59.57-6.12,2.48-10.28l-15.5,16.07-4.81-.59,2.61-7.56L258.51,99l-2.21-3.33-4.21,3.83-1.89-3.31-.24,4.58H244.1l-4.38-11.58a24.79,24.79,0,0,0,3.3,18.93l.31.4-.13.49c-.49,1.9-1.35,2.9-2.54,3-2.36.13-5.12-4.65-7.12-9l.28,19,2.57.73.08.71c.4,4,1.05,9.66,1.36,11.38a8.35,8.35,0,0,0,1.49-.84l1.5-1.07,1,11.53-10,.86-.26-.13a27.6,27.6,0,0,0-7.91-2.61h-.5l-.32-.5c-3.92-6.27-12.54-11.41-24.94-14.87l-.17,0-.14-.1c-.06,0-1.53-1-3.57-2.64l-1.78-1.4,2.22-.45c8.71-1.78,14.75-4.59,18-8.34l.15-.17.21-.1c.16-.07,15.59-7.21,12.26-15.2l-.37-.88.85-.44a21.16,21.16,0,0,0,5.77-4.81l0-1,.26.7a11.25,11.25,0,0,0,1.78-11.63l-.14-.34.11-.35c1.85-6.12,3.77-16.82,1-19.48-.27-.27-1.1-1.08-3.46-.29l-.52.17L229.9,60c-.14-.1-13.57-10.12-22.71-5.9-5.11,2.36-8,8.81-8.7,19.18a12.47,12.47,0,0,1-.21,9.75c-1.79,3.72-5.6,6.48-11.34,8.2a6.74,6.74,0,0,0,2.68.65c3.4.11,9.28-1.78,18.32-11.6l.12-.12L223.7,67.77l.33,1.67c.66,3.28,2.08,7.16,3.07,7.49l2.12.71-1.9,1.18c-.37.23-9,5.7-6.33,13.82l.43,1.29-1.36.09c-.48,0-11.88.86-12.56,11.81l-.15,2.32-1.64-1.65a10.61,10.61,0,0,0-6.63-2.82h-.2c-2.37.06-4.62,1.26-6.7,3.54l-.23.25-.33.07s-3.63.77-9,2l-1.12.27-.16-1.15a6.29,6.29,0,0,1-.06-1c-2.3-2.76-15-20.87,6.15-62.54.08-.14,5.08-8.86,3.67-16.65l0-.24,6.45-21.28c-10.35,9.91-45.4,44.15-51.05,58.59l-.07.18-.13.14c-1,1.09-99.4,110.15-123.14,217.72-.19.74-15.81,62.31-20,93.73,8-30.36,29.44-108.12,39.5-114.41l2.11-1.32-6.1,27.75,23-57.23,2.91,17.44-.06.22L50.41,303,89.3,227.78l-.08,4.49a12.56,12.56,0,0,0,.81,5.47l.14.3-.06.33c0,.17-2.94,16.58,1.6,22.89a5.07,5.07,0,0,0,3.54,2.22l.75.11.13.76c0,.17,3,17.24,14.08,17.94l.34,0,.26.21c.5.41,12.38,9.92,25.09,1.44l.26-.17h.32c.15,0,14.51-.09,18.66-7l.21-.33.37-.12a91.91,91.91,0,0,0,16.76-7.84l1.59-1h0l1.53-1a52.48,52.48,0,0,0,5.2-4l1.08-1,.58,1.32a2.58,2.58,0,0,1,0,2.24c-.68,1.39-2.61,2.46-5.9,3.29l-2.45,1v.23c-1.46,9.67,9.47,27.35,9.58,27.53l.14.23.72,16.28a2.65,2.65,0,0,1,1,.59c2.59,2.41,1.9,11.35,1.67,13.76,2.49,5.83,3.1,9.49,1.86,11.2a2.28,2.28,0,0,1-1.19.85c-5.33,8.19,3.83,18.53,3.93,18.64,17.7,16.57,21.91,54.3,22.08,55.9l0,.28-.11.26c-4.78,10.73-3.74,13.24-3.31,13.75a.58.58,0,0,0,.15.13c2.27-5.8,4.48-8.74,6.75-9a3.22,3.22,0,0,1,3.08,1.82c1.87,3,2.26,9.76,0,13.32-2.56,4.08.36,23.77,2.37,34.74Zm-5.19-308.84a29.83,29.83,0,0,1,7.89,2.61l7.31-.63-.52-6a3,3,0,0,1-2.1.33,1.52,1.52,0,0,1-1-1c-.36-1.07-1.18-8.75-1.48-11.56l-2.7-.77-.41-28a24.32,24.32,0,0,1-4.05,3.22c2.69,9-11.42,16-13.42,17-3.26,3.69-8.89,6.5-16.77,8.36.74.55,1.29.94,1.53,1.11C211.37,128.7,220,133.85,224.35,140.45Zm-15.1,177.94-1.07-.16c-.05,0-5.54-1-5.43-8.77-2.92-2-16.95-12.4-12.73-27.17l.34-1.19,1.12.53a31.26,31.26,0,0,0,19.61,1.07l1-.26.25,1c.08.28,1.83,6.9,8.59,8.24l.69.14,3.45,17.27-1.53-.29c-.06,0-6.45-1.16-10.62,1.89a9.17,9.17,0,0,0-3.56,6.61ZM191.75,284c-3.11,14.21,12.45,23.91,12.61,24l.53.32,0,.62c-.21,4.4,1.5,6.14,2.66,6.8a10.78,10.78,0,0,1,4.19-6.75c3.61-2.63,8.34-2.64,10.73-2.44l-2.59-13a13.54,13.54,0,0,1-9.2-8.64A33.74,33.74,0,0,1,191.75,284Zm-57.93-21.59-.6-2.13a3.62,3.62,0,0,0-1.8-1.92c-1.56-.77-3.85-.64-6.62.36l-.66.24-.47-.51c-.08-.09-7.92-8.53-14.73-6.48l-3.26,1,2.15-2.64s2.74-3.44,2.1-6.95c-.36-2-1.73-3.66-4.07-5l-.8-.47.36-.85c.17-.4,4.15-10.11-3.62-20l-1.67-2.13,2.66.44s3.6-.29,5.57-13.41l.07-.25s1.51-3.6,4.09-9.09l.27-.57.63,0a40.49,40.49,0,0,1,4.33,0l.18,0,.17.07c8.84,4,8.63,14,7.76,19.44,4.72-6.05,3.8-13.76,3.6-15.07-2.29-3.51-2.81-6.58-1.56-9.1,2.59-5.23,11.88-5.87,12.27-5.89,26.79-.51,31.76-4.46,32.65-6.13a1.27,1.27,0,0,0,.05-1.25l-1.09-1.69,2,.05c7.7.27,21.1-2.74,26.52-4.05l.31-.08,3.57,1.38v.49c2.94,6.81,1.19,20.24-3.72,28.38-2.84,4.71-6.47,7.33-10.48,7.56-11.63.69-20.58,17.54-21.28,18.91a45.62,45.62,0,0,0-1.61,9l0,.54-.46.3c-6.13,3.8-16.68,11.36-18.56,19.32l-.33,1.42-1.24-.77c-.25-.15-5.34-3-11.37,5.72Zm-4.8-6.65a7.39,7.39,0,0,1,3.39.75,5.91,5.91,0,0,1,1.92,1.57c5.07-6.48,9.81-6.15,12-5.5C148.8,245,157.67,238,165,233.41a48.24,48.24,0,0,1,1.65-9l.08-.18c.39-.79,9.82-19.37,23.08-20.15,4.16-.24,7.08-3.7,8.81-6.55,4.48-7.44,6.21-20,3.68-26.26l-1.87-.72c-5.38,1.29-17.47,4-25.37,4.05a3.46,3.46,0,0,1-.38,1.66c-2.23,4.48-13.82,6.95-34.46,7.34,0,0-8.43.59-10.48,4.73-.92,1.85-.4,4.28,1.55,7.2l.11.17,0,.21c.1.5,2.29,12.35-6.75,19.81L122,217.93l1.07-3.39c0-.15,4.8-15.56-5.66-20.47-.43,0-1.63-.08-3.25,0-2.14,4.57-3.47,7.68-3.74,8.31-1.15,7.62-3,12.43-5.62,14.3a4.54,4.54,0,0,1-.44.28A22.66,22.66,0,0,1,107.66,237a9.22,9.22,0,0,1,4.34,6,10.45,10.45,0,0,1-1.23,6.56c6.26-.21,12.24,5.24,14,7A14,14,0,0,1,129,255.77ZM118.27,180.9l1.21-2.31c2-3.84,4.07-7.56,6.11-11.07L127,165l1.16,6.56c3.59-2.72,13.48-9.88,23-13.56l.24-.09,6.15-2.37L152,160h-.1a28,28,0,0,0-8.08,7.25,42.36,42.36,0,0,1-3.24,3.58c-2.74,2.58-9.42,5.68-19.83,9.2Zm7.69-9.83q-1.69,3-3.38,6.15c10.74-3.78,15-6.36,16.57-7.89a40.23,40.23,0,0,0,3.07-3.39c.62-.74,1.26-1.51,2-2.29a126,126,0,0,0-16.08,10.65l-1.38,1.1Z" style="fill:#fff"/></g></g></svg>