<svg xmlns="http://www.w3.org/2000/svg" viewBox="0 0 342.7 503.92"><title>Lemure_1</title><g id="f0a89e68-af37-4552-a4d6-98ac2e595cf6" data-name="Layer 2"><g id="bd0d1405-91aa-4409-b07a-a1b41571ee53" data-name="Layer 1"><path d="M336.74,457.83,327.82,451a25.59,25.59,0,0,0-10.73-4.85c-38.3-7.53-44-17.6-44-17.6l28.33-9.66s-9-4.85-11.06-10.37,37.33-19.35,37.33-19.35-30.41-1.38-18-7.61,13.81-11.74,13.81-11.74c-15.19,2.07-17.26-6.92-17.26-6.92-6.55,0-18.32-3.3-26.11-5.74a8.62,8.62,0,0,1-4.05-13.84,17.29,17.29,0,0,1,3.89-3.22c4.88-3-.65-5.2-6.72-6.57a23.15,23.15,0,0,1-14-9.46,31.46,31.46,0,0,0-5.25-5.74,25.3,25.3,0,0,1-8.58-14.52,44.61,44.61,0,0,0-9-19.69c-11.06-13.82-1.38-22.8-1.38-22.8,17.28-12.44,16.59-27.65,16.59-27.65C267.6,218.46,272.44,204,272.44,204c26.95-13.83,26.95-31.1,26.95-31.1l11.75-14.52c20.73-10.36,18.66-20.72,18.66-20.72,16.58-10.37,11.06-22.12,11.06-22.12-5.54,0-7.61-9.67-7.61-9.67,2.07-12.45-9.68-35.95-9.68-35.95C312.52,67.8,298.7,41.55,298.7,41.55c5.54-2.78,0-15.22,0-15.22l4.14-9L291.78,3.53l2.09,13.82c-8.3,20.73-9-6.91-9-6.91l-2.76-8.29-9,2.76c5.53-.69,4.84,14.52,4.84,14.52-4.84,22.12-18,14.51-18,14.51,2.09-6.92-4.83-11.06-4.83-11.06l-4,12a4,4,0,0,0,2.26,4.92c6,2.65,14.85,12.83,14.85,12.83-2.07,4.83,6.92,13.82,6.92,13.82,6.91-1.38,21.42,40.09,21.42,40.09-5.54,6.9.69,21.42.69,21.42C289.71,129.31,280,153.5,280,153.5c-24.88,6.91-38-4.15-38-4.15a15.8,15.8,0,0,0-12.43-7.6c8.28-15.9-11.75-44.92-11.75-44.92-2.72-.91-4.37-3.78-5.39-6.73a14.1,14.1,0,0,0-8.9-8.7,8.28,8.28,0,0,1-5.06-3.92c-2.76-5.54-13.82-6.92-13.82-6.92C164.4,75.64,158,90.23,155.91,99.39a35.91,35.91,0,0,1-3.82,10c-2,3.43-2,9.5-2,9.5-2.76,2.08-1.38,21.43-1.38,21.43-1.38,6.21-10.36,5.52-10.36,5.52-32.48-2.07-32.48,17.28-32.48,17.28-8.3-.69-13.82,15.89-13.82,15.89-11.75.69-20.74,20-20.74,20S63,190.81,63.73,186a6.79,6.79,0,0,0-3.45-6.92s3.45-8.28.69-9S55.45,157,55.45,157l-4.85,9.67C38.85,179.06,34,149.35,34,149.35c-5.53,2.08-4.84,22.12-4.84,22.12-10.37,1.38-5.53-15.21-5.53-15.21-13.14,13.83,0,25.58,0,25.58,7.6,8.28,9,26.25,9,26.25-4.14,18.66,20.73,33.17,20.73,33.17,7.61,13.13,11.75,6.92,11.75,6.92,6.07-10.29,18.16-15.2,25.35-17.3a2.78,2.78,0,0,1,3.45,3.44c-3.11,10.06-1.15,26.3-1.15,26.3-5.52,4.14-7.61,44.22-7.61,44.22-8.28,3.45-15.89,28.34-15.89,28.34S44.39,356,39.54,367.73s-18,13.13-18,13.13c-35.24,13.82-14.51,16.59-14.51,16.59,9.49,0,15.12,5.2,18.33,10.1a17.94,17.94,0,0,0,12.16,8c3.75.58,5.34,3.18-4.92,11.6-19.34,15.9,20.73,15.9,20.73,15.9-22.11,21.43-13.13,20.05-13.13,20.05,10.37,0,2.76,9,2.76,9-9.66,14.52-20,31.79,38.71,18s38,0,38,0-6.92,18.67,19.34,11.06c14.44-4.18,37-5,54.42-4.93a146.24,146.24,0,0,0,42.41-6.25c25.58-7.61,67-13.43,86.24-15.89a3.63,3.63,0,0,0,3.2-3.67,3.59,3.59,0,0,0-1.76-3.12l11.56-2.4A4,4,0,0,0,336.74,457.83Z" style="fill:#a98494"/><path d="M128.38,503.92c-3.76,0-6.55-.95-8.33-2.87-3.87-4.16-1.38-11.05-1.27-11.35l.11-.3.27-.18c1.79-1.19,3.32-2.89,3.09-3.41s-3.55-3.43-40.32,5.22c-27.52,6.47-42.22,6.77-46.28.94-3.62-5.22,2.24-14,6.51-20.44l.07-.1c.84-1,3.07-4.22,2.3-5.9-.54-1.16-2.59-1.42-4.23-1.42a2.57,2.57,0,0,1-2.63-1.23c-.83-1.67-.3-5.45,13.28-18.86-6.33-.2-22.06-1.34-24.32-7.65-1-2.9.72-6.16,5.36-10,7.44-6.1,7.54-8.3,7.4-8.83s-1.32-.91-2-1a19,19,0,0,1-12.85-8.45c-4.19-6.4-10.07-9.65-17.49-9.65H6.93c-.66-.09-6.49-1-6.9-4.37-.29-2.39,1.59-6.47,21.18-14.15l.26-.06c.12,0,12.61-1.48,17.15-12.52C43.32,356,65.85,335,68.39,332.63c.86-2.77,7.79-24.23,15.79-28.43.34-6.07,2.34-38.38,7.53-44-.32-2.89-1.62-17,1.24-26.21a1.67,1.67,0,0,0-.42-1.7,1.79,1.79,0,0,0-1.79-.48c-6.69,1.95-18.8,6.74-24.77,16.85a4.73,4.73,0,0,1-3.87,1.95c-3-.09-6.16-3-9.47-8.65-2.69-1.62-24.94-15.64-21-34-.15-1.7-1.78-18-8.7-25.52-.17-.14-5.78-5.24-6.09-12.83-.2-4.89,1.85-9.64,6.1-14.11l2.84-3-1.16,4c-.75,2.57-2.15,9.89.31,12.76a3.88,3.88,0,0,0,3.23,1.25c-.08-4.41,0-20.08,5.52-22.13l1.14-.43.2,1.2c.79,4.84,4,17.75,9.08,19.32,1.7.52,3.61-.31,5.68-2.47l6-12.06.61,2.75c1.4,6.31,3.64,12.1,4.79,12.39a2.2,2.2,0,0,1,1.46,1.19c1,2.05-.41,6.39-1.15,8.34a7.74,7.74,0,0,1,3.2,7.47c-.45,3.11,3.8,8.48,6.35,11.26,2.25-4.37,10.09-18.09,20.27-19.26,1.09-3,6.08-15.5,13.62-16a17.22,17.22,0,0,1,5.45-10.31c5.79-5.43,15.21-7.77,28-7,.09,0,8,.54,9.3-4.6-.33-4.61-1.08-18.53,1.39-21.75,0-1.45.3-6.47,2.1-9.6a34.67,34.67,0,0,0,3.71-9.77c2-8.78,8.4-24.29,29.51-29.58l.18,0,.18,0c.48.06,11.62,1.51,14.59,7.46a7.22,7.22,0,0,0,4.48,3.42,15.2,15.2,0,0,1,9.54,9.33c1.16,3.38,2.76,5.44,4.76,6.1l.31.11.19.27c.81,1.18,19.26,28.2,12.43,44.63a17,17,0,0,1,11.69,7.78c1.29,1,14,10.09,36.51,4,1.56-3.83,9.43-22.33,16.69-25.37-1.31-3.45-5-14.61-.48-21-6.85-19.45-16-38.95-19.89-38.95l-.22,0-.52.11-.38-.38c-.93-.93-8.77-9-7.34-14.3-1.74-1.94-9.08-9.91-14.13-12.15a5,5,0,0,1-2.8-6.14l4.38-13.16,1.07.64c.07.05,7,4.3,5.49,11.37a9.44,9.44,0,0,0,7.35.1c3.92-1.75,6.76-6.52,8.45-14.19.12-3-.07-10.82-2.37-12.95a1.59,1.59,0,0,0-1.34-.45L272.84,4l9.92-3,3.12,9.51c.18,6.91,1.48,13.41,2.73,13.64,0,0,1.39.17,4.23-6.83L290.24,0,304,17.2l-4.22,9.15c.92,2.19,4.66,12,.23,15.53,2.42,4.39,14.34,25.25,23.74,27l.49.09.22.44c.48,1,11.75,23.7,9.8,36.37.6,2.58,2.81,8.7,6.59,8.7h.63l.27.58c.06.12,5.59,12.41-10.91,23.05.11,2.62-.91,11.88-19.07,21l-11.4,14.1c-.15,2.67-2.12,18.46-27.12,31.44-.9,2.45-6.14,15.53-20.54,29.42,0,2.73-1,16.46-17,28-.72.7-8.55,8.83,1.52,21.41a45.69,45.69,0,0,1,9.19,20.13,24.45,24.45,0,0,0,8.25,13.94,32.64,32.64,0,0,1,5.42,5.93,22.2,22.2,0,0,0,13.4,9.06c7.94,1.78,9.13,3.66,9.34,4.92s-.58,2.4-2.32,3.47a16.33,16.33,0,0,0-3.66,3,7.29,7.29,0,0,0-1.55,6.9,7.73,7.73,0,0,0,5.15,5.33c8.31,2.59,19.54,5.69,25.81,5.69h.79l.18.78c.08.32,2.14,8.06,16.16,6.14l1.46-.19-.35,1.43c-.07.24-1.64,6.05-14.35,12.4-2.12,1.06-2.46,1.76-2.43,1.89.33,1.56,9.68,3.35,20,3.82l5.16.23-4.87,1.71c-13.65,4.79-34.68,13.44-36.64,17.64a.65.65,0,0,0-.08.42c1.92,5.11,10.51,9.79,10.6,9.84l2,1.08L274.83,429c2.58,2.65,12.27,10.2,42.46,16.13a26.79,26.79,0,0,1,11.14,5.05l8.92,6.84a5,5,0,0,1-2,8.79l-9.73,2a4.56,4.56,0,0,1,.73,2.52,4.63,4.63,0,0,1-4.08,4.66c-21.47,2.75-61.21,8.47-86.08,15.86a148.88,148.88,0,0,1-42.7,6.29c-16.69-.08-39.63.69-54.14,4.89A40.27,40.27,0,0,1,128.38,503.92Zm-7.82-13.23c-.39,1.24-1.69,6.16,1,9s8.58,3,17.26.46c14.74-4.27,37.88-5.06,54.7-5h.75A145.45,145.45,0,0,0,235.61,489c25-7.43,64.85-13.16,86.39-15.92a2.63,2.63,0,0,0,2.33-2.68,2.59,2.59,0,0,0-1.28-2.27l-2.14-1.32,14-2.91a2.88,2.88,0,0,0,2.29-2.22,2.91,2.91,0,0,0-1.09-3l-8.91-6.83a24.74,24.74,0,0,0-10.32-4.67c-38.31-7.53-44.4-17.66-44.64-18.09l-.59-1,27.42-9.35c-2.85-1.8-8-5.54-9.62-9.77a2.45,2.45,0,0,1,.14-2c2.4-5.12,23.52-13.44,33.25-17-7-.57-16.37-1.92-17.05-5.11-.4-1.9,1.81-3.24,3.5-4.09,8-4,11.28-7.7,12.55-9.66-11.95,1-15.42-4.94-16.28-7.12-6.62-.22-17.54-3.23-25.68-5.77a9.75,9.75,0,0,1-6.48-6.71,9.37,9.37,0,0,1,2-8.76,18.6,18.6,0,0,1,4.1-3.41c1.1-.67,1.44-1.19,1.4-1.44s-.48-1.64-7.81-3.29a24.2,24.2,0,0,1-14.61-9.87,30.27,30.27,0,0,0-5.08-5.55A26.51,26.51,0,0,1,244.5,304a43.59,43.59,0,0,0-8.78-19.25c-11.51-14.38-1.39-24.07-1.28-24.17l.09-.08c16.6-11.94,16.19-26.64,16.18-26.79l0-.45.33-.32c15.5-14.82,20.43-29.15,20.48-29.3l.13-.38.36-.19c26-13.35,26.4-30.05,26.4-30.21v-.35l.22-.28,11.89-14.69.19-.1c19.65-9.81,18.15-19.54,18.13-19.64l-.12-.66.57-.37c13.8-8.63,11.69-18,10.89-20.31-5.74-.71-7.8-10-7.89-10.42l0-.19,0-.19c1.85-11.08-7.81-31.68-9.37-34.9C311.59,68,298.38,43.08,297.82,42l-.48-.9.91-.46c3.84-1.92,1-10.69-.46-13.91l-.19-.41,4.07-8.84L293.33,7.06l1.57,10.41-.1.25c-2.45,6.12-4.47,8.68-6.54,8.31-3.58-.65-4.25-10.87-4.37-15.41l-2.41-7.23L276.12,5c3.25,3.34,2.9,13.29,2.85,14.44l0,.16c-1.83,8.4-5.07,13.67-9.64,15.68a11.51,11.51,0,0,1-9.81-.52l-.68-.39.23-.76c1.37-4.57-1.66-7.78-3.36-9.16l-3.56,10.68a3,3,0,0,0,1.72,3.68C260,41.57,268.68,51.52,269.05,52l.41.47-.25.58c-1.41,3.28,4,9.87,6.38,12.38,2.28,0,6.18,2.79,13.84,20.16,4.45,10.12,8.11,20.53,8.14,20.64l.19.52-.35.43c-5.1,6.36.77,20.27.83,20.41l.49,1.15-1.23.22c-5.79,1.06-13.9,18.37-16.53,25l-.19.46-.48.13c-25.09,7-38.36-3.88-38.91-4.34l-.2-.23a14.7,14.7,0,0,0-11.6-7.14H228l.75-1.45c7.5-14.41-9.57-40.73-11.51-43.63-2.45-1-4.36-3.4-5.68-7.23a13.17,13.17,0,0,0-8.28-8.08,9.15,9.15,0,0,1-5.64-4.43c-2.31-4.63-11.46-6.14-12.87-6.34-19.92,5.07-26,19.72-27.85,28A36.76,36.76,0,0,1,153,109.94c-1.82,3.15-1.85,9-1.85,9v.5l-.4.3c-1.43,1.08-1.62,11.51-1,20.56v.14l0,.14c-1.55,7-11,6.34-11.42,6.31-12.18-.78-21.1,1.37-26.47,6.38a15,15,0,0,0-4.93,9.91v1.08l-1.08-.09c-6.17-.5-11.32,10.8-12.78,15.21l-.22.64-.67,0c-11,.65-19.8,19.28-19.89,19.47l-.6,1.29-1-1c-.89-.88-8.63-8.8-7.89-14A5.76,5.76,0,0,0,59.82,180l-.82-.42.35-.85c1-2.39,2.13-6.29,1.53-7.47-.06-.13-.11-.14-.16-.15-2.46-.63-4.47-6.81-5.61-11.21l-3.78,7.46c-2.68,2.84-5.32,3.89-7.83,3.11-6.23-1.91-9.26-14.63-10.18-19.34-2.67,3.14-3.37,13.69-3.14,20.35l0,.91-.9.12c-2.57.34-4.55-.28-5.9-1.85-2.21-2.58-2.07-7.19-1.57-10.55a15.61,15.61,0,0,0-3,9.52c.27,6.73,5.45,11.46,5.5,11.51,7.81,8.51,9.25,26.18,9.3,26.92l0,.15,0,.15c-3.93,17.74,20,31.95,20.26,32.09l.23.13.14.23c3.9,6.73,6.63,7.83,7.91,7.88a2.66,2.66,0,0,0,2.14-1C70.57,237,83.21,232,90.18,229.92a3.8,3.8,0,0,1,3.78,1,3.67,3.67,0,0,1,.9,3.7c-3,9.73-1.13,25.71-1.11,25.88l.07.57-.46.35c-3.75,2.81-6.41,28.16-7.21,43.48l0,.62-.58.25c-6.44,2.68-13.24,20.91-15.32,27.7l-.08.27-.2.18c-.25.23-24.77,22.79-29.47,34.2-4.79,11.63-17.11,13.53-18.65,13.72C3,389.23,1.9,392.9,2,393.84c.18,1.46,3.48,2.38,5.12,2.61A22.14,22.14,0,0,1,26.22,407a16.9,16.9,0,0,0,11.49,7.57c2,.32,3.25,1.15,3.61,2.46.65,2.39-1.91,5.86-8.06,10.9-2.65,2.18-5.63,5.3-4.74,7.76,1.87,5.23,18.57,6.37,24.84,6.37h2.47l-1.77,1.72c-15.51,15-14.74,17.93-14.6,18.22.06.11.47.14.62.12h.15c3.26,0,5.32.87,6.11,2.58,1.42,3.05-2,7.32-2.54,8-4.93,7.41-9.13,14.37-6.5,18.15,3.42,4.93,18.29,4.34,44.17-1.75,35.69-8.4,41.52-6.59,42.61-4.07C125.05,487.24,121.94,489.72,120.56,490.69Z" style="fill:#fff"/></g></g></svg>