<svg xmlns="http://www.w3.org/2000/svg" viewBox="0 0 392.34 491.14"><title>Manes</title><g id="b5322b6f-1ee8-410d-98b1-5429f2dea6bd" data-name="Layer 2"><g id="bec428aa-52a9-4645-ac24-63c1bee02dce" data-name="Layer 1"><path d="M128.36,49c-13.75,8.6-34.33,28-17.34,61.54,0,0-11.38,14.23-7.11,29.88,0,0-12.81,4.27-10.67,9.25,0,0-33.44,3.55-43.4,22.76l-.83-5A9,9,0,0,0,39.78,160h0a8.94,8.94,0,0,0-8.5,8l-.65,6.54s-7.83,7.82-5,11.38c0,0-34.15,10-22.06,27l12.1,2.13L4.31,228.66s-1.43,12.8,19.2,14.94c0,0-4.26,15.65,18.5,5.69,0,0,22.77,16.36,34.86-18.5L59.09,240l5-14.23-7.83,3.56S39.88,204.47,58.38,203c0,0,21.34-10.67,26.32-7.82,0,0,20.63-6.4,20.63-13.52s28.46-2.13,28.46-2.13l-19.21,57.62s-26.32,12.1-32.73,64.75c0,0-17.78,19.92,1.43,38.41,0,0,11.38,36.29.71,36.29,0,0-24.9-2.14-22.77,10.67,0,0,12.1,3.56,16.36,2.85,0,0-27.74,10.67-19.92,18.49l11.39-3.55s5.69,12.09,22,2.84c0,0,11.39,6.4-7.82,19.92L81.14,442.8l7.12-4.27s22.76,0,32.72-7.82a46.53,46.53,0,0,0,37.71-9.25s24.19-2.85,23.48-21.34c0,0,14.94-14.94-4.27-35.58,0,0-8.54-24.9-17.79-24.9,0,0-2.13-14.23,12.1-4.27,0,0,24.19,10,41.26,4.27,0,0-.71,12.81,14.23,17.08,0,0,1.42,29.88,19.92,29.17,0,0,3.56,12.8,12.81,14.94l1.42,13.51S241.93,430,247.62,437.11c0,0-14.94,15.65-10,22.77l6.4-5A20.53,20.53,0,0,0,264,442.8l2.85,14.94s-12.81,17.08-6.4,29.17c0,0,8.53-11.38,12.8-10.67s18.5,0,26.33-27.75c0,0,0,16.37,2.13,19.21,0,0-7.11,18.5-.71,22.06,0,0,5-10,11.38-10s14.94-9.25,23.48-26.33c0,0-.71,13.52,7.11,19.21l7.12-11.38s14.94,5,10.67-31.3c0,0,9.25,1.42-17.79-62.61,0,0-12.09-45.53-20.63-53.36,0,0,13.52-39.13,3.56-56.2-8.77-15-147.27-169.75-180.15-206.4A13.61,13.61,0,0,0,128.36,49Z" style="fill:#5f4a4b"/><path d="M301.41,491.14l-.92-.51c-6.58-3.65-1.16-19.44.09-22.83-1.22-2.41-1.71-8.5-1.9-13.29-8.75,24.15-22.72,23.2-25.61,22.72-2.55-.42-8.45,5.76-11.84,10.28l-1,1.26-.74-1.39c-6.17-11.67,4.34-27.25,6.23-29.88l-2.25-11.76a21.67,21.67,0,0,1-19.14,10.18l-6.94,5.39-.6-.86C232,453.5,243.59,440,246.35,437a6,6,0,0,1-.7-3.78c.85-7.38,12.67-17.32,15.15-19.33l-1.3-12.28c-8-2.33-11.7-11.93-12.61-14.72-17.17-.06-19.8-24.77-20.14-29.42-11.95-3.73-13.92-13-14.23-16.5-17.1,4.89-39.72-4.28-40.69-4.68l-.2-.11c-4.18-2.92-7.38-4-9-3s-1.73,3.82-1.62,5.5c9.11,1.37,16.88,22.81,17.75,25.31,17.86,19.32,6.48,34.09,4.41,36.47.35,17.71-21.3,21.51-24.08,21.92-16.37,12.94-34.69,10-37.88,9.37-9.78,7.29-29.95,7.73-32.68,7.75l-8.69,5.21,2.5-17.45.35-.25c9.12-6.42,10.88-11,10.74-13.62a5.87,5.87,0,0,0-2.39-4.31c-5.83,3.18-11,4.08-15.41,2.68a13.11,13.11,0,0,1-7.07-5.5l-11.18,3.5-.43-.43a5,5,0,0,1-1.57-4.76C56.55,399.11,66.93,393.71,73,391a98.8,98.8,0,0,1-12.08-2.72l-.6-.18-.11-.62a7.9,7.9,0,0,1,1.93-7c5.67-6.14,21.25-4.89,21.91-4.83a2.47,2.47,0,0,0,2.11-1.11c3.85-5.24-1.35-25.82-3.78-33.63-18.22-17.77-3.48-37-1.5-39.38,6.1-49.46,29.39-63.24,32.86-65l18.71-56.12c-6.87-1.1-22-2.8-25.54.18a1.45,1.45,0,0,0-.6,1.16c0,7.63-19.15,13.8-21.33,14.47l-.42.13-.38-.21c-3.29-1.88-17.31,3.82-25.38,7.85l-.17.09h-.2c-3.64.28-6.05,1.55-7.14,3.78-3,6,3.51,17.32,5.31,20.28l9.16-4.17L60.86,238l17.78-9.25-.82,2.38c-4.26,12.26-10.31,19.72-18,22.15-8.42,2.67-16-1.59-17.91-2.85-8.52,3.65-14.4,4.15-17.47,1.5-2.49-2.15-2.37-5.66-2.11-7.45-7.51-.95-12.93-3.43-16.12-7.39a12.4,12.4,0,0,1-2.9-8.53l0-.31,10.46-12.42L3,213.92l-.24-.34C.05,209.73-.67,205.89.63,202.17c3.33-9.57,19.12-15.34,23.59-16.8-1.24-4,4.05-9.78,5.45-11.23l.62-6.19a9.94,9.94,0,0,1,19.7-.64l.38,2.26c10.33-15.69,35.87-20,41.64-20.74a4,4,0,0,1,.37-2c1.58-3.53,7.9-6.16,10.33-7.06-3.35-14.1,5.14-26.65,7.14-29.35-16.83-33.84,4-53.53,18-62.28a14.58,14.58,0,0,1,18.64,2.6c40.1,44.69,171.6,191.68,180.27,206.55,9.52,16.31-1.54,51.24-3.27,56.44,8.52,8.95,19.73,50.68,20.43,53.31,15.54,36.81,21.92,58.63,18.44,63.09a2.43,2.43,0,0,1-.52.5c1.78,15.83.13,25.94-4.9,30a8,8,0,0,1-6.38,1.74l-7.31,11.69-.86-.63c-5.52-4-7-11.49-7.42-16.11-8.06,15.14-16,23.42-22.59,23.42-5.72,0-10.44,9.31-10.49,9.4Zm-.85-49.87v7.22c0,6.2.52,16.73,1.93,18.61l.33.45-.2.51c-1.76,4.6-5.28,16.55-2,20.19,1.55-2.69,6-9.45,11.7-9.45,6.07,0,14.52-9.64,22.58-25.77l2.14-4.28-.24,4.78c0,.12-.54,12,5.86,17.67l6.94-11.1.75.25a5.91,5.91,0,0,0,5.3-1.24c3.11-2.56,6.33-9.67,4.06-29l-.16-1.3,1.14.17c.55-.45,4.61-6-18.7-61.2l0-.13c-.12-.46-12.12-45.34-20.34-52.88l-.49-.45.22-.62c.13-.38,13.25-38.89,3.64-55.37C316.21,243.24,173.5,83.89,145,52.1a12.6,12.6,0,0,0-16.1-2.23c-13.48,8.43-33.6,27.47-17,60.24l.3.57-.41.5c-.11.14-11,14-6.93,29l.25.92-.9.3c-2.35.78-8.75,3.45-10,6.29a1.86,1.86,0,0,0,0,1.61l.53,1.25-1.35.14c-.33,0-33,3.73-42.61,22.23l-1.38,2.67L48,167.64A7.94,7.94,0,0,0,40.19,161h-.37a8,8,0,0,0-7.54,7.14L31.59,175l-.25.25c-1.87,1.87-6.77,7.73-4.91,10.06l.93,1.16-1.43.42c-.2.06-19.94,5.93-23.42,15.9-1,3-.5,6,1.67,9.26l13.39,2.37L5.28,229.05c-.06,1.84.48,11.7,18.34,13.55l1.17.12-.31,1.14s-1.16,4.46,1.27,6.55c1.72,1.48,5.87,2.33,15.86-2l.52-.22.47.33c.07.05,8,5.62,16.64,2.88,6.54-2.08,11.85-8.3,15.81-18.49l-17.74,9.22,5-14.4-6.47,2.94-.47-.71c-.41-.61-9.79-15-5.9-23,1.41-2.86,4.3-4.5,8.59-4.88,2.85-1.41,21-10.2,26.67-7.91,5.79-1.85,19.56-7.33,19.56-12.45a3.44,3.44,0,0,1,1.31-2.69c5.15-4.33,26-.84,28.32-.43l1.14.2-19.71,59.14-.39.18c-.26.12-25.9,12.58-32.15,64l0,.31-.21.23c-.7.79-16.91,19.43,1.37,37l.18.18.08.24c.91,2.91,8.76,28.6,3.56,35.67a4.55,4.55,0,0,1-3.8,1.92c-.24,0-15.35-1.24-20.36,4.18a5.76,5.76,0,0,0-1.5,4.71c3.72,1.06,12.15,3.16,15.29,2.64l9.73-1.62-9.21,3.54c-5.34,2.06-19.46,8.57-20.6,13.93a2.83,2.83,0,0,0,.64,2.49l11.6-3.63.37.79a11.18,11.18,0,0,0,6.33,5.22c4,1.26,8.8.31,14.33-2.82l.49-.28.49.28a8,8,0,0,1,3.85,6.25c.23,4.55-3.55,9.63-11.23,15.11l-1.78,12.43L88,437.53h.28c.22,0,22.53-.09,32.1-7.61l.39-.3.47.12c.2.05,19.68,4.67,36.84-9.06l.23-.18.28,0c1-.12,23.27-3,22.6-20.32l0-.43.31-.31c.58-.58,14-14.54-4.29-34.18l-.15-.16-.07-.2c-2.31-6.74-9.84-24.23-16.84-24.23h-.86l-.13-.85c0-.25-.89-6.21,2.46-8.28,2.43-1.5,6.06-.53,11.11,3,1.69.67,24.49,9.53,40.46,4.2l1.4-.46-.08,1.47c0,.49-.45,12.07,13.5,16.06l.69.19,0,.72c0,.28,1.56,28.23,18.29,28.23h.59l.79,0,.21.76c0,.12,3.52,12.26,12.07,14.23l.7.16,1.55,14.78-.43.34c-.14.11-14,11.08-14.83,18.33a3.88,3.88,0,0,0,.76,3l.55.68-.61.63c-3.77,4-12.51,14.91-10.36,20.56l5.79-4.5.4,0a19.37,19.37,0,0,0,18.91-11.53l1.31-2.77,3.5,18.39-.26.35c-.12.16-11.35,15.36-7,26.65,2.64-3.32,8.82-10.41,12.75-9.74,2.8.47,17.19,1.36,25.19-27Z" style="fill:#fff"/><path d="M391.33,228.66l-2.7-30.26a34.18,34.18,0,0,0-6.58-17.32l-.25-.33a34.52,34.52,0,0,0-14.63-11.37c-6.13-2.55-13.44-6.38-14.25-10.45-1.42-7.11-30.6-34.15-30.6-34.15,0-19.91-46.24-48.37-46.24-48.37-12.8-30.6-56.2-43.4-56.2-43.4-7.48-2.2-7.76-16-12.51-21.35-5.1-5.75-13.41-8.73-20.76-10C172-.79,153.28,3.08,145.37,16.87c-4.66,8.13-6.09,17.61-6.61,26.81,0,0-.08,1.56-.19,3.57-.21,3.79-.52,9.23-.52,9.23-7.81,0-1.42,35.57-1.42,35.57-10.67-2.84-11.38,35.59-11.38,35.59-12.09,4.26-8.54,48.37-8.54,48.37a6,6,0,0,0-2.25,1.89c-3.6,4.9.12,14.47.12,14.47s10-.71-6.4,27a36,36,0,0,0-4.11,26.3c3.33,16.46,16,32.16,27.7,42.76,25.79,23.3,54.34,25.12,87,20.08,31.42-4.85,62.68-11.83,88.44-31.65,3.84-3,12.92-10.23,19.22-18,5.64-7,9.05-14.44,4.41-19.54a19.09,19.09,0,0,1-4.3-9.51,105.49,105.49,0,0,0-9.21-28.08c-7.05-14.26,1.42-12.93,1.42-12.93,14.41,24.8,28.37,18.74,33.13,15.55-3.94,5-1.34,20.61,1.7,33.32A61.35,61.35,0,0,1,345,286.47c-4.55,6.7-10.08,11.7-16.31,11.2a11.51,11.51,0,0,0-2,0c-15.89,1.53-16.54,38.4-16.54,38.4-4.28,18.5,6.39,13.53,6.39,13.53-2.13-9.25,4.28-12.82,4.28-12.82-.78-10.07,2.47-14.66,5.58-16.75a10,10,0,0,1,5.09-1.74c3.53,8.91,4.28,16.26,3.26,22.35h0c-3.6,22.18-30.3,27.44-30.3,27.44,6.41,11.38,32.73-.71,32.73-.71a13.31,13.31,0,0,0,5.66-.13,75.42,75.42,0,0,0,9.94-2.67,6.46,6.46,0,0,1,4.42.14l.32.12a6.43,6.43,0,0,0,7.51-2.1,6.49,6.49,0,0,1,7.22-2.22c2,.64,4.66.63,7.62-1.68,6.41-5,4.26-35.57,0-55.5S391.33,228.66,391.33,228.66ZM171.49,62.89l15.66,4.27C169.36,82.11,171.49,62.89,171.49,62.89Zm38.75,39.74-9.44,1.45a3.91,3.91,0,0,1-4.47-4.35l.45-3.55a3.91,3.91,0,0,1,3-3.33l8.26-2A3.93,3.93,0,0,1,212.77,94l.71,4.07A3.9,3.9,0,0,1,210.24,102.63Zm-2.46-46.15,7.82-7.81S222.72,65.73,207.78,56.48Z" style="fill:#9b8984"/><path d="M137.57,48.19c.11-1.95.19-4.46.19-4.55.45-8,1.62-18.33,6.74-27.26C152.71,2.06,172.17-1.78,186.77.7c5.37.91,15.27,3.45,21.34,10.3,2,2.28,3.22,5.76,4.48,9.46,1.75,5.11,3.56,10.41,7.57,11.59.44.13,43.72,13.21,56.72,43.67,4.17,2.6,45.81,29,46.44,48.62,4.18,3.89,29.18,27.38,30.58,34.39.56,2.84,5.41,6.3,13.66,9.73a35.62,35.62,0,0,1,15.05,11.69l.24.33a35.11,35.11,0,0,1,6.77,17.83l2.72,30.45,0,.18c-.15.54-15.53,54.76-11.36,74.2,3.59,16.81,7.18,50.64-.37,56.5-3.43,2.68-6.54,2.48-8.54,1.84a5.52,5.52,0,0,0-6.11,1.87,7.45,7.45,0,0,1-8.68,2.43l-.31-.12a5.5,5.5,0,0,0-3.75-.12,73.55,73.55,0,0,1-10.08,2.71,15.33,15.33,0,0,1-5.75.2c-2.13.94-12.92,5.53-22,5.53-4.95,0-9.39-1.36-11.66-5.39l-.68-1.21,1.36-.26c.26-.05,26-5.38,29.49-26.54l0-.1c1-6.21,0-13.32-2.93-21.11a9.52,9.52,0,0,0-3.89,1.5c-3.95,2.67-5.73,8.14-5.13,15.84l.05.64-.56.31c-.23.14-5.72,3.36-3.79,11.72l.18.79-.73.35c-.16.07-3.87,1.76-6.52-.39s-3-6.83-1.3-14.17c.06-2.64,1.14-37.7,17.44-39.27a12.7,12.7,0,0,1,2.13,0c5.07.4,10.27-3.21,15.41-10.77a60.4,60.4,0,0,0,8.42-48c-3.6-15.08-4.59-25.53-3-31.16A17.73,17.73,0,0,1,338.25,208c-7.19-1.67-13.94-7.78-20.07-18.18a2.62,2.62,0,0,0-2.1.92c-.68.94-1.31,3.57,2.17,10.6a106.65,106.65,0,0,1,9.29,28.34,18.05,18.05,0,0,0,4.06,9c4.37,4.8,1.89,12.81-5.37,21.83l-1.56-1.25c6.55-8.14,9.05-15.28,5.45-19.23a20,20,0,0,1-4.54-10,104.26,104.26,0,0,0-9.13-27.81c-3.05-6.19-3.7-10.34-2-12.68a4.86,4.86,0,0,1,4.45-1.68l.47.07.24.41C325.55,198.5,332,204.45,338.7,206a16.19,16.19,0,0,0,12.65-2.48l5.26-3.52-3.92,5c-2.91,3.69-2.24,15.22,1.88,32.46A62.37,62.37,0,0,1,345.86,287c-5.57,8.19-11.39,12.1-17.22,11.64a9.65,9.65,0,0,0-1.78,0c-14.81,1.43-15.62,37.06-15.63,37.42l0,.21c-2,8.64-.49,11.4.59,12.27a4.16,4.16,0,0,0,3.68.38c-1.39-7.62,2.84-11.52,4.39-12.67-.65-10.29,2.92-15,6.06-17.08a11,11,0,0,1,5.65-1.91h.68l.25.63c3.32,8.39,4.44,16.06,3.33,22.81v.08c-3.18,19.57-23.94,26.39-29.65,27.91,7.05,8.46,30.43-2.14,30.67-2.25l.36-.17.37.13c.67.22,2.12.37,5.17-.16a73.27,73.27,0,0,0,9.81-2.64,7.46,7.46,0,0,1,5.1.16l.31.12a5.44,5.44,0,0,0,6.35-1.77,7.51,7.51,0,0,1,8.32-2.57,7,7,0,0,0,6.7-1.52c5.46-4.24,4.29-32.77-.36-54.5-4.19-19.55,10.2-70.95,11.35-75l-2.69-30.08a33.17,33.17,0,0,0-6.38-16.81l-.25-.33a33.51,33.51,0,0,0-14.21-11c-9.14-3.8-14.13-7.56-14.85-11.18-1.11-5.56-22.25-26.14-30.3-33.61l-.32-.29v-.44c0-19.12-45.3-47.24-45.76-47.52l-.28-.17-.12-.3C262.69,47,220,34.09,219.59,34c-5-1.48-7-7.27-8.89-12.87-1.2-3.49-2.33-6.8-4.08-8.77-5.67-6.4-15.08-8.8-20.18-9.66C172.5.3,154,3.89,146.23,17.37c-4.9,8.57-6,18.59-6.47,26.36,0,0-.13,3.5-.19,4.57ZM116.28,176.48c-2.78,3.77-1.68,12.88-1,15a3.75,3.75,0,0,1,2.47,1.73c2.39,3.87-.54,12.87-8.73,26.76-4.55,7.7-5.89,18.31-4,27.59l-2-.6a39.63,39.63,0,0,1,4.23-28c10.58-18,9.64-23.24,8.75-24.68a1.67,1.67,0,0,0-1.42-.86l-.74.06-.27-.69c-.16-.41-3.87-10.15,0-15.42Zm83.92-71.36a4.91,4.91,0,0,1-4.86-5.51l.45-3.56a4.91,4.91,0,0,1,3.72-4.17l8.27-2a4.94,4.94,0,0,1,3.84.68,4.89,4.89,0,0,1,2.14,3.26l.71,4.06a4.91,4.91,0,0,1-4.08,5.71h0L201,105.07A6.61,6.61,0,0,1,200.2,105.12Zm8.72-13.34a2.58,2.58,0,0,0-.68.08l-8.26,2a2.93,2.93,0,0,0-2.21,2.48l-.45,3.55a2.91,2.91,0,0,0,3.33,3.24l9.43-1.45a2.9,2.9,0,0,0,2.42-3.38l-.71-4.07a2.92,2.92,0,0,0-2.87-2.41Zm-32.5-17.92a5.16,5.16,0,0,1-2.52-.61c-4.26-2.27-3.44-10.13-3.4-10.47l.13-1.16,18.63,5.07-1.47,1.23C183.07,71.89,179.31,73.86,176.42,73.86Zm-4-9.68c-.06,2.34.3,6.18,2.43,7.31,1.44.77,4.36.65,10.17-3.88Zm42.23-4c-1.82,0-4.26-1-7.38-2.9l-1.08-.66L216,46.9l.57,1.38c.6,1.42,3.41,8.65.45,11.16A3.43,3.43,0,0,1,214.64,60.23Zm-5.24-3.95c4.39,2.52,5.84,2,6.28,1.64,1.17-1,.52-4.57-.47-7.45Z" style="fill:#fff"/></g></g></svg>