<svg xmlns="http://www.w3.org/2000/svg" viewBox="0 0 363.77 499.04"><title>Marilith</title><g id="bf2533e4-a143-4550-a581-8edaabc34057" data-name="Layer 2"><g id="aba97596-769c-42eb-9aad-86499a0106d0" data-name="Layer 1"><path d="M289.78,355.85a7.39,7.39,0,0,0,1,3,44.63,44.63,0,0,1,5.29,22.52c-2,43.52-58.91,36.9-58.91,36.9a71,71,0,0,1,3.67,8,37.91,37.91,0,0,1-8.36,40.12c-72.61,74-133.13-5.41-133.13-5.41-10.68,3.57-83.57-15.33-78.08-66.57C26,350.6,68.45,343.3,80.55,342.11a2.84,2.84,0,0,0,2.56-2.92c-.25-6.77,3.64-22.52,3.64-22.52s41.55-36.44,46.3-44.48l17.54,44.58,27-29.6s12,51.88,13,59.92c0,0,7.12-3.29,12.61,2.46s20,7.68,20,7.68c.55-11.51,1.09-22.47,35.62-24.12a54.22,54.22,0,0,0,22.33-5.92c4.4-2.38.9-9.13-3.62-7-8.83,4.21-13.19,8.15-25.28,7.53a19,19,0,0,1-14.3-7.35c-11-14.73,17.1-25.61,17.84-25.89L247,304.37a11.91,11.91,0,0,0-3.09,8.9c.44,4.68,3.61,6.13,6.74,6.38a13.58,13.58,0,0,0,9.16-2.82c26.1-19.61,37.66-7.28,37.66-7.28C329.78,342.16,289.78,353.12,289.78,355.85Z" style="fill:#585909"/><path d="M168.48,499c-1.44,0-2.89-.05-4.33-.14-36-2.24-61.64-32.33-65.18-36.7-7.75,1.59-36.73-4.57-57.39-21.2-15.84-12.75-23.21-28.87-21.31-46.62,4.74-44.39,47.26-52,60.18-53.27a1.83,1.83,0,0,0,1.66-1.89c-.25-6.83,3.51-22.14,3.67-22.79l.07-.3.24-.21c.41-.36,41.49-36.43,46.1-44.24l1.05-1.76,17.69,45,27.24-29.82.43,1.86c.47,2,11.1,47.89,12.81,58.79a12.16,12.16,0,0,1,12.51,3.12c4.33,4.55,14.92,6.64,18.33,7.21.57-11.14,2.2-22.32,36.52-23.95a52.78,52.78,0,0,0,21.9-5.81,2.73,2.73,0,0,0,1.14-3.83,2.79,2.79,0,0,0-3.85-1.37c-1.69.8-3.21,1.6-4.68,2.36-6.18,3.23-11,5.76-21.08,5.26a19.91,19.91,0,0,1-15-7.76c-2.56-3.43-3.33-7-2.3-10.5,3-10.17,19.87-16.64,20.59-16.91l3.8-1.44L247.73,305a10.9,10.9,0,0,0-2.84,8.14c.31,3.4,2.22,5.19,5.82,5.47a12.48,12.48,0,0,0,8.48-2.62c26.51-19.92,38.49-7.7,39-7.17,9.5,9.59,13.79,18.39,12.73,26.15-1.4,10.25-11.64,16.08-17.14,19.21a26.19,26.19,0,0,0-3,1.84,7.38,7.38,0,0,0,.88,2.38,45.66,45.66,0,0,1,5.41,23c-.52,11.13-4.62,20-12.19,26.47-15.08,12.81-39.14,12.06-46,11.55,1.1,2.2,2.06,4.38,2.88,6.51a39,39,0,0,1-8.58,41.18C212.45,488.33,190.69,499,168.48,499ZM99.71,459.89l.43.57c.26.34,26.42,34.1,64.15,36.45,23.11,1.44,45.81-9,67.48-31.14a37,37,0,0,0,8.14-39.06,70.67,70.67,0,0,0-3.62-7.92l-.89-1.68,1.89.22c.29,0,29.62,3.25,46.31-10.93,7.12-6.06,11-14.48,11.48-25a43.76,43.76,0,0,0-5.18-22,7.93,7.93,0,0,1-1.12-3.51c0-1.09,1.17-1.76,4-3.37,5.2-3,14.88-8.47,16.15-17.74,1-7.11-3.13-15.35-12.19-24.49-.13-.13-11.37-11.39-36.35,7.38a14.51,14.51,0,0,1-9.84,3c-4.53-.35-7.25-2.94-7.66-7.27a13,13,0,0,1,3.34-9.66L252,297.3c-5.13,2.53-13.34,7.46-15.18,13.73-.86,2.94-.21,5.8,2,8.75a17.89,17.89,0,0,0,13.54,7c9.48.49,13.91-1.83,20.05-5,1.49-.77,3-1.58,4.75-2.4a4.79,4.79,0,0,1,6.49,2.28,4.72,4.72,0,0,1-2,6.49,55,55,0,0,1-22.77,6c-33.64,1.6-34.13,12.08-34.66,23.17l0,1.08-1.08-.14c-.61-.08-14.94-2-20.6-8-4.91-5.16-11.2-2.38-11.47-2.25l-1.25.56-.16-1.36c-.8-7-10.36-48.62-12.51-57.95l-26.83,29.38L132.8,274.29c-7.75,10-41.64,39.84-45.15,42.93-.54,2.21-3.76,15.89-3.54,21.93a3.83,3.83,0,0,1-3.47,4c-12.53,1.24-53.8,8.6-58.38,51.49-1.85,17.29,5.07,32.37,20.57,44.85,20.84,16.76,50,22.75,56.2,20.68Z" style="fill:#fff"/><path d="M183.37,44.82l-9.21-4.61c-3.85,1.65-15.35-1.09-10.42-11.5s13.15,1.09,13.15,1.09l4.93,1.09C186.07,37.52,185.12,42.06,183.37,44.82Z" style="fill:#463a1d"/><path d="M306.76,182.14c-9.86-1.09-7.67-16.16-7.67-16.16l-2.19-2.74c-6.1-3.72-6.39-15.23-6.39-17.44.25,2.78,7.67,1.09,7.67,1.09-2.55,2.56,8,9.5,8,9.5l1.92,4.38c3-.55,5.2,1.65,7.94,9.87S316.63,183.24,306.76,182.14Z" style="fill:#463a1d"/><path d="M230.28,292.19l-2.7,2.29c-3.23,10.79-8.47,11.53-12.42,10.1a11.76,11.76,0,0,1-7.33-8.91c-2.51-12.56,14.82-11.05,14.82-11.05l-.18-.39C227,287,229.28,289.79,230.28,292.19Z" style="fill:#463a1d"/><path d="M147.57,63.51,138,71.18s-12-6.35-2.16-15.3c.68.12,1.07.22,1.07.22l6-3.83c6.58-16.17,19.17-1.09,19.17-1.09C164,67.34,147.57,63.51,147.57,63.51Z" style="fill:#463a1d"/><path d="M90.67,268.08a7.5,7.5,0,0,1-3.76.14c-7.85-1.89-6.74-14.8-6.49-17,2.94-2.12,6.12-3.76,9.25-4.09C96.4,252.27,102,264.92,90.67,268.08Z" style="fill:#463a1d"/><path d="M109.74,192.78c.08,2.9-.59,6.15-3.86,7.06a6.86,6.86,0,0,1-6.72-2c-2.4-2.46-5.23-7.19-1.91-14.05,0,0-.41-.3-1-.84,4.46-.63,13-1.09,12.72,4.86A12.1,12.1,0,0,0,109.74,192.78Z" style="fill:#463a1d"/><path d="M135.52,120.49c-1.65,3-.28,13.16-.28,13.16a1.91,1.91,0,0,1,.39-.47l-.75,2c8.75,14.37-2.29,21.26-5.66,23h0c-8.91-4.34-19-11.76-17.71-23,2.18-19.73,15.71-40.18,12.79-46.4,0,0-6.22-1.82-5.85-6.21a59.62,59.62,0,0,1-1.3-19.81l.57.18c5.2-8.61,14.89-7.67,18.11-7.08C126,64.83,138,71.18,138,71.18c1.65,1.1,1.37,6.57,1.37,6.57l2.19,1.37c3,3.29-3.83,10.69-3.83,10.69C139.08,90.08,137.17,117.48,135.52,120.49Z" style="fill:#b6997a"/><path d="M251.42,279.13l-.82,6.31-2.74,2.19c-13.16,12.6-16.72,3.84-16.72,3.84l-.86.72c-1-2.4-3.24-5.17-7.81-8l-2.29-4.82-4.11-2.74-.28-3.83-3-1.1.27-5.75c-3.83,2.47-11.51-15.89-11.51-15.89-1.07-.37-2.36-3.75-3.46-7.45v0L195.62,233l-.05-.23,0-.18s3.3-29.77,13.71-27.94c5.75,1.91,4.65,23.83,4.65,23.83,8,5.48,13.43,29,13.43,29l7.12,5.75,2.46,5.22c1.72-1.38,4.2-1,5.8-.58Z" style="fill:#b6997a"/><path d="M306.22,156.39s-10.59-6.94-8-9.5c0,0-7.42,1.69-7.67-1.09,0,2.21.29,13.72,6.39,17.44l-3.84,1.92v1.64l-8.22,7.95-7.39-.28L256.9,187.9l-10.41-.82C232,190.91,218.26,186,218.26,186s5.11-12.07-5.89-22.65h0c.68-.15,7.35-1.59,12.86,1.34,0,0,13,6,18.5,6,0,0,6.93,4.74,5.84,8.4,0,0,5.48,0,4-9.49,0,0,5.84,2.55,5.84,6.93,0,0,1.83-14.24,3.66-12.42.27.27.63.12,1.05-.33l8.08-2.59-1.09-3.29,6.21-5.85,5.47.74s-2.19-7.67,0-8.4c1.09-.37-.44-.92-2.24-1.38,4.92-2.66,10.72-5.43,14.94-6.3.46-.09.93-.21,1.39-.34,4.3.46,8.75,14,8.75,14C309,150.9,306.22,156.39,306.22,156.39Z" style="fill:#b6997a"/><path d="M226.68,102.16a28.79,28.79,0,0,1-1.57,4.54c-4.38,9.86-12.42,27.76-11.69,35.07.44,4.36,1.31,10,1.23,14.52,0,0,0,0,0,0-.25,2.32-.71,5.25-1.57,6.46a2.74,2.74,0,0,1-.32.36s-6.65-15.51-10.29-12.59c0,0-5.25-21.38-10.63-20.54,1.84-.61,10.95-5.33,16.84-39.37,0,0-9.14-5.84-10.42-12.06V74.19C199.35,67.62,190,59.4,190,59.4c-7.67-1.66-6-14.25-6-14.25l-.65-.33c1.75-2.76,2.7-7.3-1.55-13.93,7.67-11.5,18.09,5.49,18.09,5.49l-1.47,5.3s5.85.73,5.85,12l10.06,8.65-2.74-1.33c.48.55,17.82,20.18,13.5,26.66C225.11,87.71,227.13,96.37,226.68,102.16Z" style="fill:#b6997a"/><path d="M135.52,224.06,115,233.38c-11,10.14-18.64,6-23,8s-2.73,5.48-2.73,5.48l.45.33c-3.13.33-6.31,2-9.25,4.09l0-.32-3.84-7.11C70,244.89,70,238.31,70,238.31c-3.83,1.1-4.11-3.56-4.11-3.56-3-1.1-2.74-5.75-2.74-5.75-4.11-2.19-.54-10.41-.54-10.41l-1.09-.89a37.14,37.14,0,0,1,11.23-2.86,9.31,9.31,0,0,1,4.63-4.19c2.07.57,6.13,2.7,9.24,10.77,0,0,12.06-8.77,19-2.93,0,0,13.87-13.14,18.63-11,0,0,11.32-13.88,16.8-11.32l-5.12-4s-10.59,3.66-15.71-.37l-11.32-4c.27-5.95-8.26-5.49-12.72-4.86-2.07-1.78-6.42-6.17-4.45-10.12,0,0-5.12-2.92-3.28-6.58,0,0-3.66-6.21-2.2-7.31,0,0-2.92-6.57.73-8,0,0-1.64-2.62.06-4.14a3.4,3.4,0,0,1,.3-.23c12.05-8.77,16.81-.37,16.81-.37,1.23-1.89,2.34-2.83,3.29-3.11,1.11,1.52,1.79,2.92,1.1,3.48-1.83,1.46,0,6.94,0,6.94s7.3,9.13,5.1,10.23c0,0,11,4.37,9.88,5.47,0,0,10.59-2.92,12.78,1.1l8.77-.36c9.86-1.09,8,31.41,8,31.41C156.8,219.59,135.52,224.06,135.52,224.06Z" style="fill:#b6997a"/><path d="M179.49,125.06l3.62,7.94c-9.51,9.5-20.1,1.83-20.1,1.83l-6.58-.73c-5.11-3.65-6.93-10.86-6.93-10.86l-1.1-3.3-2.47-1.09-1.64-5.75,3.28.54c-1.92-1.37-2.18-8.76-2.18-8.76s3-18.27,14.7-13.16c0,0,8-7.3,11.32-2.19,0,0,6.49,10.6,5.27,16.25.6-2,3.07-8.78,9-7.85,6.79,1.08,15.32-2.39,15.7-2.54-.55.55-18.65,18.6-20.82,17.16,0,0-2.19,8.77-8.4,7.31C172.14,119.86,171.23,125.56,179.49,125.06Z" style="fill:#b6997a"/><path d="M108.94,187.81a12.1,12.1,0,0,0,.8,5A21.24,21.24,0,0,0,108.94,187.81Zm0,0a12.1,12.1,0,0,0,.8,5A21.24,21.24,0,0,0,108.94,187.81Zm0,0a12.1,12.1,0,0,0,.8,5A21.24,21.24,0,0,0,108.94,187.81Zm0,0a12.1,12.1,0,0,0,.8,5A21.24,21.24,0,0,0,108.94,187.81ZM195.62,233c.29,1.34,1.27,5.67,2.46,9.65Zm67.49-68.91c.27.27.63.12,1.05-.33Zm32.42-27.4c.46-.09.93-.21,1.39-.34A2,2,0,0,0,295.53,136.66Zm-32.42,27.4c.27.27.63.12,1.05-.33Zm-71.6-34-4.75-4.76.78-2a32.6,32.6,0,0,1-8,1.69l3.62,7.94c-9.51,9.5-20.1,1.83-20.1,1.83l-6.58-.73c-5.11-3.65-6.93-10.86-6.93-10.86l-3.57.55-.28,6.56,3.3,2.47s-10.58-2.22-13.32.36l-.75,2c8.75,14.37-2.29,21.26-5.66,23a73.41,73.41,0,0,0,9.3,3.72,8.68,8.68,0,0,1,5.26,4.87l1.33,3.16c9.86-1.09,8,31.41,8,31.41,3.66,18.27-17.62,22.74-17.62,22.74s-5.76,10.14-9.87,9.87S73.87,289,81,320.24c0,0,1.09.28,5.75-3.57,0,0,41.55-36.44,46.3-44.48l17.54,44.58,27-29.6s12,51.88,13,59.92v0c.4-1.4,18.73-63.9,4.1-95.87,0,0-5.21-7.13.82-18.63,0,0,3.3-29.77,13.71-27.94,0,0-1.92-4.11.26-7.68s6.3-4.11,8.77-11c0,0,5.11-12.07-5.89-22.65h0a1.15,1.15,0,0,0,.37-.18s-6.65-15.51-10.29-12.59c0,0-5.25-21.38-10.63-20.54Zm33.6-23.39c.94-.85,1.41-2.52,1.57-4.54A28.79,28.79,0,0,1,225.11,106.7Zm38,57.36c.27.27.63.12,1.05-.33Zm0,0c.27.27.63.12,1.05-.33ZM108.94,187.81a12.1,12.1,0,0,0,.8,5A21.24,21.24,0,0,0,108.94,187.81Z" style="fill:#6c0c0d"/><path d="M259.09,274.76l1.1,5.75-8.77-1.38-8.73-11.25a11.7,11.7,0,0,1,1.61.58l.54-9.6,6.85,3.57c73.44-34.53,76.17-62.75,76.17-62.75,2.47-1.1,4.11,11.78,4.11,11.78,12.24-5.13,28.17.43,31.45,1.69C351.5,210.51,259.09,274.76,259.09,274.76Z" style="fill:#b7b7b7"/><path d="M279.91,105.7l10.69,21.1,5.21.82-.28,9c-4.22.87-10,3.64-14.94,6.3-1.83-.46-4-.82-4-.82l1.84-6.57-15-34.34S226.58,81.86,225.85,68l-11.5-5.6-10.06-8.65c0-11.32-5.85-12-5.85-12l1.47-5.3,5.47-9.86,2.74,15.89,28,15.89L222.92,36.38l11.51,4.39c-6.57-11.52,4.93-28,4.93-28,7.13,43.29,30.15,69.6,30.15,69.6,11.5,11,32.87,11,32.87,11l25.2,8.77C311.14,111.18,279.91,105.7,279.91,105.7Z" style="fill:#b7b7b7"/><path d="M107.48,143.05c-1,.28-2.06,1.22-3.29,3.11,0,0-4.76-8.4-16.81.37l-3.65-5.12,7-2.19L88.49,102,71.32,112.19S58.89,129,54.88,130.45c0,0-8,15.35,21.18,80a4.6,4.6,0,0,1,1.35.2,9.31,9.31,0,0,0-4.63,4.19,37.14,37.14,0,0,0-11.23,2.86l-5.21-4.32h7.12s-20-57.54-20.83-59.46,2.19-17.26,2.19-17.26c-26.57,11.79-42.46-9-42.46-9C48.12,135.84,58.8,98.3,58.8,98.3L86.2,83,82.36,29.8C81,16.11,74.42.48,74.42.48c8.22.28,16.16,26,16.16,26l4.11-6,3.56,55.62,12.33-6-2.47-10.14,9,2.84a59.62,59.62,0,0,0,1.3,19.81l-18.63,11,2.92,44.2A47.64,47.64,0,0,1,107.48,143.05Z" style="fill:#b7b7b7"/><path d="M208.68,90.63c-3.4,19.67-7.88,29.54-11.41,34.5l-2.61-3.22a8.15,8.15,0,0,0-1.08-3.35l-1.29-2.2a1.12,1.12,0,0,0-2,.14l-2.75,6.87c-16.82,5.38-15.4-3.51-15.4-3.51,6.21,1.46,8.4-7.31,8.4-7.31,2.17,1.44,20.27-16.61,20.82-17.16-.38.15-8.91,3.62-15.7,2.54-5.91-.93-8.38,5.83-9,7.85,1.22-5.65-5.27-16.25-5.27-16.25-3.28-5.11-11.32,2.19-11.32,2.19-11.69-5.11-14.7,13.16-14.7,13.16-2.2-2.19-1.38-11.51.26-12.6s7.13-12.06,7.13-12.06l1.64,6.57c5.48-3.84,10.41-2.18,10.41-2.18L161,75.84a11.21,11.21,0,0,0,8.22,1.09c4.94-1.09,12.6,1.64,12.6,1.64,4.83-3.21,16-.12,16.43,0h0C199.54,84.79,208.68,90.63,208.68,90.63Z" style="fill:#283f23"/><path d="M263.11,164.06c-1.83-1.82-3.66,12.42-3.66,12.42,0-4.38-5.84-6.93-5.84-6.93,1.46,9.49-4,9.49-4,9.49,1.09-3.66-5.84-8.4-5.84-8.4-3,0-8.24-1.79-12.38-3.41L213.85,145.6c-.15-1.34-.31-2.64-.43-3.83-.73-7.31,7.31-25.21,11.69-35.07L231,117.29s-1.1,25.58,18.63,13.53c0,0,9.13-10.6-6.93-11.69,0,0,15.33-7.31,15.33,12.78,0,0,0,6.58-2.55,7.67S271.88,146.16,263.11,164.06Z" style="fill:#283f23"/><path d="M190,351.09l-.4-3.32c-.8-7-10.36-48.62-12.51-57.95L150.25,319.2,132.8,274.86c-8,10.3-43.79,41.73-45.39,43.14-2.33,1.92-5.35,4.1-6.66,3.78l-.59-.15L80,321c-5.27-23.11,18.87-59.15,34-76.81,3.43-4,9.48-10.72,11.67-10.72h.07c2,.16,5-3.31,7.2-6.6l-17.39,7.88c-7.89,7.24-14.14,7.37-18.71,7.46a12.81,12.81,0,0,0-4.47.56,3.91,3.91,0,0,0-2.27,2.05,3,3,0,0,0,0,1.89c4.62,3.41,8.93,10.35,8,15.91-.42,2.39-2,5.53-7.08,7a8.53,8.53,0,0,1-4.27.14c-8.71-2.1-7.53-15.71-7.25-18.09l-3.37-6.22a6.09,6.09,0,0,1-4.74-1.28A6.92,6.92,0,0,1,69.14,240a3.59,3.59,0,0,1-2.26-.62A5.26,5.26,0,0,1,65,236c-2.44-1.31-2.79-4.53-2.82-5.88-3.41-2.47-1.52-8.56-.74-10.65L53.56,213h8.49c-7-20.2-19.71-56.6-20.34-58.06-.75-1.78.87-11.17,1.78-16C17.54,149.21,1.72,129,1.56,128.79l-1.56-2,2.53.45c44.36,8,55.21-28.24,55.31-28.6l.12-.4L85.16,83l-3.8-52.52C80,17.08,73.56,1.6,73.5,1.44L72.89,0l1.56.05C82,.31,88.76,18.44,90.9,24.84l4.6-6.75,3.66,57,10.26-5L106.72,59l10.56,3.32c6-9.06,17.07-7.26,19.43-6.75l5.4-3.43c1.94-4.61,4.6-7.2,7.89-7.72,6.39-1,12.6,6.34,12.86,6.66l.19.22,0,.3c.59,5-.44,8.75-3.08,11.11-4,3.59-10.36,2.74-12.18,2.41L139.4,71.9c.93,1.64,1,4.4,1,5.88l1.9,1.24c3.14,3.42-1.72,9.61-3.38,11.53.92,4.24-.93,28.12-2.5,31-.93,1.71-.76,6.93-.37,10.78,2.29-1.07,6.08-.92,9.06-.57l-.46-.34.34-7.92,3.2-.49-.58-1.75-2.49-1.11-2.2-7.72,2.69.45a26.7,26.7,0,0,1-1.19-7c-1.73-2.24-1.34-7.26-1.24-8.29.17-1.7.64-4.67,1.94-5.53.88-.6,4.21-6.53,6.78-11.68l1.21-2.42,2,7.85a13.84,13.84,0,0,1,8.11-1.91l-4.45-10.17,2.83,1.89a10.25,10.25,0,0,0,7.45,1c4.51-1,10.93.93,12.7,1.52,4.41-2.49,12.44-.94,15.56-.19V74.59c.91-5.46-6.45-12.54-7.71-13.71-7.17-1.79-6.84-11.77-6.61-14.58l-8.85-4.43a11.32,11.32,0,0,1-10.51-2.73c-1.72-1.78-3.25-5-.76-10.29,1.45-3.06,3.35-4.71,5.65-4.91,4.12-.36,8,4.26,9,5.54l3.91.86c1.92-2.62,4.2-3.93,6.71-3.87,5.12.1,9.8,5.84,11.74,8.56l6.06-10.91L209,42.34l24.23,13.78L220.58,35l11.91,4.53c-4.35-11.62,5.6-26.06,6-26.71l1.41-2,.4,2.42c7,42.52,29.68,68.84,29.91,69.1,11,10.49,31.91,10.62,32.12,10.62h.16l27.5,9.57-2,1.08c-14.37,7.89-39.21,5-46.38,4l9.57,18.89,5.57.88-.26,8.53a3.56,3.56,0,0,1,1.23.2c4.09,1.44,7.74,11.4,8.65,14a2.66,2.66,0,0,1,1.48,1.3c.89,1.75-.14,4.48-.61,5.57l1.44,3.29c3.86-.19,6.05,4,8.27,10.64,1.6,4.8,1.51,8.19-.25,10.38s-5.09,3-10.13,2.43a8.47,8.47,0,0,1-6-3.29c-3.39-4.39-2.83-11.7-2.62-13.57l-1.42-1.79-2.57,1.28v1.45l-8.83,8.55-7.5-.29-20.57,13.44-10.58-.83c-12.59,3.27-24.37.17-27.73-.87a17,17,0,0,1-5.62,7.26,12.33,12.33,0,0,0-2.88,3,7.55,7.55,0,0,0-.35,6.38c5.43,2.7,5.11,19.47,4.91,24.11,7.48,5.83,12.57,26,13.29,29l7,5.68,2.08,4.42a8.78,8.78,0,0,1,6.06,0l.55-9.78,7.78,4.05c71.4-33.67,75.13-61.45,75.16-61.73l.06-.58.53-.23a1.71,1.71,0,0,1,1.57.08c2,1.14,3.22,7.49,3.76,11.22,12.47-4.47,27.93,1,31,2.14l-.57,1.91a3.84,3.84,0,0,0-.71-.06c-11.65,0-76.87,43.49-102.3,61.15l1.25,6.51-9.16-1.44-.74,5.69L248.48,289c-5.56,5.33-10.28,7.65-14,6.87a6.05,6.05,0,0,1-3.6-2.31l-2.45,2.07c-1.64,5.33-4,8.77-6.89,10.25a8.24,8.24,0,0,1-6.74.22,12.81,12.81,0,0,1-8-9.65c-.68-3.39-.07-6.17,1.8-8.26,3.2-3.57,9.25-4.05,12.28-4.05H221l-1.64-3.47-4.29-2.86-.27-3.68L211.76,273l.24-5.23a3.58,3.58,0,0,1-.53-.11c-4.12-1.28-9.41-13.22-10.72-16.32-2.1-1.65-4.19-9.17-5.56-15.11-3.68,9.19.14,14.69.32,14.94l.1.17c14.29,31.22-2.13,90-4,96.54l-.08.2Zm-11.82-65.42.43,1.85c.43,1.86,9.44,40.72,12.22,55.48,3.9-15,15.17-64,3-90.74-.63-.94-5.14-8.24.82-19.59l1.28-2.46.58,2.71c1.6,7.51,4.12,16.07,5.4,16.81l.43.15.15.4c2.32,5.55,7,14.66,9.58,15.47a.5.5,0,0,0,.46,0l1.63-1.05-.33,6.95,2.93,1.07.29,4,3.93,2.63,3.33,7-1.73-.14c-.1,0-8.82-.71-12.44,3.33-1.42,1.59-1.86,3.79-1.32,6.53a10.81,10.81,0,0,0,6.69,8.16,6.31,6.31,0,0,0,5.16-.13c2.48-1.24,4.48-4.38,6-9.32l.09-.28,4.84-4.1.52,1.28a4.12,4.12,0,0,0,2.89,2.25c2.06.42,5.86-.35,12.21-6.43l2.49-2,.9-6.93,8.38,1.31-1-5,.53-.37c8.69-6,79.38-54.92,100.57-61.2-6.17-1.83-17.56-4.2-26.72-.35l-1.21.5-.17-1.3c-.56-4.4-1.58-8.64-2.41-10.3-1.63,6.38-12,31.74-76.45,62l-.45.21L245.75,261l-.54,9.53-1.34-.63s-4.13-1.9-6.35-.12l-1,.79-2.9-6.15-7.22-5.83-.08-.33c-.05-.23-5.48-23.24-13-28.45l-.46-.31,0-.56c.4-8.18-.32-21.62-4-22.83l-.41-.14-.18-.39c-.09-.19-2.12-4.64.32-8.62a14.1,14.1,0,0,1,3.31-3.48,15.15,15.15,0,0,0,5.37-7.3l.34-.94.94.33c.13.05,13.6,4.78,27.63,1.08l.17,0,10.23.8L277.17,174l7.28.27,7.61-7.35v-1.84l5.12-2.56,3,3.72-.06.43c0,.08-1.14,8.21,2.18,12.5a6.42,6.42,0,0,0,4.62,2.52c4.24.47,7.05-.1,8.34-1.7s1.26-4.45-.09-8.49c-3-9.09-5.1-9.52-6.81-9.21l-.78.14-2.43-5.53.21-.42c.61-1.22,1.27-3.34.82-4.2-.07-.16-.21-.33-.64-.4l-.59-.1-.19-.57c-1.52-4.64-4.93-12.35-7.59-13.29a1.12,1.12,0,0,0-1.06.12l-1.6,1,.31-10.07-4.84-.76L278.12,105l2,.34c.3,0,28.52,4.87,44.91-2.42l-22.8-7.93c-2.21,0-22.14-.52-33.38-11.24-.29-.32-22.43-26-30-67.56-2.75,4.75-8.34,16.27-3.52,24.7l1.39,2.43-11.43-4.36,13.63,22.72-31.67-18-2.34-13.56L200,38.93l-.9-1.46c-.06-.09-5.53-8.9-11-9-2,0-3.8,1.16-5.4,3.55l-.38.57-6-1.33-.22-.31c-1.07-1.48-4.5-5.32-7.42-5-1.55.14-2.9,1.41-4,3.78-1.61,3.4-1.48,6.11.39,8,2.32,2.41,6.82,2.93,8.73,2.11l.43-.18,10.91,5.46-.09.71c0,.11-1.44,11.7,5.24,13.14l.25.06.2.17c.4.35,9.64,8.6,8.56,15.61v5.64L198,80.11c-.12,0-11.13-3.13-15.62-.13l-.41.28-.48-.17c-.07,0-7.45-2.63-12-1.61a13,13,0,0,1-6.52-.17l3.73,8.53-2.14-.71c-.18-.06-4.55-1.43-9.51,2.05l-1.2.84-1.34-5.4c-1.87,3.61-4.89,9.15-6.25,10.06-.31.27-1,2.14-1.14,5.26s.41,5.2,1,5.8l.28.28v.39c.13,3.32.84,7.32,1.78,8l3.5,2.51-6-1,1.08,3.78,2.44,1.08,1.61,4.84-3.92.6-.22,5.22,6.47,4.85-4.41-.92c-4.47-.93-11.57-1.47-12.63.35l-1.47,2.51-.39-2.88c-.14-1.07-1.36-10.56.4-13.77C136,118.13,137.82,95,137,91.27L135.77,91,137,89.7c1.59-1.72,5.66-7.06,3.9-9.24l-2.55-1.61,0-.58c.11-2.32-.24-5.23-.93-5.68l-1.15-.76L147.33,63l.47.1c.07,0,7,1.58,10.88-1.86,2.07-1.86,2.9-4.91,2.45-9.07-1-1.16-6.08-6.48-10.82-5.74-2.63.41-4.8,2.7-6.47,6.79l-.12.3-6.67,4.23-.43-.11c-.5-.14-12.23-3.23-18.06,6.41l-.4.67L109.51,62l2.24,9.19-14.4,7L93.88,24l-3.64,5.35-.61-2c-2-6.34-7.86-21.9-13.55-24.84,1.78,4.59,6.19,16.82,7.27,27.73l3.89,53.81L59.64,99.55c-1.23,3.67-11.44,30.8-44.83,30.8A67.77,67.77,0,0,1,5,129.62c4.77,4.86,18.66,15.91,39.45,6.7l1.75-.78-.37,1.89c-1.42,7.27-2.65,15.5-2.24,16.68.82,1.92,20,57.16,20.85,59.52l.46,1.32H59.12l4.73,3.92-.3.69c0,.07-3.09,7.42.1,9.13l.57.3,0,.64s-.18,3.93,2.08,4.75l.62.23,0,.65A3.79,3.79,0,0,0,68,237.79a2,2,0,0,0,1.71.13l1.28-.36v1.32a5.54,5.54,0,0,0,1.58,3.77,4.54,4.54,0,0,0,3.83.73l.71-.12,4.33,8,0,.33c0,.14-1.89,14.37,5.7,16.2a6.51,6.51,0,0,0,3.26-.13c3.29-.92,5.19-2.73,5.65-5.37.81-4.74-3.17-11.13-7.41-14.12l-.22-.15-.11-.25a5.06,5.06,0,0,1-.1-3.65A5.84,5.84,0,0,1,91.55,241a13.89,13.89,0,0,1,5.23-.73c4.27-.08,10.12-.2,17.51-7l.12-.11.15-.06,23.35-10.59-1.52,2.68c-.61,1.07-6,10.38-10.59,10.38h-.15c-2.06.57-14.56,13.61-26.17,31.59-8,12.44-20.84,35.56-17.73,52.44a24.1,24.1,0,0,0,4.36-3.07c.39-.34,41.47-36.41,46.08-44.22l1.05-1.76,17.69,45ZM125.58,235.5h0ZM86.19,223.56l-.47-1.21C81.7,212,76.14,212,76.11,212l-.67,0-.29-.61C46.06,147.08,53.65,131.2,54,130.56l.18-.35.37-.13c2.73-1,11.05-11.26,16-17.92l.12-.16,18.76-11.17,2.33,39.68-6.37,2,3.44,4.84-.85.57c-1.37.91-.09,3-.07,3l.63,1-1.11.44a1.68,1.68,0,0,0-1,1c-.68,1.68.34,4.7.79,5.72l.32.73-.57.42c-.19.72.93,3.56,2.4,6.05l.28.47-.25.49c-1.38,2.76,2.85,5.24,2.89,5.26l.82.47-.42.85c-2.12,4.23,5.1,9.64,5.17,9.7l.68.49-.36.75c-3,6.16-.71,10.43,1.72,12.93a5.86,5.86,0,0,0,5.73,1.73,3.7,3.7,0,0,0,2.36-1.86c1.45-2.65.5-7.33,0-8.92l-.59-1.9,13.35,4.74.13.1c4.63,3.63,14.67.24,14.77.2l.51-.17,12.4,9.74-7.89-3.69c-3.48-1.63-11.42,5.91-15.61,11.05l-.49.6-.7-.33c-2.86-1.3-12,5.51-17.53,10.78l-.64.61-.69-.57c-6.26-5.27-17.66,2.89-17.77,3Zm-9.47-13.49c1.83.23,6.68,1.69,10.4,10.4,3.08-2,12.19-7.06,18.47-2.72,3.24-3,13.27-11.8,18.35-10.8,1.94-2.3,8.69-9.92,14.13-11.27l-2.3-1.8c-2.26.7-11.1,3.08-16-.6l-9.44-3.34c.44,2.22.84,5.95-.62,8.61a5.63,5.63,0,0,1-3.57,2.82,7.85,7.85,0,0,1-7.7-2.26c-2.28-2.34-5.54-7.27-2.43-14.45-1.87-1.53-7-6.21-5.49-10.87-1.91-1.34-4.25-3.95-3.16-6.9-1.53-2.68-2.94-5.85-2.21-7.5-.5-1.28-1.53-4.46-.61-6.75a3.79,3.79,0,0,1,1.16-1.56,4,4,0,0,1,.34-4.13l-3.93-5.51,7.51-2.37-2-34.84L72,113.51c-1.7,2.29-12,16-16.34,18.26C54.85,134.13,50.55,152,76.72,210.07Zm59-38.2-.3-.55c-1.47-2.71-9.09-1.32-11.64-.62l-3.64,1,2.17-2.18a56.75,56.75,0,0,0-9-4.33l-2.07-.83,1.87-.93c0-1.08-2.36-5.09-5.31-8.77l-.12-.14-.05-.17c-.34-1-1.89-6.1.23-8,0-1-2.69-4.35-5.82-7.34l-.28-.27,0-.39-3-44.81,20.82-12.26-.15,1.92c-.3,3.52,5.08,5.16,5.13,5.17l.43.13.19.41c1.63,3.46-.88,9.84-4.36,18.67-3.23,8.21-7.25,18.43-8.34,28.27-1.64,14.83,17.87,22.85,26.34,25.61a9.66,9.66,0,0,1,5.87,5.44l1.89,4.48Zm-5.09-4.16c2.47,0,4.92.49,6.19,2.11l6.77-.28-.78-1.83a7.63,7.63,0,0,0-4.64-4.31c-8.93-2.91-29.51-11.44-27.71-27.73,1.12-10.1,5.2-20.46,8.47-28.78,2.91-7.39,5.44-13.82,4.56-16.72-1.36-.49-5.13-2.12-6-5.34l-16.73,9.85,2.85,43.2c1.79,1.73,6.26,6.3,6.15,8.67a1.77,1.77,0,0,1-.65,1.33c-.81.65-.37,3.65.27,5.68,1.55,1.94,5.86,7.63,5.61,10.19,6.25,2.56,8.36,4,9.11,4.8A29.92,29.92,0,0,1,130.67,167.71Zm130.51-1.41,1-2.11c6.13-12.51-2-18.49-5.87-21.36-1.49-1.1-2.24-1.65-2.13-2.55a1.26,1.26,0,0,1,.83-1c1.33-.57,2-4.37,2-6.76,0-6.14-1.45-10.17-4.3-12a8.21,8.21,0,0,0-5.21-1c2.76.77,4.53,2.07,5.29,3.88,1.64,3.92-2.26,8.51-2.42,8.7l-.24.2c-5.82,3.55-10.54,4.3-14.05,2.23-6.1-3.59-6.15-14.41-6.11-16.36l-6.1-11,.59-.53c2.35-2.11,1.06-12.17-.3-18l-.1-.42.24-.36c2.85-4.27-6.46-17.55-13.42-25.43l-3.3-3.75,19.26,9.37,0,.59c.69,13.16,36.73,32.22,37.09,32.41l.31.17,15.26,35-1.63,5.85c6.2,1.16,6.26,2,6.31,2.62,0,.28,0,1-1,1.32-.53.37-.36,3.66.65,7.18l.41,1.47-6.51-.88-5.4,5.08,1.21,3.65Zm-4.54-25.74.89.66c3.79,2.8,12.41,9.15,7.4,21.78l6-1.93-1-2.94,7-6.61,4.47.6c-.56-2.35-1.07-5.68,0-7.31a50.19,50.19,0,0,0-5-1.12l-1.09-.19,2-7.29-14.7-33.69c-3.8-2-36.17-19.65-37.8-33.31l-9.48-4.62c5.15,6.37,13.71,18.27,10.75,23.85.61,2.72,3.09,14.82.15,19L232,117.63v.28c0,.11-.42,11.58,5.12,14.84,2.79,1.65,6.78.93,11.85-2.13.95-1.17,2.93-4.29,2-6.52-.8-1.91-3.68-3.09-8.33-3.4l-3.81-.26,3.44-1.64c.27-.13,6.62-3.09,11.53,0,3.48,2.19,5.24,6.8,5.24,13.67C259,133.57,258.87,138.63,256.64,140.56Zm-31.86,25.55c-5.1-2.72-11.44-1.41-12.18-1.24h0l-.44-2h0c.78-.46,1.6-4.8,1.77-9.29l2-.08c.5,4.31,6.44,8.81,9.87,10.8Zm-7.64-3.72a21,21,0,0,1,2.57.15,22.2,22.2,0,0,1-4.16-4.53,20.83,20.83,0,0,1-1,4.52A24.31,24.31,0,0,1,217.14,162.39Zm-25.49-30.18-6.07-6.07,3.78-9.44a2.1,2.1,0,0,1,1.8-1.32,2.14,2.14,0,0,1,2,1l1.28,2.21a9.44,9.44,0,0,1-.36,10h0Zm-3.72-6.55,3.44,3.44,1.06-1.56a7.48,7.48,0,0,0,.29-7.91l-1.29-2.19a.16.16,0,0,0-.12-.07.12.12,0,0,0-.1.07Z" style="fill:#fff"/></g></g></svg>