<svg xmlns="http://www.w3.org/2000/svg" viewBox="0 0 155.66 315.02"><defs><style>.cls-1{fill:#df0b13;}.cls-2{fill:#fff;}</style></defs><title>Monk</title><g id="Layer_2" data-name="Layer 2"><g id="Layer_1-2" data-name="Layer 1"><path class="cls-1" d="M71.1,83.85c6.46-.51,12.91-1.29,19.38-1.45,5-.12,6.55-2.79,6.74-7,.79-18.28,1.52-36.56,2.32-54.83.14-3.08.53-6.14.81-9.26,10.14.06,17.88,5,25.74,9.3,1.45.8,2.41,4.07,2.22,6.07q-2.48,27-5.65,53.91c-.16,1.35-2.57,3.19-4.17,3.46-3.17.55-6.5.17-9.82,1.12l17.6,3.14C128.69,71.84,131,56,133.63,38.33c6.64,2.94,12.49,5.32,18.1,8.17,1.11.56,1.72,2.88,1.86,4.45,2.26,24.77.55,49.53-1.66,74.15-1,10.76-5.27,21.35-9,31.66-1.17,3.23-5.78,5.08-8.34,8-1.51,1.7-3.06,4.3-2.92,6.37,2.39,35.51,5,71,7.66,106.5.58,7.86-3,13.78-9.28,17.73-9.32,5.89-18.59,12.3-28.75,16.22a39.39,39.39,0,0,1-22.71,1.38c-12.29-3.2-23.93-8.93-35.8-13.68-5.81-2.32-9.07-8.75-8.9-16.41.8-36.21,1.39-72.43,2.39-108.64.16-5.78-1.78-9.21-6.2-12.8-8.53-6.93-16.45-14.65-24.36-22.31-1.45-1.4-2.24-4.06-2.36-6.19C2.46,116.62,1.8,100.31,1.14,84c-.1-2.55-.38-5.26.31-7.64C3,70.91,5.61,67,12.41,66c13.17-2,26.14-5.3,39.73-8.18,1.18,6.21,2.47,11.72,3.13,17.31.19,1.62-1.12,3.69-2.25,5.15-3.49,4.52-7.29,8.79-10.85,13.26a9.58,9.58,0,0,0-2.26,6C46.67,93.13,53.5,86.78,60.1,80.19c1-1,1.4-3.17,1.3-4.75a78.77,78.77,0,0,0-1.55-11.11c-.93-4.37-.73-7.95,3.41-10.9,1.31-.94,1.78-3.78,1.76-5.74-.13-11-.6-22-.82-33.06-.14-7,3.51-11.15,10.52-12C79.21,2,83.8,2.06,88.23,1.25c5-.91,6.68.56,6.45,5.7-.86,19.26-1.18,38.55-2.13,57.81-.63,12.73-1,12.7-13.29,15.81-2.81.71-5.62,1.47-8.43,2.2Zm15.54,88.68,1.6.18c1.28-7.84,2.8-15.66,3.75-23.54a10.11,10.11,0,0,1,5.56-8.27c4.36-2.53,8.4-5.62,12.57-8.46a77.43,77.43,0,0,0-16.53,4.9c-3.42,1.38-6,1.22-9.13-1.26-5.19-4.18-10.86-7.76-16.4-11.5a18.77,18.77,0,0,0-3.72-1.49l-1,1.6c5.94,4.93,12.09,9.64,17.72,14.92A13.64,13.64,0,0,1,85,147.37C85.93,155.71,86.15,164.14,86.64,172.53ZM136,92.5l13.63,4.64c.48-5.35.89-9.88,1.34-15C146.54,92.34,146.54,92.34,136,92.5Z"/><path class="cls-2" d="M87.47,315a36.9,36.9,0,0,1-9.16-1.11c-8.94-2.33-17.65-6-26.06-9.61-3.23-1.37-6.57-2.79-9.87-4.11-6.05-2.43-9.71-9.08-9.52-17.36q.39-18.1.75-36.21c.48-23.74,1-48.29,1.64-72.44.15-5.17-1.43-8.43-5.83-12-8.25-6.7-16-14.24-23.55-21.52L5,139.82c-1.79-1.73-2.55-4.77-2.67-6.85C1.47,117,.82,100.66.18,84.9l0-.85L.09,82.89a21.21,21.21,0,0,1,.39-6.8C1.86,71.29,4.34,66.21,12.26,65,21.5,63.61,30.5,61.59,40,59.46c3.88-.87,7.89-1.76,11.91-2.61l1-.22.19,1c.33,1.75.67,3.44,1,5.1C55,67,55.78,71,56.26,75c.19,1.56-.64,3.54-2.45,5.88-2,2.56-4.08,5.07-6.11,7.5-1.57,1.88-3.2,3.83-4.75,5.77a9.71,9.71,0,0,0-1.5,2.56l2.81-2.66c5-4.73,10.18-9.63,15.13-14.58.78-.77,1.1-2.62,1-4a77.43,77.43,0,0,0-1.53-11c-.88-4.15-1-8.47,3.81-11.93C63.46,52.06,64,49.9,64,47.7c-.08-6.35-.27-12.81-.45-19.06-.14-4.66-.28-9.32-.37-14-.15-7.46,3.89-12.1,11.39-13.06,1.93-.25,3.89-.38,5.79-.51A67.82,67.82,0,0,0,88.05.27c2.91-.53,4.76-.28,6,.8S95.81,4,95.68,7c-.39,8.82-.68,17.81-1,26.5-.33,10.26-.67,20.87-1.18,31.31-.64,12.86-1.15,13.48-13.74,16.66l-.3.07-3.34.86.67-.06c4.45-.41,9.06-.83,13.62-.94,4-.09,5.57-1.79,5.76-6.07q.57-13.08,1.11-26.17.58-14.32,1.21-28.67c.1-2.12.31-4.27.52-6.35.1-1,.2-2,.29-3l.08-.92h.92c9.34.05,16.67,4.13,23.76,8.06.82.46,1.64.92,2.46,1.36,2,1.08,2.94,4.89,2.74,7-1.68,18.23-3.58,36.38-5.66,53.94-.23,1.95-3.18,4-5,4.33a28.85,28.85,0,0,1-3.21.33l10,1.78,7.4-50.23,1.2.53,5.15,2.25c4.56,2,8.86,3.83,13,5.94,2,1,2.37,4.82,2.41,5.25,2.32,25.53.45,50.72-1.66,74.33-.86,9.65-4.38,19.16-7.78,28.35-.44,1.19-.88,2.38-1.31,3.56-.81,2.23-3,3.82-5,5.34a22.38,22.38,0,0,0-3.5,3c-1.41,1.6-2.79,4-2.67,5.65,2.16,32,4.56,64.56,6.89,96l.77,10.45c.58,7.81-2.8,14.26-9.75,18.65l-4.22,2.7c-7.86,5-16,10.25-24.7,13.61A40,40,0,0,1,87.47,315ZM51.35,59c-3.68.79-7.34,1.61-10.9,2.4C30.9,63.55,21.87,65.57,12.56,67c-6.41,1-8.69,4.57-10.15,9.67a19.14,19.14,0,0,0-.32,6.14c0,.39,0,.79.05,1.18l0,.85c.63,15.75,1.29,32,2.15,48,.1,1.79.78,4.29,2.06,5.52l.87.85c7.49,7.26,15.24,14.76,23.42,21.41,4.89,4,6.73,7.78,6.57,13.6-.66,24.13-1.16,48.68-1.64,72.42q-.36,18.11-.75,36.21c-.17,7.43,3,13.36,8.27,15.46,3.31,1.33,6.66,2.75,9.9,4.13,8.35,3.55,17,7.22,25.78,9.51a38.57,38.57,0,0,0,22.1-1.34c8.53-3.29,16.56-8.45,24.34-13.43l4.23-2.71c6.29-4,9.34-9.79,8.82-16.81l-.77-10.45c-2.32-31.48-4.73-64-6.89-96.05-.16-2.41,1.53-5.25,3.17-7.1a24,24,0,0,1,3.82-3.25c1.91-1.41,3.72-2.75,4.33-4.42l1.32-3.57c3.35-9.06,6.82-18.44,7.66-27.83,2.1-23.52,4-48.6,1.66-74-.17-1.85-.84-3.41-1.33-3.66-4.08-2.07-8.36-3.93-12.88-5.89l-4-1.72-7.32,49.67-22.86-4.08,4.14-1.19a25.93,25.93,0,0,1,6.06-.79,33.72,33.72,0,0,0,3.87-.35c1.34-.23,3.26-1.83,3.35-2.6,2.07-17.54,4-35.67,5.65-53.88.16-1.82-.76-4.58-1.71-5.1l-2.48-1.37c-6.62-3.68-13.47-7.48-21.87-7.79l-.21,2c-.21,2.14-.42,4.17-.51,6.24q-.63,14.34-1.22,28.67-.54,13.08-1.11,26.17c-.14,3.35-1.1,7.82-7.71,8-4.49.11-9.06.53-13.48.93-2,.18-3.89.36-5.84.51l-.84.07-.73-2.85,3.57-.94L79,79.6l.3-.07C91,76.59,91,76.59,91.55,64.71c.51-10.42.85-21,1.18-31.28.27-8.69.56-17.68,1-26.52.1-2.27-.21-3.69-.94-4.33s-2.14-.74-4.33-.34a68.74,68.74,0,0,1-7.9.83c-1.87.13-3.8.26-5.66.5-6.54.84-9.78,4.56-9.65,11,.09,4.66.23,9.31.37,14,.18,6.26.37,12.73.45,19.1,0,.5,0,5-2.18,6.56-3.7,2.64-3.9,5.74-3,9.89a78.48,78.48,0,0,1,1.56,11.25c.13,1.83-.32,4.25-1.58,5.52-5,5-10.16,9.87-15.18,14.61l-5,4.77-1.74,1.66,0-2.4a10.53,10.53,0,0,1,2.48-6.63c1.57-2,3.2-3.91,4.78-5.8,2-2.42,4.11-4.92,6.06-7.44,1.44-1.86,2.17-3.43,2.05-4.42-.47-4-1.27-7.93-2.11-12.11C51.9,61.79,51.62,60.42,51.35,59Zm37.72,114.8-3.38-.38,0-.84c-.14-2.36-.25-4.72-.37-7.08-.29-5.93-.6-12.06-1.27-18a12.67,12.67,0,0,0-3.64-7.14c-4-3.76-8.36-7.3-12.58-10.72-1.7-1.38-3.4-2.77-5.08-4.16L62,124.9l1.91-3,.77.3,1.15.4a10.57,10.57,0,0,1,2.77,1.2l3.45,2.3c4.36,2.9,8.87,5.9,13,9.24,2.65,2.13,4.86,2.43,8.14,1.11a79,79,0,0,1,16.74-5l4.5-.76-3.77,2.57q-1.87,1.29-3.73,2.61c-2.86,2-5.82,4.1-8.9,5.89-3.23,1.88-4.65,4-5.08,7.53-.67,5.6-1.65,11.24-2.59,16.7-.4,2.29-.79,4.59-1.17,6.88ZM64.65,124.48c1.45,1.2,2.92,2.39,4.39,3.58,4.24,3.45,8.63,7,12.69,10.82A14.68,14.68,0,0,1,86,147.26c.68,6,1,12.19,1.28,18.15l.27,5.36c.29-1.71.58-3.41.88-5.12.94-5.43,1.91-11.05,2.58-16.6a11.1,11.1,0,0,1,6-9c2.92-1.69,5.76-3.68,8.5-5.62A87,87,0,0,0,94,138.26c-4,1.61-6.91,1.2-10.14-1.4-4.08-3.28-8.55-6.26-12.87-9.13l-3.46-2.32a9.15,9.15,0,0,0-2.26-1l-.48-.16Zm85.85-26-20.29-6.92L136,91.5c5.06-.08,7.6-.12,9.23-1.24s2.7-3.59,4.84-8.51l2.46-5.68Zm-9-5.19,7.27,2.48.71-7.91C147.4,91.86,145.78,93,141.47,93.31Z"/><path class="cls-1" d="M24.6,56.27c1.44-10.1,2.79-19.76,4.21-29.41.14-.92.48-2.31,1.12-2.59,8.67-3.82,16.3-10.7,26.66-9.48,1.28.15,3.33,2.19,3.35,3.37.12,10.21,0,20.44-.48,30.65-.07,1.46-2.43,3.83-4,4C45.62,54.22,35.69,55.11,24.6,56.27Z"/><path class="cls-2" d="M23.43,57.4l1.11-7.85c1.1-7.76,2.17-15.3,3.28-22.83.27-1.86.85-3,1.71-3.37,2.33-1,4.65-2.31,6.89-3.56,6.12-3.4,12.44-6.92,20.29-6,1.65.2,4.21,2.57,4.23,4.36.13,11.27,0,21.31-.48,30.7-.09,1.91-2.81,4.71-4.84,5-7.39,1-14.84,1.79-22.73,2.59-2.67.27-5.39.54-8.18.84ZM54.15,15.64c-6.15,0-11.32,2.88-16.76,5.9-2.28,1.27-4.64,2.58-7,3.64A4.83,4.83,0,0,0,29.8,27c-1.11,7.53-2.18,15.07-3.27,22.82l-.76,5.32,6.92-.71c7.86-.8,15.3-1.56,22.65-2.58,1.09-.15,3.08-2.12,3.12-3.1.46-9.35.61-19.36.48-30.59a4.34,4.34,0,0,0-2.47-2.39A20.47,20.47,0,0,0,54.15,15.64Z"/></g></g></svg>