<svg xmlns="http://www.w3.org/2000/svg" viewBox="0 0 322.08 320.08"><defs><style>.cls-1{fill:#e26fab;fill-rule:evenodd;}.cls-2{fill:#fff;}</style></defs><g id="Layer_2" data-name="Layer 2"><g id="Layer_1-2" data-name="Layer 1"><path class="cls-1" d="M145.47,1.51a79.58,79.58,0,0,0-28.86,5.94c20.15.51,44.28,5.3,57.08,21,5.84,7.15,7.89,18.26,6.72,29.6,1.34,1.14,2.62,2.33,3.84,3.55a59.14,59.14,0,0,1,7,8.38,43.75,43.75,0,0,1,5.08-1.24,53.8,53.8,0,0,1,9.8-.86,60.76,60.76,0,0,1,6.3.35c7-33.71-24.8-66.25-65.06-66.69-.61,0-1.24,0-1.87,0ZM125,50.49c-10.64.07-20.11,3-26.41,9.34-6.82,6.82-8.75,15.94-7.22,26.32,0,0,0,.07,0,.11,2.44,8.35,6.43,15.15,12.47,19.8s14.74,7.6,27.42,6.92c16.29-.86,29.57,3.38,39.07,10.86a67.13,67.13,0,0,1,16.9-7.33,46.66,46.66,0,0,0-11.88-46.08c-9.15-9.15-24.46-16.62-39.41-19.06a64.73,64.73,0,0,0-11-.88ZM79.93,68c-24.63,2.1-43.68,11.29-51.86,39.17-5.14,17.55-6,32.9-24.85,28.43,9.27,14.76,23.88,14.62,34.89-.44,1.42-21,16.1-40.43,40.46-51.73A48,48,0,0,1,79.93,68Zm126.13,12.4a41.36,41.36,0,0,0-7.51.63l-1.24.26a59.73,59.73,0,0,1,3.57,31.26l1.57,1.72c1.26,0,2.52,0,3.76,0A61.59,61.59,0,0,1,233,121.7a30.25,30.25,0,0,1,16.12-10.88c-2.7-11.13-10-19.1-19.31-24.22a51,51,0,0,0-23.77-6.16ZM280.7,91c-7.16,0-15,2.1-23.16,6.55a47.82,47.82,0,0,1,4.28,12.54,30,30,0,0,1,10.44,3.65c.23.13.45.28.67.42,21-7.23,34.21,5,47.11,27.73C317.47,110,302,91.07,280.7,91ZM81.57,96.08c-23,11.45-33.26,29.64-30.65,47.83,4.57,31.84,36.51,59.73,85.93,54,27.19-3.18,38.85-22.18,38-39.83a32.57,32.57,0,0,0-11-23.26c-6.91-6.07-17.25-10.08-32-9.3-14.94.8-26.93-2.74-35.73-9.51A47.21,47.21,0,0,1,81.57,96.09Zm175.59,26.14c-.42,0-.85,0-1.28,0a17.57,17.57,0,0,0-12.47,6.5,61.21,61.21,0,0,1,19,28,17.71,17.71,0,0,0-5.23-34.6Zm-53.22,4.58a49.54,49.54,0,0,0-12.89,1.7,52.83,52.83,0,0,0-11.82,4.77,46,46,0,0,1,8.19,24.24,48.42,48.42,0,0,1-6.28,26,31.72,31.72,0,0,1,8.44,49.17c10.6,5.61,21.65,7.92,30.84,5.46,12.13-3.25,21.78-14.61,27.42-29.35s6.9-32.39,3.38-45.52a49,49,0,0,0-45.45-36.38c-.61,0-1.22,0-1.83,0Zm70.8,37.66a30.48,30.48,0,0,1-9.62,4.56,88.41,88.41,0,0,1-.46,25c17,9,20.75,18.6,15.22,36.91-11.15,36.92,13.16,56.17,36.65,43.75-21.83-6.55-18.88-18.22-13.81-39.09,8.47-34.87-3.17-54.47-28-71.15ZM45.6,167.72a27.7,27.7,0,0,0-5.05,50.09c6.67-9.94,14-19.58,23.42-27.31A75.35,75.35,0,0,1,45.6,167.72Zm127.94,25.95A55.15,55.15,0,0,1,146.9,208.8a20,20,0,0,0-.19,2.58,19.26,19.26,0,1,0,26.83-17.71Zm-93.08,7.6C75.9,225.54,86.23,243,99.9,250.14a31,31,0,0,0,28.88.19c5.74-2.84,11.46-7.63,16.57-14.8a31.77,31.77,0,0,1-11.19-24.15v-.58l0,0c-20.52,1.68-38.75-2.06-53.68-9.52Zm-13,3c-7.77,7.61-14.41,17.18-21,27.37-12.65,24.51-11.78,55.31,13.87,74.89,21.29,16.25,52.1,14.66,67.16,3.63,13.38-9.79,16.9-30.62,4.58-46.33,3,10.79-3.1,28.08-12.43,33.15-10.89,5.91-25.72,5-38-8.51-14.48-15.87-12.69-28.95-2.44-39.55-8.86-11.05-13.67-26.63-11.71-44.65ZM181,242.31c-7.9,29.32,11,62.12,53.18,64.16-21.47-11.38-34.69-33.83-31.45-55.72A69.36,69.36,0,0,1,181,242.31Z"/><path class="cls-2" d="M97.7,320.08c-13,0-27-3.77-38.25-12.38-28.54-21.79-25.54-55-14.3-76.76l.08-.13c7.26-11.24,13.65-20.24,21.2-27.64l3-2.93L69,204.41c-1.81,16.67,2.24,32.14,11.39,43.55l.83,1-.92.95c-11,11.36-10.19,23.63,2.47,37.5s26.92,13.24,36.22,8.2c8.43-4.58,14.56-21,11.69-31.44l-2-7.19,4.61,5.87A35.69,35.69,0,0,1,140.86,290a31.87,31.87,0,0,1-12.45,21.4C120.83,316.9,109.66,320.08,97.7,320.08Zm-49.91-87.7c-10.69,20.76-13.56,52.3,13.48,72.94,20.59,15.71,50.42,14.55,65.37,3.61a28.89,28.89,0,0,0,11.25-19.39A32.09,32.09,0,0,0,134.36,270c0,11-6,24-14,28.25-10.3,5.59-26.17,6.21-39.87-8.81-13.39-14.68-14.5-28.35-3.3-40.65-8.34-10.94-12.38-25.15-11.57-40.53C59.51,214.89,54,222.8,47.79,232.38Zm193.07,75.91-6.72-.33c-20.14-1-36.75-9.08-46.78-22.83a50.63,50.63,0,0,1-7.77-43.21l.51-1.89,1.69,1a68.14,68.14,0,0,0,21.26,8.27l1.41.27-.21,1.42c-3.11,21,9.21,42.8,30.67,54.17ZM182,244.59a47.52,47.52,0,0,0,7.77,38.77c8.38,11.5,21.71,18.84,38,21-18.55-12.31-29-32.56-26.67-52.44A70.6,70.6,0,0,1,182,244.59ZM302.23,280a24.82,24.82,0,0,1-16-5.68c-10.54-8.68-13.46-25.05-7.8-43.79,5.35-17.72,1.7-26.59-14.48-35.15l-.95-.5.17-1.06a86,86,0,0,0,.45-24.6l-.17-1.29,1.26-.35a28.73,28.73,0,0,0,9.15-4.33l.84-.6.86.58c13.69,9.2,22.28,18.54,27,29.39,5.24,12,5.76,26.19,1.59,43.36l-.08.32c-5,20.55-7.5,30.87,12.86,37l3.51,1.05L317.23,276A32.24,32.24,0,0,1,302.23,280ZM266.3,193.22c16.8,9.18,20.72,19.27,15,38.16-5.29,17.55-2.74,32.73,6.84,40.62,6.58,5.42,15.48,6.43,24.34,2.92-19.11-7.22-15.95-20.21-11.31-39.34l.08-.32c7.51-30.92-.17-51-26.52-69a31.5,31.5,0,0,1-8,3.81A89.15,89.15,0,0,1,266.3,193.22ZM114.43,255.3a32.7,32.7,0,0,1-15.23-3.83C86.73,244.94,74,227.79,79,201l.37-2,1.78.88c15.41,7.7,33.71,10.93,52.88,9.36l.68-.05.95.9,0,1.25a30.29,30.29,0,0,0,10.66,23l1.05.89-.8,1.12c-5,7-10.72,12.1-17.12,15.27A33.68,33.68,0,0,1,114.43,255.3ZM81.59,203.48c-3.77,24.08,7.74,39.43,19,45.33a29.61,29.61,0,0,0,27.53.17,43.27,43.27,0,0,0,15.22-13.24,33.26,33.26,0,0,1-10.67-23.35C114.25,213.65,96.68,210.59,81.59,203.48Zm131.07,37.08c-7.36,0-15.54-2.24-23.78-6.6l-1.7-.9,1.29-1.43a30.22,30.22,0,0,0-8.05-46.85l-1.33-.73.75-1.32a46.89,46.89,0,0,0,6.08-25.15A44.33,44.33,0,0,0,178,134.13l-.95-1.37,1.46-.81a55.32,55.32,0,0,1,12.15-4.9,51.22,51.22,0,0,1,13.21-1.75c.64,0,1.31,0,2,0a50.34,50.34,0,0,1,46.84,37.49c3.64,13.6,2.33,31.39-3.43,46.45-6.13,16-16.49,27.06-28.43,30.26A31.71,31.71,0,0,1,212.66,240.56ZM192,232.16c10.18,5,20.1,6.62,28.09,4.48,11-2.95,20.62-13.31,26.4-28.44,5.46-14.27,6.77-31.77,3.33-44.59a47.34,47.34,0,0,0-44.06-35.27c-.58,0-1.18,0-1.77,0h-.08A47.85,47.85,0,0,0,191.44,130a51.41,51.41,0,0,0-10,3.86,47.46,47.46,0,0,1,7.51,23.63,49.72,49.72,0,0,1-5.76,25.45A33.21,33.21,0,0,1,192,232.16Zm-26,0a20.69,20.69,0,0,1-20.75-20.76,22.26,22.26,0,0,1,.2-2.77l.14-1,1-.24a54,54,0,0,0,25.92-14.72l.72-.75.95.4A20.77,20.77,0,0,1,166,232.14ZM148.28,210a13.9,13.9,0,0,0-.07,1.39,17.76,17.76,0,1,0,25.67-15.91A57,57,0,0,1,148.28,210ZM41,219.82l-1.22-.72a29.71,29.71,0,0,1-5.88-4.56A29.2,29.2,0,0,1,45.12,166.3l1.22-.42.6,1.15a73.36,73.36,0,0,0,18,22.32l1.38,1.16-1.39,1.14c-9.87,8.13-17.24,18.21-23.14,27Zm3.89-50.24a26.21,26.21,0,0,0-4.78,46.19c5.61-8.27,12.51-17.52,21.55-25.29A76.32,76.32,0,0,1,44.89,169.58ZM124,200.16c-18.24,0-34.58-4.73-47.82-13.93-14.64-10.17-24.4-25.52-26.78-42.11C46.61,124.43,58.37,106,80.9,94.74l.67-.33,1.17.59.22.52a45.63,45.63,0,0,0,14.18,19.3c8.92,6.86,20.6,10,34.73,9.2,13.79-.73,24.91,2.52,33,9.67A34.1,34.1,0,0,1,176.38,158c.85,18.21-11,38.07-39.36,41.39A113.4,113.4,0,0,1,124,200.16Zm-43.21-102c-20.39,10.67-31,27.6-28.42,45.55,4,27.83,29.54,53.47,71.5,53.47a111.15,111.15,0,0,0,12.77-.75c26.45-3.09,37.5-21.45,36.72-38.27A31.1,31.1,0,0,0,162.94,136C155.41,129.33,145,126.32,132,127c-14.65.79-27.35-2.61-36.72-9.82A48,48,0,0,1,80.82,98.15Zm180.6,60.54-.46-1.4a59.77,59.77,0,0,0-18.51-27.37l-1.13-.94.93-1.15a19.14,19.14,0,0,1,13.53-7.06c.46,0,.92,0,1.38,0l.94,0a19.32,19.32,0,0,1,8.63,2.57,19.19,19.19,0,0,1-3.89,34.93Zm-15.88-30.06a62.66,62.66,0,0,1,17.78,26.26,16.21,16.21,0,0,0-6.16-31.17H257l-1,0A16.2,16.2,0,0,0,245.54,128.63Zm76.54,19.9-3.34-5.9c-14.57-25.68-27.28-33.27-45.32-27l-.67.23-.88-.55-.36-.22a28.28,28.28,0,0,0-9.92-3.47l-1-.16-.2-1a46.65,46.65,0,0,0-4.15-12.15l-.66-1.3,1.28-.69c8.23-4.47,16.22-6.74,23.76-6.74h.12c22.6.08,38.24,20.1,40.84,52.27Zm-37.72-37.94c14.81,0,24.95,11,33.39,24.5-4-26.4-17.8-42.52-37.06-42.59h-.11c-6.65,0-13.73,1.92-21.06,5.7a49.92,49.92,0,0,1,3.57,10.58,31.44,31.44,0,0,1,9.92,3.66l.12.07A35.94,35.94,0,0,1,284.36,110.59ZM19.83,148.1h-.59c-6.57-.23-12.71-4.37-17.29-11.65L0,133.33l3.56.85c14.85,3.51,17.35-5.93,21.11-20.23.61-2.31,1.25-4.71,2-7.16C34.06,81.46,50.46,69.05,79.8,66.54l2.13-.18-.55,2.06a46.76,46.76,0,0,0-1.32,15l.07,1-.93.43C55.81,95.68,41,114.55,39.61,135.3l0,.43-.26.35C33.64,143.86,26.74,148.1,19.83,148.1ZM6.55,137.76c3.7,4.65,8.08,7.17,12.8,7.33,6,.21,12.11-3.49,17.3-10.43C38.28,113.25,53.31,93.85,77,82.54a50.36,50.36,0,0,1,1-12.81c-26.63,2.79-41.61,14.54-48.47,37.9-.7,2.42-1.33,4.79-1.94,7.09C24.09,127.92,21.06,139.45,6.55,137.76Zm163.69-12.1-.82-.64c-9.77-7.7-22.94-11.34-38.06-10.54-12,.64-21.25-1.73-28.41-7.23-6-4.61-10.36-11.53-13-20.57l-.06-.31c-1.71-11.54.86-20.82,7.64-27.6,6.33-6.33,15.82-9.71,27.46-9.78a64.66,64.66,0,0,1,11.22.9c15,2.46,30.84,10.1,40.22,19.48a48.28,48.28,0,0,1,12.26,47.56l-.23.8-.81.23a65.69,65.69,0,0,0-16.52,7.16Zm-34.81-14.29c13.69,0,25.71,3.65,35,10.66A68.92,68.92,0,0,1,186,115.3a45.27,45.27,0,0,0-11.72-43.81c-9-9-24.11-16.28-38.59-18.64A63.93,63.93,0,0,0,125,52h0c-10.83.07-19.6,3.15-25.35,8.9-6.06,6-8.35,14.45-6.81,25v.06c2.5,8.49,6.4,14.69,11.93,19,6.56,5,15.2,7.22,26.42,6.62Q133.35,111.37,135.43,111.37Zm-45.53-25v0Zm3-.45v0Zm140.58,37.66-1.13-.61a60.59,60.59,0,0,0-26.16-7.19c-1.07,0-2.23,0-3.67,0h-.68l-2.51-2.75.11-.71a58.25,58.25,0,0,0-3.48-30.48l-.67-1.65,1.74-.37,1.28-.26a40.73,40.73,0,0,1,7.8-.66,52.46,52.46,0,0,1,24.48,6.34c10.53,5.79,17.46,14.5,20,25.19l.34,1.41-1.4.39a28.92,28.92,0,0,0-15.33,10.33Zm-29.3-10.84c.77,0,1.46,0,2.13,0a63.64,63.64,0,0,1,26.35,7,32,32,0,0,1,14.7-10c-2.63-9.22-8.9-16.77-18.21-21.89a49.31,49.31,0,0,0-23.06-6h0a39.63,39.63,0,0,0-6.7.52,61.18,61.18,0,0,1,3.12,29.64l.63.7ZM190.61,71.71,190,70.8a57.39,57.39,0,0,0-6.79-8.17c-1.21-1.21-2.47-2.37-3.75-3.47l-.61-.51.09-.78c1.2-11.67-1.13-22-6.39-28.5-13.79-16.88-41-20-56-20.42l-7.23-.19,6.7-2.7a81.18,81.18,0,0,1,29.41-6h1.91c21.82.24,42.51,9.9,55.34,25.86C213,38.64,216.94,53.78,213.87,68.51l-.28,1.33-1.35-.15a57.67,57.67,0,0,0-6.14-.34,51.89,51.89,0,0,0-9.53.83,42.82,42.82,0,0,0-4.91,1.2ZM182,57.39q1.71,1.5,3.33,3.12a61,61,0,0,1,6.52,7.69c1.39-.39,2.8-.71,4.2-1a58.86,58.86,0,0,1,10.08-.88c1.61,0,3.32.07,5.08.23,2.38-13.42-1.44-27.16-10.83-38.83-12.27-15.27-32.1-24.52-53-24.74h-1.84a76.72,76.72,0,0,0-21.27,3.34c15.91,1.28,38.22,5.93,50.63,21.12C180.5,34.38,183.08,45.25,182,57.39Z"/></g></g></svg>