<svg xmlns="http://www.w3.org/2000/svg" viewBox="0 0 390.28 462.8"><title>Nalfeshnee</title><g id="be53c8e6-6302-4811-849c-53e4c31b6904" data-name="Layer 2"><g id="b2487230-39b3-448f-a642-a7878ac65826" data-name="Layer 1"><path d="M134.48,64.34c-5.77,6.36-.58,17.92-.58,17.92-8.09,0-7.51,19.64-7.51,19.64C107.9,104.22,105,155.07,105,155.07l-15.6,37c-9.83,22,6.93,31.21,6.93,31.21-2.88-.36-10.14,4.36-12.5,7.91A29.88,29.88,0,0,0,79,250.54C76,253.88,62.9,268,54.73,265.45c0,0-15.6,13.3-11,16.76S61.09,307.06,58.2,311.1l-.57,13.3s-1.73-3.46-7.52-7.52c0,0-6.36-16.18-11.55-12.13,0,0-6.36,24.27,10.4,24.86,0,0,4,6.34-16.76,2.88,0,0,8.67,8.67,19.64,8.09l-8.67,4.62,3.48,5.21s-17.92,5.77-29.48-11c0,0-4,10.4,8.09,18.49,0,0-22.53-2.9-20.22-36.41,0,0-1.74-20.81,11-37.57,0,0-3.46-16.75,15-30.62,0,0,11-56.06,43.92-92.46,0,0-4.62-36.41,11-49.13l-12.72,6.36L77.85,106s-11,8.66-15.61,7.51l10.4-10.41s-6.62-.27-13.38-1.2a20,20,0,0,0-16,4.92c-7.18,6.44-17,15.42-17.41,16.51,0,0,2.89-24.85,9.82-31.21,0,0-24.84,2.32-30.62,21.39,0,0,.44-18.58,8.29-25.17L1.57,94.4S.41,65.5,21.22,66.07l-6.94-5.19S38.56,59.73,42,53.94H32.77S55.67,42.32,67.3,34.59A26.48,26.48,0,0,1,85,30.38l3.85.45S135.06-1,139.69,52.21l-12.15-6.94Z" style="fill:#2a2a1f"/><path d="M272.6,407s22.54,21.95,15.6,50.28L280.69,455s-4,20.81-39.87-7.5a71.45,71.45,0,0,1,.57-30.64s-15.6-1.15-15.6-20.22c0,0-1.73-25.43,7.51-29.47,0,0-8.67-9.83-23.11-2.32L197.47,355s-21.95-2.31-23.68,10.4L164.54,355s-23.7,1.16-40.46,19.65c0,0-8.09,9.83-26.58,13.87,0,0-.58,6.37-14.44,12.14l-5.21,11s26.58,37-2.31,44.48L65.14,451s-14.45,13.86-24.27-3.46c0,0-4.06-17.34,5.78-30.06,0,0-2.32-6.35,9.25-18.49,0,0-5.21-32.36,12.7-37,0,0,.56-83.1,10.45-110.68a31.72,31.72,0,0,0,6.09,15.38c64.16,86.25,104.24,9.2,104.24,9.2,5.78,15.6,25.43,24.26,25.43,24.26,35.94,18.53,46.94-20.45,50.2-50.79a15.8,15.8,0,0,0,5.85,4.56l-4.61,2.31s10.4,45.66,19.64,57.22L279,316.88s26,31.22,20.22,46.24c0,0-15,22-32.36,28.89C266.82,392,255.85,397.21,272.6,407Z" style="fill:#2a2a1f"/><path d="M389.33,129.07s-13.86,13.29-11.55,19.06L372,152.76s7.52,11.56,5.21,14.46l-9.82,10.4S372,190.9,366.22,195l-18.89,5.71c1.25-.49,8.39-3.77,7.34-13.8,0,0-9.25-.57-10.41-5.2,0,0,6.93,5.2,5.78-9.83L342,174.14s-8.09,28.32-39.87,28.32l-7.52,2.89s3.47-5.78.58-6.93-8.09.57-8.09.57-9.83-24.85-39.87-23.11c0,0-5.21,4.62-5.79-27.16s-12.13-32.36-12.13-32.36c6.35-8.67-8.67-27.16-8.67-27.16-8.09-9.83,30-12.71,30-12.71C241.39,72.43,215.39,73,215.39,73l-9.83-16.18C188.8,48.16,176.09,75.9,176.09,75.9c2.8-11.18-15-23.45-16.12-24.22l5.72-4.1-3.47-10.4,8.09,5.21s8.67-6.94,4.63-24.28L181.87,21s.58-16.75-1.74-19.07l2.32,2.32S208.45,22.74,205,36c0,0,6.36-.58,5.78-11,0,0,6.93,23.69-3.47,26.58,0,0-.58,6.94,9.82,4.62l-3.46,8.67,3.78,4.54a3.35,3.35,0,0,0,4.53.59l5.55-4s-12.13-48.53,28.33-38.71c0,0-1.75,13.87,20.8,14.45,0,0-5.79,6.93,20.22,6.35,0,0-28.31,13.3,15,12.14l-11,3.47s0,3.47,9.83,3.47c0,0-9.83,7.5,17.33,5.77,0,0-8.09,8.09-23.69,8.09,0,0,3.46,8.1,17.91,9.83,0,0-14.45,8.67-27.74,2.31,0,0,3.47,8.09,15,12.14,0,0-25.43,3.46-34.67.58,0,0-3.48,10.4,9.82,11,0,0,1.15-7.51,18.49-3.46,0,0,26.59,1.15,28.89-31.21,0,0,15.61-13.29,20.8,7.51,0,0-9.24,22-2.3,27.16s2.3,5.21,20.8-2.31C371.42,114.62,393.38,110.57,389.33,129.07Z" style="fill:#2a2a1f"/><path d="M126.4,102.48l-.17-.54c-18.35,2.6-21.21,53.13-21.21,53.13l-15.61,37c-9.82,22,6.94,31.21,6.94,31.21-2.89-.36-10.14,4.36-12.51,7.91A29.94,29.94,0,0,0,79,250.54c.35-.38.55-.62.6-.68-.17.46-.35.93-.52,1.42a31.8,31.8,0,0,0,6.08,15.38c64.16,86.25,104.25,9.2,104.25,9.2,5.78,15.59,25.43,24.26,25.43,24.26,35.94,18.53,46.94-20.45,50.2-50.79-8.34-9.66-13.8-29.54-13.8-29.54,6.69-8.36-3.29-41.45-4-43.78l0-.07,0-.06s-5.2,4.62-5.78-27.16c-.5-27.5-9.21-31.64-11.55-32.25Z" style="fill:#a79083"/><path d="M230.4,115.22c3.74-14.59-9.8-26-9.8-26-8.09-9.83,30.05-12.71,30.05-12.71C241.4,72.43,215.39,73,215.39,73l-9.82-16.18C188.81,48.16,176.1,75.9,176.1,75.9c2.8-11.18-15-23.45-16.13-24.22l-10.45,7.47-9.83-6.94-12.14-6.94,6.94,19.07c-5.42,6-1.17,16.55-.64,17.79l.06.13h0c-8.06,0-7.48,19.64-7.48,19.64l-.17,0,.17.54s-8.1,12.72,9.82,37c0,0,5.78,24.84-2.31,26.57,0,0-9.25,1.17-9.82,5.78s-2.9,11.56,12.13,15,13.86-6.36,30.05,12.13c0,0,18.49,8.67,18.49-6.36L183,183.39s9.68-.12,15.06-17.49c2.47-8,8.4-14.37,13.34-21.09C211.43,144.81,228.12,124.11,230.4,115.22ZM158.81,84.74a2.14,2.14,0,0,1,2.5-1.55c5.85,1.23,8.1,8.37,8.1,8.37-1.57,3.14-3.74,4.28-8.71,2.75C157.05,93.18,158,87.62,158.81,84.74Zm23.65,69.18-13.3,6.36L168,154.49l-5.21,5.21-2.88-8.09-7.52,4.62-1.73-8.1-5.21,2.9s-5.19-20.81,1.75-24.85l3.46,9.82,5.78-6.36,5.2,9.25,4-4,2.89,8.09,9.82-6.94-.58,9.83,10.4-8.1Zm11-52.59c-5.21,0-6.94-1.73-7.52-5.2,0,0,4.26-6.15,10.21-5.61a2.15,2.15,0,0,1,1.93,2.23C198,95.73,197.25,101.33,193.44,101.33Z" style="fill:#896f62"/><path d="M175.06,158.9c2.57-2.67,6.83-4.23,13.75-.36,0,0,9.24,19.07,30.62-17.91,0,0-4.85,63.7-43.79,29.36A7.7,7.7,0,0,1,175.06,158.9Z" style="fill:#7f5b17"/><path d="M196.13,181.15c-6.21,0-13.29-3.48-21.15-10.41a8.93,8.93,0,0,1-3-6.28,8.45,8.45,0,0,1,2.35-6.25h0c2.54-2.65,7.2-4.89,15-.54l.28.15.14.29c.08.17,2.11,4.2,6.39,4.34s11.65-3.61,22.47-22.32l2.2-3.8-.34,4.37c-.1,1.34-2.68,32.9-18.49,39.33A15.45,15.45,0,0,1,196.13,181.15Zm-20.35-21.56a6.44,6.44,0,0,0-1.8,4.78,6.92,6.92,0,0,0,2.32,4.87c9.81,8.65,18.18,11.65,24.88,8.93,11.23-4.56,15.36-24,16.7-33-8,12.81-15.22,19.29-21.54,19.29H196c-4.79-.17-7.31-4-7.95-5.18-5.21-2.84-9.35-2.73-12.28.32Z" style="fill:#fff"/><path d="M138.53,140.63s10.3,5.34,4.86,12.3A11,11,0,0,1,131,156.29c-12.29-4.35-37.24-18.08-4.61-52.07C126.39,104.22,110.21,138.89,138.53,140.63Z" style="fill:#7f5b17"/><path d="M134.91,158a12.92,12.92,0,0,1-4.25-.73c-6.68-2.37-18.29-8-20.88-18.85-2.31-9.74,3-21.46,15.89-34.85l4.18-4.35-2.55,5.46c-.08.18-8.31,18.11-2.32,28.18,2.45,4.12,7,6.41,13.61,6.81h.21l.19.1c.24.12,5.83,3.07,6.83,7.67a7.19,7.19,0,0,1-1.64,6.14A11.69,11.69,0,0,1,134.91,158Zm-11.4-49.11c-9.74,11.21-13.7,21-11.78,29.07,2.36,10,13.3,15.19,19.6,17.42a10,10,0,0,0,11.28-3,5.28,5.28,0,0,0,1.26-4.49c-.72-3.29-4.74-5.72-5.63-6.22-7.16-.48-12.2-3.1-15-7.77C118.76,126.27,121.35,115.24,123.51,108.85Z" style="fill:#fff"/><path d="M173.2,192.64s1.74-6.94,9.25-2.89c0,0,3.47,16.76,16.18,14.45C198.63,204.2,181.29,217.49,173.2,192.64Z" style="fill:#7f5b17"/><path d="M188.43,208.75a13.19,13.19,0,0,1-4-.59c-5.37-1.66-9.48-6.78-12.23-15.21l-.09-.28.07-.27a7.09,7.09,0,0,1,3.6-4.44c2-.87,4.36-.56,7.09.91l.41.22.1.46c.13.64,3.41,15.77,15,13.66l4.07-.74L199.24,205A19.73,19.73,0,0,1,188.43,208.75Zm-14.18-16.12c2.53,7.6,6.17,12.18,10.83,13.62a13.8,13.8,0,0,0,9.57-.94c-9.08-1.21-12.44-12.42-13.07-14.88-2-1-3.64-1.21-4.94-.64A5,5,0,0,0,174.25,192.63Z" style="fill:#fff"/><path d="M133.07,173.67c2.28,3.37,3.43,7.93-4.37,10.3,0,0-20.8,1.16-16.18-11,0,0,7.65,7.65,14.21.32A4,4,0,0,1,133.07,173.67Z" style="fill:#7f5b17"/><path d="M127.24,185c-3.48,0-11.95-.47-15.13-4.83-1.48-2-1.66-4.56-.52-7.54l.55-1.43,1.09,1.08s3.27,3.21,7.08,3.21h.2a7.61,7.61,0,0,0,5.48-2.84,5.06,5.06,0,0,1,4.14-1.69,4.93,4.93,0,0,1,3.76,2.16c1.76,2.58,2.28,4.92,1.57,6.94s-2.94,3.8-6.46,4.88l-.24,0C128.66,185,128.1,185,127.24,185ZM113,174.73a5,5,0,0,0,.69,4.26c3.15,4.31,13.59,4,14.81,4,2.82-.88,4.51-2.09,5.05-3.6s0-3.12-1.34-5.14h0A2.92,2.92,0,0,0,130,173a3,3,0,0,0-2.51,1,9.53,9.53,0,0,1-6.93,3.5A12.56,12.56,0,0,1,113,174.73Z" style="fill:#fff"/><path d="M203.21,111.87a3.88,3.88,0,0,1,.93-7.31c6-1.17,14.1-4,15.87-10.74C220,93.82,212.14,115.87,203.21,111.87Z" style="fill:#7f5b17"/><path d="M205.41,113.35a6.4,6.4,0,0,1-2.61-.57h0a4.72,4.72,0,0,1-2.77-4.93,4.82,4.82,0,0,1,3.92-4.27c5.28-1,11.71-3.24,14.28-8,.53-1.28.83-2.1.84-2.14l1.91.59a11.52,11.52,0,0,1-.92,2.38c-1.85,4.44-6.35,13.93-12,16.32A6.72,6.72,0,0,1,205.41,113.35Zm-1.79-2.4a4.36,4.36,0,0,0,3.7,0c3.2-1.36,6.12-5.66,8.24-9.65a30.76,30.76,0,0,1-11.23,4.26,2.86,2.86,0,0,0-2.31,2.54,2.71,2.71,0,0,0,1.6,2.87Z" style="fill:#fff"/><path d="M151,99.13a4.71,4.71,0,0,1-4.24,3.11,6.16,6.16,0,0,1-5.5-3.17c-3.24-5.51-10.76-19.48-6.15-23.17,0,0,5.26,13.75,12.39,15.88A5.43,5.43,0,0,1,151,99.13Z" style="fill:#7f5b17"/><path d="M146.45,103.24a7.16,7.16,0,0,1-6.11-3.66c-4.35-7.42-10.91-20.45-5.9-24.46l1.07-.85.49,1.28c.05.13,5.16,13.31,11.74,15.27a6.55,6.55,0,0,1,4.07,3.53,6.35,6.35,0,0,1,.06,5.19h0a5.71,5.71,0,0,1-5.12,3.7ZM134.84,78c-1.09,3.32,1.52,10.87,7.23,20.6a5.2,5.2,0,0,0,4.59,2.67A3.72,3.72,0,0,0,150,98.73h0a4.25,4.25,0,0,0,0-3.54,4.53,4.53,0,0,0-2.83-2.45C141.15,90.94,136.55,81.83,134.84,78Z" style="fill:#fff"/><path d="M270,462.8c-7.43,0-17.59-5.05-30.31-15.1l-.27-.22-.08-.33a71.88,71.88,0,0,1,.32-30c-3.75-.74-15.37-4.38-15.37-21-.07-1-1.53-23.89,6.85-29.69-2.48-2.13-9.88-7-21-1.21l-.57.3-13-10c-2.48-.2-20.84-1.31-22.32,9.57l-.3,2.15-10.36-11.66c-3.38.3-24.3,2.75-39.29,19.29-.31.37-8.31,9.89-26.49,14-.58,1.93-3.17,7.24-14.54,12.07L78.45,411c2.3,3.32,14.63,22.08,10,35-1.9,5.24-6.33,8.8-13.18,10.58l-.37.09-10.13-5.06c-1.74,1.49-7.49,5.86-13.95,4.92-4.48-.65-8.3-3.71-11.35-9.09l-.1-.27c-.17-.72-4-17.61,5.67-30.51-.33-1.88-.45-8.25,9.27-18.59-.61-4.24-3.94-32.27,12.78-37.41.07-8.58,1-78.47,9.47-107.15-5.06,5.22-14.94,14.13-22.1,12.5-4.5,3.9-11.18,10.84-11.09,13.93a1.11,1.11,0,0,0,.46.92c4.23,3.17,17.73,24.51,14.84,30l-.74,16.89-1.72-3.45S54.44,321,49,317.13l-.24-.17-.11-.29c-1.2-3.05-5-11.17-8.35-12.07a1.69,1.69,0,0,0-1.4.18c-.5,2.14-2.85,13.51,1.62,19.51,1.76,2.35,4.43,3.61,7.94,3.73l.52,0,.28.44a3,3,0,0,1,0,3.23c-1.46,2.21-6.12,2.78-14.21,1.72,3.3,2.43,9.33,5.94,16.2,5.57l4.49-.23L44.07,345l3.58,5.38-1.25.41c-.18.06-17.46,5.41-29.32-9.62-.46,3.21-.15,9.79,8.18,15.35l3.55,2.36-4.23-.54c-.23,0-23.41-3.4-21.1-37.39-.12-1.62-1.34-21.38,10.93-37.84-.39-2.85-1.57-18.18,15.17-30.93,1.05-5,12.68-57.59,43.78-92.23-.46-4-3.08-31.09,7.45-45.38l-10,5,4.32-11.34c-3.71,2.6-10.11,6.55-13.7,5.65l-1.71-.43,10.07-10.07c-2.54-.16-6.88-.49-11.24-1.09A18.86,18.86,0,0,0,43.37,107c-15.12,13.54-17,15.79-17.17,16.16l-3.06,9.2,1.15-9.71c.11-.94,2.53-21.18,8.35-29.7-6.38,1.2-22.77,5.65-27.2,20.28l-2.13,7,.17-7.34c0-.75.41-13.84,5.38-22L.08,95.43,0,93.86c0-.66-.55-16.16,7.6-24.41a16.35,16.35,0,0,1,10.19-4.84L10.9,59.43l2.78-.13C19.46,59,33.75,57.63,39,54.37H28l3.73-1.9c.23-.11,23-11.68,34.42-19.29a27.49,27.49,0,0,1,18.35-4.37l3.48.4c2.82-1.86,22.41-14.23,37-7.33,8.56,4,13.61,13.86,15,29.2L149,57.34l15-10.72-4.13-12.39,9.83,6.32c1.74-1.79,7.07-8.62,3.76-22.79l-.45-1.9,7.4,3.08c.18-7.63-.3-15.7-1.48-16.88l-.65-.65L179.64,0l2.9,2.9c1.74,1.24,24.4,17.75,23.16,31.08,1.56-.84,3.86-3.15,3.51-9.45l-.48-8.68,2.44,8.34c.2.67,4.74,16.44.51,24a7.52,7.52,0,0,1-3.91,3.53A3.65,3.65,0,0,0,209,54.05c1.39,1.19,3.94,1.41,7.39.65l1.85-.41-3.95,9.87,3.4,4.08a2.36,2.36,0,0,0,3.19.41l5-3.57c-.92-4.1-5-25.11,5.06-35.26,5.31-5.34,13.59-6.69,24.63-4l.86.21-.11.89a10.48,10.48,0,0,0,2.61,7.4c3.23,3.72,9,5.71,17.23,5.92l2.06.05-1.32,1.59a1.42,1.42,0,0,0-.19,1.44c.56,1.1,3.58,3.65,19.63,3.28l4.72-.11-4.28,2c-3.68,1.73-8.93,5.18-8.48,7.06.21.88,2.5,3.72,23.06,3.17l7.11-.19L301.75,63.8c.82.79,3.11,1.86,8.44,1.86h2.95l-2.34,1.79c-.52.4-1.56,1.49-1.3,2.16.18.48,1.9,2.86,18,1.83l2.65-.17-1.88,1.87c-.33.33-8,7.78-22.62,8.35,1.7,2.26,6.22,6.66,16.26,7.87l2.9.35-2.51,1.5c-.56.34-13.11,7.72-25.82,3.51a26.74,26.74,0,0,0,12.92,9.13l3.93,1.38-4.12.56c-1,.14-24.06,3.23-34.07.82A7.41,7.41,0,0,0,276,112c1.31,1.9,3.81,3,7.44,3.28a6.27,6.27,0,0,1,2.35-2.7c3.4-2.3,9.11-2.54,17-.72,1.89,0,25.59.09,27.76-30.28l0-.42.32-.27c.29-.25,7.23-6.07,13.77-4,4.08,1.31,7,5.35,8.65,12l.09.33-.13.3c-2.49,5.91-7.81,22.1-2.64,26,1,.76,1.81,1.42,2.43,2,2.38,2,2.38,2,8.91-.81,2.16-.94,4.86-2.11,8.49-3.58l.2-.06c.46-.09,11.42-2,16.78,3.51,2.67,2.77,3.45,6.85,2.29,12.14l-.07.29-.21.21c-5.18,5-12.83,14.23-11.33,18l.28.69-5.66,4.52c2.21,3.52,7,11.9,4.66,14.86l-9.47,10c.85,2.72,3.94,13.94-1.72,17.9l-.28.14-19.07,5.78-.61-1.91c.31-.1,7.48-2.66,6.9-12-2.46-.29-9.34-1.47-10.44-5.88l-.69-2.73,2.26,1.69s1.52,1.08,2.57.49c.64-.35,2-1.85,1.69-8.21l-6.39,1.82c-1.36,4-10.91,28.4-40.47,28.5l-10,3.87,1.49-2.49c.85-1.42,1.88-3.93,1.51-5a.69.69,0,0,0-.45-.46c-2.08-.84-6,.15-7.4.6l-.9.29-.34-.87c-.39-1-9.65-23.47-37.62-22.55,1.88,6.36,9.74,34.5,3.81,43.18,1.09,3.74,8.73,28.89,18.93,33l2.06.83-5.91,3c1.41,6,10.93,45.61,19.28,56.05l.77,1L280,316.64c4.44,5.53,25,32.21,19.59,46.26l-.1.2c-.62.91-15.4,22.3-32.82,29.26h0s-2.8,1.39-2.9,3.85c-.08,1.88,1.39,5,8.81,9.39l.2.14c.23.23,22.86,22.69,15.87,51.24l-.25,1-7.56-2.32a10.47,10.47,0,0,1-6.23,6.35A13.42,13.42,0,0,1,270,462.8Zm-28.79-16.45c18.48,14.54,28,15.54,32.69,13.81a8.49,8.49,0,0,0,5.31-5.93l.22-1.08,7.54,2.32c5.75-26.11-14-46.75-15.49-48.21-6.58-3.88-9.84-7.63-9.69-11.15.16-3.67,3.94-5.5,4.1-5.58,16.34-6.54,30.8-26.88,31.9-28.46,5.33-14.35-19.85-44.81-20.1-45.12l-.81-1,7-3.5c-9.07-12.92-18.69-54.81-19.1-56.63l-.18-.76,3.56-1.79c-10.86-6.76-18.08-32.65-18.4-33.81l-.13-.49.31-.4c5.42-6.77-1.21-33.34-4.22-43l-.38-1.22,1.28-.08c27.27-1.59,38.38,18.51,40.49,22.91,1.69-.46,5.44-1.29,7.91-.3a2.65,2.65,0,0,1,1.59,1.68,6.79,6.79,0,0,1-.53,4.34l5.31-2.05h.19c30.67,0,38.84-27.31,38.91-27.59l.16-.53,9.8-2.8.09,1.22c.49,6.39-.37,10.1-2.64,11.35a3.54,3.54,0,0,1-1.56.42c2.25,1.6,6.15,2.22,7.89,2.33l.84.06.09.84c.57,5.4-1.13,9-3.12,11.3l13.24-4c4.06-3.06,1.86-12.63.66-16.1l-.2-.57L375.92,166c1.09-1.38-1.89-7.95-5.31-13.22l-.5-.76,6-4.77c-1.27-6.16,9.65-17.14,11.79-19.21.91-4.45.3-7.82-1.84-10-4.37-4.53-13.83-3.13-14.89-3-3.56,1.45-6.21,2.6-8.35,3.52-7.08,3.07-7.66,3.32-11,.51-.6-.51-1.36-1.15-2.34-1.88-7.09-5.32.45-24.61,1.86-28-1.49-5.75-3.92-9.2-7.23-10.26-4.78-1.53-10.2,2.29-11.55,3.33-2.57,32.51-29.65,31.72-29.91,31.7l-.18,0c-9.06-2.11-13.38-1-15.42.35a4,4,0,0,0-1.86,2.31l-.16.86-.87,0c-4.7-.2-8-1.61-9.76-4.19-2.44-3.56-1-7.92-1-8.1l.31-.93.94.29c6.82,2.13,23.08.66,30.47-.16-9-4.35-11.91-10.89-12-11.2l-1-2.45,2.4,1.15c9.3,4.45,19.36,1.16,24.07-.91-12.26-2.47-15.46-9.6-15.6-9.93l-.59-1.39h1.51a36.42,36.42,0,0,0,20.59-5.93c-13.65.58-16.15-1.57-16.8-3.29a3.07,3.07,0,0,1,.39-2.72c-8.39-.51-8.65-4-8.65-4.4v-.73l5.3-1.68C289.34,60.61,286.79,58,286.31,56c-.65-2.72,2.95-5.55,6-7.39-10.31-.09-16-1.55-17.43-4.46a3.24,3.24,0,0,1-.26-2c-8.05-.42-13.85-2.64-17.25-6.59a12.5,12.5,0,0,1-3.09-8c-9.91-2.26-17.29-1-21.94,3.66-10.18,10.25-4.44,33.79-4.38,34l.17.66L222,70.28a4.37,4.37,0,0,1-5.88-.76l-4.17-5L215,57c-3.26.46-5.72,0-7.34-1.44A5.79,5.79,0,0,1,205.75,51l.06-.69.67-.19a5.55,5.55,0,0,0,3.46-2.83c2.31-4.16,1.59-11.49.64-16.66-1.68,5.37-6,5.84-6.06,5.85l-1.41.13.36-1.38c3-11.58-18.41-27.95-21.73-30.41.87,5.28.65,13.57.58,15.67l0,1.44-6.51-2.71c3.12,16.38-5,23.11-5.38,23.4l-.56.45L163.52,39l2.8,8.41L149,59.79l-10.78-7.61,0-.46c-1.3-14.84-6-24.27-13.93-28-14.42-6.81-35.16,7.23-35.37,7.37l-.31.22-4.22-.49a25.45,25.45,0,0,0-17,4.05c-8.75,5.81-24,13.89-31,17.52h6.89l-.91,1.51c-3,5.06-19.1,6.75-25.82,7.25l7.28,5.46-3.14-.09A14.93,14.93,0,0,0,9.05,70.85C3,77,2.11,88.05,2,92.17l10.22-5.3a10.4,10.4,0,0,1,4.13-2.11l8.28-2.07L13.32,88.56C8.7,92.5,6.79,101.09,6,106.94c8.52-14.35,28.78-16.41,29-16.43l3-.27-2.19,2c-5.13,4.7-8,20.48-9.06,27.35,2.23-2.23,6.62-6.35,15.31-14.13a20.82,20.82,0,0,1,16.8-5.17c6.64.91,13.23,1.19,13.3,1.2l2.27.09L64.24,111.76c3.63-1,9.16-4.58,12.44-7.17l2.84-2.24-5,13.12L93,106.21l-7,5.72c-15,12.21-10.67,47.86-10.62,48.22l.06.46-.31.34c-32.37,35.77-43.57,91.42-43.68,92l-.08.38-.3.23c-17.73,13.29-14.78,29-14.65,29.63l.09.44-.27.36C3.94,300.22,5.46,320.64,5.48,320.85V321c-1.57,22.78,8.38,31,14.61,33.85-7.6-7.77-4.44-16.27-4.4-16.37l.68-1.76,1.07,1.56a25.68,25.68,0,0,0,27,10.92l-3.29-4.94,6.37-3.39c-9.41-1.15-16.29-7.93-16.61-8.25l-2.21-2.21,3.08.51c13,2.17,15.34.32,15.77-.3a.88.88,0,0,0,.13-.63,11.48,11.48,0,0,1-8.82-4.51c-5.49-7.38-2-21-1.86-21.56l.09-.33.27-.21a3.73,3.73,0,0,1,3.42-.71c4.6,1.26,8.73,10.91,9.57,13a31.76,31.76,0,0,1,5.82,5.22l.46-10.69.17-.24c2.19-3.06-9.27-23.79-14.23-27.52A3.07,3.07,0,0,1,41.35,280c-.17-5.18,10.92-14.78,12.18-15.86l.42-.35.53.16c7.07,2.2,19.56-10.29,23.79-15.29l4-4.73L80,249.64c-10.22,25.54-10.9,110.89-10.91,111.75v.77l-.74.19c-16.83,4.34-12,35.55-12,35.86l.08.49-.34.36c-10.85,11.39-9,17.42-9,17.48l.17.5-.32.43c-9,11.62-6,27.46-5.62,29.08,2.71,4.73,6,7.41,9.81,8,6.61,1,12.76-4.8,12.82-4.86l.51-.49,10.69,5.35c6-1.64,9.82-4.74,11.44-9.23,4.67-12.92-9.9-33.42-10-33.62l-.35-.48,5.62-11.86.35-.15c13-5.41,13.83-11.26,13.84-11.32l.09-.7.69-.17c17.89-3.91,26-13.43,26-13.53,16.87-18.62,40.93-20,41.17-20l.48,0,8.27,9.3c3.63-11.31,23.46-9.37,24.35-9.27l.28,0,12.44,9.62c14.62-7.24,23.66,2.72,23.75,2.82l.91,1-1.26.55c-7.06,3.09-7.38,21.61-6.91,28.49,0,18,14.08,19.25,14.67,19.3l1.19.09-.29,1.15A71.42,71.42,0,0,0,241.16,446.35Z" style="fill:#fff"/></g></g></svg>