<svg xmlns="http://www.w3.org/2000/svg" viewBox="0 0 215.9 294.23"><title>Needle-Blight</title><g id="a5ac6cf7-97cc-40e4-9ddf-1875aa8f1063" data-name="Layer 2"><g id="a02e844c-32dd-4bbf-a493-49e8de0607a8" data-name="Layer 1"><path d="M201,235.8l6.46-17.05-12.36,12.52a107.29,107.29,0,0,0-16.38-9.55l9.07-15L170,215.59c-1.43-4.55-4-13.79-3.27-20.8,5.51-12.59,11.5-27.75,10.61-32.63,0,0,12.85-25.68,12-55.39l-9.65,10.42s1.61-55.36-3.2-65.81l-1.61,12s-8.84-39.33-20.87-41.76l-4.81,9.64-24.9-19.26.8,6.41L89.06,0l2.41,21.67L53.74,4.83l1.62,32.9-12-9.62L41.71,60.2l-8-7.22,2.83,48.18L23.25,94.72l4.81,20.87L0,106c.89,1.18,29.76,38.53,36.1,39.31S57,185.43,57,185.43a.08.08,0,0,0,0,0c.14.54,1.6,6.11.87,15.23L44.12,190.24,54.66,217l5.92,15-8-9.19-10.5-12.1,1.23,30.21.38,9.15-4.86-2.57L16.43,235.61l15.64,20.52c-2.43,2.87-5.12,5.8-8,8.77,0,0,81.07,73.85,191.85-12.83C215.9,252.07,211.56,244.57,201,235.8ZM86,129.1c-5.77-6.46-9.71-15.56-11.9-23.89,11.57-.23,27.26,5.59,30.2,18.4,1.23,5.23-3.06,10.3-8.23,10.87C92,134.9,88.52,132,86,129.1Zm61,57.58c-11.2.18-32.82,4.3-44.88,8.46a5.8,5.8,0,0,1-7.4-3.15l-.18-.44a5.36,5.36,0,0,1,2.21-6.4c9.12-5.84,18.48-13.46,52.42-13.47,2.24,0,3.44,2.78,3.45,4.94l0,4.54A5.6,5.6,0,0,1,147,186.68Zm17.65-73.32c-.81,4.81-2.51,10.44-6.36,13.75-3.52,3-10.57,4.27-14.11.44a1.8,1.8,0,0,0-.19-.21c-3.71-4.47-.17-13.51,2.15-17.88,4.27-8,13.14-12.56,19.08-14.74C165.22,94.71,164.85,112,164.62,113.36Z" style="fill:#a78350"/><path d="M91.46,3.47l32.82,16.77L127.64,22l-.47-3.74-.2-1.64L148.06,32.9,150,34.39l1.09-2.18,4-8.07C162.48,28,169.9,50,173,63.87l2.46,10.92L176.91,64c1.46,15.87,1.2,41.78.87,53.17l-.16,5.33,3.62-3.92,6.19-6.68c-.66,26.69-11.73,49.16-11.85,49.4l-.3.6.12.65c.3,1.61-.13,7.88-10.47,31.47l-.13.3,0,.31c-.71,7.29,1.8,16.66,3.36,21.6l.71,2.23,2.09-1.05,11.6-5.8-5.5,9.11-1.15,1.9,2,.94A106.53,106.53,0,0,1,194,232.9l1.38,1,1.2-1.21,5.71-5.78-3.11,8.19-.5,1.34,1.09.91a74.84,74.84,0,0,1,13.48,14.28c-34.92,26.95-70.39,40.61-105.44,40.61a134.37,134.37,0,0,1-60.15-14.38A117.68,117.68,0,0,1,27,264.75c2.45-2.56,4.63-5,6.62-7.33l1-1.23-1-1.27L23.55,241.65l14.37,7.62,4.86,2.57,3.08,1.62L45.72,250l-.38-9.15-1-24.5,6.76,7.78,8,9.2,7.64,8.82-4.27-10.87-5.92-15-7.91-20,8,6.13,2.92,2.21.29-3.65A50.35,50.35,0,0,0,59,185.14v-.06l0-.14-.13-.49-.08-.08c-.71-1.91-4-10.73-7.94-19.51-8.19-18.42-11.88-21.23-14.42-21.54-.56-.09-4.08-1.41-18.9-18.91-4.51-5.33-8.76-10.61-11.72-14.34l21.68,7.41,3.41,1.17L30,115.14,26.14,98.35,35.63,103l3.07,1.49L38.5,101,36,57.72l4.43,4,3.12,2.8.21-4.19,1.41-28.19,9,7.18,3.46,2.77-.22-4.43L55.9,8,90.65,23.5l3.19,1.42-.38-3.47-2-18M89.06,0l2.41,21.67L53.74,4.83l1.63,32.9-12-9.62L41.71,60.2l-8-7.22,2.83,48.18L23.25,94.72l4.81,20.87L0,106c.9,1.18,29.76,38.53,36.1,39.31S57,185.43,57,185.43a.08.08,0,0,0,0,0c.14.54,1.61,6.11.88,15.23L44.12,190.25,54.66,217l5.92,15-8-9.2-10.5-12.1,1.23,30.21.38,9.15-4.86-2.57L16.44,235.61l15.63,20.52c-2.43,2.87-5.12,5.8-8,8.77,0,0,32.2,29.33,83.73,29.33,30.25,0,67.15-10.1,108.12-42.16,0,0-4.34-7.5-14.88-16.27l6.46-17.05-12.35,12.52a107.92,107.92,0,0,0-16.39-9.55l9.08-15L170,215.59c-1.44-4.55-4-13.79-3.28-20.79,5.52-12.6,11.51-27.76,10.61-32.64,0,0,12.85-25.68,12-55.39l-9.64,10.42s1.6-55.36-3.21-65.81l-1.6,12S166.12,24.1,154.1,21.67l-4.81,9.64-24.9-19.26.8,6.41L89.06,0Z" style="fill:#fff"/><path d="M74.77,105.21c11.5,0,26.63,5.84,29.53,18.4,1.22,5.23-3.07,10.3-8.23,10.87a7.26,7.26,0,0,1-.8,0c-3.75,0-6.91-2.75-9.27-5.42-5.78-6.46-9.72-15.56-11.91-23.89h.68m0-2h-.72l-2.54,0,.64,2.45c1.53,5.77,5.15,16.66,12.36,24.71,3.61,4.1,7.14,6.09,10.76,6.09.33,0,.67,0,1-.05a11.85,11.85,0,0,0,8.23-4.91,10.31,10.31,0,0,0,1.74-8.41c-3-13.09-18.11-19.94-31.47-19.94Z" style="fill:#fff"/><path d="M149.14,171.69c2.25,0,3.44,2.78,3.45,4.93l0,4.55a5.59,5.59,0,0,1-5.66,5.51c-11.2.18-32.82,4.3-44.88,8.46a6.19,6.19,0,0,1-2.06.35,5.63,5.63,0,0,1-5.34-3.5l-.17-.44a5.34,5.34,0,0,1,2.2-6.4c9.13-5.84,18.48-13.45,52.42-13.46h0m0-2h0c-32.35,0-43.1,7-51.74,12.64-.59.39-1.17.77-1.76,1.14a7.32,7.32,0,0,0-3,8.77l.19.48a7.58,7.58,0,0,0,7.2,4.77,8.12,8.12,0,0,0,2.71-.46c12-4.11,33.46-8.18,44.27-8.35a7.62,7.62,0,0,0,7.62-7.53l0-4.54c0-3.4-2.06-6.92-5.45-6.92Z" style="fill:#fff"/><path d="M163.36,97.58c-.05,1.65-.16,4.13-.36,7.43,0,.73-.07,1.25-.07,1.42-.29,9.73-2.24,16-6,19.16a10,10,0,0,1-6.08,2.33l-.82,0c-2.29,0-3.81-.67-4.64-2-2.12-3.52.16-11.19,2.45-15.51,3.57-6.74,10.47-10.71,15.48-12.82m1.83-2.86c-7.57,2.68-15.22,7.47-19.08,14.74-3.39,6.4-7.33,20.49,4,20.49l.94,0a12,12,0,0,0,7.26-2.81c5.36-4.57,6.45-13.74,6.65-20.62,0-.9.77-11.63.27-11.77Z" style="fill:#fff"/></g></g></svg>