<svg xmlns="http://www.w3.org/2000/svg" viewBox="0 0 239.79 308.52"><defs><style>.cls-1,.cls-2{fill:#df0b13;}.cls-1{stroke:#fff;stroke-miterlimit:10;stroke-width:3px;}</style></defs><title>Nothic</title><g id="Layer_2" data-name="Layer 2"><g id="Layer_1-2" data-name="Layer 1"><path class="cls-1" d="M117,44.54a63.18,63.18,0,1,0,63.19,63.17A63.17,63.17,0,0,0,117,44.54Zm1,103.66a17.31,17.31,0,1,1,17.32-17.32A17.32,17.32,0,0,1,118,148.2Zm87.82-24.53c8.59-39.68,1.87-81.62-34.63-104.48-17.7-11.09-38.82-18-60-17.68C88,1.88,68,11.81,49.74,25.34,35.64,35.77,24.49,49.72,19.53,66.72c-7.72,26.48.92,54.46,13.32,78.05,0,0-12.58,11.39-29.93,9.95,0,0,14.75,22.75,38.45,22.67,0,0,45,29,37.05,72.86-.13.69,6.14,5.11,7,5.83q3.92,3.3,7.79,6.66c5.15,4.48,10.21,9.07,15.1,13.83s9.61,9.69,14.06,14.85c2.23,2.59,4.42,5.23,6.49,7.95,1.6,2.09,2.47,5.84,4.77,7.24,1.32.81,3.77.19,5.16,0l13.7-1.87a1.26,1.26,0,0,0,.6-.2,1.19,1.19,0,0,0,.33-.65,121.44,121.44,0,0,1,3.93-12.4,99.21,99.21,0,0,1,4.07-9.89c3-5.8,6.37-11.45,9.9-17,4.3-6.73,8.75-13.36,13.28-19.93.51-.73,6.25-7.63,5.89-8.39-19.67-40.57,16-79.11,16-79.11,23-5.41,31-30.85,31-30.85C221.08,131.78,205.79,123.67,205.79,123.67Zm-39.36,109.5c2.57,7.11-4.93,16.77-8.7,22.11-4.47,6.34-8.87,14.9-16.58,18.07-10.5,4.31-17.43-5.43-24.63-11.34-5.34-4.39-16.26-12.38-15.68-20.41C102.29,222,84.11,193.82,83.31,190c3.53,2.56,13.1,7,16.59,8,11.91,3.65,24.82,7.29,37.11,3,11.47-4,21.7-12,30.9-19.47C167.91,181.51,159.58,214.24,166.43,233.17Zm-41.89-55.5c-38.57,3.12-75-19.43-85.08-55.11A70.16,70.16,0,0,1,49.37,64C77.06,23.69,137.48,18.26,171.48,53c13.2,13.47,21.85,31.69,21.85,50.72C193.33,141.09,163.49,172.36,124.54,177.67Z"/><path class="cls-2" d="M97.43,200.78s8.94,3.57,11.49,3.32l-3.06,14Zm23.49,21.7,6.38-14.55c-5.1,1.53-11.74-1-11.74-1Zm39.57-28.95s-8.09,5.21-10.64,5.45l5.68,13.2ZM143.87,203s-6,3.78-11.34,3.25l9,13.07Zm-32.69,49.33.51-14-5.45,9.53Zm3.91,2.72,5.58,4.24,1-17.19Zm8.68,6.32,6.94,5.07-1.53-20.26Zm38.14-20.73-7.77-7.76,4.18,13.33Zm-16.43-1.52L151,255.43l4.26-5.56ZM139.34,245,143.22,265l5.35-6.72Z"/></g></g></svg>