<svg xmlns="http://www.w3.org/2000/svg" viewBox="0 0 239.79 308.52"><defs><style>.cls-1{fill:#df0b13;}.cls-2{fill:#fff;}</style></defs><title>Nothic_1</title><g id="Layer_2" data-name="Layer 2"><g id="Layer_1-2" data-name="Layer 1"><path class="cls-1" d="M117,44.54a63.18,63.18,0,1,0,63.19,63.18A63.17,63.17,0,0,0,117,44.54Zm1,103.66a17.31,17.31,0,1,1,17.32-17.31A17.31,17.31,0,0,1,118,148.2Zm87.82-24.53c8.59-39.68,1.87-81.62-34.63-104.48-17.7-11.09-38.82-18-60-17.68C88,1.88,68,11.81,49.74,25.34,35.64,35.77,24.49,49.72,19.53,66.72c-7.72,26.48.92,54.46,13.32,78.05,0,0-12.58,11.39-29.93,9.95,0,0,14.75,22.75,38.45,22.67,0,0,45,29,37.05,72.86-.13.69,6.14,5.11,7,5.83,2.61,2.21,5.21,4.42,7.79,6.66,5.15,4.48,10.21,9.07,15.1,13.83s9.61,9.69,14.06,14.85c2.24,2.59,4.42,5.23,6.49,7.95,1.6,2.09,2.47,5.84,4.77,7.25,1.32.8,3.77.19,5.16,0l13.7-1.87a1.26,1.26,0,0,0,.6-.2,1.19,1.19,0,0,0,.33-.65,122.24,122.24,0,0,1,3.93-12.4,99.21,99.21,0,0,1,4.07-9.89c3-5.8,6.37-11.45,9.9-17q6.47-10.08,13.28-19.92c.51-.74,6.26-7.64,5.89-8.4-19.67-40.57,16-79.11,16-79.11,23-5.41,31-30.85,31-30.85C221.08,131.78,205.79,123.67,205.79,123.67Zm-39.36,109.5c2.57,7.12-4.93,16.77-8.7,22.11-4.47,6.34-8.87,14.9-16.58,18.07-10.5,4.32-17.43-5.43-24.63-11.34-5.34-4.39-16.26-12.38-15.68-20.4C102.29,222,84.11,193.82,83.31,190c3.53,2.56,13.1,7,16.59,8,11.91,3.65,24.82,7.29,37.11,3,11.47-4,21.7-12,30.9-19.47C167.91,181.51,159.58,214.24,166.43,233.17Zm-41.89-55.5c-38.56,3.12-75-19.43-85.08-55.11A70.16,70.16,0,0,1,49.37,64C77.06,23.69,137.48,18.27,171.48,53c13.2,13.47,21.85,31.69,21.85,50.73C193.33,141.09,163.49,172.36,124.54,177.67Z"/><path class="cls-2" d="M135.48,308.52a4.93,4.93,0,0,1-2.63-.63c-1.82-1.11-2.84-3.19-3.74-5a16.38,16.38,0,0,0-1.44-2.58c-1.83-2.4-3.87-4.9-6.43-7.87-4.2-4.86-8.77-9.69-14-14.76-4.45-4.33-9.37-8.83-15-13.76-2.37-2.06-4.91-4.23-7.78-6.65-.2-.17-.71-.55-1.36-1-5.86-4.37-6.36-5-6.15-6.22,7.31-40.26-31.85-68.24-36-71.09-24-.2-38.64-22.4-39.26-23.35L0,153l3,.26C17,154.39,27.86,146.81,31,144.38,15.83,115.18,11.5,88.91,18.09,66.3c4.73-16.2,15.36-30.78,30.76-42.17C70.66,8,90.44.34,111.1,0c20.31-.34,41.9,6,60.86,17.91,32.34,20.25,45.26,58.44,35.54,104.9,3.6,1.62,16.28,6.49,29.5,2.13l2.79-.92-.89,2.79c-.33,1.07-8.48,26-31.64,31.75-3.34,3.81-33.46,39.9-15.42,77.1.55,1.15.13,2.16-5.1,8.76-.46.58-.8,1-.9,1.15-4.89,7.09-9.23,13.59-13.26,19.88-3.77,5.89-7,11.41-9.83,16.85a66.93,66.93,0,0,0-3.1,7.37l-.9,2.36a120.56,120.56,0,0,0-3.88,12.25,2.62,2.62,0,0,1-.83,1.42,2.54,2.54,0,0,1-1.35.52L139,308.1l-.74.12A16.67,16.67,0,0,1,135.48,308.52ZM80,249.92c.93.92,3.75,3,4.88,3.87.72.54,1.28,1,1.5,1.15,2.88,2.42,5.44,4.61,7.82,6.67,5.71,5,10.67,9.52,15.16,13.88,5.27,5.13,9.89,10,14.15,14.95,2.6,3,4.68,5.56,6.55,8a19.55,19.55,0,0,1,1.75,3.08c.75,1.54,1.54,3.14,2.61,3.8.61.38,2.39.08,3.34-.08l.82-.13L152,303.3A121.76,121.76,0,0,1,156,291c.3-.77.59-1.55.89-2.33a68,68,0,0,1,3.25-7.7c2.88-5.52,6.14-11.11,10-17.08,4-6.32,8.4-12.85,13.31-20,.12-.17.5-.65,1-1.3a74.79,74.79,0,0,0,4.51-6.1c-19.34-40.83,16.1-79.88,16.46-80.27l.31-.34.45-.1c17.45-4.12,26.08-20.56,28.88-27.12-15.62,3.79-29.29-3.32-29.9-3.64l-1-.54.24-1.11c9.89-45.68-2.48-83.18-33.95-102.89C151.89,8.89,130.86,2.7,111.15,3c-20,.32-39.24,7.8-60.52,23.54-14.86,11-25.12,25-29.66,40.59-6.45,22.12-2,48,13.21,76.93l.54,1-.86.78c-.5.45-11.76,10.47-27.87,10.47H6c4.53,5.73,17.33,19.54,35.26,19.54h.56l.38.24C42.64,176.42,87.53,206,80,249.92Zm56,26c-6.55,0-11.73-4.81-16.41-9.16-1.39-1.29-2.7-2.5-4-3.6l-1.52-1.23C108,257,98.76,249.6,99.35,241.5c1.06-14.48-8.91-33.85-14.27-44.26-2-3.94-3-5.88-3.24-7l-.8-3.81,3.15,2.28c3.39,2.47,12.81,6.8,16.14,7.82,13.07,4,24.81,7,36.19,3,11-3.87,20.68-11.3,30.45-19.22l3.51-2.85-1.11,4.38c-.08.33-8.15,32.5-1.53,50.78h0c2.65,7.33-3.76,16.31-8,22.25l-.88,1.24c-.81,1.14-1.61,2.36-2.44,3.61-3.78,5.72-8.07,12.21-14.8,15A14.92,14.92,0,0,1,136,275.93Zm-49.36-82.2,1.1,2.14c5.49,10.67,15.72,30.53,14.59,45.85-.48,6.53,8.33,13.64,13.6,17.89l1.54,1.24c1.4,1.16,2.8,2.46,4.16,3.72C127.46,270,133,275.09,140.58,272c5.88-2.41,9.72-8.23,13.44-13.86.85-1.29,1.66-2.51,2.49-3.68l.89-1.25c3.64-5.1,9.73-13.64,7.62-19.49-5.53-15.27-1.54-38.73.47-48.29-8.86,7.05-17.81,13.43-28,17-12.24,4.3-24.47,1.21-38-3A91.83,91.83,0,0,1,86.65,193.73Zm30.68-14.27C80.19,179.46,47.5,156.58,38,123A71.29,71.29,0,0,1,48.14,63.19C61.64,43.51,83.53,31,108.19,28.84c24.45-2.12,47.91,6.29,64.37,23.1,14.15,14.45,22.27,33.32,22.27,51.78,0,37.56-30.13,70-70.09,75.44h-.08C122.2,179.37,119.75,179.46,117.33,179.46Zm-1.7-147.94q-3.57,0-7.18.31C84.68,33.9,63.6,46,50.61,64.89a68.3,68.3,0,0,0-9.71,57.27c9.72,34.41,44.82,57.14,83.48,54,38.45-5.26,67.45-36.41,67.45-72.46C191.83,86,184,67.93,170.41,54,156.2,39.53,136.54,31.52,115.63,31.52ZM117,172.4a64.68,64.68,0,1,1,64.69-64.68A64.75,64.75,0,0,1,117,172.4ZM117,46a61.68,61.68,0,1,0,61.69,61.68A61.75,61.75,0,0,0,117,46Zm1,103.66a18.81,18.81,0,1,1,18.82-18.81A18.83,18.83,0,0,1,118,149.7Zm0-34.61a15.81,15.81,0,1,0,15.82,15.8A15.82,15.82,0,0,0,118,115.09Z"/><path class="cls-1" d="M97.43,200.78s8.94,3.57,11.49,3.32l-3.06,14Zm23.49,21.7,6.38-14.55c-5.1,1.53-11.74-1-11.74-1Zm39.57-28.95s-8.09,5.22-10.64,5.45l5.68,13.2ZM143.87,203s-6,3.78-11.34,3.25l9,13.07Zm-32.69,49.33.51-14-5.45,9.54Zm3.91,2.72,5.58,4.24,1-17.19Zm8.68,6.32,6.94,5.07-1.53-20.26Zm38.14-20.73-7.77-7.75,4.18,13.32Zm-16.43-1.52L151,255.43l4.26-5.56ZM139.34,245,143.22,265l5.35-6.72Z"/></g></g></svg>