<svg xmlns="http://www.w3.org/2000/svg" viewBox="0 0 233.95 293.02"><title>Ogre</title><g id="fa41e2b5-0fb9-451d-9ca7-08ac905dcb6a" data-name="Layer 2"><g id="af0a1498-920d-4611-9e03-bc9f2cea263a" data-name="Layer 1"><path d="M191.14,235.57s19.45-13,25.93-28.24c0,0,13.43,48.62-31.48,45.38Z" style="fill:#674a28"/><path d="M189.74,253.86c-1.36,0-2.77-.05-4.22-.16l-1.28-.09,6.06-18.67.29-.2c.19-.13,19.28-13,25.56-27.8l1.12-2.64.77,2.76c.27,1,6.43,23.9-4.66,37.42C208.27,250.71,200.33,253.86,189.74,253.86Zm-2.8-2.07c11.38.57,19.75-2.31,24.9-8.58,8.25-10.07,6.16-26.35,4.89-32.83-7,13.34-22.34,24.19-24.74,25.83Z" style="fill:#fff"/><path d="M222.77,90.79l-.62-17.88L204.89,53.76l6.17-4.93s-26.55-33.95-82.74-30.25c0,0-12.94-9.28-52.48-6.78,0,0,3.7-12.84-48.13-10.52,0,0-4.46,11.46-8.78,26.88,22.82,5.26,35.73,24.51,37.47,41.2,2.32,22.23-24.52,37-24.52,37A75.24,75.24,0,0,1,15.63,97.5s0,0,0,.08,9.57,74.1,18.21,75.33l-.76,11.21a21.5,21.5,0,0,0,3.8,13.71c13.6,19.73,57.89,79.25,105.62,93.61,0,0,5,3,16.79-4.5A17.93,17.93,0,0,1,169,284h16.79a10.83,10.83,0,0,0,8.78-4.53l3-4.1.51-7.91c12.33-6.38,16.46-20.71,16.72-21.69A31.26,31.26,0,0,1,190.09,250c6.93-18.93,2.9-41.27,2.9-41.27-2.75,20.2-30.32,43.81-38.19,50.2a51,51,0,0,1-6.31-8.35l16.25-10.37c-4.5,1.38-15.2,2.5-20.31,3a112.63,112.63,0,0,1-5-11.82l8.16-10.16-10.37,3.7c-1.13-3.44-2.07-6.82-2.87-10l5.84-2.94-7.33-3.15c-1.16-5.12-1.92-9.25-2.32-11.75a14.53,14.53,0,0,1,0-5c.62-4,2-12.33,4-21.91l8.45,6.6-6.75-14.61c.91-4.17,1.92-8.38,3.05-12.41l10.66,7.15-9.1-12.66c2.17-7.11,4.57-13.2,7.11-16.79l10.33,10-2.86-14.29a92.15,92.15,0,0,0,9.21-3.08,16.67,16.67,0,0,1,3.66-1l6.17,13.74,3.73-13.31,19.74,1.67,7.58,16.25,2.9-15.34,7.18.62,4.28,15.19,4.57-14.43,0-.15.07.15,6.89,15.45.94-14.8S236.37,100.08,222.77,90.79ZM150.56,54.67,145,49.74c18.21-8.31,33.33,8,33.33,8C154.58,75.38,150.56,54.67,150.56,54.67ZM189.15,73.2c17.88-4.93,19.73,11.14,19.73,11.14C185.12,84.34,189.15,73.2,189.15,73.2Z" style="fill:#b49670"/><path d="M145.65,293a8,8,0,0,1-3.49-.65c-48.38-14.62-93.4-75.62-106.06-94a22.57,22.57,0,0,1-4-14.34l.7-10.4c-2.11-1-6.23-6.2-12.27-38.69-3.19-17.16-5.5-34.4-5.83-36.94L14.65,98l0-.45v-2l1.6,1.18a73.8,73.8,0,0,0,15.58,8.58c3.33-2,25.67-16,23.6-35.82C53.76,53.73,41.58,34.4,18.71,29.13l-1-.23.28-1C22.25,12.6,26.73,1,26.78.92L27,.31l.65,0c33.5-1.5,44.55,3.28,47.91,7.55a5.81,5.81,0,0,1,1.29,2.9c35.82-2.09,49.52,5.43,51.73,6.83,55.83-3.52,83,30.31,83.24,30.65l.61.78-6.11,4.89,16.8,18.63.61,17.75c13.3,9.59,9.88,32.39,9.63,33.94l-1.2,18.8-7.54-16.9-4.83,15.26-5-17.75-5.59-.48-3.31,17.51-8.65-18.54-18.33-1.55-4.25,15.17-7-15.56a16.07,16.07,0,0,0-2.7.8c-2.56,1-5.32,2-8.42,2.86l3.31,16.52L148.12,129c-2,3.21-4.08,8.26-6.18,15.06L154,160.79l-14.12-9.45c-.89,3.28-1.76,6.87-2.59,10.68l8.33,18.06-10.43-8.14c-1.91,9.51-3.16,17.27-3.62,20.27a13.62,13.62,0,0,0,0,4.68c.24,1.51.92,5.52,2.2,11.21l8.82,3.8-7,3.54c.72,2.84,1.5,5.59,2.33,8.19l12.73-4.54-10,12.47A111.58,111.58,0,0,0,145,242.14c9.84-1,16.38-2,19.43-2.91l7-2.15-21.59,13.79a50.14,50.14,0,0,0,5,6.67c9-7.34,34.5-29.82,37.11-49l.86-6.26,1.12,6.22c0,.22,3.84,22-2.57,40.72A30.16,30.16,0,0,0,214.17,245l2.16-1.4-.64,2.49c0,.15-4.06,15.17-16.73,22.06l-.49,7.64-3.14,4.33a11.85,11.85,0,0,1-9.59,5H169a16.91,16.91,0,0,0-9.08,2.75C153.18,292,148.52,293,145.65,293ZM17,99.67c.74,5.48,2.83,20.24,5.56,34.94,6.32,34,10.4,37.15,11.5,37.31l.92.13-.83,12.13a20.59,20.59,0,0,0,3.64,13.08C50.32,215.49,95,276.1,142.83,290.48l.23.1s4.74,2.5,15.74-4.48A18.93,18.93,0,0,1,169,283h16.79a9.83,9.83,0,0,0,8-4.12l2.81-3.86.53-8.19.5-.26c9.19-4.76,13.69-14.1,15.38-18.57A32.4,32.4,0,0,1,189.86,251l-1.1-.26.39-1.06c4.72-12.89,4.26-27.55,3.54-35.3-6.21,19-29.66,39.18-37.26,45.34l-.72.58-.63-.66a51.84,51.84,0,0,1-6.44-8.51l-.52-.84,12.4-7.91c-3.67.61-8.63,1.22-15,1.86l-.69.06-.31-.62a110.34,110.34,0,0,1-5-11.93l-.19-.52,6.3-7.84-8,2.86-.31-1c-1-3.17-2-6.56-2.89-10.08l-.19-.77,4.64-2.34L132,209.53l-.11-.49c-1.36-6-2.09-10.27-2.34-11.82a15.64,15.64,0,0,1,0-5.33c.49-3.16,1.86-11.67,4-21.94l.32-1.58,6.47,5-5.16-11.17.07-.32c1-4.5,2-8.69,3.06-12.47l.38-1.33,7.2,4.83-6.15-8.56.14-.47c2.45-8,4.88-13.74,7.25-17.08l.67-.95,8.87,8.56-2.42-12.06.9-.25a92.31,92.31,0,0,0,9.11-3.05,17.22,17.22,0,0,1,3.89-1l.75-.11,5.34,11.92,3.22-11.45,21.13,1.78,6.51,14L207.59,121l8.77.75,3.57,12.64,3.58-11.33.66-2.63,1.27,2.57,5.26,11.78.7-10.84c0-.24,3.72-23.5-9.19-32.31l-.42-.29-.62-18L203.44,53.64l6.19-5c-4.36-4.95-31-32.42-81.24-29.11l-.36,0-.29-.21c-.12-.09-13.26-9-51.84-6.59l-1.41.09.39-1.37a3.28,3.28,0,0,0-1-2.57c-2.6-3.13-12-8.14-45.51-6.7-.94,2.5-4.62,12.45-8.23,25.18C43.35,33.25,55.71,53.08,57.4,69.25c2.36,22.64-23.92,37.4-25,38l-.42.23-.44-.18A80.28,80.28,0,0,1,17,99.67ZM210,85.34h-1.12c-10.21,0-16.81-2-19.6-6a7.4,7.4,0,0,1-1.07-6.47l.17-.48.5-.14c6-1.66,10.93-1.21,14.68,1.31,5.45,3.68,6.28,10.39,6.31,10.67ZM190,74a5.47,5.47,0,0,0,1,4.2c1.6,2.25,5.81,4.92,16.73,5.11-.47-1.91-1.79-5.8-5.25-8.13C199.3,73.1,195.11,72.7,190,74Zm-28-8.14a12.16,12.16,0,0,1-4.38-.79c-5.71-2.22-7.53-8.35-7.91-9.89l-6.45-5.74,1.39-.63c18.65-8.51,34.33,8.11,34.48,8.28l.76.82-.89.66C172.39,63.44,166.7,65.88,161.94,65.88ZM146.86,50l4.61,4.1.07.34c0,.06,1.37,6.66,6.76,8.75,4.61,1.78,10.83-.09,18.5-5.56C173.59,54.67,161.26,44.49,146.86,50Z" style="fill:#fff"/><path d="M30,96.2s20-11,18.27-27.56S30,32.11,1.09,38c0,0-1.38,16.88,7.24,23.78C8.33,61.75-2,83.11,30,96.2Z" style="fill:#b49670"/><path d="M30.1,97.31l-.44-.18C17.83,92.3,10.28,85.8,7.22,77.81A22.32,22.32,0,0,1,7.12,62C-1.17,54.64,0,38.58.09,37.89l.06-.75L.89,37c16.18-3.27,27.16,1.61,33.52,6.28A36.79,36.79,0,0,1,49.29,68.53c1.77,17-17.93,28.09-18.77,28.55ZM2.05,38.8C1.91,42.09,1.86,55.29,9,61l.62.5-.34.72A20.35,20.35,0,0,0,9.1,77.13c2.83,7.33,9.84,13.38,20.86,18,2.78-1.67,18.84-12,17.34-26.35A34.78,34.78,0,0,0,33.23,44.88C27.29,40.52,17.09,36,2.05,38.8Z" style="fill:#fff"/></g></g></svg>