<svg xmlns="http://www.w3.org/2000/svg" viewBox="0 0 363.34 247.66"><defs><style>.cls-1{fill:#fff;}.cls-2{fill:#43b200;}</style></defs><g id="Layer_2" data-name="Layer 2"><g id="Layer_1-2" data-name="Layer 1"><path class="cls-1" d="M139.82,43.84h0a31,31,0,0,0-8.52,1.26c-16,4.52-25.44,31.75-42.13,47.66-18.47,17.62-48,31.06-52,55.6a27,27,0,0,0,52.52,12.77,26.41,26.41,0,0,0,.88-6.19h.12c-1.3-29.35,5.56-69.38,42.89-71.55C163.49,81.64,164.55,43.92,139.82,43.84ZM75.89,157.43a12.71,12.71,0,1,1-12.65-16c.37,0,.73,0,1.09,0a12.9,12.9,0,0,1,2.57.43A12.61,12.61,0,0,1,75.89,157.43ZM206.65,47.82c-8.74.26-17.94,5.31-17.74,13.78.41,16.94,28.44,22.52,32.64,1.18C223.64,52.1,215.39,47.58,206.65,47.82Zm-1,129.29c-.36-7.46,21-9.12,16.1-19.51-2.75-5.86-11.11-8.25-21.09-8.11h0c-12.1.16-26.57,4-36.32,9.92a30.41,30.41,0,0,0,10.9,58.81l1,0c24.88,1.87,58.9-11.31,58.52-24.35C234.27,179,206.42,193.65,205.62,177.11ZM175.2,203.92a16.13,16.13,0,1,1,16.14-16.12A16,16,0,0,1,175.2,203.92Zm150.45-73.58A36.71,36.71,0,0,0,321,119.86c-8.72-28.38-28.36-48-59.09-55.89a35.94,35.94,0,0,0-9.35-1.27c-14.1.24-13.85,12.81-6.48,17.66,37.69,24.76,6.48,35.07-12.77,24.5-18.12-10-66.92-14.81-85.31,3-14.64,14.2-2.49,41.28,20.21,25.09,38-27.07,72-12,86.86,22l0,0a37.46,37.46,0,0,0,70.53-24.62Zm-30.2,32a23.15,23.15,0,0,1-12-44.72,24,24,0,0,1,4.67-.77c.34,0,.67,0,1,0a23.16,23.16,0,0,1,6.32,45.53Zm30.2-32A36.71,36.71,0,0,0,321,119.86c-8.72-28.38-28.36-48-59.09-55.89a35.94,35.94,0,0,0-9.35-1.27c-14.1.24-13.85,12.81-6.48,17.66,37.69,24.76,6.48,35.07-12.77,24.5-18.12-10-66.92-14.81-85.31,3-14.64,14.2-2.49,41.28,20.21,25.09,38-27.07,72-12,86.86,22l0,0a37.46,37.46,0,0,0,70.53-24.62Zm-30.2,32a23.15,23.15,0,0,1-12-44.72,24,24,0,0,1,4.67-.77c.34,0,.67,0,1,0a23.16,23.16,0,0,1,6.32,45.53Zm-89.83,14.73c-.36-7.46,21-9.12,16.1-19.51-2.75-5.86-11.11-8.25-21.09-8.11h0c-12.1.16-26.57,4-36.32,9.92a30.41,30.41,0,0,0,10.9,58.81l1,0c24.88,1.87,58.9-11.31,58.52-24.35C234.27,179,206.42,193.65,205.62,177.11ZM175.2,203.92a16.13,16.13,0,1,1,16.14-16.12A16,16,0,0,1,175.2,203.92Zm31.45-156.1c-8.74.26-17.94,5.31-17.74,13.78.41,16.94,28.44,22.52,32.64,1.18C223.64,52.1,215.39,47.58,206.65,47.82Zm-66.83-4h0a31,31,0,0,0-8.52,1.26c-16,4.52-25.44,31.75-42.13,47.66-18.47,17.62-48,31.06-52,55.6a27,27,0,0,0,52.52,12.77,26.41,26.41,0,0,0,.88-6.19h.12c-1.3-29.35,5.56-69.38,42.89-71.55C163.49,81.64,164.55,43.92,139.82,43.84ZM75.89,157.43a12.71,12.71,0,1,1-12.65-16c.37,0,.73,0,1.09,0a12.9,12.9,0,0,1,2.57.43A12.61,12.61,0,0,1,75.89,157.43ZM139.82,43.84h0a31,31,0,0,0-8.52,1.26c-16,4.52-25.44,31.75-42.13,47.66-18.47,17.62-48,31.06-52,55.6a27,27,0,0,0,52.52,12.77,26.41,26.41,0,0,0,.88-6.19h.12c-1.3-29.35,5.56-69.38,42.89-71.55C163.49,81.64,164.55,43.92,139.82,43.84ZM75.89,157.43a12.71,12.71,0,1,1-12.65-16c.37,0,.73,0,1.09,0a12.9,12.9,0,0,1,2.57.43A12.61,12.61,0,0,1,75.89,157.43ZM206.65,47.82c-8.74.26-17.94,5.31-17.74,13.78.41,16.94,28.44,22.52,32.64,1.18C223.64,52.1,215.39,47.58,206.65,47.82Zm-1,129.29c-.36-7.46,21-9.12,16.1-19.51-2.75-5.86-11.11-8.25-21.09-8.11h0c-12.1.16-26.57,4-36.32,9.92a30.41,30.41,0,0,0,10.9,58.81l1,0c24.88,1.87,58.9-11.31,58.52-24.35C234.27,179,206.42,193.65,205.62,177.11ZM175.2,203.92a16.13,16.13,0,1,1,16.14-16.12A16,16,0,0,1,175.2,203.92Zm150.45-73.58A36.71,36.71,0,0,0,321,119.86c-8.72-28.38-28.36-48-59.09-55.89a35.94,35.94,0,0,0-9.35-1.27c-14.1.24-13.85,12.81-6.48,17.66,37.69,24.76,6.48,35.07-12.77,24.5-18.12-10-66.92-14.81-85.31,3-14.64,14.2-2.49,41.28,20.21,25.09,38-27.07,72-12,86.86,22l0,0a37.46,37.46,0,0,0,70.53-24.62Zm-30.2,32a23.15,23.15,0,0,1-12-44.72,24,24,0,0,1,4.67-.77c.34,0,.67,0,1,0a23.16,23.16,0,0,1,6.32,45.53Zm30.2-32A36.71,36.71,0,0,0,321,119.86c-8.72-28.38-28.36-48-59.09-55.89a35.94,35.94,0,0,0-9.35-1.27c-14.1.24-13.85,12.81-6.48,17.66,37.69,24.76,6.48,35.07-12.77,24.5-18.12-10-66.92-14.81-85.31,3-14.64,14.2-2.49,41.28,20.21,25.09,38-27.07,72-12,86.86,22l0,0a37.46,37.46,0,0,0,70.53-24.62Zm-30.2,32a23.15,23.15,0,0,1-12-44.72,24,24,0,0,1,4.67-.77c.34,0,.67,0,1,0a23.16,23.16,0,0,1,6.32,45.53Zm-89.83,14.73c-.36-7.46,21-9.12,16.1-19.51-2.75-5.86-11.11-8.25-21.09-8.11h0c-12.1.16-26.57,4-36.32,9.92a30.41,30.41,0,0,0,10.9,58.81l1,0c24.88,1.87,58.9-11.31,58.52-24.35C234.27,179,206.42,193.65,205.62,177.11ZM175.2,203.92a16.13,16.13,0,1,1,16.14-16.12A16,16,0,0,1,175.2,203.92ZM221.55,62.78c2.09-10.68-6.16-15.2-14.9-15s-17.94,5.31-17.74,13.78C189.32,78.54,217.35,84.12,221.55,62.78ZM139.82,43.84h0a31,31,0,0,0-8.52,1.26c-16,4.52-25.44,31.75-42.13,47.66-18.47,17.62-48,31.06-52,55.6a27,27,0,0,0,52.52,12.77,26.41,26.41,0,0,0,.88-6.19h.12c-1.3-29.35,5.56-69.38,42.89-71.55C163.49,81.64,164.55,43.92,139.82,43.84ZM75.89,157.43a12.71,12.71,0,1,1-12.65-16c.37,0,.73,0,1.09,0a12.9,12.9,0,0,1,2.57.43A12.61,12.61,0,0,1,75.89,157.43ZM310,53.47C277.29,22.77,232.05,0,181.69,0S86.08,22.77,53.38,53.47,0,122.77,0,156.88s22.43,58,55.54,71.77,77.42,19,126.15,19,93-5.25,126.14-19,55.51-37.67,55.51-71.77S342.68,84.18,310,53.47Zm-7.66,162c-30.06,12.49-73,17.92-120.64,17.92S91.07,227.92,61,215.43,14.31,185,14.31,156.88s18.39-64.37,48.85-93,72.49-49.6,118.53-49.6,88,21,118.49,49.6,48.86,64.86,48.86,93S332.39,202.92,302.33,215.43ZM321,119.86c-8.72-28.38-28.36-48-59.09-55.89a35.94,35.94,0,0,0-9.35-1.27c-14.1.24-13.85,12.81-6.48,17.66,37.69,24.76,6.48,35.07-12.77,24.5-18.12-10-66.92-14.81-85.31,3-14.64,14.2-2.49,41.28,20.21,25.09,38-27.07,72-12,86.86,22l0,0a37.46,37.46,0,0,0,70.53-24.62A36.71,36.71,0,0,0,321,119.86Zm-25.56,42.52a23.15,23.15,0,0,1-12-44.72,24,24,0,0,1,4.67-.77c.34,0,.67,0,1,0a23.16,23.16,0,0,1,6.32,45.53Zm-89.83,14.73c-.36-7.46,21-9.12,16.1-19.51-2.75-5.86-11.11-8.25-21.09-8.11h0c-12.1.16-26.57,4-36.32,9.92a30.41,30.41,0,0,0,10.9,58.81l1,0c24.88,1.87,58.9-11.31,58.52-24.35C234.27,179,206.42,193.65,205.62,177.11ZM175.2,203.92a16.13,16.13,0,1,1,16.14-16.12A16,16,0,0,1,175.2,203.92ZM221.55,62.78c2.09-10.68-6.16-15.2-14.9-15s-17.94,5.31-17.74,13.78C189.32,78.54,217.35,84.12,221.55,62.78ZM139.82,43.84h0a31,31,0,0,0-8.52,1.26c-16,4.52-25.44,31.75-42.13,47.66-18.47,17.62-48,31.06-52,55.6a27,27,0,0,0,52.52,12.77,26.41,26.41,0,0,0,.88-6.19h.12c-1.3-29.35,5.56-69.38,42.89-71.55C163.49,81.64,164.55,43.92,139.82,43.84ZM75.89,157.43a12.71,12.71,0,1,1-12.65-16c.37,0,.73,0,1.09,0a12.9,12.9,0,0,1,2.57.43A12.61,12.61,0,0,1,75.89,157.43ZM139.82,43.84h0a31,31,0,0,0-8.52,1.26c-16,4.52-25.44,31.75-42.13,47.66-18.47,17.62-48,31.06-52,55.6a27,27,0,0,0,52.52,12.77,26.41,26.41,0,0,0,.88-6.19h.12c-1.3-29.35,5.56-69.38,42.89-71.55C163.49,81.64,164.55,43.92,139.82,43.84ZM75.89,157.43a12.71,12.71,0,1,1-12.65-16c.37,0,.73,0,1.09,0a12.9,12.9,0,0,1,2.57.43A12.61,12.61,0,0,1,75.89,157.43ZM206.65,47.82c-8.74.26-17.94,5.31-17.74,13.78.41,16.94,28.44,22.52,32.64,1.18C223.64,52.1,215.39,47.58,206.65,47.82Zm-1,129.29c-.36-7.46,21-9.12,16.1-19.51-2.75-5.86-11.11-8.25-21.09-8.11h0c-12.1.16-26.57,4-36.32,9.92a30.41,30.41,0,0,0,10.9,58.81l1,0c24.88,1.87,58.9-11.31,58.52-24.35C234.27,179,206.42,193.65,205.62,177.11ZM175.2,203.92a16.13,16.13,0,1,1,16.14-16.12A16,16,0,0,1,175.2,203.92Zm150.45-73.58A36.71,36.71,0,0,0,321,119.86c-8.72-28.38-28.36-48-59.09-55.89a35.94,35.94,0,0,0-9.35-1.27c-14.1.24-13.85,12.81-6.48,17.66,37.69,24.76,6.48,35.07-12.77,24.5-18.12-10-66.92-14.81-85.31,3-14.64,14.2-2.49,41.28,20.21,25.09,38-27.07,72-12,86.86,22l0,0a37.46,37.46,0,0,0,70.53-24.62Zm-30.2,32a23.15,23.15,0,0,1-12-44.72,24,24,0,0,1,4.67-.77c.34,0,.67,0,1,0a23.16,23.16,0,0,1,6.32,45.53Zm30.2-32A36.71,36.71,0,0,0,321,119.86c-8.72-28.38-28.36-48-59.09-55.89a35.94,35.94,0,0,0-9.35-1.27c-14.1.24-13.85,12.81-6.48,17.66,37.69,24.76,6.48,35.07-12.77,24.5-18.12-10-66.92-14.81-85.31,3-14.64,14.2-2.49,41.28,20.21,25.09,38-27.07,72-12,86.86,22l0,0a37.46,37.46,0,0,0,70.53-24.62Zm-30.2,32a23.15,23.15,0,0,1-12-44.72,24,24,0,0,1,4.67-.77c.34,0,.67,0,1,0a23.16,23.16,0,0,1,6.32,45.53Zm-89.83,14.73c-.36-7.46,21-9.12,16.1-19.51-2.75-5.86-11.11-8.25-21.09-8.11h0c-12.1.16-26.57,4-36.32,9.92a30.41,30.41,0,0,0,10.9,58.81l1,0c24.88,1.87,58.9-11.31,58.52-24.35C234.27,179,206.42,193.65,205.62,177.11ZM175.2,203.92a16.13,16.13,0,1,1,16.14-16.12A16,16,0,0,1,175.2,203.92Zm31.45-156.1c-8.74.26-17.94,5.31-17.74,13.78.41,16.94,28.44,22.52,32.64,1.18C223.64,52.1,215.39,47.58,206.65,47.82Zm-66.83-4h0a31,31,0,0,0-8.52,1.26c-16,4.52-25.44,31.75-42.13,47.66-18.47,17.62-48,31.06-52,55.6a27,27,0,0,0,52.52,12.77,26.41,26.41,0,0,0,.88-6.19h.12c-1.3-29.35,5.56-69.38,42.89-71.55C163.49,81.64,164.55,43.92,139.82,43.84ZM75.89,157.43a12.71,12.71,0,1,1-12.65-16c.37,0,.73,0,1.09,0a12.9,12.9,0,0,1,2.57.43A12.61,12.61,0,0,1,75.89,157.43ZM139.82,43.84h0a31,31,0,0,0-8.52,1.26c-16,4.52-25.44,31.75-42.13,47.66-18.47,17.62-48,31.06-52,55.6a27,27,0,0,0,52.52,12.77,26.41,26.41,0,0,0,.88-6.19h.12c-1.3-29.35,5.56-69.38,42.89-71.55C163.49,81.64,164.55,43.92,139.82,43.84ZM75.89,157.43a12.71,12.71,0,1,1-12.65-16c.37,0,.73,0,1.09,0a12.9,12.9,0,0,1,2.57.43A12.61,12.61,0,0,1,75.89,157.43ZM206.65,47.82c-8.74.26-17.94,5.31-17.74,13.78.41,16.94,28.44,22.52,32.64,1.18C223.64,52.1,215.39,47.58,206.65,47.82Zm-1,129.29c-.36-7.46,21-9.12,16.1-19.51-2.75-5.86-11.11-8.25-21.09-8.11h0c-12.1.16-26.57,4-36.32,9.92a30.41,30.41,0,0,0,10.9,58.81l1,0c24.88,1.87,58.9-11.31,58.52-24.35C234.27,179,206.42,193.65,205.62,177.11ZM175.2,203.92a16.13,16.13,0,1,1,16.14-16.12A16,16,0,0,1,175.2,203.92Zm150.45-73.58A36.71,36.71,0,0,0,321,119.86c-8.72-28.38-28.36-48-59.09-55.89a35.94,35.94,0,0,0-9.35-1.27c-14.1.24-13.85,12.81-6.48,17.66,37.69,24.76,6.48,35.07-12.77,24.5-18.12-10-66.92-14.81-85.31,3-14.64,14.2-2.49,41.28,20.21,25.09,38-27.07,72-12,86.86,22l0,0a37.46,37.46,0,0,0,70.53-24.62Zm-30.2,32a23.15,23.15,0,0,1-12-44.72,24,24,0,0,1,4.67-.77c.34,0,.67,0,1,0a23.16,23.16,0,0,1,6.32,45.53ZM139.82,43.84h0a31,31,0,0,0-8.52,1.26c-16,4.52-25.44,31.75-42.13,47.66-18.47,17.62-48,31.06-52,55.6a27,27,0,0,0,52.52,12.77,26.41,26.41,0,0,0,.88-6.19h.12c-1.3-29.35,5.56-69.38,42.89-71.55C163.49,81.64,164.55,43.92,139.82,43.84ZM75.89,157.43a12.71,12.71,0,1,1-12.65-16c.37,0,.73,0,1.09,0a12.9,12.9,0,0,1,2.57.43A12.61,12.61,0,0,1,75.89,157.43ZM206.65,47.82c-8.74.26-17.94,5.31-17.74,13.78.41,16.94,28.44,22.52,32.64,1.18C223.64,52.1,215.39,47.58,206.65,47.82Zm119,82.52A36.71,36.71,0,0,0,321,119.86c-8.72-28.38-28.36-48-59.09-55.89a35.94,35.94,0,0,0-9.35-1.27c-14.1.24-13.85,12.81-6.48,17.66,37.69,24.76,6.48,35.07-12.77,24.5-18.12-10-66.92-14.81-85.31,3-14.64,14.2-2.49,41.28,20.21,25.09,38-27.07,72-12,86.86,22l0,0a37.46,37.46,0,0,0,70.53-24.62Zm-30.2,32a23.15,23.15,0,0,1-12-44.72,24,24,0,0,1,4.67-.77c.34,0,.67,0,1,0a23.16,23.16,0,0,1,6.32,45.53Zm-89.83,14.73c-.36-7.46,21-9.12,16.1-19.51-2.75-5.86-11.11-8.25-21.09-8.11h0c-12.1.16-26.57,4-36.32,9.92a30.41,30.41,0,0,0,10.9,58.81l1,0c24.88,1.87,58.9-11.31,58.52-24.35C234.27,179,206.42,193.65,205.62,177.11ZM175.2,203.92a16.13,16.13,0,1,1,16.14-16.12A16,16,0,0,1,175.2,203.92Z"/><path class="cls-2" d="M300.18,63.9c-30.46-28.61-72.46-49.6-118.49-49.6s-88.06,21-118.53,49.6-48.85,64.86-48.85,93S31,202.92,61,215.43s73,17.92,120.68,17.92,90.58-5.43,120.64-17.92S349,185,349,156.88,330.65,92.51,300.18,63.9ZM206.65,47.82c8.74-.24,17,4.28,14.9,15-4.2,21.34-32.23,15.76-32.64-1.18C188.71,53.13,197.91,48.08,206.65,47.82ZM90.71,154.94h-.12a26.41,26.41,0,0,1-.88,6.19,27,27,0,0,1-52.52-12.77c4-24.54,33.5-38,52-55.6,16.69-15.91,26.13-43.14,42.13-47.66a31,31,0,0,1,8.52-1.26h0c24.73.08,23.67,37.8-6.22,39.55C96.27,85.56,89.41,125.59,90.71,154.94Zm85.48,63.26-1,0a30.41,30.41,0,0,1-10.9-58.81c9.75-5.89,24.22-9.76,36.32-9.92h0c10-.14,18.34,2.25,21.09,8.11,4.87,10.39-16.46,12.05-16.1,19.51.8,16.54,28.65,1.92,29.09,16.74C235.09,206.89,201.07,220.07,176.19,218.2Zm123-42a37.59,37.59,0,0,1-44-21.24l0,0c-14.84-34-48.88-49.1-86.86-22-22.7,16.19-34.85-10.89-20.21-25.09,18.39-17.82,67.19-13,85.31-3,19.25,10.57,50.46.26,12.77-24.5-7.37-4.85-7.62-17.42,6.48-17.66A35.94,35.94,0,0,1,261.92,64c30.73,7.84,50.37,27.51,59.09,55.89a36.71,36.71,0,0,1,4.64,10.48A37.56,37.56,0,0,1,299.15,176.2Z"/><path class="cls-2" d="M295.45,162.38a23.15,23.15,0,0,1-12-44.72,24,24,0,0,1,4.67-.77c.34,0,.67,0,1,0a23.16,23.16,0,0,1,6.32,45.53Z"/><path class="cls-2" d="M75.89,157.43a12.71,12.71,0,1,1-12.65-16c.37,0,.73,0,1.09,0a12.9,12.9,0,0,1,2.57.43A12.61,12.61,0,0,1,75.89,157.43Z"/><path class="cls-2" d="M191.34,187.8a16.13,16.13,0,1,1-16.14-16.14A16,16,0,0,1,191.34,187.8Z"/></g></g></svg>