<svg xmlns="http://www.w3.org/2000/svg" viewBox="0 0 205.89 367.04"><title>Orc</title><g id="f8723be4-81e2-4b32-8ad0-0cc182193dfa" data-name="Layer 2"><g id="e504b09c-b9b8-415d-b342-cde2dd591268" data-name="Layer 1"><path d="M92.41,16.17S51.93-2.44,46.35,48.74c0,0,2.32,38.15,23.73,46.06s85.14,15.35,85.14,15.35-9.77-25.59-7-48.38c2.14-17.53,2.85-40.46-11.58-53.33C126.5-.62,92.41-4.78,92.41,16.17Z" style="fill:#402327"/><path d="M156.74,111.33l-1.64-.19c-2.61-.3-64.1-7.55-85.37-15.41C48,87.69,45.45,50.38,45.35,48.8v-.17c1.83-16.72,7.54-27.9,17-33.25,11.51-6.53,24.87-2.33,29.13-.68.45-5.72,3.52-10,9-12.44,11-4.95,29.53-1.15,36.91,5.43,15,13.36,14,37.33,11.9,54.2-2.73,22.29,6.82,47.65,6.92,47.9ZM47.35,48.76c.14,2,3,37.68,23.07,45.1,19.16,7.08,73.3,13.89,83.31,15.1-2-5.91-8.88-27.74-6.49-47.32,2-16.42,3-39.72-11.24-52.46-6.8-6.06-24.53-9.68-34.76-5.09a12.31,12.31,0,0,0-7.83,12.08v1.56L92,17.08c-.16-.08-16-7.17-28.69,0C54.48,22.13,49.11,32.77,47.35,48.76Z" style="fill:#fff"/><path d="M24.15,183.15c0,.14,0,.41,0,.72,0,0,0,0,.06,0A3.9,3.9,0,0,0,24.15,183.15Z" style="fill:#5b7077"/><path d="M24.18,184.87h-1v-1c0-.16,0-.31,0-.43s0-.22,0-.29V177l2,5.85a3.86,3.86,0,0,1,.13.93l.08,1.07Z" style="fill:#fff"/><path d="M182.77,187.45s0,0,0,0C182.85,186.82,182.85,186.16,182.77,187.45Z" style="fill:#5b7077"/><path d="M183.78,188.47l-2.08,0,.07-1.07c0-.81.11-1.73,1.11-1.67s1,1,.94,1.81Z" style="fill:#fff"/><path d="M168.53,294.76a14.07,14.07,0,0,0-1.43-1.58,12.79,12.79,0,0,1-4-8.15L162,272a12.38,12.38,0,0,1,5.46-11.5c5.83-3.79,10.87-11.86,10.87-17.76,0-4.21-3.34-8.75-7.63-12.08a95.26,95.26,0,0,0,9.68-24.71c8.61-2.85,23-8.61,24.24-15.72,0,0-8.15,3.5-21.76-2.71,0,.63,0,1.29,0,0,0-49.2-34.58-94.44-78-95.42-.71,0-1.39,0-2.08,0s-1.12,0-1.67,0c-43.43,1-76.77,42.61-76.77,91.81,0,1.31-.06.68-.06,0-13.61,6.2-23,6.31-23,6.31,1.29,7.11,15.64,12.87,24.25,15.72a94.89,94.89,0,0,0,9.67,24.71c-4.29,3.33-7.62,7.87-7.62,12.08,0,5.9,5,14,10.87,17.76A12.41,12.41,0,0,1,43.82,272L42.68,285a13.19,13.19,0,0,1-4.25,8.36l0,0c-16.72-11-32.06-26-32.06-26-1.83,8,15.55,43.87,33.68,58.22v0a115.44,115.44,0,0,0,10.55,17.14L64,358a23.61,23.61,0,0,0,17.74,8h42.36a23.63,23.63,0,0,0,17.72-8l13.42-15.25A116.72,116.72,0,0,0,164,329c19.79-10.88,40.73-52.83,38.73-61.63C202.72,267.4,186.08,283.69,168.53,294.76ZM129,250.91s-.69,21.41-20,15.88C109,266.79,118.64,244,129,250.91ZM99.84,266.33c-19.3,5.52-20-15.88-20-15.88C90.19,243.56,99.84,266.33,99.84,266.33Zm-36.22-30c-14.24-6.64-7.19-25.64-7.19-25.64,12.47-1.72,21.52,5.58,26.65,11.54A8.1,8.1,0,0,1,81.88,234,17.85,17.85,0,0,1,63.62,236.29ZM135.81,329c-5.14-2.46-10.17-4.95-15.42-7-2.59-1.12-5.35-1.72-8-2.62-1.34-.39-2.71-.55-4.08-.85a28.75,28.75,0,0,0-4.1-.6,31.19,31.19,0,0,0-16.15,1.66A24.35,24.35,0,0,0,81.28,324a20.74,20.74,0,0,0-4.92,6.45L75.08,330c-2.11-7.6,2-15.72,8.61-20.45a31.36,31.36,0,0,1,22-5.22,43.33,43.33,0,0,1,10.08,2.57c1.51.74,3,1.4,4.46,2.24a22.93,22.93,0,0,1,4.12,2.68,38.84,38.84,0,0,1,7,6.86,36.68,36.68,0,0,1,2.82,4.27,30.56,30.56,0,0,1,2.29,4.81Zm14.1-92.66A17.79,17.79,0,0,1,131.68,234a8.1,8.1,0,0,1-1.2-11.78c5.14-6,14.16-13.26,26.65-11.54C157.13,210.65,164.15,229.65,149.91,236.29Z" style="fill:#5b7077"/><path d="M124.08,367H81.72a24.65,24.65,0,0,1-18.49-8.35L49.81,343.44a117.15,117.15,0,0,1-10.62-17.2C21.54,312.11,3.36,276,5.36,267.17l.39-1.74L7,266.68c.15.15,15,14.66,31.24,25.45A12,12,0,0,0,41.68,285l1.14-13.09a11.33,11.33,0,0,0-5-10.57c-6.24-4.06-11.32-12.4-11.32-18.6,0-4,2.73-8.54,7.34-12.34a95.1,95.1,0,0,1-9.23-23.68C14.06,203.14,1.5,197.5.21,190.36L0,189.19H1.18c.09,0,9.11-.19,22.06-6,.14-24,8.05-46.68,22.33-64C60.17,101.52,79.86,91.51,101,91c1.2-.06,2.5,0,3.81,0,42.62,1,78.66,44.75,79,95.77,12.66,5.59,20.34,2.49,20.42,2.46l1.7-.72-.33,1.82c-1.29,7.14-13.84,12.78-24.38,16.31A95.88,95.88,0,0,1,172,230.35c4.61,3.8,7.34,8.37,7.34,12.34,0,6.2-5.09,14.54-11.33,18.6a11.33,11.33,0,0,0-5,10.57L164.09,285a11.83,11.83,0,0,0,3.7,7.51c.33.31.65.64,1,1,17-10.88,33.12-26.6,33.28-26.76l1.28-1.25.4,1.75c2.15,9.5-19,51.35-39,62.59A120.85,120.85,0,0,1,156,343.39l-13.46,15.3A24.63,24.63,0,0,1,124.08,367ZM41,325.41a114.72,114.72,0,0,0,10.34,16.76l13.38,15.2a22.64,22.64,0,0,0,17,7.67h42.36a22.62,22.62,0,0,0,17-7.67l13.42-15.25a118.14,118.14,0,0,0,8.64-13.57l.14-.25.26-.14c18.64-10.25,37.35-47.2,38.31-58.52-4.6,4.32-18.45,16.94-32.76,26l-.77.49-.55-.72a12.25,12.25,0,0,0-1.33-1.46,13.84,13.84,0,0,1-4.31-8.79L161,272a13.35,13.35,0,0,1,5.91-12.42c5.65-3.67,10.42-11.42,10.42-16.92,0-3.55-2.71-7.77-7.24-11.3l-.69-.53.43-.75a93.46,93.46,0,0,0,9.57-24.45l.13-.54L180,205c12.5-4.13,20.67-8.87,23-13.27-3.16.69-9.93,1.27-19.46-2.79a.89.89,0,0,1-.75.32c-.16,0-1-.06-1-1.14v-.62c0-50.24-35.28-93.48-77-94.42-.73,0-1.41,0-2.11,0-.51,0-1,0-1.57,0-41.82,1-75.82,41.69-75.82,90.82,0,.29,0,.5,0,.63,0,1.08-.85,1.14-1,1.14a.88.88,0,0,1-.75-.33c-10.31,4.53-18,5.58-21,5.83,1.87,4.55,10.2,9.53,23.24,13.84l.53.17.13.54A94,94,0,0,0,36,230.11l.43.75-.68.53c-4.54,3.53-7.24,7.75-7.24,11.3,0,5.5,4.77,13.25,10.41,16.92A13.33,13.33,0,0,1,44.81,272l-1.13,13.09a14.18,14.18,0,0,1-4.57,9l-.57.55-.7-.41c-13.51-8.89-26.24-20.51-30.61-24.62C8.1,280,24,311.69,40.63,324.83l.38.3Zm35.87,6.29-2.63-.95-.14-.49c-2.08-7.52,1.53-16.17,9-21.53a32.29,32.29,0,0,1,22.76-5.4A45,45,0,0,1,116.15,306l.09,0,1.23.6c1.09.51,2.21,1,3.29,1.68a23.73,23.73,0,0,1,4.27,2.78,39.63,39.63,0,0,1,7.16,7,38.67,38.67,0,0,1,2.89,4.38,31.74,31.74,0,0,1,2.36,5l.15.43-1.37,2.41-2.74-1.31c-4.56-2.19-8.88-4.27-13.45-6a45.8,45.8,0,0,0-5-1.68c-1-.29-2-.59-3-.93-.73-.21-1.53-.35-2.37-.51-.53-.09-1.06-.19-1.59-.31-.36-.05-.77-.13-1.18-.21a18.13,18.13,0,0,0-2.73-.36h-.13a29.91,29.91,0,0,0-15.63,1.61,22.69,22.69,0,0,0-6.45,4.2,19.91,19.91,0,0,0-4.72,6.17ZM101.46,305a30.16,30.16,0,0,0-17.2,5.34c-6.58,4.73-9.89,12.21-8.36,18.8a21.68,21.68,0,0,1,4.71-5.9,25.37,25.37,0,0,1,7-4.59,32.13,32.13,0,0,1,16.67-1.76,19.52,19.52,0,0,1,3,.4l1.17.21c.56.12,1.07.21,1.58.31a26,26,0,0,1,2.61.56c1,.35,2,.64,3,.93a42.76,42.76,0,0,1,5.15,1.74c4.6,1.78,9.16,4,13.56,6.08l1,.5a31.75,31.75,0,0,0-2.06-4.21,34.88,34.88,0,0,0-2.75-4.16,38,38,0,0,0-6.83-6.69,22.59,22.59,0,0,0-4-2.56c-1.05-.62-2.08-1.11-3.18-1.63l-1.2-.58a42.57,42.57,0,0,0-9.81-2.49A28.52,28.52,0,0,0,101.46,305Zm13.44-36.31a22.84,22.84,0,0,1-6.21-.95l-1.09-.32.45-1c.26-.61,6.46-15,14.57-17.43a7.87,7.87,0,0,1,6.91,1.11l.46.31V251c0,.42-.41,10.45-7,15.28A13.3,13.3,0,0,1,114.9,268.71Zm-4.53-2.58c4.66,1.11,8.49.6,11.4-1.51,5-3.64,6-11.07,6.17-13.17a5.78,5.78,0,0,0-4.74-.57C117.15,252.69,111.94,262.81,110.37,266.13Zm-16.45,2.11a13.28,13.28,0,0,1-8-2.47c-6.61-4.82-7-14.86-7-15.29l0-.55.46-.31a7.91,7.91,0,0,1,6.91-1.12c8.11,2.43,14.29,16.83,14.55,17.44l.44,1-1.09.31A22.71,22.71,0,0,1,93.92,268.24ZM80.9,251c.18,2.11,1.17,9.54,6.17,13.18,2.9,2.11,6.72,2.62,11.37,1.5-1.57-3.32-6.77-13.43-12.8-15.24A5.82,5.82,0,0,0,80.9,251Zm62-12.13a19.45,19.45,0,0,1-11.79-4.09,9.07,9.07,0,0,1-3.59-7.24,9.23,9.23,0,0,1,2.24-6c5.51-6.38,14.76-13.64,27.55-11.87l.59.08.21.57c.07.19,7.17,19.94-7.73,26.89A17.75,17.75,0,0,1,142.86,238.85Zm10.57-27.46c-10.08,0-17.54,6.05-22.19,11.45a7.09,7.09,0,0,0,1,10.33,16.7,16.7,0,0,0,17.2,2.22h0c12.07-5.62,7.93-20.65,6.9-23.81A25.13,25.13,0,0,0,153.43,211.39ZM70.68,238.84a17.67,17.67,0,0,1-7.48-1.64c-14.9-6.95-7.78-26.7-7.7-26.9l.2-.56.6-.08c12.78-1.76,22,5.48,27.54,11.87a9.23,9.23,0,0,1,2.24,6,9.07,9.07,0,0,1-3.59,7.24A19.6,19.6,0,0,1,70.68,238.84Zm-13.5-27.27c-1,3.16-5.2,18.19,6.87,23.81h0a16.79,16.79,0,0,0,17.23-2.22,7.11,7.11,0,0,0,1-10.33C77.23,216.93,68.76,210.23,57.18,211.57Z" style="fill:#fff"/><path d="M94.51,53H115a4.43,4.43,0,0,1,4.43,4.43V94.8a0,0,0,0,1,0,0H90.08a0,0,0,0,1,0,0V57.41A4.43,4.43,0,0,1,94.51,53Z" style="fill:#606c6c"/><path d="M120.39,95.8H89.08V57.41A5.44,5.44,0,0,1,94.51,52H115a5.43,5.43,0,0,1,5.42,5.43Zm-29.31-2h27.31V57.41A3.43,3.43,0,0,0,115,54H94.51a3.44,3.44,0,0,0-3.43,3.43Z" style="fill:#fff"/><path d="M183,163.94a100.61,100.61,0,0,0-4.83-23.54c-7.17-21-27.53-40-48.06-47.75a82.64,82.64,0,0,0-27.26-5.07,82.69,82.69,0,0,0-27.26,5.07c-20.52,7.79-38.15,26.73-45.31,47.75a100.12,100.12,0,0,0-4.84,23.54c-.33,3.93-1.36,15.93-1.26,19.89,0,.88.17,0,.19-.4.28-6.14,7.34-15.5,10.6-20.3,5.8-8.57,12.85-16.94,21-23.41,7.17-5.73,17.51-11.62,27-8.21,4.41,1.59,8.41,5,12.2,7.73.52.37,7.73,6,7.75,5.95,9-6.82,21.26-15.87,33.39-14.75,25.53,2.38,41.57,35.32,46.49,57-.41-1.8.6-10.24.63-11.66A106,106,0,0,0,183,163.94Z" style="fill:#11141d"/><path d="M181.8,187.65h0c-4.18-18.37-19.08-53.74-45.62-56.21-11.92-1.11-24.42,8.31-32.68,14.55-.62.47-.62.47-4.94-2.86-1.76-1.36-3.75-2.9-4-3.07-.82-.59-1.64-1.2-2.48-1.83-3-2.25-6.15-4.58-9.48-5.78-9.08-3.27-19.15,2.57-26,8.05a104.53,104.53,0,0,0-20.76,23.19c-.4.6-.86,1.26-1.37,2-3.29,4.75-8.82,12.71-9,17.8,0,.47-.08,1.73-1.13,1.73h0c-.46,0-1-.25-1-1.36-.1-3.76.81-14.56,1.19-19.17l.07-.83a101,101,0,0,1,4.89-23.77c7.35-21.59,25.37-40.57,45.91-48.36a83.13,83.13,0,0,1,27.6-5.14,83.16,83.16,0,0,1,27.63,5.14c21.75,8.25,41.75,28.14,48.64,48.36A101,101,0,0,1,184,163.85h0a105.88,105.88,0,0,1,.36,12c0,.45-.1,1.44-.23,2.82-.23,2.62-.67,7.48-.42,8.59h0Zm-47.58-58.3c.72,0,1.43,0,2.15.1C161.09,131.75,176,161,182,180.62c.06-.7.12-1.43.19-2.18.11-1.23.21-2.3.22-2.69a106.58,106.58,0,0,0-.35-11.73h0a99.58,99.58,0,0,0-4.79-23.3C170.55,121,151,101.64,129.8,93.59a81,81,0,0,0-26.92-5,80.84,80.84,0,0,0-26.89,5c-20,7.59-37.56,26.09-44.73,47.13A99.58,99.58,0,0,0,26.47,164l-.07.82c-.22,2.65-.61,7.33-.88,11.53a88.53,88.53,0,0,1,7.3-11.83c.5-.72,1-1.38,1.36-2a106.35,106.35,0,0,1,21.16-23.63c7.26-5.8,18-12,27.94-8.37,3.6,1.3,6.85,3.72,10,6.06l2.45,1.8c.26.18,1.78,1.35,4.07,3.12l3.1,2.39C110.92,137.89,122.54,129.35,134.22,129.35Z" style="fill:#fff"/></g></g></svg>