<svg xmlns="http://www.w3.org/2000/svg" viewBox="0 0 276.19 371.61"><title>Owlbear</title><g id="ba856d5d-1a96-4eb2-b6ff-5c27683f07e6" data-name="Layer 2"><g id="ef6cff6b-c219-46cc-951a-40024b95bfa8" data-name="Layer 1"><path d="M241.65,152.46l-.19-.19s22-4.3,33.27-31.66c0,0-77.81-3.75-75.65-32.71s-8.05-66-8.05-66S175.54,62.21,173.46,81C174,74.25,175.68,36.1,146,1.52c0,0-3.39,3.85-7.86,9.74-4.5-5.89-7.88-9.74-7.88-9.74-29.21,34-28.1,71.42-27.54,79.08-2.23-18.91-17.54-58.7-17.54-58.7s-10.19,37-8,66S1.46,120.61,1.46,120.61C12.72,148,34.72,152.27,34.72,152.27l-.24.23c-.82.8-1.62,1.59-2.38,2.39-63.6,65.7,10.49,184.6,13.77,189.8-9.42-17,9.24-20.75,9.24-20.75-6.38,25,30.29,43.75,36.64,46.77-15.6-7.92-12.5-30.13-12.5-30.13,23.28,23.78,55.13,29.42,58.67,30a.65.65,0,0,0,.18,0l.15,0c3.55-.57,35.4-6.21,58.67-30,0,0,3.12,22.21-12.49,30.13,6.35-3,43-21.76,36.64-46.77,0,0,18.66,3.75,9.23,20.75,3.3-5.2,77.76-124.7,13.32-190.29C243,153.76,242.33,153.09,241.65,152.46ZM92,183.34c7.3,22,30.07,22.25,31,22.25-3,.72-12,3.1-15.46,7.45a10.82,10.82,0,0,1-13,2.79C85.38,211.56,77,202.42,92,183.34Zm45.94,113.59c-5.77-10-22.82-35.81-40.36-34.75a34.54,34.54,0,0,0,22.7-17.64l5.35,16.63,5.38-14,6.93,26.83,6.94-26.83,5.37,14,5.36-16.63a34.5,34.5,0,0,0,22.69,17.64C160.74,261.12,143.69,286.89,137.92,296.93Zm43.43-81.1a10.82,10.82,0,0,1-13-2.79c-3.45-4.36-12.5-6.74-15.49-7.45,16-3.28,31-22.25,31-22.25C198.88,202.42,190.46,211.56,181.35,215.83Z" style="fill:#684b73"/><path d="M184.86,371.61l-.89-1.79c12.06-6.12,12.43-21.42,12.14-27-23.3,22.68-54.18,28.19-57.7,28.75h-.16a1.13,1.13,0,0,1-.52,0c-3.48-.55-34.36-6.06-57.66-28.74-.29,5.6.1,20.9,12.13,27l-.88,1.79c-7.2-3.42-42.16-21.48-37.55-46.26-2.38.77-6.89,2.72-8.73,6.7-1.51,3.29-.94,7.38,1.71,12.16l-1.72,1c-2.14-3.39-21.2-34.24-32.09-72.48-6.37-22.38-8.72-43-7-61.31,2.17-22.8,10.72-42.06,25.42-57.24.45-.48.91-.95,1.39-1.42C27.23,151.06,10,144,.54,121L0,119.68l1.42-.06c.54,0,55-2.86,70.64-20.51a14.79,14.79,0,0,0,4-11.14c-2.15-28.82,8-66,8.07-66.34L85,18.7l1.09,2.84C86.6,22.9,97,49.91,101.66,69.76A115.75,115.75,0,0,1,129.46.87l.75-.87.76.86s3.06,3.48,7.12,8.76c4.06-5.28,7.09-8.72,7.12-8.76L146,0l.75.87a114.88,114.88,0,0,1,27.83,68.79c4.72-19.84,15-46.75,15.55-48.12l1.09-2.84.8,2.93c.11.38,10.22,37.52,8.09,66.34a14.75,14.75,0,0,0,4,11.14c15.61,17.65,70.1,20.48,70.64,20.51l1.42.06-.54,1.32c-9.48,23-26.71,30.06-32.24,31.78l.53.53.39.39c65,66.15-10,186.44-13.18,191.53l-1.72-1c2.65-4.78,3.22-8.88,1.7-12.17-1.85-4-6.35-5.92-8.73-6.7C227,350.14,192.05,368.19,184.86,371.61ZM78.54,338.43,80,339.88c23,23.5,54.58,29.14,58.11,29.7h.09c3.86-.63,35.18-6.34,58-29.69l1.42-1.45.28,2c0,.19,2,14.78-5.48,24.79,12.24-7.36,32.37-22.6,27.67-41l-.39-1.54,1.55.31c.36.07,8.71,1.82,11.68,8.25a11.32,11.32,0,0,1,1,5.39c15.86-27.94,64.41-125,9-181.5l-.39-.38c-.51-.51-1-1-1.55-1.52l-1.54-1.54,1.84-.37c.21,0,20.91-4.41,32-29.76-9-.56-55.71-4.24-70.62-21.1a16.65,16.65,0,0,1-4.54-12.6c1.75-23.7-4.9-53.18-7.24-62.61-3.58,9.64-14.68,40.38-16.4,55.87l-2-.19c.6-7.09,2.1-43.9-26.51-77.84-1.24,1.45-3.88,4.62-7.06,8.81l-.79,1-.8-1c-3.19-4.18-5.84-7.36-7.08-8.81C102,36.58,103.16,73.43,103.68,80.53l-2,.19c-1.84-15.59-12.81-45.94-16.37-55.5-2.33,9.43-9,38.91-7.22,62.61a16.69,16.69,0,0,1-4.54,12.6C58.64,117.29,11.92,121,2.94,121.53c11.05,25.35,31.76,29.72,32,29.76l1.82.36L35.43,153l-.28.26,0,0c-.78.77-1.55,1.52-2.27,2.29-26.24,27.1-32.28,66.33-18,116.63,8.05,28.28,20.6,52.48,27.36,64.38a11.18,11.18,0,0,1,1-5.38c3-6.43,11.33-8.18,11.68-8.25l1.56-.31-.39,1.54c-4.71,18.44,15.43,33.68,27.68,41-7.44-10-5.52-24.6-5.5-24.79Zm59.38-39.49-.87-1.51c-3.33-5.81-20.61-34.28-38.44-34.28l-1,0-.29-2a33.44,33.44,0,0,0,22-17.13l1.11-2.09,5.22,16.18L131.17,244l6.75,26.09L144.67,244l5.48,14.21L155.36,242l1.11,2.09a33.48,33.48,0,0,0,22,17.13l-.29,2-1,0c-17.83,0-35.11,28.47-38.44,34.28Zm-35.16-37.36c15.82,3.31,29.87,24.46,35.16,33.37,5.29-8.91,19.35-30.06,35.16-33.37A35.07,35.07,0,0,1,155.84,247l-5.53,17.16L145,250.49,137.92,278l-7.12-27.55-5.27,13.68L120,247A35.07,35.07,0,0,1,102.76,261.58Zm73.83-43.69a11.51,11.51,0,0,1-9.05-4.22c-3.13-4-11.49-6.29-14.94-7.11l-4.4-1,4.43-.91c15.43-3.17,30.3-21.71,30.45-21.9l.78-1,.79,1c6.81,8.65,9.52,16.18,8,22.36-1.16,4.88-4.83,8.8-10.92,11.66h0A12.21,12.21,0,0,1,176.59,217.89Zm-19.94-12.31c4.42,1.33,9.84,3.54,12.46,6.84a9.83,9.83,0,0,0,11.82,2.51h0c5.51-2.59,8.82-6.06,9.82-10.32,1.27-5.33-1.06-11.94-6.91-19.67C180.75,188.6,169.44,201.22,156.65,205.58ZM99.26,217.89a12.25,12.25,0,0,1-5.2-1.15C88,213.88,84.3,210,83.14,205.08c-1.46-6.18,1.25-13.71,8.06-22.36l1.15-1.46.58,1.76c7.06,21.32,29.12,21.57,30.05,21.57h8.47l-8.24,2c-3.44.83-11.8,3.17-14.9,7.1A11.55,11.55,0,0,1,99.26,217.89Zm-7.6-32.49c-5.6,7.53-7.81,14-6.57,19.21,1,4.26,4.31,7.73,9.82,10.32a9.86,9.86,0,0,0,11.83-2.51c2.32-2.93,6.88-5,11-6.38C110.4,204.74,97.44,200.33,91.66,185.4Z" style="fill:#fff"/><path d="M243.62,154.4c-.19-.71-.38-1.42-.58-2.13l-1.39.19c-8.34,1.2-51.61,8.31-56.45,27.2a20.26,20.26,0,0,1-1.34,3.68c15,19.08,6.6,28.22-2.51,32.49a10.82,10.82,0,0,1-13-2.79c-3.45-4.36-12.5-6.74-15.49-7.45a113.79,113.79,0,0,1-14.91,4.49A114.29,114.29,0,0,1,123,205.59h0c-3,.72-12,3.1-15.46,7.45a10.82,10.82,0,0,1-13,2.79C85.38,211.56,77,202.42,92,183.34a21.88,21.88,0,0,1-1.34-3.68C85.85,161,43.46,153.82,34.48,152.5l-1.67-.23c-.25.89-.49,1.75-.71,2.62-46,168.59,105.82,175.49,105.82,175.49S290,323.47,243.62,154.4ZM137.92,296.93c-5.77-10-22.82-35.81-40.36-34.75a34.54,34.54,0,0,0,22.7-17.64l5.35,16.63,5.38-14,6.93,26.83,6.94-26.83,5.37,14,5.36-16.63a34.5,34.5,0,0,0,22.69,17.64C160.74,261.12,143.69,286.89,137.92,296.93Z" style="fill:#d9c0bf"/><path d="M138,331.38c-.71,0-62.16-3.32-95-48.38-22.63-31.07-26.62-74.26-11.86-128.37.22-.86.46-1.74.72-2.63l.23-.83,2.53.33c12.16,1.8,52.18,9.1,57,27.92a19.36,19.36,0,0,0,1.28,3.49l.26.56-.38.49c-6.42,8.15-9,15.1-7.68,20.65,1,4.26,4.31,7.73,9.82,10.32a9.86,9.86,0,0,0,11.83-2.51c3.36-4.26,11.47-6.72,16-7.8l.42,0,.2.06a115.6,115.6,0,0,0,14.55,4.41,116,116,0,0,0,14.56-4.41l.28-.11.3.08c4.54,1.07,12.65,3.51,16.05,7.8a9.83,9.83,0,0,0,11.82,2.51c5.51-2.59,8.82-6.06,9.82-10.32,1.32-5.55-1.26-12.5-7.68-20.65l-.38-.49.27-.56a19.93,19.93,0,0,0,1.27-3.5c5-19.47,48.59-26.69,57.28-27.94l1.4-.19.85-.11.24.83c.2.71.39,1.43.58,2.14,14.91,54.3,11,97.63-11.67,128.79C200.1,328.05,138.58,331.36,138,331.38Zm-104.43-178c-.17.59-.32,1.17-.47,1.76-14.6,53.51-10.72,96.13,11.54,126.68,32.25,44.29,92.75,47.54,93.36,47.57s61.1-3.3,93.33-47.65c22.27-30.64,26.09-73.4,11.35-127.07h0c-.11-.43-.23-.85-.34-1.28l-.52.07c-8.47,1.22-50.95,8.22-55.62,26.46A21.65,21.65,0,0,1,185,183.2c6.54,8.45,9.12,15.81,7.68,21.88-1.16,4.88-4.83,8.8-10.92,11.66a11.87,11.87,0,0,1-14.24-3.07c-3-3.86-11-6.16-14.64-7a117.53,117.53,0,0,1-14.77,4.43l-.21,0-.21,0a118.08,118.08,0,0,1-14.77-4.43c-3.6.88-11.61,3.2-14.63,7a11.88,11.88,0,0,1-14.25,3.08C88,213.88,84.3,210,83.14,205.08c-1.44-6.07,1.15-13.43,7.68-21.88a21.88,21.88,0,0,1-1.14-3.28C85,161.84,42.76,154.73,34.33,153.48ZM137.92,298.94l-.87-1.51c-3.33-5.81-20.61-34.28-38.44-34.28l-1,0-.29-2a33.44,33.44,0,0,0,22-17.13l1.11-2.09,5.22,16.18L131.17,244l6.75,26.09L144.67,244l5.48,14.21L155.36,242l1.11,2.09a33.48,33.48,0,0,0,22,17.13l-.29,2-1,0c-17.83,0-35.11,28.47-38.44,34.28Zm-35.16-37.36c15.82,3.31,29.87,24.46,35.16,33.37,5.29-8.91,19.35-30.06,35.16-33.37A35.07,35.07,0,0,1,155.84,247l-5.53,17.16L145,250.49,137.92,278l-7.12-27.55-5.27,13.68L120,247A35.07,35.07,0,0,1,102.76,261.58Z" style="fill:#fff"/></g></g></svg>