<svg xmlns="http://www.w3.org/2000/svg" viewBox="0 0 380.05 435.07"><defs><style>.cls-1{fill:#2d2d2d;}.cls-2{fill:#df0b13;}.cls-3{fill:none;stroke:#fff;stroke-miterlimit:10;stroke-width:5px;}</style></defs><title>Paladin</title><g id="Layer_2" data-name="Layer 2"><g id="Layer_1-2" data-name="Layer 1"><polygon class="cls-1" points="353.3 217.46 351.89 310.98 271.72 358.89 190.03 404.43 108.46 358.96 28.17 310.98 26.75 217.6 28.17 124.08 108.33 76.17 190.03 30.64 271.61 76.11 351.89 124.08 353.3 217.46"/><path class="cls-1" d="M190,435.07,95.08,382.14,1.64,326.3,0,217.61,1.64,108.77,95,53,190,0,285,52.93l93.45,55.84,1.63,108.69L378.42,326.3l-93.31,55.76ZM11.78,320.45l88.41,52.84L190,423.36l90-50.15,88.28-52.76,1.55-103-1.55-102.84L279.86,61.78,190,11.71l-90,50.15L11.78,114.62l-1.55,103Z"/><path class="cls-2" d="M201.63,341.48c-.19-12.21-.68-19.42-1-31.64-.47-16.64,2-32.35,12.87-45.93,3.18-4,5.1-9,7.74-13.76-14.31-1.91-25.42,5.2-30.11,17.78-4-4.18-8.24-8.69-12.55-13.16-5.1-5.31-11.58-5.63-19.43-4.92,2.64,4.9,4.43,9.91,7.6,13.81,10.81,13.33,13.52,28.72,13.06,45.24-.66,23.48-1.06,47-1.58,70.44,0,.93-.09,1.85-.21,4.07-13.07-32.09-28.67-61.12-54.19-85.06,6.89,2.3,13,1.76,17.63-2.84,2.79-2.78,5.8-6.67,6.17-10.32,1.5-14.66,2.07-29.42,2.85-44.15.46-8.75-.76-10-11.44-11.09-.78,7.75-3,15.71-2,23.24,1.31,9.8-3,15.71-9.68,21.66l-13.47-6.54,7.08-3.77c-10.42.39-16.92-4.41-19.76-14.9l10.49,1.11c-9-5.49-19-9.93-17-23.64l6.57,3c-3.85-7.07-8.66-13.36-10.73-20.45s-1.34-14.95-1.85-22.47l1.2-.26,5.46,9.23,1.5-.49c-1.33-7.88-1.87-16-4.17-23.6-4-13.17,2.44-24.07,6.92-35.86L105,155.93l1.16-.26c-1.47-8-3-15.9-4.38-23.86-1.7-9.66,1.83-17.86,9.06-23.6,8-6.31,11.75-14.54,15.83-23.66,0,3.33.59,6.78-.11,10-1.77,7.92-3.54,15.94-6.4,23.5a51,51,0,0,0-2.5,29.13c1.22,5.89,2.38,11.8,3.73,17.67,2.32,10,16.54,21.91,25.34,20.79,2.79-.35,5.39-2.21,8.74-3.67l5.2,4.09,29.59-35.69,29.27,35.47,5.92-4.47c7.65,6.83,16,6.11,22.63-1.5,16.92-19.3,19-41.07,10.75-64.47-3.65-10.28-6.53-20.57-5-31.69,2.29,4.94,4.16,9.84,6.77,14.3a36.61,36.61,0,0,0,7.28,8.75c8.59,7.58,13.14,16.35,10.28,28.12-1.68,6.9-2.82,13.94-4.2,20.91l1.46.36,5.5-20.18c12.82,19.53,5.46,39.87,4,60.38l5.38-9.44,1.17.35c-.52,7.64.16,15.63-1.91,22.82s-6.92,13.54-10.67,20.48l7-3.68c1.85,13.75-7.68,18.54-17.32,23.91l11-1.19c-3.64,9.83-9.12,16-20.69,13.28l.26,1.55,7,3.89-13,6.54c-7.33-5.88-11.31-12.14-10-22.07,1-7.35-1.25-15.14-2.05-22.66-10.34.8-11.65,2.14-11.16,10.39.87,14.33,1.61,28.67,2.75,43,.93,11.89,9.85,18.09,21.5,15.44a13.39,13.39,0,0,1,2-.13c-24.62,23.31-41.54,52.87-53.88,83.7Z"/><path class="cls-3" d="M201.63,341.48c-.19-12.21-.68-19.42-1-31.64-.47-16.64,2-32.35,12.87-45.93,3.18-4,5.1-9,7.74-13.76-14.31-1.91-25.42,5.2-30.11,17.78-4-4.18-8.24-8.69-12.55-13.16-5.1-5.31-11.58-5.63-19.43-4.92,2.64,4.9,4.43,9.91,7.6,13.81,10.81,13.33,13.52,28.72,13.06,45.24-.66,23.48-1.06,47-1.58,70.44,0,.93-.09,1.85-.21,4.07-13.07-32.09-28.67-61.12-54.19-85.06,6.89,2.3,13,1.76,17.63-2.84,2.79-2.78,5.8-6.67,6.17-10.32,1.5-14.66,2.07-29.42,2.85-44.15.46-8.75-.76-10-11.44-11.09-.78,7.75-3,15.71-2,23.24,1.31,9.8-3,15.71-9.68,21.66l-13.47-6.54,7.08-3.77c-10.42.39-16.92-4.41-19.76-14.9l10.49,1.11c-9-5.49-19-9.93-17-23.64l6.57,3c-3.85-7.07-8.66-13.36-10.73-20.45s-1.34-14.95-1.85-22.47l1.2-.26,5.46,9.23,1.5-.49c-1.33-7.88-1.87-16-4.17-23.6-4-13.17,2.44-24.07,6.92-35.86L105,155.93l1.16-.26c-1.47-8-3-15.9-4.38-23.86-1.7-9.66,1.83-17.86,9.06-23.6,8-6.31,11.75-14.54,15.83-23.66,0,3.33.59,6.78-.11,10-1.77,7.92-3.54,15.94-6.4,23.5a51,51,0,0,0-2.5,29.13c1.22,5.89,2.38,11.8,3.73,17.67,2.32,10,16.54,21.91,25.34,20.79,2.79-.35,5.39-2.21,8.74-3.67l5.2,4.09,29.59-35.69,29.27,35.47,5.92-4.47c7.65,6.83,16,6.11,22.63-1.5,16.92-19.3,19-41.07,10.75-64.47-3.65-10.28-6.53-20.57-5-31.69,2.29,4.94,4.16,9.84,6.77,14.3a36.61,36.61,0,0,0,7.28,8.75c8.59,7.58,13.14,16.35,10.28,28.12-1.68,6.9-2.82,13.94-4.2,20.91l1.46.36,5.5-20.18c12.82,19.53,5.46,39.87,4,60.38l5.38-9.44,1.17.35c-.52,7.64.16,15.63-1.91,22.82s-6.92,13.54-10.67,20.48l7-3.68c1.85,13.75-7.68,18.54-17.32,23.91l11-1.19c-3.64,9.83-9.12,16-20.69,13.28l.26,1.55,7,3.89-13,6.54c-7.33-5.88-11.31-12.14-10-22.07,1-7.35-1.25-15.14-2.05-22.66-10.34.8-11.65,2.14-11.16,10.39.87,14.33,1.61,28.67,2.75,43,.93,11.89,9.85,18.09,21.5,15.44a13.39,13.39,0,0,1,2-.13c-24.62,23.31-41.54,52.87-53.88,83.7Z"/><path class="cls-2" d="M201.63,341.48c-.19-12.21-.68-19.42-1-31.64-.47-16.64,2-32.35,12.87-45.93,3.18-4,5.1-9,7.74-13.76-14.31-1.91-25.42,5.2-30.11,17.78-4-4.18-8.24-8.69-12.55-13.16-5.1-5.31-11.58-5.63-19.43-4.92,2.64,4.9,4.43,9.91,7.6,13.81,10.81,13.33,13.52,28.72,13.06,45.24-.66,23.48-1.06,47-1.58,70.44,0,.93-.09,1.85-.21,4.07-13.07-32.09-28.67-61.12-54.19-85.06,6.89,2.3,13,1.76,17.63-2.84,2.79-2.78,5.8-6.67,6.17-10.32,1.5-14.66,2.07-29.42,2.85-44.15.46-8.75-.76-10-11.44-11.09-.78,7.75-3,15.71-2,23.24,1.31,9.8-3,15.71-9.68,21.66l-13.47-6.54,7.08-3.77c-10.42.39-16.92-4.41-19.76-14.9l10.49,1.11c-9-5.49-19-9.93-17-23.64l6.57,3c-3.85-7.07-8.66-13.36-10.73-20.45s-1.34-14.95-1.85-22.47l1.2-.26,5.46,9.23,1.5-.49c-1.33-7.88-1.87-16-4.17-23.6-4-13.17,2.44-24.07,6.92-35.86L105,155.93l1.16-.26c-1.47-8-3-15.9-4.38-23.86-1.7-9.66,1.83-17.86,9.06-23.6,8-6.31,11.75-14.54,15.83-23.66,0,3.33.59,6.78-.11,10-1.77,7.92-3.54,15.94-6.4,23.5a51,51,0,0,0-2.5,29.13c1.22,5.89,2.38,11.8,3.73,17.67,2.32,10,16.54,21.91,25.34,20.79,2.79-.35,5.39-2.21,8.74-3.67l5.2,4.09,29.59-35.69,29.27,35.47,5.92-4.47c7.65,6.83,16,6.11,22.63-1.5,16.92-19.3,19-41.07,10.75-64.47-3.65-10.28-6.53-20.57-5-31.69,2.29,4.94,4.16,9.84,6.77,14.3a36.61,36.61,0,0,0,7.28,8.75c8.59,7.58,13.14,16.35,10.28,28.12-1.68,6.9-2.82,13.94-4.2,20.91l1.46.36,5.5-20.18c12.82,19.53,5.46,39.87,4,60.38l5.38-9.44,1.17.35c-.52,7.64.16,15.63-1.91,22.82s-6.92,13.54-10.67,20.48l7-3.68c1.85,13.75-7.68,18.54-17.32,23.91l11-1.19c-3.64,9.83-9.12,16-20.69,13.28l.26,1.55,7,3.89-13,6.54c-7.33-5.88-11.31-12.14-10-22.07,1-7.35-1.25-15.14-2.05-22.66-10.34.8-11.65,2.14-11.16,10.39.87,14.33,1.61,28.67,2.75,43,.93,11.89,9.85,18.09,21.5,15.44a13.39,13.39,0,0,1,2-.13c-24.62,23.31-41.54,52.87-53.88,83.7Z"/></g></g></svg>