<svg xmlns="http://www.w3.org/2000/svg" viewBox="0 0 207.97 322.08"><defs><style>.cls-1{fill:#df0b13;}.cls-2{fill:#fff;}</style></defs><title>Paladin</title><g id="Layer_2" data-name="Layer 2"><g id="Layer_1-2" data-name="Layer 1"><path class="cls-1" d="M115.59,268.62c-.18-12.22-.67-19.43-1-31.64-.47-16.64,2-32.35,12.87-45.93,3.17-4,5.1-9,7.73-13.76-14.3-1.92-25.41,5.19-30.1,17.78-4-4.18-8.25-8.69-12.55-13.17-5.11-5.3-11.58-5.62-19.43-4.91,2.64,4.9,4.43,9.91,7.59,13.81C91.49,204.13,94.21,219.52,93.75,236c-.66,23.48-1.06,47-1.58,70.45,0,.92-.1,1.85-.22,4.06-13.06-32.08-28.66-61.11-54.19-85.05,6.9,2.3,13,1.76,17.64-2.85,2.79-2.77,5.79-6.66,6.16-10.31,1.5-14.66,2.08-29.42,2.86-44.15.46-8.75-.76-10-11.45-11.09-.78,7.74-3,15.71-2,23.24,1.32,9.8-3,15.71-9.67,21.66l-13.48-6.54,7.08-3.77c-10.41.38-16.91-4.41-19.75-14.91l10.49,1.12c-9-5.49-18.95-9.93-17-23.65l6.57,3c-3.84-7.07-8.66-13.36-10.72-20.45s-1.35-15-1.85-22.47l1.2-.27,5.46,9.24,1.5-.49c-1.33-7.89-1.87-16-4.17-23.6C2.65,86,9.07,75.12,13.55,63.33L19,83.07l1.15-.27c-1.46-8-3-15.89-4.37-23.86-1.7-9.65,1.82-17.85,9.06-23.6,8-6.3,11.74-14.53,15.83-23.65,0,3.32.59,6.78-.12,9.94-1.77,7.93-3.53,15.94-6.4,23.51a51,51,0,0,0-2.49,29.13c1.22,5.89,2.38,11.8,3.73,17.66C37.67,102,51.9,113.85,60.7,112.73c2.79-.36,5.39-2.22,8.73-3.67l5.21,4.09,29.59-35.69,29.26,35.47,5.92-4.47c7.66,6.83,16,6.1,22.64-1.5,16.92-19.31,19-41.07,10.74-64.48-3.64-10.28-6.53-20.56-5-31.68,2.29,4.93,4.16,9.84,6.77,14.3a36.61,36.61,0,0,0,7.28,8.75c8.59,7.58,13.13,16.35,10.27,28.12-1.67,6.9-2.81,13.94-4.19,20.91l1.46.35,5.5-20.18c12.82,19.53,5.45,39.87,4,60.39l5.38-9.45,1.17.36c-.53,7.64.16,15.63-1.92,22.82s-6.92,13.54-10.67,20.48l7-3.68c1.84,13.75-7.68,18.54-17.33,23.91l11-1.2c-3.64,9.84-9.12,16-20.69,13.29l.26,1.54,7,3.9L167,202c-7.34-5.88-11.32-12.14-10-22.08,1-7.35-1.26-15.14-2.05-22.65-10.35.79-11.66,2.14-11.16,10.38.87,14.34,1.61,28.68,2.74,43,.94,11.88,9.86,18.09,21.51,15.44a13.34,13.34,0,0,1,2-.13c-24.61,23.31-41.53,52.86-53.87,83.69Z"/><path class="cls-1" d="M115.59,268.62c-.18-12.22-.67-19.43-1-31.64-.47-16.64,2-32.35,12.87-45.93,3.17-4,5.1-9,7.73-13.76-14.3-1.92-25.41,5.19-30.1,17.78-4-4.18-8.25-8.69-12.55-13.17-5.11-5.3-11.58-5.62-19.43-4.91,2.64,4.9,4.43,9.91,7.59,13.81C91.49,204.13,94.21,219.52,93.75,236c-.66,23.48-1.06,47-1.58,70.45,0,.92-.1,1.85-.22,4.06-13.06-32.08-28.66-61.11-54.19-85.05,6.9,2.3,13,1.76,17.64-2.85,2.79-2.77,5.79-6.66,6.16-10.31,1.5-14.66,2.08-29.42,2.86-44.15.46-8.75-.76-10-11.45-11.09-.78,7.74-3,15.71-2,23.24,1.32,9.8-3,15.71-9.67,21.66l-13.48-6.54,7.08-3.77c-10.41.38-16.91-4.41-19.75-14.91l10.49,1.12c-9-5.49-18.95-9.93-17-23.65l6.57,3c-3.84-7.07-8.66-13.36-10.72-20.45s-1.35-15-1.85-22.47l1.2-.27,5.46,9.24,1.5-.49c-1.33-7.89-1.87-16-4.17-23.6C2.65,86,9.07,75.12,13.55,63.33L19,83.07l1.15-.27c-1.46-8-3-15.89-4.37-23.86-1.7-9.65,1.82-17.85,9.06-23.6,8-6.3,11.74-14.53,15.83-23.65,0,3.32.59,6.78-.12,9.94-1.77,7.93-3.53,15.94-6.4,23.51a51,51,0,0,0-2.49,29.13c1.22,5.89,2.38,11.8,3.73,17.66C37.67,102,51.9,113.85,60.7,112.73c2.79-.36,5.39-2.22,8.73-3.67l5.21,4.09,29.59-35.69,29.26,35.47,5.92-4.47c7.66,6.83,16,6.1,22.64-1.5,16.92-19.31,19-41.07,10.74-64.48-3.64-10.28-6.53-20.56-5-31.68,2.29,4.93,4.16,9.84,6.77,14.3a36.61,36.61,0,0,0,7.28,8.75c8.59,7.58,13.13,16.35,10.27,28.12-1.67,6.9-2.81,13.94-4.19,20.91l1.46.35,5.5-20.18c12.82,19.53,5.45,39.87,4,60.39l5.38-9.45,1.17.36c-.53,7.64.16,15.63-1.92,22.82s-6.92,13.54-10.67,20.48l7-3.68c1.84,13.75-7.68,18.54-17.33,23.91l11-1.2c-3.64,9.84-9.12,16-20.69,13.29l.26,1.54,7,3.9L167,202c-7.34-5.88-11.32-12.14-10-22.08,1-7.35-1.26-15.14-2.05-22.65-10.35.79-11.66,2.14-11.16,10.38.87,14.34,1.61,28.68,2.74,43,.94,11.88,9.86,18.09,21.51,15.44a13.34,13.34,0,0,1,2-.13c-24.61,23.31-41.53,52.86-53.87,83.69Z"/><path class="cls-2" d="M114,322.08l-.86-53.42c-.11-7.25-.32-12.74-.56-18.55-.15-4-.32-8.1-.46-13.06-.58-20.53,3.55-35.2,13.41-47.56a48.6,48.6,0,0,0,5.09-8.73l.64-1.27c-11.05-.19-19.81,5.76-23.8,16.45L106,199.69,99.62,193c-2.89-3.05-5.89-6.2-8.9-9.33C87.18,180,82.89,179,77,179.23l.66,1.38a43.69,43.69,0,0,0,4.94,8.62c9.84,12.14,14.17,27,13.62,46.87-.46,16.2-.8,32.67-1.12,48.6q-.22,10.92-.46,21.84c0,.6,0,1.2-.11,2.14,0,.53-.07,1.17-.11,2l-.6,11.14-4.21-10.33C74,273,58,247.85,36.05,227.31l-8.31-7.8,10.81,3.61c6.47,2.15,11.4,1.42,15.08-2.25,3.22-3.2,5.2-6.41,5.45-8.8,1.22-11.95,1.84-24.21,2.43-36.06.14-2.66.27-5.31.41-8,.35-6.5.39-7.34-6.75-8.19-.22,1.62-.47,3.23-.72,4.81-.84,5.39-1.64,10.48-1,15.34C55,191.37,49.32,198.19,43,203.85L41.72,205l-19.4-9.42,4.32-2.3c-6.94-2-11.6-7.33-13.9-15.82l-1-3.53,3.4.36c-5.85-4.28-10.48-10-9-20.37l.46-3.3,2.44,1.1c-2.74-4.5-5.51-9.17-7-14.21C.57,132.24.47,126.68.37,121.3c0-2.26-.08-4.59-.23-6.82L0,112.33l5.07-1.12,2,3.41A96.57,96.57,0,0,0,4.24,99.91C.67,88.11,4.83,78,8.86,68.29c.79-1.91,1.6-3.89,2.35-5.85L13,57.65c-1.13-9.54,2.46-18.1,10.22-24.26S34.52,19.24,38.36,10.67L43.14,0V11.69c0,1,0,2,.11,3A27.32,27.32,0,0,1,43,22.18l-.1.47c-1.74,7.76-3.53,15.79-6.4,23.37a48.52,48.52,0,0,0-2.38,27.74l.9,4.41c.89,4.34,1.81,8.83,2.81,13.2,2.05,8.89,15.14,19.83,22.59,18.88a16.42,16.42,0,0,0,4.83-1.92c1-.52,2.05-1,3.23-1.56l1.37-.6,4.46,3.51,30-36.15,29.67,36,5.65-4.26,1.53,1.37c3.23,2.88,6.51,4.23,9.74,4s6.43-2,9.35-5.32c15.44-17.62,18.8-37.9,10.27-62-4.17-11.76-6.64-21.84-5.17-32.85L166.4,2,170,9.74c.71,1.52,1.37,3,2,4.52a92.57,92.57,0,0,0,4.65,9.58A33.84,33.84,0,0,0,183.45,32c9.18,8.1,13,17,11.72,27l1.76,2.68c10.42,15.88,8.16,32.3,6,48.17-.09.59-.17,1.18-.25,1.78L203,111l5,1.54-.13,2c-.16,2.27-.2,4.64-.25,6.93-.11,5.46-.22,11.1-1.76,16.41-1.38,4.79-3.91,9.22-6.48,13.49l2.4-1.26.47,3.55c1.38,10.22-3,16.17-8.92,20.54l3.84-.42-1.4,3.79c-2.34,6.31-6.33,14-15.14,15.35l4.71,2.62-18.6,9.38-1.26-1c-9-7.19-12.22-14.47-10.87-24.36.64-4.72-.17-9.68-1-14.93-.25-1.54-.51-3.12-.73-4.7-6.89.64-6.84,1.53-6.47,7.54.21,3.51.41,7,.62,10.53.62,10.63,1.26,21.63,2.11,32.42.4,5,2.31,8.84,5.54,11.22s7.88,3.12,12.93,2a7.83,7.83,0,0,1,1.69-.16l.74,0,6.83-.4-5,4.71c-21.8,20.65-39.23,47.74-53.27,82.81ZM45.21,229.3c21.3,21.87,34.63,46.77,44.62,69.73l.3-14.44c.33-15.93.66-32.41,1.12-48.63.53-18.83-3.33-32.27-12.51-43.59a47.29,47.29,0,0,1-5.56-9.6c-.72-1.52-1.47-3.08-2.29-4.6l-1.79-3.33,3.77-.34c7.12-.65,15.24-.79,21.45,5.67,3,3.14,6,6.3,8.93,9.35l1,1.1c5.9-11.64,17.54-17.64,31.22-15.81l3.62.49-1.77,3.2c-.81,1.47-1.57,3-2.31,4.49a53.15,53.15,0,0,1-5.66,9.61c-9.07,11.38-12.87,25-12.32,44.31.14,4.92.3,9,.46,13,.23,5.84.45,11.37.56,18.67l.47,29.09c12.31-27.86,27-50.41,44.73-68.54a18.89,18.89,0,0,1-11.63-3.48c-4.37-3.22-7.06-8.5-7.56-14.86-.86-10.84-1.5-21.86-2.12-32.52-.21-3.51-.41-7-.62-10.52-.63-10.29,2.64-12.19,13.46-13l2.42-.18.25,2.41c.24,2.24.62,4.59,1,6.85.88,5.39,1.79,10.95,1,16.41-1,7.68,1.16,13,7.82,18.77l7.29-3.68-3.94-2.19-1.08-6.44,3.66.86c7.71,1.82,12.48-.41,16.15-7.9l-19,2.07,11.74-6.53c8.25-4.59,15-8.31,15.3-17.17l-10.8,5.69,3.9-7.23c1.18-2.18,2.47-4.31,3.71-6.37,2.79-4.61,5.42-9,6.76-13.62s1.45-9.44,1.55-14.62l-7.08,12.42.81-11c.34-4.74,1-9.5,1.63-14.1,1.9-13.77,3.71-26.87-2.29-39.57l-4.54,16.65L185,84.75l.46-2.36c.43-2.15.83-4.31,1.24-6.47.89-4.77,1.81-9.71,3-14.54,2.39-9.84-.54-17.75-9.5-25.66a39.06,39.06,0,0,1-7.78-9.36c-.79-1.35-1.52-2.75-2.21-4.17.7,6.21,2.54,12.51,5,19.46,9.07,25.59,5.29,48.12-11.22,67-3.78,4.31-8.21,6.73-12.8,7a17.68,17.68,0,0,1-11.78-4l-6.26,4.73-28.87-35L75,116.62,69.09,112l-1.61.81A19.84,19.84,0,0,1,61,115.21c-10,1.26-25.45-11.26-28.09-22.72-1-4.43-1.94-8.95-2.84-13.32-.29-1.47-.59-2.93-.9-4.4a53.23,53.23,0,0,1,2.61-30.52A152.68,152.68,0,0,0,37.44,24,44.54,44.54,0,0,1,26.36,37.3c-6.82,5.42-9.64,12.75-8.15,21.21,1,5.49,2,11.07,3,16.46.45,2.46.91,4.92,1.36,7.38L23,84.7,17.2,86.05,13.1,71.13c-3.72,9-7,17.58-4.08,27.34a107.33,107.33,0,0,1,3.17,16.59c.33,2.41.67,4.9,1.08,7.31l.35,2.12-5.45,1.79-2.79-4.71c.09,5.15.21,10,1.51,14.51s4,8.9,6.73,13.48c1.27,2.08,2.57,4.24,3.79,6.47L21,162.58,10.91,158c.25,8.33,6.47,12,13.55,16.24L27,175.75l9.48,5.79-17.65-1.87c2.89,6.76,8.06,9.82,16,9.51l10.86-.39-12.33,6.55L40.87,199c5.57-5.24,8.71-10.32,7.64-18.34-.75-5.57.14-11.26,1-16.77.37-2.33.74-4.74,1-7l.25-2.5,2.49.26c11.28,1.18,14.25,3,13.68,13.71q-.21,4-.4,7.95c-.6,11.92-1.22,24.24-2.46,36.32-.47,4.58-4,9-6.89,11.84A16.66,16.66,0,0,1,45.21,229.3Z"/></g></g></svg>