<svg xmlns="http://www.w3.org/2000/svg" viewBox="0 0 486.09 524.94"><title>Pit-Fiend_1</title><g id="a7eb6137-a074-4de2-94a9-ec63b7e35ac4" data-name="Layer 2"><g id="ac18ffe5-00a0-4230-94d6-d90aa11cdb15" data-name="Layer 1"><path d="M181.87,343.56l6.56,0A62.57,62.57,0,0,0,181.87,343.56Zm285.4-195.18C338.75,5.72,302.8,1,302.8,1l-15.92.37a5.83,5.83,0,0,0-5.7,5.84,5.7,5.7,0,0,0,.83,3A5.78,5.78,0,0,0,287.33,13c29.34-2.09,48.48,26.91,48.48,26.91,17.1,32.42-13.55,66-13.55,66C296.31,81.77,238,45.22,238,45.22l-34.79-7.67c-13.56-8.84-29.47-5.3-29.47-5.3L152.05,36.1a5.24,5.24,0,0,0-4.32,5.14c0,.21,0,.43.05.65a5.24,5.24,0,0,0,5.1,4.59l32.6.5,17.1,8.26c10.61,4.13,14.73,21.23,14.73,21.23l-7.65,5.89,1.77-7.67-15.92-2.94c-7.67-19.45-17.69-6.49-17.69-6.49V58.19l-10,10-3-4.14c-.59,7.08-10.61,13-10.61,13-3,10-10,11.79-10,11.79l.59-7.08c-23.57,29.47,3.54,34.78,3.54,34.78s-1.17,4.13,4.13,13,.58,17.69.58,17.69l-5.88-4.13,5.88,10.61c-.58,14.75,11.21,27.12,11.21,27.12-16.5,16.51-14.15,25.35-14.15,25.35s-6.54,14.09-11.26,15.29c4.08,3.19,9.43,7.68,12.37,11.43,9.32-6.63,25.42-13.75,25.42-13.75,9.43,0,19.45-21.22,19.45-21.22,10.61,15.91,22.4,16.51,22.4,16.51l-1.18,8.24,5.9-.59c14.16,20.06-3.53,24.77-3.53,24.77l-2.37,8.84-5.88-6.49c-4.73.59-13,17.1-13,17.1l-1.18-7.08c-6.49,1.19-10,18.87-10,18.87l-2.35-4.71c-7.08,1.76-8.85,17.09-8.85,17.09L173.7,284c-7.08,2.35-12.39,23.58-12.39,23.58l-5.3,4.12,9.43,22.41c21.81.59,23,9.43,23,9.43l14.94,2.75C215.94,364,190.78,370,190.78,370l-1.41.48c-10.41,4.36-18.93,25.36-19.21,26l7.66-5.87L179,396c-8.26,7.67-6.49,14.75-6.49,14.75l4.13-4.72h5.9c1.18-7.67,17.09-10.61,17.09-10.61,3,2.35,27.7-8.26,27.7-8.26,2.37-11.2,15.34-18.86,15.34-18.86s-3.14-22.4-9-25.16,20.43,2.76,20.43,2.76,10.6,18.74,8.07,28.9c12.13,9.8,11.19,27.1,11.19,27.1l5.31,4.71L268,456.12c-7.08,14.73-18.28,18.28-18.28,18.28-7.66,22.39-1.17,28.29-1.17,28.29l5.88-7.66c-1.17,21.22,4.14,20.63,4.14,20.63,10-37.14,11.19,5.9,11.19,5.9l9.44-15.33c0-10.61,10.61-7.67,10.61-7.67l5.9,10.61,2.35-12.38,5.9-6.48c-2.37-12.38,9.43-15.32,9.43-15.32,9.43,5.88,11.2-12.39,5.89-12.39s-4.12-17.09-4.12-17.09c4.12-2.36,3.53-11.8,3.53-11.8-6.48-6.47-5.89-23-5.89-23,3.55-8.62,1.44-19.85.77-22.84l-1.75-.75,4.71-13a8.75,8.75,0,0,1-1.57-9.83A76.9,76.9,0,0,0,310,351.26h0a85.13,85.13,0,0,0-15.88-22.66,29.73,29.73,0,0,0,6.56-3.28,21.56,21.56,0,0,0,9.93-19.53c-6-21.34-.47-31.32,1.85-34.33-6.41-5.32-15.64-11.27-24.6-11a4.73,4.73,0,0,0,4.28-5c0-5.5,15.33-43.23,15.33-43.23s18.08-15.32,25.16-11.79a27.67,27.67,0,0,1,10.22,8.26l-10.61,35.76c8.64-10.22,17.68,5.3,17.68,5.3s-1.17,13.57-.59,17.1,7.66-2.36,7.66-2.36l5.31,6.49,4.72-5.9c-1.19,5.9,5.89,14.75,5.89,14.75l3.54,27.7c14.15-11.8,41.26,12.38,41.26,12.38-4.12,3.53-1.76,23.58-1.76,23.58s-23,63.07-21.82,73.7-6.48,29.47-6.48,29.47c1.77,11.79-5.31,36.55-5.31,36.55,5.31-13,46-44.81,46-44.81,11.2,1.77,14.16-11.78,14.16-11.78,9.43-47.76,27.12-49.53,27.12-49.53,5.3-99.63,14.14-63.08,14.14-63.08C490.86,295.18,467.27,148.38,467.27,148.38Zm-82.11,241-1.91,4.17a11.82,11.82,0,0,0,2.09-2.88Z" style="fill:#c12022"/><path d="M268.88,524.94l-.1-3.36c-.3-11.26-2-19.86-3.33-20h0c-.05,0-2.06.14-5.9,14.37l-.18.66-.67.07a2.77,2.77,0,0,1-2.14-.91c-2.39-2.25-3.49-8.31-3.24-17.6l-4.62,6-.81-.73c-.28-.26-6.88-6.6.91-29.36l.16-.47.48-.16c.11,0,10.84-3.61,17.63-17.65L277.53,407l-5.24-4.65,0-.48c0-.17.76-16.92-10.82-26.28l-.49-.4.15-.61c2.21-8.88-6.27-25.05-7.75-27.78-6.68-1.38-13.82-2.71-17.62-3.21,5.05,5.46,7.57,22.47,7.87,24.59l.09.66-.57.34c-.13.07-12.62,7.58-14.87,18.21l-.1.51-.48.2c-7.28,3.12-24.12,10-28.25,8.38-4.45.89-15.1,4.15-15.95,9.72l-.13.85h-6.31L172,412.83l-.46-1.86c-.08-.31-1.76-7.5,6.36-15.32l-.72-3.22-9.33,7.17,1.39-3.42c.92-2.26,9.29-22.2,19.75-26.59l1.47-.5c.21,0,12.1-3,14.86-10.39,1.26-3.38.4-7.25-2.54-11.52l-14.44-2.65-6.46,0-.07-2c1.73-.1,3.44-.13,5.12-.09-1.31-2.25-5.92-7-21.51-7.38h-.65l-10-23.71,5.63-4.39c.88-3.38,5.86-21.59,13-24l.93-.31,1.4,3.86c1-4.86,3.57-12.84,8.94-14.18l.78-.2,1.47,2.94c1.32-5.27,4.66-15.9,10.19-16.91l1-.18.85,5.12c2.73-5.06,8.31-14.46,12.36-15l.52-.06,5,5.51,2-7.63.56-.15c.06,0,5.88-1.64,7.72-6.73,1.51-4.19,0-9.58-4.41-16l-6.59.65,1.22-8.5c-3.12-.52-12.38-3.09-21.13-15.4-2.54,5-10.94,20-19.37,20.25-1.81.81-16.47,7.45-25.06,13.56l-.78.56-.59-.75c-2.89-3.69-8.22-8.16-12.19-11.26L136.63,221l2-.5c3-.77,8-9.15,10.46-14.45-.28-1.92-.52-10.64,13.82-25.25-2.51-2.88-11.23-13.83-10.84-26.84l-7.86-14.16,8.44,5.91c1-2.51,2.9-9.13-1-15.66-4-6.71-4.44-10.9-4.36-12.71-2.56-.7-9.76-3.21-12.24-10s.54-15.59,9-26.18l2-2.56-.73,8.75c2.07-1,5.95-3.79,7.95-10.55l.11-.38.34-.2c.09-.06,9.58-5.73,10.12-12.2l.22-2.72,3.85,5.39,10.89-10.89v7c1.67-1.44,4.38-3.15,7.53-2.7,3.86.55,7.19,4.17,9.88,10.77l16.4,3-1.37,6,4.91-3.79c-.85-3-5.07-16.45-13.95-19.91l-17-8.19-32.38-.5A6.26,6.26,0,0,1,146.79,42a7.39,7.39,0,0,1-.06-.78,6.24,6.24,0,0,1,5.15-6.13l21.64-3.84c.62-.14,16.32-3.5,30,5.35l34.78,7.66.15.09c.57.36,57.6,36.17,83.68,60.14,4.33-5.15,27.92-35.36,12.75-64.12C334.79,40.19,315.78,12,287.4,14a6.83,6.83,0,0,1-7.22-6.79A6.8,6.8,0,0,1,286.86.37l16-.37h.07c1.49.2,37.78,6.4,165.08,147.7l.2.22.05.29c1,6,23.54,147.28,16.46,166.17l-1.15,3-.76-3.16c-.8-3.27-2.18-5.82-2.86-5.78-.95.09-5.87,3.82-9.31,68.68l-.05.86-.85.09c-.17,0-17.12,2.51-26.24,48.72,0,.16-3.2,14.12-14.85,12.65-3.9,3.08-40.44,32.16-45.34,44.13l-1.89-.65c.07-.25,7-24.7,5.28-36.13l0-.27.1-.26c.08-.18,7.56-18.75,6.41-29C392,406.81,413.24,348.17,415,343.4c-.32-2.79-1.91-18.36,1.38-23.35-4.38-3.67-27.15-21.78-39.22-11.72l-1.4,1.17L372,280.25c-.95-1.22-5.22-7-5.95-12.26l-3.69,4.61-5.47-6.68c-1.76,1.37-5.14,3.67-7.11,2.94a2.18,2.18,0,0,1-1.38-1.82c-.56-3.34.37-14.87.55-17-.86-1.36-5-7.58-9.81-8-2.14-.19-4.19.86-6.09,3.11L330,248.77l11.83-39.86a28.1,28.1,0,0,0-9.57-7.55c-5.25-2.63-18.83,7.26-23.87,11.49-4.31,10.62-15.17,38.31-15.17,42.63a5.89,5.89,0,0,1-1.54,4.21c8.1,1.13,16,6.42,21.5,11l.74.62-.59.76c-2.45,3.19-7.52,12.82-1.67,33.45l0,.15a22.39,22.39,0,0,1-10.37,20.48A29.82,29.82,0,0,1,296,329a88.16,88.16,0,0,1,15,21.84l.1.22A79.7,79.7,0,0,1,316,364.09l.1.38-.19.36a7.7,7.7,0,0,0,1.43,8.67l.41.45-4.6,12.65,1.35.57.11.5c.73,3.24,2.8,14.45-.74,23.27,0,1.75-.15,16.32,5.6,22.07l.27.26,0,.38c0,.4.54,9.41-3.56,12.42-.21,3.78-.2,12.57,2.08,15a1.42,1.42,0,0,0,1.07.52c1.53,0,2.78,1.07,3.44,2.93,1.21,3.45.34,9.1-2.64,11.49-1.09.87-3.4,2-6.83.05-1.94.61-10.26,3.86-8.31,14.05l.1.49L299,497.26l-2.82,14.81-7-12.63c-1.14-.24-4.49-.73-6.72,1-1.48,1.13-2.23,3.09-2.23,5.82v.28Zm-3.49-25.39.29,0c3.48.41,4.61,11.44,5,18.66l7.56-12.29c.06-3.25,1.07-5.64,3-7.13,3.49-2.66,8.63-1.27,8.84-1.21l.41.11,4.76,8.56,1.89-9.94,5.76-6.33c-2.11-12.74,10.13-15.95,10.26-16l.41-.1.36.23c2,1.23,3.63,1.34,4.91.32,2.27-1.82,2.95-6.56,2-9.27-.26-.73-.73-1.59-1.55-1.59a3.4,3.4,0,0,1-2.53-1.16c-3.4-3.64-2.68-15.64-2.59-17l0-.53.46-.27c2.8-1.6,3.16-7.81,3.05-10.5-6.42-6.87-5.93-22.77-5.91-23.45v-.18l.07-.16c3.25-7.91,1.59-18.1.82-21.74l-2.14-.92,4.83-13.3a9.82,9.82,0,0,1-1.49-10.12,77.23,77.23,0,0,0-4.78-12.58l-.1-.21a84.93,84.93,0,0,0-15.57-22.17l-1.18-1.11,1.53-.55a28.66,28.66,0,0,0,6.34-3.17A20.69,20.69,0,0,0,309.67,306c-5.65-20-1.28-30.27,1.47-34.34-6.08-4.92-14.85-10.43-23.21-10.15l-.21-2a3.73,3.73,0,0,0,3.46-4c0-5.63,14.78-42.06,15.41-43.61l.09-.23.19-.15c1.9-1.62,18.8-15.65,26.25-11.92a28.62,28.62,0,0,1,10.6,8.59l.26.39-9.73,32.81A7.82,7.82,0,0,1,339.3,240c6.39.56,11.32,8.89,11.53,9.25l.16.27,0,.32c0,.13-1.16,13.48-.6,16.84,0,0,0,.25.11.28.82.29,3.79-1.46,5.92-3.23l.77-.65,5.17,6.31,6.53-8.15-.82,4c-1.08,5.38,5.62,13.84,5.69,13.92l.18.22,0,.28,3.33,26c14.88-9.7,40.05,12.46,41.15,13.44l.85.76-.86.75c-2.71,2.32-2.32,15.16-1.43,22.71l0,.23-.08.23c-.23.63-22.91,63-21.77,73.24s-5.49,27.32-6.44,29.7c1.13,8.26-1.73,22.14-3.7,30.27,11.21-14.69,41.27-38.29,42.73-39.43l.34-.27.43.07c10.14,1.61,12.91-10.5,13-11,8.4-42.55,23.37-49.14,27.14-50.13,3.71-69.11,9.07-69.61,11.09-69.8,1.73-.15,3,1.81,3.85,3.81,3.92-27.64-16.17-154.47-17.29-161.48C342.61,11.54,304.49,2.36,302.73,2l-15.82.37a4.82,4.82,0,0,0-4.73,4.84,4.82,4.82,0,0,0,5.08,4.8c29.55-2.13,49.19,27.06,49.38,27.36,17.28,32.74-13.33,66.91-13.64,67.25l-.69.75-.74-.69c-24.94-23.25-80.73-58.47-84-60.52l-34.79-7.67-.15-.1c-13.07-8.52-28.56-5.19-28.71-5.16l-21.69,3.85a4.23,4.23,0,0,0-3.5,4.16,4.9,4.9,0,0,0,0,.54,4.26,4.26,0,0,0,4.13,3.7l32.82.51L203,54.34c10.9,4.24,15.09,21.18,15.27,21.9l.15.63-10.38,8,2.16-9.36-15.44-2.86-.21-.52c-2.4-6.11-5.34-9.57-8.5-10-4-.58-7.43,3.75-7.46,3.79l-1.79,2.3V60.61l-9.15,9.15-2.32-3.25c-1.94,5.73-8.64,10.19-10.26,11.2-3.14,10.13-10.33,12-10.64,12.11l-1.35.33.42-5.07c-6.43,8.79-8.66,16-6.64,21.55,2.6,7.09,11.57,8.92,11.66,8.94l1.07.21-.3,1s-.92,3.94,4,12.17a17.75,17.75,0,0,1,.62,17.68h-.53l-3.27-.28,3.93,7.06,0,.28c-.56,14.16,10.82,26.27,10.94,26.39l.67.71-.69.69c-15.76,15.76-13.91,24.31-13.89,24.4l.08.34-.14.33c-.62,1.33-5.65,11.92-10.3,15.06a81.16,81.16,0,0,1,10.69,9.88c9.38-6.46,24.67-13.24,24.83-13.31l.19-.09h.21c7.22,0,15.84-14.9,18.55-20.65l.75-1.6,1,1.48c10.16,15.24,21.5,16,21.61,16.06l1.09.06-1.15,8.06,5.21-.52.34.48c5.1,7.22,6.77,13.39,5,18.33-1.85,5.12-6.81,7.21-8.51,7.8l-2.69,10.08-6.72-7.4c-3.17,1.21-8.8,10.53-11.75,16.43L198,269.49l-1.49-8.95c-4.28,2.22-7.37,13.33-8.25,17.73l-.57,2.86-3.27-6.54c-4.73,2.1-6.9,12.11-7.35,16l-.48,4.21-3.43-9.45c-5,3-9.49,17-10.85,22.46l-.08.34-5,3.86,8.89,21.11c18.43.65,22.32,7.28,23.11,9.54L204,345.36l.23.33c3.54,5,4.55,9.59,3,13.71-3.13,8.37-15.64,11.49-16.17,11.61l-1.33.45c-7.44,3.13-14.09,15.67-17,21.92l5.78-4.44,1.65,7.39-.42.39c-5,4.65-6.15,9-6.32,11.51l2.83-3.22h5.55c2.18-7.64,17-10.48,17.71-10.6l.44-.08.36.28c1.66,1.15,14.81-3.33,26.22-8.19,2.4-10,12.54-17,15.11-18.65-1-6.5-4.09-21.74-8.38-23.74-.56-.26-1.72-.81-1.38-1.84s.61-1.85,22.45,2.71l.44.09.22.4c.43.76,10.36,18.49,8.31,29,10.91,9.23,11.16,24.11,11.09,27.05l5.4,4.78-10.81,50.32c-6.43,13.38-16.08,17.75-18.39,18.63-5.5,16.34-3.22,23.47-1.93,25.83l7-9.16-.18,3.23c-.78,14.18,1.37,18.11,2.48,19.18C261.41,501.69,263.59,499.55,265.39,499.55Zm114.4-100.86,5.9-12.83.68,5-.12.26a12.12,12.12,0,0,1-2.28,3.17Z" style="fill:#fff"/><path d="M190.78,370s-5.88-8.84-48.33,8.85c0,0,11.19,13-8.85,20.64s-45.39,11.79-66,8.84l47.16-17.68s-24.17-.59-16.51-15.34c0,0,47.45-29.71,83.49-31.79h.15l6.56,0,14.94,2.75C215.94,364,190.78,370,190.78,370Z" style="fill:#5a0326"/><path d="M385.16,389.4l-1.91,4.17c-5.35,5.7-22.63,16-69.84-6.43,0,0,.07.27.18.75l-1.75-.75,4.71-13a8.75,8.75,0,0,1-1.57-9.83A76.9,76.9,0,0,0,310,351.26c2.63,1.15,12.67,4.39-9.21-25.81l-.11-.14a21.56,21.56,0,0,0,9.93-19.53c-6-21.34-.47-31.32,1.85-34.33a8.25,8.25,0,0,1,.91-1l7.08-3.15c-1.58-18.86,11.79-22.79,11.79-22.79l2.94,6.49s-5.9,6.48,4.13,18.86c0,0-1.77,12.38,5.3,20.05,0,0-1.76,16.51,9.43,24.16,0,0-1.17,15.33,8.26,20L367.65,350s4.12,17.1,15.32,23Z" style="fill:#5a0326"/><path d="M361.77,401.92c-10.69,0-25.79-3.17-46.94-13l.14.67-4.39-1.89,4.83-13.3a9.82,9.82,0,0,1-1.49-10.12,77.23,77.23,0,0,0-4.78-12.58L308,349.26l2.47,1.08c1.62.71,2.74.75,3,.41.39-.49,1.6-4-13.43-24.72l-.63-.84.78-.72a20.68,20.68,0,0,0,9.5-18.5c-6.06-21.45-.6-31.71,2-35.13a8.93,8.93,0,0,1,1-1.17l.25-.16,6.44-2.87c-1.24-18.85,12.41-23.08,12.55-23.12l.84-.24,3.57,7.88-.44.48c-.21.24-5.13,6.08,4.17,17.57l.28.33-.07.44c0,.11-1.61,12,5.05,19.22l.3.33,0,.45c0,.16-1.56,16,9,23.23l.48.33-.05.58c0,.14-1,14.72,7.71,19.08l.37.18,5.44,16.31c.06.24,4.18,16.81,14.84,22.42l.45.24,2.3,17.21-2.1,4.58-.11.11C381.08,397.34,374.62,401.92,361.77,401.92ZM313.32,386l.52.25c46.42,22.08,63.37,12.2,68.57,6.76l1.72-3.75-2.08-15.62c-11.12-6.24-15.2-22.69-15.37-23.39l-5.16-15.45c-8.59-4.66-8.58-17.35-8.46-20.25-10.17-7.38-9.65-21.55-9.44-24.32-6.32-7.19-5.56-17.78-5.31-20.09-8.6-10.83-5.5-17.41-4.24-19.29l-2.32-5.1c-2.78,1.18-11.55,6.13-10.26,21.45l.05.71L314,271.27a7.24,7.24,0,0,0-.69.79c-2.45,3.19-7.52,12.82-1.67,33.45l0,.15a22.34,22.34,0,0,1-9.52,19.89C316.59,345.61,316.41,350.26,315,352a3.14,3.14,0,0,1-3.11.87A78.33,78.33,0,0,1,316,364.09l.1.38-.19.36a7.7,7.7,0,0,0,1.43,8.67l.41.45Z" style="fill:#fff"/><path d="M262.13,374.78c-4.48-3.61-10.72-6.18-19.46-6.5,0,0-3.14-22.4-9-25.16s20.43,2.76,20.43,2.76S264.66,364.62,262.13,374.78Z" style="fill:#5a0326"/><path d="M262.72,376.54l-1.22-1c-4.82-3.89-11.17-6-18.87-6.28l-.84,0-.11-.83c-.86-6.08-4-22.32-8.48-24.39-.56-.26-1.72-.81-1.38-1.84s.62-1.85,22.45,2.71l.44.09.22.4c.44.78,10.77,19.2,8.17,29.63Zm-19.18-9.22c7.09.38,13.1,2.29,17.89,5.68,1-9.09-6.63-23.66-8-26.24-6.68-1.38-13.82-2.71-17.62-3.21C240.42,348.56,242.92,363.27,243.54,367.32Z" style="fill:#fff"/><path d="M341.89,207.72l-10.61,35.76s-13.37,3.93-11.79,22.79l-7.08,3.15a8.25,8.25,0,0,0-.91,1c-6.41-5.32-15.64-11.27-24.6-11a4.73,4.73,0,0,0,4.28-5c0-5.5,15.33-43.23,15.33-43.23s18.08-15.32,25.16-11.79A27.67,27.67,0,0,1,341.89,207.72Z" style="fill:#3c3250"/><path d="M311.66,271.88l-.8-.66c-6.09-5.06-15.22-11-23.93-10.74l-.21-2a3.73,3.73,0,0,0,3.46-4c0-5.63,14.78-42.06,15.41-43.61l.09-.23.19-.15c1.9-1.62,18.8-15.65,26.25-11.92a28.62,28.62,0,0,1,10.6,8.59l.26.39-10.9,36.74-.52.15c-.51.15-12.56,4-11.07,21.75l.05.71L313,270.27a7.24,7.24,0,0,0-.69.79Zm-21-13.19c7.73,1.08,15.27,5.94,20.73,10.36.22-.23.36-.36.38-.38l.25-.16,6.44-2.87c-1.1-16.69,9.49-21.92,12-22.92l10.33-34.81a28.1,28.1,0,0,0-9.57-7.55c-5.25-2.63-18.83,7.26-23.87,11.49-4.31,10.62-15.17,38.31-15.17,42.63A5.89,5.89,0,0,1,290.64,258.69Z" style="fill:#fff"/><path d="M268.88,524.94l-.09-3.36c-.31-11.27-2-19.87-3.34-20,0,0-2-.15-5.9,14.37l-.18.66-.68.07a2.77,2.77,0,0,1-2.13-.9c-2.39-2.26-3.49-8.32-3.23-17.61l-4.64,6-.8-.73c-.29-.26-6.88-6.6.9-29.36l.17-.48.48-.15c.11,0,10.84-3.6,17.62-17.65L277.53,407l-5.23-4.65,0-.48c0-.14.65-14.14-8.05-23.66-5-5.5-12.21-8.49-21.34-8.88-1.76,1.11-12.55,8.26-14.61,18.06l-.11.51-.48.2c-7.28,3.12-24.12,10-28.24,8.38-4.46.89-15.11,4.16-16,9.72l-.13.85h-6.3L172,412.82l-.47-1.85c-.07-.31-1.75-7.5,6.36-15.32l-.72-3.22-9.31,7.16,1.36-3.38c.37-.93,8.72-21.56,19.38-26.43-3.37-1.4-14.17-3-44.59,9.54,1.24,1.85,3.35,5.83,2.23,10.28S141,397.78,134,400.46c-21.61,8.26-47.1,11.67-66.52,8.9l-3.88-.56,46.77-17.53c-4.44-.66-11-2.34-13.53-6.65-1.59-2.7-1.41-6,.55-9.73l.12-.24.23-.14c.53-.33,51.61-32.06,87.94-32.06l1.3,0c-1.32-2.25-5.93-7-21.53-7.38l-.64,0-10-23.7,5.64-4.39c.87-3.39,5.85-21.59,12.95-24l.92-.31,1.41,3.87c1-4.87,3.56-12.85,8.94-14.19l.78-.2,1.47,2.94c1.33-5.26,4.67-15.9,10.19-16.91l1-.18.86,5.13c2.72-5.06,8.3-14.47,12.35-15l.51-.06,5,5.51,2-7.63.56-.15c.05,0,5.88-1.64,7.71-6.74,1.51-4.19,0-9.57-4.4-16l-6.58.66,1.21-8.51c-3.12-.53-12.37-3.08-21.13-15.41-2.54,5-10.94,20-19.37,20.26-11.67,5.18-30.28,15.06-31.07,19.8-.39,2.33.21,4.46.9,6.94,1.29,4.61,2.74,9.85-1.59,18.12l-.13.26-.26.14c-.13.08-3.38,2.05-1.9,6.48l.27.82-9.37,4.69-7.31-2-7.09-15.71-.71,4.3-10.85,6.2.73-2.41c0-.13,4-13.42,2.92-20.18l-.13-.74.68-.32a56,56,0,0,0,21.2-19.94c-.14-1.07-.34-3.92,1.23-5.39a3.64,3.64,0,0,1,3.59-.68c2.64.64,8.12-8.16,11.1-14.49-.28-1.92-.52-10.64,13.81-25.25-2.51-2.88-11.22-13.84-10.83-26.84l-7.87-14.16,9.46,2.91c1-2.51,1.89-6.13-2-12.65-4-6.72-4.44-10.91-4.36-12.72-2.56-.7-9.75-3.21-12.24-10s.54-15.59,9-26.17l2-2.57-.72,8.75c2.07-1,5.94-3.8,7.93-10.56l.11-.38.34-.2c.1,0,9.58-5.72,10.12-12.19l.23-2.71,3.85,5.38,10.89-10.89v7c1.68-1.45,4.38-3.15,7.53-2.71,3.87.55,7.19,4.17,9.88,10.77l16.4,3-1.38,6,4.93-3.79c-.86-3-5.08-16.45-14-19.91l-17-8.18-32.38-.52a6.23,6.23,0,0,1-1-12.36l21.64-3.84c.62-.14,16.32-3.49,30,5.35l34.77,7.66.15.09c.58.37,57.61,36.17,83.69,60.13,4.32-5.14,27.92-35.35,12.76-64.12C334.79,40.18,315.8,12,287.4,14a6.7,6.7,0,0,1-6.24-3.3A6.77,6.77,0,0,1,281,3.9,6.75,6.75,0,0,1,286.86.37l16-.36h.08C304.41.21,340.72,6.4,468,147.72l.19.22.05.29c1,6,23.54,147.27,16.46,166.16l-1.14,3.05-.77-3.16c-.79-3.24-2.18-5.78-2.83-5.78h0c-1,.09-5.87,3.81-9.33,68.67l0,.86-.86.09c-.16,0-17.11,2.52-26.23,48.72,0,.16-3.23,14.11-14.85,12.64-3.9,3.08-40.45,32.17-45.34,44.14l-1.89-.66c.07-.24,7-24.69,5.28-36.13l0-.27.1-.25c.08-.19,7.56-18.75,6.42-29C392,406.81,413.23,348.16,415,343.4c-.32-2.79-1.91-18.35,1.38-23.35-4.38-3.67-27.16-21.78-39.22-11.72l-1.4,1.16L372,280.25c-.94-1.23-5.22-7-6-12.26l-3.68,4.61-5.46-6.68c-1.77,1.37-5.16,3.68-7.12,2.94a2.19,2.19,0,0,1-1.39-1.81c-.55-3.35.37-14.82.55-17-1-1.5-6-8.71-10.75-8.71h0c-1.76,0-3.35,1.1-4.73,3.22l3,6.6-.44.49c-.21.24-5.13,6.08,4.17,17.56l.27.34-.06.43c0,.12-1.61,12,5.05,19.22l.31.34-.05.45c0,.16-1.56,16,9,23.24l.48.32-.05.58c0,.15-1,14.72,7.71,19.07l.37.19,5.43,16.31c.07.25,4.19,16.81,14.85,22.42l.46.24,2.46,18.48-.11.26c-.1.22-2.56,5.59-11,8.71-9.45,3.51-27.59,4.41-60.45-10.88.82,4.19,2.19,14.05-1,22,0,1.76-.15,16.32,5.6,22.08l.27.27,0,.37c0,.4.54,9.41-3.57,12.42-.2,3.78-.19,12.57,2.09,15a1.38,1.38,0,0,0,1.07.52c1.53,0,2.78,1.07,3.44,2.93,1.21,3.46.34,9.1-2.64,11.49-1.09.88-3.41,2-6.83,0-1.94.62-10.25,3.87-8.31,14.06l.09.49-6,6.65-2.82,14.81-7-12.63c-1.14-.23-4.49-.73-6.72,1-1.48,1.13-2.23,3.09-2.23,5.82v.28Zm-3.49-25.39.29,0c3.48.41,4.61,11.44,5,18.66l7.56-12.29c.06-3.24,1.07-5.64,3-7.13,3.49-2.65,8.63-1.27,8.85-1.21l.4.11,4.76,8.57,1.89-9.95,5.76-6.33c-2.1-12.74,10.13-16,10.26-16l.41-.1.36.23c2,1.23,3.63,1.34,4.91.32,2.27-1.82,2.95-6.56,2-9.27-.26-.72-.73-1.59-1.55-1.59a3.44,3.44,0,0,1-2.53-1.15c-3.41-3.65-2.68-15.66-2.59-17l0-.54.46-.26c2.81-1.61,3.16-7.81,3.06-10.5-6.43-6.88-5.94-22.77-5.92-23.45v-.18l.07-.17c4-9.6.58-22.81.54-22.94l-.54-2.08,1.94.92c33.41,15.9,51.48,15.13,60.75,11.69,6.66-2.47,9.17-6.43,9.71-7.42l-2.25-16.88c-11.12-6.24-15.21-22.68-15.38-23.39l-5.15-15.45c-8.59-4.66-8.58-17.35-8.46-20.25-10.17-7.38-9.65-21.55-9.44-24.32-6.31-7.19-5.57-17.78-5.32-20.09-8.59-10.83-5.49-17.41-4.23-19.29l-2.92-6.42.27-.46c1.83-3.05,4.09-4.61,6.71-4.63h0c6.41,0,12.39,9.52,12.64,9.93l.18.28,0,.33c0,.14-1.17,13.47-.6,16.85,0,0,0,.24.1.27.76.27,3.53-1.23,5.93-3.24l.78-.64,5.16,6.31,6.51-8.14-.8,4c-1.08,5.37,5.62,13.83,5.69,13.92l.18.22,0,.27,3.32,26c14.89-9.69,40.06,12.47,41.16,13.45l.85.76-.86.75c-2.71,2.32-2.32,15.16-1.43,22.7l0,.24-.08.22c-.23.63-22.9,63-21.76,73.24s-5.5,27.33-6.45,29.71c1.13,8.26-1.73,22.14-3.7,30.27,11.21-14.69,41.27-38.3,42.73-39.43l.34-.27.43.07c10.13,1.58,12.91-10.5,13-11,8.4-42.54,23.36-49.14,27.14-50.13,3.72-69.11,9.07-69.61,11.09-69.79,1.73-.16,3,1.8,3.85,3.8,3.92-27.64-16.17-154.47-17.29-161.47C342.61,11.53,304.48,2.36,302.72,2l-15.82.36a4.82,4.82,0,1,0,.36,9.64c29.59-2.09,49.19,27.06,49.39,27.35,17.27,32.76-13.35,66.91-13.66,67.26l-.68.74-.74-.69c-24.94-23.24-80.73-58.45-84-60.51L202.78,38.5l-.16-.1c-13.05-8.52-28.56-5.21-28.71-5.17l-21.68,3.85a4.23,4.23,0,0,0,.67,8.39l32.82.52L203,54.34c10.9,4.24,15.11,21.17,15.28,21.89l.15.63-10.39,8,2.16-9.37-15.43-2.86-.21-.51c-2.4-6.12-5.35-9.59-8.5-10-4-.56-7.42,3.75-7.46,3.8l-1.79,2.31V60.6l-9.15,9.15-2.32-3.24c-1.94,5.73-8.65,10.19-10.27,11.2-3.13,10.12-10.31,12-10.62,12.11l-1.36.33.43-5.07c-6.44,8.79-8.67,16-6.65,21.55,2.6,7.1,11.56,8.92,11.66,8.94l1.06.21-.3,1s-.91,4,4,12.18c5.53,9.22,1.82,14.29,1.61,14.67l-1.53,2-3.26.72,3.92,7.06v.28c-.57,14.15,10.81,26.27,10.92,26.39l.68.71-.69.69c-15.76,15.75-13.91,24.31-13.89,24.39l.08.34-.14.33c-1.34,2.88-8.3,17.18-13.53,15.88-1.2-.3-1.61.07-1.74.2-.89.83-.71,3.19-.57,4l.06.36-.18.32A57.12,57.12,0,0,1,113.47,248c.63,5.51-1.32,13.9-2.41,18l5.72-3.27,1.64-9.85,9.42,20.84,5.66,1.55,7.17-3.59a7.17,7.17,0,0,1,2.79-7.84c3.81-7.43,2.53-12,1.3-16.42-.72-2.59-1.4-5-.94-7.8,1.23-7.39,29.23-20,32.42-21.38l.19-.09h.21c7.22,0,15.84-14.91,18.55-20.65l.76-1.6,1,1.47c10.16,15.25,21.51,16.06,21.62,16.07l1.09.06-1.15,8.06,5.2-.51.34.47c5.1,7.22,6.77,13.39,5,18.33-1.86,5.11-6.82,7.21-8.51,7.8l-2.69,10.08-6.73-7.4c-3.16,1.22-8.78,10.53-11.73,16.43L198,269.49l-1.49-8.95c-4.27,2.22-7.37,13.33-8.25,17.74l-.57,2.86-3.27-6.55c-4.73,2.1-6.9,12.11-7.35,16l-.48,4.2-3.44-9.44c-5,3-9.48,17-10.84,22.46l-.08.34-5,3.86,8.88,21.11c21.79.76,23.26,9.89,23.31,10.28l.16,1.19-1.2-.06c-34.59-1.64-85.49,29.15-89.38,31.54-1.5,3-1.66,5.53-.48,7.54,3.36,5.69,16.12,6.08,16.24,6.08l5.15.13L71.78,407.86c18.51,1.75,41.63-1.69,61.47-9.27,6.37-2.44,10.09-5.63,11.06-9.48,1.26-5-2.58-9.52-2.62-9.57l-.9-1,1.27-.53c42-17.5,48.91-9.45,49.56-8.48l.78,1.17L191,371c-8,2.12-15.29,15.78-18.38,22.38l5.8-4.46,1.64,7.4-.42.39c-5,4.65-6.15,9-6.31,11.51l2.82-3.22h5.54c2.19-7.63,17.06-10.47,17.72-10.6l.45-.08.36.29c1.66,1.14,14.8-3.33,26.22-8.19,2.68-11.22,15.14-18.69,15.68-19l.25-.15h.29c9.84.36,17.59,3.57,23.06,9.55,8.42,9.23,8.63,21.93,8.58,24.62l5.39,4.79-10.81,50.31c-6.42,13.38-16.08,17.74-18.39,18.62-5.5,16.35-3.22,23.48-1.94,25.84l7-9.15-.17,3.22c-.79,14.18,1.35,18.11,2.47,19.18C261.41,501.69,263.59,499.55,265.39,499.55Z" style="fill:#fff"/><path d="M146.59,253.57l-41.36,29.61,5.27,14.95-9.43-9.72s-13.25.38-17.38,29.59c0,0-24.56,1.11-43.79,36.35l-8.36-11.11-4.95,3.1-2.15-3.6-3.65,2.54,2.8,6.5-6.1-5.91-4.81,3.32L7.73,342l-.07,0-6.28-9.51,4.88-3.22-3.2-7.87,5,5,3.71-2.45-2.53-3.32L14,317.29,6.76,305.38c39.87-4.67,50.07-27.06,50.07-27.06,28.63,7.07,33.94-5.08,33.94-5.08l-5.49-12.35,11.89,10.45L140.07,244c30.33-25.4,40.06-25.21,43.08-23.34a3.33,3.33,0,0,1,1,.87,3.19,3.19,0,0,1,.21.77C184.93,225.83,181.48,234.93,146.59,253.57Z" style="fill:#402f2a"/><path d="M40,356.2,31.3,344.57l-5.05,3.16-2.12-3.56L22,345.63,26.49,356l-9.11-8.81-5,3.42-4.94-7.16h0l-.63-.8L0,332.28,5,329,.25,317.22l7.93,8,2.13-1.4-2.5-3.29,4.81-3.5L5.1,304.56l1.54-.18c38.86-4.55,49.18-26.25,49.28-26.47l.34-.76.81.2c24.49,6,31.38-2.3,32.58-4.16l-7.14-16.07,14.76,13,42.21-26.88c28.8-24.12,39.93-26,44.2-23.38a4.32,4.32,0,0,1,1.24,1.13l.11.21a4.11,4.11,0,0,1,.28,1c.85,4.92-5.08,14.53-38.19,32.23l-40.7,29.13L113,302.1,100.7,289.47c-2.15.41-12.48,3.66-16,28.67l-.11.82-.83,0c-.24,0-24.27,1.56-43,35.83Zm-8.25-14.29,8,10.61c17.4-30.89,38.55-34.93,43-35.45,4.33-28.93,17.65-29.64,18.22-29.65l.44,0,6.56,6.76-4-11.36,42.08-30.11c36-19.26,37.6-28,37.22-30.19a2.57,2.57,0,0,0-.11-.44,2.24,2.24,0,0,0-.59-.51c-1.92-1.19-10.58-3-41.92,23.24l-.11.08L97.07,272.59l-9-7.94,3.81,8.58-.17.41c-.23.52-5.88,12.62-34.33,5.84-2.15,4-13.79,22.1-48.95,26.7l6.87,11.37-4.64,3.39,2.55,3.36-5.28,3.48-2-2.06,1.63,4-4.72,3.12,5.28,8,.5.62,4.38,6.34,4.66-3.22,3.1,3-1.15-2.66,5.21-3.61L26.92,345Z" style="fill:#fff"/><path d="M153.45,237.4c0,1.86-2.61.87-6.18-1.35a148,148,0,0,1-13.15-9.72c-.16-1.45-.33-5.83,3.61-4.85a2,2,0,0,0,1.12,0c4.08,3.19,9.43,7.68,12.37,11.43C152.59,234.61,153.45,236.18,153.45,237.4Z" style="fill:#3c3250"/><path d="M152.51,239.38c-1,0-2.66-.54-5.77-2.48a155.51,155.51,0,0,1-13.25-9.79l-.32-.26,0-.41c-.16-1.41-.19-4,1.33-5.31a3.74,3.74,0,0,1,3.52-.62,1,1,0,0,0,.59,0l.5-.14.4.31c4.05,3.17,9.52,7.76,12.54,11.6,1.64,2.07,2.44,3.76,2.44,5.15a1.84,1.84,0,0,1-.92,1.72A1.91,1.91,0,0,1,152.51,239.38Zm-17.43-13.56a150.71,150.71,0,0,0,12.72,9.39c3.08,1.91,4.28,2.16,4.65,2.17,0-.63-.37-1.81-2-3.88-2.81-3.58-7.92-7.89-11.84-11a2.82,2.82,0,0,1-1.12-.07,1.86,1.86,0,0,0-1.7.18C135.13,223.19,135,224.58,135.08,225.82Z" style="fill:#fff"/><path d="M109.44,268.06s4.12-13.56,2.94-20.63a56.38,56.38,0,0,0,21.81-20.63s0-.18-.07-.47a148,148,0,0,0,13.15,9.72,7.77,7.77,0,0,0-2.47,3.71c-1.18,7.08,5.9,12.39-.59,24.76,0,0-4.12,2.36-2.35,7.67l-8.26,4.12-6.47-1.77-8.26-18.27-1.18,7.08Z" style="fill:#c12022"/><path d="M133.71,277.38l-7.3-2-7.09-15.71-.72,4.3-10.85,6.19.73-2.4c0-.14,4-13.42,2.92-20.18l-.13-.74.68-.33a55.91,55.91,0,0,0,21.2-19.92.77.77,0,0,1,0-.15l-.3-2.45,1.92,1.55a151.52,151.52,0,0,0,13.05,9.66l1.08.67-.91.89c-1.63,1.59-2.09,2.6-2.18,3.16-.39,2.32.21,4.46.89,6.93,1.29,4.62,2.75,9.86-1.58,18.13l-.14.26-.25.14c-.14.08-3.38,2.05-1.9,6.48l.27.83Zm-5.87-3.68,5.66,1.55,7.17-3.58a7.19,7.19,0,0,1,2.78-7.85c3.82-7.43,2.54-12,1.31-16.42-.72-2.59-1.41-5-.95-7.8a7.15,7.15,0,0,1,1.9-3.36c-3.54-2.31-7.75-5.56-11.08-8.22a57.35,57.35,0,0,1-21.16,20c.63,5.52-1.32,13.91-2.41,18l5.73-3.27,1.64-9.86Z" style="fill:#fff"/></g></g></svg>