<svg xmlns="http://www.w3.org/2000/svg" viewBox="0 0 335.12 338.07"><defs><style>.cls-1{fill:#448402;}.cls-2{fill:#fff;}</style></defs><g id="Layer_2" data-name="Layer 2"><g id="Layer_1-2" data-name="Layer 1"><path class="cls-1" d="M155.61,2,127.16,22.53A94.29,94.29,0,0,0,73.5,21.19q-5.62,1.5-10.94,3.46L35.22,4.8,35.44,39C7.76,59.47-6,93,5.73,136.94a50.85,50.85,0,0,0,7.85,16.78L4.44,190.48l36.42-18.67c25.64,6.29,53.88-7.8,47-34.6a26.15,26.15,0,0,0-3.28-9.84c-5.27-9-14.57-11.64-20.77-5.8-6,5.63-6.89,17-2.25,25.93-12.86-2-23.55-14.31-26.29-32.1a74.17,74.17,0,0,1-.89-12.72L66.46,94.3,41.9,74.51C51,58.81,67.43,49,85.82,46L98.7,73,112.54,46.5A77.2,77.2,0,0,1,137.46,56a94.58,94.58,0,0,1,14.06,10.31l-6.07,24.44,21.25-7.48A111.77,111.77,0,0,1,183.56,120a90,90,0,0,0-10.37,1.46c-58.19-3.37-91.74,53.88-86,107.83L56,248.49l36.71,5.25a95.48,95.48,0,0,0,22.12,35.58,93.57,93.57,0,0,0,21.48,15.76l-5.86,29.72,29.12-19.58c39.64,13.46,90.56,14,124.17-7.3l32.74,11.71L304,289.72c18.23-22.37,18.37-44.93,9-61.1l10.9-30.49-29.86,12.43a46.84,46.84,0,0,0-16.36-5c-34.52-3.89-67.19,27.32-40.18,60.34-4.51-24.56,17.11-42.76,32.74-31.69,15,10.65,14.41,36.73-6.76,48.42-10.35,5.71-22.46,9.35-35.25,11l-15.42-32.32-8.46,33.2c-22.42-1.17-44.85-7.84-61.92-19.5l16.87-34.81-35,17.73A57.87,57.87,0,0,1,113,229.18a102.39,102.39,0,0,1,.28-24.3l33.65.79L119.08,182.4c6.52-16.65,17.41-30.87,30.72-42.3,1.17,2.44,2.36,4.7,3.64,6.87,10.11,25.4,35,39.75,62.43,44l3.56,19,18.44-17.78c30.18-1.14,59.6-13.8,72.89-36.86,15.1-26.22,20.08-68.73,6.25-102l15.4-34.66L301,28.28l-.13-.14C281.74,8,251.66,15.72,232.45,35.6L200.34,31l17.45,27.62a55.87,55.87,0,0,0-3.53,21.44,45.69,45.69,0,0,0,1.57,12.89c4.69,17.49,18.32,29,30.45,25.79s18.15-20.06,13.46-37.56a44.78,44.78,0,0,0-6-13.41c-9.43,5.81-13.41,14.38-14.46,25.33-3.59-17.47-.9-27.5,12.61-35.26h0c8.51-5.54,17.23-7.33,23.59-2.67,22,16.14,23,50.41,9,77.42l-27.09-2.08,8.84,25.25a61.47,61.47,0,0,1-27.25,13.49c-16.79,3.5-36.66,1.31-54.44-5.79a47.82,47.82,0,0,0,8.09-16.51c15.69-43.92-5.17-89.18-40.91-112.65L155.61,2Z"/><path class="cls-2" d="M128.26,338.07l6.35-32.21a94.44,94.44,0,0,1-20.86-15.48A96.41,96.41,0,0,1,91.6,255.09l-39.94-5.7,34-20.84c-3.09-31.53,7.21-63.9,27-84.68,16.13-16.93,37-25.17,60.47-23.88,3-.58,5.83-1,8.57-1.28a109.65,109.65,0,0,0-15.54-33.63l-22.8,8,6.52-26.25a92.71,92.71,0,0,0-13.15-9.56,75.6,75.6,0,0,0-23.34-9.11L98.64,76.39,85,47.7C67.16,50.86,52.3,60.43,43.86,74.16L69.72,95l-33.83,8.84a73.2,73.2,0,0,0,.88,11.33c2.4,15.54,11,27.07,22.23,30.24-3.44-9-2-19.49,3.81-24.93a12.42,12.42,0,0,1,10.46-3.4c4.91.72,9.51,4.19,12.63,9.54a27.9,27.9,0,0,1,3.46,10.31c3.37,13.3-1.76,22-6.66,26.95-9.3,9.39-26,13.19-41.65,9.52L2.19,193.31,12,154a52.72,52.72,0,0,1-7.68-16.7c-11.06-41.25-.52-76.4,29.65-99.07L33.7,1.85,62.8,23c3.37-1.21,6.84-2.29,10.31-3.22a96.28,96.28,0,0,1,53.78,1.13L155.77,0l1.42,1.42-3.92,32.13C192,59.46,208.74,106.16,194,147.44a50.28,50.28,0,0,1-7.12,15.33c17.16,6.47,35.92,8.3,51.76,5a59.56,59.56,0,0,0,25.79-12.51l-9.26-26.44L283.55,131c12.23-24.27,13.24-58.37-9-74.64-7.24-5.31-16.82-.58-21.88,2.71l-.09.06C242.42,65,238.5,72,239.43,84.08a29.82,29.82,0,0,1,13.49-17.6l1.23-.75.8,1.19a46.07,46.07,0,0,1,6.24,13.87c4.89,18.26-1.62,35.94-14.52,39.39-6.36,1.71-13.24-.22-19.37-5.42s-10.57-12.68-12.91-21.43A46.93,46.93,0,0,1,212.76,80a56.73,56.73,0,0,1,3.37-21.22L197.34,29.05,231.91,34c11.86-12,27.32-19.15,41.52-19.15h.15a38.51,38.51,0,0,1,27.88,11.73l33.66-10.37L318.64,53.3c14.31,35.13,7.56,78.22-6.58,102.77-12.58,21.82-40.73,36.2-73.56,37.59l-20,19.31-3.88-20.71c-30.39-5-53.12-21.18-62.5-44.63-1-1.62-1.87-3.31-2.77-5.11C136.39,154,126.83,167.22,120.87,182l30.32,25.32-36.59-.86a101.66,101.66,0,0,0-.11,22.61,56.23,56.23,0,0,0,10.34,27l37.8-19.17-18.24,37.65c16,10.58,36.77,17.1,58.85,18.45l9.17-36L229.15,292a97.28,97.28,0,0,0,33.65-10.7c9.77-5.4,15.71-14.38,16.28-24.63.48-8.68-3.13-16.63-9.66-21.26-5.73-4.05-12.62-4.07-18.9-.06-7.6,4.85-14.1,16.09-11.5,30.26l1,5.73-3.69-4.51c-11.07-13.54-13.35-28-6.42-40.75,8.29-15.22,28-24.28,47.93-22a47.89,47.89,0,0,1,16.25,4.83l32.35-13.46-11.81,33c10.39,18.55,7.07,41.43-8.93,61.48l13.41,32.22-35.25-12.6c-15.94,9.92-36.65,15.63-60,16.53a184.63,184.63,0,0,1-64.17-9.24ZM60.32,247.59l33.5,4.79.3.86a93.56,93.56,0,0,0,21.77,35A92.18,92.18,0,0,0,137,303.77l1,.53-5.37,27.24,26.73-18,.71.24c36.18,12.29,88.2,14.85,122.87-7.14l.62-.4,30.25,10.82L302.3,289.46l.56-.69c15.84-19.44,19.16-41.64,8.88-59.4l-.35-.6,10-28L294,212.21l-.62-.32a45.1,45.1,0,0,0-15.83-4.83c-18.75-2.11-37.24,6.31-45,20.48-5.58,10.25-4.54,21.82,2.86,33-.43-12.88,6-23,13.44-27.71s15.58-4.58,22.25.14c7.38,5.23,11.47,14.16,10.92,23.88-.62,11.13-7.28,21.26-17.82,27.08-10.27,5.67-22.31,9.44-35.79,11.2l-1.07.14-14.11-29.55-7.74,30.37-1.23-.06c-23.57-1.23-45.83-8.25-62.69-19.76l-1.07-.73,15.5-32-32.13,16.29-.76-1a59.38,59.38,0,0,1-11.65-29.53,104.65,104.65,0,0,1,.28-24.66l.18-1.33,30.71.72-25.4-21.21.4-1c6.32-16.15,16.8-30.58,31.15-42.89l1.48-1.28.85,1.77c1.17,2.44,2.34,4.65,3.58,6.74l.1.21c9,22.76,31.38,38.45,61.26,43.05l1.05.16L220.39,207l16.85-16.24.57,0c32.06-1.21,59.51-15.05,71.65-36.12,13.86-24,20.42-66.37,6.16-100.72l-.25-.6L329.7,21l-29.11,9-.76-.78a35.65,35.65,0,0,0-26.26-11.36h-.14c-13.62,0-28.52,7-39.9,18.79l-.54.55-29.64-4.25,16.11,25.49-.26.7A54,54,0,0,0,215.76,80a44.42,44.42,0,0,0,1.52,12.56c2.19,8.17,6.44,15.24,12,19.92,5.36,4.54,11.27,6.26,16.65,4.82,11.3-3,16.87-19.06,12.4-35.73a43.82,43.82,0,0,0-5-11.73c-7.5,5.1-11.49,12.58-12.53,23.41l-1,9.94-2-9.79c-3.86-18.8-.12-29.13,13.33-36.86,9.8-6.38,18.78-7.31,25.23-2.58C287.16,61.87,293.6,74.22,295,89.66c1.27,14.26-2,29.75-9.21,43.61l-.46.88-25.8-2,8.42,24.05-.78.67a62.74,62.74,0,0,1-27.91,13.82c-17,3.53-37.13,1.39-55.31-5.86l-1.86-.75,1.24-1.58a46.39,46.39,0,0,0,7.83-16c14.4-40.35-2.18-85.95-40.29-111l-.78-.51,3.64-29.84-26.29,19L126.7,24a93.27,93.27,0,0,0-52.81-1.32c-3.65,1-7.29,2.12-10.81,3.41l-.75.28L36.74,7.76l.2,32-.61.45C6.74,62.09-3.61,96.3,7.18,136.55a49.53,49.53,0,0,0,7.62,16.29l.41.56L6.69,187.63l34-17.41.55.13c14.84,3.65,30.65.2,39.35-8.58,6.26-6.33,8.29-14.69,5.86-24.19l0-.18a24.55,24.55,0,0,0-3.09-9.27c-2.65-4.55-6.46-7.5-10.46-8.08a9.41,9.41,0,0,0-8,2.61c-5.46,5.15-6.32,15.76-2,24.15l1.37,2.62L61.36,149c-13.94-2.13-24.76-15.23-27.56-33.36a76.61,76.61,0,0,1-.9-13l0-1.13L63.2,93.6,40,74.87l.65-1.12c8.92-15.38,25.32-26,45-29.19l1.11-.18L98.76,69.67l13-24.86,1.1.22a78.56,78.56,0,0,1,25.4,9.7,95.66,95.66,0,0,1,14.28,10.48l.68.6-5.62,22.62,19.7-6.93.65.92A113,113,0,0,1,185,119.67l.44,1.73-1.78.14a89.68,89.68,0,0,0-10.2,1.43l-.19,0h-.19c-22.6-1.32-42.76,6.62-58.31,22.94-19.4,20.36-29.4,52.26-26.09,83.24l.1.94Z"/></g></g></svg>