<svg xmlns="http://www.w3.org/2000/svg" viewBox="0 0 314 534.7"><title>Quasit</title><g id="e8deb025-4ab0-4c5a-96f8-fcbe3ec1d115" data-name="Layer 2"><g id="b517f3cd-aaa6-4d67-9aad-0fe257dc4ce1" data-name="Layer 1"><path d="M179.28,342.52c-45.36-1.29-93.59-5.81-136.41-21.46-14.22-5.19-41-15.56-39.94-34.1.67-11.82,13.39-18.6,24.34-23.09,74-30.34,147.91-62.31,214.23-107,14.7-9.9,23.4-26.33,9.8-41.23-12.15-13.31-31-24.31-47.16-32,5.7,2.7,13.83,2.66,20,5,20.09,7.52,43.3,23.25,47.37,45.87,2.67,14.83-7.51,28.07-18.09,37.29-19.09,16.63-43.67,27.7-66.4,38.32-26.4,12.34-53.45,23.21-80.54,33.9-13.55,5.35-27.12,10.64-40.64,16.06q-10.47,4.2-20.89,8.51c-4.9,2-13.22,3.7-16.53,8.13-7.85,10.51,23.16,17.92,28.58,20,18.44,7.14,37.32,12.12,56.37,17.24,19.49,5.24,40.07,11.23,60.37,7Z" style="fill:#99801a"/><path d="M180.58,343.56l-1.33,0c-36.24-1-89.84-4.38-136.72-21.52C30,317.44.81,306.76,1.93,286.9c.71-12.45,13.71-19.34,25-24,71.63-29.37,147.16-61.83,214.05-106.89,9.23-6.21,15.06-14.31,16-22.22.73-6.17-1.41-12.06-6.38-17.5-12.67-13.88-32.48-24.92-46.86-31.73l.86-1.81c3,1.4,6.75,2.06,10.42,2.7a53.75,53.75,0,0,1,9.48,2.22c10,3.73,42.87,18.12,48,46.63,2.85,15.84-8.45,29.53-18.42,38.22-18.27,15.92-41.17,26.6-63.31,36.93L187.42,211c-27,12.6-54.6,23.67-80.59,33.92-3.91,1.55-7.83,3.08-11.74,4.62-9.48,3.73-19.28,7.59-28.9,11.44-7.76,3.11-14.58,5.89-20.87,8.5-1.28.53-2.76,1-4.33,1.56-4.46,1.5-9.51,3.19-11.79,6.25a4.19,4.19,0,0,0-.88,3.95c1.95,6,17.52,10.88,25,13.22,1.77.55,3.17,1,4,1.31,17.62,6.83,36.06,11.78,53.89,16.57l4.88,1.32c18.79,5.07,38.21,10.31,57.41,6.33l.93-.19Zm33-256.3C226.6,94.12,241.65,103.59,252,115c5.38,5.89,7.7,12.32,6.89,19.09-1,8.48-7.17,17.1-16.87,23.64C175,202.88,99.37,235.38,27.65,264.79,16.94,269.18,4.57,275.68,3.93,287c-1,18.38,27.22,28.71,39.28,33.11C89.26,337,141.91,340.41,178,341.49l-5-19.31c-19.35,3.72-38.69-1.5-57.4-6.55l-4.88-1.31c-17.88-4.81-36.37-9.77-54.09-16.64-.79-.3-2.16-.73-3.89-1.27-8.4-2.63-24-7.53-26.31-14.51a6.12,6.12,0,0,1,1.18-5.77c2.65-3.55,8-5.36,12.75-6.95,1.54-.51,3-1,4.2-1.51,6.3-2.61,13.13-5.39,20.9-8.5,9.62-3.86,19.43-7.72,28.91-11.45l11.73-4.62c26-10.24,53.58-21.3,80.49-33.87l3.32-1.56c22-10.27,44.79-20.89,62.84-36.62,9.59-8.35,20.45-21.44,17.77-36.35-3.93-21.84-26.72-37.62-46.74-45.11a51.75,51.75,0,0,0-9.12-2.13Z" style="fill:#fff"/><path d="M220.58,193.75c.61-7.21,2.66-7.87,4.55-6.74.14.08.26.17.39.26a4.68,4.68,0,0,1,.37.29l.38.33c.13.12.24.24.35.36l.35.37.31.37c.21.25.39.49.56.72.51.7.84,1.24.84,1.24,1.75,5.82,10.47,5.82,10.47,5.82,10.84-.8,15.59,2,17.48,3.8a31.08,31.08,0,0,0,3.77-2.67c4-3.26,8.29-8.23,12.48-15.68L283.54,192l.16.15c-3.49-16.33-9.79-28.26-16.32-36.79a72,72,0,0,0-12.33-12.64A47.85,47.85,0,0,0,245,136.28c0,.21.07.41.09.62a10,10,0,0,1,.1,1.86c-.16,7.61-8.33,8.57-8.33,8.57-7-8.14-24.43-9.3-24.43-9.3-11.8-22.22-23.32-36.39-34.14-44.95q-1.5-1.18-3-2.22c-11.7-8.26-22.49-10.08-31.84-8.65l-.08,0a118.19,118.19,0,0,0,1.31-14.81c0-.73,0-1.46,0-2.2,0-.49,0-1,0-1.48-.23-19.3-5.83-40.55-23-59.43l.33,1c1.81,5.43,10.47,32.69,10.63,59,0,.73,0,1.46,0,2.18a85.29,85.29,0,0,1-2.4,20.09,65,65,0,0,0-21.36,18.33c-8.73,0-32,16.27-32,16.27C39.14,108.29,33,57.73,32.12,34.59c0-.39,0-.75,0-1.12a1.13,1.13,0,0,1,0-.26c0-.67,0-1.31,0-1.92,0-.34,0-.67,0-1,0-1.16,0-2.2,0-3.1,0-.66,0-1.24,0-1.73,0-.32,0-.6,0-.86q0-.66,0-1.08l0-.64a74.51,74.51,0,0,0-8.86,33.43c0,.7,0,1.41,0,2.12s0,1.42,0,2.13c1.42,44.68,41.43,80.37,41.43,80.37a24.15,24.15,0,0,1,.81,6.08c-.23,11.69-13.37,10.91-27,6.93,1.07.52,2.15,1,3.22,1.47h0c1,.42,1.89.8,2.82,1.17l2.07.77c.69.26,1.38.5,2.06.73l1.1.37c1.41.46,2.79.88,4.12,1.25l1.31.36c.41.12.82.22,1.23.32l1.2.3,1.16.27,1.13.26,2.13.45,1.52.29c.64.12,1.24.23,1.81.32l.56.09,2.66.39c.31.05.61.08.86.1.6.08,1.06.13,1.32.15h.3a16.85,16.85,0,0,1,5.21,8.75l4.1,6.38-.17.31A16,16,0,0,0,78,186.79a13.53,13.53,0,0,0,4.18,9.39,1.82,1.82,0,0,0-.52.08c-5.13,1.42-11.12,23.18-11.12,23.18-5.65.68-11.05,4.38-15.84,9.28C46.08,237.47,39.4,250,36.55,255.8l.34-.11A150.58,150.58,0,0,0,63.1,243.87c1.41-.81,2.73-1.61,4-2.42h0a60,60,0,0,0,6.06-4.34l.06,0,.26-.23-.17.16,0,0A128,128,0,0,0,61.8,249.53h0a155.58,155.58,0,0,0-12,17c-2,3.27-3.85,6.55-5.57,9.82h2l1.08-2.78h0l.49-1.25q8.7-2.48,16-5l1.32-.46,4-1.42c.78-.29,1.57-.58,2.33-.88l2.38-.92,2.29-.92q4.52-1.85,8.4-3.67c.51-.23,1-.47,1.49-.71.32-.14.62-.29.92-.44l1.34-.66.27-.14,1.5-.76.06,0,1.35-.71c1-.52,1.93-1,2.83-1.55l.66-.38c1.28-.72,2.49-1.45,3.63-2.17l1-.62a72.76,72.76,0,0,0,11.08-8.52,38.58,38.58,0,0,0,6-7.16c.18-.29.35-.57.5-.84l.16-.28c.12-.23.24-.44.34-.64a13.2,13.2,0,0,0,1-2.42,4.69,4.69,0,0,0,.14-.57l-8.59-.53-.71,0,4-3,7.62-5.72,1.23,1.64,7.5,10c-.07.11-.14.22-.2.33s-.29.5-.42.75-.31.56-.45.84-.19.35-.27.52h0c-.16.31-.3.62-.44.93s-.23.49-.33.73-.27.64-.39,1l-.12.29c-.3.79-.55,1.56-.77,2.33-.08.25-.14.5-.2.74-.23.84-.4,1.67-.54,2.49,0,.27-.09.54-.12.81s-.07.52-.09.78a5.69,5.69,0,0,0-.07.71c0,.29,0,.57-.06.85s0,.51,0,.76,0,.47,0,.71v.36a.31.31,0,0,0,0,.09c0,.39,0,.76,0,1.14s0,.65.08,1,0,.53.08.79c0,.41.1.81.16,1.2.15.84.32,1.65.5,2.42.08.31.16.62.25.92s.17.61.28.91c.21.69.45,1.34.69,2a25.61,25.61,0,0,0,3,5.67l-.37.05c-11.17,1.73-23.6,6-35.79,11.55A231.05,231.05,0,0,0,58,297.16c-10.35,7.28-18.74,14.62-23.5,20.72-2.85,3.66-4.41,6.88-4.28,9.36a4.18,4.18,0,0,0,.13.94c3.48,14,45.94,32.57,59.32,29.07l.84-.2a38.35,38.35,0,0,1,7.94-.83h.19c12-.07,24.75,3.95,24.75,3.95-.05.18-.09.36-.15.54-.15.59-.31,1.18-.47,1.76l.15,0a30.46,30.46,0,0,0,3.94.84h0a40.45,40.45,0,0,0,7.56.29,63.11,63.11,0,0,0,15.73-3h0c.18-.56.34-1.1.49-1.62s.24-.86.35-1.27a41.1,41.1,0,0,0,.85-4.23c0-.21,0-.41.08-.62.06-.56.11-1.09.14-1.61a4.67,4.67,0,0,0,0-.52c0-.24,0-.46,0-.69v-.24c0-.4,0-.79,0-1.15s0-.52-.06-.77a15.08,15.08,0,0,0-.64-3.2,10.6,10.6,0,0,0-1.86-3.56,6.43,6.43,0,0,0-2.3-1.91h0c0,.15,0,.28,0,.42s0,.2-.06.31,0,.2-.08.3a2.63,2.63,0,0,1-.09.3,3.42,3.42,0,0,1-.17.4,4.72,4.72,0,0,1-1.19,1.6,3.52,3.52,0,0,1-.35.31,2.37,2.37,0,0,1-.3.23,6.43,6.43,0,0,1-.72.48c-.26.16-.54.29-.83.44s-.52.22-.79.33a19.81,19.81,0,0,1-5.3,1.16c-.37.05-.76.07-1.15.1l-.59,0H135a28.65,28.65,0,0,1-2.94-.07c-.76-.06-1.51-.14-2.23-.25h-.11c-.36-.05-.7-.1-1-.17a22.06,22.06,0,0,1-2.94-.76l-.43-.15a9.79,9.79,0,0,1-1.89-.94,1.73,1.73,0,0,1-.28-.19,3.47,3.47,0,0,1-.37-.3.41.41,0,0,1-.12-.11,2.2,2.2,0,0,1-.3-.32,3.53,3.53,0,0,1-.24-.34,1.55,1.55,0,0,1-.14-.29l-.05-.12a.8.8,0,0,1,0-.21.2.2,0,0,1,0-.09h0v0a2.12,2.12,0,0,1,.37-1.48,5.09,5.09,0,0,0,.31-.55c.05-.08.08-.16.12-.24l.1-.24a4.61,4.61,0,0,0,.3-1.26h0a4.49,4.49,0,0,0-.2-1.64,7,7,0,0,0-.58-1.24,2.7,2.7,0,0,0-.22-.33,1.44,1.44,0,0,0-.18-.25c-.07-.09-.13-.19-.21-.29l-.24-.27c-.16-.18-.33-.35-.52-.54s-.35-.34-.54-.5-.38-.32-.58-.48-.2-.14-.3-.22l-.6-.44-.31-.2c-.41-.28-.82-.53-1.21-.75l-.29-.16c-.23-.14-.45-.25-.65-.36l-.36-.18-.34-.17c-.53-.26-1-.45-1.27-.58l-.28-.11h0c2.41.55,9.19-.73,17.08-2.68l1-.25c2.72-.68,5.57-1.44,8.39-2.21l1.44-.4.74-.2,2.06-.59,2.76-.78h0l.48-.15c1.57-.44,3.09-.9,4.54-1.33l1.27-.37,2.24-.68c.39-.11.77-.24,1.15-.34l1.32-.41,1.24-.38,3.37-1c.3-.1.58-.17.83-.26l2.37-.75a50.31,50.31,0,0,0,.43,6.08c.14,1.11.31,2.27.52,3.48.06.42.13.85.21,1.3.16.88.33,1.8.52,2.74.1.54.21,1.07.33,1.62.71,3.46,1.59,7.19,2.6,11.07l.58,2.22c.12.42.23.85.35,1.27.22.86.46,1.71.7,2.58.3,1.08.61,2.17.92,3.26l.93,3.19q.39,1.35.81,2.73.58,2,1.2,4c.55,1.75,1.1,3.51,1.64,5.25.28.86.55,1.73.83,2.59.14.46.29.9.44,1.35.33,1,.67,2.07,1,3.08,2,6.13,4,11.92,5.75,16.94h0c3.69,10.54,6.41,17.74,6.41,17.74l-.11.29L189.73,416l.18.12c24.28,14.86,33.54-12.92,33.54-12.92,4.33,1.31,10.94-4.19,14-7.07,4.91-8.24,12.44-18,23.34-25.12a.24.24,0,0,0,.09-.06c-1.16-8.23-16.5-23.57-16.5-23.57l.06.64a28.34,28.34,0,0,1,.16,3.19v.32c-.35,13.49-12.54,7-14.5,5.88l-.26-.15c1.81-2.72,2.39-6.24,2.41-9.53a38.91,38.91,0,0,0-1.12-9.12c-.08-.35-.13-.53-.13-.53,36-12.38,48.36-25.54,48.58-37.69.49-25.54-52.65-46.63-52.65-46.63-4.87-28.52-6.55-45.38-6.55-55.08,0-.67,0-1.3,0-1.9C220.45,195.65,220.5,194.65,220.58,193.75Zm-108.2-24.91,4.62,6.4,4.08-8.72L127,181.06l-4.1-2.91-5.19,8.7-6.44-5.21L105.4,188l.58-16.78,4.08,4.64Zm8.72-8.72s-4.64-16.27,2.91-19.19S139.13,150.23,121.1,160.12Zm-33.94-8.67c7.83-2.07,13.59,13.86,13.59,13.86C80.35,167.85,79.32,153.53,87.16,151.45ZM228.68,315.39l-2.26-21.54-.06-.56s25.58-8.72,27.91,4.66a8,8,0,0,1,.13,1.86C254,311.7,228.68,315.39,228.68,315.39Z" style="fill:#706011"/><path d="M142,378.2c-19.18,33.14-4.06,43-4.06,43l-1.74,14s-7-11-9.31-11c0,0-9.3,25.57-35.47,15.11,0,0-18,8.72-27.91,5.24,0,0-1.16-6.4-11.64,2.32,0,0-3.49-9.89,8.14-13.95,0,0-12.79-5.24-20.35,11.63,0,0-.58-24.43,22.09-20.35,0,0,8.15-9.89,14-8.73,0,0-5.82,12.79,12.2.58l11.64-4.07s1.14,33.69,23.22-49.45c5.07,1.46,14,2.36,27.4-1.83A93,93,0,0,1,142,378.2Z" style="fill:#c98650"/><path d="M308.35,522.4,302,506.71s-15.7,2.32-11.62-9.89c0,0-19.62-.58-21.5-2.31.6.73,15.88,19.51-2.93,36.61,0,0,2.9-19.18-1.74-18,0,0-12.22,1.17-12.8-9.31,0,0-12.79-6.39-10.47-21.51,0,0,14-44.78-1.74-87.81,0,0-.64.67-1.69,1.65,4.92-8.27,12.49-18,23.43-25.18a4.91,4.91,0,0,1-.23,2.6s-5.22,17.44,1.16,22.68c0,0,2.34,20.35-.58,22.68,0,0,2.92,48.26,18,55.24C279.27,474.14,327.54,493.33,308.35,522.4Z" style="fill:#c98650"/><path d="M294.68,245.83l-.06-.54a1.58,1.58,0,0,0-3-.42c-1.71,4.36-4.42,9.77-8.18,12.95a1.58,1.58,0,0,1-2.49-1.79v0a1.58,1.58,0,0,0-2.32-1.92h0a1.57,1.57,0,0,1-2.34-1.83,51.63,51.63,0,0,0,2.26-8.73,1.59,1.59,0,0,0-2.59-1.43L270.16,247a1.58,1.58,0,0,1-2.6-1.17l-.46-19.68a1.58,1.58,0,0,0-1.46-1.54c-2.78-.2-8.83-.77-10.89-1.9a1.66,1.66,0,0,0-1.17-.19c-2.81.67-13.41,3.66-18.06,11.72a1.57,1.57,0,0,1-2.94-.83c.32-8.27,3.34-18.86,16.49-19.7a1.55,1.55,0,0,0,1.45-1.74c-.4-3.64-.48-11.76,7.24-9.95a2.17,2.17,0,0,0-.15-.26,1.62,1.62,0,0,1,.35-2.11c3.8-3.2,5.24-9.13,9.78-17.48a1.58,1.58,0,0,1,1.75-.79l11,2.55a1.55,1.55,0,0,1,1.18,1.19c1.32,6.13,4.07,18.82,4.58,25.62a1.49,1.49,0,0,0,.43,1,12.67,12.67,0,0,1,3.73,8.74,1.62,1.62,0,0,0,.54,1.28l8.27,7.23a1.69,1.69,0,0,1,.53,1c.27,2.54,1.09,12.26-2.19,16.66A1.58,1.58,0,0,1,294.68,245.83Z" style="fill:#c98650"/><path d="M73.47,236.84c-12.15,11.49-21.93,25.74-29.2,39.56a179.32,179.32,0,0,0-8.12,17.65c-.24.59-.47,1.19-.69,1.78l-1.59-.8s-9.3,10.48-8.13,19.2c0,0-6.4,0-7-14.54,0,0-12.8,1.16-15.12,22.67,0,0-7-6.39,2.32-30.81l5.24-2.91,4.06-5.82,5.82.58s-2.32-12,6.32-19.89A22.63,22.63,0,0,1,35.05,259s.52-1.21,1.5-3.19A149.5,149.5,0,0,0,63.1,243.87,71.75,71.75,0,0,0,73.47,236.84Z" style="fill:#c98650"/><path d="M143.73,139.87s-12.21-.58-2.32-9.3,44.77-53.5,44.77-53.5l-26.71,54a14,14,0,0,1-9.41,7.41Z" style="fill:#c98650"/><path d="M143.83,141h-.15c-.61,0-6-.38-7.08-3.57-.75-2.14.58-4.66,4.05-7.73,9.7-8.55,44.29-52.9,44.64-53.34l6.9-8.86-31.7,64a15,15,0,0,1-10.18,8ZM180.29,86.4c-10.69,13.5-30.87,38.61-38.13,45-2.55,2.25-3.79,4.17-3.41,5.26.48,1.35,3.4,1.94,4.89,2l6.17-1.4a12.78,12.78,0,0,0,8.64-6.81Z" style="fill:#fff"/><path d="M76.3,171.78,75.16,170S69.35,206.07,8.3,141.52c0,0,15.38,8.11,30.2,12.43A101.9,101.9,0,0,0,71.09,163,16.85,16.85,0,0,1,76.3,171.78Z" style="fill:#c98650"/><path d="M264.16,188.62a16.26,16.26,0,0,1-3.76,9.28,31.08,31.08,0,0,1-3.77,2.67c-1.89-1.81-6.64-4.6-17.48-3.8,0,0-8.72,0-10.47-5.82a13.56,13.56,0,0,0-3.55-3.94l-1.68-3-15.86,2.32a15.64,15.64,0,0,1-12.11-3.24c-3.28-2.66-7.91-4.51-11.57,1.5-6.4,10.46,19.77,12.8,23.83,25.58s.59,43.62-10.46,51.18-13.95,30.24-13.37,33.14a282.37,282.37,0,0,1,2.31,96.23c-7.76-22.13-19.76-59-19.76-74.71,0,0-45.27,14.5-52.31,12.8.61.24,12.08,4.82,8.12,11-4.07,6.4,24.42,9.3,25-.58h0c.15.19,1.91,2.38,4.16,5.47a15.08,15.08,0,0,1,.64,3.2c.29,3.09-.1,7.23-1.87,12.72h0a63.11,63.11,0,0,1-15.73,3c-2.83-.21-5.44-.35-7.56-.29h0a31.35,31.35,0,0,1-4.09-.87c.21-.76.41-1.53.62-2.3,0,0-12.79-4-24.75-3.95a40,40,0,0,1-19.26-4.89c-12.72-6.91-23.92-14.16-26.94-16.17-7-4.66,18.61-29.07,29.67-25.59s58.72-20.93,58.14-30.81c-.42-7.16-8.48-15.57-12.89-19.63-2.29-5.81-4.05-15.5,2.43-26.31l-8.73-11.64-11.62,8.72,9.3.58s-3.5,22.69-70.95,41.88l-2.26,5.77a7.36,7.36,0,0,1-2.21-.94,4.17,4.17,0,0,1-1.93-3.67c0-9.11,10.25-19.7,20.39-27.95a183.43,183.43,0,0,1,19.74-13.92c-2.33-22.1,11-27.92,11-27.92-2.32-3.48,1.74-9.88,1.74-9.88l29.08,5.82,20.35-33.73,8.14-.58c23.85,20.93,54.08-9.89,54.08-9.89,7,5.82,23.27,7,23.27,7C243.8,147.91,264.34,186.88,264.16,188.62Z" style="fill:#e4e8cf"/><path d="M264.3,534.7l.48-3.16c1.06-7,1.32-15.41-.12-16.72-.05-.05-.08-.07-.23,0l-.16,0c-.27,0-6.53.58-10.64-2.95a9.86,9.86,0,0,1-3.36-6.79c-2.56-1.54-12.63-8.53-10.5-22.38l0-.17c.14-.43,13.31-43.73-1.12-85.38-2.83,2.73-9.4,8.48-14.5,7.93-1.22,3.1-5.69,12.8-14.71,16.06-6.09,2.21-12.93,1-20.34-3.59l-.81-.5,3.09-8c-2.55-6.81-14.81-40-21.6-66.47a159,159,0,0,1-4.1-20.34c-.18-1.46-.3-2.83-.35-4.1-2.71.85-8.88,2.77-16,4.83l-.18.05c-10.31,3-23.23,6.5-30.48,7.42,2.57,1.6,5.33,4,5.51,7a5.29,5.29,0,0,1-.16,1.64,5.85,5.85,0,0,1-.84,1.93,1.29,1.29,0,0,0-.2.46v0c-.12.8,1.33,2,4.84,2.87,7.13,1.69,16.8.41,18.12-3.73a4.1,4.1,0,0,0,.17-.89l.08-1.62,1.49.63a5.5,5.5,0,0,1,1.12.67,7.46,7.46,0,0,1,1,.9,10.54,10.54,0,0,1,1.89,2.67h.41v.93a17,17,0,0,1,1.14,5.87v.27c.11,7.42-3.35,17.28-10.29,29.28-18.33,31.66-4.56,41.41-4.42,41.5l.58.39-.08.7L137,439.06l-1.7-2.69c-2.64-4.19-6.06-8.77-7.74-10.13-1.35,3-5.7,11.3-14.41,15.2-6.36,2.85-13.63,2.72-21.62-.37-3,1.37-18.89,8.4-28.33,5.07l-.62-.22-.12-.65a1.78,1.78,0,0,0-1.08-1.21c-.77-.28-3.18-.4-8.71,4.2l-1.26,1.05-.54-1.54a12.22,12.22,0,0,1,.54-8.71,12.05,12.05,0,0,1,5.06-5.23c-4-.31-10.89,1-15.7,11.7l-2.06,4.59-.12-5c0-.48-.19-11.89,7.08-18.12,3.91-3.35,9.19-4.52,15.71-3.49,1.92-2.22,8.9-9.75,14.63-8.6l1.4.28-.59,1.3c-.7,1.55-1.08,3.63-.54,4.08.18.15,2,1.25,11.07-4.91l.27-.13,13.1-4.59,0,1.55c.1,2.85.82,5.42,1.35,5.66.82,0,5.73-2.91,19.78-55.91l.18-.68c-4.32-1.24-20.77-5.53-32.05-2.59-9.25,2.43-29.79-4.87-43.51-13C40.79,342.56,31,335.88,29.28,329a6.55,6.55,0,0,1-.15-1.88c.12-2.65,1.76-6,4.88-9.86,4.89-6.11,13.38-13.52,23.92-20.87,18.32-12.81,46.26-27.74,70.57-31.9a31.24,31.24,0,0,1-4.32-15.82v-.35a31,31,0,0,1,3.68-13.78c.19-.37.39-.73.6-1.1l-7.59-10.12-8.23,6.18,7.45.5-.18,1.2c0,.19-.81,4.83-7.48,11.56-8.14,8.2-25.83,20.25-63.91,31.13l-6.1,8.43-7.7,14c-.08.09-8.35,9.5-7.92,17.46a7,7,0,0,0,.07.81l.19,1.31H25.74c-.12,0-3,0-5.24-3.69-1.54-2.46-2.49-6-2.8-10.59a14.1,14.1,0,0,0-5.74,3.5c-3.91,3.85-6.33,9.88-7.19,17.9l-.24,2.23-1.66-1.52c-.28-.25-6.74-6.49.69-28.35.46-1.34.89-2.55,1.34-3.71l.15-.39,5.37-3,4.29-6.15,5.05.51c-.35-3.69-.4-13.35,7.49-20a24,24,0,0,1,7-4c.28-.61.84-1.84,1.67-3.49,5-10.11,18.26-33.61,33.74-36.18,1.57-5.58,5.86-19.4,10.57-22.67a14.67,14.67,0,0,1-3.35-9.57,17.26,17.26,0,0,1,2.25-8l-3.53-5.48a12.8,12.8,0,0,1-8.14,7.85C55.2,184.92,35,172,7.47,142.89l-5-5.25,6.33,3.46s.37.21,1,.54c4.2,2.13,18.87,9.29,32,12.64l.14,0c9.51,2.41,16.31,2.28,19.66-.37,1.87-1.48,2.75-3.73,2.7-6.9a23.24,23.24,0,0,0-.7-4.91c-3.53-3.27-40.52-38.53-41.54-81.54,0-.69,0-1.43,0-2.15s0-1.44,0-2.16a76.18,76.18,0,0,1,9-33.28l2.53-4.81-.35,5.35s0,.4-.06,1.13c0,.2,0,.5,0,.83l0,1.72c0,.88,0,1.91,0,3.05v1c0,.59,0,1.22,0,1.88v.09l0,.09v.14l0,1.07c.68,21.5,6.3,72.76,43.47,85.92,3.4-2.35,22.87-15.52,31.57-16.13a66,66,0,0,1,21-18,85.59,85.59,0,0,0,2.24-19.91c0-.72,0-1.44,0-2.15-.31-28.46-10.47-57.81-10.9-59L118.78,0l3.76,4.12.37.42C137.69,21,145.42,40.89,145.83,63.72v1.5c0,.76,0,1.5,0,2.24a116.28,116.28,0,0,1-1.12,14c10.4-1.22,20.8,1.74,30.94,8.82,1.14.79,2.16,1.54,3.12,2.31,11.85,9.31,23.41,24.42,34.35,44.91,3.23.3,17.42,2,24.15,9.16,1.75-.37,7-2,6.76-7.89a11.33,11.33,0,0,0-.17-1.73l-.32-1.86,2,.65a50,50,0,0,1,10,6.33A73.08,73.08,0,0,1,268.09,155c7.87,10.2,13.44,22.56,16.56,36.74a128.51,128.51,0,0,1,2.71,19.66c1.12,1.11,4.38,4.83,4.14,9.92l9.2,8.05.06.42c.25,1.82,2.23,17.87-5.43,20.42l-1.33.45-.72-6.42c-2.19,6.1-6.63,15.54-13.69,17.62l-2.25.67,3-7.6-8.23,5.28,1.42-3.38c0-.09,3.45-8.25,4-14l-11,9.24L266,226.33c-3.16-.2-9.56-.78-11.93-2.19-3.05.72-20.05,5.34-19.55,19.69l-2.25.28c-.14-.65-3.33-15.92,3.89-24.87,3.08-3.8,7.56-5.87,13.34-6.14-.32-2.47-.62-7.71,2.09-10.35a5.53,5.53,0,0,1,3.35-1.54c-2.19-1.54-6.74-3.4-15.65-2.73h0c-.68,0-9.54-.15-11.57-6.48-.15-.23-.51-.78-1-1.41-1.49-1.89-2.56-2.4-3-2.27-.22.06-1.35.63-1.85,5.52-.1.92-.16,1.91-.19,3,0,.6,0,1.21,0,1.87-.07,10.92,2.09,29.37,6.43,54.84,6.13,2.51,52.46,22.29,52.77,46.86.2,14.64-16.07,27.76-48.36,39a40.76,40.76,0,0,1,1,8.33,20,20,0,0,1-2,9.7c2.32,1.21,6.66,2.87,9.3,1.39,1.83-1,2.76-3.47,2.76-7.28v-.32c0-1-.09-2-.21-3.12L242.9,345l2.36,2.26c.6.59,14.89,15,16.65,23.55a6.33,6.33,0,0,1-.17,3.73c-1.4,4.7-3.93,17.54.81,21.42l.35.3.06.45c.53,4.67,2,19.51-.55,23.19.35,4.9,3.77,47.51,17.31,53.81,1.51.61,27.66,11.3,33.25,29.09,2.16,6.88.93,13.89-3.66,20.85l-1.19,1.8-6.9-16.89c-2.29.19-8.35.36-11.21-3-1.46-1.75-1.85-4.09-1.18-7a145.94,145.94,0,0,1-17.2-1.4c3.79,6.11,10.55,21.35-5,35.45Zm.24-22.21a2.41,2.41,0,0,1,1.66.65c2.35,2.14,1.86,10.25,1.27,15.4,14.29-15.67,1.08-32,.48-32.72l1.65-1.56c1.23.89,11.74,1.74,20.76,2l1.53,0-.48,1.46c-.93,2.76-.81,4.86.35,6.25,2.22,2.64,8,2.44,10,2.14l.88-.13,5.89,14.44c3.24-5.73,4-11.45,2.24-17-5.31-16.89-31.69-27.56-31.95-27.66l-.06,0c-15.55-7.18-18.56-54.2-18.68-56.2l0-.59.46-.37c1.43-1.14,1.26-11.8.21-21.22-6.35-6-1.39-22.85-1.17-23.58l0-.11a4.2,4.2,0,0,0,.07-2.45c-1.24-6.06-9.88-15.87-13.94-20.22v.51c0,4.7-1.32,7.82-3.92,9.27-4.88,2.72-12.26-1.79-12.57-2l-1-.62.65-1a3.62,3.62,0,0,0,.2-.33,17.21,17.21,0,0,0,2-9.14,37.76,37.76,0,0,0-1.21-8.77l-.32-1.14,1.15-.28.13,0c31.73-10.94,47.77-23.43,47.58-37.1-.31-24.23-51.41-44.81-51.93-45l-.59-.24-.11-.63c-4.44-25.93-6.64-44.72-6.56-55.86,0-.68,0-1.32,0-1.94,0-1.09.1-2.14.2-3.11.47-4.55,1.57-6.92,3.49-7.48,1.64-.48,3.48.55,5.45,3.05a19.46,19.46,0,0,1,1.23,1.76l.12.26c1.47,4.93,9.29,5,9.37,5,16.23-1.21,19.51,5.6,19.64,5.89l1,2.11-2.25-.53c-2-.46-3.41-.23-4.37.7-2.2,2.14-1.64,7.65-1.24,9.6l.29,1.37h-1.4c-5.7,0-10,1.79-12.89,5.32-3.45,4.28-4.23,10.38-4.19,15.22,4.93-11,20.17-14,20.36-14.09l.59-.11.43.43c.86.86,6.92,1.73,12,2l1.06.06.54,23.09,10.89-9.16.21,2.15c.41,4.06-1.52,10.33-2.89,14.14l8.22-5.27-3.76,9.37c7.51-4.84,11.27-20,11.32-20.14l1.52-6.28,1.69,15.18c3.47-3,3.16-12.54,2.64-16.78l-9.42-8.25.05-.58c.52-5.13-3.65-8.88-3.69-8.92l-.36-.31,0-.48a127,127,0,0,0-2.68-19.75c-3.05-13.85-8.48-25.9-16.14-35.84A71.45,71.45,0,0,0,254.12,144a54.45,54.45,0,0,0-7.82-5.17c.19,7.21-6,9.86-9.34,10.25l-.6.07-.4-.46c-6.58-7.68-23.47-8.89-23.64-8.91l-.63,0-.3-.56c-10.87-20.49-22.33-35.55-34-44.75-.93-.73-1.91-1.46-3-2.22-10.13-7.07-20.5-9.85-30.8-8.24l-1.57.25.28-1.57c0-.17,0-.34.07-.52a116.35,116.35,0,0,0,1.22-14.69c0-.73,0-1.45,0-2.18V63.74c-.37-20.46-6.76-38.53-19-53.79,3.06,10.06,9,32.44,9.28,54.33,0,.73,0,1.48,0,2.2a87.34,87.34,0,0,1-2.44,21l-.13.5-.45.23c-12.86,6.56-20.87,17.85-21,18l-.34.49h-.59c-8.27,0-31.11,15.91-31.34,16.07l-.47.33-.55-.19C37.53,109.51,31.68,56.71,31,34.63l0-1.07a1.57,1.57,0,0,1,0-.38c0-.65,0-1.27,0-1.87v-1c0-.58,0-1.14,0-1.66a72.87,72.87,0,0,0-6.47,27.71c0,.7,0,1.39,0,2.09s0,1.38,0,2.07c1,44,40.65,79.81,41.05,80.16l.26.24.08.34a26.49,26.49,0,0,1,.85,5.75c.06,3.87-1.14,6.81-3.57,8.72-4,3.15-11.2,3.43-21.49.83l-.15,0c-10.16-2.58-21.22-7.41-27.82-10.52,30.49,31.16,45.67,35.24,53.09,33,6.15-1.87,7.29-8.3,7.33-8.57l.49-2.91,7.2,11.21-.34.6a15.39,15.39,0,0,0-2.28,7.5,12.52,12.52,0,0,0,3.35,8.68,4.48,4.48,0,0,0,.42.4l2.38,2H82.15c-2.7,0-7.58,11.64-10.54,22.42l-.21.74-.76.09c-15.11,1.83-28.87,27.28-32.73,35-1.17,2.34-1.81,3.82-1.82,3.83l-.2.45-.45.17a22.05,22.05,0,0,0-6.72,3.81c-8.72,7.34-6.54,19.2-6.52,19.32l.29,1.5-6.67-.67L12,290.09l-5.1,2.83c-.39,1-.77,2.08-1.16,3.24C1.41,308.83,2,315.8,3,319.25c1.21-6.81,3.68-12.08,7.36-15.7a14.78,14.78,0,0,1,8.29-4.41l1.19-.11,0,1.19c.19,4.76,1.07,8.5,2.53,10.83a6.36,6.36,0,0,0,2.07,2.17c0-8.31,7.48-17.17,8.43-18.26l7.6-13.87L47.14,272l.38-.11c37.86-10.76,55.32-22.6,63.29-30.64,4.14-4.18,5.81-7.43,6.46-9.09l-11-.68,15-11.26,9.87,13.15-.4.67c-.33.54-.63,1.09-.92,1.64a28.66,28.66,0,0,0-3.42,12.76v.33a28.71,28.71,0,0,0,4.53,15.5c.2.3.32.46.33.47l1.14,1.53-1.88.28c-24.32,3.67-52.8,18.83-71.34,31.8-10.37,7.23-18.7,14.48-23.45,20.42-2.78,3.46-4.29,6.42-4.39,8.57a4,4,0,0,0,.1,1.21c1.09,4.4,7,10.05,16.14,15.48,15,8.91,34.16,14.75,41.78,12.75,12.94-3.37,32.05,2.24,34.19,2.89l1.13.27-.4,1.88-.28,1c-15.46,58.32-20.22,57.8-22.25,57.57-2.28-.26-3-3.79-3.26-6.31L88.47,417.6c-7.4,5-11.62,6.43-13.69,4.68-1.49-1.25-1.14-3.6-.65-5.2-4.15.52-9.55,6-11.47,8.36l-.42.51-.66-.11c-6.1-1.1-11-.14-14.46,2.85s-5,7.45-5.73,11c8-11.63,19-7.33,19.08-7.28l2.78,1.14-2.83,1c-7.72,2.7-8.14,8.11-7.8,10.85,4.1-3.15,7.23-4.28,9.53-3.44a4,4,0,0,1,2.3,2.24c9.44,2.81,26.33-5.27,26.5-5.36l.46-.22.46.19c7.57,3,14.4,3.23,20.29.6,9.67-4.32,13.65-14.94,13.69-15l.28-.75h.79c2.1,0,5.79,4.83,8.56,8.95l1.28-10.22c-2.77-2.32-13.25-13.81,4.29-44.1,6.73-11.64,10.09-21.1,10-28.12v-.26a14.46,14.46,0,0,0-1-5l-.1-.24a8.52,8.52,0,0,0-1.74-2.66c-.07-.08-.15-.15-.22-.22-2.3,5.77-13.57,6.58-20.69,4.88-4.48-1.06-6.87-3-6.57-5.34l0-.21a3.57,3.57,0,0,1,.55-1.29,3.86,3.86,0,0,0,.52-1.19,3,3,0,0,0,.1-1c-.19-3.14-5.26-6-8.22-7.17l.69-2.16a5.13,5.13,0,0,0,1.32.1c4.65,0,16-2.66,33-7.61l.18,0c9.42-2.74,17.15-5.21,17.22-5.23l1.49-.48v1.56a43.44,43.44,0,0,0,.37,5.38A158.06,158.06,0,0,0,172,342c6.81,26.51,19.16,59.92,21.56,66.35.09.21.13.34.13.34l.12.38-.14.38-2.56,6.67c6.47,3.8,12.38,4.77,17.56,2.9,9.54-3.45,13.64-15.46,13.68-15.58l.35-1.05,1.06.32c4.21,1.27,11.93-5.64,14.54-8.41l1.27-1.34.63,1.73c15.33,42,2.46,86.2,1.79,88.46-2.12,14.08,9.74,20.18,9.86,20.24l.59.29,0,.66a7.9,7.9,0,0,0,2.62,5.82c3.18,2.74,8.24,2.47,8.87,2.42A2.74,2.74,0,0,1,264.54,512.49ZM227.68,317.27l-2.54-24.08.89-.41c2.89-.95,17.51-5.37,25.06-.84a9,9,0,0,1,4.31,6.39,10.65,10.65,0,0,1,.14,1.45C256,313,230,316.94,228.85,317.1Zm-.09-22.6,2.1,20c4.95-.91,23.89-5,23.57-14.8a6.34,6.34,0,0,0-.11-1.12,6.65,6.65,0,0,0-3.24-4.83C243.73,290.18,231.17,293.59,227.59,294.67ZM104.16,191l.78-22.73,4.66,5.31,2.4-7.21,4.79,6.63,4.37-9.34,8.3,20.59-6.27-4.46L118,188.56l-6.64-5.36Zm6.94-10.91,6.26,5,5.14-8.64,1.93,1.38L121,169.37l-3.78,8.11-4.46-6.17-2.25,6.76-3.49-4-.38,10.84ZM96.18,166.75c-9.48,0-13.78-4.18-14.56-8.19a7.07,7.07,0,0,1,5.24-8.21h0c8.75-2.31,14.71,13.88,15,14.58l.49,1.34-1.42.17A38.3,38.3,0,0,1,96.18,166.75Zm-8.73-14.2a4.76,4.76,0,0,0-3.59,5.57c.68,3.51,5.09,7.11,15.29,6.22-2-4.7-6.64-13.13-11.7-11.79Zm33,9.25-.39-1.37c-.2-.7-4.84-17.31,3.59-20.56a7.05,7.05,0,0,1,9.05,3.58c2,4.28.3,11.48-11,17.67Zm5.89-20.16a5.2,5.2,0,0,0-1.87.35c-4.87,1.88-3.74,11.44-2.58,16.4,8.78-5.23,10.25-10.74,8.75-14A4.69,4.69,0,0,0,126.29,141.64Z" style="fill:#fff"/></g></g></svg>