<svg xmlns="http://www.w3.org/2000/svg" viewBox="0 0 158.6 285.87"><defs><style>.cls-1{fill:#df0b13;}.cls-2{fill:#fff;}</style></defs><title>Ranger</title><g id="Layer_2" data-name="Layer 2"><g id="Layer_1-2" data-name="Layer 1"><path class="cls-1" d="M157.5,4.87c0,6,.25,12.07,0,18.09-1.28,26.78-6,52.92-17.72,77.18a65.3,65.3,0,0,1-15.27,20.18c-11.43,10-24.27,18.4-36.21,27.86C68.54,163.8,55.48,184.63,45.13,207c-8.4,18.17-15,37.16-22.37,55.81a18.63,18.63,0,0,0-1.48,6.47c-.05,8.76-6,13.92-13.85,15.46a108.05,108.05,0,0,1-5.38-9.47A7.71,7.71,0,0,1,1.78,270c1.75-5.07,4.29-9.89,5.78-15,.82-2.83.14-6.09.14-9.9,6.41,0,6.93-5.24,8.61-10.17,3.87-11.42,8.32-22.64,12.71-33.88.54-1.38,2-2.46,3.22-3.51,2.08-1.82,4.47-3.31,6.38-5.28,4.63-4.77,4.52-8.51-1-14.15,9.46-14.06,18.67-28.66,28.85-42.54,5.79-7.9,13-14.8,19.87-21.85,21.33-21.88,37.76-47.39,53.75-73.11,6-9.67,10.48-20,15.13-30.48Z"/><path class="cls-2" d="M6.93,285.87l-.36-.61c-.54-.93-1.09-1.84-1.64-2.74a62.94,62.94,0,0,1-3.79-6.83,8.76,8.76,0,0,1-.3-6c.76-2.22,1.69-4.41,2.58-6.54a79.24,79.24,0,0,0,3.18-8.43,18.53,18.53,0,0,0,.25-6c-.07-1.15-.15-2.34-.15-3.61v-1h1c4.74,0,5.73-3.24,7-7.35.21-.71.43-1.43.67-2.14,3.51-10.36,7.56-20.72,11.48-30.73l1.24-3.2A9.29,9.29,0,0,1,31,197.31l.6-.51c.85-.75,1.76-1.45,2.64-2.13a31.24,31.24,0,0,0,3.67-3.1c4.33-4.46,4.1-7.56-1-12.75l-.57-.58.46-.67c2.78-4.14,5.54-8.33,8.32-12.53C51.7,155.09,58.49,144.8,65.69,135c4.86-6.62,10.77-12.62,16.48-18.41L85.65,113c21-21.59,37.37-46.82,53.62-72.94,5.71-9.19,10-18.8,14.45-29l.6-1.37L158.5,0V4.87c0,1.9,0,3.79.05,5.69,0,4.08.11,8.3-.09,12.45-1.45,30.46-7.28,55.83-17.82,77.57a66.11,66.11,0,0,1-15.51,20.49c-6.95,6.09-14.53,11.66-21.86,17-4.76,3.5-9.69,7.13-14.39,10.85C71.86,162.45,58.25,181,46,207.43c-6,13-11.19,26.61-16.21,39.8-2,5.24-4,10.65-6.14,16a17.4,17.4,0,0,0-1.41,6.11c-.05,8.5-5.52,14.65-14.66,16.44Zm1.79-39.8c0,.87.07,1.71.12,2.53a19.91,19.91,0,0,1-.32,6.68,78,78,0,0,1-3.26,8.66c-.88,2.09-1.79,4.25-2.53,6.41A6.82,6.82,0,0,0,3,274.87a62.12,62.12,0,0,0,3.67,6.61c.44.71.87,1.43,1.3,2.15,7.82-1.77,12.31-7,12.35-14.34a19.31,19.31,0,0,1,1.55-6.83c2.08-5.3,4.14-10.71,6.14-15.94,5-13.22,10.23-26.89,16.26-39.93,12.34-26.7,26.13-45.51,43.41-59.2,4.73-3.74,9.67-7.38,14.45-10.89,7.29-5.36,14.83-10.9,21.72-16.93a64,64,0,0,0,15-19.87C149.26,78.22,155,53.1,156.46,22.91c.19-4.09.14-8.27.09-12.32V9.65l-1,2.27C151,22.16,146.75,31.84,141,41.15c-16.3,26.21-32.7,51.55-53.88,73.28L83.6,118c-5.67,5.75-11.52,11.69-16.3,18.2-7.17,9.77-13.95,20-20.5,30q-3.94,6-7.89,11.88c5.26,5.64,5.35,9.88.42,14.95a35.36,35.36,0,0,1-3.88,3.29c-.85.66-1.74,1.33-2.55,2l-.62.54A7.81,7.81,0,0,0,30,201.42l-1.25,3.2c-3.91,10-7.95,20.33-11.45,30.65-.23.69-.44,1.38-.65,2.07C15.36,241.41,14.09,245.61,8.72,246.07Z"/><path class="cls-1" d="M75.7,116.62a137,137,0,0,0-17.52,20.22c-1.39-.8-3.66-1.36-4.73-2.25-8.71-7.22-16.09-11.23-24.08-19.17C16.89,103,12.14,86.29,8.61,69.89c-3.89-18-5.19-36.67-7.51-55.06a27.19,27.19,0,0,1,.25-6.1A39.38,39.38,0,0,1,2.3,4.4C19,48.62,44.67,82.28,75.7,116.62Z"/><path class="cls-2" d="M58.45,138.16l-.77-.45a14.35,14.35,0,0,0-2-.87,11.24,11.24,0,0,1-2.92-1.48c-3.38-2.81-6.59-5.14-9.69-7.4a114.77,114.77,0,0,1-14.46-11.84c-13-13-17.7-30.56-21-46-2.79-13-4.27-26.4-5.7-39.4C1.35,25.53.77,20.19.1,15A23.89,23.89,0,0,1,.25,9.61l.1-1a18.82,18.82,0,0,1,.57-2.8c.12-.5.26-1,.4-1.65L2.05.92,3.23,4C20.78,50.61,48.79,85.34,76.44,116l.66.73-.72.67A135.76,135.76,0,0,0,59,137.43ZM2.51,7.76c-.07.37-.13.72-.17,1.06l-.1,1a21.78,21.78,0,0,0-.15,4.89C2.75,20,3.34,25.31,3.91,30.48c1.43,13,2.91,26.34,5.68,39.2,3.27,15.18,7.82,32.43,20.48,45A114.27,114.27,0,0,0,44.3,126.35c3.12,2.27,6.35,4.62,9.79,7.47A10.25,10.25,0,0,0,56.46,135c.48.18,1,.38,1.41.58a138,138,0,0,1,16.43-19C47.33,86.65,20.1,52.76,2.51,7.76Z"/><path class="cls-1" d="M84,159.89c5-6.16,10.67-10.21,16.73-15.08,7.68,12.48,12.94,22.17,20,33.57-6.26,6.83-4.38,12,3.47,17.4,4.08,2.8,5.79,5.86,7.26,10.26,3.1,9.33,7,18.4,10.74,27.49,1.8,4.38,1.13,10.65,8.18,11.42.4.05,1,1.88.86,2.76-1.43,8,2.67,14.55,5.45,21.5a10.08,10.08,0,0,1-.23,6.67c-1.12,3-3.1,5.7-4.79,8.66-8.57-1.39-12.18-5.72-13.92-14.3a166.65,166.65,0,0,0-7.18-24.52c-9-24.43-19.63-48.18-34.49-69.74C91.77,169.74,89.44,166.74,84,159.89Z"/><path class="cls-2" d="M152.19,285.64l-.69-.11c-8.57-1.39-12.85-5.76-14.74-15.09a164.08,164.08,0,0,0-7.13-24.37c-10.89-29.38-21.49-50.83-34.38-69.53-4.37-6.33-6.69-9.31-12-16l-.49-.63.5-.62c4.29-5.26,9-9,14-12.95l2.86-2.28.88-.71.59,1c3.94,6.39,7.25,12.08,10.45,17.58s6.08,10.43,9.5,16l.39.65-.51.55c-2.58,2.82-3.7,5.31-3.44,7.63.3,2.65,2.51,5.36,6.75,8.27s6.16,6.36,7.63,10.78c2.66,8,5.94,15.89,9.12,23.55l1.6,3.87a25.64,25.64,0,0,1,1.08,3.59c.89,3.6,1.66,6.71,6.29,7.22a1.34,1.34,0,0,1,.92.57,5.38,5.38,0,0,1,.81,3.35c-1.09,6.16,1.21,11.37,3.65,16.88.59,1.32,1.2,2.7,1.75,4.07a11.08,11.08,0,0,1-.22,7.4,36.29,36.29,0,0,1-3.3,6.22c-.53.85-1.06,1.7-1.56,2.59ZM85.32,159.91c4.87,6.16,7.33,9.33,11.58,15.5,13,18.84,23.65,40.42,34.6,70A165.75,165.75,0,0,1,138.72,270c1.69,8.34,5.09,12,12.43,13.4.4-.69.82-1.37,1.24-2a34.77,34.77,0,0,0,3.12-5.87,9.11,9.11,0,0,0,.25-5.95c-.54-1.35-1.14-2.7-1.73-4-2.45-5.54-5-11.27-3.79-18a3.79,3.79,0,0,0-.34-1.63c-5.7-.79-6.74-5-7.66-8.68a23.36,23.36,0,0,0-1-3.3l-1.6-3.88c-3.19-7.69-6.49-15.65-9.16-23.68-1.38-4.13-2.94-7.05-6.88-9.76-4.8-3.31-7.22-6.39-7.6-9.7-.31-2.75.82-5.58,3.46-8.63-3.27-5.33-6.12-10.23-9.13-15.4s-6.17-10.59-9.84-16.57l-2,1.58C93.81,151.6,89.35,155.13,85.32,159.91Z"/><path class="cls-1" d="M80.61,242.22c6.67.8,12.48,2,15.07,9,2.44,6.57,6.74,11.31,13.88,13.29,4.3,1.18,4.63,4,2,7.57-4.82,6.64-9,8.71-16.66,6.38a46,46,0,0,0-27.85-.05c-7.79,2.41-13-.26-17.36-7-2.05-3.17-1.47-5.68,1.78-6.53,8.06-2.11,12.46-7.71,15.31-14.86C69.46,243.27,75.44,243.29,80.61,242.22Z"/><path class="cls-2" d="M100.37,280.38a19.69,19.69,0,0,1-5.75-1,45.09,45.09,0,0,0-27.27,0c-7.79,2.41-13.67,0-18.5-7.46-1.63-2.53-1.48-4.31-1.08-5.35a4.64,4.64,0,0,1,3.46-2.69c6.81-1.78,11.46-6.32,14.64-14.26,2.49-6.25,7.7-7.14,12.31-7.94.75-.13,1.5-.26,2.23-.41l.16,0,.16,0c7.06.84,13.12,2.15,15.89,9.62,2.5,6.76,6.82,10.91,13.21,12.67,2.25.62,3.66,1.7,4.18,3.21s0,3.64-1.63,5.92C108.5,278,105,280.38,100.37,280.38Zm-19.56-5.12a49,49,0,0,1,14.4,2.23c6.93,2.11,10.71.65,15.55-6,1.24-1.69,1.71-3.11,1.37-4.08s-1.25-1.5-2.83-1.94c-7-1.95-11.81-6.49-14.56-13.9-2.36-6.37-7.54-7.52-14.09-8.32-.7.15-1.41.27-2.13.39-4.49.78-8.72,1.51-10.8,6.71-3.43,8.59-8.51,13.5-16,15.45a2.8,2.8,0,0,0-2.09,1.49c-.34.86,0,2.12.9,3.54,4.38,6.81,9.23,8.79,16.22,6.63A47.34,47.34,0,0,1,80.81,275.26Z"/><path class="cls-1" d="M72.27,199c2.33,7.43,5,13.72,6.14,20.28.84,4.95,0,10.3-.76,15.35-.56,3.55-6.45,4.16-10.37,1.38-8.17-5.8-9.43-20.68-2.49-28.06C67.29,205.33,69.48,202.4,72.27,199Z"/><path class="cls-2" d="M72.75,238.78a10.7,10.7,0,0,1-6-1.93C62.65,234,60,228.92,59.4,223S60.54,211,64.07,207.3c1.65-1.76,3.21-3.7,4.86-5.74.81-1,1.66-2.07,2.57-3.17L72.67,197l.55,1.75c.72,2.29,1.48,4.48,2.21,6.59a88.46,88.46,0,0,1,4,13.83c.88,5.19,0,10.76-.76,15.67a4.42,4.42,0,0,1-2.84,3.39A7.81,7.81,0,0,1,72.75,238.78Zm-.87-37.69c-.48.58-.94,1.16-1.39,1.72-1.68,2.08-3.26,4-5,5.86-3.13,3.33-4.67,8.6-4.13,14.1.53,5.29,3,9.95,6.47,12.45A7.94,7.94,0,0,0,75,236.37a2.51,2.51,0,0,0,1.64-1.86c.74-4.76,1.59-10.15.76-15A85.37,85.37,0,0,0,73.54,206C73,204.39,72.43,202.77,71.88,201.09Z"/><path class="cls-1" d="M89.09,199.28c8.76,7.85,15.24,16.19,11.53,27.71-1.33,4.12-5.82,7.89-9.79,10.27-3,1.76-6.42.47-7.21-4.64-1.48-9.49-.94-18.34,4.24-26.71C88.82,204.35,88.62,202.06,89.09,199.28Z"/><path class="cls-2" d="M88.31,239a4.79,4.79,0,0,1-2.08-.46c-1.88-.88-3.16-2.93-3.6-5.76C80.9,221.71,82.29,213,87,205.38a8.79,8.79,0,0,0,.77-3.55c.07-.81.16-1.74.33-2.72l.3-1.78,1.35,1.21c8.49,7.61,15.8,16.35,11.81,28.76-1.69,5.26-7.72,9.31-10.23,10.81A5.89,5.89,0,0,1,88.31,239Zm1.52-37.69-.06.71a10,10,0,0,1-1.06,4.42c-4.51,7.29-5.77,15.32-4.11,26,.34,2.16,1.22,3.67,2.48,4.26a3.4,3.4,0,0,0,3.23-.33c4.83-2.88,8.33-6.52,9.36-9.72C103.09,216,97.2,208.17,89.83,201.31Z"/><path class="cls-1" d="M108.2,221c3.47,6.7,7.15,12.82,9.85,19.35,1.75,4.23-3,14.39-7.18,15.72-2.22.7-5.43-.07-7.59-1.26-4-2.18-5.36-6.18-4.42-10.53a53.22,53.22,0,0,1,3.24-8.83C103.87,231.12,105.74,226.82,108.2,221Z"/><path class="cls-2" d="M108.93,257.36a13.32,13.32,0,0,1-6.13-1.66c-4.16-2.29-6-6.63-4.92-11.62a41,41,0,0,1,2.51-7.13c.26-.62.53-1.24.78-1.86,1.21-3,2.46-5.91,3.92-9.32.68-1.59,1.4-3.29,2.18-5.14l.83-1.95,1,1.88c1,2,2.11,4,3.16,5.91A145.39,145.39,0,0,1,119,240c.92,2.24.39,5.91-1.43,9.82s-4.16,6.53-6.38,7.23A7.49,7.49,0,0,1,108.93,257.36Zm-.64-34-1.36,3.2c-1.45,3.4-2.7,6.33-3.91,9.28-.25.63-.52,1.26-.79,1.89a40,40,0,0,0-2.4,6.78c-.89,4.13.54,7.57,3.93,9.44,1.91,1.05,4.86,1.8,6.8,1.18,1.62-.51,3.7-3,5.18-6.17s2.08-6.52,1.39-8.2a142.74,142.74,0,0,0-6.65-13.34Q109.39,225.41,108.29,223.36Z"/><path class="cls-1" d="M53.85,221.36c2.18,5.32,3.59,9.82,5.79,13.9,4.8,8.9,4.49,15.62-1.37,19.94-3.62,2.67-6.79,2.4-9.69-1.06-4.91-5.88-7.08-12.09-2.66-19.29C48.68,230.36,51.26,225.77,53.85,221.36Z"/><path class="cls-2" d="M53.67,258c-2.1,0-4.06-1.08-5.86-3.23-6-7.2-6.89-13.7-2.74-20.45,1.9-3.1,3.74-6.29,5.52-9.37L53,220.85l1-1.74.77,1.87c.72,1.74,1.35,3.4,2,5a72.33,72.33,0,0,0,3.79,8.82c5.12,9.5,4.56,16.64-1.66,21.23A8.9,8.9,0,0,1,53.67,258Zm0-34.38L52.33,226c-1.79,3.09-3.64,6.28-5.56,9.4-3.68,6-2.89,11.59,2.58,18.12,2.52,3,5.09,3.29,8.32.91,5.37-4,5.73-10.07,1.09-18.67a77.23,77.23,0,0,1-3.9-9Z"/></g></g></svg>