<svg xmlns="http://www.w3.org/2000/svg" viewBox="0 0 305.43 300.91"><title>Red-Dragon_1</title><g id="a629b207-b718-46ee-a948-e5412416ce30" data-name="Layer 2"><g id="aa1501b0-d3fe-45cf-8b4d-1593ad95affa" data-name="Layer 1"><circle cx="98.4" cy="69.87" r="5.99" style="fill:#f46300"/><path d="M287.57,138s14.83,27.06,9,39.93c0,0-8.37-21.89-16.75-14.81s-1.94,28.33-1.94,28.33,7.09,35.43-1.28,51.52c0,0-1.92-45.07-16.1-18.66,0,0-3.85,59.87-11.6,62.44,0,0-4.86-44.89-23.65-61.36-7.64-6.71-17.58-8.72-30.42-1.08-34.7,20.6-69.81-101-83.5-155.21-.15-.6-.31-1.18-.46-1.76a.46.46,0,0,0-.05-.21C107.32,53,105.35,44,105.35,44s1-1.44,2.88-3.76c.3-.43.68-.88,1.08-1.36,7.92-9.74,26.41-29.86,43.06-28.37,0,0-13.55,15.46,1.91,16.74s40.58-15.46,40.58-15.46S238-6.89,263.76,6.63c0,0-30.92,11.57-12.88,23.8,0,0,38.63,2,51.52,20.61,0,0-28.2-7.36-28,18.49a60.73,60.73,0,0,0,3.3,17.68c.43,1.41.93,2.9,1.49,4.41,0,0,23.2,5.14,17.4,39.27,0,0-12.89-25.75-16.75-14.81S287.57,138,287.57,138Z" style="fill:#810b0e"/><path d="M43.53,218.47s-18.67,12.88-14.81,37.35l9-13.52s3.22,27-5.15,34.77A42.76,42.76,0,0,0,58.34,252c7.73-20,9-12.87,9-12.87s0,14.16-3.22,17.38c0,0,27-16.1,13.52-46.36S43.53,218.47,43.53,218.47Z" style="fill:#c8822c"/><path d="M258.56,140.52c-7.71-19.29-22.49-22.5-22.49-22.5-3.23-16.11-9.66-15.46-9.66-15.46,6.43-4.51,30.26,4.52,30.26,4.52-7.19-11.4-18.23-13.39-25-13.42a29.93,29.93,0,0,0-5.93.53c-38-56-82.42-28.32-82.42-28.32l-32.76-26-1.26-1-6.53-5.2c-27.06,15.46-26.41,4.52-26.41,4.52l-5.8,10.29-14.8.65L45.45,61.35,44.17,53l-9.66,6.43C19.7,64.58,24.22,45.26,24.22,45.26c-49.59,35.41-6.46,74.68-6.46,74.68l1.94-7.06,9.66,23.81L33.22,127l6.46,14.68c-.51-1.9-.68-5.63,3.2-10.82,5.8-7.72,12.89,12.25,12.89,12.25C42.88,158,45.45,172.75,45.45,172.75H40.31L41.59,185l-5.8-3.85,2.6,11.57-1.94,8.37-7.09-6.43.66,27c3.23-1.94,5.14.78,6.28,4v0a33.07,33.07,0,0,1,1.43,6.89c9,13.54,41.87-12.24,41.87-12.24s.38-.37,1.06-1.06c5.25-5.22,28.52-27.84,38.21-27.26,7.31.43,8,9.46,5,15.81-1.51,3.16-3.93,5.65-6.93,6.08a2.23,2.23,0,0,0-.63.18c-1.54.5-4,2.17-6.91,4.64C96.5,229.52,72.92,255.37,62.1,267.43a.57.57,0,0,1-.1.13c-3.48,3.85-5.6,6.28-5.6,6.28l0,.88.63,22.95c5.75-10.8,47.77-22,89.11-35.31,32.56-10.47,64.69-22.27,78.31-36.17.27-.27.53-.55.8-.83,29.84-31.83,13.37-95.1,13.37-95.1C244.26,129,257.76,139.87,258.56,140.52ZM82.8,73.59A18.09,18.09,0,0,1,90,65.29a8.9,8.9,0,0,0,2.47-.71A14.09,14.09,0,0,1,97,63.3c3.73-.18,8.32.85,13.92,4,.15.58.3,1.16.45,1.76C109.69,73.23,102.88,85.52,82.8,73.59Z" style="fill:#b1140a"/><path d="M112,67.61l-.24.18s-.06,0-.08-.05-.4-.33-.85-.64c-2.12-1.4-7.67-4.59-13.87-3.8a14,14,0,0,0-4.52,1.28,9,9,0,0,1-2.47.71,13.57,13.57,0,0,1-2,.14,15.06,15.06,0,0,1,1.53-1l.17-.1.2,0A8,8,0,0,0,92,63.66a14.91,14.91,0,0,1,4.81-1.37c4.45-.22,9.3,1.17,14.55,4.13l.37.21.12.42C111.94,67.24,112,67.42,112,67.61Z" style="fill:#c8822c"/><path d="M277.71,87.21c-1,0-2.09-.06-3.2-.13a48.37,48.37,0,0,1-7.59-1.31c-6.23-1.52-21.62-4.39-25.7,3.28-1,1.91-4.47,3.48-9.54,4.61-20.63,4.62-67.81,1.89-83.83-16.22-20-22.52-36.06-9.65-36.06-9.65a.35.35,0,0,0-.08-.05,9.73,9.73,0,0,0-.86-.64c-2.12-1.41-7.66-4.59-13.87-3.8a14,14,0,0,0-4.51,1.28,8.9,8.9,0,0,1-2.47.71c-10,1.54-26.21-10.44-37.46-3.94a152.47,152.47,0,0,1,55.69-21.13c.78-.13,1.56-.25,2.35-.35a117.34,117.34,0,0,1,39.79.75,67.91,67.91,0,0,1,28.27,13c10.32,8,31.4,18.84,58.72,4.52,0,0,17.12-8.25,34.4,9.13a22.85,22.85,0,0,0,2.65,2.27,19.7,19.7,0,0,0,9.23,3.8c5.54.74,12.63-.7,18.76-9.4C302.4,63.93,304,87.61,277.71,87.21Z" style="fill:#c8822c"/><path d="M192.28,171.47c-1.13,8.9-10,27.28-20.88,47.28-8,14.68-17.17,30.27-25.24,43.61-41.34,13.29-83.36,24.51-89.11,35.31l-.63-22.95c1.82-2.37,3.69-4.77,5.58-7.16a.57.57,0,0,0,.1-.13c15.36-19.45,33.26-39.67,47.29-48.65l.47-.3c2.35-1.47,4.49-2.93,6.44-4.34a73.36,73.36,0,0,0,7.56-6.26c14.55-13.72,12-24,11.78-24.79l9,14.13,2.6-14.18,2.69,2.12,14.68,11.43-3.86-16.75L182,186.93l-3.86-11.6C176.82,161.15,192.28,171.47,192.28,171.47Z" style="fill:#c8822c"/><path d="M304.05,63.22l-.19-2.88L302.2,62.7c-4.84,6.87-10.82,9.89-17.79,9a18.92,18.92,0,0,1-8.31-3.3c0-6.5,2-11.3,5.8-14.28,7.74-6,20.75-2.75,20.88-2.72l2.65.69-1.56-2.25c-12.56-18.22-48.14-20.8-52-21-3.58-2.49-5.24-5.08-4.93-7.7.92-7.74,17.66-14.11,17.83-14.17l2.13-.8-2-1.06c-25.89-13.59-68,4.35-69.78,5.12l-.16.09c-.24.16-25,16.52-39.91,15.29-3.42-.29-5.5-1.3-6.19-3-1.45-3.58,3.07-9.91,4.94-12L155.09,9l-2-.18c-16.31-1.43-33.88,16.54-43.29,28l-6.29-5-.6.35c-16.14,9.21-21.74,8.66-23.65,7.51a2.35,2.35,0,0,1-.68-.59,2.44,2.44,0,0,1-.17-.82l0-4.36-7.78,13-14.69.63L47,58.07l-1.25-7-11,6.78c-3.34,1.14-5.81,1-7.34-.36a4.86,4.86,0,0,1-.74-.88c-1.63-3.31-.7-10.94-.19-13.14l-2.17.3C9,54.68.87,67.07.07,80.62-.51,90.4,2.79,99.16,6.7,105.93a73.54,73.54,0,0,0,10.94,14.38l3.22-4.11L30,138.78l.05-.14.32.78,3.86-9.65,5.2,11.81.07,0,.25.56,1.91-.68c-.43-1.61-.61-5.06,3-9.94,1.15-1.53,2-1.39,2.35-1.34,1.6.24,3.42,2.49,5,5.28a51.11,51.11,0,0,1,3.14,6.84c-10.69,12.59-10.62,25-10.29,28.81H39.83L41,182.29l-6.09-4.07L38,192.07l-1.49,6.44-7.78-6.29.53,16.63L29.93,223l1.63-.4a2.42,2.42,0,0,1,2.1-.41,3.37,3.37,0,0,1,1.48,1.34,12.5,12.5,0,0,1,.65,1.41,39.39,39.39,0,0,0-7.43,30.43l.41,2.58,8.86-13.29c.54,7,1.25,25.2-5.09,31.05l-3.15,2.91,4.12-1.18a43.37,43.37,0,0,0,26.43-25.72c4.41-11.39,6.43-13.14,6.94-13.41a1.16,1.16,0,0,1,.1.28c0,3.91-.55,14.18-2.92,16.55l-5.8,5.79,7-4.2c.22-.13,21.24-13,17.26-36.79,13.36-13.28,30.06-27.22,37.27-26.81a5.36,5.36,0,0,1,4.36,2.34,9.83,9.83,0,0,1,1,4c.23,5.55-3,12.25-7.72,12.92-9.12,1.3-56,54.34-61.28,60.37L57,300.91,59,298.15c4.56-8.55,35-18,67.16-28.08,7-2.19,14.19-4.43,21.35-6.74,31.07-10,64.72-22.12,78.72-36.42l.29-.28c17.25,16.89,22,59.13,22.08,59.56l.14,1.26,1.2-.4c7.92-2.64,11.58-52.53,12.27-63.14,3.85-7.1,6.19-7.76,7.24-7.52,4.21,1,6.43,16.43,6.84,26l.16,3.81,1.76-3.39c8.44-16.22,1.68-50.72,1.36-52.27-.06-.21-6.15-20.69,1.62-27.26a4,4,0,0,1,3.79-1c4.94,1.26,9.86,11.57,11.34,15.43l.87,2.29,1-2.23c5.93-13.19-8.44-39.71-9.05-40.83l-.19-.25c-.12-.11-11.07-10.63-7.47-20.82.46-1.3,1-2,1.7-2h.09c3.17,0,9.53,9.87,13.08,17l1.39,2.79.52-3.08c5.38-31.67-14-39.18-17.61-40.29-.29-.83-.58-1.67-.86-2.53,7.82-.15,13.92-2.48,18.14-6.93C304.67,73.54,304.08,63.63,304.05,63.22ZM38.37,183.38,43.86,187l-1.4-13.27h5.22l-.2-1.19c0-.15-2.31-14.54,10.07-28.77l.4-.44-.2-.57a53.5,53.5,0,0,0-3.9-8.45c-1.85-3.3-4.26-6.45-6.85-6.85-1.1-.17-2.73.07-4.28,2.14a18.34,18.34,0,0,0-3.32,6.59l-5.2-11.84,0,.1-.33-.74-3.77,9.44-8.81-21.74c1.39-3.56,3.43-7.27,6.25-9a6.41,6.41,0,0,1,5.25-.84L52.64,118,54,109.49,79.4,127.31l6.49-15.57c3.54,2.05,10.23,6.58,10.63,10a2.23,2.23,0,0,1-.86,2c-3.33,3-2.92,10.41-2.49,18.31.38,6.93.78,14.1-1.52,17.26-4.19,5.77-9.3,12.46-11,14.68l-8.39-5.6-1.31,19-8.88-3.81-2.6,14.91L48,194.63l-3.69,12.92-6-5.72,2.12-9.13Zm29.1,69.2c1.5-5.22,1.55-13,1.55-14.15v-.18a2.32,2.32,0,0,0-1.87-2.05c-1.61-.15-4,1.48-9.1,14.74a42.48,42.48,0,0,1-21.78,23.19C42,264,39.52,242.54,39.4,241.53l-.33-2.75-9,13.55a37.15,37.15,0,0,1,6.65-25.18,34.08,34.08,0,0,1,1.05,5.56l0,.27.14.21a9.54,9.54,0,0,0,6.74,4.22c12.18,2,32.62-13.17,36.11-15.83C82.8,237.59,72.82,248.16,67.47,252.58Zm210.91-167-1.41,0,.42,1.35c.49,1.53,1,3,1.5,4.42l.2.53.54.12c.22,0,20.78,5,17.06,35-2.95-5.43-9.09-15.55-13.65-15.28-1.57.1-2.75,1.24-3.5,3.38-3.87,11,6.53,21.56,7.86,22.86,1,1.93,12.56,23.9,9.72,36.41-2-4.33-6.4-12.81-11.67-14.16a6,6,0,0,0-5.61,1.46c-8.78,7.43-2.52,28.51-2.27,29.31.06.32,5.89,30,.44,46.87-.66-7.65-2.61-22.19-8.13-23.45-2.94-.67-6.08,2.19-9.6,8.74l-.11.19v.23c-1.37,21.21-5.13,54.49-9.78,60.63-1.1-8.43-6.55-43.5-22.5-59.05C254.41,195.43,243,140,240.93,131.19c4.35.24,12.92,6,18,10.13l3,2.47-1.45-3.65c-7-17.49-19.54-22.07-22.58-22.95-2-9.43-5.17-13.19-7.53-14.68,6.81-1.21,21.23,3.37,26.91,5.52l2.85,1.09-1.62-2.59a30.17,30.17,0,0,0-23.1-13.85c-1,.3-2.06.59-3.23.85-2,.45-4.29.84-6.75,1.14l.36.54.68-.15a28.59,28.59,0,0,1,5.7-.51c6.67,0,16.16,2,22.79,10.48-6.9-2.37-22.7-7.14-28.17-3.3l-2.89,2,3.56-.19c.08,0,5.62-.14,8.58,14.64l.13.66.65.14c.14,0,12.45,2.92,20.13,18.23-4.68-3.44-13.08-9-17.56-8l-1,.22.27,1c.16.63,14.62,62.22-13.36,93.54-.05,0,0,0,0,0-16.47,16.8-61.44,31.34-100.31,43.47-30.56,9.54-57.36,17.9-66,26.26l-.54-19.58c.66-.76,2.56-2.91,5.3-5.95a1.41,1.41,0,0,0,.19-.21c12.28-13.68,34.66-38.1,47.12-48.49,3.73-3.12,5.63-4.14,6.57-4.45l.1,0a1.36,1.36,0,0,1,.36-.1c3.09-.44,5.89-2.86,7.71-6.64,2.24-4.72,2.4-10.18.37-13.61a1.88,1.88,0,0,1-.12-.18,7.41,7.41,0,0,0-6.47-4.13c-9.89-.6-32.66,21.78-39.3,28.39,0,0,0-.05,0,0-1.16.9-23.4,18.5-35.3,16.59a7.54,7.54,0,0,1-5.24-3.12,33.75,33.75,0,0,0-1.4-6.7l-.06-.19a13.61,13.61,0,0,0-1.45-3A5.7,5.7,0,0,0,34,219.61a3.73,3.73,0,0,0-2-.16l-.52-21.36,13.85,13.27,4-14.12,11.71,3.9,2.56-14.71,9.14,3.92L74.05,172l7.06,4.71.58-.76c.06-.08,6.51-8.46,11.61-15.48,2.73-3.75,2.31-11.29,1.91-18.58-.39-7.06-.79-14.36,1.8-16.67a4.23,4.23,0,0,0,1.53-3.77c-.63-5.43-11.44-11.39-12.67-12.06l-1-.53L78.5,124.18,52.43,105.94l-1.26,8.21L33.71,99.71l-.21-.06a8.51,8.51,0,0,0-7.09,1c-5.17,3.28-7.88,11.66-9,16.16a65.68,65.68,0,0,1-9-12.07C4.88,98.35,2,90.25,2.48,81.39,3.19,69.24,10.22,58,23.32,48c-.27,2.89-.22,6.91,1.52,9.65a6.92,6.92,0,0,0,1.53,2.06c2.15,1.91,5.33,2.16,9.49.71l8.32-5.5,1.46,8.33L57.28,50.12l14.92-.66,4.94-8.75A4.53,4.53,0,0,0,78.51,42c4,2.48,12.47.08,25.2-7.12l6.51,5.17,1.37-.19,1.41-.19-1.78-1.42c7.24-8.8,24.24-27.23,39.72-27.47-2.05,2.75-5.66,8.44-4,12.53,1,2.49,3.67,3.92,7.92,4.28C170.18,28.88,194.14,13.25,196,12c2-.87,41.21-17.11,65.91-6.13-4.83,2.11-16.14,7.77-17,15-.42,3.49,1.61,6.78,6,9.78l.23.16.29,0c.36,0,35.28,2,49.1,18.06-4.5-.7-13.58-1.32-19.92,3.62-4.44,3.46-6.65,9-6.59,16.42v.51l.41.31a21,21,0,0,0,9.67,4c4.82.64,11.61-.24,17.75-7.32-.33,3.32-1.51,8.71-5.48,12.89S286.29,85.7,278.38,85.57Z" style="fill:#fff"/><path d="M112.08,66.23c-4.81-3.69-13.48-4.35-19-2.59a16.13,16.13,0,0,0-10.16,9.58l-.31.81.75.44c5.84,3.48,11.08,5.22,15.63,5.22a15.46,15.46,0,0,0,5-.8c2.79-.94,9.77-6.06,9.6-10.07A3.37,3.37,0,0,0,112.08,66.23ZM103.29,77c-4.82,1.62-10.91.34-18.16-3.8-.19-.11,2.16-3.34,2.34-3.55A11.43,11.43,0,0,1,92,66.13c6-2.37,10.84-1.55,16.73.41a4,4,0,0,1,2,1.31C113.23,71.21,105.74,76.13,103.29,77Z" style="fill:#fff"/></g></g></svg>