<svg xmlns="http://www.w3.org/2000/svg" viewBox="0 0 252 305.95"><defs><style>.rogu-1{fill:#df0b13;}.rogu-2{fill:#fff;}</style></defs><title>Rogue</title><g id="Layer_2" data-name="Layer 2"><g id="Layer_1-2" data-name="Layer 1"><path class="rogu-1" d="M127.9,304.42c-.12,1.16-7.26-42.49-7.26-42.49.82,1.72-5.49-81.3-3.76-125.25.31-7.84,2.11-9,2.92-13.71-5.74-4.12-9.29-5.39-13.06-1.23-2.17-4.31-4.12-8.21-6.4-12.76l24.28,4.59c-1.71-16-2-29.92-3.76-46.12C115.31,70,108.24,71,103.27,74.21c-6.63,4.27-12.74,4.64-20.13,1.92-15.34-5.64-31-10.39-46.5-15.63a16.49,16.49,0,0,1-5.89-3.32C21.48,48.54,12.36,39.72,2.83,30.61l7.11-2.39C24.34,23.35,38.82,18.7,53.1,13.5a21.3,21.3,0,0,1,18.2,1.55C80.1,19.8,89,24.59,97.09,30.41c7.43,5.33,15.52,4.4,23.45,5.44.88-2.65,3.66-7.36,4.29-9.4s.84-4.43.24-5.2c-2.65-3.43-2-11.52-1.24-16.75.1-.68,2.45-3.13,4.39-3,1.08.08,3.58,1.71,3.56,2.6,1.22,5.66,1.32,15.09-1.39,18-.6.65-.09,2.48.51,3.85,1.26,2.91,2.92,6.91,4.77,10.38A28.61,28.61,0,0,0,153,31.78c8-5.34,16.57-9.83,24.76-14.89,7.85-4.84,15.43-5.86,24.47-2.26,14.11,5.6,28.77,9.8,43.2,14.6,1.23.41,2.45.88,3.76,1.35-9.7,9.4-19.18,18.63-28.75,27.76a11,11,0,0,1-4,2.07C200,65.9,183.52,71.19,167.16,76.88c-5.55,1.93-10.36,1.62-15.38-1.38-4.85-2.91-11.26-5.32-16.49-8-1.56,15.67-1.73,30.12-3.32,46.07l24.17-4.9-6.06,12.77c-4-3.84-7.36-2.73-13.3,1.62.94,6,2.93,7.37,2.75,13.67-1.18,41.76-2.55,83.52-4.47,125.25ZM91.66,56.52l.71-1.65c-5.76-3.64-11.5-7.32-17.29-10.9-6.4-3.95-11.87-3-18,3.59C69.08,49.67,79.38,57.06,91.66,56.52ZM195,47.5c.08-.78.17-1.56.25-2.34-4.55-1.25-10-4.69-13.47-3.3-7.68,3-14.4,8.53-21.52,13l.66,1.78C173.09,56.8,183.53,50,195,47.5Z"/><path class="rogu-2" d="M127.85,306c-1.26,0-1.43-.92-1.83-3.05-.22-1.17-.51-2.84-.86-4.84-.7-4-1.59-9.3-2.48-14.62-1.78-10.63-3.52-21.27-3.52-21.27l-1.71-10.45,1.5,3.16c-.14-2.82-.33-6.33-.55-10.18-1.48-26.91-4.24-77-3-108.08a29.71,29.71,0,0,1,1.83-9.89,26.27,26.27,0,0,0,.92-3.09c-5.32-3.7-7.61-3.85-10.29-.89l-1.47,1.62L97.64,107l25.28,4.77c-.74-7.28-1.21-14.24-1.66-21s-.94-13.77-1.68-21.13c-1.85.72-3.79,1.32-5.68,1.91-3.48,1.07-7.07,2.19-9.82,4-6.8,4.39-13.42,5-21.46,2.07-9.85-3.63-20-6.94-29.86-10.14-5.45-1.78-11.08-3.61-16.6-5.48a18.09,18.09,0,0,1-6.43-3.64C22.81,51.83,16.1,45.4,9,38.6L1.8,31.7,0,30l4.61-1.54L9.46,26.8Q15.7,24.69,22,22.61C32,19.25,42.45,15.78,52.59,12.09,59.17,9.7,65.52,10.23,72,13.73l.18.1C80.87,18.51,89.84,23.36,98,29.19c5.3,3.81,11,4.21,17,4.64,1.51.11,3.07.22,4.62.39.53-1.27,1.27-2.74,2-4.17A35.58,35.58,0,0,0,123.4,26a7.68,7.68,0,0,0,.45-3.89c-2.28-2.93-2.79-8.95-1.5-17.83.21-1.45,3.25-4.46,6-4.27,1.37.09,4.73,1.87,4.94,3.88,1.19,5.65,1.47,15.45-1.65,19.1a6.63,6.63,0,0,0,.65,2.38l.66,1.52c1,2.39,2.29,5.33,3.65,8a26.51,26.51,0,0,0,15.63-4.34c4.83-3.22,9.94-6.18,14.87-9,3.28-1.9,6.67-3.86,9.93-5.87,8.51-5.25,16.71-6,25.82-2.39,9.82,3.91,20.11,7.19,30.06,10.36,4.29,1.36,8.71,2.77,13.05,4.22.85.28,1.68.59,2.54.9L252,30l-8.36,8.1c-7.58,7.35-14.74,14.29-22.13,21.33a12,12,0,0,1-4.6,2.41q-8.44,2.83-16.91,5.61c-10.62,3.5-21.61,7.12-32.35,10.86-6.09,2.11-11.37,1.64-16.64-1.52a98.14,98.14,0,0,0-9.35-4.64c-1.69-.77-3.42-1.56-5.09-2.37-.65,7-1,13.91-1.43,20.6-.39,6.87-.8,13.95-1.49,21.28l25.14-5.1-8.25,17.38L149,122.47c-2.89-2.82-5.25-2.6-10.61,1.21a32.81,32.81,0,0,0,1.23,4.51,21.7,21.7,0,0,1,1.38,8.53c-1.42,50.21-2.8,88.85-4.47,125.28l0,.18-7.15,42.44-.13,1.26-1.32.06ZM122.18,262c1.75,10.72,4.12,25,5.64,33.83l5.75-34.09c1.67-36.38,3.05-75,4.46-125.13a18.74,18.74,0,0,0-1.23-7.51,34.69,34.69,0,0,1-1.5-5.89l-.14-.9.74-.54c4.7-3.45,9-6,13.65-2.8l3.95-8.32-23.23,4.71.2-2c.8-8,1.24-15.7,1.68-23.17s.87-15.07,1.65-22.9l.22-2.21,2,1c2.15,1.12,4.57,2.23,6.92,3.29a99.51,99.51,0,0,1,9.64,4.8c4.51,2.7,8.86,3.08,14.12,1.25,10.76-3.74,21.75-7.37,32.39-10.87Q207.51,61.8,216,59a9.7,9.7,0,0,0,3.48-1.74c7.38-7,14.54-14,22.11-21.32l4.92-4.76L245,30.65c-4.32-1.43-8.73-2.84-13-4.2C222,23.26,211.64,20,201.72,16c-8.27-3.29-15.4-2.62-23.13,2.15-3.3,2-6.71,4-10,5.92-4.9,2.83-10,5.76-14.72,8.94a30,30,0,0,1-18.25,4.82l-.87,0-.41-.76c-1.57-3-3-6.3-4.17-9l-.65-1.5c-1.12-2.58-1.2-4.42-.23-5.46,2.11-2.29,2.28-10.86,1-16.7v0A5.47,5.47,0,0,0,128.11,3c-.87-.07-2.44,1.27-2.82,1.88-1.09,7.61-.74,13.24,1,15.46,1.35,1.74.34,5.45,0,6.55a37.45,37.45,0,0,1-2,4.51A42.21,42.21,0,0,0,122,36.32l-.39,1.18-1.23-.16c-1.86-.25-3.78-.38-5.64-.52-6.15-.44-12.5-.89-18.49-5.19-8-5.73-16.86-10.52-25.45-15.16l-.18-.1a19.81,19.81,0,0,0-17-1.46C43.44,18.61,33,22.09,22.91,25.46q-6.26,2.09-12.49,4.19L5.66,31.24l5.42,5.2c7.09,6.79,13.79,13.21,20.69,19.64a15.11,15.11,0,0,0,5.35,3c5.5,1.86,11.13,3.69,16.57,5.47,9.86,3.21,20.06,6.53,30,10.17,7.16,2.64,12.78,2.11,18.8-1.77,3.09-2,6.88-3.16,10.55-4.3a60.87,60.87,0,0,0,7.23-2.57l1.89-.87.23,2.08c.87,8.15,1.39,15.83,1.89,23.25s1,14.91,1.86,22.87l.22,2L103,111l4.14,8.26c4.45-3.42,8.93-.81,13.5,2.47l.76.55-.16.93a26.7,26.7,0,0,1-1.23,4.48,26.91,26.91,0,0,0-1.67,9c-1.22,31,1.54,80.94,3,107.79.29,5.3.53,9.62.67,12.63A45.67,45.67,0,0,1,122.18,262ZM125.25,5Zm5.1-.51Zm31,53.72h-1.43l-1.43-3.9,1-.64c2-1.29,4.09-2.69,6.08-4,4.95-3.39,10.08-6.88,15.69-9.11,3-1.17,6.62.3,10.16,1.72a44.38,44.38,0,0,0,4.26,1.54l1.24.34-.52,4.67-1,.23a95.32,95.32,0,0,0-12.57,4C176,55.54,169,58.16,161.32,58.16ZM183.66,43a3.64,3.64,0,0,0-1.31.22c-5.3,2.1-10.28,5.5-15.1,8.79-1.5,1-3,2.08-4.59,3.09,6.59-.27,12.66-2.54,19.06-4.93a104.55,104.55,0,0,1,11.92-3.92v-.05c-1.12-.37-2.25-.83-3.36-1.27C187.92,44,185.49,43,183.66,43Zm-93.27,15c-7.07,0-13.54-2.43-19.81-4.78A77.85,77.85,0,0,0,56.78,49l-2.73-.48,1.9-2c6.55-7,12.88-8.2,19.92-3.85,4,2.5,8.12,5.09,12.06,7.59l5.24,3.32,1.08.68L92.67,58l-.94,0C91.28,58,90.84,58.05,90.39,58.05ZM60.1,46.67a96.64,96.64,0,0,1,11.53,3.79c6.11,2.29,11.91,4.47,18.2,4.58l-3.51-2.22c-3.93-2.5-8-5.08-12-7.58C69.14,42.06,64.89,42.44,60.1,46.67Z"/></g></g></svg>
