<svg xmlns="http://www.w3.org/2000/svg" viewBox="0 0 299.33 243.33"><title>Rug-Of-Smothering</title><g id="bd731661-4af4-42d5-a5de-b75906172cfa" data-name="Layer 2"><g id="aa8c58f0-1453-4d26-9bef-4fccdbc21229" data-name="Layer 1"><path d="M298.29,162.38s-20,23.67-17.83-13.06a4.1,4.1,0,0,0-5.28-4.17c-15.34,4.71-56.6,13.95-41.23,29.74,0,0,22-11.49,46-3.32C279.91,171.57,299.31,176.68,298.29,162.38Z" style="fill:#470612"/><path d="M233.76,176.12l-.53-.53c-3.08-3.16-4.22-6.34-3.39-9.44,2.6-9.79,24.54-16.06,39.06-20.21,2.24-.64,4.28-1.22,6-1.75a5.05,5.05,0,0,1,4.62.86,5.14,5.14,0,0,1,1.94,4.33c-.82,14.27,1.74,18.35,4,19.26,3.82,1.52,10-4.47,12-6.9l1.58-1.88.18,2.45c.27,3.76-.77,6.63-3.07,8.55-5.47,4.53-16.12,1.8-16.57,1.68-23.39-8-45,3.13-45.23,3.24ZM276.39,146a2.88,2.88,0,0,0-.91.14c-1.73.53-3.77,1.11-6,1.76-13.23,3.78-35.37,10.1-37.68,18.79-.6,2.25.19,4.55,2.41,7,3.95-1.85,24.3-10.45,46.05-3,0,0,10,2.57,14.71-1.32a6.58,6.58,0,0,0,2.28-4.33c-2.78,2.76-8.19,7.23-12.48,5.52s-6-8.65-5.28-21.24a3.07,3.07,0,0,0-1.19-2.63A3,3,0,0,0,276.39,146Z" style="fill:#fff"/><path d="M168.72,170.68s-4.09,9.19,23.49,1,70.21-40.34,87.06-25.4c-.51-.45-3.34.18-4,.27a32.27,32.27,0,0,0-4.14.83,40,40,0,0,0-7.41,2.83,64.59,64.59,0,0,0-18.06,12.63c-5.81,6-9.19,13.6-13.57,20.61-4,6.39-6.16,13.68-10.44,20-8.07,11.95-19.34,20.74-31.32,28.52-10.07,6.53-23.76,13.44-35.9,8.63C154.42,240.64,119.7,198.77,168.72,170.68Z" style="fill:#5b0714"/><path d="M163.17,243.26a24.54,24.54,0,0,1-9.12-1.69l-.24-.1-.16-.19c-.63-.76-15.3-18.74-11.56-39.37,2.29-12.68,11.08-23.48,26.13-32.1l2.65-1.52-1.24,2.79a1.76,1.76,0,0,0,.27,1.77c.94,1.05,5,2.94,22-2.11,8.89-2.63,19.2-7.7,30.12-13.08,22.62-11.13,46-22.64,57.89-12.11l-1.32,1.5a.74.74,0,0,0,.18.11,12.68,12.68,0,0,0-2.77.29l-.63.11a31.31,31.31,0,0,0-4,.81,39.6,39.6,0,0,0-7.23,2.75,63.32,63.32,0,0,0-17.78,12.44c-4.07,4.2-7,9.36-9.85,14.34-1.15,2-2.34,4.09-3.59,6.1a83,83,0,0,0-4.74,9.24,75.33,75.33,0,0,1-5.72,10.81c-8.83,13.08-21.53,22.26-31.61,28.8C183.5,237.63,173.37,243.26,163.17,243.26ZM155,239.8c12.08,4.62,25.6-2.7,34.74-8.63,9.92-6.44,22.41-15.46,31-28.24a73.73,73.73,0,0,0,5.57-10.53,84.49,84.49,0,0,1,4.85-9.46c1.23-2,2.41-4,3.55-6,2.9-5.09,5.91-10.36,10.16-14.75a65.22,65.22,0,0,1,18.32-12.83,41.45,41.45,0,0,1,7.6-2.89,31.66,31.66,0,0,1,4.27-.86l.54-.1.59-.1c-11.58-6.46-32.78,4-53.34,14.08-11,5.41-21.38,10.52-30.43,13.2-13.39,4-21.5,4.47-24.11,1.5a3.49,3.49,0,0,1-.81-1.65c-13.51,8.15-21.41,18.15-23.52,29.76C140.69,220.88,153.46,237.8,155,239.8Z" style="fill:#fff"/><path d="M62,38.42s44.43,32.69-26,107.75c-14.6,15.56-47.5,50.6-30,74.44,12.76,17.34,34.92,9,52.63,8.6a312.06,312.06,0,0,1,68.2,5.72c5.15,1,10.28,2.2,15.35,3.56,2.16.58,21.87,7.34,32.93,1.38,0,0-39.32-50,24.26-115.15,61.8-63.29,72-106.72,42.89-120.51,0,0-47.49,35.75-107.75,35.75S62,38.42,62,38.42Z" style="fill:#6d0812"/><path d="M163.48,243.33q-8.67,0-20.73-3.63l-.84-.25c-4.9-1.31-10-2.5-15.28-3.54a308.64,308.64,0,0,0-68-5.7c-4,.1-8.22.61-12.66,1.14C30.93,233.16,15.36,235,5.18,221.2c-18-24.51,15.66-60.39,30-75.72,27.79-29.59,41.41-57,39.39-79.33C73,48,61.52,39.31,61.4,39.23L58.34,37l3.78.46c.12,0,13,1.53,72.38,1.53S241.18,3.77,241.65,3.41l.48-.36.55.26c8.76,4.15,14,10.82,15.64,19.83,4.16,23.23-16.52,59.55-58.25,102.28-61.89,63.38-25.75,111.81-24.18,113.84l.1.13.32,1-.74.4A25.32,25.32,0,0,1,163.48,243.33ZM66.74,228.11A309.74,309.74,0,0,1,127,234c5.28,1.05,10.46,2.25,15.41,3.57l.9.27c16.5,5,25.48,3.82,30.26,1.71-5.25-7.56-34-55,25-115.48C239.9,81.77,260.4,46.07,256.35,23.5c-1.46-8.16-6.17-14.25-14-18.13C237.1,9.15,191.13,41,134.5,41c-45,0-63.2-.85-69.6-1.29,3.65,3.64,10.41,12.15,11.7,26.23,2.13,23.24-11.3,50.47-39.92,80.95-14,15-46.93,50-29.89,73.17,9.49,12.88,24.47,11.08,39,9.34,4.49-.54,8.73-1.05,12.85-1.15Q62.68,228.1,66.74,228.11Z" style="fill:#fff"/><path d="M17.06,54.76C-4.12,34.93,32.62-4.1,55.26,1.56c4.63,1.16,8.24,4.65,11.92,7.69,17,14,39.82,18.49,61.4,16.62,20.63-1.79,40-8.88,59.53-15.41,9.76-3.28,19.71-6.28,29.95-7.64a83.06,83.06,0,0,1,15.28-.69c3.82.2,7.46,0,16.82,7.44,0,0-31.91,4.34-15.06,41.11-4-8.62-20.72-5.27-27.77-3.83-16.32,3.33-29.59,14-44.21,21.27-15.87,7.91-32.28,9.26-48.87,2.33C101.88,65.29,91,57.19,79.53,50.27,69.2,44,57.33,37.86,45,37.83A29.17,29.17,0,0,0,28,43C26.52,44,15.63,53.43,17.06,54.76Z" style="fill:#850810"/><path d="M135.93,75.93a56.79,56.79,0,0,1-22.06-4.56c-8.92-3.72-17.17-9-25.14-14.13-3.17-2-6.45-4.14-9.72-6.11C69,45.06,57.06,38.86,45,38.83h-.08a28.13,28.13,0,0,0-16.34,4.94c-2.08,1.5-10.38,9-10.61,10.69a.59.59,0,0,0-.19-.43l-1.37,1.46c-7.92-7.42-8.81-18.39-2.44-30.1C21.92,10.74,41-3,55.5.59c4.21,1,7.56,3.88,10.8,6.61l1.52,1.28c15.32,12.63,36.87,18.45,60.67,16.39,18.6-1.61,36.54-7.67,53.89-13.54l5.41-1.82c9.42-3.16,19.59-6.28,30.14-7.68a83.1,83.1,0,0,1,15.46-.7l.63,0c3.77.17,7.67.36,16.77,7.63l1.82,1.46-2.31.31c-.12,0-11.63,1.71-16.7,10.94-3.89,7.1-3.09,16.77,2.41,28.76l-1.82.83c-3.65-8-20.36-4.54-26.65-3.26-11,2.26-20.9,8.05-30.43,13.64-4.39,2.58-8.93,5.25-13.54,7.55A61.67,61.67,0,0,1,135.93,75.93ZM44.88,36.83H45c12.58,0,24.79,6.38,35.08,12.58,3.29,2,6.58,4.1,9.76,6.14,7.9,5.08,16.07,10.32,24.83,14,15.68,6.54,31.84,5.77,48-2.3,4.54-2.27,9-4.92,13.41-7.48,9.67-5.68,19.67-11.56,31-13.88,5.9-1.2,18.14-3.7,25,.21-4.05-11-3.91-19.95.44-26.73S244.15,10,247.85,9c-7.39-5.58-10.71-5.73-13.93-5.88l-.64,0a80.87,80.87,0,0,0-15.09.68c-10.38,1.38-20.44,4.47-29.77,7.6L183,13.23c-17.46,5.9-35.51,12-54.36,13.64C104.33,29,82.28,23,66.55,10L65,8.73c-3.07-2.59-6.23-5.26-10-6.2C41.35-.89,23.32,12.34,15.69,26.35c-3.32,6.1-7.44,17.41.85,26.47,2.35-3.8,10.74-10.6,10.83-10.67A30.18,30.18,0,0,1,44.88,36.83Z" style="fill:#fff"/></g></g></svg>