<svg xmlns="http://www.w3.org/2000/svg" viewBox="0 0 272.44 377.95"><title>Shadow-Dragon_1</title><g id="b7838bd6-df13-43f0-93b9-e2c9738058ea" data-name="Layer 2"><g id="b88ea28e-0e8d-4c73-bc90-9d8657a857ee" data-name="Layer 1"><circle cx="102.22" cy="190.46" r="7.05" style="fill:#5952e8"/><path d="M88.22,154.54s27.39-32.27,34.09-74.89S153.36,6,153.36,6s-14,37.13.61,37.13c0,0-11.57,36.53,14,11,0,0,14.61,4.26,16.44-19.48,0,0,29.83-2.43,28.61-23.13,0,0,14.61,7.91,26.18-4.27,0,0-19.48,26.18-10.35,28,0,0-25.57,31.05-3,17,0,0,15.83-.61,7.3,29.83l21.31-17s0,29.83-6.7,40.18l12.79-.61-3,15.83,8.52-1.21-21.31,28.61Z" style="fill:#14131b"/><path d="M111.38,216.47l-5-18.21a38.59,38.59,0,0,0,5.11-3c12.38-8.94,6.58-19.42,6.58-19.42a35.91,35.91,0,0,0-8.9,1.14,34.93,34.93,0,0,0-7.8,3.08L98,167.93l6.61-3.18,92.61-44.92s3.36-4.62,14.05-6.12a63.41,63.41,0,0,1,18.57.39,124.61,124.61,0,0,1,16.09,3.62,28.31,28.31,0,0,0-9.51,8.47c-3.61,5.33-3.94,11.3-2.33,17.31a37.41,37.41,0,0,0,3,7.51c3.68,7.16,9.48,14.06,15.09,19.86a154.07,154.07,0,0,0,17.49,15.34,105.59,105.59,0,0,0-13.38,2.25c-44.85,10.66-2.14,42.5-2.14,42.5-67.6-4.58-32.87,42.92-32.87,42.92-46.61-28.33-42.92,32.87-42.92,32.87-8.23-26.51-35.63-28.33-35.63-28.33Z" style="fill:#14131b"/><path d="M267.83,118.61c-6.3,7.8-15.45,14.7-26,20.71-2.54,1.43-5.11,2.82-7.8,4.18-39.52,20-92.28,29-92.28,29,32.3-18.31,54.37-39.06,69.46-58.8,3.22-4.15,6.08-8.26,8.66-12.27,23.82-37,24.18-67.74,24.18-67.74-12,21.53-27.65,39.91-44.43,55.36-44.92,41.5-97.43,61.92-105.26,64.82-.64.25-1,.35-1,.35l-5.47-21.92L70.57,155.13C55,155.13,52.29,167,52.29,167-11.81,119.18,83.8,41.92,86.06,40.1c-135.14,63-63.89,143.36-63.89,143.36l-21-9.12c.93,15.52,29.23,48.39,29.23,48.39l-14.6,4.58,6.4,20.06c12.77,38.38,21.89,30.16,21.89,30.16l6.41,7.29,5.47-17.35L68.74,273a190.51,190.51,0,0,1,3.65-20.1C75.11,241,108,239.15,108,239.15s.46,1.79,1.11,4.57c1.61,6.69,4.36,19.14,4.36,25.58,0,4.83-6.12,15.52-11.95,24.54-5.11,8-10,14.73-10,14.73l-8.22-12.8L79.69,314H67.81l-9.12-15.52V314c-4.58,40.17,21,62.1,21,62.1C85.05,359.47,93.92,351.71,104,343a147.19,147.19,0,0,0,16.81-16.21c9.12-10.66,9.26-19.88,12.55-30.83,2.65-8.76,7.33-18.67,20.32-31.26,29.22-28.29,4.58-63.92,4.58-63.92,33.8-20.1,31-25.57,31-25.57,21.07-9,36.48-17.13,47.79-24.21,2.68-1.69,5.15-3.3,7.37-4.83C270,128.48,267.83,118.61,267.83,118.61Zm-158.36,76a34.06,34.06,0,0,1-4.32,2.54c-5.27,2.6-13,4.87-24.09,6.26,0,0,6.6-14.73,19.85-21.66a29.68,29.68,0,0,1,6.6-2.61,30.44,30.44,0,0,1,7.53-1S119.94,187,109.47,194.57Z" style="fill:#4c434f"/><path d="M80.2,378l-1.19-1c-.26-.22-25.92-22.73-21.36-62.94v-19.3L68.41,313H78.83l4-20,8.79,13.68c1.63-2.3,5.29-7.55,9-13.43,7.6-11.75,11.79-20.27,11.79-24,0-6.61-3-19.92-4.34-25.33-.38-1.65-.7-2.95-.89-3.73-9.5.65-31.79,4-33.81,12.84a189.94,189.94,0,0,0-3.63,20l-.15,1.4-13-5.57-5.69,18-7-8a5.34,5.34,0,0,1-3.66.24c-6.14-1.62-12.71-12.48-19-31.4l-6.72-21.07,14.09-4.42C23.37,216,1,188.58.1,174.4L0,172.7l18.83,8.17c-6.19-8.5-21.06-32.6-15-61.54,6.41-30.88,33.94-57.85,81.83-80.18l7.7-3.58-6.6,5.34c-2.31,1.87-56.27,46-55.45,87.23.29,14.33,7.19,26.83,20.52,37.16,1.36-3.29,5.85-11,18.27-11.21L88.4,130l5.72,22.91c6.51-2.41,59.82-23,104.83-64.56,18.51-17.06,33.39-35.6,44.22-55.11l2-3.61,0,4.13c0,.31-.64,31.45-24.34,68.3-2.83,4.39-5.68,8.42-8.71,12.34-16.39,21.43-38.06,40.25-64.47,56,14.93-3,54.82-12,86-27.77,2.46-1.24,5-2.6,7.76-4.16C252.62,132,261.26,125.08,267,118l1.36-1.69.47,2.13c.09.43,2,10.76-23.82,28.65-2.12,1.47-4.54,3.06-7.41,4.86-12.32,7.72-28.21,15.79-47.24,24-.27,2.7-4.55,9.62-30.69,25.26,3.63,5.89,21.55,38.31-5.31,64.32-13.38,13-17.64,22.86-20,30.81-.78,2.61-1.39,5.14-2,7.59-1.9,7.89-3.69,15.34-10.78,23.62a144.83,144.83,0,0,1-16.74,16.16l-.18.16c-10,8.65-18.66,16.13-24,32.65Zm-20.46-75.6v11.81c-3.91,34.26,14.62,55.23,19.49,60.1,5.55-16,14.55-23.8,24.07-32l.19-.16A142.58,142.58,0,0,0,120,326.14c6.77-7.91,8.5-15.12,10.34-22.76.6-2.47,1.21-5,2-7.7,2.48-8.21,6.87-18.4,20.59-31.71,28.24-27.33,4.69-62.23,4.45-62.57l-.64-.92,1-.57c29.66-17.64,30.58-23.77,30.59-24.33l-.44-.87,1-.44c19.24-8.26,35.27-16.38,47.64-24.14,2.84-1.78,5.24-3.35,7.33-4.8,16.18-11.22,21-19.18,22.42-23.3-5.81,6.34-13.83,12.45-23.88,18.19-2.79,1.58-5.36,2.95-7.85,4.21-39.21,19.8-92,29-92.57,29.11l-5.88,1,5.19-3c28.58-16.2,51.84-35.89,69.14-58.52,3-3.88,5.82-7.86,8.61-12.2,18.08-28.1,22.56-52.77,23.66-62.63C232,56.47,217.76,73.81,200.36,89.83c-45.57,42.09-99.6,62.8-105.61,65-.68.27-1.06.38-1.06.38l-1,.31-.26-1-4.95-19.82-16.35,21.5h-.51c-14.53,0-17.24,11-17.26,11.07L53,168.79l-1.28-.95c-14.62-10.91-22.19-24.25-22.49-39.66-.69-34.67,35-70.17,50.09-83.66C36.46,65.84,11.76,91.13,5.82,119.76c-7.26,35,16.89,62.73,17.13,63l3.12,3.52L2.39,176c2.72,15.63,28.5,45.73,28.77,46l1,1.2L17.08,228l6.09,19.07c8,24.06,14.38,29.12,17.46,30a3,3,0,0,0,2.75-.32l.78-.65.69.75,5.18,5.9,5.26-16.68,12.59,5.38c.38-2.84,1.41-9.83,3.5-18.83,2.86-12.49,35.2-14.43,36.58-14.5l.85-.05.22.82s.46,1.8,1.11,4.61c1.64,6.81,4.39,19.23,4.39,25.81,0,5.27-6.59,16.56-12.11,25.1-5.07,7.94-10,14.72-10,14.78l-.9,1.24L83.85,298.5l-3.31,16.59H67.22Zm19.62-97.72.75-1.69c.28-.61,6.9-15.14,20.32-22.16a30.7,30.7,0,0,1,6.82-2.69,31.59,31.59,0,0,1,7.79-1h.62l.29.54c.06.1,5.22,9.77-5.86,17.78h0a32.87,32.87,0,0,1-4.46,2.62c-5.94,2.94-14.16,5.08-24.42,6.36Zm35-25.44a29.57,29.57,0,0,0-6.62.92,28.42,28.42,0,0,0-6.36,2.51c-10.14,5.3-16.35,15.42-18.52,19.46,9.11-1.28,16.44-3.26,21.8-5.91a31.43,31.43,0,0,0,4.18-2.45C117.14,187.74,115.2,181.12,114.39,179.19Z" style="fill:#fff"/><path d="M80.2,378l-1.19-1c-.26-.22-25.92-22.73-21.36-62.94v-19.3L68.41,313H78.83l4-20,8.79,13.68c1.63-2.3,5.29-7.55,9-13.43,7.6-11.75,11.79-20.27,11.79-24,0-6.61-3-19.92-4.34-25.33-.38-1.65-.7-2.95-.89-3.73-9.5.65-31.79,4-33.81,12.84a189.94,189.94,0,0,0-3.63,20l-.15,1.4-13-5.57-5.69,18-7-8a5.34,5.34,0,0,1-3.66.24c-6.14-1.62-12.71-12.48-19-31.4l-6.72-21.07,14.09-4.42C23.37,216,1,188.58.1,174.4L0,172.7l18.83,8.17c-6.19-8.5-21.06-32.6-15-61.54,6.41-30.88,33.94-57.85,81.83-80.18l7.7-3.58-6.6,5.34c-2.31,1.87-56.27,46-55.45,87.23.29,14.33,7.19,26.83,20.52,37.16,1.36-3.29,5.85-11,18.27-11.21L88.4,130l4.25,17c7.9-11.15,23.79-36.68,28.63-67.48,6.66-42.39,31-73.83,31.26-74.15L156.73,0l-2.4,6.35c-2.72,7.23-8.82,27.38-4.4,33.77a4.54,4.54,0,0,0,4,2h1.42L155,43.44c-2.11,6.68-3.88,16.81-1.2,18.45.92.56,4.09.84,13.47-8.55l.44-.43.59.17a10.38,10.38,0,0,0,8.11-1.55c4-2.78,6.34-8.51,7-17l.07-.89.88-.07c.29,0,28.81-2.6,27.66-22l-.11-1.87,1.65.89c.57.31,14.06,7.37,24.93-4.06L240,7.83c-5.64,7.57-14,21.13-12.39,25.28a1.68,1.68,0,0,0,1.41,1.08l1.7.34-1.1,1.34c-7.26,8.81-12.78,17.51-12.06,19h.17c.52,0,2.32-.29,7.49-3.5l.23-.15h.28a9.58,9.58,0,0,1,5,1.48,197.76,197.76,0,0,0,12.41-19.5l2-3.61,0,4.13c0,.63-.29,15.78-8.76,37.75a66.59,66.59,0,0,1-1.44,7.85l20.54-16.44V65c0,1.17-.07,27.44-5.9,39.05l12.22-.58-3,15.69L267,118,267,118l1.37-1.69.46,2.13c.08.4,1.82,9.85-20.51,26.28l-3.12,4.19-3.08.13c-1.19.79-2.43,1.59-3.7,2.39,3.1,5.74,8,12.05,14.47,18.76a156.21,156.21,0,0,0,17.35,15.23l2.18,1.58-2.67.3a105.37,105.37,0,0,0-13.25,2.23h0c-11.7,2.78-18.26,7.21-19.49,13.19-2.52,12.19,17.52,27.3,17.72,27.45l2.84,2.12-3.53-.24c-21.16-1.44-34.21,2.08-38.82,10.44-6.66,12.09,6.72,30.64,6.86,30.82l3.09,4.23-4.47-2.72c-12.46-7.57-22.3-9.29-29.24-5.11-13.66,8.23-12.12,36.74-12.1,37l.51,8.58-2.55-8.21c-7.36-23.73-27-28-34.31-27.61-3.27,2.17-7.29,13.1-8.59,17.2-.75,2.49-1.34,4.9-1.92,7.23-1.93,7.83-3.76,15.22-10.94,23.61a144.83,144.83,0,0,1-16.74,16.16l-.18.16c-10,8.65-18.66,16.13-24,32.65Zm-20.46-75.6v11.81c-3.91,34.26,14.62,55.23,19.49,60.1,5.55-16,14.55-23.8,24.07-32l.19-.16A142.58,142.58,0,0,0,120,326.14c6.86-8,8.55-14.85,10.51-22.76.58-2.36,1.18-4.79,1.95-7.34.52-1.63,5.13-15.92,9.75-18.53l.21-.12h.23c7-.44,25.59,3.13,34.62,23.5.28-9.2,2.32-26.48,13.14-33,6.92-4.17,16.2-3.17,27.64,2.95-3.76-6.31-10.09-19.48-4.63-29.39,4.78-8.68,17.4-12.62,37.53-11.71C245.33,225,232.76,213,235,202.25c1.41-6.84,8.49-11.82,21-14.8a100.86,100.86,0,0,1,10.94-2,161.21,161.21,0,0,1-15.56-13.89c-7-7.19-12.1-14-15.27-20.1l-.44-.85.81-.51c1.64-1,3.22-2,4.72-3l.24-.16,2.67-.11,2.84-3.73c13.67-10,18-17.22,19.27-21.06q-1.94,2.11-4.19,4.19l-1.54-1.39,3.14-4.22-7.49,1.07,3.07-16-13.49.64,1.1-1.7c5.42-8.37,6.34-30.39,6.5-37.42L231.24,84.92l.87-3.11a69.86,69.86,0,0,0,2.2-10.72l.06-.26a132.34,132.34,0,0,0,8.32-32.6c-3.27,5.56-6.9,11.1-10.84,16.51l-.63.87-.85-.66a8,8,0,0,0-4.28-1.64c-5.82,3.58-8.75,4.42-10.07,2.9-2.47-2.82,5.51-13.64,11.13-20.56a3.67,3.67,0,0,1-1.45-1.79C224,29.29,230,18.94,234.35,12.33c-8.3,4.62-16.82,2.12-20.25.76-.35,18-23.84,21.84-28.72,22.45-.81,8.72-3.45,14.68-7.86,17.72a12.3,12.3,0,0,1-9.22,2c-7.66,7.58-12.63,10.26-15.62,8.45-4.52-2.75-1.44-15-.09-19.61a6.35,6.35,0,0,1-4.38-2.76c-4.12-5.95-.72-20.27,1.89-28.87-7.2,10.89-21.85,36.12-26.76,67.38C118.14,112.88,100.41,139.92,93,150l-1.31,1.79-4.28-17.14-16.35,21.5h-.51c-14.53,0-17.24,11-17.26,11.07L53,168.79l-1.28-.95c-14.62-10.91-22.19-24.25-22.49-39.66C28.49,93.5,64.14,58,79.27,44.52,36.46,65.84,11.76,91.13,5.82,119.76c-7.26,35,16.89,62.73,17.13,63l3.12,3.52L2.39,176c2.72,15.63,28.5,45.73,28.77,46l1,1.2L17.08,228l6.09,19.07c8,24.06,14.38,29.12,17.46,30a3,3,0,0,0,2.75-.32l.78-.65.69.75,5.18,5.9,5.26-16.68,12.59,5.38c.38-2.84,1.41-9.83,3.5-18.83,2.86-12.49,35.2-14.43,36.58-14.5l.85-.05.22.82s.46,1.8,1.11,4.61c1.64,6.81,4.39,19.23,4.39,25.81,0,5.27-6.59,16.56-12.11,25.1-5.07,7.94-10,14.72-10,14.78l-.9,1.24L83.85,298.5l-3.31,16.59H67.22Zm19.62-97.72.75-1.69c.28-.61,6.9-15.14,20.32-22.16a30.7,30.7,0,0,1,6.82-2.69,31.59,31.59,0,0,1,7.79-1h.62l.29.54c.06.1,5.22,9.77-5.86,17.78h0a33.49,33.49,0,0,1-4.46,2.62c-5.94,2.94-14.16,5.08-24.42,6.36Zm35-25.44a29.56,29.56,0,0,0-6.61.92,28.42,28.42,0,0,0-6.36,2.51c-10.15,5.31-16.36,15.43-18.52,19.46,9.11-1.28,16.44-3.26,21.8-5.91a31,31,0,0,0,4.18-2.46C117.09,187.77,115.18,181.13,114.38,179.19Z" style="fill:#fff"/></g></g></svg>