<svg xmlns="http://www.w3.org/2000/svg" viewBox="0 0 446.51 517.45"><title>Shadow-Demon</title><g id="e6574baf-148b-4f92-9764-48bca0ccdedf" data-name="Layer 2"><g id="adb040de-8ff4-4e2b-a092-bef902442b3f" data-name="Layer 1"><path d="M425.21,309.25c8.17-8.16,19.31,40.08,19.31,40.08,6-28.95-22.27-95-22.27-95-17.81-37.86-5.19-40.09-5.19-40.09-11-49.15,21.49,25.67,22.25,27.44L426,191.22c-20.77-20.77-2.21-19.3-2.21-19.3l-5.95-3.28a29.1,29.1,0,0,1-12.12-12.86c-6.71-13.68-19.57-29.1-29.18-39.59a75.2,75.2,0,0,1-16.6-29.68c-10.37-35.31-20-39.3-20-39.3C311.66,30.15,345,41.29,345,41.29s5.21-3.73-22.25-17.09-41.58-23-41.58-23c-21.53,1.48-3,33.41-3,33.41-2.22-31.93,13.35.74,13.35.74s7.44,17.82,7.44,20,22.25,26,14.83,38.6.75,24.49.75,24.49c-6.69,5.21-10.4,21.53-10.4,21.53-7.42-3-18.56,17.83-18.56,17.83-6.67-2.24,1.5-22.27,1.5-22.27-3,0-7.43,6.67-7.43,6.67-3.7,22.27-9.65,20.78-12.61,18.56s-13.36,11.13-13.36,11.13L249.3,166c5.85-6.57,14.58-31.13,14.83-31.9l-15.58,11.86c-4.45-8.91-3-22.26-3-22.26C258.21,65,269.34,96.2,269.34,96.2c3.31-4.41-.36-15.83-2.46-21.39a4.72,4.72,0,0,0-7.49-1.92c-10.12,8.55-23.67,43.07-27.9,51.53-5.21,10.4-11.89-6.69-11.89-6.69l-6.68,6C207,114,218.13,87.3,220.35,83.59s8.15,6.69,8.15,6.69c3.89-7.29,1.11-14.57-1.28-18.74a4.51,4.51,0,0,0-6.2-1.62c-25,14.64-23.73,55-24.43,64.9-.73,10.38,5.94,10.38,4.45,16.32s-10.39-10.4-10.39-10.4c-1.48,8.91,5.94,23.76,5.94,23.76-5.05,7.22-19.92-22-20.75-23.68,5.87,18.11-2.25,16.27-2.25,16.27,0-10.77-17.83-16.35-17.83-16.35,5.2-3.71-6.67-18.54-6.67-18.54l1.49-15.6S138,98.43,149.09,82.84,157.25,66.52,158,65c5.19-10.37,13.37-31.18,13.37-31.18,11.14-25.23,14.1,1.49,14.1,1.49,17.81-29.68-11.87-26-11.87-26-17.48,0-44.93,19.94-53.23,26.28,7.83-4.79,19.82-1.8,19.82-1.8-18.56-.74-46,83.88-46,83.88L71.14,140c-2.43,15.83-18.35,26.68-24,30.05,7.42-3.24,5.58,10.77-2,19.68-8.17,9.65,8.15,13.36,8.15,13.36s-6.67,6.69-2.22,14.11-5.93,19.3-13.36,19.3S8.79,274.37,14,284.75s-11.13,29.7-11.13,29.7c5.2-.75,14.09-10.4,14.09-10.4,9.65-20.05,13.36-2.23,13.36-2.23-5.18,2.23-5.93,8.91-3,17.06s-8.91,20.8-8.91,20.8c10.4,5.2,25.26-26,25.26-26C56.31,261,85.24,272.87,85.24,272.87c-6.67-17.81,4.46-16.33,4.46-16.33-2.23-22.27,8.9-17.07,3.71-33.4s3.72-26.72,3.72-26.72c9.4,9.41,3.27,44.93,3,46.69,10.4-38.49,23-21.46,23-21.46,15.59-32.66,29.7-19.31,29.7-19.31,5.93,16.35-3.71,47.53-3.71,47.53-10.4,2.23-15.6,37.12-15.6,37.12-18.54,10.38-19.29,33.39-20.77,48.24s-12.63,42.3-12.63,42.3c-8.9.75-8.16,19.3-8.16,19.3.75,26.72-14.1,43.07-14.1,43.07,4.45,10.38-3.72,28.19-5.2,30.42-5.72,8.59,0,15.59,0,15.59s.74,18.55,1.48,20.8S89,513.37,89,513.37c-11.12-6.66-9.63-40.82-9.63-40.82C83,504.46,109,500,109,500c-16.32,0-17.81-14.84-17.81-14.84,12.62,12.63,26-4.46,26-4.46-20,1.48-18.57-8.9-18.57-8.9,11.89-8.17,19.31,2.23,19.31,2.23V460.68l-3.71-36.37c8.9-14.12,3-31.18,3-31.18l2.23-8.91s3-40.08,17.82-48.25,23-46,23-46l8.16-22.27,17.82-16.32c14.1,20,35.62,36.37,35.62,36.37,4.08,10.38,4.45,16.89,3.81,20.78A112.71,112.71,0,0,0,224,324.79c-.41,22-9.58,46.81-9.58,46.81-17.81,59.38,31.92,92,31.92,92-7.37-12,3.88-33.19,13.47-47.49a123.86,123.86,0,0,0,17.33-39.6c6-24.72,13.88-60.29,11.52-68.79-3.72-13.36,17.81-41.57,17.81-41.57,5.95,12.62,17.08,27.46,17.08,27.46-1.49,18.57,14.84,33.41,14.84,33.41,29.69,65.32,27.46,76.47,27.46,78.68,0,14.28,13.35,39.34,13.35,39.34,5.95,37.87-22.24,16.34-22.24,16.34-3,7.42,14.09,13.36,14.09,13.36.74,6.67-17.82,2.22-17.82,2.22l14.1,9.66-10.37,5.93c20,14.12,37.1-14.1,37.1-14.1-4.46-3,1.49-22.27,1.49-22.27l6.67,6.68c-5.93,2.23,0,11.88,0,14.85,0,0-3.71,3-5.18,11.14-3.19,17.54-9.66,23-9.66,23,12.62,6.69,22.27-17.8,22.27-17.8-2.26-3.43-1.26-17.27.28-21.3a15,15,0,0,0-.71-11.94c-2.11-4.35-2.56-10-2.5-14.49a20.74,20.74,0,0,0-5.51-14.62L397,427.27c1.47-8.17-12.63-34.89-12.63-34.89-2.22-1.47-14.09-28.94-15.58-56.41s-25.25-56.42-25.25-56.42c-3-16.32-14.84-28.94-14.84-28.94-1.1-8.55-5.38-20.79-9.36-30.9s-7.7-18.1-7.7-18.1a14,14,0,0,1,14.63,8.22c7.36,16.42,15,12.57,15,12.57,6-11.13,17.82,23.75,17.82,23.75,4.45-3-2.22-31.92-2.22-31.92l-1.31-2.6a10.93,10.93,0,0,1,3.46-14c3.89-2.61,6.61-.36,8.4,2.73A16.84,16.84,0,0,1,369,213c-1.95,7.31-5,21.12-2.39,26.46,3.73,7.43,2.24,20.79,2.24,20.79,8.9-10.39,8.9,13.37,8.9,13.37s13.36-13.37,10.4,14.83,12.61,37.12,12.61,37.12c11.87,11.14,5.21,38.59,5.21,38.59,8.88-2.22,5.92-26.72,5.92-26.72,15.6-14.09,10.4,41.58,10.4,41.58,2.31-6.16,4.41-12.92,5.91-18a51.77,51.77,0,0,1,5-11.12c2-3.47,3.07-9.86-5.74-19.14C413.34,315.92,425.21,309.25,425.21,309.25ZM103.06,461.42c-5.2-17.82,3.71-16.34,3.71-16.34C112,474,103.06,461.42,103.06,461.42Z" style="fill:#372938"/><path d="M98,517.45l-9.4-3c-5.48-1.73-14.79-5-15.59-7.41-.74-2.22-1.4-17.69-1.53-20.76a14.51,14.51,0,0,1,.18-16.63c1-1.57,9.45-19.18,5.1-29.33l-.29-.68.5-.55c.15-.16,14.52-16.35,13.8-42.25,0-.77-.64-18.72,8.49-20.4,1.65-4.16,11-28.08,12.3-41.36.11-1.08.21-2.21.32-3.37,1.39-15,3.29-35.46,20.54-45.49.85-5.44,5.76-34,15.74-37.33,1.27-4.36,8.74-31.27,3.64-45.9a10.36,10.36,0,0,0-8.43-2c-4.57.87-11.63,5.25-19.22,21.16l-.83,1.75-1.15-1.56s-3-3.92-6.88-3.18c-3.61.69-9,5.46-14.07,24.25l-2.26-.5c2.24-13,4.23-36.37-1.76-44.61-2,3-6.67,12-2.68,24.49,2.73,8.6,1.09,11.72-.81,15.33s-3.93,7.48-2.85,18.3l.15,1.46-1.46-.19a5,5,0,0,0-4.15,1.58c-1.24,1.58-2.08,5.15.93,13.19l.93,2.5-2.46-1a21.93,21.93,0,0,0-17,1.51c-10.39,5.35-18.1,18.31-22.94,38.51l-.08.23c-.45.95-11.21,23.33-21.21,26.76a7,7,0,0,1-5.61-.24l-1.4-.7,1.07-1.14c.11-.12,11.35-12.19,8.66-19.6C23.1,310.6,24.12,303.94,29,301.2c-.59-2.13-1.93-5.3-3.61-5.51-.89-.1-3.35.55-7.36,8.86l-.19.29c-.94,1-9.32,10-14.78,10.76L0,316l2-2.33c.16-.19,15.77-18.84,11-28.43C9.52,278.43,16.2,262,23.86,249.6c2.65-4.29,9.31-14.26,13.88-14.26,3.81,0,8.9-3.73,11.59-8.49,1.12-2,2.72-5.82.78-9-3.58-6-.64-11.53,1.2-14.07-2.78-.9-8-3.06-9.28-7-.81-2.42-.06-5,2.25-7.76,5.6-6.61,7.53-15.48,5.82-17.77-.16-.22-.66-.89-2.49-.1l-1.07-2.06c4.9-2.92,21.06-13.66,23.45-29.23l.06-.39,23.09-22.34c1.86-5.68,23.79-71.81,42-82.84-4-.36-9.8-.25-14.12,2.39l-1.31-1.91c8.12-6.21,36-26.47,53.86-26.53,1.14-.12,12.74-1.28,17.16,5.5,3.15,4.84,1.73,12.32-4.22,22.24l-1.77,3-.38-3.42c-.49-4.35-2.22-10.95-4.41-11.28-.65-.11-3.15.33-7.48,10.13-.06.17-8.24,20.93-13.39,31.23a1.05,1.05,0,0,0,0,.42c0,1.7.09,4.87-9,17.55-3.55,5-4.95,9.64-4.15,13.86a13.61,13.61,0,0,0,5.33,8.24l.59.39-1.51,15.84c1.72,2.19,8.64,11.46,7.89,16.84a4.84,4.84,0,0,1-.46,1.51c4.37,1.64,16,6.84,17,15.72a2,2,0,0,0,1.12-.65c1-1.07,2.09-4.33-1.07-14.09l2.14-.88c4.81,9.56,13.48,23.88,17.63,24.18a1,1,0,0,0,.69-.19c-1.49-3.15-7-15.6-5.69-23.74l.55-3.32,1.61,3c3.08,5.63,6.78,10.67,8.1,11.07a1.9,1.9,0,0,0,.14-.4c.55-2.2-.23-3.33-1.41-5-1.56-2.25-3.49-5-3.07-11.1.07-1,.12-2.35.18-3.94.55-14.49,1.82-48.42,24.82-61.87a5.7,5.7,0,0,1,4.36-.6A5.6,5.6,0,0,1,228.23,71c2.3,4,5.52,12,1.3,19.86l-1,1.86-1-1.83c-1.85-3.25-4.74-6.89-5.91-6.9h0c-.06,0-.14.08-.24.23-2,3.39-12.1,27.57-8.06,37.62l6.8-6,.61,1.55c1.48,3.8,4.63,9.2,6.95,9.31,1.17.11,2.18-1.44,2.81-2.71.9-1.81,2.22-4.79,3.9-8.57,6-13.63,16.16-36.46,24.29-43.33A5.89,5.89,0,0,1,268,74.4c2.92,7.77,5.69,18,2.29,22.5L269,98.63l-.73-2c-.77-2.15-3.48-7.73-6.63-7.5-2.8.19-8.46,5-14.88,34.77-.09.89-1.12,12.12,2.28,20.28l17.42-13.27-1.2,3.58c-.08.24-8.38,23.81-14.45,31.57l3,4c4.25-5.31,10.9-12.51,14-10.16a3.34,3.34,0,0,0,3.36.76c1.73-.69,5-4,7.42-18.58l0-.25.14-.21c.8-1.2,5-7.18,8.39-7.18h1.72l-.65,1.6c-1.63,4-5.43,15.27-3.51,19.46a2.71,2.71,0,0,0,.5.76c2.46-4.37,11-18.49,18.15-17.63.95-3.72,4.26-15.29,9.74-20.36-1.75-3.11-6.75-13.76-.24-24.84,5.27-9-6.19-24.88-11.7-32.53-2.55-3.55-3.29-4.61-3.29-5.48,0-1.32-3.76-11-7.35-19.59-3.63-7.62-8.14-14-9.83-14l-.14,0c-.08,0-2,.67-1.16,12.75l.35,5-2.51-4.32c-.47-.8-11.38-19.79-6.19-29.58C272.83,2.24,276.22.37,281.13,0l.4,0,.33.23c.14.09,14.37,9.77,41.43,22.93,15.13,7.36,23,13,23.3,16.9a2.39,2.39,0,0,1-.87,2.17l-.48.35-.57-.19C339,40.5,332.29,38.81,330,38.86c.74.86,3.07,2.91,10.37,7.33,1.16.56,10.64,6.07,20.6,40a74.54,74.54,0,0,0,16.35,29.22c9.63,10.52,22.55,26,29.36,39.86a27.9,27.9,0,0,0,11.63,12.35L429,173.49l-5.35-.41c-1.39-.11-5.2.06-6.13,2.09-.7,1.52-.43,5.53,9.27,15.22l.22.23,13.44,50.75-2.19.76c-8.49-19.55-18.9-40.74-22.23-43.24-.19,1-.23,4.39,2.17,15.08l.26,1.19-1.19.21a4,4,0,0,0-2.34,2.32c-1.65,3.35-2.74,12.5,8.38,36.13,1.17,2.75,28.31,66.77,22.36,95.75l-1.08,5.21-1.19-5.19c-3.4-14.7-10.71-38.57-15.86-40-.35-.1-.83-.13-1.5.54l-.25.19a8.91,8.91,0,0,0-4,6c-.58,3.95,1.61,8.56,6.5,13.71,9.15,9.64,8.26,16.48,5.9,20.53a50.1,50.1,0,0,0-4.91,10.86c-2.07,7-4.07,13.08-5.94,18.07l-3.06,8.13.81-8.64c1.4-14.95,1.6-39.67-3.81-42.38-1.06-.53-2.47-.06-4.21,1.38.49,4.48,2.21,25.11-6.86,27.37l-1.87.47.46-1.87c.06-.26,6.33-26.78-4.78-37.38-1.63-1-16-10.57-13.07-38.17,1.35-12.81-.8-15.84-2.19-16.51-2-1-5.24,1.64-6.23,2.62l-2,2v-2.79c0-5.46-1.09-13.92-3.41-14.78-.79-.29-2,.48-3.45,2.16l-2.45,2.86.42-3.74c0-.13,1.4-13.11-2.13-20.14-2.82-5.66.24-19.52,2.31-27.28a15.57,15.57,0,0,0-1.36-11.78c-1.07-1.85-2.23-2.93-3.45-3.22a4.19,4.19,0,0,0-3.3.87,9.74,9.74,0,0,0-3.07,12.53l1.41,2.86c1.61,7,6.48,30,1.73,33.15l-1.26.84-.48-1.43c-3.5-10.26-10.11-24.85-13.88-25.16-.65-.05-1.24.48-1.82,1.57l-.17.33-.33.16a7.35,7.35,0,0,1-5.49,0c-4.15-1.49-7.9-5.91-11.14-13.14a13,13,0,0,0-11.77-7.64h0c1.26,2.8,4.08,9.16,7,16.63,5.24,13.3,8.4,23.67,9.38,30.81,1.8,2,12,13.76,14.82,29,2.43,3,23.88,30.33,25.33,56.86,1.45,26.73,12.91,53.66,15.09,55.53l.25.16.11.24c.57,1.08,13.66,26,12.82,35L402,431a21.83,21.83,0,0,1,5.83,15.43c-.09,5.74.73,10.58,2.38,14A16.05,16.05,0,0,1,411,473.2c-1.55,4-2.35,17.3-.4,20.25l.33.5-.22.57c-.25.63-6.27,15.67-15.34,19a10.05,10.05,0,0,1-8.55-.63l-1.52-.8,1.31-1.11c.06-.05,6.21-5.52,9.26-22.32,1.24-6.83,4-10.24,5.11-11.39a23.5,23.5,0,0,0-.89-2.93c-1.28-3.73-3.15-9.16.2-11.73l-4.2-4.2c-2.12,7.56-3.78,17.51-1.4,19.09l.92.62-.57.95c-.38.63-9.49,15.47-22.52,18.19-5.6,1.17-11.07-.08-16.25-3.74l-1.49-1.05,10.35-5.92-17.77-12.16,6.12,1.46c5,1.19,13.69,2.33,15.95.34a1.36,1.36,0,0,0,.41-.63c-2.75-1.05-11.53-4.76-13.83-9.82a5.84,5.84,0,0,1-.15-4.77l.57-1.41,1.21.92c.11.09,11.34,8.55,17.3,5,3.73-2.23,4.81-9.16,3.13-20.05-1.29-2.44-13.41-25.77-13.41-39.71,0-.12,0-.28,0-.46.44-10.46-9-37.26-27.27-77.52-1.88-1.77-16.25-15.9-15.07-33.76-1.64-2.22-10.56-14.49-16.09-25.57-4.34,6-19.53,28.09-16.49,39,2.37,8.53-4.95,42.44-11.51,69.39a124.77,124.77,0,0,1-17.5,40C252.6,429,240,451.15,247.31,463l2.73,4.45-4.35-2.87a89.07,89.07,0,0,1-23-24.09c-9.45-14.43-18.75-38.15-9.42-69.25.11-.32,9.12-24.94,9.53-46.51a111.16,111.16,0,0,1,1.68-16.44c.56-3.38.37-9.57-3.63-19.87-2.47-1.91-21.65-17.08-34.85-35.35l-16.64,15.24-8,21.93c-.54,2.44-8.65,38.49-23.57,46.72-14.15,7.77-17.19,46.92-17.22,47.31l0,.2-2.14,8.58c.81,2.55,5.24,18.09-3,31.5l3.67,36.1v17L117,474.72c-.27-.38-6.73-9.09-17.22-2.27a5.8,5.8,0,0,0,1.66,3.77c1.82,1.92,6,4,15.68,3.33l2.62-.19-1.62,2.06c-.28.37-7.13,9-15.94,9.54a14,14,0,0,1-9-2.63c1.44,4.08,5.37,10.52,15.86,10.52l.2,2.31c-.43.07-10.63,1.73-19.41-4.85a27.48,27.48,0,0,1-9.21-13c.5,10.38,2.4,25.09,9,29Zm291.34-6a7.57,7.57,0,0,0,5.22-.12c7.25-2.67,12.68-14.61,13.79-17.2-2.13-4.52-1.08-17.71.48-21.79a13.76,13.76,0,0,0-.67-11c-1.83-3.78-2.71-8.83-2.62-15a19.51,19.51,0,0,0-5.2-13.8l-4.57-4.9.1-.58c1.15-6.33-8.5-26.51-12.43-34-3.2-3.42-14.36-30.74-15.79-57-1.46-26.78-24.76-55.47-25-55.75l-.19-.24-.06-.29C339.55,264,328,251.53,327.87,251.41l-.25-.27-.05-.38c-.9-7-4-17.26-9.29-30.62-3.94-10-7.64-18-7.68-18l-.66-1.43,1.56-.21a15.28,15.28,0,0,1,15.85,8.89c3.67,8.18,7.3,11,9.71,11.86a5.49,5.49,0,0,0,3.47.25c1.28-2.13,2.78-2.5,3.83-2.41,5.78.47,12.38,17,15,24.17.8-4.88-1-17.41-3.51-28.59l-1.25-2.48a12,12,0,0,1,3.86-15.5,6.43,6.43,0,0,1,5.1-1.2c1.87.43,3.54,1.89,4.94,4.31a17.93,17.93,0,0,1,1.6,13.54c-3.39,12.67-4.29,22-2.48,25.66,2.77,5.52,2.8,14,2.58,18.43a4,4,0,0,1,3.76-.72c3.78,1.4,4.67,10,4.87,14.53,1.78-1.27,4.51-2.63,6.94-1.47,3.51,1.68,4.66,7.84,3.5,18.85-2.85,27,11.89,35.9,12,36l.22.16c10.2,9.57,7.43,30,6.07,37.19,4.38-4.29,3.81-18.54,3.11-24.33l-.07-.6.44-.4c2.72-2.46,5.16-3.17,7.25-2.13,6.35,3.19,6.3,23.81,5.69,36q1.49-4.53,3-9.78a52.19,52.19,0,0,1,5.14-11.37c1.95-3.36,2.57-9.17-5.58-17.76-5.43-5.71-7.82-11-7.11-15.69a11.1,11.1,0,0,1,5-7.55,3.61,3.61,0,0,1,3.67-1c6.42,1.84,13,24.17,15.95,35.56,1.43-30.61-22.68-87.48-22.94-88.1-11.05-23.48-10.59-33.78-8.26-38.28a6.81,6.81,0,0,1,2.79-3c-3.26-14.83-2.12-16.54-.54-17.06,1.41-.45,3.51-1.13,14.6,21.65,1.67,3.45,3.31,6.93,4.78,10.12l-9.64-36.41c-8.11-8.15-11.22-13.92-9.51-17.62a6.11,6.11,0,0,1,4.41-3.1l-2.58-1.43a30.21,30.21,0,0,1-12.6-13.36c-6.69-13.64-19.46-28.91-29-39.32a77.11,77.11,0,0,1-16.86-30.14c-10-33.95-19.29-38.52-19.38-38.56l-.14-.07C327.3,41,326.89,39.12,327.53,37.73c.38-.81,1.35-2.92,16.6,2-.67-1.62-4.22-6-21.85-14.52-24.92-12.12-39-21.32-41.38-22.87-3.89.34-6.44,1.75-7.8,4.31-3.16,6,.89,16.57,3.76,22.67,0-6.25.94-9.27,3.11-9.84,4.32-1.15,10.31,10.34,12.68,15.32,1.26,3,7.36,17.74,7.55,20.42a38.07,38.07,0,0,0,2.86,4.24c6.24,8.67,17.85,24.8,11.82,35.07-6.95,11.81.38,22.78.7,23.24l.61.91-.86.67c-6.29,4.89-9.94,20.7-10,20.86l-.3,1.33-1.26-.5c-4.7-1.89-13,9.61-17.11,17.3l-.46.86-.93-.31a4.43,4.43,0,0,1-2.68-2.5c-2.08-4.53.76-13.87,2.44-18.59a26.31,26.31,0,0,0-4.21,4.83c-2,12-4.9,18.54-8.81,20.11-1.24.5-3.23.72-5.61-1.06-.94-.71-6.38,4-11.75,10.91l-.93,1.2-5.94-7.91.63-.71c4.29-4.81,10.5-20.37,13.27-27.82l-13.56,10.33-.63-1.26c-4.55-9.11-3.15-22.35-3.09-22.91l0-.12c5.23-24.26,10.79-36.25,17-36.65,3.73-.27,6.43,3.67,7.84,6.46.69-3.7-.53-10.12-3.5-18A3.52,3.52,0,0,0,263.35,73a3.56,3.56,0,0,0-3.21.74c-7.73,6.53-17.71,29.05-23.67,42.51-1.69,3.8-3,6.81-3.94,8.66-1.37,2.74-3.08,4.08-5,4-3.79-.17-7-6.27-8.36-9.26l-6.51,5.8-.72-1.19c-6.65-10.81,6-39,7.41-41.29a2.65,2.65,0,0,1,2.26-1.36c2.36,0,5.1,3.63,6.74,6.16,2.2-5.92.13-11.7-2.13-15.67a3.3,3.3,0,0,0-2-1.55,3.34,3.34,0,0,0-2.58.36c-21.9,12.8-23.15,45.84-23.68,59.94-.06,1.63-.11,3-.18,4a12.87,12.87,0,0,0,2.66,9.6c1.26,1.82,2.56,3.7,1.76,6.92-.41,1.63-1.32,2.08-2,2.17-2.43.26-5.85-4.39-8.48-8.73.62,8.35,5.89,19,5.95,19.12l.31.62-.4.56a3.44,3.44,0,0,1-3.2,1.63c-4.54-.32-11-10.19-15.36-17.71.42,3.64-.07,6.25-1.47,7.78a4.5,4.5,0,0,1-4.18,1.36l-.9-.21v-.92c0-9.79-16.85-15.19-17-15.24l-2.23-.7,1.9-1.36a1.92,1.92,0,0,0,.8-1.42c.57-4.07-5.36-12.53-7.7-15.44l-.29-.37,1.47-15.41a15.87,15.87,0,0,1-5.76-9.3c-.93-4.88.6-10.16,4.54-15.68,8.62-12.06,8.57-14.93,8.55-16.15a3,3,0,0,1,.26-1.51c5.11-10.21,13.25-30.87,13.33-31.08,3.69-8.37,6.85-12,10-11.54,3.41.53,5.09,6.11,5.85,10,4.08-7.63,5-13.31,2.63-16.9-3.76-5.78-14.89-4.46-15-4.45h-.14c-14,0-35,13.38-46.46,21.57a37.59,37.59,0,0,1,13.33.63l11,2.74L140.13,35h-.21c-14.51,0-37.13,59.88-44.66,83.08l-.09.27-22.94,22.2c-2.3,13.7-14.36,23.71-21.21,28.38a3.43,3.43,0,0,1,.95.89c2.73,3.67-.2,13.9-5.92,20.65-1.74,2.06-2.36,3.92-1.82,5.53,1.14,3.39,7.13,5.44,9.35,6l2,.46-1.48,1.49c-.24.24-6,6.16-2,12.7,1.89,3.14,1.62,7.18-.75,11.38-3.12,5.51-9,9.67-13.61,9.67-1.82,0-6.32,4.12-11.91,13.16-7.37,11.93-13.66,27.7-10.81,33.42,4.11,8.22-3.93,21.1-8.48,27.35a57.48,57.48,0,0,0,9.44-8.2c3.44-7.1,6.64-10.37,9.65-10,4.1.5,5.65,7.41,5.81,8.19l.2.93-.87.38c-4.33,1.86-5.2,7.69-2.33,15.6,2.59,7.17-4.87,17-7.93,20.6a5.41,5.41,0,0,0,2.26-.32c8.76-3,19-23.77,19.82-25.46,5-20.86,13.14-34.3,24.16-39.94a24.53,24.53,0,0,1,16.65-2.25c-2-6.17-1.92-10.64.2-13.31a6.77,6.77,0,0,1,4.83-2.43c-.86-10.58,1.4-14.87,3.23-18.34s3.08-5.87.64-13.55c-5.34-16.75,3.57-27.38,4-27.83l.81-.95.89.89c6.37,6.37,6.09,23.28,4.93,35.41,3.51-8.55,7.53-13.3,12-14.14,3.58-.67,6.41,1.3,7.93,2.74,6.25-12.55,13-19.58,20.19-20.91a12.66,12.66,0,0,1,10.6,2.8l.2.19.1.26c6,16.52-3.29,47-3.69,48.26l-.2.65-.67.14c-7.88,1.7-13.28,26.67-14.69,36.16l-.09.56-.49.28c-16.65,9.33-18.51,29.34-19.86,43.95-.11,1.17-.22,2.31-.33,3.4-1.5,14.84-12.25,41.49-12.7,42.61l-.27.66-.71.06c-6.39.55-7.29,13.26-7.1,18.11.69,24.48-11.3,40.2-13.92,43.33,4.18,11.28-4.43,29.13-5.58,30.85-5.15,7.73-.27,13.95-.06,14.21l.24.3,0,.39c.28,7.11.92,18.95,1.43,20.47.52.84,4.71,2.66,9.4,4.35-7.54-11.06-6.52-36.94-6.46-38.19l2.31-.08c1.18,10.18,4.79,17.59,10.72,22a22.45,22.45,0,0,0,5.9,3.15c-6.19-4.66-7-12.2-7-12.31L89.71,482l2.3,2.31c3.06,3.06,6.42,4.51,10,4.29,5.31-.33,10-4.18,12.43-6.64-7,.18-12-1.27-14.76-4.24a7.88,7.88,0,0,1-2.21-6.11l.07-.51.42-.29c8.92-6.13,15.6-2.44,18.81.32V460.74L113,424l.21-.34c8.49-13.46,2.91-30,2.85-30.18l-.11-.33,2.29-9.15c.21-2.73,3.4-40.83,18.41-49.07,14.2-7.84,22.35-44.88,22.43-45.26l0-.15L167.39,267l19-17.4.77,1.08c13.83,19.64,35.16,35.95,35.38,36.11l.26.2.12.3c3.45,8.81,4.76,16,3.87,21.4a109.57,109.57,0,0,0-1.65,16.11c-.41,22-9.56,46.95-9.65,47.19-9,30.14,0,53.17,9.11,67.18a92.42,92.42,0,0,0,18.93,20.92c-3.53-12.53,6-30.79,15.29-44.59A122.32,122.32,0,0,0,276,376.28c9.18-37.71,13.27-61.94,11.53-68.21-3.82-13.76,17.12-41.41,18-42.58l1.16-1.52.81,1.73c5.83,12.36,16.85,27.11,17,27.26l.26.35,0,.44c-1.43,17.78,14.31,32.31,14.47,32.45l.17.16.1.22c12.9,28.39,28.15,65.1,27.57,78.8,0,.14,0,.26,0,.36,0,13.83,13.09,38.54,13.22,38.79l.09.18,0,.19c1.92,12.19.5,19.79-4.2,22.6-5.87,3.49-14.81-1.69-18.37-4.07a4,4,0,0,0,.36,1.37c1.89,4.14,10.23,7.82,13.29,8.89l.69.24.08.72A3.65,3.65,0,0,1,371,478c-2.4,2.12-8.16,1.82-12.55,1.21l11.09,7.58-10.33,5.92A17.52,17.52,0,0,0,372,495c10.42-2.18,18.49-13.33,20.52-16.36-3.47-4.62.89-19.63,1.86-22.77L395,454l9.3,9.32-1.68.64c-3,1.11-1.9,5-.32,9.62a14.87,14.87,0,0,1,1.07,4.14v.55l-.44.35s-3.39,2.87-4.76,10.44C395.74,502.42,391.45,509,389.34,511.48ZM106.53,465.32c-2,0-3.83-2.4-4.42-3.23l-.11-.15,0-.19c-2.3-7.88-2.23-13.27.21-16a5.57,5.57,0,0,1,4.8-1.79l.81.14.14.8c3,16.45,1.41,19.48-.49,20.27A2.15,2.15,0,0,1,106.53,465.32Zm-2.41-4.41c.89,1.2,2,2.17,2.42,2.09.07-.05,1.94-1.3-.74-16.75a3.06,3.06,0,0,0-1.92,1C102.84,448.48,101.51,451.83,104.12,460.91Z" style="fill:#fff"/><path d="M237.17,162.24s-1.73,12.13-9.16,6.67Z" style="fill:#fff"/><path d="M216.63,168.47c-6.92,5.92-9.14-4.47-9.14-4.47Z" style="fill:#fff"/></g></g></svg>