<svg xmlns="http://www.w3.org/2000/svg" viewBox="0 0 333.61 374.12"><title>Skeleton</title><g id="aafc9de5-e916-4933-b21c-ece58b6986a4" data-name="Layer 2"><g id="bb94645f-9793-4987-bb61-5a69168b3e70" data-name="Layer 1"><path d="M246.44,325.28a155,155,0,0,1-29.95,7.21l4.79,39.39,37.08-17.63ZM79,326.55,68.32,356.71,102,371.88l4.77-39.22A177.31,177.31,0,0,1,79,326.55Zm122.58,7.79c-10.58,1-21.74,1.59-33.09,1.78v35.76h37.65Zm-79.83.11-4.55,37.43h36.24V336.13C142.57,336,131.88,335.42,121.72,334.45Z" style="fill:#eaeaea"/><path d="M220,374.12l-5.21-42.89,1.44-.22a153.52,153.52,0,0,0,29.65-7.14l1.35-.5,13,31.62Zm-1.88-40.37,4.36,35.88,33.91-16.12L245.6,327.18A157.86,157.86,0,0,1,218.16,333.75ZM103.24,374.08l-36.8-16.56L78,324.67l1.38.45A177.15,177.15,0,0,0,107,331.18l1.45.21Zm-33-18.17,30.56,13.76,4.35-35.74a181,181,0,0,1-25.2-5.52ZM207.8,373.38H167V334.64l1.47,0c11.79-.2,22.88-.79,33-1.78l1.45-.14Zm-37.84-3h34.46L200.24,336c-9.36.87-19.53,1.41-30.28,1.62Zm-15.05,3H115.47l4.94-40.56,1.45.14c10,1,20.62,1.51,31.57,1.67l1.48,0Zm-36-3h33.05V337.61c-10-.18-19.68-.7-28.88-1.53Z" style="fill:#fff"/><path d="M331,190.39a343.54,343.54,0,0,0-12.93-70.86,246.52,246.52,0,0,0-23.71-55.34c-8-13.49-16.36-27.73-28.68-37.76C237.71,3.66,195.27.82,160.54,1.62c-20.9.49-41.92,3.46-61.43,10.94A118.22,118.22,0,0,0,39.87,62C14.15,104.2,2.29,160.07,1.52,214c35.8,10.31,59.47,23.11,72.87,40.38,12.73,16.42,14.85,36.4,9.8,58,19,5.82,50.6,9.12,81.34,8.79s61.4-4.57,77.64-10.83c-3.71-20.9-.15-40.46,13.68-56.45,14.45-16.7,38.83-29.42,75.24-39.86C332,206.19,331.61,198.31,331,190.39ZM135.64,216.08c-27,18.94-137.53,1.12-95.87-63.44,4.84-7.5,12.33-10.73,21.11-10.88,10.26-.17,22.27,3.88,33.86,10.22l13.34,8.65,9.51,7.34C137.46,185.27,149.38,206.46,135.64,216.08Zm52.61,73.3c-5.22,7.25-44.26,6.94-48.79,0-5.8-8.89,13.14-64,24.4-64S194.9,280.15,188.25,289.38ZM298.49,187c-9.08,36.06-82.81,44.11-104.22,29.11-11.43-8-5.11-24,8.78-39.13,16.92-18.43,45.08-35.53,66-35.19,8.78.15,16.26,3.38,21.1,10.88C298.8,166.07,300.89,177.49,298.49,187Z" style="fill:#eaeaea"/><path d="M161.24,322.63c-30,0-59.38-3.34-77.49-8.88l-1.35-.41.33-1.36c5.31-22.63,2.1-41.71-9.53-56.71-13-16.78-35.92-29.44-72.1-39.86L0,215.09l0-1.15c.84-59.07,14.54-113.3,38.57-152.72a120,120,0,0,1,60-50.06C116.51,4.28,136.77.67,160.5.12c31.41-.73,76.57,1.09,106.11,25.15,12.3,10,20.57,23.94,28.57,37.41l.45.75a247.74,247.74,0,0,1,23.86,55.67,344.51,344.51,0,0,1,13,71.17c.62,7.79,1,15.75,1.11,23.67l0,1.15-1.1.32c-36.69,10.52-60.37,23-74.52,39.41-12.74,14.73-17.23,33.3-13.34,55.2l.22,1.22-1.16.44c-16.33,6.3-47,10.59-78.16,10.93ZM86,311.28c18.82,5.47,49.1,8.66,79.56,8.33,30.09-.33,59.67-4.35,76-10.3-3.68-22.3,1.11-41.29,14.23-56.46,14.4-16.65,38.21-29.38,74.86-40-.14-7.48-.51-15-1.09-22.34h0A341.2,341.2,0,0,0,316.62,120a245.38,245.38,0,0,0-23.57-55l-.45-.75c-7.86-13.24-16-26.94-27.88-36.62C236,4.17,191.49,2.41,160.57,3.12,137.19,3.66,117.26,7.21,99.64,14A117,117,0,0,0,41.15,62.78C17.56,101.49,4,154.75,3,212.84c36.19,10.55,59.26,23.46,72.55,40.59C87.54,268.87,91,288.33,86,311.28Zm78-15.08q-1.2,0-2.37,0c-4.64-.1-20-.85-23.36-6-4.81-7.37,4.45-37.65,13-53.51,4.63-8.53,8.87-12.86,12.61-12.86,4.14,0,8.92,5.22,14.19,15.51,8.15,15.91,16.65,43.65,11.42,50.92h0C186.29,294.68,174.23,296.2,163.94,296.2Zm-.08-69.37c-.91,0-4.29.82-10,11.29-9.37,17.31-16.64,45.13-13.17,50.45,1.32,2,8.43,4.32,20.92,4.6s23.27-1.72,25.39-4.66h0c3.65-5.06-2.35-29.64-11.65-47.81C170.14,230.48,166,226.83,163.86,226.83Zm62.44-2c-13.62,0-25.78-2.5-32.89-7.48A14.53,14.53,0,0,1,187,206.65c-.9-8.3,4.42-19.21,15-30.71,16.53-18,44.93-36.06,67.11-35.68,10,.18,17.5,4.07,22.34,11.56,8.36,13,11.24,24.91,8.55,35.52-4.14,16.45-20.26,25.58-33.05,30.35A119.78,119.78,0,0,1,226.3,224.79Zm42.09-81.53c-21,0-48.71,17.78-64.24,34.7-9.83,10.71-15,21-14.22,28.36a11.63,11.63,0,0,0,5.2,8.53c13.09,9.17,46.13,9.18,70.72,0C278,210.36,293.21,201.8,297,186.6h0c2.48-9.77-.27-20.92-8.16-33.15-4.26-6.6-10.95-10-19.87-10.19ZM103.63,224.75A121.09,121.09,0,0,1,90.15,224c-21.13-2.35-39.39-9.62-50.1-19.92-9.92-9.55-18.23-26.36-1.54-52.24,4.84-7.49,12.35-11.38,22.34-11.56s21.88,3.43,34.61,10.4l.1.06L109,159.44l9.51,7.34c15.94,13.88,25.08,28.42,24.52,38.95a14.51,14.51,0,0,1-6.53,11.58h0C129.63,222.12,117.64,224.75,103.63,224.75ZM61.51,143.26H60.9c-8.92.16-15.61,3.59-19.86,10.19-12.35,19.12-12,35.87,1.09,48.44,23.22,22.35,76.22,24.47,92.65,13h0a11.67,11.67,0,0,0,5.26-9.28c.5-9.47-8.48-23.45-23.43-36.47l-9.4-7.25L94,153.27C82,146.71,70.77,143.26,61.51,143.26Z" style="fill:#fff"/></g></g></svg>