<svg xmlns="http://www.w3.org/2000/svg" viewBox="0 0 357.55 441.48"><title>Solar_2</title><g id="f621e43b-83da-4b8d-ba95-66779fbd01ff" data-name="Layer 2"><g id="b87f6b6f-56a8-4876-805e-d4fc3a381015" data-name="Layer 1"><path d="M54.06,1.6a191.15,191.15,0,0,0-32.3,49l88.89,83.42L101,144.33,16,64.51A231.89,231.89,0,0,0,2.28,123.19l87.57,44.27L83.49,180l-82.3-41.6a259.19,259.19,0,0,0,4.1,56.66l75.79,6.27-1.15,14-71.6-5.92c.56,2.33,1.14,4.67,1.77,7a268.83,268.83,0,0,0,12.34,35.76c6.61-1.21,13.43-2.46,21-3.88,20.17-3.8,40-7.59,40-7.59l2.64,13.83S66.2,258.42,46,262.22L28.52,265.5a252.39,252.39,0,0,0,22.36,36.94l45.87-25.85,6.91,12.28-44,24.83A229.72,229.72,0,0,0,89.5,343.86l12.93-15.34c1-15.48,3.74-28.44,10.84-39A46.35,46.35,0,0,1,133.74,273a115.33,115.33,0,0,1-14.42-32.68c-10.95-40.82.44-81.79,27.45-104.11L54.06,1.6Zm249.43,0L210.78,136.2c27,22.32,38.43,63.28,27.47,104.11A114.94,114.94,0,0,1,224,272.71c9.3,4.06,16.25,10.18,20.73,17.83,5.89,10,7.91,21.95,8.6,35.79l14.77,17.53A230.27,230.27,0,0,0,298,313.7l-44-24.83,6.92-12.28,45.87,25.85a251,251,0,0,0,22.36-36.94l-17.5-3.28c-20.2-3.8-40.08-7.61-40.08-7.61l2.64-13.83s19.88,3.79,40.05,7.59c7.39,1.39,14.48,2.71,21,3.91a268.35,268.35,0,0,0,12.35-35.79c.62-2.33,1.21-4.67,1.76-7l-71.59,5.92-1.16-14,75.79-6.26a257.93,257.93,0,0,0,4.08-56.66L274.06,180l-6.36-12.58,87.6-44.27a231.8,231.8,0,0,0-13.69-58.71l-85.05,79.85-9.66-10.28,88.89-83.42a191.15,191.15,0,0,0-32.3-49Zm-126,196.82c-7.88,0-15.21,4-20.95,11.4s-9.54,18-9.54,29.92,3.8,22.55,9.54,29.93,13.07,11.42,20.95,11.42,15.18-4,20.92-11.42,9.54-18,9.54-29.92-3.81-22.55-9.54-29.93-13-11.4-20.92-11.4Zm29.87,83.83c-7.81,8.4-18.27,13.83-29.87,13.83-11.28,0-21.48-5.13-29.22-13.13q-3,.75-5.61,1.65c-8.64,3-13.86,7.14-17.67,12.8-6.92,10.3-8.7,27.93-9,52.2h123.5c-.1-23.78-.87-41.6-6.93-51.94-3.33-5.7-8-9.77-16.26-12.87a60.72,60.72,0,0,0-9-2.54Z" style="fill:#9b442d"/><path d="M240.48,350.6H115v-1c.27-23.9,1.93-42,9.14-52.75,4.15-6.16,9.75-10.23,18.17-13.18,1.7-.6,3.61-1.16,5.7-1.68l.56-.14.4.42c8,8.26,18.11,12.82,28.5,12.82,10.69,0,21-4.8,29.14-13.51l.38-.42.55.12a61.5,61.5,0,0,1,9.13,2.59c8.07,3,13.08,7,16.76,13.29,6.38,10.88,7,30.19,7.07,52.45ZM117,348.6H238.47c-.1-21.54-.75-40.15-6.78-50.44-3.43-5.86-8.14-9.58-15.75-12.43a59.45,59.45,0,0,0-8.28-2.39c-8.42,8.86-19.13,13.74-30.21,13.74-10.76,0-21.22-4.62-29.53-13-1.81.47-3.48,1-5,1.49-8,2.8-13.28,6.62-17.17,12.41C118.94,308.12,117.29,325.56,117,348.6Zm-27.37-3.34-.77-.64a231.54,231.54,0,0,1-30-30.28l-.76-.92,44.2-24.93L96.37,278,50.6,303.75l-.53-.72a254.09,254.09,0,0,1-22.45-37.09L27,264.75l1.3-.24c5.57-1,11.44-2.13,17.48-3.27,17.44-3.28,34.83-6.61,39.09-7.42L82.64,242c-4.23.81-21.52,4.1-39,7.4-6.21,1.17-11.94,2.22-17.45,3.24l-4.31.79-.32-.73a271.73,271.73,0,0,1-12.39-35.9c-.56-2.11-1.13-4.34-1.77-7L7,208.38l72,6,1-12.05L4.45,196l-.14-.75A259.93,259.93,0,0,1,.19,138.4l.06-1.56,82.8,41.86,5.45-10.79L1.21,123.78l.07-.69A232.51,232.51,0,0,1,15,64.15l.53-1.4L101,142.91l8.27-8.81L20.55,50.86l.3-.65A192.08,192.08,0,0,1,53.32.93L54.17,0l93.94,136.39-.7.58c-27.24,22.5-37.88,63-27.12,103.08a114.4,114.4,0,0,0,14.29,32.4l.64,1-1.08.47a45.46,45.46,0,0,0-20,16.18c-6.21,9.24-9.5,21.11-10.67,38.51l0,.32ZM61.16,314a228.71,228.71,0,0,0,28.21,28.47l12.08-14.33c1.22-17.58,4.61-29.67,11-39.15a47,47,0,0,1,19.83-16.42,116.89,116.89,0,0,1-13.91-32c-10.87-40.52-.25-81.44,27.07-104.55L54,3.21A190.25,190.25,0,0,0,23,50.39L112.07,134l-11,11.73L16.37,66.26a231.44,231.44,0,0,0-13,56.35L91.19,167l-7.26,14.37L2.14,140a257.46,257.46,0,0,0,4,54.13l76,6.28-1.32,16L9.63,210.6c.51,2.09,1,3.9,1.43,5.63a269.55,269.55,0,0,0,12,34.9l2.74-.51c5.51-1,11.23-2.07,17.44-3.24,20.17-3.79,40-7.58,40-7.58l1-.19,3,15.79-1,.19c-.2,0-20.12,3.86-40.08,7.61l-16.18,3a250.23,250.23,0,0,0,21.16,34.89l46-25.9,7.89,14ZM268,345.26l-15.63-18.55,0-.33c-.8-16-3.33-26.56-8.46-35.34-4.48-7.64-11.3-13.5-20.27-17.42l-1.08-.47.64-1a114.33,114.33,0,0,0,14.15-32.12c10.76-40.1.1-80.57-27.14-103.08l-.71-.58.52-.76L303.38,0l.85.93A191.74,191.74,0,0,1,336.7,50.21l.3.65-.52.5L248.31,134.1l8.29,8.81L342,62.73l.53,1.4a232.8,232.8,0,0,1,13.74,59l.07.69L269.05,167.9l5.46,10.8,82.79-41.86.06,1.56a260.52,260.52,0,0,1-4.09,56.88l-.14.75-75.56,6.25,1,12.05,72-6-.32,1.35c-.63,2.63-1.21,4.92-1.78,7a270.41,270.41,0,0,1-12.39,35.92l-.31.74-.79-.15c-6.5-1.2-13.59-2.52-21-3.91-17.53-3.3-34.83-6.59-39.07-7.4l-2.27,11.87c4.26.81,21.66,4.14,39.09,7.42,6,1.14,11.93,2.24,17.51,3.27l1.3.24-.59,1.19A253.22,253.22,0,0,1,307.5,303l-.52.72L261.2,278l-5.94,10.53,44.23,24.92-.76.92a231.06,231.06,0,0,1-30,30.29Zm-13.67-19.32,13.91,16.51A228.77,228.77,0,0,0,296.42,314l-43.89-24.73,7.91-14,46,25.9a251.19,251.19,0,0,0,21.16-34.89l-16.21-3c-20-3.75-39.88-7.57-40.08-7.61l-1-.19,3-15.79,1,.19s19.88,3.79,40.05,7.58c7.08,1.34,13.9,2.61,20.17,3.77a268.7,268.7,0,0,0,12-34.92c.46-1.71.93-3.56,1.44-5.63l-71.22,5.88-1.32-16,1-.08,75-6.2a258.85,258.85,0,0,0,4-54.14l-81.8,41.36L266.36,167l87.87-44.41a230.74,230.74,0,0,0-13-56.37l-84.69,79.5-11-11.73.73-.68,88.36-82.94a189.88,189.88,0,0,0-31-47.18L212.12,136c27.33,23.12,38,64,27.1,104.55a116.16,116.16,0,0,1-13.78,31.7A44,44,0,0,1,245.57,290C250.85,299,253.46,309.79,254.29,325.94Zm-76.84-43.85c-8.1,0-15.81-4.19-21.74-11.81-6.2-8-9.75-19.1-9.75-30.53s3.55-22.57,9.75-30.54c5.91-7.6,13.63-11.79,21.74-11.79h0c8.2,0,15.71,4.08,21.71,11.79,6.19,8,9.75,19.1,9.75,30.54s-3.56,22.56-9.75,30.53C193.15,278,185.64,282.09,177.45,282.09Zm0-82.67c-7.58,0-14.55,3.81-20.16,11-5.93,7.62-9.33,18.3-9.33,29.31s3.4,21.68,9.33,29.3c5.62,7.23,12.59,11,20.16,11s14.51-3.81,20.13-11c5.93-7.62,9.33-18.3,9.33-29.3s-3.4-21.69-9.33-29.31c-5.61-7.21-12.57-11-20.13-11Z" style="fill:#fff"/><path d="M47.68,392.1a7,7,0,0,0-.49.59h0c-4.31,5.85-4.21,12.86,2.05,19.11,15.65-5,32-7,50-.17l5.29,28.84,14.84-.17a124.38,124.38,0,0,1-4.6-19.28l.17-39.76a128.42,128.42,0,0,1,4.6-21.33H104.87l-5.63,30.54c-16,5.94-32,6.48-49.83,0C48.81,391.07,48.21,391.55,47.68,392.1Zm76.39-19.56c-.54,2.4-1,5-1.41,7.72h35.22l-10,13.92-24.87.3-.89,26.07h.17c.36,2.53.8,4.95,1.34,7.22l149.56,0,40.16-28.19-40.19-27-149.08,0Zm6.4,29.57,21.39-.26,5.17-7.19,13.53,9.7L159,420h-29.1l.62-17.93Zm36.92-21.86h51.53l6,15.35-19.44.06L193.88,420H168.56l12.88-17.38-19.9-14.26,5.85-8.14Zm59.82,0H270.8l28.91,19.45-12.13,8.51-17.19-12.74-37.18.11-6-15.32Zm-16.85,23.11,57.49-.17,13.07,9.68L270.74,420l-68.3,0,7.92-16.67Z" style="fill:#9b442d"/><path d="M103.7,441.48l-5.35-29.11c-15.15-5.64-30.23-5.51-48.81.39l-.58.18-.43-.43c-6.29-6.28-7.07-13.72-2.15-20.41a6.3,6.3,0,0,1,.58-.68h0c.3-.32.63-.62,1-.93s.52-.46.78-.72l.45-.45.6.21c16.73,6.1,32.19,6.16,48.61.2l5.68-30.8h16.87l-.41,1.3a125.66,125.66,0,0,0-4.56,21.1l-.17,39.61A121.54,121.54,0,0,0,120.33,440l.41,1.29ZM75.77,406.23a65.85,65.85,0,0,1,23.82,4.47l.53.2,5.24,28.56,12.65-.14a123.33,123.33,0,0,1-4.23-18.15V421l.18-39.89a130.14,130.14,0,0,1,4.24-20.19H105.7l-5.58,30.28-.54.2c-16.89,6.26-32.77,6.33-49.93.21l-.38.36c-.3.27-.59.53-.86.81h0a5,5,0,0,0-.42.5c-4.16,5.65-3.59,12,1.53,17.38A87.69,87.69,0,0,1,75.77,406.23Zm47.06,22.54-.18-.77c-.47-2-.89-4.16-1.24-6.48h-.33l1-28,25.32-.31,8.58-11.92H121.5l.17-1.14c.4-2.78.88-5.4,1.42-7.8l.18-.78,150.19,0,.25.17,41.4,27.85L273.5,428.73Zm.31-9.19h0l.12.83c.32,2.27.71,4.4,1.15,6.36l148.45,0,38.71-27.17L272.85,373.5l-148,0c-.38,1.8-.74,3.72-1.05,5.72h36l-11.44,15.91-24.43.29Zm5.68,1.46.68-19.92,21.85-.26,5.45-7.59L172,404.14,159.45,421Zm2.61-17.94L130.89,419h27.55l10.71-14.45-11.89-8.52-4.88,6.79ZM166.58,421,180,402.87l-19.89-14.25,6.74-9.37H219.6l6.79,17.34-20.28.06L194.52,421Zm-3.64-32.87,19.9,14.27L170.55,419h22.7l11.6-24.37,18.61-.06-5.22-13.35H167.9ZM200.85,421l8.88-18.66,58.45-.18,14.45,10.7L271.06,421ZM211,404.35,204,419l66.4,0,8.79-6.16-11.69-8.66Zm76.57,5.07-17.51-13-37.53.12-6.79-17.33H271.1l.26.17,30.11,20.26Zm-16.85-15L287.6,407l10.34-7.26-27.45-18.46H228.67l5.22,13.32Z" style="fill:#fff"/></g></g></svg>