<svg xmlns="http://www.w3.org/2000/svg" viewBox="0 0 130.37 313.16"><defs><style>.cls-1{fill:#df0b13;}.cls-2{fill:#fff;}</style></defs><title>Sorcerer</title><g id="Layer_2" data-name="Layer 2"><g id="Layer_1-2" data-name="Layer 1"><path class="cls-1" d="M66,2.58c2.5,15,5.6,29.88,7.37,44.94,2.48,21.13,9,41.18,16,60.94,6.58,18.36,15.18,36,22.76,54a102.06,102.06,0,0,1,4.13,12c3.82,13.59,8.87,27,11,40.87,4.6,30.63,0,59.35-23.92,81.8-12.73,11.95-28.11,16-45.54,13.63C30,307,15.73,288.65,7.4,264.41c-3.34-9.7-5.59-20.31-5.56-30.5,0-10.6,3.07-21.26,5.43-31.75A214.28,214.28,0,0,1,15,174.84c4.75-12.88,10.19-25.52,15.74-38.07,11.7-26.43,20.9-53.63,25.86-82.15C59.59,37.44,62.24,20.2,65,3ZM35.48,238.27c-3.35,8.14-2.31,13.41,2.35,19.28,1.83,2.3,4.31,5,4.44,7.57.36,7.08,5.1,10,10.44,11.71,6,1.92,12.31,2.76,18.56,3.58,1.63.22,3.73-1.07,5.22-2.19,3-2.29,5.52-6.52,8.74-7.1,6.69-1.21,7.53-5.86,8.64-10.73a56.77,56.77,0,0,0,1.42-9.69c.22-3.94-.57-7.6-5.74-9.5-.34,3.25-.63,6-.94,9H82.27c.81-6.21,3-12.38,2-18-1.32-7.65-5.07-14.88-8.24-23.55-3.11,9.16,1.68,19.35-6.81,26.85a37.89,37.89,0,0,1,0-5.63c2.43-14.27-.48-28.18-3.63-41.87-1.36-5.93-5.07-11.27-3.42-17.83.25-1-.5-2.2-.79-3.32l-1.82.08c-.24,4.69-.94,9.41-.62,14.06.61,8.74,2,17.43,2.68,26.17.41,5.8-3.48,10.84-9.52,12.74V206.19c-4.89,6.1-11.89,10.46-11.26,19,.53,7.26.93,14.52,1.39,21.71C36.67,248.54,36.42,243.88,35.48,238.27Z"/><path class="cls-2" d="M71.64,280.94a3.25,3.25,0,0,1-.44,0c-6.19-.82-12.6-1.66-18.64-3.6-4.81-1.55-10.39-4.33-10.79-12.17-.11-2.09-1.94-4.35-3.57-6.34l-.76-.94c-5-6.3-5.68-11.85-2.42-19.78l.67-1.63.49,3c.51,3.16.94,5.89,2.48,6.88a3.94,3.94,0,0,0,3.1.22c-.13-2.06-.25-4.13-.38-6.21-.3-4.94-.61-10-1-15.08-.49-6.7,3.42-10.81,7.57-15.17,1.29-1.35,2.62-2.74,3.8-4.22l.89-1.11v14.44c5.49-2,8.89-6.74,8.52-12-.31-4.32-.83-8.7-1.33-12.94s-1-8.81-1.34-13.24a64.69,64.69,0,0,1,.3-9.75c.12-1.46.24-2.91.32-4.36l0-.46,2.68-.12.1.4c.09.33.22.68.35,1a4.39,4.39,0,0,1,.44,2.55c-1.11,4.4.26,8.19,1.71,12.2a49,49,0,0,1,1.71,5.39c3.39,14.76,6,28.11,3.63,42.06a16.69,16.69,0,0,0-.08,3.3c0,.35,0,.72,0,1.1,4.35-4.4,4.44-9.67,4.54-15.23.06-3.51.12-7.14,1.3-10.63l.46-1.35.49,1.34c1,2.68,2,5.22,3,7.68,2.22,5.46,4.32,10.62,5.25,16,.68,4-.14,8.08-1,12.43-.34,1.69-.68,3.44-.93,5.17h5.31l1-9.21.6.22c5.75,2.11,6.26,6.45,6.07,10a59,59,0,0,1-1.43,9.77l-.11.48c-1,4.62-2.14,9.4-8.93,10.63-1.89.34-3.55,2.1-5.31,4a27.82,27.82,0,0,1-3.21,3.05C74.75,280.16,73,280.94,71.64,280.94ZM35.29,240.18c-2.37,6.71-1.5,11.48,2.94,17.06l.75.93c1.72,2.11,3.67,4.5,3.79,6.92.37,7.23,5.59,9.82,10.1,11.26,6,1.92,12.31,2.76,18.46,3.57,1.16.15,2.84-.57,4.86-2.1a26.51,26.51,0,0,0,3.09-2.94c1.8-1.89,3.65-3.85,5.86-4.25,6.15-1.12,7.07-5.17,8.14-9.87l.11-.48a56.87,56.87,0,0,0,1.4-9.61c.19-3.42-.28-6.84-4.81-8.76l-.92,8.81H81.7l.08-.57c.25-1.94.64-3.9,1-5.8.85-4.25,1.66-8.27,1-12.06-.91-5.22-3-10.33-5.19-15.74-.83-2-1.68-4.13-2.51-6.31a39.34,39.34,0,0,0-.83,8.91c-.1,5.84-.2,11.88-5.69,16.73l-.84.74v-1.11c0-.82,0-1.55,0-2.22a16.54,16.54,0,0,1,.1-3.49c2.34-13.78-.26-27-3.63-41.68a45.91,45.91,0,0,0-1.67-5.26c-1.44-4-2.93-8.1-1.74-12.8a3.73,3.73,0,0,0-.41-1.94c-.09-.25-.18-.5-.26-.74l-1,0c-.08,1.31-.18,2.62-.29,3.94a64.19,64.19,0,0,0-.31,9.6c.31,4.41.84,8.88,1.35,13.2s1,8.64,1.33,13c.42,5.94-3.54,11.26-9.87,13.24l-.65.21v-13c-1,1.12-2,2.19-3,3.22-4,4.19-7.77,8.15-7.3,14.41.36,5,.68,10.15,1,15.09q.19,3.32.41,6.62l0,.4-.38.11a5.17,5.17,0,0,1-4.31-.24C36.31,246,35.79,243.34,35.29,240.18Z"/><path class="cls-2" d="M65.74,313.16a61.75,61.75,0,0,1-8.2-.56C32.12,309.17,15.64,294.05,5.65,265,1.93,254.17,0,243.41,0,233.9.09,201.16,13.51,171,26.49,141.82l2.57-5.8C41.82,107.2,50.23,80.47,54.79,54.3c2.06-11.84,4-23.91,5.85-35.59q1.29-8,2.58-16l.16-1L67.46,0l.38,2.28c.77,4.61,1.61,9.31,2.43,13.84,1.83,10.19,3.72,20.73,5,31.19,2.33,19.82,8,38.53,15.93,60.53,4.36,12.18,9.72,24.27,14.9,36,2.6,5.86,5.29,11.91,7.82,17.92,7.51,17.82,19.55,52.59,15.78,85.32-2.49,21.72-13.2,41.85-28.63,53.86A56.71,56.71,0,0,1,65.74,313.16ZM65.61,11q-.67,4.15-1.33,8.29C62.41,31,60.48,43.07,58.42,54.93c-4.61,26.47-13.11,53.48-26,82.58l-2.58,5.81C17,172.14,3.77,201.94,3.68,233.91a93.15,93.15,0,0,0,5.46,29.9c9.48,27.58,25,41.92,48.89,45.14A53.39,53.39,0,0,0,98.76,298c14.67-11.41,24.85-30.61,27.23-51.37,3.67-31.9-8.14-66-15.51-83.47-2.52-6-5.2-12-7.79-17.86-5.22-11.76-10.6-23.91-15-36.22-8-22.23-13.75-41.17-16.12-61.34-1.22-10.35-3.1-20.83-4.92-31C66.3,14.87,66,12.94,65.61,11Zm6,271.28a4.21,4.21,0,0,1-.62,0c-6.26-.83-12.73-1.68-18.88-3.66C47.33,277,40.88,274,40.43,265.21c-.08-1.65-1.78-3.73-3.27-5.56l-.77-.95c-5.29-6.66-6-12.78-2.61-21.13l2.46-6,1.27,7.66c.41,2.6.84,5.3,1.87,5.95a1.57,1.57,0,0,0,1,.21c-.1-1.63-.21-3.28-.31-4.92-.3-5-.61-10.08-1-15.12-.54-7.3,3.77-11.82,7.94-16.19,1.27-1.33,2.58-2.71,3.72-4.14L54,201v16.19a10.39,10.39,0,0,0,5.84-9.84c-.31-4.28-.82-8.65-1.32-12.87s-1-8.85-1.35-13.31a64.54,64.54,0,0,1,.31-10c.11-1.44.23-2.88.3-4.32l.09-1.67,5-.23.38,1.45a8.47,8.47,0,0,0,.3.89,5.51,5.51,0,0,1,.49,3.34c-1,4,.29,7.61,1.67,11.43a46.45,46.45,0,0,1,1.75,5.54c3.43,14.9,6.07,28.39,3.66,42.59,0,0,0,.05,0,.08,1.71-3.31,1.78-7,1.85-11.16.06-3.62.12-7.36,1.37-11L76,203.12l1.8,4.91c1,2.65,2,5.18,3,7.63,2.25,5.53,4.38,10.76,5.33,16.23.73,4.22-.16,8.65-1,12.92-.24,1.18-.48,2.37-.68,3.57H87l1-9.72,2.22.81c6.65,2.44,7.15,7.64,6.95,11.33a59.48,59.48,0,0,1-1.46,10l-.11.48c-1.09,4.81-2.33,10.26-10,11.65-1.46.26-3,1.94-4.58,3.56a27.6,27.6,0,0,1-3.38,3.2C75.3,281.43,73.34,282.28,71.65,282.28ZM35.37,245.92c-.23,3.69,1,6.86,3.91,10.48.23.3.48.61.73.92,1.86,2.27,4,4.84,4.1,7.7.26,5.07,3,8.07,9.17,10.06,5.83,1.87,12.13,2.7,18.23,3.51.6.09,1.92-.37,3.88-1.84A26.91,26.91,0,0,0,78.31,274c1.94-2,4-4.17,6.59-4.65,5.27-1,6-4.27,7.07-8.85l.11-.48a56.36,56.36,0,0,0,1.37-9.38c.16-2.84-.23-5-2.35-6.55l-.83,8H80.17l.28-2.08c.26-2,.65-4,1-5.89.82-4.13,1.6-8,1-11.57-.88-5.08-2.94-10.13-5.11-15.47-.22-.52-.43-1.05-.65-1.58-.07,1.21-.09,2.44-.11,3.7-.1,6.13-.21,12.48-6.15,17.72l-3.06,2.7v-4.08c0-.8,0-1.51-.05-2.17a18,18,0,0,1,.12-3.77c2.29-13.53-.28-26.64-3.62-41.15a44.86,44.86,0,0,0-1.62-5.11c-.52-1.44-1-2.9-1.46-4.4,0,.65,0,1.31.07,2,.31,4.37.83,8.82,1.34,13.12s1,8.68,1.33,13c.47,6.57-3.87,12.45-10.8,14.62l-2.39.75V211l-.65.69c-4,4.14-7.35,7.71-6.94,13.38.38,5.06.69,10.2,1,15.17q.2,3.28.41,6.56l.09,1.48-1.43.41c-2.21.62-4,.49-5.39-.41A5.64,5.64,0,0,1,35.37,245.92Z"/></g></g></svg>