<svg xmlns="http://www.w3.org/2000/svg" viewBox="0 0 360.14 355.25"><title>Spectator</title><g id="a6f2fda7-6036-4087-8d9d-7e81c6643576" data-name="Layer 2"><g id="a48e6944-5278-425e-a922-3a00db08f57e" data-name="Layer 1"><circle cx="181.34" cy="101.07" r="21.7" style="fill:#a1aeb7"/><path d="M181.34,123.77a22.71,22.71,0,1,1,22.7-22.7A22.73,22.73,0,0,1,181.34,123.77Zm0-43.41A20.71,20.71,0,1,0,202,101.07,20.73,20.73,0,0,0,181.34,80.36Z" style="fill:#fff"/><path d="M198.45,204.47l15.83-26L203.56,181v-7.66l-12.77,6.12-1-11.23-9.19,9.7L178,166.18l-6.63,11.23-5.62-15.32-7.66,11.24-8.17-13.79v13.28l-7.66-10.22c-9.7,8.17-7.66,38.3-7.66,38.3l-4.09,13.79,6.64,5.1-4.59,17.37,8.68-4.09v9.7l29.1,5.11,15.32-2,8.68-6.13-4.59-6.13,8.17-6.64-7.15-6.12L201,212.65Z" style="fill:#67742a"/><path d="M170.34,248.89l-.15,0-29.93-5.25v-9L131.07,239l5-18.81-6.65-5.11,4.23-14.28c-.17-2.77-1.66-30.79,8-38.95l.81-.68,6.49,8.66V155.89l9.23,15.57L166,159.92l5.56,15.16,6.85-11.61,2.7,12.39,9.42-9.94,1.09,12,12.9-6.18v8l11.82-2.82-16.84,27.7,2.62,8.4-9.8,7.84L199.5,227l-8.35,6.79,4.63,6.18-9.72,6.87Zm-28.08-7,28.12,4.93,14.92-2,7.64-5.4-4.55-6.07,8-6.49-7.16-6.13,10.62-8.5-2.48-8L212.18,180l-9.62,2.29v-7.34L189.93,181l-1-10.46L180,180l-2.42-11.1-6.41,10.85-5.68-15.47-7.45,10.93-7.11-12v12.63l-8.79-11.73c-8.32,8.71-6.55,36.45-6.53,36.74V201l-3.95,13.3,6.63,5.09-4.22,15.94,8.17-3.85Z" style="fill:#fff"/><path d="M237.68,174.39c25-2.07,113.3-12.12,118.56-51.11,0,0-16.45,11.64-28,.41,1.93,4.48,1,10.59-14.89,13.89-18.49,3.84-45.58,5.29-62.83,7.95l-.57.09.48-.72,9.31-14-13.11-2c-.63-2.07-1.26-4-1.81-5.63l8.79-7.22L242.19,113c-.28-1.48-.64-3.23-1-5.08l9.36-16.29L238.67,88l1.65-7.61-8.17-5.11a3.64,3.64,0,0,1-.35-.24l-.67-21.2-12.92,7.24a78.65,78.65,0,0,0-19.1-11.44c-7.83-3.13-16.18-4.42-24.15-1.93-8.17,2.55-19.4-16.85-19.4-16.85-6.13,2-6.13,19.4-6.13,19.4l-14.3-7.15,1,19.41L107,48.22l-2,20.94L94.28,64.05l-.51,13.28L77.94,68.65l2.71,23.93C-15.52,81.93,112.7,36.15,112.7,36.15c-23.49-3.58-22-28.08-22-28.08s-46,11.55-72,56.49c-22.32,38.5,30.3,53.7,50.38,56.69-.54,1.88-.84,3-.84,3l-8.68,4.09,9,6c-2.25.87-4.61,2.15-6.23,2.78a252.36,252.36,0,0,0-23.14,10.22c-13.4,6.78-34.58,17.5-37.76,34C-1.07,194.06,9.06,203.7,20,207.92c19.49,7.51,41.42-2.2,59-10.55,1-.45,5.34-2.08,10.66-4L76.41,209.07c29.1,14.3,1.53,33.19,1.53,33.19s-19.92,7.15.51,2,19.4,8.17,19.4,8.17c12.77-9.7,21.45,8.18,21.45,8.18,3.59-1.8,13.76,10.81,19.47,18.44a13.81,13.81,0,0,0,11.08,5.56h22.48a13.74,13.74,0,0,0,11.52-6.22c6.94-10.68,18.27-4.24,18.67-4-.17-.42-5-11.81-1-15.82C203,257.14,205,253,207,247.85l17.47-3-12-13.77a32.86,32.86,0,0,0,1.32-8.7,3.48,3.48,0,0,1,0-.56c8.95.81,26.69,6.82,28.59,41.41l-21.91,1.72s35.23,0,27.57,29.61c8,0,18.39-4.49,21.9-12.25,5.53-12.19-.67-27.67-5-39.25-5.09-13.5-9.59-27.51-18.42-39.14-1.22-1.6-18.65-18.36-19.91-15.68.63-1.34,1-2.12,1-2.12S232.34,180.82,237.68,174.39ZM66.19,165.16c1.6-1.37,3.06-2.68,4.41-3.94a72.92,72.92,0,0,0,3.27,7.18C59.13,176.76,44.2,184,66.19,165.16ZM201,212.65l-10.21,8.17,7.15,6.12-8.17,6.64,4.59,6.13-8.68,6.13-15.32,2-29.1-5.11v-9.7l-8.68,4.09,4.59-17.37-6.64-5.1,4.09-13.79s-2-30.13,7.66-38.3l7.66,10.22V159.54l8.17,13.79,7.66-11.24,5.62,15.32L178,166.18l2.56,11.74,9.19-9.7,1,11.23,12.77-6.12V181l10.72-2.56-15.83,26Zm20.88-92.23a3.28,3.28,0,0,1-2.31.81c-23.63,1.63-46.38-8.34-67.62-18.82l-.26-.13c-1.94-1,7.78-12.66,9.29-14,4.55-3.87,10.37-6,16.21-6.82,10.89-1.61,23.42.81,32.26,7.25S220.56,107,222.24,117.7A3.32,3.32,0,0,1,221.88,120.42Z" style="fill:#67742a"/><path d="M246.73,295.54l.32-1.26c2-7.71,1.16-14-2.49-18.71-7.39-9.54-23.95-9.65-24.11-9.65l-.08-2,20.93-1.64c-2-31.11-17-38.12-26.51-39.37a36.09,36.09,0,0,1-1.24,7.87l12.86,14.72-18.67,3.24c-1.33,3.35-3.64,8.68-5.52,10.56-2.54,2.54-.94,9.5,1.2,14.69l1.11,2.67-2.5-1.37c-1.12-.64-11.11-5.89-17.35,3.69a14.67,14.67,0,0,1-12.35,6.67H149.85a14.86,14.86,0,0,1-11.88-6c-11.72-15.65-17-18.76-18.22-18.14l-.91.45-.44-.91c0-.08-4.29-8.68-10.9-10.25-3-.71-6,.11-9,2.43l-1.77,1.35.17-2.22a7.92,7.92,0,0,0-2.62-6.08c-3-2.48-8.33-2.84-15.54-1-10,2.49-10.09,2.1-10.41,1.06s-.45-1.5,9.19-5c1.16-.83,11.89-8.75,11.25-17.56-.37-5.21-4.66-9.86-12.75-13.84l-1.15-.56,11.7-13.8c-3.91,1.41-6.44,2.37-7.07,2.67-19.78,9.39-40.69,17.94-59.8,10.58C9.09,204.78-2.29,195.08.4,181.15c3.27-17,24.34-27.63,38.29-34.69A252.07,252.07,0,0,1,61.92,136.2c.7-.27,1.59-.69,2.53-1.13.62-.3,1.28-.61,2-.91l-8.88-5.92,9.86-4.65c.09-.34.23-.86.42-1.53-16.27-2.62-44.6-11.44-53-28.91-4.17-8.65-3.14-18.44,3-29.1C43.79,19.27,90,7.21,90.5,7.1l1.33-.34-.09,1.37c-.06,1-1.18,23.64,21.11,27l3.92.6L113,37.09C93.83,44,44.33,64.72,45.92,78.3c.5,4.29,6.77,10,33.6,13.14l-2.79-24.6,16.1,8.83.51-13.18,10.8,5.15,2-21,28.88,14.19-1-19.43,14.42,7.21c.16-4.63,1.11-16.85,6.78-18.74l.78-.26.41.71c3,5.2,12.16,18.29,18.23,16.39,7.42-2.32,15.77-1.66,24.82,2A78.81,78.81,0,0,1,218.3,59.88l13.78-7.72.7,22.33,8.67,5.42-1.61,7.4L252,91l-9.79,17c.3,1.47.58,2.87.83,4.11l12.67,3.48-9.76,8c.43,1.3.93,2.8,1.42,4.4l14.05,2.1L252,144.29c6.66-1,14.56-1.78,22.89-2.63,13.4-1.37,27.25-2.78,38.22-5.06,7.8-1.62,12.58-4,14.21-7.17a6,6,0,0,0,0-5.35l-2-4.61,3.61,3.5c10.82,10.51,26.58-.4,26.73-.51l1.88-1.32-.31,2.27c-5.3,39.29-91.89,49.66-119,51.94-4.77,5.73-9.09,10.53-9.78,11.3-.06.11-.14.29-.25.52,5.27,2,18.58,15.43,19.1,16.12,7.78,10.23,12.26,22.38,16.6,34.12.66,1.76,1.31,3.52,2,5.27l.43,1.15c4.26,11.27,10.1,26.7,4.59,38.87-3.77,8.3-14.57,12.81-22.82,12.83Zm-16.59-30.38c5.42,1.28,11.9,3.89,16,9.18,3.84,5,4.9,11.39,3.16,19.15,7.52-.46,16.6-4.74,19.71-11.62,5.17-11.41-.26-25.78-4.63-37.33l-.44-1.15q-1-2.64-2-5.29c-4.29-11.6-8.73-23.6-16.32-33.6-1.47-1.93-16-15.58-18.57-15.58h0a.52.52,0,0,0,.38-.29l-1.82-.85c.64-1.35,1-2.13,1-2.13l.16-.24c.05,0,4.83-5.32,10.09-11.66l.27-.33.42,0c25.8-2.14,109.25-11.86,117.27-48.1-4.45,2.5-15.67,7.54-24.93,1.11a7.24,7.24,0,0,1-.82,3.95c-1.92,3.7-7.16,6.46-15.58,8.21-11.07,2.29-25,3.72-38.42,5.09-9,.92-17.51,1.79-24.46,2.87l-2.82.44L258,131.69l-12.17-1.82-.19-.6c-.63-2.08-1.28-4-1.8-5.61l-.22-.65,7.83-6.43-10.15-2.79-.11-.62c-.27-1.42-.62-3.09-1-4.86l-.12-.57L249,92.21,237.5,88.68l1.69-7.82-7.57-4.74a3.82,3.82,0,0,1-.42-.28l-.38-.29-.64-20-12.07,6.77-.52-.42a78,78,0,0,0-18.85-11.3c-8.61-3.44-16.51-4.08-23.48-1.9a6.2,6.2,0,0,1-1.85.28c-7.56,0-16-13.06-18.25-16.79-3.85,2.49-4.73,13.73-4.73,18.11v1.61l-14.21-7.1,1,19.39L107.9,49.75l-2,20.92L95.22,65.6,94.71,79,79.15,70.45l2.64,23.26-1.25-.14c-23.76-2.63-35.73-7.55-36.61-15C42.08,62.64,95,41.69,109.07,36.42c-17.55-4.66-19.22-22-19.33-27-7.52,2.26-47,15.75-70.17,55.67-5.83,10-6.83,19.21-3,27.22,8.24,17.13,37,25.64,52.63,28l1.13.17L70,121.52c-.53,1.86-.83,3-.83,3l-.12.46-7.5,3.54,9.08,6.06-1.8.69c-1.19.46-2.45,1.06-3.57,1.59-1,.45-1.89.89-2.66,1.19a247.88,247.88,0,0,0-23,10.18C26,155.13,5.45,165.52,2.36,181.53c-2.45,12.72,8.17,21.66,18,25.45,18.37,7.08,38.83-1.31,58.22-10.52,1-.47,5.43-2.11,10.76-4l3.48-1.22L78,208.75c8,4.19,12.32,9.21,12.73,14.91.75,10.41-11.68,19.06-12.21,19.42l-.23.12-1,.35.9-.22c8-2,13.81-1.5,17.33,1.47a9.52,9.52,0,0,1,3.2,5.84,11.81,11.81,0,0,1,9.23-1.75c6.35,1.51,10.56,8.25,11.83,10.56,2-.23,6.78,1.68,19.77,19a12.88,12.88,0,0,0,10.28,5.16h22.48A12.7,12.7,0,0,0,183,277.89c5-7.73,12.68-7.34,17.71-5.42-1.44-4.15-3.21-11.28.08-14.58,1.24-1.24,3.22-5.13,5.29-10.41l.2-.52,16.28-2.82-11.22-12.83.13-.5a32.05,32.05,0,0,0,1.29-8.39,5.92,5.92,0,0,1,0-.73l.1-1,1,.09c8.21.74,27.52,6.36,29.5,42.35l0,1Zm-59.8-16.27-.15,0-29.93-5.25v-9L131.07,239l5-18.81-6.65-5.11,4.23-14.28c-.17-2.77-1.66-30.79,8-38.95l.81-.68,6.49,8.66V155.89l9.23,15.57L166,159.92l5.56,15.16,6.85-11.61,2.7,12.39,9.42-9.94,1.09,12,12.9-6.18v8l11.82-2.82-16.84,27.7,2.62,8.4-9.8,7.84L199.5,227l-8.35,6.79,4.63,6.18-9.72,6.87Zm-28.08-7,28.12,4.93,14.92-2,7.64-5.4-4.55-6.07,8-6.49-7.16-6.13,10.62-8.5-2.48-8L212.18,180l-9.62,2.29v-7.34L189.93,181l-1-10.46L180,180l-2.42-11.1-6.41,10.85-5.68-15.47-7.45,10.93-7.11-12v12.63l-8.79-11.73c-8.32,8.71-6.55,36.45-6.53,36.74V201l-3.95,13.3,6.63,5.09-4.22,15.94,8.17-3.85ZM55.6,178.07a1.34,1.34,0,0,1-1.29-.67c-.84-1.2-.54-2.92,11.23-13h0c1.5-1.29,3-2.6,4.38-3.92l1.08-1,.53,1.37a73,73,0,0,0,3.23,7.09l.44.85-.84.48C61.75,176.42,57.35,178.07,55.6,178.07Zm11.24-12.15c-7.28,6.24-9.66,8.9-10.43,10,1.47-.36,5.45-1.92,16.13-7.94q-1.29-2.56-2.33-5.06c-1.09,1-2.22,2-3.37,3ZM214.36,122.4c-22.16,0-43.16-9.38-62.85-19.1l-.21-.1a1.49,1.49,0,0,1-.85-1.18c-.38-3,9.08-13.77,9.88-14.45a33.11,33.11,0,0,1,16.71-7c11.69-1.73,24.34,1.12,33,7.43,8.9,6.48,11.4,18.17,13.19,29.59a4.28,4.28,0,0,1-.59,3.53h0a4.19,4.19,0,0,1-3,1.15C217.87,122.35,216.11,122.4,214.36,122.4Zm-61.9-20.86c21,10.37,43.47,20.32,67,18.69a1.57,1.57,0,0,0,1.75-2.38c-1.72-11-4.1-22.25-12.39-28.29s-20.33-8.71-31.52-7.06a31.22,31.22,0,0,0-15.71,6.59C160.05,90.43,152.94,99.33,152.46,101.54Z" style="fill:#fff"/><path d="M201,212.65l-10.21,8.17,7.15,6.12-8.17,6.64,4.59,6.13-8.68,6.13-15.32,2-29.1-5.11v-9.7l-8.68,4.09,4.59-17.37-6.64-5.1,4.09-13.79s-2-30.13,7.66-38.3l7.66,10.22V159.54l8.17,13.79,7.66-11.24,5.62,15.32L178,166.18l2.56,11.74,9.19-9.7,1,11.23,12.77-6.12V181l10.72-2.56-15.83,26Z" style="fill:#010006"/><path d="M170.34,248.89l-.16,0-29.92-5.25v-9l-9.2,4.34,5-18.81-6.66-5.11,4.24-14.28c-.17-2.77-1.66-30.79,8-38.95l.81-.68,6.5,8.66V155.89l9.23,15.57L166,159.92l5.56,15.16,6.85-11.61,2.7,12.39,9.41-9.94,1.09,12,12.91-6.18v8l11.82-2.82-16.84,27.7,2.62,8.4-9.8,7.84L199.5,227l-8.36,6.79,4.63,6.18-9.72,6.87Zm-28.08-7,28.12,4.93,14.92-2,7.64-5.4-4.55-6.07,8-6.49-7.16-6.13,10.62-8.5-2.48-8L212.18,180l-9.62,2.29v-7.34L189.92,181,189,170.51,180,180l-2.42-11.1-6.4,10.85-5.68-15.47-7.45,10.93-7.11-12v12.63l-8.79-11.73c-8.33,8.71-6.55,36.45-6.53,36.74V201l-3.95,13.3,6.62,5.09-4.21,15.94,8.17-3.85Z" style="fill:#fff"/><path d="M161.68,194.77s-58.27,61.3,26.57,126.38a5.16,5.16,0,0,1,2,3.23c.82,5.11-6.39,14.22-92.84-14A10.52,10.52,0,0,1,92,294.42c3.31-4.76,10.14-10.62,23.25-17.44,0,0-49,.76-47.73,27.18a21.61,21.61,0,0,0,13,18.48c18.65,8.29,66.48,27.62,114.85,31.57a13.37,13.37,0,0,0,9.59-3c4.07-3.34,10.65-8.27,16.66-10.6a10.58,10.58,0,0,0,6.07-14.12c-2.62-5.77-8.61-13.86-21-25-33.19-29.61-50.05-58.21-31.15-84.76C175.47,216.73,192.32,192.73,161.68,194.77Z" style="fill:#c296b9"/><path d="M196.44,355.25c-.39,0-.78,0-1.18,0-48.58-4-96.73-23.46-115.17-31.66a22.72,22.72,0,0,1-13.61-19.34,19,19,0,0,1,5.32-14.34C84.24,276.61,113.94,276,115.2,276l4.23-.06-3.76,1.95c-11.41,5.94-19.12,11.7-22.89,17.12a9.3,9.3,0,0,0-1.16,8.33,9.51,9.51,0,0,0,6.12,6.08c70,22.88,86.84,20.86,90.64,17.62a2.54,2.54,0,0,0,.91-2.49,4.13,4.13,0,0,0-1.65-2.58c-28.71-22-44.28-46-46.26-71.29-2.58-32.86,19.35-56.35,19.58-56.58l.26-.28.39,0c9.69-.64,15.86,1.24,18.32,5.6,3.93,7-3.33,17.49-3.64,17.93-16.57,23.28-6.72,49.8,31,83.45,10.95,9.76,18.11,18.27,21.3,25.3a11.1,11.1,0,0,1,.14,8.86,12,12,0,0,1-6.76,6.6c-5.77,2.24-12.09,6.91-16.38,10.45A14.38,14.38,0,0,1,196.44,355.25Zm-85.65-77c-8.81.7-28.45,3.32-37.54,13a17,17,0,0,0-4.77,12.87A20.71,20.71,0,0,0,80.9,321.73c18.35,8.15,66.24,27.54,114.53,31.48a12.22,12.22,0,0,0,8.87-2.8c4.41-3.62,10.92-8.43,16.94-10.76a10,10,0,0,0,5.63-5.5,9.14,9.14,0,0,0-.11-7.27c-3.07-6.77-10.07-15.06-20.81-24.64-38.62-34.46-48.57-61.82-31.3-86.09.07-.1,6.85-9.9,3.53-15.8-2-3.58-7.41-5.13-16-4.61-2.44,2.73-21.14,24.75-18.77,54.79,1.94,24.67,17.24,48.17,45.48,69.83a6.11,6.11,0,0,1,2.4,3.86,4.5,4.5,0,0,1-1.58,4.32c-7.31,6.24-38.45.44-92.56-17.24a11.5,11.5,0,0,1-7.4-7.34,11.28,11.28,0,0,1,1.42-10.11C94.63,288.82,101.24,283.58,110.79,278.23Z" style="fill:#fff"/><ellipse cx="114.31" cy="14.89" rx="12.77" ry="15.92" transform="translate(35.99 99.47) rotate(-54.63)" style="fill:#91a48d"/><path d="M117.36,29.78a19.19,19.19,0,0,1-11-3.66c-7.61-5.41-10.23-14.84-5.83-21s14.16-6.82,21.76-1.42a19,19,0,0,1,7.4,10.1,12.54,12.54,0,0,1-1.57,10.92A12.83,12.83,0,0,1,117.36,29.78ZM111.23,2a10.85,10.85,0,0,0-9.09,4.26c-3.76,5.29-1.35,13.47,5.35,18.23s15.23,4.34,19-.95a10.58,10.58,0,0,0,1.28-9.21,17,17,0,0,0-6.63-9A17.29,17.29,0,0,0,111.23,2Z" style="fill:#fff"/><ellipse cx="343.25" cy="107.42" rx="15.92" ry="12.77" transform="translate(-10.05 40.04) rotate(-6.58)" style="fill:#91a48d"/><path d="M342.44,121.24c-8.26,0-15.2-5-16-11.88-.87-7.54,6-14.54,15.24-15.61s17.51,4.19,18.38,11.74h0c.87,7.54-6,14.54-15.23,15.61A21.42,21.42,0,0,1,342.44,121.24Zm1.63-25.63a17.91,17.91,0,0,0-2.17.13c-8.17.94-14.21,7-13.47,13.39s8,10.92,16.17,10,14.22-7,13.48-13.4h0C357.4,99.85,351.32,95.61,344.07,95.61Z" style="fill:#fff"/><ellipse cx="225.81" cy="286.66" rx="12.77" ry="15.92" transform="translate(-138.69 304.01) rotate(-54.5)" style="fill:#91a48d"/><path d="M228.86,301.57a19.23,19.23,0,0,1-11.05-3.7c-7.59-5.42-10.19-14.86-5.78-21a12.56,12.56,0,0,1,9.8-5.06,19.83,19.83,0,0,1,19.35,13.81,12.53,12.53,0,0,1-1.6,10.9h0a12.53,12.53,0,0,1-9.8,5.06C229.48,301.56,229.17,301.57,228.86,301.57Zm-6.11-27.82-.81,0a10.6,10.6,0,0,0-8.28,4.22c-3.77,5.28-1.39,13.47,5.31,18.25a17.07,17.07,0,0,0,10.7,3.31,10.08,10.08,0,0,0,9.58-13.43,17,17,0,0,0-6.61-9A17.26,17.26,0,0,0,222.75,273.75Z" style="fill:#fff"/><ellipse cx="114.49" cy="160.02" rx="15.92" ry="12.77" transform="translate(-6.93 5.19) rotate(-2.52)" style="fill:#91a48d"/><path d="M114.17,173.79c-8.91,0-16.27-5.69-16.59-13-.33-7.59,7-14.09,16.3-14.5s17.18,5.42,17.51,13-7,14.09-16.3,14.5C114.78,173.79,114.47,173.79,114.17,173.79Zm.64-25.54c-.28,0-.56,0-.84,0-8.22.36-14.68,5.93-14.39,12.41s7.2,11.47,15.42,11.09,14.68-5.93,14.39-12.41h0C129.12,153.1,122.65,148.25,114.81,148.25Z" style="fill:#fff"/></g></g></svg>