<svg xmlns="http://www.w3.org/2000/svg" viewBox="0 0 327.24 486.55"><title>Spined-Devil</title><g id="a49be96b-6b7a-4c34-9bd7-80b9ab1db81b" data-name="Layer 2"><g id="be0d6ee6-495b-4775-b6ae-9d2389155f6c" data-name="Layer 1"><path d="M137.41,135.28l-6.19-16.85c1.42-1.8,2.89-3.6,4.4-5.33Z" style="fill:#5b1f47"/><path d="M142,129.54l-4.61-18.45a81.15,81.15,0,0,1,6.34-6.27c.48-.42,1-.9,1.49-1.41C145.92,109.32,147,123.68,142,129.54Z" style="fill:#5b1f47"/><path d="M75.92,281.26s-26.44,17.81-27-27.59c0,0-4,17.24-1.15,27,0,0-29.31-24.13-13.8-58l-8,8s-4.6-36.78,19.54-48.85L73,168l-23.56,8.05s33.91-32.76,56.32-33.34C82.09,143.36,53,157,34.25,170.25c-15.08,10.66-27.5,25.33-31.81,43.63-10.09,42.87,21.87,117.86,75.2,105.31C126.49,307.69,75.92,281.26,75.92,281.26Z" style="fill:#441837"/><path d="M171.48,319.61a40.53,40.53,0,0,0-9.93,9.92l-21.27,22.41s-12.06-19.54-24.13-4-22.42,42.54-22.42,42.54l-8,9.76,7.48-31.61,10.91-19.54s2.31-30.45-8-16.67c0,0-13.79,19-13.79,36.21L77.06,356S57,375.51,58.1,393.33c0,0-13.79-47.7-8.05-59.2s16.67-42.52,19.55-58.62,11.49-51.72,20.11-60.92c0,0,16.1-51.73,34.49-74.71l-8,.58A221.92,221.92,0,0,1,130,120l5.1,22.2s-6.9,10.34-6.9,19.54l1.72,8s-4,7.48-4.59,24.14l-5.76-1.14,4.61,17.81-7.47-2.3,15.5,19s13.23,35.05,29.32,58.61c0,0-6.32,10.35-1.72,19.54a47.43,47.43,0,0,0,10.92,14.38Z" style="fill:#5b1f47"/><path d="M315,228.39l-14.95-10.34s16.67,75.85.58,110.34c0,0-16.86,17.41-13.54,41.11-1.16-6.57-5.18-26.66-10-17-5.75,11.5,0,19-2.88,31s-14.36,12.06-14.36,12.06,5.74-20.11-.58-19.54c0,0-6.9,28.74-13.79,31l-9.77-15.52s2.87-19-6.9-10.91L215,404.24s-23.57-28.16-9.19-43.68l-6.9-20.68,2.87-7.48s-9.35-18.35-23.42-15.68c-1.34-4.21-5-17.16-.71-20.52,0,0,5.74,11.49,10.91,9.77,0,0-5.17-12.07-2.3-20.69,0,0,9.78,27.61,9.78,21.26,0-1.15-1.16-19.54,1.14-24.7,0,0,1.73,14.93,4.6,16.65,0,0-2.3-47.69,1.14-53.43,0,0-4.59-10.36,12.08-34.49a308.27,308.27,0,0,0,25.85-44.81l-10.34,8,17.82-23L237.42,160c.46-.71,17.73-27.2,11.48-42.52l-6.31,6.9s-1.15-20.11-7.48-27.58l-3.44,8S219,81.83,215.57,79c0,0,6.32,19,2.87,20.69l-17.24-9.2,5.18-6.89h-6.33l8-8.56c-.32.51-2.06,3.86,13.83-4.09,6.9-3.44,53.45-25.28,69-24.14,0,0-48.27,13.23-64.94,31,0,0-5.18,6.9,4.59,9.2l35.63-23.57-27,25.29,48.28-22.41L249.47,94.48l28.75-6.9L255.8,99.07s5.75,6.9,17.81,7.48c11.5.55,29.74,2.65,31.48,2.86-2.24-.11-32.38-1.41-40.67,6.33a19.6,19.6,0,0,1,6.32,10.34c1.73,6.9,7.48,27,47.7,47.71l-38.5-16.67,21.83,21.26-16.66-4.59,26.43,16.66-13.78-2.87L320.16,210l-19-10.93a24.37,24.37,0,0,0,8.05,17.82Z" style="fill:#5b1f47"/><path d="M188,235.85c-4.6,4.6,0,9.21,0,9.21S175.34,273.22,177.65,287c0,0-16.1-17.24-18.41-50.56,0,0-10.34-25.29-16.08-33.91,0,0,5.17-15.52,2.87-24.72a29.78,29.78,0,0,0,5.75-19.54s.58-8.62,4.59-13.22,12.66,8,12.66,8,3.44,9.76-5.76,17.81c0,0-16.66,18.39,27.59,21.85l12.64,5.16S192.58,231.26,188,235.85Z" style="fill:#5b1f47"/><path d="M248.9,117.46l-6.31,6.9s-1.15-20.11-7.48-27.58l-3.44,8S219,81.83,215.57,79c0,0,6.32,19,2.87,20.69l-17.24-9.2,5.18-6.89h-6.33l8-8.56,0-.06C220.74,60.57,269,45.05,269,45.05c-17.63-.53-60.61,20.8-66.56,23.79-.35.18-.57.3-.65.33l.54-.45,25.29-20.79L195.52,61.35,189.14,64l4.59-4.6,28.73-28.73L198.91,43.9,229.36,6.55,189.71,38.16,179.37,43.9l15.51-19.53L173,40.46l15.51-20.69c-.63.39-20.75,12.81-24.7,23.56,0,0-14.95,23.57-1.15-24.14a60.84,60.84,0,0,0-13.22,42l-5.17-4.6-1.72,29.31L138,85.29l6.9,15.51s.16,1,.35,2.61c.69,5.91,1.74,20.27-3.22,26.13l-4.61-18.45-2.86-11.44,1.08,13.45,1.79,22.18-6.19-16.85-4.15-11.31L130,120l5.1,22.2s-6.9,10.34-6.9,19.54l1.72,8s-4,7.48-4.59,24.14l-5.76-1.14,4.61,17.81-7.47-2.3,15.5,19s13.23,35.05,29.32,58.61c0,0-6.32,10.35-1.72,19.54a47.43,47.43,0,0,0,10.92,14.38l.73-.16a18.72,18.72,0,0,1,6.88-2.89c-1.34-4.21-5-17.16-.71-20.52,0,0,5.74,11.49,10.91,9.77,0,0-5.17-12.07-2.3-20.69,0,0,9.78,27.61,9.78,21.26,0-1.15-1.16-19.54,1.14-24.7,0,0,1.73,14.93,4.6,16.65,0,0-2.3-47.69,1.14-53.43,0,0-4.59-10.36,12.08-34.49a308.27,308.27,0,0,0,25.85-44.81l-10.34,8,17.82-23L237.42,160C237.88,159.27,255.15,132.78,248.9,117.46ZM188,235.85c-4.6,4.6,0,9.21,0,9.21S175.34,273.22,177.65,287c0,0-16.1-17.24-18.41-50.56,0,0-10.34-25.29-16.08-33.91,0,0,5.17-15.52,2.87-24.72a29.78,29.78,0,0,0,5.75-19.54s.58-8.62,4.59-13.22,12.66,8,12.66,8,3.44,9.76-5.76,17.81c0,0-16.66,18.39,27.59,21.85l12.64,5.16S192.58,231.26,188,235.85Z" style="fill:#b996c2"/><path d="M245.51,409l-10.43-16.57.06-.4c.62-4.15.67-10.47-1.19-11.52-.75-.43-2.1.1-3.8,1.48L215.68,406.7l-1-1.18c-1-1.17-23.55-28.53-9.59-44.63l-6.82-20.46,2.83-7.37c-1.42-2.55-9.48-16-20.8-14.88l0,.08.41,1.16-8.29,1.77a40,40,0,0,0-9.51,9.57l-.08.1-22.23,23.43-.74-1.19c-.06-.1-5.73-9.12-12.76-9.49-3.4-.18-6.6,1.69-9.61,5.56-11.83,15.21-22.15,42-22.25,42.25l-.07.16-11.11,13.5,8.65-36.41,10.8-19.34c.61-8.46-.05-18-2.21-18.8-.3-.12-1.43-.21-3.91,3.1-.13.18-13.58,18.88-13.58,35.56v5.5l-6.63-16.2C73,362.9,58.76,379.15,59.7,393.84l.64,9.9-2.76-9.54c-.56-2-13.84-48.24-8-60,1.56-3.12,3.51-7.7,5.67-13.31-14.58-3.5-27.68-13.87-37.94-30.05-14.6-23-20.8-53.84-15.43-76.66,5-21.3,20.3-35.82,32.24-44.26,17.5-12.37,46.91-27,72.15-27.7l0,2.17C88.94,144.86,64,165.58,54.54,174l18.68-6.38.83,2L46.46,183.38c-19.76,9.89-19.63,37.36-19.13,45.47L38,218.2l-2.5,5.47c-12.28,26.84,4.46,47.67,11,54.43-1.38-10,1.72-23.46,1.87-24.09l2-8.67.11,8.9c.18,14,2.81,23.18,7.83,27.4a11.24,11.24,0,0,0,8.9,2.46c.79-3.11,1.4-5.87,1.81-8.2,2.26-12.65,10.8-50.88,20.22-61.28,1.18-3.72,16-50,33.11-72.91l-7.68.55,1-1.77a223.71,223.71,0,0,1,13.63-20.18l-2.84-12.37,2.07-.61,3.5,9.51c1-1.21,2-2.39,2.93-3.52l-1.05-13,2.13-.35,2.38,9.51c1.74-1.83,3.43-3.47,5-4.89.34-.3.7-.63,1.07-1-.11-1-.21-1.63-.25-1.9l-7.62-17.14,5.35.67,1.79-30.38,4.92,4.37a61.21,61.21,0,0,1,13.62-40.16l3.15-3.52-1.31,4.54c-7,24.12-5.94,28-5.53,28.57.82-.17,3-2.57,4.67-5.21,4.19-11.12,24.26-23.48,25.12-24l4.81-2.94L178.84,35.81,201.3,19.25,184.12,40.9l5.51-3.06L237.09,0,203.86,40.76,229.3,26.49,195.75,60l.57.61,38.21-16-24.35,20c14.84-7.1,44.11-20.15,58.7-20.15h.69l6.28.19-6,1.92c-.47.16-46.55,15.08-59.79,28.87,1.41-.3,4.63-1.39,11.85-5,.51-.26,52.26-25.54,69.53-24.25l6.26.46-6.06,1.66c-.47.13-48.07,13.32-64.38,30.68-.22.31-1.63,2.44-.94,4.31.49,1.36,2,2.38,4.5,3l35.23-23.3,1.34,1.69L245.32,85.49l51.74-24L254.9,92.77,287.27,85,258.14,99.94a25.83,25.83,0,0,0,16.05,6.11c12,.57,31.49,2.85,31.68,2.88l-.18,2.15c-.31,0-29.68-1.5-39.08,5.27a21.23,21.23,0,0,1,5.7,10.06c4.33,17.32,20.2,33.14,47.15,47l-.93,2L285.43,161l20.64,20.1-13.67-3.77,25.32,16L301.6,190l25.64,25.63-24.36-14a24,24,0,0,0,7.63,15.11l.14.13,7.72,15.45-16.18-11.21c2.83,14,14.49,77.2-.06,108.37l-.08.16-.12.14c-.17.17-16.89,17.8-13.1,41.15a2.07,2.07,0,0,1,0,.22v0h0l-2.13.36c0-.09,0-.17,0-.25-2.06-12.43-4.85-19.39-6.43-19.63-.28,0-.94.45-1.72,2-3.12,6.26-2.69,11.33-2.24,16.69.36,4.29.74,8.73-.55,14.11-3,12.76-15.29,12.91-15.42,12.91h-1.43l.39-1.38c1.62-5.66,3.46-15.48,1.55-17.8a.92.92,0,0,0-.26-.23c-1.41,5.62-7.52,28.59-14.27,30.84Zm-8.18-17.05,9,14.36c4.48-3,9.87-19.58,12.35-29.89l.18-.75.77-.07a3.17,3.17,0,0,1,2.84,1.14c2.78,3.35.36,14.11-.72,18.26a13.88,13.88,0,0,0,11.87-11.11c1.2-5,.84-9.3.49-13.42-.48-5.68-.93-11,2.47-17.84,1.16-2.32,2.51-3.4,4-3.16,2.36.35,4.27,4.49,5.76,9.78,1.76-17.22,12.57-29.45,13.89-30.89,15.63-33.83-.56-108.74-.72-109.5l-.59-2.69,13.73,9.51-3.77-7.54a25.22,25.22,0,0,1-8.25-18.54l.11-1.75,13.39,7.72L295,186.36l11.47,2.39-27.56-17.37,19.67,5.42-23-22.43,27.06,11.72c-17.94-11.87-28.79-25-32.33-39.16a18.5,18.5,0,0,0-5.93-9.74l-1-.78.94-.88c4.31-4,13.93-5.7,22.85-6.37-4.51-.41-9.13-.77-13-1-12.41-.59-18.35-7.56-18.6-7.86l-.86-1,15.57-8-25.1,6,33.7-25L234,93.14,256.56,72,231.24,88.75l-.45-.11c-3.52-.83-5.7-2.35-6.49-4.52-1.13-3.12,1.17-6.25,1.27-6.38l.08-.09c11.09-11.85,35.47-21.55,51.16-26.88-19,5.28-46.25,17.86-53.91,21.69-12.48,6.25-14.38,5.76-15.26,4.72a1.86,1.86,0,0,1,.11-2.3C217.05,64.31,244.39,53.4,259.3,48,239,52.68,207.59,68.31,203.47,70.39l-.73.37-1.45-1.56L221.8,52.34l-26,10.88-3-3.25,23.93-23.92L195,48.21l27.69-33.95L190.76,39.68l-15.1,8.39L189.5,30.64,168.29,46.27l16.13-21.51c-6.32,4.46-16.43,12.45-19,19.52l-.1.21c-1.75,2.76-5,7.23-7.43,6.15-1.35-.61-3.77-1.69,2.69-25.33a60.63,60.63,0,0,0-9.46,36.34l.18,2.64-5.48-4.87-1.66,28.23-3.85-.48,6.2,14s.16,1,.35,2.65l.06.51-.36.37c-.55.57-1.06,1.05-1.55,1.48a78.47,78.47,0,0,0-6.25,6.19l-1.36,1.49-.17-.68.07.83-.3.34c-1.45,1.67-2.92,3.45-4.37,5.29l-.88,1.13h0l-.31.41c-5.88,7.65-10.68,15.24-12.73,18.58l8.43-.6-1.54,1.93c-18,22.56-34.13,73.84-34.29,74.35l-.08.24-.17.18c-8.45,9-17,44.57-19.84,60.37-.45,2.56-1.14,5.61-2,9.06L69,286l-.7.12a13.48,13.48,0,0,1-11.34-2.85c-4.23-3.55-6.92-10.12-8-19.59-.68,5.53-1,12.4.4,17.26l1,3.38-2.72-2.24c-.28-.24-27-22.7-16.07-54.39l-5.88,5.88-.27-2.19c-.05-.38-4.41-37.68,20.13-50l13.23-6.62-13,4.43,3.48-3.37c1.09-1,21.45-20.57,41.06-29.38C69.93,151,49,162.09,35.4,171.72,23.76,179.94,8.88,194.07,4,214.7c-5.17,22,1.06,52.79,15.15,75C26.3,301,38.65,315.19,57,319.09l1.23.26-.45,1.18c-2.36,6.2-4.51,11.27-6.2,14.66-4.28,8.57,3,38.94,6.42,52.18,2.89-15.91,18.13-30.88,18.86-31.6L78,354.66l4,9.79c2-15.88,13.17-31.39,13.69-32.1.91-1.22,3.66-4.89,6.41-3.85,4.68,1.76,3.93,16.7,3.59,21.23l0,.24-11,19.62-6.37,26.93,5-6c.9-2.31,11-27.81,22.51-42.64,3.47-4.46,7.32-6.61,11.43-6.39,6.58.35,11.79,6.69,13.7,9.36l20.29-21.39a41.51,41.51,0,0,1,10.2-10.15l.16-.11,6.3-1.35-.06-.19-.37-1.16,1.2-.23c14.7-2.8,24.2,15.49,24.59,16.27l.22.42-2.9,7.56,7,20.93-.43.47c-11.92,12.87,4.06,35.54,8.26,41l13.09-22.36.15-.12c2.6-2.14,4.75-2.74,6.4-1.81C238.6,380.65,237.69,389.35,237.33,391.94Z" style="fill:#fff"/><path d="M132.24,227.24s13.22,35.05,29.32,58.62a19.4,19.4,0,0,0-1,1.87L54.49,112.9a4.31,4.31,0,0,1,7.32-4.54l62.06,100.91.33,1.31-7.47-2.31Z" style="fill:#010007"/><path d="M262.86,430.56s4.86,16.9,26.13,56c-26.31-35.88-37.72-46.38-37.72-46.38-13.2,8.16-6.27,27.93-6.05,28.59-12.31-10.26-17.08-37.89-17.08-37.89,16,12,19.13-.31,19.13-.31L178.2,316.75l.16,0c-1.32-4.14-4.91-16.72-.92-20.34L255.9,424s13.24,4.29,9.21-15.25c0,0,23,16.1,27,31.61C292.12,440.33,276.08,421.94,262.86,430.56Z" style="fill:#010007"/></g></g></svg>