<svg xmlns="http://www.w3.org/2000/svg" viewBox="0 0 198.65 312.41"><title>Twig-Blight</title><g id="a30058b5-307d-44d5-a92f-8eeed1e571f8" data-name="Layer 2"><g id="e46e9208-f806-43b2-8ea7-a20b6f5386ba" data-name="Layer 1"><path d="M197.57,169l-2.8-16.13L169.49,202l-11.18,14.67c.79-2.25,27.31-77.23,25.22-85.53s-11.21-74.35-2.09-80.67l-3.52-14.73,3.52-18.24L166.69,34.33l2.8,16.84s-9.81,64.54-.69,77.16L156.16,162a100.13,100.13,0,0,0-5.6-46.3s1.4-32.28-4.21-42.09-4.2-40.69-4.2-40.69L131.63,15.4l2.8,58.91-6.32,47-14-14,9.12-37.18L102.86,7.68,99.34,34.33,109.87,68,97.94,111.48S83.21,95.35,88.13,75,74.81,5.56,74.81,5.56V26.61L78.3,67.3s-11.21,35.83-.69,43.55c0,0-12.64,1.35-15.44,11.16,0,0-7-47-8.41-74.35l-10.66,64L29.2,80.63s-3.52,51.9,3.51,72.26L13.07,122l2.8-26.66L1.14,127.64l18.93,28.05-2.8,28.77L30.6,225.15l.3-.44c2.66,17.48,10.28,37.51,25.72,60L69.94,310l26.65,1.4s18.25-39.29,28.08-41.38c5.5-1.18,11.65-10.05,16-17.64l.08.85s41.38-31.57,39.26-49.1S197.57,169,197.57,169ZM68.38,248.26c-29.73-13.41-22.67-31.21-22.67-31.21C75,216.39,68.38,248.26,68.38,248.26Zm24-.66s.71-38.6,34.37-30.17C126.71,217.43,130.23,239.88,92.34,247.6Z" style="fill:#997669"/><path d="M97.22,312.41l-27.9-1.47-13.56-25.7c-13.6-19.83-22.15-39.3-25.44-57.92l-.05.06-14-42.81L19,156,0,127.73,17.51,89.36l-3.41,32.4,16,25.12c-4.75-22.85-2-64.39-1.88-66.32l.27-4,14.19,31.68L54.29,38.4l.47,9.21C55.92,70.32,61,107,62.65,118.39c3.26-5.44,9.59-7.47,12.84-8.18-8.12-9.85.87-40,1.79-43l-3.47-40.5V0l1.93,5.21c.75,2,18.3,49.62,13.36,70.05-3.9,16.15,5.05,29.74,8.39,34.09L108.82,68,98.32,34.42l0-.22,4.1-31,21.78,66.88L115.17,107l12.22,12.21,6-44.91-3-62.79,12.72,21.19V33c0,.31-1.33,30.68,4.07,40.16,5.51,9.63,4.47,39.39,4.35,42.42A102.7,102.7,0,0,1,157.73,155l10-26.52c-8.6-13.55.15-73,.8-77.28L165.62,34l17.5-20L179,35.71l3.62,15.18-.56.39c-8.08,5.6-.1,69.18,2.49,79.61,1.83,7.27-16.51,61.05-23.16,80.14l7.3-9.58,26.6-51.67,3.41,19.61-.42.37C198,169.94,179,187.16,181,204c2.16,17.89-37.94,48.71-39.65,50l-.88.68C134.6,264.53,129.36,270,124.88,271c-7.67,1.63-22.36,30-27.38,40.82ZM70.56,309,96,310.34c2.91-6.18,18.85-39.28,28.5-41.33,4.05-.87,9.49-7,15.33-17.15l1.56-2.73.21,2.16c7.22-5.74,39.25-32.11,37.45-47.07-2-16.64,14.54-32.84,17.47-35.57L194.29,156l-24,46.6-15,19.74,2.12-6c9.42-26.61,26.8-78.62,25.2-85s-11.32-72.24-2.23-81.28L176.9,35.75l0-.21,2.82-14.62-12,13.71,2.75,16.54,0,.15c-.1.65-9.65,64.28-.87,76.42l.32.43-16.26,43.34,1.5-9.65a99.83,99.83,0,0,0-5.55-45.79l-.07-.19v-.21c0-.32,1.32-32.11-4.07-41.55S141,36.61,141.14,33.19l-8.33-13.87,2.62,55v.09l-6.59,49L113,107.59l9.19-37.45-18.88-58-2.91,22.06L110.91,68l-.08.28L98.42,113.5l-1.22-1.34c-.15-.17-15-16.76-10-37.37C91,59,80.34,24.8,75.81,11.43V26.61l3.5,40.8-.06.19c-.11.35-10.88,35.23-1,42.44l2.08,1.53-2.57.28c-.11,0-12,1.4-14.58,10.43l-1.27,4.44-.68-4.57c-.06-.42-5.71-38.46-7.85-65.82l-9.79,58.78L30,84.78c-.64,12.64-2.05,51.16,3.7,67.78l2.78,8.05L12,122.25l2.19-20.9L2.29,127.54,21.1,155.43l-2.81,28.92,12.63,38.57.59-.85.38,2.49c2.91,19.07,11.5,39.12,25.55,59.59l.06.1ZM69.1,249.68,68,249.17c-30.25-13.64-23.26-32.31-23.19-32.49l.24-.62h.67c8.43-.18,14.79,2.23,18.93,7.21,7.88,9.45,4.87,24.56,4.74,25.2ZM46.44,218c-.89,3.15-3.26,17.27,21.16,28.76.53-3.75,1.5-15.05-4.52-22.27-3.6-4.31-9.14-6.49-16.49-6.49Zm44.87,30.79,0-1.25c0-.77.48-19,12-27.78,6-4.63,14-5.75,23.62-3.34l.64.16.11.66c0,.23,3.22,23.48-35.16,31.3Zm26.4-31.6a21,21,0,0,0-13.15,4.16c-9.08,6.94-10.83,20.73-11.15,25,32-7,32.61-24.45,32.38-28.11A35.07,35.07,0,0,0,117.71,217.23Z" style="fill:#fff"/></g></g></svg>