<svg xmlns="http://www.w3.org/2000/svg" viewBox="0 0 316.56 389.07"><defs><style>.cls-1{fill:#9b8984;}.cls-2{fill:#fff;}</style></defs><g id="Layer_2" data-name="Layer 2"><g id="Layer_1-2" data-name="Layer 1"><path class="cls-1" d="M65.3,4C26.86,21.66,1.5,50.11,1.5,82c0,21,10.79,40.45,29.13,56.34a189.67,189.67,0,0,0-16.74,67.73c13.83.45,27,3.38,38.77,9.41,33.43,17.09,49.13,53.85,46.48,97.4,6.08,1.47,12.29,2.7,18.59,3.69a304.67,304.67,0,0,0-.39-40.32l15-1.19a318.93,318.93,0,0,1,.37,43.38q9.67.92,19.56,1.11V274.34h15v45.15q9.45-.3,19-1.22a319.39,319.39,0,0,1,.37-43.19l15,1.19a304.26,304.26,0,0,0-.41,40.18q8.82-1.29,17.59-3.09c-2.79-43.76,12.9-80.7,46.45-97.86,11.79-6,24.93-9,38.76-9.41a189.47,189.47,0,0,0-17.12-68.57c17.76-15.73,28.19-34.86,28.19-55.5,0-31.91-25.37-60.36-63.8-78,10.5,13.33,17,29.29,17,46.15,0,34.34-25.34,64-62,78.14l-4.94-11.5a97.16,97.16,0,0,0,24-13.65,74.68,74.68,0,0,0,19.23-21.84c-24-20.37-53.6-32.4-85.65-32.4C126.49,48.87,96.56,61.19,72.4,82a75.24,75.24,0,0,0,18.79,21.08A98.72,98.72,0,0,0,118.46,118l-4.93,11.47c-38.35-13.56-65.2-44-65.2-79.34,0-16.86,6.47-32.82,17-46.15Zm8.27,147.3a.09.09,0,0,1,.1,0c14.81,18.78,41.77,31.93,73.27,34.71-4.74,15.85-21.71,27.78-42.37,27.78-24.3,0-44.36-16.56-44.36-36.61,0-10,5-19.31,13-25.88.07.07.27,0,.4,0Zm170.25,0a.14.14,0,0,1,.11,0c8,6.58,13,15.85,13,25.88,0,20-20.06,36.61-44.36,36.61-20.65,0-37.62-11.93-42.36-27.78,31.49-2.78,58.45-15.93,73.26-34.71.09.07.26,0,.39,0ZM158.9,186.78c4.52,22.06,11.2,44.11,26.47,66.17a106.75,106.75,0,0,1-52.94,0c14.45-22.06,21.58-44.11,26.47-66.17ZM97.52,328a200.23,200.23,0,0,1-9.85,38.1,135.3,135.3,0,0,0,22.25,11.77c2.92-15.46,5.26-30.87,6.7-46.21-6.45-1-12.83-2.2-19.1-3.66Zm122.9.38c-6,1.21-12.06,2.26-18.11,3.13,1.43,15.26,3.74,30.58,6.63,45.95a135.91,135.91,0,0,0,21.28-11.36,200.41,200.41,0,0,1-9.8-37.72Zm-33,4.92q-10.05,1-20.09,1.27v52.84a127.12,127.12,0,0,0,27.33-4.83c-3.14-16.37-5.68-32.79-7.24-49.28Zm-55.82.19c-1.57,16.52-4.13,33-7.27,49.38a127.73,127.73,0,0,0,28,4.64V334.63q-10.42-.19-20.7-1.16Z"/><path class="cls-2" d="M153.75,389.07l-1.58-.08a129.55,129.55,0,0,1-28.3-4.7l-1.33-.38.26-1.35c3.43-17.86,5.8-34,7.26-49.23l.14-1.49,1.49.14c6.68.63,13.61,1,20.59,1.15l1.47,0ZM126,381.77a126,126,0,0,0,24.74,4.13V336.1c-6-.15-12-.49-17.85-1C131.47,349.63,129.21,364.92,126,381.77ZM165.78,389V333.1l1.46-.05c6.67-.2,13.4-.63,20-1.26l1.49-.15.15,1.5c1.44,15.25,3.8,31.32,7.21,49.14l.26,1.34L195,384a128.91,128.91,0,0,1-27.65,4.89Zm3-53v49.78a126,126,0,0,0,24.1-4.29c-3.19-16.8-5.43-32.06-6.86-46.58C180.33,335.43,174.54,335.8,168.78,336Zm-57.73,43.94-1.71-.7a137.66,137.66,0,0,1-22.49-11.91l-1-.65.41-1.11A199,199,0,0,0,96,327.75l.24-1.6,1.58.36c6.14,1.44,12.53,2.66,19,3.65l1.4.21-.13,1.41c-1.35,14.4-3.55,29.56-6.72,46.35ZM89.48,365.47a134,134,0,0,0,19.31,10.27c2.86-15.42,4.9-29.47,6.2-42.84-5.5-.86-10.95-1.91-16.24-3.1A201.31,201.31,0,0,1,89.48,365.47Zm118.33,14.08-.34-1.83c-3.14-16.67-5.31-31.75-6.66-46.09l-.13-1.42,1.41-.21c5.93-.84,12-1.89,18-3.11l1.54-.31.24,1.55a198,198,0,0,0,9.72,37.44l.4,1.11-1,.65a137.83,137.83,0,0,1-21.51,11.49Zm-3.87-46.78c1.29,13.29,3.3,27.25,6.13,42.55a136.1,136.1,0,0,0,18.33-9.85,202,202,0,0,1-9.21-35.33C214.08,331.14,209,332,203.94,332.77ZM153.75,321.1l-1.53,0c-6.71-.14-13.33-.52-19.67-1.12l-1.44-.13.08-1.44a315.4,315.4,0,0,0-.25-41.69l-12,1a304.24,304.24,0,0,1,.28,39l-.09,1.65-1.64-.25c-6.35-1-12.65-2.24-18.72-3.71l-1.22-.3.08-1.25c2.72-44.76-13.92-79.74-45.67-96-11.09-5.67-23.92-8.79-38.12-9.25l-1.55-.05.1-1.54a190.41,190.41,0,0,1,16.4-67.25C10,122.1,0,102.51,0,82,0,50.94,24.17,21.25,64.67,2.61L70.33,0,66.47,4.9C55.59,18.72,49.83,34.36,49.83,50.12c0,33.16,24.63,63.44,62.88,77.45l3.75-8.72a99.1,99.1,0,0,1-26.19-14.56A76.7,76.7,0,0,1,71.1,82.79l-.63-1.08,1-.82C96.85,59,127.11,47.37,158.94,47.37c31.42,0,61.37,11.33,86.62,32.76l.95.8L245.9,82a76.37,76.37,0,0,1-19.61,22.29,98.51,98.51,0,0,1-23,13.27l3.77,8.76c36.28-14.47,59.64-44.25,59.64-76.21,0-15.76-5.75-31.4-16.64-45.22L246.22,0l5.67,2.61C292.38,21.25,316.56,50.94,316.56,82c0,20.11-9.63,39.41-27.86,55.88A190.32,190.32,0,0,1,305.49,206l.09,1.54-1.54.05c-14.2.46-27,3.58-38.13,9.25-31.87,16.29-48.5,51.44-45.63,96.42l.08,1.3-1.28.27c-5.88,1.2-11.83,2.25-17.67,3.1l-1.63.24-.08-1.64a303.82,303.82,0,0,1,.29-38.88l-12-1a315.87,315.87,0,0,0-.27,41.5l.08,1.43-1.43.14c-6.33.61-12.74,1-19,1.23l-1.55.05v-45.2h-12Zm-19.49-4c5.35.47,10.89.79,16.49.94v-45.2h18v45.09c5.27-.19,10.6-.54,15.88-1a318.37,318.37,0,0,1,.46-42l.12-1.5,18,1.43-.12,1.5a299.77,299.77,0,0,0-.48,38.33c4.84-.74,9.73-1.6,14.59-2.57-2.54-45.61,14.67-81.28,47.35-98,11.08-5.67,23.81-8.87,37.84-9.52a186.62,186.62,0,0,0-16.88-66.5l-.47-1,.84-.74c18.1-16,27.68-34.85,27.68-54.38,0-28.49-21.39-55.87-57.52-74.08,9,13.11,13.68,27.58,13.68,42.18,0,16.93-6.08,33.39-17.58,47.6-11.14,13.77-26.81,24.81-45.33,31.94l-1.35.52-6.11-14.24,1.43-.57a95.81,95.81,0,0,0,23.66-13.44,73.65,73.65,0,0,0,18.22-20.32c-24.49-20.44-53.42-31.24-83.72-31.24-30.7,0-59.93,11.05-84.61,32a74.18,74.18,0,0,0,17.79,19.58A97,97,0,0,0,119,116.58l1.49.54-6.11,14.22-1.32-.47C72.81,116.65,46.83,85,46.83,50.12c0-14.6,4.71-29.07,13.69-42.18C24.38,26.15,3,53.53,3,82c0,19.9,9.89,39,28.62,55.2l.85.74L32,139a187,187,0,0,0-16.51,65.67c14,.65,26.76,3.85,37.85,9.52,32.56,16.64,49.78,52.16,47.37,97.56,5.08,1.2,10.32,2.24,15.61,3.11a298,298,0,0,0-.48-38.45l-.12-1.5,18-1.43.12,1.5A317.87,317.87,0,0,1,134.26,317.1Zm24.64-59.32A105,105,0,0,1,132,254.4l-2-.54,1.13-1.73c15.69-23.93,22.28-47.67,26.26-65.67l1.53-6.87,1.41,6.89c4,19.48,10.24,42.5,26.23,65.61l1.22,1.75-2.06.56A105.1,105.1,0,0,1,158.9,257.78ZM134.82,252a105.88,105.88,0,0,0,48.1,0c-13.69-20.39-20-40.59-24.08-58.36C154.76,210.46,148.16,231.09,134.82,252Zm77.71-36.72c-20.71,0-38.72-11.86-43.8-28.85l-.52-1.76,1.83-.16c30.48-2.7,57.48-15.46,72.21-34.15l.91-1.15.73.55a1.63,1.63,0,0,1,1.05.42c8.53,7,13.45,16.89,13.45,27C258.39,198.19,237.82,215.29,212.53,215.29Zm-40.35-28c5.39,14.78,21.69,25,40.35,25,23.64,0,42.86-15.75,42.86-35.11,0-8.86-4.19-17.55-11.55-24C228.76,171.6,202.19,184.26,172.18,187.33Zm-67.61,28c-25.28,0-45.86-17.1-45.86-38.11,0-10.1,4.93-20,13.51-27l1.12-.93.5.58a1.52,1.52,0,0,1,1,.56c14.76,18.7,41.75,31.47,72.24,34.17l1.83.16-.53,1.76C143.29,203.43,125.28,215.29,104.57,215.29Zm-31.3-62.1c-7.36,6.44-11.56,15.13-11.56,24,0,19.36,19.23,35.11,42.86,35.11,18.67,0,35-10.18,40.35-25C114.92,184.26,88.34,171.6,73.27,153.19Z"/></g></g></svg>