<svg xmlns="http://www.w3.org/2000/svg" viewBox="0 0 298.76 259.47"><title>Vine-Blight</title><g id="a127d222-bb77-4736-9997-b04267261b73" data-name="Layer 2"><g id="a209a8a2-c717-4ca1-8cb2-b21d878963c7" data-name="Layer 1"><path d="M260.27,96.47c-10.43-1.63-19.79-6.79-27.64-13.73-10.23-9.06-20.45-11.95-27.12-24-6-10.93-10.15-22.07-20.45-30.11C165.07,13,138.48,2.43,113.23,1.14A102.9,102.9,0,0,0,97,1.57c-1.78.19-3.55.42-5.31.71a72.11,72.11,0,0,0-24.11,8.19s-23,6-40,34C12.2,69.63-.4,123.3,1.12,136.2s2,32.06.26,46.13c-.95,7.45,9.08-16.55,13.73-38.68.89,4,12.58,18.23,2,41.5-10.31,22.64,9.4,48.06,10.46,49.39-10.77-21.32-3.48-34.49-3.48-34.49s12.17-21.25,4.64-50.42c-2.58-10.1-.54-26.78,3.27-44.24-.06,26.15,2.95,55.14,4,57.36,1.76,3.74,16.18,15.12,10.8,40.09s20.83,46.09,20.83,46.09c-15.11-18.57-10.8-33-10.8-33s7.33-23.36-6.23-50.26c-5.29-10.48-6.6-30.39-6.24-50.76.38.92.79,1.83,1.22,2.73,10.2,21.76,9.8,57,23.36,76.84,34.9,33.36,55,65.87,84.26,63.91s38.61-66.09,38.61-66.09l15.89-35.73A210.14,210.14,0,0,1,205.64,178c1.75-6.52,5-18.37,7.84-28.36,2.79,19.17,5.43,36.88,5.54,35.78l3.92-38.37c9.47-25.28-1.33-51.54-5.63-66.56,11.41,11.52,30.39,23.13,44.09,20.91,19.72-3.18,34.41,23.84,34.41,23.84C301.81,117.37,295.16,101.92,260.27,96.47ZM118.08,171.78c-23.83-7.25-31.95-31.38-31.95-31.38,18.86,1.36,30.61,15.91,36.26,25.26C124.15,168.57,121.23,172.76,118.08,171.78Zm7.82,50.62s24.76-29.57,47.86-5.22Zm49.48-53.34c-2.43,1.95-5.92-.49-5.13-3.59,2.48-9.95,8.81-26.47,24.38-34.49C194.63,131,193.7,154.27,175.38,169.06Z" style="fill:#345c5e"/><path d="M150.69,259.47c-21.13,0-37.73-17.66-58.53-39.78-7.44-7.92-15.14-16.11-23.92-24.5L68.1,195c-7.73-11.32-11-27.55-14.14-43.26-2.39-11.88-4.64-23.13-8.66-32.32-.11,22,2,37.41,6.18,45.76,13.59,26.95,6.37,50.77,6.29,51s-3.93,14.2,10.63,32.08l6,7.37-7.41-6c-.26-.22-26.62-21.79-21.17-47.08,4.32-20-4.44-31.15-8.64-36.49a18.23,18.23,0,0,1-2.09-3c-1-2.18-3.46-25.29-4-48.26-2.81,15.51-3.29,27.08-1.4,34.46,7.54,29.23-4.62,51-4.75,51.17s-6.86,13,3.51,33.54l4.39,8.69-6.06-7.62c-.88-1.09-21.23-27.08-10.59-50.42,8.5-18.67,2.32-31.4-.65-37.51,0-.1-.09-.19-.13-.28A224.51,224.51,0,0,1,8.2,171.39C3.31,185,2.08,184.82,1.33,184.7c-1.23-.21-1-1.76-.94-2.5,1.82-14.45,1.14-33.91-.27-45.88-1.5-12.84,10.93-66.71,26.52-92.39C43,17,65.2,10.1,67.15,9.54A73.43,73.43,0,0,1,91.47,1.3C93.22,1,95,.77,96.84.57A105.57,105.57,0,0,1,113.28.14C138,1.4,165.1,11.75,185.68,27.83c8.33,6.5,12.6,14.82,17.13,23.62,1.14,2.23,2.33,4.53,3.58,6.79,4.23,7.67,9.82,11.45,16.3,15.82A99.6,99.6,0,0,1,233.3,82c8.42,7.45,17.55,12,27.13,13.49,20.07,3.13,33.7,10.2,37.41,19.39a11,11,0,0,1-1.24,11l-.93,1.23-.74-1.36c-.15-.26-14.57-26.37-33.37-23.33-13.13,2.12-30.42-7.7-42.2-18.53.28.88.56,1.8.85,2.73,4.78,15.31,12,38.41,3.71,60.69l-4,39.12-.9.07c-1.05,0-1.05,0-2.85-11.79-.76-4.93-1.74-11.58-3-20.23-1.95,7-4.88,17.52-6.56,23.81l-2-.44c.64-3.6,1.21-8.91,1.69-15.81l-13.57,30.52c-.62,4.16-10.16,64.82-39.51,66.81C152.39,259.44,151.54,259.47,150.69,259.47Zm-81-65.65c8.79,8.4,16.49,16.58,23.93,24.5,21.27,22.62,38.06,40.48,59.5,39.07,28.15-1.91,37.59-64.61,37.69-65.25l.07-.26L209,151.15l-.31,5.46q-.27,4.69-.58,8.6c1.72-6.19,3.46-12.42,4.41-15.8l1.27-4.54.68,4.66c1.93,13.27,3.36,22.88,4.28,28.75L222,146.86l0-.12c8.12-21.67,1-44.44-3.7-59.51-.71-2.29-1.39-4.46-2-6.42l-1.07-3.75L218,79.83c11.71,11.83,30.32,22.7,43.22,20.63,17.72-2.85,31.16,17.18,34.6,22.89a9.09,9.09,0,0,0,.15-7.73c-1.63-4-8.38-13.87-35.87-18.16h0c-10-1.56-19.44-6.26-28.15-14a95,95,0,0,0-10.4-7.77c-6.41-4.33-12.46-8.43-16.93-16.51-1.27-2.29-2.46-4.6-3.61-6.84-4.42-8.61-8.6-16.73-16.58-23-20.27-15.83-46.91-26-71.27-27.26a102.83,102.83,0,0,0-16.13.42c-1.77.19-3.54.43-5.25.71A71.5,71.5,0,0,0,68,11.34l-.24.1C67.56,11.5,45,17.65,28.35,45,12.93,70.35.63,123.47,2.11,136.08c1.38,11.81,2,29.6.55,43.92,2.88-6.28,8.35-21.67,11.47-36.55l.95-4.51,1,4.5a18.81,18.81,0,0,0,1.26,2.92c3.1,6.38,9.56,19.68.67,39.21-6.63,14.53-.54,30.26,4.71,39.72-4.83-15.78.22-25.25.48-25.72.13-.22,11.88-21.28,4.55-49.7-2.32-9.09-1.23-24.13,3.26-44.7L33,96l0,9.37c-.06,26,2.95,54.87,3.91,56.93a16.94,16.94,0,0,0,1.85,2.58c4.39,5.58,13.54,17.18,9,38.16-3.33,15.44,5.92,29.52,13,37.7-8-14.33-5.11-24.61-5-25.13.08-.24,7-23.32-6.17-49.52-4.64-9.2-6.77-26.44-6.34-51.23l.09-4.89,1.84,4.53c.34.84.73,1.71,1.19,2.68,4.53,9.65,7,22.12,9.45,34.18C59,166.85,62.24,182.84,69.69,193.82Zm53.84,29.85,1.6-1.91c.5-.6,12.49-14.71,27.87-15.18,7.8-.25,15,3.09,21.49,9.91l1.39,1.47Zm30.25-15.11h-.71c-11.16.34-20.75,8.68-24.6,12.55l43.12-4.71C166.12,211.2,160.14,208.56,153.78,208.56ZM119,173.26a4.12,4.12,0,0,1-1.22-.19h0c-24.09-7.33-32.62-31.92-32.7-32.17l-.66-2,1.73.13c19.54,1.41,31.62,16.77,37.08,25.81a5.62,5.62,0,0,1,0,5.6A5.05,5.05,0,0,1,119,173.26ZM88,141.91c2.55,5.85,11.41,22.8,30.4,28.58h0a2.75,2.75,0,0,0,3.1-1.49,2.56,2.56,0,0,0,.06-2.54C116.46,158.09,105.5,144.07,88,141.91Zm85.52,29.19a4.36,4.36,0,0,1-2.88-1.17,4.92,4.92,0,0,1-1.39-4.85c2.4-9.62,8.85-27,25-35.33l1.6-.82-.09,2.11c0,1-1.17,24.14-19.74,39.13h0A3.92,3.92,0,0,1,173.47,171.1Zm19.86-37.95c-14.09,8.22-19.84,23.88-22,32.71a1.94,1.94,0,0,0,.61,1.95,2.19,2.19,0,0,0,2.88.14C189.12,156.37,192.54,139.24,193.33,133.15Z" style="fill:#fff"/></g></g></svg>