<svg xmlns="http://www.w3.org/2000/svg" viewBox="0 0 407.47 448.6"><title>Vrock</title><g id="f08ea0a1-8ae6-4daf-a6a5-85367112091d" data-name="Layer 2"><g id="a10f503d-e129-4153-80e9-3996da5a4f7a" data-name="Layer 1"><path d="M262.62,213a38,38,0,0,1-2.05-5.49c-46.11-69-12.24-143.87,6.17-175.2a16.15,16.15,0,0,0-8.42-23.39C174-21.71,83.61,46,83.61,46,107.07,39,93.74,53.4,93.74,53.4,64.43,51.27,33.51,85.92,33.51,85.92l20.79-9.6L31.91,107.25C14.07,116.16,6,138.5,5.81,139.2c26.1-29.81,12.77,10.68,12.77,10.68-27.71,30.38-11.19,73-11.19,73-14.92,14.92,1.06,51.17,1.06,52.77s-1.59,35.71-1.59,35.71,14.92,6.92,7.46,34.65,6.39,36.23,6.39,36.23C18.05,331.64,42,358.3,35.64,378s2.67,40.5,2.67,40.5A13.35,13.35,0,0,1,44,413.38c1-13.62,14.39-31.67,25.72-38,0,0,9.07-34.11,2.66-42.1,0,0,3.21-21.33-2.66-28.26,0,0,5.87-53.3,18.67-52.24l5.32,12.8s0-29.85,9.07-28.25c0,0,6.28,11.85,7,19.21,1.78-11.57,7.78-41,19.13-11.74,0,0,15.69-46.05,26.39-33.59,3.19,3.73,2.39,6.39,2.39,6.39s20-18.91,20-1.33c0,0,28-20.51,12,9.86,0,0,5.32,1.74,8.2,6,21.07-.74,35.06,6.58,35.5,6.82h.1a278.06,278.06,0,0,0,40.66.49C267,228.38,263.89,219.47,262.62,213Zm103.16,1.52c-5.65,1.58-12.09,5.36-10.85,14.3,10.66,2.13,8.51,10.13,8.51,10.13C371.54,231.18,368.46,220.41,365.78,214.47ZM353.33,256c-.64-.55-1.27-1.1-1.86-1.63-2,2-4.94,3.08-9,2.94,4.62,7.33,8.17,14.69,8.17,14.69C357.06,266.08,353.33,256,353.33,256Z" style="fill:#b8bcbb"/><path d="M240.33,367.35s1.6,4.28,13.86,9.07,15.46,24.52,15.46,24.52c7.46,1.06,5.85,17.58,5.85,17.58-4.18,32-27.45,14-28.23,13.34,13.31,32.49,36.77-1.08,36.77-1.08,4.25-5.32,0-26.65,0-26.65l13.85,10.67c9.07,30.39-18.11,29.31-18.11,29.31,27.71,16,31.44-28.25,31.44-28.25-13.33-17.58-14.39-29.31-14.39-29.31-.53-5.34-36.25-23.46-36.25-23.46a115.51,115.51,0,0,0-13.39-17.92l0,0c-.81-.68-1.35-1.11-1.47-1.22l.5.16a159.57,159.57,0,0,0-21.86-19.89c6.37-8.25,11.17-28.87,13.45-40.39v0c-3.08-5.74,2-11.82,2-11.82,5.86,5.86,14.39,0,14.39,0,7.45,5.86,14.92,0,14.92,0s1.6,2.13,17.05,33-.53,31.45-.53,31.45a5.63,5.63,0,0,0,4.81,2.24c.25,0,.48,0,.73,0a13.4,13.4,0,0,0,1.82-.28l.67-.17a20.84,20.84,0,0,0,2.74-1c.24-.09.47-.19.69-.29.47-.21.94-.43,1.4-.66l.78-.41c1.41-.74,2.77-1.57,4-2.38l.63-.42c2.33-1.55,4.27-3,5.32-3.9,4.27-8.82,12-17.84,25.41-16.72l13.86-3.73c2.13,38.38,8,37.31,8,37.31-5.87-12.26,2.66-22.39,2.66-22.39l.53-21.32c8.54-11.2,20.27,4.79,20.27,4.79l2.12,9.6-8.53,3.21,9.07,1.59c11.19,13.33-4.79,14.92-4.79,14.92,13.32,6.92,18.11-5.87,18.11-5.87l-2.66-14.39c9.07-13.32,6.92,10.67,6.92,10.67,12.26-14.39,2.68-19.18,2.68-19.18-2.68-12.8-18.67-16-18.67-16s-21.32-17.05-28.77-6.39c-4.7,6.72-14.25,11.94-22.14,14.63-4.65,1.58-8.74,2.29-10.92,1.89-5.85-1.06-17.58,1.07-17.58,1.07,4.26-5.33-13.33-19.71-13.33-19.71l-1.06-25.06c17.58-1.08,36.25-14.93,36.25-14.93,3-1.62,7.2,2.12,11.21,7.4,1.58,2.08,3.14,4.39,4.59,6.7,4.05.14,6.95-1,9-2.94-21.56-19.38-11.46-33-11.46-33,9.05,10.12,14.92,7.46,14.92,7.46-1.23-8.94,5.2-12.72,10.85-14.3a33,33,0,0,0-2.33-4.35c2.73-7.74,2.08-13.42.28-17.48-5.59,3.42-7.76,12.22-7.76,12.22l-14.36-10.2c-15.46,2.13-14.39-3.74-14.39-3.74h0a7.1,7.1,0,0,0-1-.2,5.91,5.91,0,0,0-2.39.14,5.41,5.41,0,0,0-1.54.62h0a6.35,6.35,0,0,0-1.09.8h0l-.34.32a16.15,16.15,0,0,0-3.46,6.16c-.07.2-.14.4-.2.6a43,43,0,0,0-1.15,4.41L315.8,205c0,.08,0,.16,0,.24-.23,1.26-.42,2.54-.58,3.81,0,.28-.07.55-.1.83a110.23,110.23,0,0,0-.65,14.09h0a8.68,8.68,0,0,1-.45.92l0,.06c-.12.22-.25.44-.39.65a14.15,14.15,0,0,1-1.41,1.9c-.21.24-.44.49-.67.72l-.12.12q-.37.38-.78.72c-.2.18-.41.36-.62.52s-.3.25-.45.36-.41.31-.62.46l-.33.23-.8.53c-.34.22-.69.43-1.06.64l-.92.5c-.45.25-.92.48-1.4.7s-.72.34-1.09.5l-.21.09-1.12.46c-.74.3-1.5.58-2.29.84l-.36.12-1.24.4c-1,.3-2,.59-3,.86l-1.46.35q-1,.24-2,.45l-1.06.22-.68.13-1.46.27c-1.19.21-2.4.4-3.62.58-.62.08-1.23.17-1.85.24l-1.48.19c-.67.08-1.35.16-2,.22l-1.09.11c-.73.08-1.46.14-2.19.2l-1.1.09-.87.06a276.05,276.05,0,0,1-40.75-.49c-34.65,8-23.46,46.91-23.46,46.91-10.66,5.49-12.12,19-11.6,28.81,4.2-2.32,4,8.25,3.62,13.81a6.13,6.13,0,0,1-3.59,5.21,8.4,8.4,0,0,1-9.77-1.55,2.32,2.32,0,0,1,.3-3.55,18.76,18.76,0,0,0,2-1.71c-6.81,2.8-9.9,9.88-11.16,14,1.23-1.63,1.91-2.77,1.91-2.77.53,2.66,12.79,6.39,12.79,6.39l16.74,6.7a5.74,5.74,0,0,1,3.32,3.38,0,0,0,0,1,0,0C218,361.18,240.33,367.35,240.33,367.35Zm98.16-167c10.46,0,7,10.11,7,10.11C330.12,211.82,338.49,200.31,338.49,200.31Z" style="fill:#353b59"/><path d="M337.9,250.56c-.56,1.82-1,3.74-1.49,5.75-2.05,9.39-2.83,20.35-3.08,29-.22,7.55-.05,13.28,0,14.63-4.65,1.58-8.74,2.29-10.92,1.89-5.85-1.06-17.58,1.07-17.58,1.07,4.26-5.33-13.32-19.71-13.32-19.71l-1.07-25.06c17.59-1.08,36.25-14.93,36.25-14.93C329.71,241.54,333.89,245.29,337.9,250.56Z" style="fill:#959695"/><path d="M393.37,66.46,355.56,183.7c-15.43-4.65-28.34,7.22-28.34,7.22-13.88-3.72-12.8,33.06-12.8,33.06-4.48,10.19-22.4,14.12-40.27,15.42-7.14-11-10.25-19.93-11.52-26.45,2.17,4.54,5.77,8.4,9.14-4.43,5.34-20.26,6.94-24.52,6.94-24.52V157.88s37.53-103.13,102.2-107.3A12.19,12.19,0,0,1,393.37,66.46Z" style="fill:#959695"/><path d="M334.67,312.46s-1.93,27.59-6.31,55.39c-2.55,16.1-5.92,32.27-10.21,43.22,0,0-4.18-28-6.62-51.92-1.33-13.31-2.15-25.38-1.38-30.71,0,0-.31.27-.89.74C313.53,320.36,321.23,311.35,334.67,312.46Z" style="fill:#959695"/><path d="M363.73,192.64c-5.59,3.42-7.77,12.22-7.77,12.22l-14.36-10.2c-15.45,2.13-21-2-21-2s9.19-17.79,34.94-9l-.1.3A17.65,17.65,0,0,1,363.73,192.64Z" style="fill:#b8bcbb"/><path d="M209.94,285.81c-10.67,5.49-12.12,19-11.61,28.81a4.35,4.35,0,0,0-.39.23s-2.05,7.21-7,12c-6.81,2.8-9.89,9.88-11.16,14-3.68,4.87-12.35,14.14-23.14,10.56-14.39-4.79-35.72-12.26-35.72-12.26s-34.12,31.45-34.12,49a50.26,50.26,0,0,0,12.61,20.66,9,9,0,0,1,1.08,11.76l-3.56,4.89-1.15-1.88a15.23,15.23,0,0,0-16.43-6.8l-29.86,7.08s.53-7.73,6.94-9.6c0,0-6.32-3.6-12.4-.88,1-13.62,14.39-31.67,25.72-38,0,0,12.8,4.26,20.8-22.92s19.71-30.37,19.71-30.37c35.18-.54,49.57-40,49.57-40s-11.73-2.67-28.24,11.72c-16.13,14.06-41.94,23-43.13,23.44.76-.47,11.4-7,25.54-24,23.75-28.51,66.63-30.91,66.63-30.91,20.67-15.28,21-24.83,17.26-30.27,21.07-.74,35.06,6.58,35.5,6.82C198.74,246.9,209.94,285.81,209.94,285.81Z" style="fill:#353b59"/><path d="M281.9,329c-5.21,3.66-26.82,17.55-35.72,15.09a159.87,159.87,0,0,0-21.85-19.89c6.37-8.25,11.16-28.87,13.45-40.39,1.48,2.75,4.85,5.45,11.6,7.34C270.17,297,287.22,325.25,281.9,329Z" style="fill:#1c2033"/><path d="M257.38,412.67l.8,4.52s-19.45-6.12-15.72,2.95c0,0-16.26,5-16.26-2.95,0-4.52-4-4.71-7.73-5.32L195,410.54l12.8-5.34,1.06-5.86s-12.26-21.86-17.05-21.86c-1.44,0-3.1-2.47-4.29-6.1-2.29-6.94-2.9-18.07,2.68-24,.22-.23.45-.47.69-.69l3.55-2.6c12.14-1.82,16,3.81,18.81,7.87a11.71,11.71,0,0,1,1.3,2.6c-3.07.06-14.6,1.23-10.29,16.59a47.54,47.54,0,0,0,2.74,7.14s5.59,8,22.92,24.26c0,0,22.39.89,25-1.34,7.72-1.33,10.85,1.37,13.33,8.54-13.06-4-18.13-2.13-18.13-2.13S255.72,410.38,257.38,412.67Z" style="fill:#1c2033"/><path d="M290.9,448.6c-3.56,0-7.45-1.21-11.63-3.63l-3.49-2,4,.16c.11,0,10.42.31,15.73-6.54,3.7-4.77,4.19-11.89,1.48-21.18l-11.54-8.88c1,6.07,3,20.33-.67,24.9-.44.64-11.94,16.84-23.84,15.54-6-.66-10.9-5.61-14.63-14.71l-1.46-3.57,3,2.41c.1.08,9.82,7.75,17.46,4.67,4.83-1.94,7.9-7.78,9.16-17.36.41-4.29.33-15.7-5-16.46l-.73-.1-.12-.73c0-.19-3.25-19.22-14.83-23.75-10.34-4-13.36-7.76-14.17-9.13-3.21-.77-21.46-5.4-26.54-12.35-1.36,0-5.46.21-7.6,3.27-2.48,3.55-1.66,10,2.37,18.64.57.79,6.46,8.74,22.47,23.77,10.72.41,22.53.11,24-1.11l.2-.17.27,0c8.85-1.52,12.09,2.38,14.44,9.19l.64,1.86-1.88-.58c-7.3-2.24-12-2.59-14.72-2.5a17.89,17.89,0,0,1,4.89,3.89l.14.19,1.12,6.37-1.57-.49c-4.65-1.47-12.72-3-14.55-1-.48.52-.46,1.41,0,2.66l.42,1-1.05.32c-1.14.35-11.29,3.34-15.61.14a4.81,4.81,0,0,1-1.93-4c0-3.13-2.15-3.61-5.94-4.19l-.9-.14-27.75-1.57,16.3-6.81.91-5c-5-8.84-13.14-21-16-21-3,0-5.81-6-7-12-1.54-7.83-.62-17.2,6.09-21.41-2.9-1.21-7.26-3.25-9.23-5.24-2.87,4.16-12.76,16.68-25.39,12.48-12.92-4.31-31.66-10.85-35.15-12.07C117.22,344,88,372.1,87.81,388a49.85,49.85,0,0,0,12.3,20.09,9.94,9.94,0,0,1,1.19,13.06l-4.43,6.09-1.94-3.15a14.2,14.2,0,0,0-15.35-6.34L48.4,425.15l.1-1.36c0-.3.52-6.65,5.44-9.54-3.33-1.19-10.09-2.41-14.79,4.82l-1,1.55-.74-1.7c-.38-.86-9.15-21.35-2.71-41.21,2.88-8.87-.76-19-4.63-22.37-.92-.8-2.31-1.62-3.67-1s-5.89,4.72-4.68,27.84l.1,1.9-1.62-1c-.59-.37-14.4-9.23-6.83-37.35C20.48,319.29,7,312.57,6.43,312.3l-.6-.29,0-.66c.55-11.8,1.6-34.43,1.6-35.67,0-.16-.4-1.2-.79-2.31-3.23-9.27-13-37.28-.43-50.71-1.87-5.36-14.35-44.8,11.46-73.29,2.38-7.31,4.71-18.57,2.24-20-.66-.37-3.57-.73-13.38,10.47L3.29,143.6l1.57-4.71c.08-.23,8.14-23.16,26.38-32.43l20-27.63-21.69,10,3.2-3.59C34,83.83,64,50.64,93.32,52.37c1.77-2,3.8-5.24,3-6.47-.33-.53-2.2-2-12.45,1l-5.35,1.58L83,45.15A268,268,0,0,1,139,15c30.39-12,75.83-23,119.7-7.08a17.16,17.16,0,0,1,8.95,24.84c-17.25,29.35-52.38,105.06-6.2,174.13l.09.13,0,.16c1,3.66,3.34,9.06,5.13,9.06h0c.47,0,2.18-.59,4.12-8,4.79-18.15,6.56-23.46,6.91-24.44V157.71l.06-.17a280.42,280.42,0,0,1,27-52.3c23-34.69,49.36-53.93,76.12-55.66a13.33,13.33,0,0,1,11.34,5.07,13,13,0,0,1,2.14,12.12L356.67,183.5c3.11,1.76,13.73,9.2,7.88,26.49,1.72,2.84,10.74,19-.41,29.63l-2.58,2.46.92-3.44a6.91,6.91,0,0,0-.84-4.94c-1.2-1.9-3.43-3.21-6.64-3.9-1.41.44-7,1.41-14.82-6.83-1.83,3.58-5.73,15.73,13.8,32.21l.2.18.09.24c.16.44,3.88,10.83-2.94,17.09l-.92.85-.62-1.09c-.07-.11-5.81-10.21-11.87-18.46-2.89,10.6-3.88,25.16-3,43.3,6.55-2.32,15.14-6.09,19.68-12.59a8.91,8.91,0,0,1,6.27-3.81c9.12-1.32,22,8.46,23.77,9.85,2.1.47,16.24,4.07,19.11,16.29a8.2,8.2,0,0,1,3.5,5.21c.85,4.21-1.27,9.34-6.3,15.25l-2,2.4.28-3.13c.54-6,.12-13.06-1.35-13.59,0,0-1-.31-3.51,3.24L397,330.66l-.1.26c-.08.24-2.21,5.78-7.57,7.83-3.51,1.35-7.53.87-11.94-1.42l-3-1.54,3.33-.34c.06,0,6.16-.67,7.58-4.17.88-2.19-.2-5.16-3.22-8.84l-12.31-2.16L381,316.09l-1.9-8.54c-.89-1.16-6.54-8.15-12.25-8.2h-.05c-2.24,0-4.27,1.12-6,3.33L360.18,324l-.23.27c-.33.39-8,9.8-2.52,21.31l.56,1.18-1.29.24a2.1,2.1,0,0,1-1.65-.56c-2.55-2-5.89-10-7.45-36.39L336,313.89c-.58,7.14-5.88,69.47-16.91,97.54l-1.37,3.48-.55-3.69c-.39-2.64-9.24-62.05-8.22-80.51-3.94,3.07-13.2,9.63-19.54,8.91a6.35,6.35,0,0,1-4.58-2.58l-1.12-1.53,1.9-.06a6.54,6.54,0,0,0,5-3.24c2-3.37,2.67-10.76-5.34-26.77-11.48-23-15.3-30-16.48-32.08-2.3,1.38-8.46,4.22-14.66-.2-2.07,1.19-8.86,4.53-14.17.28-1,1.56-2.93,5.07-1.85,8.57s5,6.31,11.54,8.16c17.41,4.91,32.52,25.5,34.09,34.78.5,2.92-.41,4.25-1.26,4.85-14.69,10.32-25.41,15.52-32,15.52,3.15,3.37,8.85,10.13,10.93,17.08,6.84,3.48,35.85,18.56,36.4,24.05,0,.12,1.23,11.71,14.19,28.81l.23.3,0,.39c-.08,1-2.2,24.53-14.62,31A14.32,14.32,0,0,1,290.9,448.6Zm-7.4-3.72c5,2.16,9.42,2.27,13.16.32,10.65-5.57,13.2-26,13.52-29.05-13.12-17.43-14.31-29-14.35-29.51-.3-3-18.39-13.87-35.71-22.65l-.39-.2-.12-.43c-2.55-9.22-12.55-18.67-12.65-18.77l-3.66-3.43,4.7,1.77c3.66,1.37,12.41-.07,33.3-14.75.56-.39.72-1.44.47-2.9-1.5-8.84-16-28.47-32.66-33.19-7.25-2-11.6-5.24-12.91-9.51-1.76-5.71,2.64-11.05,2.83-11.27l.7-.84.78.77c5.19,5.19,12.79.11,13.11-.11l.61-.42.58.45c6.72,5.29,13.4.22,13.68,0l.81-.62.61.81c.07.09,1.83,2.55,17.15,33.19,6.77,13.54,8.54,23.21,5.25,28.73A8.55,8.55,0,0,1,287.7,337a4.93,4.93,0,0,0,1.93.62c7.19.81,19.74-9.85,19.87-10l2-1.72-.37,2.63c-1.79,12.55,5.32,63.8,7.43,78.43,10.6-31,15.43-93.3,15.48-93.95l.05-.67,15.35-5,.07,1.3c.94,16.86,2.61,25.92,4.08,30.78a23.87,23.87,0,0,1,4.6-16.15l.53-21.32.2-.26c2.21-2.9,4.84-4.37,7.81-4.37h.09c7.19.06,13.68,8.8,14,9.18l.12.17,2.37,10.65-5.93,2.23,5.83,1,.23.28c3.71,4.42,5,8.17,3.77,11.16-1.08,2.64-3.85,4-6.08,4.72a10.89,10.89,0,0,0,7.52.13c3.94-1.52,5.87-5.42,6.31-6.43L392.25,316l.23-.34c1.53-2.24,3.82-5.14,6.08-4.33,2.83,1,3.05,7.85,2.87,12.43,3.14-4.29,4.49-8.07,3.9-11a6,6,0,0,0-2.88-4.12l-.42-.22-.1-.47c-2.52-12-17.73-15.2-17.89-15.23l-.23,0-.19-.15c-.14-.11-13.69-10.84-22.43-9.58a6.91,6.91,0,0,0-4.91,3c-5.18,7.4-15,11.4-21.93,13.77l-1.28.44,0-1.35c0-.27,0-.69-.06-1.25-1-19.53.21-35,3.59-46l.57-1.86,1.18,1.54a211.87,211.87,0,0,1,12.55,19.13c4.17-4.94,2.07-12.35,1.61-13.77-24.14-20.52-13.38-35.66-13.27-35.81l.73-1,.82.92c8.35,9.33,13.73,7.23,13.78,7.2l.28-.12.31.06c3.94.78,6.7,2.43,8.23,4.88a8.55,8.55,0,0,1,1.21,3.48c7.86-10.5-1.84-25.32-1.94-25.48l-.28-.41.16-.47c6.53-18.57-6.86-24.62-7.43-24.87l-.84-.36.28-.86L392.42,66.15a11,11,0,0,0-1.82-10.27,11.29,11.29,0,0,0-9.63-4.3c-33,2.12-58.77,31-74.58,54.77a279.17,279.17,0,0,0-26.68,51.71v26.12l-.07.17c0,.05-1.66,4.53-6.9,24.43-1.7,6.45-3.62,9.46-6.05,9.47h0c-3.85,0-6.43-8.3-7-10.37-20.1-30.13-27.23-64.55-21.18-102.29,4.94-30.9,17.63-57.21,27.4-73.83a15.15,15.15,0,0,0-7.9-22C214.69-5.88,169.77,5,139.7,16.87a275.48,275.48,0,0,0-51,26.76c5.19-1.05,8.21-.65,9.37,1.21,1.9,3.07-2.64,8.24-3.57,9.24l-.33.35-.48,0C71,52.77,47,73.88,38,82.76l19.39-9L32.58,108l-.22.11C20,114.3,12.47,127,9,134.25c5.71-5.85,9.55-8,11.92-6.6,4.83,2.76-.31,19.26-1.39,22.55l-.07.2-.14.16c-27,29.55-11.17,71.57-11,72l.24.61-.46.46c-8.2,8.19-8,24.71.46,49.09a13.21,13.21,0,0,1,.9,3c0,1.5-1.35,30.34-1.57,35.13,2.86,1.69,14.21,10.16,7.4,35.49-5.59,20.77,1,30.43,4.32,33.74-.61-15.8,1.42-25.27,5.9-27.46,1.83-.89,3.91-.45,5.87,1.25,4.85,4.22,8.19,15.32,5.21,24.5-5.17,16,.06,32.85,2,38.12,7.39-9.15,18.23-3.12,18.35-3.05l2,1.16-2.27.66c-4.14,1.21-5.54,5.19-6,7.33l28.41-6.74a16.2,16.2,0,0,1,17.51,7.24l.38.61L99.68,420a7.94,7.94,0,0,0-1-10.46,50.9,50.9,0,0,1-12.87-21.12l0-.26c0-17.82,33-48.48,34.44-49.78l.44-.41.57.2c.21.08,21.48,7.52,35.7,12.26,13.46,4.49,23.77-12.71,23.87-12.89l1.33-2.25.51,2.57c.26,1.27,5.91,4.22,11,6.19l2.35.9-2.33,1c-7.43,3-8.45,12.42-6.92,20.2,1.32,6.72,4,10.38,5,10.38,5.12,0,15.83,18.64,17.93,22.37l.17.32-1.22,6.74-9.28,3.87,19.21,1.1.94.15c3.4.51,7.64,1.16,7.64,6.16a2.81,2.81,0,0,0,1.12,2.44c2.69,2,9.45.74,12.85-.17a3.76,3.76,0,0,1,.68-3.72c2.72-3,11.2-1,15.05,0l-.47-2.69c-1.38-1.69-5.28-3.86-6.71-4.58l-2.06-1,2.16-.8c.21-.08,5-1.76,16.84,1.54-2.32-5.54-5.29-7-11.3-6-3.57,2.13-21.77,1.52-25.48,1.37h-.37l-.27-.25c-17.21-16.14-22.83-24.08-23.06-24.42l-.08-.14c-4.46-9.51-5.2-16.49-2.23-20.73,3.25-4.63,9.59-4.11,9.85-4.09l.49,0,.27.42c4.52,7,25.85,12,26.06,12l.53.12.19.5s1.8,4,13.28,8.49,15.26,21,16,24.61c7.5,2,6.05,17.83,6,18.52-1.35,10.37-4.85,16.75-10.39,19-6,2.41-12.68-.64-16.46-2.91,3.19,6.32,7.06,9.78,11.55,10.27,10.76,1.18,21.91-14.59,22-14.75,3.3-4.12,1-20.08-.16-25.88l-.52-2.61,16.22,12.48.1.31c3,10.1,2.43,17.94-1.74,23.3C293.27,442.75,287.35,444.36,283.5,444.88ZM71.7,376.6a7.28,7.28,0,0,1-2.26-.3l-.89-.29.24-.91c2.48-9.36,7.84-35,2.85-41.22l-.28-.35.07-.43c0-.21,3.07-21-2.44-27.46l-.28-.33.05-.43c.61-5.55,6.36-54.26,19.74-53.12l.61.05,3.77,9.06c.35-7,1.62-19.66,6.12-23.44a4.66,4.66,0,0,1,4-1.11l.48.08.23.43a89.31,89.31,0,0,1,6,14.36c1.87-9.73,4.91-19.45,9.69-20,3.18-.38,6.23,3.08,9.49,10.74,2.92-8,12.45-32.09,21.37-33.81,2.15-.42,4.11.38,5.83,2.38a10.93,10.93,0,0,1,2.57,4.86c3.54-3,11.64-9.29,16.51-7.21,2,.86,3.16,2.94,3.47,6.19,3.82-2.63,12.43-7.92,15.76-5.05,2.39,2.06,1.35,7.24-3.28,16.26,2.5,1.07,8.45,4.24,9.46,10.5,1.23,7.58-5.28,16.69-19.34,27.08l-.24.17-.3,0c-.42,0-42.72,2.71-65.91,30.55A142.7,142.7,0,0,1,95.1,313.64c9-3.66,24.7-10.9,35.83-20.6,16.71-14.56,28.63-12.07,29.13-12l1.1.25-.39,1.07c-.14.4-15,40-50.34,40.64-1.12.4-11.62,4.8-18.92,29.66C88,364.48,83.27,372,77.31,375.14A12.16,12.16,0,0,1,71.7,376.6Zm-.71-2a9.7,9.7,0,0,0,5.47-1.24c3.73-2,9-7.27,13.13-21.18,8-27.4,19.91-30.92,20.41-31.06l.25,0c30.68-.47,45.42-31.63,48.17-38.15-3.33-.19-13.27.39-26.18,11.64-16.35,14.26-42.35,23.25-43.45,23.63L80.56,321l7.38-4.61c1.93-1.21,12.09-7.93,25.3-23.77,22.7-27.25,63.1-30.95,67-31.25,13-9.69,19.39-18.32,18.32-25s-9.13-9.33-9.21-9.35l-1.12-.37.55-1.05c6-11.47,5-14.18,4.26-14.8-2-1.73-9.85,2.59-14.78,6.21l-1.59,1.16v-2c0-3.46-.79-5.55-2.34-6.22-4.07-1.75-12.91,5.38-16,8.28l-2.72,2.57,1.08-3.59c0-.07.54-2.25-2.2-5.45-1.23-1.43-2.52-2-3.93-1.72-7.75,1.49-17.6,25.76-20.75,35l-.88,2.6-1-2.56c-4.15-10.72-7-12.08-8.39-11.92-3.26.35-6.64,9.34-8.82,23.45l-1.22,7.92-.76-8c-.6-6.27-5.48-16.11-6.63-18.37a2.85,2.85,0,0,0-1.89.72c-4.54,3.81-5.54,20.49-5.54,26.59v5l-7-16.8c-9.27.7-15.31,36.4-17,50.94,5.34,7,3.09,25.22,2.67,28.3C79.06,341.06,72.47,368.73,71,374.57Zm123.4-39a9.4,9.4,0,0,1-6.48-2.73,3.27,3.27,0,0,1-1-2.63,3.35,3.35,0,0,1,1.4-2.47c6.06-4.25,8.64-13.05,8.66-13.14l.1-.34.29-.21a2.91,2.91,0,0,1,3.26-.43c.79.45,3.21,1.83,2.32,14.89a7.18,7.18,0,0,1-4.17,6.07A11,11,0,0,1,194.39,335.55Zm4.4-20.05c-.57,1.82-3.34,9.67-9.32,13.86a1.33,1.33,0,0,0-.56,1,1.27,1.27,0,0,0,.38,1,7.39,7.39,0,0,0,8.68,1.36,5.18,5.18,0,0,0,3-4.36h0c.59-8.72-.34-12.46-1.32-13C199.42,315.21,199.09,315.33,198.79,315.5Z" style="fill:#fff"/></g></g></svg>