<svg xmlns="http://www.w3.org/2000/svg" viewBox="0 0 160.72 359.03"><defs><style>.warl-1{fill:#df0b13;stroke:#fff;stroke-miterlimit:10;stroke-width:3px;}</style></defs><title>Warlock</title><g id="Layer_2" data-name="Layer 2"><g id="Layer_1-2" data-name="Layer 1"><path class="warl-1" d="M80.16,99.2c5.2,1.31,9.1,9,15.37,2.16,10.42,8.93,21.11,17.42,34.22,16.7L142.37,131c-22.06,10.86-39.14,31.19-63.49,42.21-5-4-9.89-11.56-19.49-11.23a3.25,3.25,0,0,1-1.87-.94c-13-10.75-26-21.51-38.28-31.71l10.18-9.12-1.54-2.06c15.17.64,26.4-7.19,36.84-16.65C70.92,107.76,74.94,101.09,80.16,99.2ZM82.76,149l-4.46,0c-1-5.93-3.46-12.11-2.54-17.73,1.46-9-5.51-7-9.32-8.85-4.37-2.16-7.13-.43-8.56,4.44-2.65,9,.29,19.18,7.7,24.93a24.27,24.27,0,0,0,28,.92c7.86-5.3,11.9-15.28,9.29-24.27-.72-2.49-3.2-6.57-4.44-6.41-4.66.57-9.17,2.54-13.66,4.19-.37.13-.17,1.77-.26,2.71Q83.66,139,82.76,149Z"/><path class="warl-1" d="M80.23,358.89C74.68,302.77,78.52,246,65.91,190.58c9.48-5.3,18.72-5,28.64-.22C82,245.74,85.81,302.69,80.23,358.89Z"/><path class="warl-1" d="M78.89.19c.43,9.19,3.32,23,4.65,35.25,1.54,14.2,3.5,26.81,5.77,40.93C90.37,83,85.09,88.29,78.52,86.53c-5.24-1.39-8.88-3-7.59-10.86C75.2,49.67,75.87,23.45,78.89.19Z"/><path class="warl-1" d="M125.59,265.93C116.77,243.65,108,221.36,99,198.69l15.6-8.07c4.2,25.62,8.22,50.19,12.24,74.76Z"/><path class="warl-1" d="M33.66,265.44c4-24.54,8-49.09,12.22-74.75l15.65,7.9L34.78,266.18Z"/><path class="warl-1" d="M34.8,175.62c4,4.7,4.26,8.28,0,12.9-11,11.92-21.37,24.39-32.55,37.27C5.9,201.7,15.32,187.29,34.8,175.62Z"/><path class="warl-1" d="M124.08,174.35c22.62,15,29.59,25.74,34.21,51.56-12.12-14-23.77-27-34.77-40.54C122,183.54,123.74,179.1,124.08,174.35Z"/><path class="warl-1" d="M139.85,66.31c-.74,2.25-1.84,4.46-2.18,6.77C135.52,88,127.33,95.56,110.29,94.16Z"/><path class="warl-1" d="M21.3,68,50.77,94.17C31.24,94.61,26.86,90.21,21.3,68Z"/></g></g></svg>
