<svg xmlns="http://www.w3.org/2000/svg" viewBox="0 0 401.23 267.64"><title>White-Dragon</title><g id="ff97a3c4-d945-4a49-9329-0d2cc2f3e960" data-name="Layer 2"><g id="b4a630cc-826c-48fe-84cf-45d5026d051b" data-name="Layer 1"><path d="M383.71,85.05l4.07-24.44-22.4-11.19C305.31,94.23,318.23,68.5,318.23,68.5c2-69,51.12-56.47,52.89-56C330.38-18,265.29,21.66,265.29,21.66c-9.19-8.14-21.39,5.12-21.39,5.12l-5.12-7.15c-18.3-4.07-72.29,30.57-72.29,30.57C138,72.57,135.94,38,135.94,38L124.76,59.35l-6.13-9.15L102.35,70.54l-36,10.65C43.93,87.8,24.13,101.59,11,120.91-4.35,143.47,2.56,153,2.56,153c23.43-23.42,27.49-3,27.49-3l13.22-13.26L55.51,151l5.08-13.25c22.41-7.12,28.51,16.3,28.51,16.3l9.18-9.18,9.16,12.24,8.13-14.27s19.36,1,37.69-9.16c18-10-5.08,11.19-15.28,23.43s-50.91,15.28-50.91,15.28l-9.16-15.28-5.08,14.26L40.22,181.54l-7.12-6.1L27,186.63l-11.21-6.1C4.6,228.39,39.21,231.44,39.21,231.44c-1-48.88,46.84-17.32,46.84-17.32,7.12-18.31,30.54,18.34,30.54,18.34l14.27-18.34,3,37.69,14.27-25.46,5.08,31.56,11.19-25.45L172.62,265l13.22-22.37L189.91,264l8.16-16.27L213.33,262V245.71l19.35,12.2,2-19.35L250,245.71V231.44c9.87-8.62,17.86-6.52,30.12-7.57L288,210a70.21,70.21,0,0,0,74-43.7l14.56-42.51,16.31-7.12L400,91.18ZM123.8,105.18s-3-13.25,4.07-14.27,16.3-11.19,16.3-11.19,11.19-9.18,27.49,5.09C171.66,84.81,174.71,120.43,123.8,105.18Z" style="fill:#e2d7c3"/><path d="M172.24,267.64l-8.05-32.11-11.37,25.89-5.17-32.07-14.47,25.81-3.11-38.4-13.56,17.43-.76-1.2c-4.24-6.63-16.84-23.67-24.26-23-1.94.19-3.42,1.65-4.51,4.46l-.45,1.15-1-.68c-.23-.15-23.19-15.09-36.21-7.9-6.29,3.48-9.35,11.68-9.08,24.37l0,1.11-1.11-.09a30.06,30.06,0,0,1-20.19-11.95c-6.78-9.36-8.16-22.89-4.12-40.19l.3-1.28,11.49,6.25,6.22-11.39,7.63,6.55,31.6-9.86,5.63-15.8,9.92,16.57c5.11-.45,40.49-3.93,49.61-14.88,2.82-3.37,6.59-7.41,10.23-11.31,4.27-4.56,9.95-10.63,11.23-12.94a28.1,28.1,0,0,0-4.92,2.35c-16.54,9.17-34.11,9.36-37.6,9.29l-8.6,15.08-9.37-12.54-9.6,9.6-.45-1.68c0-.11-2.77-10.27-10.93-14.77-4.49-2.47-9.82-2.8-15.85-1l-5.51,14.37L43.22,138.21,29.44,152l-.37-1.83c0-.05-1.22-5.75-5.73-7.11-4.72-1.42-11.66,2.27-20.07,10.67l-.83.83-.69-.95c-.3-.41-7.14-10.4,8.42-33.27C23.12,101.29,43,87,66,80.23l35.75-10.56L118.7,48.51l6,8.89,12.08-23.09.21,3.59c0,.15.95,14.38,9,18,4.94,2.22,11.65,0,20-6.48,2.29-1.48,54.63-34.86,73.13-30.76l.38.08L244,25.24c3-2.83,13.12-11.32,21.36-4.8A174.73,174.73,0,0,1,302.65,4.68c28.27-8.08,52.15-5.66,69.07,7l4,3-4.87-1.24C369,13,351.89,9,338,19.52c-11.74,8.86-18,25.35-18.73,49v.22l-.1.2c-.68,1.36-1.7,4.48-.52,5.46,1.64,1.38,9.43,1.62,46.17-25.79l.49-.37L388.89,60,384.83,84.4l16.4,6.16-7.5,26.8-16.33,7.13L363,166.58a71.24,71.24,0,0,1-66.15,44.94,70.35,70.35,0,0,1-8.29-.49l-7.79,13.79-.53.05c-2.73.23-5.2.31-7.6.38-8,.25-14.32.45-21.61,6.65v15.38l-15.44-7.22-2.05,19.55-19.18-12.09v16.76l-16-14.9-8.89,17.72-4.13-21.65Zm-7.53-38.26L173,262.43l13.33-22.56,4,21.06,7.44-14.83,14.55,13.58V243.89l19.53,12.32,2-19.15L249,244.14V231l.35-.3c8-7,14.69-7.17,23.2-7.44,2.21-.07,4.49-.14,7-.33l7.93-14,.67.08a69.21,69.21,0,0,0,73-43.08L375.79,123l16.27-7.1,6.75-24.12-16.22-6.1,4.08-24.52L365.48,50.59C324,81.51,319,77.32,317.32,75.94c-2.49-2.08-.61-6.56-.08-7.68.74-24.19,7.31-41.12,19.52-50.34,10.75-8.1,23.25-8.05,30-7.24-39.9-24.75-100.29,11.45-100.91,11.83l-.63.39-.56-.49c-8.35-7.39-19.87,4.92-20,5l-.84.91-5.6-7.83C220.15,17.15,167.56,50.7,167,51c-8.87,7-16.28,9.22-21.94,6.67-6.61-3-9-11.65-9.75-16.44l-10.48,20-6.31-9.42L102.94,71.41,66.59,82.15C44,88.83,24.52,102.8,11.83,121.47,0,138.86,1.71,148.3,2.85,151.35c8.64-8.38,15.73-11.81,21.08-10.19,3.94,1.2,5.81,4.77,6.6,6.93l12.8-12.83,11.85,13.82,4.65-12.14.46-.14c6.77-2.15,12.79-1.82,17.89,1,6.94,3.83,10.21,11.14,11.38,14.39l8.83-8.84,8.93,11.93L115,141.81l.62,0c.19,0,19.29.87,37.15-9,5.59-3.11,7.07-3.16,7.85-2.17,1.28,1.64-1.24,4.66-11.73,15.88-3.62,3.88-7.37,7.89-10.15,11.23-10.33,12.38-49.93,15.51-51.61,15.64l-.61.05-8.39-14L73.6,172.18,40,182.66,33.39,177l-6,11-10.93-6c-3.55,16.1-2.18,28.63,4.08,37.28a28.48,28.48,0,0,0,17.64,11c-.06-12.83,3.35-21.23,10.14-25,12.61-7,32.53,4.43,37.27,7.35,1.36-2.83,3.27-4.38,5.7-4.62,8.92-.9,22,17.72,25.36,22.71l15-19.26,3,37,14.07-25.1,5,31ZM146.05,110c-6.44,0-14-1.29-22.54-3.86L123,106l-.13-.57c-.09-.36-2-8.76,1-13.05a5.58,5.58,0,0,1,3.94-2.43c6.67-1,15.61-10.77,15.7-10.87l.11-.1c.11-.1,12-9.55,28.78,5.1l.3.27,0,.4c0,.5.94,12.34-8.12,19.7C160,108.13,153.79,110,146.05,110Zm-21.39-5.6c17.9,5.27,30.89,4.76,38.62-1.52,7.37-6,7.47-15.54,7.4-17.59-14.77-12.7-25-5.42-25.83-4.82-.88,1-9.67,10.41-16.84,11.44a3.57,3.57,0,0,0-2.57,1.59C123.56,96.22,124.16,101.83,124.66,104.39Z" style="fill:#fff"/><circle cx="145.79" cy="95.54" r="5.99" style="fill:#7c7c7c"/></g></g></svg>