<svg xmlns="http://www.w3.org/2000/svg" viewBox="0 0 212.65 314.82"><defs><style>.wiza-1{fill:#df0b13;}.wiza-2{fill:#fff;}</style></defs><title>Wizard</title><g id="Layer_2" data-name="Layer 2"><g id="Layer_1-2" data-name="Layer 1"><path class="wiza-1" d="M206.28,116.91a5.87,5.87,0,0,1,2.45-1.11c4.39-.76,2.78,5.25,1.85,7.46-2.49,5.89-5.83,11.42-8.47,17.25-8.64,19.06-17.13,38.2-25.63,57.33-1.25,2.81-1.61,6.2-3.4,8.55a27.85,27.85,0,0,1-8.6,7.7c-10.66,5.62-21.83,10.26-32.35,16.1-6.8,3.78-12.81,9-20,14.16,4.87,2.45,6.63,4.41,3.82,9.85-3.52,6.81-6.62,13.43-11.56,19.62-8.67,10.85-11.49,24.12-9.56,39.93-4.69-.28-9.13.49-12.69-.93-24.54-9.76-48.91-20-73.31-30.09-2-.82-3.82-1.94-6.93-3.53,12.09-9,17.56-21.44,22.68-34.15.55-1.38,2.85-2.55,4.52-2.89,7.72-1.59,13.4-5.65,16.32-13,1.7-4.27,4.15-5,8.22-3.2a52.3,52.3,0,0,0,9.54,2.69c7.54,1.67,12.54-1.64,15.48-8.87A16,16,0,0,1,90.2,209.47c13.41-3.7,26.58-7.84,34.12-22.2,6.1-11.6,14.83-21.89,22.94-32.35,2.38-3.06,6.51-4.9,10.08-6.85,1.16-.64,3.77-.44,4.48.41s.71,3.28.16,4.67c-2.66,6.76-5.63,13.39-8.43,20.09a5,5,0,0,0-.09,3.32c6.56-9.37,14.09-18,13.15-31-.34-4.67,2.28-9.92,4.61-14.34,4-7.49,7.86-15.13,14.2-21.86a4.39,4.39,0,0,1,7.54,2.44l-1.8,6.56c2.58-3.81,4.14-8.16,6.23-12.23,1.51-2.92,4.7-9.38,8.71-9a2.76,2.76,0,0,1,2.18,4c-3.38,7-7.78,15.88-10.81,22.15a.93.93,0,0,0,1.4,1.16l3.73-3.81A32.13,32.13,0,0,1,206.28,116.91Z"/><path class="wiza-2" d="M96,314.82l-1.2-.07c-1.49-.09-3-.07-4.42-.05-3.08,0-6,.08-8.58-.95-20-7.94-40.1-16.31-59.6-24.4l-13.73-5.7c-1.32-.55-2.57-1.22-4.15-2.06-.84-.45-1.76-.94-2.84-1.5L0,279.36l1.29-1c11.58-8.64,17-20.39,22.34-33.73.78-1.92,3.63-3.16,5.25-3.49,7.81-1.61,12.91-5.66,15.59-12.41.92-2.3,2.11-3.73,3.62-4.36S51.55,224,54,225a47.82,47.82,0,0,0,8.63,2.48l.73.16c6.77,1.49,11.46-1.21,14.33-8.27A17.06,17.06,0,0,1,89.93,208.5c14.65-4,26.41-8.19,33.51-21.69,5.11-9.73,12.11-18.62,18.88-27.21,1.39-1.76,2.78-3.52,4.15-5.29,2.13-2.74,5.43-4.48,8.62-6.17l1.77-.95c1.49-.82,4.66-.64,5.73.65s.9,4.23.33,5.68c-1.71,4.31-3.56,8.64-5.35,12.82-1,2.25-1.92,4.49-2.87,6.74l.2-.27c5.92-8.24,11.52-16,10.71-27.14-.35-4.82,2.15-10,4.73-14.88l.59-1.12c3.76-7.11,7.65-14.46,13.77-20.95a5.39,5.39,0,0,1,9.18,2.54l.57-1.24c.65-1.42,1.32-2.89,2.05-4.31l.14-.26c1.74-3.4,5-9.72,9.55-9.31A3.64,3.64,0,0,1,209.06,98a3.81,3.81,0,0,1,.12,3.55c-1.5,3.09-3.2,6.56-4.9,10-2,4.18-4.07,8.33-5.73,11.75l3.34-3.41c.34-.35.68-.73,1-1.12a19,19,0,0,1,2.77-2.68h0a6.63,6.63,0,0,1,2.87-1.29,3.18,3.18,0,0,1,3.31,1c1.9,2.39-.28,7.61-.37,7.83-1.38,3.26-3,6.45-4.63,9.53-1.31,2.52-2.66,5.13-3.85,7.74-8.57,18.92-17.14,38.22-25.43,56.89l-.19.44a27.29,27.29,0,0,0-1.12,3.23,17.13,17.13,0,0,1-2.4,5.52,29,29,0,0,1-8.94,8c-4.79,2.53-9.76,4.89-14.56,7.18-5.89,2.81-12,5.71-17.76,8.92a114.53,114.53,0,0,0-13.34,9.19c-1.7,1.29-3.46,2.62-5.28,4,2,1.16,3.48,2.37,4,4.07s.18,3.67-1.21,6.37q-.7,1.35-1.38,2.7c-3.06,6-5.94,11.64-10.29,17.08-8.24,10.33-11.3,23.14-9.35,39.19ZM3.74,279l1.47.78a44.22,44.22,0,0,0,4,2l13.73,5.7c19.49,8.09,39.64,16.46,59.57,24.39,2.21.89,4.93.85,7.82.81,1.09,0,2.22,0,3.37,0-1.73-16.06,1.51-29,9.91-39.5,4.22-5.29,7.06-10.86,10.07-16.75q.68-1.35,1.38-2.7c1.11-2.16,1.46-3.7,1.09-4.84-.46-1.41-2.12-2.49-4.47-3.66l-1.48-.74,1.35-1c2.28-1.64,4.45-3.28,6.54-4.88a116.15,116.15,0,0,1,13.57-9.34c5.84-3.24,12-6.16,17.88-9,4.79-2.28,9.73-4.64,14.49-7.15a26.87,26.87,0,0,0,8.28-7.42,15.16,15.16,0,0,0,2.07-4.88,29.59,29.59,0,0,1,1.21-3.46l.19-.44c8.29-18.68,16.86-38,25.44-56.91,1.21-2.66,2.57-5.29,3.89-7.83,1.58-3,3.22-6.2,4.57-9.39.88-2.09,1.35-4.92.65-5.81-.09-.11-.37-.45-1.41-.27a4.73,4.73,0,0,0-2,.93h0a17.49,17.49,0,0,0-2.47,2.41c-.36.41-.72.81-1.08,1.18l-3.85,3.91a1.93,1.93,0,0,1-2.9-2.39c1.68-3.49,3.79-7.8,5.92-12.14l4.89-10a1.81,1.81,0,0,0-.06-1.69,1.64,1.64,0,0,0-1.31-.86c-3.23-.27-6.29,5.68-7.59,8.23l-.14.26c-.71,1.38-1.37,2.83-2,4.23A55.27,55.27,0,0,1,192,119l-3.4,5,3.35-12.21a3.39,3.39,0,0,0-5.79-1.69c-5.93,6.29-9.75,13.52-13.45,20.52l-.59,1.12c-2.45,4.63-4.82,9.5-4.5,13.8.85,11.85-5.21,20.28-11.08,28.44-.76,1.05-1.51,2.1-2.26,3.16l-1.21,1.73-.57-2a6,6,0,0,1,.14-4c1-2.44,2.06-4.87,3.1-7.3,1.79-4.17,3.64-8.49,5.32-12.77.48-1.21.48-3.1,0-3.67a4.08,4.08,0,0,0-3.22-.18c-.59.33-1.2.65-1.81,1-3,1.59-6.11,3.23-8,5.63-1.37,1.77-2.76,3.53-4.15,5.3-6.72,8.52-13.67,17.33-18.69,26.9-8.06,15.34-22.86,19.42-34.75,22.69a15,15,0,0,0-10.9,9.71c-3.25,8-8.84,11.19-16.61,9.47l-.73-.16a49.16,49.16,0,0,1-9-2.59c-1.94-.84-3.32-1-4.36-.6s-1.82,1.47-2.53,3.25c-2.9,7.32-8.64,11.9-17,13.63-1.64.33-3.45,1.42-3.79,2.28C20.19,258.56,14.87,270.2,3.74,279Z"/><path class="wiza-1" d="M119,149.25c-1-2.71-3.3-5.62-2.9-8.09,1.44-8.78,2.61-17.93,6.06-26,5.65-13.25,7.4-30.28-8.21-38.83C107.76,73,102,68.8,95.79,65.55c-6.43-3.34-9.13-9.29-10.27-15.44-2.32-12.51-2.88-25.19,5.78-36C98,5.65,107.58,2.23,117.82,1.29,125,.64,132,.83,138.88,4.92c14.82,8.81,16,33.65,3.91,46-4.83,5-15.38,6.12-22.32,2.69s-10.79-8.86-9.32-15.75a20.93,20.93,0,0,1,6.16-10.39c1.72-1.56,6-1.43,8.55-.51,1.48.54,1.86,4.16,3,7.18-9.41-2.51-11.86-1.34-12.15,4.45-.2,4.12,2,6.16,5.56,5.47,4.91-1,10-2.26,14.32-4.72,5.7-3.27,3.46-19.16-2.68-22.06-8.72-4.12-25.77-1.13-32.21,5.94a17.74,17.74,0,0,0-4.25,7.3c-2.41,9.87,4.26,26.53,12.87,32.18,9.29,6.09,19.41,12,22.1,23.42,3.23,13.73,5.17,28.17-6,40-4.45,4.69-6.52,9.5-5,16,.48,2.09-.61,4.54-1,6.82Z"/><path class="wiza-2" d="M118.36,150.43l-.32-.82a26.33,26.33,0,0,0-1.18-2.5c-1-2-2.1-4.09-1.77-6.11.17-1,.33-2.07.5-3.12,1.24-7.8,2.53-15.88,5.62-23.12,3.46-8.11,9.64-28-7.77-37.56-2.87-1.57-5.69-3.33-8.4-5-3.15-2-6.4-4-9.71-5.73-5.81-3-9.34-8.31-10.8-16.15-2.18-11.78-3.17-25.36,6-36.84C96.7,5.71,105.6,1.41,117.73.3c6.89-.64,14.3-.62,21.66,3.76C146,8,150.52,15.43,151.7,24.42c1.34,10.23-1.8,20.65-8.19,27.21-5.09,5.21-16.06,6.56-23.48,2.88-7.85-3.88-11.35-9.87-9.85-16.84a21.78,21.78,0,0,1,6.46-10.93c2.14-1.94,6.92-1.66,9.56-.71,1.48.53,2,2.51,2.68,4.79.29,1,.58,2,1,3l.72,1.84-1.91-.51c-5.21-1.39-8.14-1.58-9.48-.6-.87.63-1.3,1.91-1.41,4.13a4.65,4.65,0,0,0,1.18,3.86,3.72,3.72,0,0,0,3.18.57c4.53-.89,9.73-2.13,14-4.6,1.89-1.09,2.93-4.18,2.76-8.26-.22-5.52-2.53-10.69-5.38-12-8.44-4-25-.94-31,5.71a16.82,16.82,0,0,0-4,6.87c-2.3,9.42,4.22,25.7,12.45,31.1l1.8,1.18c8.91,5.8,18.11,11.8,20.72,22.85,3.13,13.29,5.49,28.49-6.24,40.86-4.66,4.91-6.08,9.42-4.77,15.07a11,11,0,0,1-.49,5.11,20.49,20.49,0,0,0-.47,2.09l-.11.65ZM123.45,2c-1.87,0-3.72.12-5.54.29-11.55,1.06-20,5.12-25.83,12.41C83.44,25.52,84.29,38,86.5,49.92c1.33,7.2,4.52,12,9.75,14.75,3.39,1.76,6.67,3.82,9.85,5.8,2.69,1.69,5.48,3.44,8.3,5,18.85,10.33,12.32,31.48,8.65,40.1-3,7-4.26,15-5.49,22.65-.16,1-.33,2.09-.5,3.13-.22,1.36.69,3.14,1.58,4.87.31.61.64,1.24.92,1.87h0c.12-.55.26-1.09.39-1.62a9.4,9.4,0,0,0,.48-4.16c-1.46-6.3.16-11.51,5.27-16.89,11-11.65,8.76-26.25,5.74-39-2.42-10.28-11.29-16-19.86-21.64l-1.81-1.18c-9-5.88-15.8-23-13.29-33.25A19.17,19.17,0,0,1,101,22.56c6.66-7.31,24.13-10.54,33.37-6.18,4.19,2,6.32,8.52,6.53,13.76.2,4.91-1.18,8.59-3.77,10.07-4.54,2.62-9.95,3.91-14.63,4.84a5.56,5.56,0,0,1-4.88-1c-1.34-1.16-2-3.05-1.87-5.47.1-1.94.44-4.34,2.23-5.64s4.45-1.35,9.38-.18c-.14-.46-.27-.91-.4-1.36-.37-1.31-.93-3.27-1.44-3.46-2.38-.85-6.19-.91-7.54.31a20,20,0,0,0-5.85,9.86c-1.65,7.69,3.87,12.21,8.79,14.64,6.61,3.27,16.69,2.08,21.15-2.49,6-6.13,8.91-15.92,7.64-25.55-1.1-8.38-5.23-15.27-11.35-18.9A28.12,28.12,0,0,0,123.45,2Z"/><path class="wiza-1" d="M85.78,208.14c4.18-13.95,12.65-19.9,39.32-28.71C118.38,198.13,101.43,202.19,85.78,208.14Z"/><path class="wiza-2" d="M84.24,209.79l.59-1.94c4.21-14.08,12.81-20.4,40-29.37l1.95-.64-.7,1.93c-6.11,17-20.56,22.25-34.53,27.32q-2.7,1-5.37,2Zm39.16-28.74c-23.8,8-31.9,13.66-36,25.42l3.45-1.26C104.4,200.29,117.25,195.62,123.4,181.05Z"/></g></g></svg>
