<svg xmlns="http://www.w3.org/2000/svg" viewBox="0 0 303.98 419.8"><title>Yochlol</title><g id="e6f3b032-f8dd-4b01-a535-3bab6255b64e" data-name="Layer 2"><g id="ef2a44cc-1c27-4404-a586-869a6cff6f49" data-name="Layer 1"><path d="M279.18,321.35a3.8,3.8,0,0,1,4.05,1.82,7,7,0,0,1-2.34,9.87l-1.22.73a7.11,7.11,0,0,0-3.34,4.87l-.77,4.51c0,.25-.1.48-.16.71-1.52,5.72-9.58,6.1-12,.67l-6.95-15.88a11.78,11.78,0,0,0-9.37-7l-34.44-4.25-22.53,8.45-14.08-34.92C171,270.1,174.38,238,174.38,238l-3.95-12.39,14.84-61.38a3.64,3.64,0,0,1,6.07-1.76l11.18,10.85a13.43,13.43,0,0,1,4,8.95c1.83,34.42,38.29,41.09,38.29,41.09l14.63-9,3.95,16.34c14.08,11.26,12.95,32.1,12.95,32.1-9.57,23.09-19.15,16.89-19.15,16.89-2.74-1.1.95-17.25,1.12-18a31.41,31.41,0,0,0-7.82,14.12,9.13,9.13,0,0,0,12.1,10.59c22.2-8.11,22.2-26.42,22.2-26.42-10.88-19.5-14.1-44.83-14.94-54a6.16,6.16,0,0,0-2.05-4.16,6,6,0,0,0-8,.15l-10.46,9.71a6,6,0,0,1-5.63,1.42c-19.31-5.09-22.18-27-22.29-38.64a12.43,12.43,0,0,1,6.19-10.86l5.85-3.39a26,26,0,0,0,12.94-22.67c-.09-25.26-5-31.34-5-31.34s17.46,4.5,13.52,15.2,4.5,18.59,4.5,18.59c-7.87,5.64-3.37,10.71-3.37,10.71,8.89-11.86,23.83-3.37,27.38-1.08-1.84-1.44-7-6.5-16.68-23.14-12.39-21.41,6.76-13,6.76-13-7.89-28.73,10.13-34.36,10.13-34.36,15.78,28.17,9.58,25.91,9.58,25.91-25.91,10.14-9.58,26.47-9.58,26.47-6.76-28.16,19.15-19.15,19.15-19.15l-5.06-41.68c-36-39.5-52.33-25.47-57.9-17a22.64,22.64,0,0,1-13.22,9.4,129.7,129.7,0,0,1-17.31,3.06c-2.33-.42-3.62,2.08-4.33,5.38a26.48,26.48,0,0,0,3.4,19.28c8.22,13.46,16.78,35.09,20.92,46.12a8.32,8.32,0,0,1-4,10.31L223,148.51A7,7,0,0,1,213.3,145c-3.76-9.07-9.79-10.21-18.08-18.49-10.14-10.14-1.13-29.3-1.13-29.3C198,78,184.52,43.67,184.52,43.67c1.68-25.91-13-29.84-13-29.84C172.69-7.57,162,5.38,162,5.38c6.76,22.53-6.75,27-6.75,27,1.69-19.71-3.95-24.78-3.95-24.78C149,20,140.58,9.32,140.58,9.32l-1.12,7.88-13-14.64s-.57,22-.57,23.65S132.7,46.5,132.7,46.5l-9.58,7.88-5.63-1.7-3.94.58-6.2-7.33-6.2,1.13,8.45,19.71c15.64,12,15.3,21.2,13.8,25.49a7.23,7.23,0,0,0,.73,6.22,7.36,7.36,0,0,1-1.53,9.29c-17.5,15.42-20.88-4.39-20.88-4.39l2.75-14.2a8.76,8.76,0,0,0-1.26-6.52C94.11,69.06,77.55,70.31,66.82,73A15.86,15.86,0,0,0,55.47,84c-4.74,16.22-22.64,33.64-32.39,42.19a7.37,7.37,0,0,0,0,11l31.66,28.1a7.36,7.36,0,0,0,4.49,1.85l37.85,2.07a8.31,8.31,0,0,0,1.41-.05l12.5-1.73a2.59,2.59,0,0,1,3,2.75c-2.18,29.34-19.53,27.23-19.53,27.23-22.91-7.23-34.06,1.88-38.57,7.69a1.84,1.84,0,0,0,1.94,2.9l14.93-4.1a4.84,4.84,0,0,1,5.1,1.68,4.9,4.9,0,0,1,1,3,4.83,4.83,0,0,1-3,4.49c-31,12.27-4,28.83-4,28.83-3.59-1.8-12.55,10.72-16,15.88a3.6,3.6,0,0,1-3.94,1.44L46,257.64a3.59,3.59,0,0,0-3.2.65L27.93,270.1c-9.57-4.5-9-16.33-9.57-18.59-1.25-5,4.44-8.32,9.56-10.26a12.07,12.07,0,0,0,7.7-11.64c-.34-12.49-4.61-14.21-7.74-13.76a2.59,2.59,0,0,0-1.85,3.8c5.8,10.9-2,13.84-2,13.84-20.84,7.33-13,15.77-13,15.77-5.06,32.1,8.45,23.09,8.45,23.09,9.64,9.21,16.9,1.71,19.65-2.08a3.4,3.4,0,0,1,3.49-1.36l.11,0a3.6,3.6,0,0,1,2.15,5.66l-10.35,14a45,45,0,0,0-8.85,26.82v11.2a120.74,120.74,0,0,1-4.55,32.84l-.29,1a26.47,26.47,0,0,0,1,17.23l.87,2.1a1.8,1.8,0,0,1-1.15,2.41l-3.13.94a1.73,1.73,0,0,0-.73,2.88,1.69,1.69,0,0,1,.52,1.23,1.74,1.74,0,0,1-1,1.58c-4,1.84-12.14,5.56-15.14,6.93a1.76,1.76,0,0,0-1,1.77l.29,3.26a1.79,1.79,0,0,0,1.85,1.61l22.37-1a1.77,1.77,0,0,1,1.85,1.77v.43a1.77,1.77,0,0,0,2.17,1.73L39.77,403l9,4.51L77.5,407c19-3.16,21.63,6.34,22,10.23a1.76,1.76,0,0,0,1.75,1.6h7.57a1.75,1.75,0,0,0,1.67-2.3c-5.19-15.63,8.17-14.6,8.17-14.6a18.12,18.12,0,0,0,14.65-1.12,130.94,130.94,0,0,0,14.9,3.16,3.77,3.77,0,0,1,2.37,1.35l5.66,6.78a3.74,3.74,0,0,0,4.19,1.05,22.46,22.46,0,0,1,9.69-.81,3.84,3.84,0,0,0,3.82-5.49L172,402.88a3.84,3.84,0,0,1,.38-4l1.54-2a3.84,3.84,0,0,1,5.14-.94l2,1.24a3.86,3.86,0,0,0,2.69.55l1.84-.31a3.84,3.84,0,0,0,3.2-4.09c0-.1,0-.2,0-.3a3.85,3.85,0,0,1,3.53-3.83l8.47-.7a3.85,3.85,0,0,1,2.3.53l5.43,3.26a3.85,3.85,0,0,0,3.92,0l3.33-1.94a3.87,3.87,0,0,1,3.08-.35l3.75,1.15a4,4,0,0,1,2.42,2.25,12,12,0,0,0,2,2.9,20.44,20.44,0,0,0,12.43,6.41,28.65,28.65,0,0,1,13.08,5.63,17.53,17.53,0,0,0,15,3.08,36.72,36.72,0,0,1,4.24-.82,15.36,15.36,0,0,0,6.38-2.32,75.44,75.44,0,0,1,12.1-6,2.15,2.15,0,0,0,1-3.19l-.22-.33a2.17,2.17,0,0,0-3.09-.52c-5.51,3.83-24.48,2.54-24.48,2.54-5.64-5.64-16.9-3.95-16.9-3.95-18-2.25-23.09-24.21-23.09-24.21-6.19,1.68-12.95-10.72-12.95-10.72l-14.09-5.62c5.07-5.64-.56-20.27-.56-20.27l11.83-7.89L240.84,336c6.2,19.71,25.91,27,25.91,27s.56,16.33,1.12,20.84c.1.78.17,1.5.21,2.15a1.5,1.5,0,0,0,2.95.25c2-8-.34-24.38-.34-24.38l6.19,2.27c0-8.45,16.9-26.48,16.9-26.48C301.5,316.18,280.08,321.13,279.18,321.35ZM247,67.49c2.62-2.35,6-6.46,9.36-9.45,5.07-4.51,2.53,12.39,2.53,12.39,1.12-3.1,9.86-7,9.86-7a23.3,23.3,0,0,1-3.94,26.75c-2,.85-.57,12.4-.57,12.4-2.63-5.87-11.77-13.6-16.73-17.52A9.08,9.08,0,0,1,244,78.27l-.15-3.56A9.18,9.18,0,0,1,247,67.49Zm-121.6,86.3-46.94-1.45a23.54,23.54,0,0,1-13.81-5c-7.44-5.82-19.12-15.11-20.07-16.63-1.41-2.25,8.17-18.87,14.93-18.87s9.29-21.4,9.29-21.4,7.88-4.22,8.44,2.81S89.05,104.5,89.05,104.5l-.85,16.06C98.06,143.09,122,130.7,122,130.7s5.35-.85,4.78,4.23,4.5,9.57,4.5,9.57C133.26,167.31,125.37,153.79,125.37,153.79ZM169.5,271.05a.55.55,0,0,1-1.05.17c-1.6-3.94-4.49-3.87-6.78-8.69-2.81-5.92,5.66-24.81,5.66-24.81-1.12,18.86,2.25,20.56,2.54,21.39C170.06,259.69,169.73,266.66,169.5,271.05ZM154.74,91.18c-6.91-19.19,13.52-22,19.71-22.44a10.11,10.11,0,0,1,3.79.37,10.77,10.77,0,0,1,5.87,4.62c4,6.17,2.34,14.44-3.37,19.07C172.93,99.15,160.19,106.28,154.74,91.18Z" style="fill:#edbb0a"/><path d="M108.77,419.8h-7.56a2.78,2.78,0,0,1-2.76-2.52,10,10,0,0,0-3.72-7.14c-3.52-2.75-9.27-3.48-17.06-2.18h-.15l-29,.57-8.91-4.46-9.88,2.25a2.77,2.77,0,0,1-3.39-2.71v-.43a.78.78,0,0,0-.24-.56.76.76,0,0,0-.57-.22l-22.37,1a2.75,2.75,0,0,1-2.88-2.51L0,397.61a2.79,2.79,0,0,1,1.62-2.77l.68-.32c3.41-1.55,10.75-4.89,14.45-6.61a.74.74,0,0,0,.43-.67.73.73,0,0,0-.22-.53,2.72,2.72,0,0,1,1.15-4.54l3.13-.94a.78.78,0,0,0,.48-.41.8.8,0,0,0,0-.66l-.86-2.1a27.5,27.5,0,0,1-1-17.88l.28-1a119.6,119.6,0,0,0,4.52-32.57v-11.2a45.81,45.81,0,0,1,9-27.42l.66-.89L44.08,274a2.6,2.6,0,0,0-1.56-4.09l-.1,0a2.43,2.43,0,0,0-2.48,1c-1.72,2.37-5.34,6.41-10.35,6.86-3.42.31-6.86-1.08-10.25-4.13-1.27.64-4.05,1.69-6.52.11C8.85,271.15,7.9,263,10,249.54a7.06,7.06,0,0,1-1.21-5.86c1.05-4.29,6.06-8,14.89-11.13a5.94,5.94,0,0,0,3.1-3.33c.88-2.37.34-5.43-1.61-9.1a3.68,3.68,0,0,1,0-3.37,3.5,3.5,0,0,1,2.62-1.89,6,6,0,0,1,4.82,1.32c2.51,2.12,3.88,6.63,4.07,13.4a13,13,0,0,1-8.35,12.6c-4.67,1.77-10,4.79-8.94,9.09a14.32,14.32,0,0,1,.25,1.91c.4,3.95,1.22,12.06,8.23,15.74l14.4-11.42a4.6,4.6,0,0,1,4.09-.83l5.86,1.62a2.57,2.57,0,0,0,2.84-1c6.09-9,10.83-14.35,14.18-16-3.47-2.6-9.8-8.3-9.23-14.92.48-5.55,5.69-10.33,15.5-14.2A3.86,3.86,0,0,0,73,204.89L58,209a2.84,2.84,0,0,1-3-4.48c4.77-6.16,16.26-15.38,39.56-8.06a13.89,13.89,0,0,0,9.35-3.33c5.14-4.26,8.17-12,9-23a1.59,1.59,0,0,0-1.82-1.68l-12.5,1.72a9.24,9.24,0,0,1-1.6.06l-37.85-2.07a8.44,8.44,0,0,1-5.1-2.1L22.4,138a8.38,8.38,0,0,1,0-12.54c10-8.76,27.45-25.83,32.09-41.72A16.93,16.93,0,0,1,66.58,72c12-3,28.28-3.6,37.46,10.13a9.77,9.77,0,0,1,1.41,7.26l-2.71,14c.23,1.11,1.7,7.36,6.1,8.91,3.37,1.19,7.78-.59,13.1-5.27a6.37,6.37,0,0,0,1.34-8,8.19,8.19,0,0,1-.83-7.08c1.45-4.13,1.62-12.78-13.46-24.37l-.21-.16-9-21.1,8-1.45L114,52.19l3.61-.53,5.34,1.61,8.62-7.1c-1.83-5-6.59-18.3-6.59-20s.54-22.77.57-23.67L125.56,0l13.21,14.92,1.15-8,1.45,1.83c.92,1.16,4,4.36,6.14,3.85,1.61-.41,2.41-3,2.79-5.11l.32-1.77L152,6.88c.24.22,5.65,5.32,4.41,23.87,3.12-1.89,9.76-8.09,4.66-25.09l-.15-.51.34-.41c.46-.55,4.55-5.36,8-4,2.59,1,3.7,5.07,3.4,12.4,3.13,1.23,14.37,7.29,12.94,30.39,1.23,3.17,13.38,35.21,9.54,53.86l-.07.23c-.09.18-8.59,18.64.92,28.16a73.63,73.63,0,0,0,8,6.77c4.38,3.34,7.83,6,10.35,12.05a6.09,6.09,0,0,0,3.51,3.35,6,6,0,0,0,4.78-.31l2.35-1.22a7.33,7.33,0,0,0,3.48-9.07c-4.29-11.46-12.71-32.66-20.83-45.95a27.34,27.34,0,0,1-3.53-20c1.2-5.53,3.54-6.44,5.34-6.18a130.11,130.11,0,0,0,17-3,21.69,21.69,0,0,0,12.65-9c2.72-4.17,7.68-9.28,15.78-9.93,11.93-1,26.62,8,43.69,26.75l.21.24,0,.32L304,113.86l-1.52-.52c-.1,0-10.62-3.61-15.87,1.16-3.28,3-3.94,8.62-2,16.81l.82,3.44-2.5-2.5c-.28-.28-6.73-6.83-5.12-14.52,1.16-5.57,6.22-10.14,15-13.59l.36-.14.18.06c.22-.75.31-4.78-10.2-23.66-3.25,1.42-15.4,8.5-8.72,32.85l.56,2-1.93-.85c-1.79-.79-7.28-2.62-9-.75-.82.93-1.47,3.75,3.47,12.3,9.58,16.53,14.69,21.48,16.44,22.85l-1.16,1.63c-4-2.59-17.79-10.17-26,.84l-.74,1-.81-.92a6.87,6.87,0,0,1-1.49-5.06c.26-2.28,1.64-4.44,4.13-6.44-2.1-2.41-7.33-9.68-4-18.8a6.85,6.85,0,0,0-.27-5.85c-2-3.82-7.26-6.21-10.3-7.31,1.52,3.61,3.89,12.06,4,29.64a27.11,27.11,0,0,1-13.43,23.53l-5.86,3.4a11.45,11.45,0,0,0-5.69,10c.11,12,3.06,32.81,21.55,37.68a5.07,5.07,0,0,0,4.69-1.18l10.46-9.72a7,7,0,0,1,9.35-.17,7.13,7.13,0,0,1,2.4,4.83c.89,9.72,4.12,34.41,14.81,53.59l.13.22V260c0,.19-.26,19.11-22.86,27.36a10.1,10.1,0,0,1-10.32-2,9.89,9.89,0,0,1-3.1-9.8A32.49,32.49,0,0,1,257.55,261l2.51-2.73-.8,3.62c-2.23,10-2.53,16.13-1.68,16.88l.14.06a5.78,5.78,0,0,0,4.72.25c3.17-1,8-4.71,12.89-16.52.06-2,.27-20.82-12.58-31.1l-.27-.21-3.71-15.33L245,224.41l-.38-.07c-.37-.07-37.25-7.22-39.1-42a12.38,12.38,0,0,0-3.68-8.28l-11.17-10.86a2.64,2.64,0,0,0-4.41,1.29l-14.77,61.11,3.93,12.32,0,.21c0,.32-3.3,32.1,1.65,52.53l13.69,33.95,21.84-8.19,34.7,4.27a12.88,12.88,0,0,1,10.16,7.59l6.94,15.88a5.46,5.46,0,0,0,5.48,3.24,5,5,0,0,0,4.61-3.77l.14-.63.77-4.5a8.08,8.08,0,0,1,3.81-5.56l1.21-.73a6.27,6.27,0,0,0,2.9-4,5.61,5.61,0,0,0-.86-4.4,2.81,2.81,0,0,0-3-1.41l-.43-1.95c.43-.11,10.64-2.53,15.28,2.63,2.8,3.1,3,8.16.5,15l-.07.2-.14.15c-.17.17-16.63,17.83-16.63,25.79v1.43l-6-2.19c.54,4.39,1.76,16.4.1,23.11a2.5,2.5,0,0,1-4.92-.43c0-.63-.1-1.32-.2-2.09-.51-4-1-17.14-1.11-20.27-3.48-1.45-19.83-9.08-25.71-26.88l-32.25-7.66L197,336.4c1,3,4.4,13.7.92,19.43l13.22,5.28.17.32c1.78,3.25,7.37,11.44,11.81,10.22l1-.27.24,1c.05.21,5.11,21.2,22.12,23.43,1.39-.19,11.63-1.35,17.33,4,5.46.34,19.29.52,23.48-2.38a3.33,3.33,0,0,1,2.5-.55,3.08,3.08,0,0,1,2,1.34l.22.32a3.19,3.19,0,0,1,.39,2.7,3.15,3.15,0,0,1-1.84,2,73.42,73.42,0,0,0-11.92,5.92,16.45,16.45,0,0,1-6.81,2.48,34.44,34.44,0,0,0-4.11.79,18.43,18.43,0,0,1-15.84-3.25,27.37,27.37,0,0,0-12.63-5.44,21.42,21.42,0,0,1-13-6.74,12.74,12.74,0,0,1-2.14-3.15,3,3,0,0,0-1.81-1.71L218.51,391a2.88,2.88,0,0,0-2.29.26l-3.33,1.94a4.86,4.86,0,0,1-4.93,0l-5.44-3.27a2.87,2.87,0,0,0-1.7-.39l-8.47.71a2.86,2.86,0,0,0-2.61,2.83,1.21,1.21,0,0,0,0,.19,4.85,4.85,0,0,1-4,5.19l-1.84.31a4.93,4.93,0,0,1-3.39-.69l-2-1.24a2.85,2.85,0,0,0-3.8.69l-1.54,2a2.86,2.86,0,0,0-.28,2.94l1.89,3.94a4.84,4.84,0,0,1-.43,4.91,4.74,4.74,0,0,1-4.41,2,20.83,20.83,0,0,0-9.24.75,4.77,4.77,0,0,1-5.3-1.35l-5.66-6.78a2.82,2.82,0,0,0-1.75-1,131.54,131.54,0,0,1-14.62-3.08,19.17,19.17,0,0,1-15,1c-.71,0-4.73,0-6.83,2.66-1.74,2.23-1.81,5.81-.21,10.64a2.69,2.69,0,0,1-.37,2.45A2.76,2.76,0,0,1,108.77,419.8ZM84.5,405.34c4.87,0,8.71,1.08,11.46,3.22a12,12,0,0,1,4.49,8.56.75.75,0,0,0,.76.68h7.56a.75.75,0,0,0,.62-.32.72.72,0,0,0,.1-.65c-1.83-5.52-1.65-9.73.54-12.53,3-3.79,8.43-3.41,8.66-3.4l.24.05a17.23,17.23,0,0,0,13.79-1l.38-.24.43.12A127,127,0,0,0,148.31,403a4.86,4.86,0,0,1,3,1.7l5.65,6.78a2.72,2.72,0,0,0,3.07.75,22.91,22.91,0,0,1,10.14-.86,2.78,2.78,0,0,0,2.57-1.17,2.85,2.85,0,0,0,.25-2.9l-1.88-3.94a4.85,4.85,0,0,1,.48-5l1.54-2a4.87,4.87,0,0,1,6.48-1.18l1.94,1.23a2.83,2.83,0,0,0,2,.41l1.84-.31a2.81,2.81,0,0,0,2.36-3c0-.11,0-.24,0-.38a4.86,4.86,0,0,1,4.45-4.82l8.47-.71a5,5,0,0,1,2.89.67l5.44,3.26a2.87,2.87,0,0,0,2.9,0l3.33-1.94a4.93,4.93,0,0,1,3.88-.45l3.74,1.15a5,5,0,0,1,3,2.8,10.6,10.6,0,0,0,1.8,2.64,19.46,19.46,0,0,0,11.83,6.09,29.36,29.36,0,0,1,13.54,5.82,16.4,16.4,0,0,0,14.14,2.91,38.14,38.14,0,0,1,4.35-.84,14.36,14.36,0,0,0,6-2.17,75.66,75.66,0,0,1,12.26-6.1,1.12,1.12,0,0,0,.67-.72,1.2,1.2,0,0,0-.14-1l-.23-.33a1.07,1.07,0,0,0-.7-.47,1.29,1.29,0,0,0-1,.22c-5.73,4-24.33,2.77-25.12,2.71l-.37,0-.27-.27c-5.22-5.22-15.93-3.68-16-3.66l-.14,0-.13,0c-16.35-2-22.47-19.81-23.7-24.07-6,.5-11.82-9.11-12.92-11.05l-15.09-6,1-1.07c4.6-5.11-.7-19.1-.76-19.24l-.28-.75,12.86-8.57,34.2,8.11.17.55c6,19,25.11,26.32,25.3,26.39l.63.24,0,.67c0,.16.56,16.33,1.11,20.74.11.8.17,1.54.22,2.21a.44.44,0,0,0,.43.47.49.49,0,0,0,.55-.39c1.92-7.77-.33-23.83-.36-24l-.23-1.66,6.53,2.39c1.44-8.74,15.24-23.82,16.91-25.62,2.12-6,2.07-10.32-.17-12.81s-6.32-2.78-9.37-2.58a7.05,7.05,0,0,1,.68.82,7.58,7.58,0,0,1,1.17,6,8.28,8.28,0,0,1-3.82,5.35l-1.21.72a6.1,6.1,0,0,0-2.87,4.19l-.77,4.51c-.05.27-.11.52-.17.77a7,7,0,0,1-6.39,5.27,7.41,7.41,0,0,1-7.47-4.43l-6.95-15.88a10.84,10.84,0,0,0-8.57-6.4l-34.2-4.22-23.21,8.71-14.49-36c-4.85-19.88-2-50.24-1.74-53.07l-4-12.46.07-.27L184.29,164a4.64,4.64,0,0,1,7.75-2.25l11.17,10.85a14.39,14.39,0,0,1,4.29,9.62c1.67,31.41,33.31,39.26,37.1,40.08l15.47-9.52,4.19,17.34c14,11.5,13.11,31.85,13.06,32.72V263l-.07.16c-4.23,10.21-9,16.22-14.27,17.85a8,8,0,0,1-6.24-.44c-.85-.35-2.91-1.61-.26-15.14a28.93,28.93,0,0,0-5,10.59,7.93,7.93,0,0,0,2.48,7.85,8.12,8.12,0,0,0,8.3,1.57c20.11-7.34,21.46-23,21.54-25.23-10.77-19.47-14-44.33-14.92-54.14a5.19,5.19,0,0,0-1.71-3.49,5,5,0,0,0-6.68.12L250,212.42a7,7,0,0,1-6.56,1.64c-19.77-5.2-22.92-27-23-39.59a13.46,13.46,0,0,1,6.68-11.73l5.86-3.4a25.12,25.12,0,0,0,12.44-21.8c-.08-24.36-4.7-30.66-4.75-30.72l-1.76-2.3,2.8.71c.43.12,10.55,2.79,13.83,9a8.88,8.88,0,0,1,.38,7.47c-3.66,9.93,3.92,17.2,4.25,17.51l.88.83-1,.71c-2.57,1.84-4,3.77-4.2,5.73a4.82,4.82,0,0,0,.37,2.43c6.72-7.69,16.17-5.66,22.28-3.08-2.87-3.48-7-9.29-12.57-18.9-4.31-7.46-5.37-12.24-3.23-14.63s6.78-1.34,9.4-.46c-6.75-27.69,11.11-33.63,11.3-33.69l.77-.24.4.71c13.16,23.5,11.11,25.91,10.34,26.82a1.76,1.76,0,0,1-1.55.61c-8,3.18-12.53,7.23-13.54,12-.75,3.59.64,7,2.08,9.38-1-6.72.18-11.59,3.4-14.5,4.89-4.43,13-2.91,16.37-2l-4.84-39.85c-16.54-18.07-30.61-26.77-41.84-25.88-7.3.59-11.79,5.24-14.27,9a23.62,23.62,0,0,1-13.81,9.82A132.3,132.3,0,0,1,209.4,67.2l-.14,0-.14,0c-1.72-.31-2.68,2.34-3.18,4.61a25.38,25.38,0,0,0,3.29,18.55c8.2,13.43,16.67,34.77,21,46.29a9.33,9.33,0,0,1-4.43,11.55l-2.35,1.21a7.88,7.88,0,0,1-6.39.42,8.1,8.1,0,0,1-4.67-4.46c-2.31-5.57-5.41-8-9.71-11.23a74.57,74.57,0,0,1-8.16-6.95c-10.22-10.21-2.19-28.55-1.38-30.31,3.76-18.66-9.41-52.49-9.54-52.83l-.09-.21,0-.22c1.61-24.69-11.66-28.66-12.23-28.82l-.77-.21,0-.81c.48-9.16-1.3-10.87-2.1-11.18-1.49-.59-4.05,1.59-5.36,3,6.58,22.74-7.41,27.69-7.55,27.74l-1.45.48.13-1.51c1.13-13.11-1.06-19.57-2.5-22.3-.8,2.55-2,4.05-3.73,4.47-2.51.62-5.13-1.37-6.73-2.93l-1.13,7.91L127.43,5.13c-.15,5.83-.5,19.77-.5,21.08.07,1.16,3.5,11.14,6.71,19.95l.24.66L123.35,55.5l-5.94-1.79-4.27.62L107,47l-4.4.8,7.86,18.32C126.28,78.42,126,88,124.34,92.59A6.18,6.18,0,0,0,125,98a8.41,8.41,0,0,1-1.71,10.57c-5.91,5.2-11,7.11-15.1,5.65-5.91-2.09-7.37-10.27-7.43-10.62l0-.18L103.49,89a7.77,7.77,0,0,0-1.11-5.77c-8.54-12.76-23.92-12.1-35.32-9.3A14.94,14.94,0,0,0,56.43,84.27C51.65,100.64,33.89,118,23.74,126.93a6.38,6.38,0,0,0,0,9.54L55.4,164.58a6.4,6.4,0,0,0,3.88,1.59l37.84,2.07a6.88,6.88,0,0,0,1.22,0l12.5-1.73a3.6,3.6,0,0,1,4.09,3.82c-.86,11.59-4.14,19.81-9.75,24.42a15.49,15.49,0,0,1-10.9,3.73l-.18,0c-22.21-7-33,1.59-37.48,7.35a.83.83,0,0,0,.88,1.32L72.44,203a5.82,5.82,0,0,1,6.15,2,5.88,5.88,0,0,1,1.26,3.63A5.81,5.81,0,0,1,76.19,214c-9,3.57-13.84,7.78-14.25,12.51-.66,7.66,10.33,14.47,10.45,14.54l-1,1.74c-1.53-.76-6.81,3.77-14.76,15.55a4.6,4.6,0,0,1-5,1.84l-5.85-1.62a2.62,2.62,0,0,0-2.32.47l-15.38,12.2-.56-.26C19,267,18,257.45,17.59,253.38c-.07-.71-.13-1.33-.2-1.62-.79-3.16.33-7.72,10.18-11.45a11,11,0,0,0,7-10.67c-.21-7.7-1.94-10.74-3.36-11.93a4,4,0,0,0-3.24-.87,1.47,1.47,0,0,0-1.12.82,1.63,1.63,0,0,0,0,1.52c2.24,4.22,2.81,7.85,1.7,10.78a8,8,0,0,1-4.27,4.47c-10.15,3.56-13,7.24-13.63,9.7a5.08,5.08,0,0,0,1,4.46l.32.35-.07.48c-2.66,16.88,0,21.39,1.87,22.58,2.15,1.39,5-.46,5-.48l.67-.44.57.55c3.13,3,6.24,4.37,9.24,4.09,4.22-.38,7.39-4,8.91-6a4.42,4.42,0,0,1,4.51-1.75l.1,0a4.6,4.6,0,0,1,2.76,7.23c-2.56,3.47-6.25,8.43-9.7,13.1l-.66.88a43.8,43.8,0,0,0-8.65,26.23v11.2a121.67,121.67,0,0,1-4.59,33.12l-.29,1a25.63,25.63,0,0,0,.93,16.58l.87,2.1a2.79,2.79,0,0,1-1.78,3.75l-3.13.93a.72.72,0,0,0-.5.52.74.74,0,0,0,.19.7,2.73,2.73,0,0,1-.79,4.43c-3.69,1.71-11,5.06-14.45,6.61l-.68.32a.76.76,0,0,0-.46.77l.3,3.25a.77.77,0,0,0,.8.71l22.37-1a2.77,2.77,0,0,1,2.9,2.77v.43a.79.79,0,0,0,.29.61.8.8,0,0,0,.66.15L39.89,402,49,406.53l28.4-.55A43,43,0,0,1,84.5,405.34ZM169,272.56a1.53,1.53,0,0,1-1.43-1,8.93,8.93,0,0,0-2.78-3.57,14.53,14.53,0,0,1-4-5.07c-2.93-6.16,4.76-23.68,5.65-25.65l2.23-5-.32,5.46c-1,16.09,1.35,19.3,2.1,20.35a2.31,2.31,0,0,1,.38.66c.11.31.28.86-.31,12.31a1.54,1.54,0,0,1-1.29,1.44A1.18,1.18,0,0,1,169,272.56Zm-2.84-29.23c-2.43,6.41-5.15,15.37-3.54,18.77a12.78,12.78,0,0,0,3.5,4.44,12.82,12.82,0,0,1,2.52,2.76c.31-6.3.37-9.2.32-9.87l-.1-.13C168,258.14,165.94,255.3,166.11,243.33Zm-36.6-84.56c-1.95,0-3.85-2.62-4.71-4l-46.4-1.43A24.39,24.39,0,0,1,64,148.12c-12.67-9.92-19.49-15.6-20.29-16.89-.94-1.48.64-5,2.13-7.7,2.61-4.72,8.42-12.7,13.64-12.7,4.28,0,7.36-12.58,8.29-20.52l.06-.52.46-.24c.47-.25,4.62-2.38,7.51-.8,1.43.77,2.24,2.26,2.41,4.41.51,6.33,11.08,10.37,11.19,10.41l.69.26-.88,16.55c2.64,5.9,6.53,9.8,11.57,11.59,9.74,3.45,20.65-2.1,20.76-2.16l.14-.07.16,0c.12,0,3-.45,4.73,1.22a4.68,4.68,0,0,1,1.21,4.11c-.5,4.49,4.12,8.67,4.17,8.71l.3.27,0,.39c1,11.65-.51,13.74-2.13,14.26A2,2,0,0,1,129.51,158.77ZM69.69,91.09c-.5,3.91-3.19,21.74-10.21,21.74-2.3,0-5.6,2.6-8.85,7-3.68,4.95-5.46,9.57-5.2,10.43.48.75,6,5.48,19.8,16.33a22.43,22.43,0,0,0,13.23,4.79L126,152.8l.28.48c1.2,2.06,2.82,3.63,3.3,3.48,0,0,1.7-.67.78-11.8-1.14-1.11-5.07-5.32-4.53-10.14a2.84,2.84,0,0,0-.61-2.45,4,4,0,0,0-2.89-.7c-1.51.75-12.19,5.72-22.18,2.18-5.64-2-10-6.33-12.83-12.88l-.09-.22L88,105.17c-2.55-1.09-11.26-5.24-11.79-11.85a3.28,3.28,0,0,0-1.38-2.82C73.39,89.71,70.94,90.52,69.69,91.09ZM266,109l-2.7-6c-2.51-5.61-11.38-13.15-16.44-17.14A10,10,0,0,1,243,78.32l-.16-3.57a10.19,10.19,0,0,1,3.42-8c1.18-1.06,2.54-2.5,4-4,1.74-1.86,3.54-3.77,5.39-5.41,1.41-1.26,2.45-1.13,3.08-.79,2.05,1.11,1.94,6.56,1.52,10.73a41.55,41.55,0,0,1,8-4.76l.89-.4.42.88c7.83,16.23-4,27.79-4.15,27.91l-.13.12-.16.07c-.61.68-.64,5.91,0,11.36Zm-8.21-50.72a2.27,2.27,0,0,0-.79.52c-1.78,1.58-3.55,3.46-5.26,5.29-1.47,1.56-2.86,3-4.1,4.15h0a8.2,8.2,0,0,0-2.75,6.44l.15,3.56a8,8,0,0,0,3.07,6c4.16,3.28,10.82,8.91,14.7,14.1-.27-4.15-.08-8,1.37-9a22,22,0,0,0,4.06-24.61c-3.24,1.56-7.78,4.25-8.43,6l-1.93-.49C258.73,64.55,258.69,58.83,257.79,58.27ZM165.1,101.16a10.82,10.82,0,0,1-2.89-.38c-3.73-1-6.56-4.15-8.41-9.26h0c-2.15-6-1.94-11,.64-15,4.62-7.06,15.49-8.53,19.95-8.83a11,11,0,0,1,4.15.42,11.76,11.76,0,0,1,6.41,5c4.16,6.44,2.59,15.4-3.58,20.4C176.91,97.2,170.75,101.16,165.1,101.16Zm-9.42-10.32c1.61,4.46,4,7.16,7.07,8,5.52,1.53,12.49-2.86,17.36-6.83,5.39-4.36,6.78-12.16,3.16-17.75a9.76,9.76,0,0,0-5.33-4.2,9,9,0,0,0-3.42-.33c-4.16.28-14.28,1.61-18.4,7.92-2.22,3.39-2.36,7.83-.44,13.18Z" style="fill:#fff"/><circle cx="169.02" cy="84.23" r="6.74" style="fill:#c92407"/><path d="M169,92a7.74,7.74,0,1,1,7.74-7.74A7.75,7.75,0,0,1,169,92Zm0-13.48a5.74,5.74,0,1,0,5.74,5.74A5.75,5.75,0,0,0,169,78.49Z" style="fill:#fff"/></g></g></svg>