<svg xmlns="http://www.w3.org/2000/svg" viewBox="0 0 236.43 326.77"><title>Zombie</title><g id="a963c2d4-d5e6-4bdf-a491-77d932b5a5bf" data-name="Layer 2"><g id="a005f577-a3df-445d-aa4e-d2051bf17faa" data-name="Layer 1"><rect x="54.63" y="223.37" width="17.04" height="16.41" rx="4.56" transform="translate(154.29 9.52) rotate(37.57)" style="fill:#f9f6e1"/><path d="M64.07,242.44a5.57,5.57,0,0,1-3.39-1.15l-6.28-4.83a5.56,5.56,0,0,1-1-7.8l4.44-5.78a5.58,5.58,0,0,1,7.8-1l6.28,4.83a5.57,5.57,0,0,1,1,7.8l-4.44,5.78A5.58,5.58,0,0,1,64.07,242.44Zm-1.83-19.73a3.55,3.55,0,0,0-2.82,1.39L55,229.88a3.55,3.55,0,0,0-.71,2.63,3.58,3.58,0,0,0,1.36,2.36l6.28,4.83a3.55,3.55,0,0,0,5-.65l4.45-5.78a3.56,3.56,0,0,0-.65-5l-6.28-4.83A3.54,3.54,0,0,0,62.24,222.71Z" style="fill:#fff"/><rect x="70.57" y="205.54" width="17.04" height="16.41" rx="4.56" transform="translate(191.21 15.32) rotate(49.78)" style="fill:#f9f6e1"/><path d="M78.87,224.68a5.55,5.55,0,0,1-4.25-2l-5.11-6a5.56,5.56,0,0,1,.65-7.84l5.57-4.71a5.56,5.56,0,0,1,7.83.66l5.12,6a5.57,5.57,0,0,1-.66,7.84l-5.56,4.71A5.54,5.54,0,0,1,78.87,224.68Zm-2.72-3.26a3.56,3.56,0,0,0,5,.42l5.56-4.71a3.55,3.55,0,0,0,.42-5L82,206.07a3.55,3.55,0,0,0-2.43-1.25,3.46,3.46,0,0,0-2.59.83l-5.57,4.71a3.55,3.55,0,0,0-.42,5Z" style="fill:#fff"/><rect x="99.45" y="193.7" width="17.04" height="16.41" rx="4.56" transform="translate(-20.66 12.49) rotate(-6.04)" style="fill:#f9f6e1"/><path d="M104.4,211.51a5.54,5.54,0,0,1-5.51-5l-.77-7.25a5.56,5.56,0,0,1,4.94-6.12l7.88-.83a5.56,5.56,0,0,1,6.11,4.94l.77,7.25a5.56,5.56,0,0,1-4.94,6.12l-7.88.83Q104.7,211.51,104.4,211.51Zm7.13-17.2a2.42,2.42,0,0,0-.38,0l-7.88.83a3.56,3.56,0,0,0-3.16,3.92l.76,7.25a3.55,3.55,0,0,0,1.31,2.39,3.48,3.48,0,0,0,2.61.77l7.88-.83a3.58,3.58,0,0,0,2.39-1.3,3.54,3.54,0,0,0,.77-2.62l-.76-7.25A3.58,3.58,0,0,0,111.53,194.31Z" style="fill:#fff"/><rect x="136.06" y="198.12" width="17.04" height="16.41" rx="4.56" transform="translate(155.78 -45.36) rotate(37.57)" style="fill:#f9f6e1"/><path d="M145.49,217.19a5.48,5.48,0,0,1-3.38-1.15l-6.28-4.83a5.57,5.57,0,0,1-1-7.8l4.44-5.78a5.57,5.57,0,0,1,7.8-1l6.28,4.83a5.56,5.56,0,0,1,1,7.79L149.9,215A5.55,5.55,0,0,1,145.49,217.19Zm-2.17-2.74a3.56,3.56,0,0,0,5-.65l4.44-5.78a3.56,3.56,0,0,0-.65-5l-6.28-4.83a3.56,3.56,0,0,0-5,.65l-4.44,5.78a3.55,3.55,0,0,0,.65,5Z" style="fill:#fff"/><rect x="162.57" y="220.21" width="17.04" height="16.41" rx="4.56" transform="translate(174.75 -56.95) rotate(37.57)" style="fill:#f9f6e1"/><path d="M172,239.28a5.48,5.48,0,0,1-3.38-1.15l-6.28-4.83a5.57,5.57,0,0,1-1-7.8l4.44-5.77a5.55,5.55,0,0,1,7.8-1l6.28,4.83a5.58,5.58,0,0,1,1,7.8l-4.45,5.77A5.52,5.52,0,0,1,172,239.28Zm-2.17-2.73a3.58,3.58,0,0,0,5-.66l4.44-5.77a3.57,3.57,0,0,0,.71-2.64,3.51,3.51,0,0,0-1.36-2.36l-6.28-4.83a3.55,3.55,0,0,0-5,.65l-4.44,5.78a3.57,3.57,0,0,0,.65,5Z" style="fill:#fff"/><rect x="84.3" y="290.43" width="17.04" height="16.41" rx="4.56" transform="translate(347.58 117.26) rotate(71.82)" style="fill:#f9f6e1"/><path d="M90.59,309.1a5.58,5.58,0,0,1-2.51-.6,5.51,5.51,0,0,1-2.77-3.22l-2.47-7.53a5.57,5.57,0,0,1,3.55-7l6.92-2.27a5.56,5.56,0,0,1,7,3.54l2.47,7.53a5.57,5.57,0,0,1-3.54,7l-6.93,2.27A5.51,5.51,0,0,1,90.59,309.1Zm-3.38-4.45A3.57,3.57,0,0,0,89,306.72a3.5,3.5,0,0,0,2.71.2l6.93-2.27a3.57,3.57,0,0,0,2.07-1.78,3.5,3.5,0,0,0,.2-2.71l-2.47-7.53a3.57,3.57,0,0,0-1.78-2.07,3.5,3.5,0,0,0-2.71-.2L87,292.63a3.57,3.57,0,0,0-2.27,4.5Z" style="fill:#fff"/><rect x="139.85" y="290.43" width="17.04" height="16.41" rx="4.56" transform="translate(72.75 -26.14) rotate(13.31)" style="fill:#f9f6e1"/><path d="M151.38,308.66a5.66,5.66,0,0,1-1.28-.15l-7.71-1.82a5.56,5.56,0,0,1-4.13-6.69l1.68-7.1a5.56,5.56,0,0,1,6.69-4.13l7.71,1.82a5.57,5.57,0,0,1,4.13,6.7l-1.68,7.09A5.57,5.57,0,0,1,151.38,308.66Zm-6-18a3.55,3.55,0,0,0-3.45,2.74l-1.68,7.1a3.54,3.54,0,0,0,2.64,4.28l7.71,1.82a3.53,3.53,0,0,0,2.69-.43,3.56,3.56,0,0,0,1.6-2.21l1.68-7.09a3.57,3.57,0,0,0-2.65-4.29l-7.71-1.82A3.31,3.31,0,0,0,145.34,290.62Z" style="fill:#fff"/><circle cx="161.94" cy="120.8" r="15.78" style="fill:#f9f6e1"/><path d="M161.94,137.58a16.78,16.78,0,1,1,16.78-16.78A16.8,16.8,0,0,1,161.94,137.58Zm0-31.56a14.78,14.78,0,1,0,14.78,14.78A14.8,14.8,0,0,0,161.94,106Z" style="fill:#fff"/><circle cx="73.57" cy="120.8" r="15.78" style="fill:#f9f6e1"/><path d="M73.57,137.58A16.78,16.78,0,1,1,90.35,120.8,16.8,16.8,0,0,1,73.57,137.58Zm0-31.56A14.78,14.78,0,1,0,88.35,120.8,14.8,14.8,0,0,0,73.57,106Z" style="fill:#fff"/><path d="M235.43,111.06c0-2-.07-4-.15-5.92a114.48,114.48,0,0,0-4.38-26.57c-22.2,4.39-33.31-13.7-33.31-13.7-15.08,0-16.93-11.13-16.58-18.22a3.59,3.59,0,0,0-4.23-3.74c-4,.78-10.45.75-19.87-3-14.59-5.84-14.63-18.35-10.52-30a4.81,4.81,0,0,0-3.62-6.34c-3.41-.63-6.87-1.16-10.35-1.61-2.37-.29-4.75-.59-7.12-.67C123.59,1.07,121.81,1,120,1h-3.64c-1.78,0-3.56.07-5.26.22-2.37.08-4.75.38-7.12.67C70.49,6.12,39.93,18.14,20.8,45.8l-3,4.75A117,117,0,0,0,1,110.1v1c0,2.6.07,5.12.21,7.65C3.14,158,18.58,198.8,17.39,237.59c-.67,20.62,33.15,55.26,51,76.1A35.28,35.28,0,0,0,95,325.77h46.28a35,35,0,0,0,26.62-12.08c17.95-20.84,51.7-55.48,51.1-76.1-1.26-38.79,14.24-79.66,16.17-118.88C235.36,116.18,235.43,113.66,235.43,111.06ZM116,157.79a3.17,3.17,0,0,1,4.52,0c5,5.48,17,13.58,19.21,18.32,5.49,12.39-12.09,12-18.92,6.08a3.93,3.93,0,0,0-5.11,0c-6.82,5.93-24.4,6.31-18.91-6.08C98.89,171.37,110.9,163.27,116,157.79ZM23.7,109.88c10.89-7.94,27.06-8.6,39.75-5.49S84.73,118.33,97.33,122c12.76,3.78,7.42,17.28.08,23.65-11,9.72-35,11.88-48.8,8.68C37.7,151.78,8.71,120.78,23.7,109.88ZM176,279.79c-3.49,9.42-10.83,23.36-24.18,21.36L139,299.29a121.19,121.19,0,0,0-42.34,1l-10.45,2.07C72,305.23,62,286.61,57,276.67c-5.86-11.79-14.31-30.4-4.15-42.2,11.94-13.87,31.74-34.18,47.09-37a116.16,116.16,0,0,1,16.61-1.93,4.49,4.49,0,0,1,1,0h.89A116.29,116.29,0,0,1,135,197.47c15.35,2.82,35.15,23.13,47.09,37C191.53,245.38,180.41,268.15,176,279.79ZM187,154.3c-13.71,3.2-37.74,1-48.8-8.68-7.34-6.37-12.68-19.87.08-23.65,12.61-3.64,21.06-14.47,33.89-17.58s28.85-2.45,39.76,5.49C226.9,120.78,197.91,151.78,187,154.3Z" style="fill:#a19594"/><path d="M141.32,326.77H95a36.38,36.38,0,0,1-27.38-12.43c-2.59-3-5.52-6.34-8.63-9.85-18.24-20.64-43.22-48.91-42.64-66.93C17,216.29,12.58,194,8.27,172.39,4.74,154.73,1.08,136.46.21,118.75.07,116.12,0,113.6,0,111.06v-1A118.38,118.38,0,0,1,16.9,50L20,45.26C37.19,20.35,64.63,5.85,103.88.9c2.39-.3,4.81-.6,7.22-.68,1.66-.14,3.47-.22,5.29-.22H120c1.83,0,3.63.08,5.35.23,2.37.07,4.81.38,7.16.67,3.55.45,7.06,1,10.42,1.62a5.75,5.75,0,0,1,3.92,2.77,5.84,5.84,0,0,1,.45,4.88c-5.07,14.42-1.72,24.11,9.95,28.79,9.37,3.75,15.67,3.69,19.31,3a4.45,4.45,0,0,1,3.81,1A4.65,4.65,0,0,1,182,46.7c-.2,3.93.3,9.38,3.78,13,2.61,2.74,6.58,4.13,11.8,4.13h.56l.29.48c.45.71,11,17.45,32.27,13.24l.9-.18.25.88a115.12,115.12,0,0,1,4.42,26.8c.09,2.12.15,4,.15,6,0,2.62-.07,5.14-.22,7.7-.87,17.63-4.52,35.85-8.05,53.47-4.33,21.64-8.81,44-8.12,65.33.52,18.11-24.61,46.5-43,67.23-3,3.41-5.85,6.62-8.38,9.55A36.12,36.12,0,0,1,141.32,326.77ZM116.39,2c-1.77,0-3.51.07-5.18.22-2.36.08-4.74.37-7,.66C65.48,7.75,38.49,22,21.62,46.37l-3,4.71a116.35,116.35,0,0,0-16.6,59v1c0,2.51.07,5,.21,7.59.87,17.57,4.5,35.76,8,53.35,4.33,21.69,8.82,44.13,8.16,65.63-.56,17.23,24.12,45.15,42.14,65.54,3.11,3.51,6,6.84,8.64,9.86A34.37,34.37,0,0,0,95,324.77h46.28A34.13,34.13,0,0,0,167.19,313c2.53-2.94,5.38-6.15,8.39-9.56,18.13-20.48,43-48.53,42.46-65.85-.7-21.54,3.8-44,8.16-65.78,3.52-17.55,7.15-35.7,8-53.18.15-2.54.22-5,.22-7.6,0-1.91-.06-3.8-.14-5.89a114.07,114.07,0,0,0-4.1-25.45,34.94,34.94,0,0,1-6,.53c-16.22,0-25.33-11.85-27.09-14.38-5.53-.1-9.81-1.7-12.71-4.75-4-4.17-4.56-10.2-4.34-14.52a2.64,2.64,0,0,0-.92-2.14,2.45,2.45,0,0,0-2.12-.57c-3.9.77-10.61.86-20.43-3.08-12.68-5.07-16.51-15.9-11.09-31.3a3.88,3.88,0,0,0-.3-3.21,3.71,3.71,0,0,0-2.56-1.81c-3.32-.62-6.79-1.16-10.3-1.6-2.31-.29-4.69-.59-7-.67C123.54,2.07,121.8,2,120,2Zm-33,301.69c-13.95,0-23.5-19.07-27.26-26.57-4.9-9.87-15.1-30.42-4-43.3C63,221.14,83.71,199.43,99.75,196.49a115.19,115.19,0,0,1,16.75-2h.28a3.32,3.32,0,0,1,.83,0h.79a115.05,115.05,0,0,1,16.8,2c16.05,2.94,36.75,24.65,47.67,37.33,8.62,10,1,28.92-4,41.45-.71,1.77-1.37,3.41-1.92,4.87-4.12,11.15-11.85,24-25.26,22l-12.83-1.86a119.8,119.8,0,0,0-42,1l-10.46,2.07A15.4,15.4,0,0,1,83.35,303.69Zm33.86-107.18h-.28l-.39,0a114.06,114.06,0,0,0-16.42,1.91c-15.45,2.84-35.78,24.2-46.52,36.68-10.23,11.87-.43,31.61,4.28,41.1,3.84,7.65,14,28,28.14,25.2l10.46-2.07a121.56,121.56,0,0,1,42.69-1.05L152,300.16c12.09,1.81,19.23-10.27,23.1-20.72h0c.55-1.48,1.22-3.13,1.93-4.91,4.84-12.08,12.16-30.33,4.33-39.4-10.74-12.48-31.07-33.84-46.51-36.68a114.21,114.21,0,0,0-16.48-1.91h-1l-.12,0Zm15.35-9.3c-4.49,0-9.5-1.71-12.44-4.27a2.94,2.94,0,0,0-3.79,0c-4.65,4-14.39,6-19.15,2.44-1.59-1.17-3.87-4-1.35-9.67,1.39-3.08,6.18-7.07,11.25-11.3a94.33,94.33,0,0,0,8.14-7.29h0a4.18,4.18,0,0,1,6,0,94.33,94.33,0,0,0,8.16,7.32c5.06,4.22,9.83,8.21,11.23,11.28,2.52,5.69.24,8.5-1.34,9.67A11.31,11.31,0,0,1,132.56,187.21Zm-14.35-7a4.82,4.82,0,0,1,3.23,1.19c4.32,3.76,13,5,16.63,2.32,2-1.44,2.19-3.88.7-7.25-1.2-2.64-6-6.66-10.68-10.56a93.78,93.78,0,0,1-8.35-7.49,2.26,2.26,0,0,0-3,0,94.83,94.83,0,0,1-8.33,7.46c-4.67,3.9-9.5,7.94-10.7,10.59-1.49,3.36-1.25,5.8.7,7.24,3.6,2.66,12.31,1.44,16.64-2.33A4.81,4.81,0,0,1,118.21,180.25Zm55.31-23.56c-13.22,0-28.09-3.38-36-10.32-4.82-4.18-9-11.57-7.72-17.58.56-2.61,2.44-6.08,8.17-7.78,6-1.72,11.11-5.17,16.08-8.51,5.44-3.66,11.07-7.43,17.86-9.08,11.87-2.92,28.76-3,40.59,5.65,3.89,2.84,5.36,7.24,4.24,12.73-2.83,13.87-21,31.5-29.53,33.47h0A61.57,61.57,0,0,1,173.52,156.69Zm13.16-53a61,61,0,0,0-14.27,1.71c-6.45,1.57-11.68,5.08-17.22,8.8-5.11,3.42-10.38,7-16.63,8.77-3.85,1.14-6.13,3.25-6.79,6.28-1.12,5.2,2.81,11.95,7.09,15.66,10.4,9.14,33.59,11.79,47.92,8.46h0c7.89-1.83,25.38-19,28-31.93,1-4.73-.2-8.34-3.46-10.71C204.27,105.54,195.24,103.65,186.68,103.65Zm-124.55,53a62,62,0,0,1-13.75-1.42c-8.54-2-26.7-19.6-29.53-33.47-1.12-5.49.36-9.89,4.26-12.73h0c11.81-8.61,28.7-8.57,40.57-5.65,6.8,1.65,12.42,5.43,17.87,9.08,5,3.34,10.12,6.79,16.06,8.51,5.74,1.7,7.62,5.17,8.19,7.78,1.3,6-2.91,13.4-7.74,17.59C90.24,153.31,75.38,156.69,62.13,156.69Zm-13.2-53c-8.56,0-17.58,1.89-24.65,7h0c-3.26,2.38-4.43,6-3.47,10.71,2.65,13,20.13,30.1,28,31.93,14.4,3.33,37.61.68,47.92-8.46,4.28-3.71,8.22-10.46,7.09-15.66-.65-3-2.94-5.14-6.79-6.28-6.24-1.8-11.51-5.35-16.62-8.77-5.54-3.72-10.77-7.23-17.22-8.8A61.08,61.08,0,0,0,48.93,103.65Z" style="fill:#fff"/></g></g></svg>